<?xml version="1.0" encoding="UTF-8"?>
<svg width="183px" height="134px" viewBox="0 0 183 134" version="1.1" xmlns="http://www.w3.org/2000/svg" xmlns:xlink="http://www.w3.org/1999/xlink">
    <!-- Generator: Sketch 52.5 (67469) - http://www.bohemiancoding.com/sketch -->
    <title>_Group_113</title>
    <desc>Created with Sketch.</desc>
    <g id="Page-1" stroke="none" stroke-width="1" fill="none" fill-rule="evenodd">
        <g id="_Group_113" transform="translate(1.000000, 1.000000)">
            <path d="M0.94,0.99 L0.94,30.29 L179.67,30.29 L179.67,0.99 L0.94,0.99 Z M14.51,21.43 C11.3122713,21.43 8.72,18.8377287 8.72,15.64 C8.72,12.4422713 11.3122713,9.85 14.51,9.85 C17.7077287,9.85 20.3,12.4422713 20.3,15.64 C20.3,18.8377287 17.7077287,21.43 14.51,21.43 Z M34.01,21.43 C31.6672578,21.4340462 29.5529466,20.0259262 28.6536129,17.8626749 C27.7542793,15.6994236 28.2471757,13.207403 29.9023147,11.5494005 C31.5574536,9.89139799 34.0486185,9.39419456 36.2134212,10.2897875 C38.3782238,11.1853804 39.7899965,13.2972543 39.79,15.64 C39.7901704,18.814443 37.2342726,21.3971042 34.06,21.43 L34.01,21.43 Z M53.5,21.43 C50.3022713,21.43 47.71,18.8377287 47.71,15.64 C47.71,12.4422713 50.3022713,9.85 53.5,9.85 C56.6977287,9.85 59.29,12.4422713 59.29,15.64 C59.2926605,17.1764175 58.6834987,18.650673 57.5970859,19.7370859 C56.510673,20.8234987 55.0364175,21.4326605 53.5,21.43 Z" id="_Compound_Path_21" fill="#9ABFE2" fill-rule="nonzero"></path>
            <path d="M111.22,68.21 L118.06,68.21 C119.877017,68.21 121.35,69.6829832 121.35,71.5 L121.35,104.92 C121.352657,105.794294 121.007207,106.633689 120.389924,107.252848 C119.772641,107.872008 118.934298,108.220004 118.06,108.22 L72.84,108.22 C70.914806,108.214507 69.3554927,106.655194 69.35,104.73 L69.35,98.93 L107.8,98.93 C108.695511,98.9326573 109.555255,98.5787782 110.189417,97.9464924 C110.823579,97.3142065 111.180004,96.4555149 111.18,95.56 L111.22,68.21 Z" id="_Path_545" fill="#9ABFE2"></path>
            <g id="_Group_114" stroke-linecap="round" stroke-linejoin="round" stroke="#3B6D96" stroke-width="3">
                <g id="_Group_115" transform="translate(69.000000, 48.000000)">
                    <g id="_Group_116">
                        <rect id="_Rectangle_36" x="0.39" y="20.24" width="41.82" height="30.69" rx="3.21"></rect>
                        <path d="M4.55,20.21 L4.55,16.04 C4.55,7.26 12.07,0.12 21.3,0.12 C30.53,0.12 38.05,7.26 38.05,16.04 L38.05,20.21" id="_Path_546"></path>
                    </g>
                    <path d="M15.92,37.12 L15.92,35.12 C16.0392106,32.2601993 18.4391378,30.0297836 21.3,30.12 C24.1626481,30.0296717 26.5654713,32.2586357 26.69,35.12 L26.69,37.12" id="_Path_547"></path>
                </g>
                <g id="_Group_117">
                    <path d="M0.94,0.99 L0.94,30.29 L179.67,30.29 L179.67,0.99 L0.94,0.99 Z M14.51,21.43 C11.3122713,21.43 8.72,18.8377287 8.72,15.64 C8.72,12.4422713 11.3122713,9.85 14.51,9.85 C17.7077287,9.85 20.3,12.4422713 20.3,15.64 C20.3,18.8377287 17.7077287,21.43 14.51,21.43 Z M34.01,21.43 C31.6672578,21.4340462 29.5529466,20.0259262 28.6536129,17.8626749 C27.7542793,15.6994236 28.2471757,13.207403 29.9023147,11.5494005 C31.5574536,9.89139799 34.0486185,9.39419456 36.2134212,10.2897875 C38.3782238,11.1853804 39.7899965,13.2972543 39.79,15.64 C39.7901704,18.814443 37.2342726,21.3971042 34.06,21.43 L34.01,21.43 Z M53.5,21.43 C50.3022713,21.43 47.71,18.8377287 47.71,15.64 C47.71,12.4422713 50.3022713,9.85 53.5,9.85 C56.6977287,9.85 59.29,12.4422713 59.29,15.64 C59.2926605,17.1764175 58.6834987,18.650673 57.5970859,19.7370859 C56.510673,20.8234987 55.0364175,21.4326605 53.5,21.43 Z" id="_Compound_Path_22"></path>
                    <polyline id="_Path_548" points="0.94 30.29 0.94 130.51 179.67 130.51 179.67 30.29"></polyline>
                    <path d="M67.46,15.64 L139.51,15.64" id="_Path_549"></path>
                    <path d="M154.89,9.85 L165.56,20.52" id="_Path_550"></path>
                    <path d="M165.56,9.85 L154.89,20.52" id="_Path_551"></path>
                </g>
            </g>
        </g>
    </g>
</svg>