<?xml version="1.0" encoding="UTF-8"?>
<svg width="141px" height="153px" viewBox="0 0 141 153" version="1.1" xmlns="http://www.w3.org/2000/svg" xmlns:xlink="http://www.w3.org/1999/xlink">
    <!-- Generator: Sketch 52.5 (67469) - http://www.bohemiancoding.com/sketch -->
    <title>_Group_189</title>
    <desc>Created with Sketch.</desc>
    <g id="Page-1" stroke="none" stroke-width="1" fill="none" fill-rule="evenodd">
        <g id="_Group_189" transform="translate(1.000000, 1.000000)">
            <path d="M90.81,62.3 L115.25,62.3 L115.25,107.59 L107.49,107.59 L107.49,75.96 C107.49,72.2044637 104.445536,69.16 100.69,69.16 L96.35,69.16 C93.2903425,69.16 90.81,66.6796575 90.81,63.62 L90.81,62.3 Z" id="_Path_896" fill="#E0C79B"></path>
            <path d="M38.06,107.59 L13.62,107.59 L13.62,62.3 L21.37,62.3 L21.37,93.92 C21.37,97.6755363 24.4144637,100.72 28.17,100.72 L32.52,100.72 C35.5796575,100.72 38.06,103.200342 38.06,106.26 L38.06,107.59 Z" id="_Path_897" fill="#E0C79B"></path>
            <g id="_Group_190" stroke-linecap="round" stroke-linejoin="round" stroke="#3B6D96" stroke-width="3">
                <g id="_Group_191" transform="translate(4.000000, 114.000000)">
                    <g id="_Group_192">
                        <g id="_Group_193" transform="translate(15.000000, 0.000000)">
                            <polyline id="_Path_898" points="0.61 5.1 4.64 0.91 4.64 14.67"></polyline>
                            <path d="M1.57,14.67 L7.45,14.67" id="_Path_899"></path>
                        </g>
                        <g id="_Group_194" transform="translate(43.000000, 0.000000)">
                            <polyline id="_Path_900" points="0.21 5.1 4.24 0.91 4.24 14.67"></polyline>
                            <path d="M1.17,14.67 L7.05,14.67" id="_Path_901"></path>
                        </g>
                        <rect id="_Rectangle_52" x="28.29" y="0.92" width="8.52" height="13.76" rx="0.79"></rect>
                        <rect id="_Rectangle_53" x="0.61" y="0.92" width="8.52" height="13.76" rx="0.79"></rect>
                        <g id="_Group_195" transform="translate(70.000000, 0.000000)">
                            <polyline id="_Path_902" points="0.47 5.1 4.5 0.91 4.5 14.67"></polyline>
                            <path d="M1.43,14.67 L7.31,14.67" id="_Path_903"></path>
                        </g>
                        <rect id="_Rectangle_54" x="83.15" y="0.92" width="8.52" height="13.76" rx="0.79"></rect>
                        <rect id="_Rectangle_55" x="55.93" y="0.92" width="8.52" height="13.76" rx="0.79"></rect>
                    </g>
                    <g id="_Group_196" transform="translate(98.000000, 0.000000)">
                        <polyline id="_Path_904" points="0.28 5.1 4.31 0.91 4.31 14.67"></polyline>
                        <path d="M1.24,14.67 L7.12,14.67" id="_Path_905"></path>
                    </g>
                    <rect id="_Rectangle_56" x="110.95" y="0.92" width="8.52" height="13.76" rx="0.79"></rect>
                </g>
                <g id="_Group_197" transform="translate(18.000000, 136.000000)">
                    <g id="_Group_198">
                        <g id="_Group_199" transform="translate(15.000000, 0.000000)">
                            <polyline id="_Path_906" points="0.93 4.22 4.97 0.04 4.97 13.8"></polyline>
                            <path d="M1.9,13.8 L7.78,13.8" id="_Path_907"></path>
                        </g>
                        <g id="_Group_200" transform="translate(43.000000, 0.000000)">
                            <polyline id="_Path_908" points="0.54 4.22 4.57 0.04 4.57 13.8"></polyline>
                            <path d="M1.5,13.8 L7.38,13.8" id="_Path_909"></path>
                        </g>
                        <rect id="_Rectangle_57" x="28.61" y="0.04" width="8.52" height="13.76" rx="0.79"></rect>
                        <rect id="_Rectangle_58" x="0.94" y="0.04" width="8.52" height="13.76" rx="0.79"></rect>
                        <g id="_Group_201" transform="translate(70.000000, 0.000000)">
                            <polyline id="_Path_910" points="0.79 4.22 4.83 0.04 4.83 13.8"></polyline>
                            <path d="M1.76,13.8 L7.64,13.8" id="_Path_911"></path>
                        </g>
                        <rect id="_Rectangle_59" x="83.47" y="0.04" width="8.52" height="13.76" rx="0.79"></rect>
                        <rect id="_Rectangle_60" x="56.26" y="0.04" width="8.52" height="13.76" rx="0.79"></rect>
                    </g>
                    <g id="_Group_202" transform="translate(98.000000, 0.000000)">
                        <polyline id="_Path_912" points="0.6 4.22 4.64 0.04 4.64 13.8"></polyline>
                        <path d="M1.57,13.8 L7.45,13.8" id="_Path_913"></path>
                    </g>
                    <rect id="_Rectangle_61" x="111.28" y="0.04" width="8.52" height="13.76" rx="0.79"></rect>
                </g>
                <g id="_Group_203" transform="translate(6.000000, 0.000000)">
                    <path d="M24.13,6.67 C26.5048244,6.67 28.43,8.59517558 28.43,10.97 C28.43,13.3448244 26.5048244,15.27 24.13,15.27 C21.7551756,15.27 19.83,13.3448244 19.83,10.97 C19.8273366,9.82875469 20.2795157,8.73348472 21.0865002,7.92650023 C21.8934847,7.11951573 22.9887547,6.66733664 24.13,6.67 Z" id="_Path_914"></path>
                    <path d="M5.26,28.93 C7.63482442,28.93 9.56,30.8551756 9.56,33.23 C9.56,35.6048244 7.63482442,37.53 5.26,37.53 C2.88517558,37.53 0.96,35.6048244 0.96,33.23 C0.96,30.8551756 2.88517558,28.93 5.26,28.93 Z" id="_Path_915"></path>
                    <path d="M64.68,0.5 C67.0548244,0.5 68.98,2.42517558 68.98,4.8 C68.98,7.17482442 67.0548244,9.1 64.68,9.1 C62.3051756,9.1 60.38,7.17482442 60.38,4.8 C60.3854984,2.42745681 62.3074568,0.505498384 64.68,0.5 Z" id="_Path_916"></path>
                    <path d="M91.51,14.87 C93.8848244,14.87 95.81,16.7951756 95.81,19.17 C95.81,21.5448244 93.8848244,23.47 91.51,23.47 C89.1351756,23.47 87.21,21.5448244 87.21,19.17 C87.2154984,16.7974568 89.1374568,14.8754984 91.51,14.87 Z" id="_Path_917"></path>
                    <path d="M105.79,4.83 C107.529188,4.83 109.097124,5.87766137 109.762682,7.48446124 C110.42824,9.09126112 110.060351,10.9407678 108.830559,12.1705592 C107.600768,13.4003505 105.751261,13.7682403 104.144461,13.102682 C102.537661,12.4371237 101.49,10.8691877 101.49,9.13 C101.487337,7.98875469 101.939516,6.89348472 102.7465,6.08650023 C103.553485,5.27951573 104.648755,4.82733664 105.79,4.83 Z" id="_Path_918"></path>
                    <path d="M36.19,18.1 C37.9300919,18.0959533 39.5010944,19.141045 40.1698047,20.7475203 C40.838515,22.3539957 40.4730977,24.2051401 39.2440967,25.4370058 C38.0150958,26.6688715 36.1648072,27.0385978 34.5567793,26.3736297 C32.9487514,25.7086616 31.9000047,24.1400967 31.9,22.4 C31.8973438,21.2604896 32.3481518,20.1667406 33.1529709,19.3600454 C33.95779,18.5533502 35.0504865,18.0999969 36.19,18.1 Z" id="_Path_919"></path>
                    <path d="M54,19.17 C56.3748244,19.17 58.3,21.0951756 58.3,23.47 C58.3,25.8448244 56.3748244,27.77 54,27.77 C51.6251756,27.77 49.7,25.8448244 49.7,23.47 C49.7054984,21.0974568 51.6274568,19.1754984 54,19.17 Z" id="_Path_920"></path>
                    <polyline id="_Path_921" points="111.5 50.04 111.5 34.5 105.79 34.5 105.79 13.43"></polyline>
                    <polyline id="_Path_922" points="87.19 50.04 87.19 38.8 91.51 38.8 91.51 23.47"></polyline>
                    <polyline id="_Path_923" points="78.19 50.04 78.19 33.49 64.67 26.41 64.67 9.13"></polyline>
                    <polyline id="_Path_924" points="67.25 50.04 67.25 46.01 54.63 39.57 54.63 28.17"></polyline>
                    <polyline id="_Path_925" points="42.15 50.91 42.15 43.63 36.19 43.63 36.19 26.7"></polyline>
                    <polyline id="_Path_926" points="18.01 50.91 18.01 37.34 24.12 37.34 24.12 15.27"></polyline>
                    <path d="M5.47,50.91 L5.47,38.31" id="_Path_927"></path>
                </g>
                <g id="_Group_204" transform="translate(0.000000, 50.000000)">
                    <polyline id="_Path_928" points="127.89 61.22 127.89 0.91 1.26 0.91"></polyline>
                    <path d="M1.26,0.91 L1.26,60.31" id="_Path_929"></path>
                    <g id="_Group_205" transform="translate(36.000000, 21.000000)">
                        <path d="M11.06,2.92 C9.12073055,5.24283459 7.86104104,8.05637188 7.42,11.05 L4.9,11.05 C2.64667822,11.05 0.82,12.8766782 0.82,15.13 C0.817343583,16.2138149 1.2460265,17.2541497 2.01146304,18.0214623 C2.77689957,18.7887749 3.81618188,19.2200033 4.9,19.22 L7.45,19.22 C7.84327434,22.0544788 9.06029411,24.7110592 10.95,26.86 C13.1615751,29.2564398 16.3114019,30.5646045 19.57,30.44 C22.8170771,30.5710544 25.9415459,29.1897881 28.03,26.7" id="_Path_930"></path>
                        <path d="M28.06,26.7 C29.97,24.51 31.62,21.27 33.06,16.8 C33.5776895,14.9958809 34.9097963,13.537964 36.66,12.86 C38.66,12.28 40.71,13.4 40.71,15.56" id="_Path_931"></path>
                        <path d="M46.06,27.78 C47.9992695,25.4571654 49.258959,22.6436281 49.7,19.65 L52.22,19.65 C54.397591,19.5422262 56.1078243,17.7452564 56.1078243,15.565 C56.1078243,13.3847436 54.397591,11.5877738 52.22,11.48 L49.67,11.48 C49.2721874,8.64684648 48.0557384,5.99151212 46.17,3.84 C43.9560634,1.44694439 40.8078673,0.139456925 37.55,0.26 C34.3580038,0.132901377 31.2569727,1.33926044 28.99,3.59 C25.55,7.23 24.68,12.3 21.75,16.25 C21.1722296,17.2084812 20.1574805,17.8188284 19.04,17.88 C17.56598,17.8207909 16.4034273,16.6051941 16.41,15.13" id="_Path_932"></path>
                    </g>
                    <polyline id="_Path_933" points="96.6 57.6 115.25 57.6 115.25 12.3 91.39 12.3"></polyline>
                    <polyline id="_Path_934" points="49.53 12.3 13.9 12.3 13.9 57.11 36.84 57.11"></polyline>
                </g>
                <path d="M35.2,50.91 L35.2,44.61" id="_Path_935"></path>
                <polyline id="_Path_936" points="60 50.91 60 48.58 55.7 45.84 55.7 41.98"></polyline>
                <path d="M106.32,50.91 L106.32,44.61" id="_Path_937"></path>
            </g>
        </g>
    </g>
</svg>