<?xml version="1.0" encoding="UTF-8"?>
<svg width="138px" height="142px" viewBox="0 0 138 142" version="1.1" xmlns="http://www.w3.org/2000/svg" xmlns:xlink="http://www.w3.org/1999/xlink">
    <!-- Generator: Sketch 52.5 (67469) - http://www.bohemiancoding.com/sketch -->
    <title>_Group_180</title>
    <desc>Created with Sketch.</desc>
    <g id="Page-1" stroke="none" stroke-width="1" fill="none" fill-rule="evenodd">
        <g id="_Group_180" transform="translate(1.000000, 1.000000)">
            <g id="_Group_181" transform="translate(73.000000, 25.000000)" fill="#E0C79B">
                <path d="M27.06,80.62 C25.4541365,80.6189442 23.8834039,80.1498094 22.54,79.27 C19.54,77.27 19.01,74.27 18.64,72.17 L18.64,72.07 C18.58,71.73 18.51,71.38 18.44,71.07 C17.91,68.93 17.31,66.81 16.66,64.78 L16.66,64.62 C16.6131698,64.4830308 16.4847519,64.3907304 16.34,64.39 L16.19,64.39 C16.0094448,64.3875569 15.8496407,64.5063856 15.8,64.68 C15.68,65.33 15.56,65.98 15.46,66.68 L15.35,67.35 C15.25,67.95 15.14,68.56 15.08,69.18 C15.08,69.39 15.08,69.61 15.08,69.83 C15.1316888,71.9461674 14.3815602,74.003663 12.98,75.59 C11.063207,77.5713861 8.21292313,78.3396566 5.56,77.59 C3.18970952,76.8569092 1.35018957,74.9760095 0.67,72.59 C-0.23,69.59 1.18,67.15 2.03,65.69 C2.19,65.41 2.32,65.18 2.44,64.95 C3.10666667,63.67 3.71666667,62.36 4.27,61.02 C3.77297488,60.6636163 3.45312252,60.1107804 3.39188805,59.5022628 C3.33065357,58.8937453 3.5339459,58.2882659 3.95,57.84 L5.12,56.57 C5.74383203,57.1366839 6.41270183,57.6517137 7.12,58.11 C8.35433923,58.9502647 8.82325872,60.5454283 8.24,61.92 C7.56,63.56 6.81,65.19 6.02,66.75 C5.87,67.05 5.7,67.35 5.52,67.66 C4.68,69.1 4.14,70.19 4.52,71.46 C4.82840854,72.543458 5.6636786,73.3975405 6.74,73.73 C7.94340953,74.0662115 9.23444577,73.7214244 10.11,72.83 C10.8237585,71.9410525 11.1803264,70.8178633 11.11,69.68 C11.11,69.34 11.11,69.06 11.18,68.77 C11.25,68.08 11.37,67.39 11.48,66.71 L11.59,66.05 C11.7,65.37 11.82,64.67 11.96,63.98 C12.3511984,62.0078729 14.0321158,60.5535498 16.04,60.45 L16.5,60.45 C18.3332931,60.5043347 19.9345167,61.7052524 20.5,63.45 L20.55,63.6 C21.23,65.71 21.85,67.92 22.4,70.16 C22.5,70.56 22.58,70.98 22.65,71.4 L22.65,71.5 C22.96,73.21 23.28,74.97 24.82,75.97 C26.0781131,76.8063514 27.6884699,76.9025751 29.0372245,76.2219919 C30.385979,75.5414087 31.2652991,74.188891 31.34,72.68 C31.44,71.12 30.6,70.01 29.71,68.83 C29.44,68.48 29.22,68.18 29.02,67.89 C28.36,66.89 27.74,65.89 27.16,64.89 C26.32,63.5 25.51,62.08 24.77,60.68 C24.0888431,59.4050484 24.3792511,57.8285479 25.47,56.88 C25.9366725,56.4817284 26.3775611,56.0542 26.79,55.6 C27.7922098,54.5078806 29.4287512,54.2812826 30.69,55.06 C32.23,56.06 33.69,57.06 35.15,58.06 C35.43,58.25 35.7,58.48 35.97,58.7 C36.97,59.55 38.14,60.48 39.56,60.29 C40.6746245,60.1643901 41.647771,59.4779069 42.14,58.47 C42.6884788,57.3346653 42.5572972,55.9881245 41.8,54.98 C41.0377084,54.1474518 39.9937107,53.6272345 38.87,53.52 C38.52,53.44 38.23,53.38 37.96,53.3 C36.96,53.04 35.4,52.49 33.2,51.67 C31.3520595,50.9993011 30.240257,49.1113347 30.55,47.17 L32.55,47.36 L30.55,47.07 C30.7940096,45.2621954 32.1899276,43.8256984 33.99,43.53 L34.91,43.39 C37.43,43 39.99,42.7 42.53,42.5 C43.02,42.5 43.53,42.5 44.04,42.44 C46.04,42.44 48.04,42.35 49.44,40.83 C50.5842617,39.5785054 50.9727944,37.8110718 50.4588919,36.195065 C49.9449894,34.5790583 48.6069483,33.3606884 46.95,33 C45.27,32.62 43.78,33.37 42.36,34.12 C41.93,34.34 41.56,34.54 41.17,34.72 C40.04,35.25 38.85,35.72 37.69,36.19 L37.57,36.19 C35.73,36.93 33.86,37.62 32.02,38.19 C31.6981422,38.2996167 31.3599918,38.3537207 31.02,38.35 C29.9440073,38.3528456 28.9424815,37.8010616 28.37,36.89 L28.09,36.48 C27.191342,35.2446588 27.3452085,33.5350308 28.45,32.48 C29.66,31.25 30.93,30.06 32.19,28.94 C32.44,28.73 32.84,28.4 33.1,28.2 C34.45,27.2 35.38,26.36 35.52,25.01 C35.63063,23.8976516 35.180823,22.8031212 34.32,22.09 C33.3334395,21.3148596 32.0016459,21.1421486 30.85,21.64 C29.8571265,22.2038261 29.1088177,23.11605 28.75,24.2 L28.75,24.29 C28.64,24.53 28.52,24.77 28.41,24.99 C27.98,25.76 27.53,26.5 27.08,27.23 L26.99,27.38 C26.57,28.07 26.13,28.75 25.68,29.38 C24.667545,30.8586416 22.7687645,31.4432006 21.1,30.79 C19.4687051,30.1509463 18.4294252,28.5396597 18.52,26.79 C18.52,26.11 18.6,25.44 18.65,24.79 C18.89,21.7 19.23,18.58 19.65,15.52 C19.74,14.94 19.86,14.35 19.98,13.75 C20.6,10.82 21.21,7.87 18.27,5.55 C17.2701781,4.77361715 16.0357217,4.36095602 14.77,4.38 L14.67,4.38 C12.4940384,4.43950092 10.5353127,5.71441113 9.6,7.68 C8.66,9.68 9.16,11.48 9.68,13.44 C9.82,13.95 9.96,14.44 10.06,14.97 C10.39,16.53 10.64,18.12 10.87,19.67 C11.31,22.45 11.65,25.16 11.87,27.73 C12.0055411,29.1436721 11.190229,30.4767072 9.87,31 C9.56,31.13 9.25,31.26 8.45,31.62 C7.954178,30.9672271 7.51269971,30.2749089 7.13,29.55 C6.78504841,28.8011079 7.10005865,27.9137551 7.84,27.55 C7.61,25.24 7.3,22.82 6.92,20.35 C6.68,18.83 6.44,17.28 6.14,15.84 C6.05,15.41 5.93,14.97 5.81,14.52 C5.21,12.3 4.4,9.27 5.98,5.99 C7.57585833,2.66798426 10.8958442,0.51771437 14.58,0.42 L14.76,0.42 C17.9812627,0.440565317 20.9928251,2.02089014 22.84,4.66 C25.24,8.13 24.47,11.83 23.9,14.54 C23.78,15.13 23.67,15.65 23.59,16.15 C23.15,19.15 22.82,22.15 22.59,25.15 C22.59,25.78 22.5,26.41 22.47,27.05 C22.83,26.49 23.18,25.93 23.53,25.36 L23.59,25.27 C24.04,24.54 24.46,23.86 24.84,23.16 C24.92,23.02 25.01,22.83 25.09,22.65 L25.09,22.56 C25.8389532,20.6047286 27.2951567,19.0021909 29.17,18.07 C31.5572577,16.9910933 34.3393461,17.2721594 36.4625703,18.8067466 C38.5857946,20.3413337 39.7254879,22.894785 39.45,25.5 C39.12,28.65 36.9,30.37 35.57,31.39 C35.31,31.59 35.1,31.75 34.91,31.92 C34.3,32.45 33.68,33.02 33.06,33.59 C34.06,33.23 35.06,32.85 36.06,32.45 L36.19,32.45 C37.29,32.02 38.43,31.56 39.45,31.08 C39.8,30.92 40.11,30.75 40.45,30.59 C42.1290554,29.5579027 44.0414527,28.9662978 46.01,28.87 C49.4617332,28.8925258 52.5768694,30.9444967 53.9603052,34.1069444 C55.343741,37.2693921 54.7362911,40.9498354 52.41,43.5 C49.84,46.3 46.41,46.37 44.17,46.41 C43.7,46.41 43.27,46.41 42.86,46.41 C40.42,46.61 37.95,46.9 35.53,47.27 L34.63,47.41 C34.5634868,47.4350886 34.5196072,47.4989135 34.52,47.57 L32.52,47.39 L34.52,47.68 C34.5072446,47.713107 34.5085746,47.7499888 34.5236815,47.7820911 C34.5387884,47.8141933 34.5663596,47.8387264 34.6,47.85 C36.6,48.61 38.21,49.15 39.03,49.37 C39.25,49.44 39.47,49.48 39.68,49.53 C41.7692611,49.8284306 43.670905,50.8987742 45.01,52.53 C46.6682908,54.7452763 46.9500077,57.7013741 45.74,60.19 C44.646437,62.3950079 42.514064,63.8993274 40.07,64.19 C39.774975,64.229544 39.4776631,64.2495875 39.18,64.25 C37.0403974,64.1325299 35.0156497,63.2444827 33.48,61.75 C33.23,61.55 33.03,61.38 32.81,61.22 C31.67,60.39 30.46,59.58 29.22,58.8 L28.63,59.34 C29.25,60.48 29.91,61.63 30.63,62.78 C31.18,63.71 31.76,64.68 32.36,65.57 C32.52,65.81 32.7,66.04 32.88,66.27 C34.5091156,68.070738 35.3952865,70.4219494 35.36,72.85 C35.1602392,75.937489 33.2657137,78.6599068 30.44,79.92 C29.3736745,80.3839656 28.2228882,80.6222941 27.06,80.62 Z" id="_Path_815"></path>
            </g>
            <path d="M52.3,20.59 L24.81,20.59" id="_Path_816" stroke="#3B6D96" stroke-width="3" stroke-linecap="round" stroke-linejoin="round"></path>
            <polyline id="_Path_817" stroke="#3B6D96" stroke-width="3" stroke-linecap="round" stroke-linejoin="round" points="81.21 20.59 135.07 20.59 135.07 110.5 68.49 110.5"></polyline>
            <path d="M71.19,34.23 L65.19,24.81 L67.9,20.58 L52.35,20.58 L46.64,6.14 C45.3112959,2.79468881 42.0694885,0.604385692 38.47,0.62 L9.71,0.62 C7.38864871,0.612007515 5.15992345,1.52993858 3.51753225,3.17045276 C1.87514104,4.81096695 0.954662009,7.03864109 0.96,9.36 L0.959976912,110.5 L68.54,110.5" id="_Path_818" stroke="#3B6D96" stroke-width="3" stroke-linecap="round" stroke-linejoin="round"></path>
            <polygon id="_Path_819" stroke="#3B6D96" stroke-width="3" stroke-linecap="round" stroke-linejoin="round" points="73.74 65.04 65.15 78.45 73.74 91.86 71.35 95.59 17.17 95.59 17.17 34.23 71.19 34.23 73.74 38.22 65.15 51.63"></polygon>
            <path d="M22.17,90.59 L22.17,39.23 L67.17,39.23 L60.96,48.93 C59.9044334,50.5752471 59.9044334,52.6847529 60.96,54.33 L67.82,65.04 L60.96,75.75 C59.9044334,77.3952471 59.9044334,79.5047529 60.96,81.15 L66.96,90.59 L22.17,90.59 Z" id="_Path_820" fill="#9ABFE2"></path>
            <path d="M78,81.5 C78.6260115,82.0610568 79.2946927,82.5725979 80,83.03 C81.241805,83.8306908 81.7341024,85.4043596 81.17,86.77 C80.5033333,88.43 79.7566667,90.0566667 78.93,91.65 C78.19,93.12 76.93,94.65 77.43,96.37 C77.7569288,97.5111715 78.6699244,98.3898921 79.8227645,98.6729371 C80.9756047,98.9559821 82.1917428,98.6000058 83.01,97.74 C84.1,96.61 83.92,95.12 84.07,93.67 C84.17,92.76 84.33,91.86 84.48,90.96 C84.59,90.27 84.71,89.57 84.85,88.88 C85.2434968,86.9132053 86.9173271,85.4614557 88.92,85.35 L89.05,85.35 C91.0263177,85.2316037 92.8322498,86.4657259 93.44,88.35 L93.49,88.51 C94.1566667,90.67 94.7733333,92.8566667 95.34,95.07 C95.84,97.07 95.83,99.61 97.78,100.88 C99.0366414,101.715627 100.644994,101.812831 101.993126,101.134629 C103.341259,100.456428 104.221903,99.1070903 104.3,97.6 C104.42,95.6 103.01,94.32 101.98,92.79 C101.33,91.79 100.72,90.79 100.13,89.79 C99.29,88.41 98.49,87.0033333 97.73,85.57 C97.0472831,84.2934062 97.3423913,82.7139541 98.44,81.77 C98.8976759,81.3723227 99.3317475,80.9482681 99.74,80.5 C100.733634,79.4028258 102.367232,79.1676549 103.63,79.94 C105.15,80.88 106.636667,81.88 108.09,82.94 C109.43,83.94 110.7,85.41 112.51,85.17 C113.691845,85.0306116 114.707898,84.2675216 115.171179,83.1713662 C115.63446,82.0752108 115.473651,80.8147299 114.75,79.87 C113.81,78.62 112.3,78.57 110.9,78.18 C109.75,77.86 107.82,77.18 106.14,76.55 C104.296983,75.8618904 103.190337,73.9743268 103.49,72.03 L103.49,71.94 C103.747145,70.1405261 105.137766,68.7135232 106.93,68.41 L107.85,68.27 C110.38,67.88 112.93,67.58 115.48,67.38 C117.84,67.19 120.6,67.64 122.37,65.72 C123.442461,64.5258602 123.857675,62.8799696 123.48,61.32 C123.024431,59.5844162 121.63339,58.2513358 119.88,57.87 C117.7,57.38 116.01,58.71 114.13,59.59 C112.95,60.15 111.72,60.59 110.51,61.12 C108.68,61.85 106.83,62.54 104.96,63.12 C103.589105,63.5822911 102.080011,63.0448055 101.31,61.82 L101.03,61.41 C100.17425,60.1963602 100.313395,58.5434926 101.36,57.49 C102.62,56.22 103.92,54.98 105.27,53.8 C106.62,52.62 108.27,51.8 108.45,50 C108.573549,48.8172456 108.055066,47.6587407 107.090743,46.9628583 C106.126419,46.2669759 104.86355,46.1400085 103.78,46.63 C102.35,47.27 101.96,48.72 101.28,50 C100.83,50.8 100.35,51.59 99.87,52.36 C99.39,53.13 99.01,53.74 98.57,54.42 C97.5785316,55.9076117 95.6842215,56.5029663 94.02,55.85 C92.3907635,55.2084323 91.3525643,53.5988212 91.44,51.85 C91.44,51.17 91.52,50.5 91.57,49.85 C91.81,46.74 92.15,43.65 92.57,40.57 C93,37.73 94.29,34.57 92.48,31.95 C91.3690157,30.3519876 89.5360464,29.4111383 87.59,29.44 C85.4081439,29.4976548 83.4441075,30.7773714 82.51,32.75 C81.33,35.2 82.45,37.57 82.99,40.04 C83.31,41.6 83.55,43.18 83.8,44.75 C84.22,47.42 84.56,50.11 84.8,52.75 C84.9187522,54.159749 84.109089,55.4835484 82.8,56.02 L81.86,56.4" id="_Path_821" stroke="#3B6D96" stroke-width="3" stroke-linecap="round" stroke-linejoin="round"></path>
            <path d="M84.49,62.14 C83.425279,61.2713992 81.8581971,61.429465 80.9883833,62.4931952 C80.1185695,63.5569255 80.274849,65.1241866 81.3375872,65.9952123 C82.4003254,66.8662379 83.9677636,66.7117447 84.84,65.65" id="_Path_822" stroke="#3B6D96" stroke-width="3" stroke-linecap="round" stroke-linejoin="round"></path>
            <path d="M89.49,78.08 C90.3900418,76.9806787 90.5385976,75.4471971 89.8663047,74.1955562 C89.1940119,72.9439153 87.8334833,72.2210069 86.4199661,72.3643656 C85.0064489,72.5077244 83.8187657,73.4890721 83.4114602,74.8502057 C83.0041546,76.2113394 83.4575695,77.6837692 84.56,78.58" id="_Path_823" stroke="#3B6D96" stroke-width="3" stroke-linecap="round" stroke-linejoin="round"></path>
            <path d="M94.35,65.83 C93.6614559,66.6675117 93.545364,67.8373799 94.0558793,68.7938804 C94.5663945,69.7503808 95.6029302,70.3050543 96.6819595,70.1991549 C97.7609888,70.0932554 98.6699107,69.3476484 98.9847282,68.3101472 C99.2995457,67.2726459 98.9582303,66.1476692 98.12,65.46" id="_Path_824" stroke="#3B6D96" stroke-width="3" stroke-linecap="round" stroke-linejoin="round"></path>
            <g id="_Group_182" stroke-linecap="round" stroke-linejoin="round" transform="translate(63.000000, 110.000000)" stroke="#3B6D96" stroke-width="3">
                <path d="M1.19,0.5 L1.19,15.04" id="_Path_825"></path>
                <path d="M12.19,0.5 L12.19,15.04" id="_Path_826"></path>
            </g>
            <g id="_Group_183" transform="translate(13.000000, 125.000000)">
                <rect id="_Path_827" fill="#E0C79B" x="34.15" y="0.04" width="45.08" height="14.33" rx="3.16"></rect>
                <rect id="_Path_828" stroke="#3B6D96" stroke-width="3" stroke-linecap="round" stroke-linejoin="round" x="34.15" y="0.04" width="45.08" height="14.33" rx="3.16"></rect>
                <path d="M34.15,3.19 L0.44,3.19" id="_Path_829" stroke="#3B6D96" stroke-width="3" stroke-linecap="round" stroke-linejoin="round"></path>
                <path d="M34.15,12.2 L0.44,12.2" id="_Path_830" stroke="#3B6D96" stroke-width="3" stroke-linecap="round" stroke-linejoin="round"></path>
                <path d="M112.95,3.19 L79.23,3.19" id="_Path_831" stroke="#3B6D96" stroke-width="3" stroke-linecap="round" stroke-linejoin="round"></path>
                <path d="M112.95,12.2 L79.23,12.2" id="_Path_832" stroke="#3B6D96" stroke-width="3" stroke-linecap="round" stroke-linejoin="round"></path>
            </g>
        </g>
    </g>
</svg>