<?xml version="1.0" encoding="UTF-8"?>
<svg width="142px" height="134px" viewBox="0 0 142 134" version="1.1" xmlns="http://www.w3.org/2000/svg" xmlns:xlink="http://www.w3.org/1999/xlink">
    <!-- Generator: Sketch 52.5 (67469) - http://www.bohemiancoding.com/sketch -->
    <title>_Group_15</title>
    <desc>Created with Sketch.</desc>
    <g id="Page-1" stroke="none" stroke-width="1" fill="none" fill-rule="evenodd">
        <g id="_Group_15" transform="translate(2.000000, 1.000000)">
            <path d="M119.18,90.83 C113.698302,93.6065364 107.412975,94.3607756 101.43,92.96 C97.0523795,91.9991613 92.9768789,89.980295 89.56,87.08 C84.7288752,82.8201649 81.5236182,77.0174834 80.49,70.66 C79.2452224,71.2038642 77.8050324,71.0438431 76.71,70.24 C75.5209237,69.3327483 74.8004379,67.9408275 74.7462267,66.4461472 C74.6920155,64.9514669 75.3097725,63.5110088 76.43,62.52 C78.4684775,60.596758 79.8828215,58.1059797 80.49,55.37 L12.67,55.37 L12.67,120.95 L127.06,120.95 L127.06,84.21 C124.928378,86.946528 122.243195,89.2023541 119.18,90.83 Z M44.27,90.26 L43.27,91.98 L39.62,89.91 L39.62,94.11 L37.62,94.11 L37.62,89.84 L33.98,91.91 L32.98,90.26 L36.62,88.13 L32.98,86.06 L33.98,84.35 L37.62,86.48 L37.62,82.22 L39.62,82.22 L39.62,86.41 L43.27,84.28 L44.27,86 L40.63,88.13 L44.27,90.26 Z M61.59,90.26 L60.59,91.98 L56.95,89.91 L56.95,94.11 L54.95,94.11 L54.95,89.84 L51.3,91.91 L50.3,90.26 L53.95,88.13 L50.3,86.06 L51.3,84.35 L54.95,86.48 L54.95,82.22 L56.95,82.22 L56.95,86.41 L60.59,84.28 L61.59,86 L57.95,88.13 L61.59,90.26 Z M78.92,90.26 L77.92,91.98 L74.27,89.91 L74.27,94.11 L72.27,94.11 L72.27,89.84 L68.63,91.91 L67.63,90.26 L71.27,88.13 L67.63,86.06 L68.63,84.35 L72.27,86.48 L72.27,82.22 L74.27,82.22 L74.27,86.41 L77.92,84.28 L78.92,86 L75.28,88.13 L78.92,90.26 Z" id="_Compound_Path_4" fill="#9ABFE2" fill-rule="nonzero"></path>
            <g id="_Group_16" stroke-linecap="round" stroke-linejoin="round" transform="translate(0.000000, 24.000000)" stroke="#3B6D96" stroke-width="3">
                <path d="M115.34,20.16 L23.23,20.16" id="_Path_131"></path>
                <path d="M137.75,20.16 L137.75,107.37 L0.0599762271,107.37 L0.06,9.26 C0.0546610124,7.00494498 0.948800565,4.84085862 2.54430799,3.24722826 C4.13981542,1.6535979 6.30495282,0.76200645 8.56,0.77 L36.49,0.77 C39.9836846,0.757168713 43.1294067,2.88340706 44.42,6.13 L49.96,20.13" id="_Path_132"></path>
            </g>
            <g id="_Group_17" stroke-linecap="round" stroke-linejoin="round" transform="translate(80.000000, 0.000000)" stroke="#3B6D96" stroke-width="3">
                <path d="M0.49,65.4 C0.49,65.4 7.1,59.4 6.75,50.83 L6.75,66.98 C6.75,78.2852688 15.9147312,87.45 27.22,87.45 C38.5252688,87.45 47.69,78.2852688 47.69,66.98 L47.69,36.69" id="_Path_133"></path>
                <path d="M43.74,38.14 L50.43,35.52" id="_Path_134"></path>
                <path d="M43.74,32.38 L50.43,29.76" id="_Path_135"></path>
                <path d="M43.74,26.63 L50.43,24" id="_Path_136"></path>
                <path d="M43.74,20.87 L50.43,18.24" id="_Path_137"></path>
                <path d="M51.85,8.63 C52.8653618,7.09621427 52.9565856,5.12878537 52.0875094,3.50762384 C51.2184331,1.88646232 49.5294148,0.873390021 47.69,0.87 C44.9285763,0.87 42.69,3.10857625 42.69,5.87 C42.6509639,7.75082099 43.7709474,9.4625688 45.51,10.18 C46.8557398,10.8769783 47.6920151,12.274642 47.67,13.79 L47.67,19.33" id="_Path_138"></path>
            </g>
            <polyline id="_Path_139" stroke="#3B6D96" stroke-width="3" stroke-linecap="round" stroke-linejoin="round" points="127.08 84.92 127.08 120.96 12.67 120.96 12.67 55.37 68.89 55.37 79.27 55.37"></polyline>
            <path d="M29.99,101.43 L109.44,101.43" id="_Path_140" stroke="#3B6D96" stroke-width="3" stroke-linecap="round" stroke-linejoin="round"></path>
        </g>
    </g>
</svg>