<?xml version="1.0" encoding="UTF-8"?>
<svg width="213px" height="108px" viewBox="0 0 213 108" version="1.1" xmlns="http://www.w3.org/2000/svg" xmlns:xlink="http://www.w3.org/1999/xlink">
    <!-- Generator: Sketch 52.5 (67469) - http://www.bohemiancoding.com/sketch -->
    <title>_Group_18</title>
    <desc>Created with Sketch.</desc>
    <g id="Page-1" stroke="none" stroke-width="1" fill="none" fill-rule="evenodd">
        <g id="_Group_18" transform="translate(1.000000, 2.000000)">
            <g id="_Group_19" stroke-linecap="round" stroke-linejoin="round" transform="translate(143.000000, 47.000000)" stroke="#3B6D96" stroke-width="3">
                <path d="M20.38,42.42 C17.3234152,42.4197183 14.4087316,41.1301894 12.3526502,38.8684999 C10.2965687,36.6068103 9.28983572,33.5827808 9.58,30.54 L10.48,21.17 C10.9616166,16.0132455 15.3008526,12.0775585 20.48,12.1 C25.7298861,12.0859943 30.0967756,16.1341009 30.48,21.37 L31.2,30.74 C31.4311866,33.7532815 30.3951288,36.7264449 28.3413347,38.9434796 C26.2875406,41.1605142 23.4021371,42.4204995 20.38,42.42 Z" id="_Path_141"></path>
                <path d="M24.92,13.15 C26.2269114,10.9360973 25.7383513,8.10146205 23.7657126,6.45280221 C21.7930739,4.80414237 18.9167312,4.82651392 16.9699754,6.50565794 C15.0232196,8.18480196 14.5788103,11.0266936 15.92,13.22" id="_Path_142"></path>
                <path d="M20.37,42.42 L20.37,23.46" id="_Path_143"></path>
                <polyline id="_Path_144" points="15.8 13.22 8.73 13.22 5.25 9.84"></polyline>
                <polyline id="_Path_145" points="10.38 21.32 5.9 21.32 0.88 17.49"></polyline>
                <polyline id="_Path_146" points="9.53 31.69 5.06 31.69 2.14 36.34"></polyline>
                <polyline id="_Path_147" points="12.29 38.8 9.53 41.38 7.21 44.79"></polyline>
                <polyline id="_Path_148" points="25.15 13.22 32.22 13.22 35.7 9.84"></polyline>
                <polyline id="_Path_149" points="30.57 21.32 35.05 21.32 40.06 17.49"></polyline>
                <polyline id="_Path_150" points="31.42 31.69 35.88 31.69 38.8 36.34"></polyline>
                <polyline id="_Path_151" points="28.66 38.8 31.42 41.38 33.74 44.79"></polyline>
                <path d="M17.21,6.27 C16.0340986,4.6180318 16.1890169,2.36543525 17.58,0.89" id="_Path_152"></path>
                <path d="M23.54,6.27 C24.7159014,4.6180318 24.5609831,2.36543525 23.17,0.89" id="_Path_153"></path>
            </g>
            <path d="M166.32,102.36 C173.567671,101.780582 180.462204,98.9878592 186.07,94.36 C187.072855,93.5458665 188.027783,92.6744114 188.93,91.75" id="_Path_154" stroke="#3B6D96" stroke-width="3" stroke-linecap="round" stroke-linejoin="round"></path>
            <path d="M116.78,24.67 C127.890306,10.1872351 145.099365,1.68907202 163.352832,1.67144339 C181.606299,1.65381476 198.831741,10.1187221 209.97,24.58" id="_Path_155" stroke="#3B6D96" stroke-width="3" stroke-linecap="round" stroke-linejoin="round"></path>
            <path d="M126.69,36.12 C134.815486,23.813893 148.565451,16.3965187 163.312069,16.3643428 C178.058688,16.3321669 191.84089,23.6894683 200.02,35.96" id="_Path_156" stroke="#3B6D96" stroke-width="3" stroke-linecap="round" stroke-linejoin="round"></path>
            <path d="M136.86,47.89 C141.689538,37.6623419 151.961371,31.1152059 163.271802,31.0554527 C174.582234,30.9956995 184.922669,37.4339404 189.86,47.61" id="_Path_157" stroke="#3B6D96" stroke-width="3" stroke-linecap="round" stroke-linejoin="round"></path>
            <path d="M107.67,1.25 C104.410251,0.473637965 101.070925,0.0809735022 97.72,0.08 C83.58,0.08 70.92,6.97 62.51,17.78 C60.1519957,17.2110105 57.7356652,16.9190372 55.31,16.91 C36.87,16.91 21.92,32.91 21.92,52.73 C21.92,52.73 21.92,52.82 21.92,52.88 C9.92,54.25 0.62,65.11 0.62,78.31 C0.62,92.45 11.31,103.9 24.48,103.9 L166.31,102.36" id="_Path_158" stroke="#3B6D96" stroke-width="3" stroke-linecap="round" stroke-linejoin="round"></path>
            <path d="M128.06,27.89 C126.336044,29.7642055 124.761246,31.7703172 123.35,33.89 C122.912788,34.5435453 122.682779,35.313728 122.69,36.1 L58.54,36.1 C57.1703338,36.1 56.06,37.2103338 56.06,38.58 L56.06,97.58 L24.49,97.92 C14.64,97.92 6.63,89.13 6.63,78.33 C6.63,68.27 13.5,59.9 22.63,58.86 L27.95,58.25 L27.95,52.9 C27.95,52.78 27.95,52.66 27.95,52.54 C28.05,36.19 40.3,22.93 55.34,22.93 C57.3004253,22.9393647 59.2532646,23.1742423 61.16,23.63 L64.91,24.52 C65.6482536,23.4801859 66.4392902,22.4788737 67.28,21.52 C76.81,10.52 93.95,4.1 109.59,8.06 C113.287626,9.00623812 116.82563,10.4921999 120.09,12.47 L121.01,14.24 C118.382959,16.6691909 115.961368,19.3115342 113.77,22.14 C112.400975,23.8672499 112.625178,26.3642575 114.28,27.82 C114.993071,28.4061689 115.886929,28.7276751 116.81,28.73 C118.055014,28.7332321 119.230543,28.1565576 119.99,27.17 C121.483674,25.2254749 123.10385,23.3814807 124.84,21.65 L128.06,27.89 Z" id="_Path_159" fill="#E0C79B"></path>
            <polyline id="_Path_160" stroke="#3B6D96" stroke-width="3" stroke-linecap="round" stroke-linejoin="round" points="113.61 40.49 60.44 40.49 60.44 94.97"></polyline>
            <g id="_Group_20" stroke-linecap="round" stroke-linejoin="round" transform="translate(73.000000, 52.000000)" stroke="#3B6D96" stroke-width="3">
                <path d="M0.13,41.08 L0.13,24.41 C0.13,11.0723233 10.9423233,0.26 24.28,0.26 L50.28,0.26" id="_Path_161"></path>
                <polyline id="_Path_162" points="19.95 0.65 19.95 18.08 0.97 18.08"></polyline>
            </g>
        </g>
    </g>
</svg>