<?xml version="1.0" encoding="UTF-8"?>
<svg width="172px" height="140px" viewBox="0 0 172 140" version="1.1" xmlns="http://www.w3.org/2000/svg" xmlns:xlink="http://www.w3.org/1999/xlink">
    <!-- Generator: Sketch 52.5 (67469) - http://www.bohemiancoding.com/sketch -->
    <title>Group-22</title>
    <desc>Created with Sketch.</desc>
    <g id="Page-1" stroke="none" stroke-width="1" fill="none" fill-rule="evenodd">
        <g id="Group-22" transform="translate(1.000000, 2.000000)">
            <path d="M48.52,59.5 C50.5181412,63.1026475 51.5515389,67.160456 51.52,71.28 C51.3530154,74.5579692 50.9957469,77.82347 50.45,81.06 C50.1035144,83.8323232 49.976453,86.6276753 50.07,89.42 C50.07,94.1033747 53.8666253,97.9 58.55,97.9 C62.7399206,97.9218193 66.1326713,101.310112 66.16,105.5 L66.16,116.92 C66.1573438,118.067467 66.6113125,119.168847 67.4217577,119.981168 C68.232203,120.793489 69.33253,121.250003 70.48,121.25 L71.4,121.25 C73.588244,122.99435 76.691756,122.99435 78.88,121.25 C80.884588,123.091559 83.965412,123.091559 85.97,121.25 C87.7960409,122.919146 90.5939591,122.919146 92.42,121.25 C93.3465724,122.094745 94.5669052,122.543396 95.82,122.5 C96.936827,122.453335 98.0004606,122.010155 98.82,121.25 C99.9660803,121.239415 101.063237,120.784059 101.88,119.98 C102.689514,119.167677 103.142812,118.06681 103.14,116.92 L103.14,105.5 C103.145518,101.278927 106.568924,97.8599964 110.79,97.86 C113.039036,97.86 115.195957,96.966574 116.786266,95.3762655 C118.376574,93.785957 119.27,91.6290358 119.27,89.38 C119.387386,87.4284302 119.387386,85.4715698 119.27,83.52 C118.92,78.63 118.27,75.91 118.03,73.88 C117.550734,69.2514629 118.309972,64.5786961 120.23,60.34" id="_Path_486" stroke="#3B6D96" stroke-width="3" stroke-linecap="round" stroke-linejoin="round"></path>
            <path d="M70.94,121.28 L70.94,115.19" id="_Path_487" stroke="#3B6D96" stroke-width="3" stroke-linecap="round" stroke-linejoin="round"></path>
            <path d="M78.41,121.28 L78.41,115.19" id="_Path_488" stroke="#3B6D96" stroke-width="3" stroke-linecap="round" stroke-linejoin="round"></path>
            <path d="M85.51,121.28 L85.51,115.19" id="_Path_489" stroke="#3B6D96" stroke-width="3" stroke-linecap="round" stroke-linejoin="round"></path>
            <path d="M91.96,121.28 L91.96,115.19" id="_Path_490" stroke="#3B6D96" stroke-width="3" stroke-linecap="round" stroke-linejoin="round"></path>
            <path d="M98.32,121.28 L98.32,115.19" id="_Path_491" stroke="#3B6D96" stroke-width="3" stroke-linecap="round" stroke-linejoin="round"></path>
            <path d="M120.7,52.41 L120.7,53.41 C117.684979,53.1779206 114.861778,54.9081399 113.7,57.7 C113.133637,59.0482815 112.642876,60.4270873 112.23,61.83 C111.775223,61.6098078 111.303755,61.425902 110.82,61.28 L110.65,61.22 C109.454625,60.8699387 108.215577,60.6914889 106.97,60.69 C104.456182,60.7818575 101.986812,61.3804926 99.71,62.45 C98.2382653,63.1107249 96.6895325,63.5844154 95.1,63.86 C94.5235015,63.9404645 93.9420866,63.980562 93.36,63.98 L92.78,63.98 C89.3776004,63.9741618 86.2130967,65.7246579 84.41,68.61 C82.6096382,65.7217749 79.4433885,63.9703129 76.04,63.98 L75.46,63.98 C74.8779135,63.980562 74.2964985,63.9404645 73.72,63.86 C72.1333387,63.5858768 70.5877333,63.1121152 69.12,62.45 C66.8391982,61.3817836 64.3668329,60.7832468 61.85,60.69 C60.604423,60.6914889 59.365375,60.8699387 58.17,61.22 L58.09,61.22 C57.703604,61.3363289 57.3259823,61.4800257 56.96,61.65 C56.3547659,59.8154251 55.6092309,58.030153 54.73,56.31 C53.5515004,53.989226 51.182633,52.5139801 48.58,52.48 C48.58,52.48 48.58,52.48 48.58,52.4 L48.63,52.4 C47.8304831,40.5583823 53.30967,29.1671414 63.06,22.4 C68.06,19.02 74.56,17.15 82.4,16.86 C91.07,16.54 97.89,17.76 103.26,20.6 C113.755251,26.2992344 120.425455,37.1521249 120.77,49.09 C120.806134,50.1971217 120.782767,51.3053852 120.7,52.41 Z" id="_Path_492" fill="#E0C79B"></path>
            <path d="M50.06,83.55 C46.660456,83.5504011 43.8311293,80.9387149 43.56,77.55 L41.7,52.97 C40.6739069,38.6146966 47.3242538,24.7889756 59.18,16.63 C65.93,12.06 74.18,10.19 82.18,9.89 C90.46,9.58 99.18,10.51 106.57,14.44 C119.312449,21.3117732 127.41223,34.4681982 127.81,48.94 C127.842265,50.274338 127.805549,51.6094519 127.7,52.94 L125.83,77.5 C125.558871,80.8887149 122.729544,83.5004011 119.33,83.5" id="_Path_493" stroke="#3B6D96" stroke-width="3" stroke-linecap="round" stroke-linejoin="round"></path>
            <path d="M83.56,100.62 L86.83,100.62 C87.7608406,100.620101 88.6437486,100.207199 89.2404176,99.4927407 C89.8370866,98.7782827 90.0860098,97.8359175 89.92,96.92 L88.16,87.32 C87.8893319,85.8315686 86.5928415,84.7497567 85.08,84.75 C83.5410471,84.750692 82.2309222,85.8700221 81.99,87.39 L80.46,96.99 C80.316729,97.8968553 80.5775301,98.8209875 81.1737555,99.5191482 C81.7699808,100.217309 82.6418971,100.619552 83.56,100.62 Z" id="_Path_494" stroke="#3B6D96" stroke-width="3" stroke-linecap="round" stroke-linejoin="round"></path>
            <path d="M78.9,73.57 C78.8034518,72.0563705 77.5154018,70.8971255 76,70.96 C74.9232277,70.9876699 73.8460461,70.9241095 72.78,70.77 C66.87,69.94 64.06,66.77 60.2,67.91 C58.5886379,68.4365776 57.6736419,70.1345991 58.12,71.77 C58.8523972,74.5299595 59.132697,77.3903677 58.95,80.24 C58.7939043,81.7710596 59.2997332,83.2958244 60.34,84.43 C61.3505494,85.4734324 62.747604,86.0525224 64.2,86.03 C68.72,86.19 74.68,81.35 75.4,80.75 C76.9119516,79.6937904 78.0332297,78.1682898 78.59,76.41 C78.8607803,75.489177 78.965746,74.5275565 78.9,73.57 Z" id="_Path_495" stroke="#3B6D96" stroke-width="3" stroke-linecap="round" stroke-linejoin="round"></path>
            <path d="M89.98,73.57 C90.0765482,72.0563705 91.3645982,70.8971255 92.88,70.96 C93.9567834,70.9883459 95.0340223,70.9247821 96.1,70.77 C102.02,69.94 104.82,66.77 108.69,67.91 C110.301362,68.4365776 111.216358,70.1345991 110.77,71.77 C110.036752,74.529752 109.759763,77.3908433 109.95,80.24 C110.098244,81.7719607 109.589398,83.294865 108.55,84.43 C107.54083,85.4754594 106.142855,86.054931 104.69,86.03 C100.17,86.19 94.21,81.35 93.49,80.75 C91.9817779,79.6921927 90.8641487,78.1668749 90.31,76.41 C90.0330978,75.49026 89.9213704,74.5287278 89.98,73.57 Z" id="_Path_496" stroke="#3B6D96" stroke-width="3" stroke-linecap="round" stroke-linejoin="round"></path>
            <path d="M74.22,128.02 L74.22,135.51" id="_Path_497" stroke="#3B6D96" stroke-width="3" stroke-linecap="round" stroke-linejoin="round"></path>
            <path d="M81.14,128.02 L81.14,135.51" id="_Path_498" stroke="#3B6D96" stroke-width="3" stroke-linecap="round" stroke-linejoin="round"></path>
            <path d="M88.07,128.02 L88.07,135.51" id="_Path_499" stroke="#3B6D96" stroke-width="3" stroke-linecap="round" stroke-linejoin="round"></path>
            <path d="M95,128.02 L95,135.51" id="_Path_500" stroke="#3B6D96" stroke-width="3" stroke-linecap="round" stroke-linejoin="round"></path>
            <path d="M98.32,135.51 L71.19,135.51" id="_Path_501" stroke="#3B6D96" stroke-width="3" stroke-linecap="round" stroke-linejoin="round"></path>
            <polyline id="_Path_502" stroke="#3B6D96" stroke-width="3" stroke-linecap="round" stroke-linejoin="round" points="71.19 135.51 64.54 130.36 64.54 124.9"></polyline>
            <polyline id="_Path_503" stroke="#3B6D96" stroke-width="3" stroke-linecap="round" stroke-linejoin="round" points="98.32 135.51 104.45 130.36 104.45 124.9"></polyline>
            <circle id="_Path_505" stroke="#3B6D96" stroke-width="3" stroke-linecap="round" stroke-linejoin="round" cx="39.91" cy="103.54" r="4.72"></circle>
            <circle id="_Path_506" stroke="#3B6D96" stroke-width="3" stroke-linecap="round" stroke-linejoin="round" cx="20.69" cy="119.52" r="4.72"></circle>
            <circle id="_Path_507" stroke="#3B6D96" stroke-width="3" stroke-linecap="round" stroke-linejoin="round" cx="23.15" cy="35.39" r="4.72"></circle>
            <path d="M9.97,59.5 C9.9740442,61.4149204 8.82310161,63.1433481 7.0547167,63.8780258 C5.2863318,64.6127035 3.2494517,64.2086608 1.89539547,62.8546045 C0.541339249,61.5005483 0.13729648,59.4636682 0.871974196,57.6952833 C1.60665191,55.9268984 3.33507959,54.7759558 5.25,54.78 C7.85678402,54.78 9.97,56.893216 9.97,59.5 Z" id="_Path_508" stroke="#3B6D96" stroke-width="3" stroke-linecap="round" stroke-linejoin="round"></path>
            <circle id="_Path_509" stroke="#3B6D96" stroke-width="3" stroke-linecap="round" stroke-linejoin="round" cx="41.56" cy="5.08" r="4.72"></circle>
            <path d="M12.28,23.02 C12.2840442,24.9349204 11.1331016,26.6633481 9.3647167,27.3980258 C7.5963318,28.1327035 5.5594517,27.7286608 4.20539547,26.3746045 C2.85133925,25.0205483 2.44729648,22.9836682 3.1819742,21.2152833 C3.91665191,19.4468984 5.64507959,18.2959558 7.56,18.3 C10.166784,18.3 12.28,20.413216 12.28,23.02 Z" id="_Path_510" stroke="#3B6D96" stroke-width="3" stroke-linecap="round" stroke-linejoin="round"></path>
            <polyline id="_Path_511" stroke="#3B6D96" stroke-width="3" stroke-linecap="round" stroke-linejoin="round" points="41.56 60.58 23.02 60.58 14.27 47.41"></polyline>
            <polyline id="_Path_512" stroke="#3B6D96" stroke-width="3" stroke-linecap="round" stroke-linejoin="round" points="43.27 74.14 34.16 74.14 14.27 74.14 7.56 63.76"></polyline>
            <polyline id="_Path_513" stroke="#3B6D96" stroke-width="3" stroke-linecap="round" stroke-linejoin="round" points="50.03 89.41 27.92 89.41 27.92 103.53 34.69 103.53"></polyline>
            <polyline id="_Path_514" stroke="#3B6D96" stroke-width="3" stroke-linecap="round" stroke-linejoin="round" points="64.54 130.36 48.52 130.36 48.52 119.52 25.42 119.52"></polyline>
            <polyline id="_Path_515" stroke="#3B6D96" stroke-width="3" stroke-linecap="round" stroke-linejoin="round" points="46.74 30.21 38.97 23.02 12.68 23.02"></polyline>
            <path d="M66.15,106.63 L55.72,106.63" id="_Path_516" stroke="#3B6D96" stroke-width="3" stroke-linecap="round" stroke-linejoin="round"></path>
            <polyline id="_Path_517" stroke="#3B6D96" stroke-width="3" stroke-linecap="round" stroke-linejoin="round" points="69.72 11.76 69.72 4.59 46.47 4.59"></polyline>
            <polyline id="_Path_518" stroke="#3B6D96" stroke-width="3" stroke-linecap="round" stroke-linejoin="round" points="56.95 18.21 56.95 12.59 49.14 12.59"></polyline>
            <polyline id="_Path_519" stroke="#3B6D96" stroke-width="3" stroke-linecap="round" stroke-linejoin="round" points="42.03 42.75 34.95 35.39 27.92 35.39"></polyline>
            <path d="M41.12,51.83 L32.3,51.83" id="_Path_520" stroke="#3B6D96" stroke-width="3" stroke-linecap="round" stroke-linejoin="round"></path>
            <circle id="_Path_521" stroke="#3B6D96" stroke-width="3" stroke-linecap="round" stroke-linejoin="round" cx="129.51" cy="103.54" r="4.72"></circle>
            <path d="M144.06,119.5 C144.06552,122.105475 146.181174,124.213673 148.786653,124.209995 C151.392131,124.206317 153.501824,122.092154 153.499988,119.486674 C153.498152,116.881193 151.385481,114.770006 148.78,114.77 C147.526444,114.769997 146.324375,115.268654 145.438915,116.15599 C144.553456,117.043325 144.057344,118.246446 144.06,119.5 Z" id="_Path_522" stroke="#3B6D96" stroke-width="3" stroke-linecap="round" stroke-linejoin="round"></path>
            <circle id="_Path_523" stroke="#3B6D96" stroke-width="3" stroke-linecap="round" stroke-linejoin="round" cx="146.27" cy="35.39" r="4.72"></circle>
            <path d="M159.46,59.5 C159.46,62.106784 161.573216,64.22 164.18,64.22 C166.786784,64.22 168.9,62.106784 168.9,59.5 C168.9,56.893216 166.786784,54.78 164.18,54.78 C162.928178,54.78 161.727628,55.2772843 160.842456,56.162456 C159.957284,57.0476277 159.46,58.2481782 159.46,59.5 Z" id="_Path_524" stroke="#3B6D96" stroke-width="3" stroke-linecap="round" stroke-linejoin="round"></path>
            <path d="M123.14,5.08 C123.135956,6.99492041 124.286898,8.72334809 126.055283,9.4580258 C127.823668,10.1927035 129.860548,9.78866075 131.214605,8.43460453 C132.568661,7.0805483 132.972704,5.0436682 132.238026,3.2752833 C131.503348,1.50689839 129.77492,0.355955804 127.86,0.36 C126.608178,0.36 125.407628,0.857284287 124.522456,1.74245599 C123.637284,2.6276277 123.14,3.82817817 123.14,5.08 Z" id="_Path_525" stroke="#3B6D96" stroke-width="3" stroke-linecap="round" stroke-linejoin="round"></path>
            <path d="M157.15,23.02 C157.15,25.626784 159.263216,27.74 161.87,27.74 C164.476784,27.74 166.59,25.626784 166.59,23.02 C166.59,20.413216 164.476784,18.3 161.87,18.3 C159.263216,18.3 157.15,20.413216 157.15,23.02 Z" id="_Path_526" stroke="#3B6D96" stroke-width="3" stroke-linecap="round" stroke-linejoin="round"></path>
            <polyline id="_Path_527" stroke="#3B6D96" stroke-width="3" stroke-linecap="round" stroke-linejoin="round" points="127.86 60.58 146.4 60.58 155.15 47.41"></polyline>
            <polyline id="_Path_528" stroke="#3B6D96" stroke-width="3" stroke-linecap="round" stroke-linejoin="round" points="126.15 74.14 135.27 74.14 155.15 74.14 161.87 63.76"></polyline>
            <polyline id="_Path_529" stroke="#3B6D96" stroke-width="3" stroke-linecap="round" stroke-linejoin="round" points="119.39 89.41 141.51 89.41 141.51 103.53 134.74 103.53"></polyline>
            <polyline id="_Path_530" stroke="#3B6D96" stroke-width="3" stroke-linecap="round" stroke-linejoin="round" points="104.88 130.36 120.9 130.36 120.9 119.52 144.01 119.52"></polyline>
            <polyline id="_Path_531" stroke="#3B6D96" stroke-width="3" stroke-linecap="round" stroke-linejoin="round" points="122.68 30.21 130.45 23.02 156.74 23.02"></polyline>
            <path d="M103.27,106.63 L113.7,106.63" id="_Path_532" stroke="#3B6D96" stroke-width="3" stroke-linecap="round" stroke-linejoin="round"></path>
            <polyline id="_Path_533" stroke="#3B6D96" stroke-width="3" stroke-linecap="round" stroke-linejoin="round" points="99.71 11.76 99.71 4.59 122.87 4.59"></polyline>
            <polyline id="_Path_534" stroke="#3B6D96" stroke-width="3" stroke-linecap="round" stroke-linejoin="round" points="112.48 18.21 112.48 12.59 120.28 12.59"></polyline>
            <polyline id="_Path_535" stroke="#3B6D96" stroke-width="3" stroke-linecap="round" stroke-linejoin="round" points="127.39 42.75 134.48 35.39 141.51 35.39"></polyline>
            <path d="M128.31,51.83 L137.12,51.83" id="_Path_536" stroke="#3B6D96" stroke-width="3" stroke-linecap="round" stroke-linejoin="round"></path>
        </g>
    </g>
</svg>