<?xml version="1.0" encoding="UTF-8"?>
<svg width="120px" height="135px" viewBox="0 0 120 135" version="1.1" xmlns="http://www.w3.org/2000/svg" xmlns:xlink="http://www.w3.org/1999/xlink">
    <!-- Generator: Sketch 52.5 (67469) - http://www.bohemiancoding.com/sketch -->
    <title>Group-24</title>
    <desc>Created with Sketch.</desc>
    <g id="Page-1" stroke="none" stroke-width="1" fill="none" fill-rule="evenodd">
        <g id="Group-24" transform="translate(1.000000, 1.000000)">
            <path d="M53.06,47.7 L53.06,131.8 L97.36,131.8 L97.36,118.5 C97.36,115.567368 99.737368,113.19 102.67,113.19 L117.44,113.19 L117.44,47.7 L53.06,47.7 Z M85.49,108.5 C82.602722,108.514693 79.8392846,107.328424 77.8611898,105.225157 C75.883095,103.12189 74.8684003,100.290951 75.06,97.41 L75.68,88.41 C75.7605093,87.1921152 76.0727643,86.0007942 76.6,84.9 C76.73,84.63 76.87,84.37 77.02,84.11 C77.17,83.85 77.34,83.61 77.51,83.38 C77.68,83.15 77.87,82.91 78.07,82.69 C78.2603989,82.4678509 78.4641068,82.2574641 78.68,82.06 C78.79,81.96 78.89,81.86 79.01,81.77 L79.35,81.49 C79.4765845,81.3813044 79.6102085,81.2810863 79.75,81.19 C79.94,81.06 80.13,80.93 80.33,80.81 C80.53,80.69 80.73,80.58 80.94,80.48 C79.9374711,78.6707097 80.1525253,76.4308909 81.481,74.8454098 C82.8094748,73.2599286 84.9770735,72.6561471 86.9339103,73.3265095 C88.890747,73.9968719 90.2327841,75.8029651 90.31,77.87 C90.3168254,78.7827992 90.0785362,79.6807006 89.62,80.47 C89.995594,80.6617289 90.3595587,80.875433 90.71,81.11 L91.13,81.42 L91.6,81.8 L92,82.17 C92.15,82.32 92.3,82.47 92.43,82.62 L92.81,83.07 C92.9366667,83.23 93.0566667,83.39 93.17,83.55 L93.5,84.05 C93.6,84.22 93.7,84.39 93.79,84.57 C93.88,84.75 93.95,84.89 94.03,85.05 C94.060035,85.0916962 94.08052,85.1394946 94.09,85.19 C94.16,85.35 94.23,85.51 94.29,85.67 C94.35,85.83 94.4,85.96 94.44,86.11 C94.5318138,86.3788566 94.6085991,86.6526129 94.67,86.93 C94.67,87.1 94.74,87.27 94.77,87.45 C94.8104798,87.6550092 94.8405185,87.8619426 94.86,88.07 L95.8,97.07 C96.0870925,99.9855884 95.1323324,102.887189 93.1700564,105.062632 C91.2077805,107.238075 88.4196554,108.485958 85.49,108.5 Z" id="_Compound_Path_15" fill="#9ABFE2" fill-rule="nonzero"></path>
            <path d="M117.37,118.75 C117.033302,126.026667 111.034452,131.752441 103.75,131.75 L102.94,131.750001 L102.94,118.75 L117.37,118.75 Z" id="_Path_408" fill="#9ABFE2"></path>
            <path d="M117.39,118.75 L117.37,118.75" id="_Path_409" fill="#9ABFE2"></path>
            <path d="M102.94,131.81 L102.94,131.8" id="_Path_410" fill="#9ABFE2"></path>
            <path d="M80.9,80.5 C80.69,80.6 80.49,80.71 80.29,80.83 C80.09,80.95 79.9,81.08 79.71,81.21 C79.5702085,81.3010863 79.4365845,81.4013044 79.31,81.51 L78.97,81.79 C78.85,81.88 78.75,81.98 78.64,82.08 C78.4241068,82.2774641 78.2203989,82.4878509 78.03,82.71 C77.83,82.93 77.65,83.16 77.47,83.4 C77.29,83.64 77.14,83.88 76.98,84.13 C76.82,84.38 76.69,84.65 76.56,84.92 C76.0327643,86.0207942 75.7205093,87.2121152 75.64,88.43 L75.02,97.43 C74.7526742,101.353763 76.7194621,105.093228 80.1040167,107.096269 C83.4885713,109.09931 87.7130442,109.023945 91.0239996,106.901457 C94.3349551,104.778969 96.1671105,100.971731 95.76,97.06 L94.82,88.06 C94.8005185,87.8519426 94.7704798,87.6450092 94.73,87.44 C94.73,87.26 94.67,87.09 94.63,86.92 C94.5685991,86.6426129 94.4918138,86.3688566 94.4,86.1 C94.4,85.95 94.3,85.8 94.25,85.66 C94.2,85.52 94.12,85.34 94.05,85.18 C94.04052,85.1294946 94.020035,85.0816962 93.99,85.04 C93.91,84.88 93.84,84.72 93.75,84.56 C93.66,84.4 93.56,84.21 93.46,84.04 L93.13,83.54 C93.0166667,83.38 92.8966667,83.22 92.77,83.06 L92.39,82.61 C92.26,82.46 92.11,82.31 91.96,82.16 L91.56,81.79 L91.09,81.41 L90.67,81.1 C90.5,80.99 90.32,80.87 90.14,80.77 C89.9588685,80.6569692 89.7719463,80.5534944 89.58,80.46" id="_Path_411" stroke="#3B6D96" stroke-width="3" stroke-linecap="round" stroke-linejoin="round"></path>
            <path d="M80.9,80.5 C79.8974711,78.6907097 80.1125253,76.4508909 81.441,74.8654098 C82.7694748,73.2799286 84.9370735,72.6761471 86.8939103,73.3465095 C88.850747,74.0168719 90.1927841,75.8229651 90.27,77.89 C90.2768254,78.8027992 90.0385362,79.7007006 89.58,80.49" id="_Path_412" stroke="#3B6D96" stroke-width="3" stroke-linecap="round" stroke-linejoin="round"></path>
            <path d="M85.49,108.5 C82.602722,108.514693 79.8392846,107.328424 77.8611898,105.225157 C75.883095,103.12189 74.8684003,100.290951 75.06,97.41 L75.68,88.41 C75.7605093,87.1921152 76.0727643,86.0007942 76.6,84.9 C76.73,84.63 76.87,84.37 77.02,84.11 C77.17,83.85 77.34,83.61 77.51,83.38 C77.68,83.15 77.87,82.91 78.07,82.69 C78.2603989,82.4678509 78.4641068,82.2574641 78.68,82.06 C78.79,81.96 78.89,81.86 79.01,81.77 L79.35,81.49 C79.4765845,81.3813044 79.6102085,81.2810863 79.75,81.19 C79.94,81.06 80.13,80.93 80.33,80.81 C80.53,80.69 80.73,80.58 80.94,80.48 C82.3216151,80.0983273 83.7467321,79.8966598 85.18,79.88 C86.6800821,79.8716736 88.1741496,80.0702096 89.62,80.47 C90.0003874,80.6528596 90.3649682,80.8669254 90.71,81.11 L91.13,81.42 L91.6,81.8 L92,82.17 C92.15,82.32 92.3,82.47 92.43,82.62 L92.81,83.07 C92.9366667,83.23 93.0566667,83.39 93.17,83.55 L93.5,84.05 C93.6,84.22 93.7,84.39 93.79,84.57 C93.88,84.75 93.95,84.89 94.03,85.05 C94.060035,85.0916962 94.08052,85.1394946 94.09,85.19 C94.16,85.35 94.23,85.51 94.29,85.67 C94.35,85.83 94.4,85.96 94.44,86.11 C94.5318138,86.3788566 94.6085991,86.6526129 94.67,86.93 C94.67,87.1 94.74,87.27 94.77,87.45 C94.8104798,87.6550092 94.8405185,87.8619426 94.86,88.07 L95.8,97.07 C96.0870925,99.9855884 95.1323324,102.887189 93.1700564,105.062632 C91.2077805,107.238075 88.4196554,108.485958 85.49,108.5 Z" id="_Path_413" stroke="#3B6D96" stroke-width="3" stroke-linecap="round" stroke-linejoin="round"></path>
            <path d="M85.49,108.53 L85.34,90.33" id="_Path_415" stroke="#3B6D96" stroke-width="3" stroke-linecap="round" stroke-linejoin="round"></path>
            <polyline id="_Path_416" stroke="#3B6D96" stroke-width="3" stroke-linecap="round" stroke-linejoin="round" points="89.65 80.47 96.43 80.41 99.75 77.14"></polyline>
            <polyline id="_Path_417" stroke="#3B6D96" stroke-width="3" stroke-linecap="round" stroke-linejoin="round" points="94.92 88.2 99.21 88.17 104 84.45"></polyline>
            <polyline id="_Path_418" stroke="#3B6D96" stroke-width="3" stroke-linecap="round" stroke-linejoin="round" points="95.81 98.14 100.1 98.11 102.94 102.55"></polyline>
            <polyline id="_Path_419" stroke="#3B6D96" stroke-width="3" stroke-linecap="round" stroke-linejoin="round" points="93.22 104.99 95.89 107.44 98.15 110.7"></polyline>
            <polyline id="_Path_420" stroke="#3B6D96" stroke-width="3" stroke-linecap="round" stroke-linejoin="round" points="80.68 80.54 73.89 80.6 70.52 77.39"></polyline>
            <polyline id="_Path_421" stroke="#3B6D96" stroke-width="3" stroke-linecap="round" stroke-linejoin="round" points="75.54 88.36 71.24 88.4 66.4 84.76"></polyline>
            <polyline id="_Path_422" stroke="#3B6D96" stroke-width="3" stroke-linecap="round" stroke-linejoin="round" points="74.81 98.32 70.52 98.36 67.76 102.84"></polyline>
            <polyline id="_Path_423" stroke="#3B6D96" stroke-width="3" stroke-linecap="round" stroke-linejoin="round" points="77.51 105.12 74.89 107.62 72.68 110.91"></polyline>
            <path d="M88.24,73.81 C89.3568848,72.2170058 89.1936304,70.057025 87.85,68.65" id="_Path_424" stroke="#3B6D96" stroke-width="3" stroke-linecap="round" stroke-linejoin="round"></path>
            <path d="M82.17,73.86 C81.0275689,72.2867475 81.1574316,70.1251615 82.48,68.7" id="_Path_425" stroke="#3B6D96" stroke-width="3" stroke-linecap="round" stroke-linejoin="round"></path>
            <polygon id="_Compound_Path_16" fill="#E0C79B" points="18.8 49.07 18.17 50.19 15.79 48.85 15.79 51.59 14.49 51.59 14.49 48.8 12.1 50.15 11.43 49.07 13.81 47.68 11.43 46.33 12.1 45.21 14.49 46.6 14.49 43.81 15.79 43.81 15.79 46.55 18.17 45.16 18.8 46.28 16.42 47.68"></polygon>
            <polygon id="_Compound_Path_17" fill="#E0C79B" points="32.8 49.07 32.17 50.19 29.79 48.85 29.79 51.59 28.49 51.59 28.49 48.8 26.1 50.15 25.43 49.07 27.81 47.68 25.43 46.33 26.1 45.21 28.49 46.6 28.49 43.81 29.79 43.81 29.79 46.55 32.17 45.16 32.8 46.28 30.42 47.68"></polygon>
            <polygon id="_Compound_Path_18" fill="#E0C79B" points="45.28 49.07 44.65 50.19 42.27 48.85 42.27 51.59 40.96 51.59 40.96 48.8 38.58 50.15 37.91 49.07 40.29 47.68 37.91 46.33 38.58 45.21 40.96 46.6 40.96 43.81 42.27 43.81 42.27 46.55 44.65 45.16 45.28 46.28 42.89 47.68"></polygon>
            <path d="M53.06,80.6 L53.06,47.7 L117.44,47.7 L117.44,118.16 C117.45015,118.356536 117.45015,118.553464 117.44,118.75 L102.94,118.75 L102.94,131.75 L53.06,131.75 L53.06,109.53" id="_Path_426" stroke="#3B6D96" stroke-width="3" stroke-linecap="round" stroke-linejoin="round"></path>
            <path d="M117.37,118.75 C117.033302,126.026667 111.034452,131.752441 103.75,131.75 L102.94,131.750001 L102.94,118.75 L117.37,118.75 Z" id="_Path_427" stroke="#3B6D96" stroke-width="3" stroke-linecap="round" stroke-linejoin="round"></path>
            <g id="_Group_96" stroke-linecap="round" stroke-linejoin="round" stroke="#3B6D96" stroke-width="3">
                <path d="M13.06,131.811392 C12.6358516,131.815191 12.2117698,131.795156 11.79,131.75 C11.48,131.75 11.16,131.68 10.85,131.63 C10.2289034,131.522192 9.61454809,131.37862 9.01,131.2 C8.72,131.09 8.43,131.01 8.14,130.89 C7.74959344,130.748146 7.36879474,130.581129 7,130.39 C5.89681341,129.850378 4.8846277,129.141848 4,128.29 C3.19974377,127.546206 2.52443859,126.678438 2,125.72 C1.81379998,125.399888 1.6532962,125.065505 1.52,124.72 C1.4316279,124.568682 1.36115446,124.4076 1.31,124.24 C1.24445179,124.079885 1.18770055,123.916307 1.14,123.75 C0.79353031,122.742915 0.617776884,121.685015 0.62,120.62 L0.619979171,18.34" id="_Path_428"></path>
                <path d="M31,131.8 L13.06,131.8 C12.62,131.8 12.2,131.8 11.78,131.8 C10.5271776,131.677409 9.29631544,131.38819 8.12,130.94 C7.73,130.79 7.36,130.62 6.99,130.44 C5.8897749,129.90372 4.87807106,129.202272 3.99,128.36 C3.19783774,127.608828 2.52357834,126.742405 1.99,125.79 C1.80314248,125.489502 1.63933959,125.175268 1.5,124.85 C1.37,124.53 1.23,124.19 1.13,123.85 C0.797989819,122.839884 0.629203341,121.78328 0.629994406,120.72" id="_Path_429"></path>
                <polyline id="_Path_430" points="74.31 18.34 74.31 27.64 74.31 34.5 74.31 38.99"></polyline>
                <path d="M63.89,0.61 L11.06,0.61 C5.29967006,0.61 0.63,5.27967006 0.63,11.04 L0.63,18.34 L74.33,18.34 L74.33,11.04 C74.3300013,8.27205853 73.2297568,5.61763063 71.271589,3.66133849 C69.3134213,1.70504635 66.6579402,0.607346173 63.89,0.61 Z" id="_Path_431"></path>
                <path d="M46.9,10.03 L46.9,7.85 C46.8268323,7.24369541 46.2888725,6.80274471 45.68,6.85 L26.98,6.85 C26.3711275,6.80274471 25.8331677,7.24369541 25.76,7.85 L25.76,10.76 C25.834106,11.5872254 26.5623594,12.1993157 27.39,12.13 L40.77,12.13" id="_Path_432"></path>
                <path d="M53.01,117.74 L0.62,117.74" id="_Path_433"></path>
                <path d="M57.41,9.17 C57.41,7.61807985 58.6680799,6.36 60.22,6.36 C61.7719201,6.36 63.03,7.61807985 63.03,9.17 C63.03,10.7219201 61.7719201,11.98 60.22,11.98" id="_Path_434"></path>
            </g>
            <path d="M56.06,103.03 L50.35,103.03 C48.2734093,103.03 46.59,101.346591 46.59,99.27 C46.59,97.1934093 48.2734093,95.51 50.35,95.51 L54.15,95.51 C56.5722487,95.5045011 58.5345011,93.5422487 58.54,91.12 C58.5345011,88.6977513 56.5722487,86.7354989 54.15,86.73 L28.61,86.73 C25.1471746,86.73 22.34,83.9228254 22.34,80.46 C22.3455166,77.0010805 25.1510761,74.1999956 28.61,74.2 L30.61,74.2 C31.5806924,74.2 32.5116277,73.814394 33.1980108,73.1280108 C33.884394,72.4416277 34.27,71.5106924 34.27,70.54 C34.27,68.5186378 32.6313622,66.88 30.61,66.88 L18.37,66.88" id="_Path_435" stroke="#3B6D96" stroke-width="3" stroke-linecap="round" stroke-linejoin="round"></path>
            <path d="M117.39,118.75 L117.37,118.75" id="_Path_436" stroke="#3B6D96" stroke-width="3" stroke-linecap="round" stroke-linejoin="round"></path>
            <path d="M102.94,131.81 L102.94,131.8" id="_Path_437" stroke="#3B6D96" stroke-width="3" stroke-linecap="round" stroke-linejoin="round"></path>
        </g>
    </g>
</svg>