<?xml version="1.0" encoding="UTF-8"?>
<svg width="196px" height="155px" viewBox="0 0 196 155" version="1.1" xmlns="http://www.w3.org/2000/svg" xmlns:xlink="http://www.w3.org/1999/xlink">
    <!-- Generator: Sketch 52.5 (67469) - http://www.bohemiancoding.com/sketch -->
    <title>Group-33</title>
    <desc>Created with Sketch.</desc>
    <g id="Page-1" stroke="none" stroke-width="1" fill="none" fill-rule="evenodd">
        <g id="Group-33" transform="translate(0.000000, 2.000000)">
            <g id="_Group_178" transform="translate(0.000000, 2.000000)">
                <g id="_Group_179" fill="#9ABFE2">
                    <path d="M50.98,0.84 C53.9827095,0.817253173 56.9266466,1.67228096 59.45,3.3 C65.04,6.9 66.14,12.69 66.87,16.52 L66.87,16.7 C66.99,17.35 67.11,17.99 67.26,18.6 C68.26,22.6 69.44,26.6 70.69,30.34 L70.78,30.63 C70.8700675,30.8893258 71.1154884,31.0623274 71.39,31.06 L71.66,31.06 C72.0001901,31.0610228 72.2972522,30.8299745 72.38,30.5 C72.6,29.28 72.81,28.06 73,26.84 L73.19,25.59 C73.37,24.45 73.56,23.3 73.67,22.16 C73.67,21.76 73.73,21.34 73.75,20.93 C73.88,18.21 74.09,13.83 77.58,10.13 C81.1583264,6.41840392 86.4870227,4.97385469 91.45,6.37 C95.874923,7.68746068 99.337733,11.1465108 100.66,15.57 C102.39,21.2 99.79,25.78 98.23,28.57 C97.94,29.08 97.69,29.57 97.47,29.96 C96.29,32.35 95.16,34.83 94.11,37.34 C95.0386984,38.0033329 95.6398264,39.0317757 95.7620836,40.1664758 C95.8843409,41.301176 95.5160836,42.4340644 94.75,43.28 L92.59,45.68 C91.4212503,44.6288736 90.1706284,43.6725158 88.85,42.82 C86.5169175,41.2757811 85.606813,38.2938258 86.68,35.71 C87.94,32.63 89.31,29.57 90.76,26.64 C91.04,26.08 91.36,25.51 91.69,24.94 C93.23,22.23 94.23,20.17 93.5,17.8 C92.9020061,15.7802616 91.326868,14.1976048 89.31,13.59 C87.0498539,12.9865248 84.6400492,13.6520899 83.01,15.33 C81.43,17 81.33,19.16 81.23,21.24 C81.23,21.88 81.17,22.41 81.12,22.94 C80.99,24.23 80.79,25.52 80.59,26.8 L80.39,28.04 C80.2,29.32 79.98,30.62 79.74,31.91 C79.0407048,35.6078517 75.9167648,38.356754 72.16,38.58 L71.94,38.58 C71.69,38.58 71.51,38.58 71.3,38.58 C67.8245651,38.5446241 64.7570197,36.3012554 63.67,33 L63.58,32.72 C62.28,28.72 61.08,24.65 60.01,20.47 C59.82,19.72 59.67,18.94 59.52,18.16 L59.52,17.96 C58.91,14.78 58.29,11.49 55.4,9.63 C53.0292512,8.0851259 50.0116366,7.93191427 47.4966085,9.22872561 C44.9815805,10.5255369 43.3563536,13.0727137 43.24,15.9 C43.09,18.81 44.68,20.9 46.36,23.06 C46.87,23.73 47.29,24.27 47.67,24.83 C48.92,26.65 50.09,28.56 51.19,30.36 C52.78,32.96 54.32,35.61 55.73,38.21 C57.0202633,40.5837054 56.4973851,43.5342323 54.47,45.32 C53.6092091,46.0807385 52.7912856,46.8886466 52.02,47.74 C50.1650497,49.7984279 47.108794,50.2476303 44.74,48.81 C41.84,47.05 39.01,45.2 36.35,43.3 C35.83,42.93 35.35,42.52 34.8,42.1 C32.85,40.53 30.71,38.81 28.07,39.18 C25.984345,39.4447645 24.1742733,40.7468118 23.26,42.64 C22.2559986,44.7685419 22.5221069,47.2792165 23.95,49.15 C25.34,50.96 27.44,51.41 29.47,51.84 C30.12,51.98 30.65,52.1 31.17,52.24 C32.96,52.72 35.97,53.72 40.1,55.24 C43.55098,56.4787489 45.6450123,59.984159 45.1,63.61 L45.1,63.79 C44.675509,67.1801749 42.0862375,69.8952575 38.72,70.48 L37.01,70.76 C32.31,71.52 27.51,72.12 22.76,72.54 C21.84,72.62 20.9,72.65 19.95,72.68 C16.23,72.78 12.47,72.89 9.86,75.77 C7.74101461,78.1315579 7.04303814,81.4442725 8.0290414,84.4600398 C9.01504466,87.4758071 11.5351964,89.7363567 14.64,90.39 C17.79,91.07 20.57,89.64 23.21,88.22 C24.01,87.79 24.7,87.42 25.42,87.07 C27.53,86.07 29.76,85.15 31.91,84.27 L32.14,84.17 C35.58,82.76 39.06,81.44 42.49,80.25 C43.090646,80.0379435 43.72302,79.9297298 44.36,79.93 C46.3778374,79.9092932 48.2653375,80.9247683 49.36,82.62 C49.53,82.88 49.7,83.13 49.88,83.38 C51.5254317,85.6590176 51.2710951,88.795836 49.28,90.78 C47.02,93.1 44.67,95.35 42.28,97.46 C41.83,97.86 41.08,98.46 40.6,98.85 C38.09,100.85 36.36,102.35 36.12,104.85 C35.9274658,106.934052 36.7908505,108.976145 38.42,110.29 C40.2757132,111.72266 42.767668,112.022155 44.91,111.07 C47.01,110.07 47.91,108.15 48.8,106.26 L48.89,106.08 C49.1,105.63 49.31,105.18 49.52,104.78 C50.31,103.32 51.14,101.93 51.97,100.56 L52.13,100.29 C52.91,98.99 53.72,97.69 54.55,96.42 C56.4287392,93.6397101 59.9735121,92.5174748 63.11,93.71 C66.2018692,94.9020518 68.1728003,97.9513407 67.99,101.26 C67.93,102.51 67.86,103.78 67.77,105.03 C67.39,110.82 66.77,116.66 65.98,122.4 C65.83,123.48 65.61,124.59 65.38,125.71 C64.28,131.2 63.18,136.71 68.72,141.02 C70.598063,142.460588 72.9138842,143.212523 75.28,143.15 L75.47,143.15 C79.5388787,142.999106 83.1822412,140.586922 84.91,136.9 C86.63,133.24 85.68,129.79 84.67,126.13 C84.4,125.13 84.13,124.21 83.93,123.27 C83.29,120.36 82.8,117.38 82.33,114.5 C81.47,109.29 80.8,104.24 80.33,99.42 C80.064603,96.7795475 81.5652962,94.2783921 84.02,93.27 C84.6,93.03 85.19,92.78 86.68,92.09 C87.614724,93.3045728 88.450727,94.5920175 89.18,95.94 C89.5210326,96.6193709 89.5754761,97.4071024 89.3311481,98.1269302 C89.0868202,98.8467579 88.5641171,99.4385911 87.88,99.77 C88.34,104.09 88.96,108.62 89.72,113.23 C90.19,116.08 90.66,118.96 91.24,121.66 C91.42,122.46 91.65,123.29 91.88,124.11 C93.03,128.27 94.59,133.92 91.69,140.11 C88.7600737,146.352888 82.5820746,150.430367 75.69,150.67 L75.35,150.67 C69.3293143,150.676964 63.677237,147.77082 60.18,142.87 C55.62,136.41 57.02,129.47 58.03,124.39 C58.25,123.29 58.45,122.32 58.58,121.39 C59.36,115.84 59.94,110.18 60.32,104.58 C60.4,103.4 60.46,102.21 60.52,101.02 C59.85,102.02 59.2,103.12 58.52,104.19 L58.41,104.36 C57.58,105.74 56.81,107.02 56.1,108.36 C55.96,108.63 55.8,108.97 55.64,109.36 L55.56,109.54 C54.45,111.9 52.61,115.88 47.99,117.99 C43.5401874,120.037367 38.3355878,119.551323 34.3418099,116.715432 C30.3480319,113.87954 28.1737043,109.125973 28.64,104.25 C29.2,98.35 33.33,95.11 35.8,93.17 C36.29,92.79 36.67,92.49 37.03,92.17 C38.17,91.17 39.32,90.09 40.46,89 C38.6133333,89.6666667 36.7666667,90.3933333 34.92,91.18 L34.68,91.28 C32.68,92.11 30.52,92.97 28.6,93.9 C27.97,94.2 27.38,94.52 26.81,94.83 C24.19,96.24 20.74,98.1 16.42,98.14 C15.2733681,98.1495203 14.1293663,98.0287459 13.01,97.78 C7.29260335,96.5764746 2.65289511,92.4117828 0.841214588,86.857063 C-0.970465929,81.3023432 0.32160843,75.2029913 4.23,70.86 C9,65.59 15.37,65.4 19.59,65.28 C20.48,65.28 21.28,65.23 22.05,65.17 C26.61,64.76 31.23,64.17 35.75,63.45 L37.43,63.17 C37.52,63.17 37.61,63.03 37.63,62.87 L37.63,62.67 C37.6639506,62.5355004 37.5904564,62.3971584 37.46,62.35 C33.64,60.97 30.69,59.98 29.15,59.57 C28.74,59.46 28.33,59.37 27.93,59.29 C25.26,58.71 20.99,57.8 17.93,53.8 C14.7920535,49.6818614 14.2170797,44.1559383 16.44,39.48 C18.4386567,35.3167277 22.4095068,32.4486824 26.99,31.86 C27.5407735,31.7901845 28.0949117,31.7501264 28.65,31.74 C33.65,31.74 37.07,34.49 39.36,36.33 C39.82,36.7 40.21,37.02 40.61,37.33 C42.76,38.87 45.03,40.33 47.36,41.82 L48.47,40.82 C47.29,38.7 46.03,36.55 44.72,34.42 C43.72,32.69 42.56,30.88 41.43,29.23 C41.12,28.79 40.78,28.35 40.43,27.91 C38.36,25.22 35.37,21.34 35.67,15.65 C36.0524478,7.51210706 42.7333095,1.09479022 50.88,1.04 L50.98,0.84 Z" id="_Path_810"></path>
                </g>
                <path d="M92.63,45.61 C91.4738436,44.5625518 90.2329371,43.6126395 88.92,42.77 C86.5710329,41.2915697 85.6223757,38.3401918 86.67,35.77 C87.9366667,32.6633333 89.31,29.6066667 90.79,26.6 C92.16,23.83 94.53,21.01 93.53,17.74 C92.9022957,15.6059921 91.1778309,13.9728744 89.0128501,13.4621292 C86.8478694,12.9513839 84.5753124,13.6415558 83.06,15.27 C81.06,17.41 81.41,20.19 81.15,22.9 C80.98,24.6 80.69,26.3 80.42,27.98 C80.23,29.28 80.01,30.58 79.77,31.87 C79.0651134,35.560698 75.9500765,38.3053871 72.2,38.54 L71.95,38.54 C68.2553274,38.7880392 64.8628677,36.4989523 63.71,32.98 L63.61,32.7 C62.2766667,28.66 61.0866667,24.5733333 60.04,20.44 C59.04,16.64 59.04,11.97 55.39,9.61 C53.0222145,8.06663472 50.0086523,7.91147561 47.494881,9.20350445 C44.9811097,10.4955333 43.3532072,13.0363136 43.23,15.86 C43.04,19.58 45.7,21.97 47.66,24.86 C48.89,26.65 50.04,28.52 51.16,30.37 C52.7466667,32.95 54.2666667,35.57 55.72,38.23 C57.0187263,40.6107972 56.490908,43.5740605 54.45,45.36 C53.6000767,46.108271 52.7953276,46.9063417 52.04,47.75 C50.2049525,49.8219734 47.1541582,50.2926193 44.78,48.87 L44.73,48.87 C41.87,47.14 39.06,45.3 36.34,43.36 C33.82,41.57 31.42,38.77 28.03,39.24 C25.8104787,39.5213604 23.913875,40.9748622 23.0651541,43.0449132 C22.2164332,45.1149642 22.54681,47.481528 23.93,49.24 C25.71,51.55 28.53,51.63 31.16,52.34 C33.3,52.91 36.93,54.17 40.09,55.34 C43.5340063,56.6103008 45.6191609,60.1175309 45.09,63.75 L45.09,63.92 C44.6441409,67.2941902 42.0619417,69.9897148 38.71,70.58 L36.99,70.86 C32.27,71.62 27.5,72.22 22.74,72.64 C18.33,73.03 13.15,72.22 9.87,75.85 C7.88464275,78.0984537 7.13631028,81.1815835 7.87,84.09 C8.74854073,87.327445 11.3673155,89.7994448 14.65,90.49 C18.73,91.38 21.87,88.86 25.39,87.18 C27.59,86.12 29.87,85.18 32.13,84.28 C35.55,82.8733333 39,81.5633333 42.48,80.35 C45.0372952,79.4642174 47.8689298,80.4383658 49.34,82.71 C49.5,82.97 49.68,83.23 49.86,83.48 C51.4884792,85.7341696 51.2562264,88.8336898 49.31,90.82 C46.9833333,93.22 44.5633333,95.5533333 42.05,97.82 C39.73,99.82 36.49,101.57 36.16,104.99 C35.9425545,107.204092 36.928065,109.364962 38.7424538,110.652393 C40.5568426,111.939823 42.9219368,112.156432 44.94,111.22 C47.61,110 48.32,107.28 49.58,104.87 C50.4,103.36 51.29,101.87 52.17,100.43 C52.96,99.13 53.76,97.84 54.59,96.56 C56.4127773,93.7558912 59.9510595,92.6126256 63.07,93.82 L63.14,93.82 C66.2342467,95.0049696 68.2100544,98.0515115 68.03,101.36 C67.97,102.63 67.9,103.89 67.81,105.15 C67.43,110.956667 66.8333333,116.743333 66.02,122.51 C65.27,127.84 62.9,133.78 66.33,138.65 C68.5376074,141.823167 72.2764626,143.56986 76.1267639,143.226784 C79.9770652,142.883708 83.3481978,140.50349 84.96,136.99 C87.13,132.39 84.96,127.99 83.96,123.36 C83.33,120.45 82.85,117.5 82.37,114.57 C81.5366667,109.57 80.87,104.55 80.37,99.51 C80.1168852,96.8714967 81.6250685,94.3795389 84.08,93.38 L85.82,92.63" id="_Path_811" stroke="#3B6D96" stroke-width="3" stroke-linecap="round" stroke-linejoin="round"></path>
                <path d="M80.79,81.94 C82.2584664,83.1219309 84.2943659,83.3027575 85.9481573,82.3981426 C87.6019487,81.4935277 88.5478592,79.6816672 88.3447172,77.8076108 C88.1415752,75.9335544 86.8293968,74.3664639 85.0201803,73.8372284 C83.2109639,73.307993 81.2610989,73.9208644 80.08,75.39" id="_Path_812" stroke="#3B6D96" stroke-width="3" stroke-linecap="round" stroke-linejoin="round"></path>
                <path d="M71.19,52.19 C69.5261302,54.257258 69.271621,57.1233359 70.5451806,59.4514391 C71.8187402,61.7795423 74.369482,63.111043 77.0076902,62.8249033 C79.6458984,62.5387635 81.8518557,60.6913519 82.5966606,58.1443372 C83.3414656,55.5973224 82.4783943,52.8524571 80.41,51.19" id="_Path_813" stroke="#3B6D96" stroke-width="3" stroke-linecap="round" stroke-linejoin="round"></path>
                <path d="M62.29,75.19 C64.0137813,73.0373461 63.6691446,69.8954557 61.5197133,68.1676577 C59.370282,66.4398597 56.2277536,66.7786287 54.4959449,68.9248299 C52.7641362,71.0710311 53.0970365,74.2141866 55.24,75.95" id="_Path_814" stroke="#3B6D96" stroke-width="3" stroke-linecap="round" stroke-linejoin="round"></path>
            </g>
            <g id="_Group_226" transform="translate(97.000000, 0.000000)">
                <g id="_Group_227">
                    <path d="M0.54,123.15 L0.54,56.95 C0.539997838,55.3198367 1.18826137,53.7565863 2.34189846,52.604825 C3.49553554,51.4530637 5.05983882,50.807345 6.69,50.81 L91.3,50.81 C92.9284292,50.81 94.4901623,51.456891 95.6416356,52.6083644 C96.793109,53.7598377 97.44,55.3215708 97.44,56.95 L97.44,121.76 C97.44,123.388429 96.793109,124.950162 95.6416356,126.101636 C94.4901623,127.253109 92.9284292,127.9 91.3,127.9 L5.3,127.9 C4.03848994,127.902656 2.82773825,127.403384 1.93477646,126.512298 C1.04181468,125.621212 0.539997204,124.411513 0.54,123.15 Z" id="_Path_1007" stroke="#3B6D96" stroke-width="3" stroke-linecap="round" stroke-linejoin="round"></path>
                    <path d="M71.8,34.37 C69.26,23.74 60,15.85 49,15.85 C38,15.85 28.62,23.85 26.14,34.56" id="_Path_1008" stroke="#3B6D96" stroke-width="3" stroke-linecap="round" stroke-linejoin="round"></path>
                    <path d="M10.19,50.74 L10.19,40.26 C10.19,18.26 27.6,0.26 49,0.26 C70.4,0.26 87.8,18.19 87.8,40.26 L87.8,50.74" id="_Path_1009" stroke="#3B6D96" stroke-width="3" stroke-linecap="round" stroke-linejoin="round"></path>
                    <path d="M61.47,93.22 L61.47,88.22 C61.4992947,84.8818203 60.2005566,81.668879 57.8597922,79.2887268 C55.5190279,76.9085746 52.3282038,75.5564081 48.99,75.53 C45.6535363,75.5590466 42.4652789,76.9123743 40.1266729,79.2922388 C37.7880668,81.6721033 36.4906983,84.8835386 36.52,88.22 L36.52,93.22" id="_Path_1010" stroke="#3B6D96" stroke-width="3" stroke-linecap="round" stroke-linejoin="round"></path>
                    <path d="M6.31,118.31 L6.31,56.3099866 L86.18,56.31 C87.1762933,56.3073432 88.1326915,56.7012582 88.8381173,57.4048078 C89.543543,58.1083574 89.9400035,59.0637031 89.94,60.06 L89.94,63.62 C89.9400035,64.6162969 89.543543,65.5716426 88.8381173,66.2751922 C88.1326915,66.9787418 87.1762933,67.3726568 86.18,67.37 L41.78,67.37 C28.8880565,67.3755212 18.4399988,77.8280553 18.44,90.72 L18.44,118.31 C18.4400035,119.306297 18.043543,120.261643 17.3381173,120.965192 C16.6326915,121.668742 15.6762933,122.062657 14.68,122.06 L10.06,122.06 C7.98893219,122.06 6.31,120.381068 6.31,118.31 Z" id="_Path_1011" fill="#E0C79B"></path>
                </g>
            </g>
        </g>
    </g>
</svg>