<?xml version="1.0" encoding="UTF-8"?>
<svg width="173px" height="145px" viewBox="0 0 173 145" version="1.1" xmlns="http://www.w3.org/2000/svg" xmlns:xlink="http://www.w3.org/1999/xlink">
    <!-- Generator: Sketch 52.5 (67469) - http://www.bohemiancoding.com/sketch -->
    <title>Group-37</title>
    <desc>Created with Sketch.</desc>
    <g id="Page-1" stroke="none" stroke-width="1" fill="none" fill-rule="evenodd">
        <g id="Group-37" transform="translate(2.000000, 1.000000)">
            <rect id="_Rectangle_" fill="#E0C79B" x="119.81" y="103.62" width="45" height="33.79"></rect>
            <path d="M54.15,62.07 L54.15,109.66 L102.71,109.66 L102.71,62.07 L54.15,62.07 Z M92.71,98.15 L64.9898437,98.15 L64.99,90.28 C64.9702694,87.5318238 66.8201897,85.1215713 69.48,84.43 L75.57,82.7 C73.4327181,80.7847626 72.1597473,78.0873627 72.04,75.22 C72.04,71.6467177 74.9367177,68.75 78.51,68.75 C82.0832823,68.75 84.98,71.6467177 84.98,75.22 C84.8635198,77.9703127 83.6925091,80.5701714 81.71,82.48 L88.21,84.48 C90.8614223,85.1863484 92.7073887,87.5861047 92.71,90.33 L92.71,98.15 Z" id="_Compound_Path_" fill="#9ABFE2" fill-rule="nonzero"></path>
            <g id="_Group_212" stroke-linecap="round" stroke-linejoin="round" transform="translate(115.000000, 71.000000)" stroke="#3B6D96" stroke-width="3">
                <g id="_Group_213">
                    <path d="M0.51,63.76 L0.51,31.5 C0.51,29.6332775 2.02327755,28.12 3.89,28.12 L50.48,28.12 C52.3467225,28.12 53.86,29.6332775 53.86,31.5 L53.86,67.19 C53.86,69.0567225 52.3467225,70.57 50.48,70.57 L3.89,70.57" id="_Path_953"></path>
                    <path d="M39.75,19.06 C38.4930478,13.0998336 33.2213966,8.84305669 27.1301895,8.86969816 C21.0389825,8.89633962 15.8047685,13.1990666 14.6,19.17" id="_Path_954"></path>
                    <path d="M5.82,28.07 L5.82,22.3 C5.82,10.17 15.4,0.3 27.19,0.3 C38.98,0.3 48.55,10.18 48.55,22.3 L48.55,28.07" id="_Path_955"></path>
                </g>
                <path d="M34.06,51.5 L34.06,48.74 C34.0786519,46.9003053 33.3649953,45.1286984 32.0763177,43.8156353 C30.7876401,42.5025723 29.0297211,41.7558344 27.19,41.74 C25.3502789,41.7558344 23.5923599,42.5025723 22.3036823,43.8156353 C21.0150047,45.1286984 20.3013481,46.9003053 20.32,48.74 L20.32,51.5" id="_Path_956"></path>
            </g>
            <g id="_Group_214" stroke-linecap="round" stroke-linejoin="round" stroke="#3B6D96" stroke-width="3">
                <g id="_Group_215" transform="translate(0.000000, 32.000000)">
                    <polyline id="_Path_957" points="118.89 109.56 74.42 109.56 0.33 109.56 0.33 0.69 106.79 0.69"></polyline>
                    <polyline id="_Path_958" points="141.24 0.69 168.86 0.69 168.86 53.18 168.86 68.58"></polyline>
                    <polyline id="_Path_959" points="107.49 98.13 13.48 98.13 13.48 12.19 109.08 12.19"></polyline>
                    <polyline id="_Path_960" points="138.94 12.19 156.73 12.19 156.73 37.03"></polyline>
                </g>
                <path d="M106.79,34.14 L106.79,42.5 C106.79,43.42 107.79,44.17 109.08,44.17 L138.94,44.17 C140.21,44.17 141.24,43.42 141.24,42.5 L141.24,32.17 C141.24,31.25 140.24,30.5 138.94,30.5 L109.06,30.5 C107.79,30.5 106.77,31.25 106.77,32.17 L106.79,34.14 Z" id="_Path_961"></path>
                <path d="M138.54,0.55 C145.233691,0.55 150.66,5.97630883 150.66,12.67 C150.66,19.3636912 145.233691,24.79 138.54,24.79 C131.846309,24.79 126.42,19.3636912 126.42,12.67" id="_Path_962"></path>
                <path d="M143.43,12.67 C143.43,15.3706724 141.240672,17.56 138.54,17.56 C135.839328,17.56 133.65,15.3706724 133.65,12.67 C133.65,9.96932757 135.839328,7.78 138.54,7.78 C141.240672,7.78 143.43,9.96932757 143.43,12.67 Z" id="_Path_963"></path>
                <path d="M138.54,0.55 L116.41,0.55 C111.294226,0.555518637 107.149997,4.70422307 107.15,9.82 L107.15,24.82 L138.54,24.82" id="_Path_964"></path>
            </g>
            <g id="_Group_216" stroke-linecap="round" stroke-linejoin="round" transform="translate(64.000000, 68.000000)" stroke="#3B6D96" stroke-width="3">
                <path d="M20.98,7.22 C20.8635198,9.97031271 19.6925091,12.5701714 17.71,14.48 C16.860766,15.3301551 15.7208747,15.8268476 14.52,15.87 C13.4328315,15.8382231 12.391729,15.4239068 11.58,14.7 C9.44271806,12.7847626 8.1697473,10.0873627 8.05,7.22 C8.05,3.64671767 10.9467177,0.75 14.52,0.75 C18.0932823,0.75 20.99,3.64671767 20.99,7.22 L20.98,7.22 Z" id="_Path_965"></path>
                <path d="M28.71,22.29 L28.71,30.15 L0.98984368,30.15 L0.99,22.29 C0.970269443,19.5418238 2.82018974,17.1315713 5.48,16.44 L11.57,14.7 C12.381729,15.4239068 13.4228315,15.8382231 14.51,15.87 C15.7108747,15.8268476 16.850766,15.3301551 17.7,14.48 L24.2,16.48 C26.8532698,17.1602028 28.7090651,19.550928 28.71,22.29 Z" id="_Path_966"></path>
            </g>
            <g id="_Group_217" stroke-linecap="round" stroke-linejoin="round" transform="translate(54.000000, 62.000000)" stroke="#3B6D96" stroke-width="3">
                <polyline id="_Path_967" points="11.82 0.07 0.15 0.07 0.15 13.44"></polyline>
                <polyline id="_Path_968" points="0.28 35.58 0.28 47.67 13.45 47.67"></polyline>
            </g>
            <g id="_Group_218" stroke-linecap="round" stroke-linejoin="round" transform="translate(89.000000, 62.000000)" stroke="#3B6D96" stroke-width="3">
                <polyline id="_Path_969" points="2.18 0.07 13.85 0.07 13.85 13.44"></polyline>
                <polyline id="_Path_970" points="13.71 35.58 13.71 47.67 0.54 47.67"></polyline>
            </g>
        </g>
    </g>
</svg>