<?xml version="1.0" encoding="UTF-8"?>
<svg width="155px" height="148px" viewBox="0 0 155 148" version="1.1" xmlns="http://www.w3.org/2000/svg" xmlns:xlink="http://www.w3.org/1999/xlink">
    <!-- Generator: Sketch 52.5 (67469) - http://www.bohemiancoding.com/sketch -->
    <title>_Group_223</title>
    <desc>Created with Sketch.</desc>
    <g id="Page-1" stroke="none" stroke-width="1" fill="none" fill-rule="evenodd">
        <g id="_Group_223" transform="translate(1.000000, 1.000000)">
            <g id="_Group_224" fill="#FFEB99" fill-rule="nonzero">
                <path d="M151.31,54.82 C149.654625,49.7302277 145.881516,45.6035041 140.96,43.5 C137.47,32.21 127.7,24.64 116.57,24.64 C113.455691,24.6401354 110.371354,25.2481711 107.49,26.43 C102.8,10.8 89.49,0.33 74.06,0.33 C63.5650988,0.406174395 53.6902733,5.31223264 47.29,13.63 C38.6733523,11.7035895 29.6890009,14.59251 23.81,21.18 C19.027316,26.3816442 16.3627965,33.1838378 16.34,40.25 C7.14,41.54 0.26,49.9 0.26,59.89 C0.26,70.82 8.56,79.71 18.8,79.71 L34.38,79.53 L42.8,79.53 L42.8,74.53 L34.66,74.53 L18.77,74.71 C11.32,74.71 5.26,68.06 5.26,59.89 C5.26,52.28 10.46,45.95 17.35,45.16 C19.6245679,44.9011337 21.3443795,42.9792443 21.35,40.69 C21.3552408,40.6267751 21.3552408,40.5632249 21.35,40.5 C21.35,28.11 30.66,18.04 42.06,18.04 C43.5455259,18.0459133 45.0253746,18.2237636 46.47,18.57 C48.1816235,18.963484 49.9664466,18.332171 51.05,16.95 C56.5015315,9.72151835 64.996811,5.42955538 74.05,5.33 C87.35,5.33 98.91,14.58 102.82,28.33 C103.174422,29.5784568 104.053935,30.6112466 105.23,31.16 C106.399944,31.7119923 107.750066,31.7374663 108.94,31.23 C111.34302,30.1785652 113.937023,29.6338926 116.56,29.63 C125.56,29.63 133.46,35.88 136.24,45.18 C136.682026,46.5764168 137.751061,47.6861425 139.13,48.18 C142.642486,49.7447509 145.327684,52.7242666 146.52,56.38 C147.471257,59.2164474 147.389797,62.2977759 146.29,65.08 C144.75,68.81 141.72,70.6 139.9,71.68 C136.710418,73.4779907 133.130084,74.4700487 129.47,74.57 C125.91,74.75 122.39,74.84 119.72,74.89 C116.44,74.96 112.99,74.99 109.24,75 L109.24,80 C113.03,80 116.5,80 119.82,79.89 C122.53,79.83 126.1,79.75 129.72,79.56 C134.193788,79.4357406 138.567224,78.2058191 142.45,75.98 C146.201255,74.0159398 149.181508,70.8454577 150.91,66.98 C152.477714,63.1016309 152.619445,58.7930125 151.31,54.82 Z M16.31,40.69 C16.3281714,40.910948 16.3717936,41.129059 16.44,41.34 C16.3725734,41.1299683 16.3388223,40.9105863 16.34,40.69 L16.31,40.69 Z" id="_Compound_Path_30"></path>
            </g>
            <path d="M108.47,79.42 C112.26,79.42 116.04,79.42 119.82,79.31 C123.12,79.24 126.42,79.15 129.71,78.98 C134.102501,78.8596171 138.396893,77.6537519 142.21,75.47 C145.867198,73.5660132 148.774248,70.4827781 150.46,66.72 C151.946079,62.965554 152.076918,58.8105063 150.83,54.97 C149.222572,49.975221 145.521245,45.927123 140.69,43.88 L140.63,43.88 L140.56,43.88 C137.3,33 127.8,25.12 116.56,25.12 C113.319284,25.1335064 110.116077,25.8143155 107.15,27.12 C102.83,11.91 89.65,0.84 74.05,0.84 C63.5964077,0.925541989 53.7755475,5.86183591 47.47,14.2 C45.6885714,13.7699707 43.8625965,13.5517935 42.03,13.55 C28.11,13.55 16.82,25.65 16.82,40.55 C16.82,40.55 16.82,40.63 16.82,40.67 C7.82,41.67 0.74,49.9 0.74,59.87 C0.74,70.54 8.8,79.19 18.74,79.19 L34.37,79.01 L42.61,79.01" id="_Path_981" stroke="#847B42" stroke-width="3" stroke-linecap="round" stroke-linejoin="round"></path>
            <path d="M46.95,89.76 C46.9540467,91.5648061 45.869972,93.1941505 44.2037086,93.8876257 C42.5374452,94.5811009 40.6174818,94.2019945 39.3398565,92.9272338 C38.0622311,91.652473 37.678816,89.7333654 38.3685492,88.0655496 C39.0582824,86.3977338 40.6851894,85.3100045 42.49,85.31 C44.94929,85.3099938 46.9444859,87.3007162 46.95,89.76 Z" id="_Path_982" stroke="#847B42" stroke-width="3" stroke-linecap="round" stroke-linejoin="round"></path>
            <path d="M57.43,117.43 C57.43,119.89319 55.43319,121.89 52.97,121.89 C50.50681,121.89 48.51,119.89319 48.51,117.43 C48.51,114.96681 50.50681,112.97 52.97,112.97 C55.43319,112.97 57.43,114.96681 57.43,117.43 Z" id="_Path_983" stroke="#847B42" stroke-width="3" stroke-linecap="round" stroke-linejoin="round"></path>
            <circle id="_Path_984" stroke="#847B42" stroke-width="3" stroke-linecap="round" stroke-linejoin="round" cx="77.37" cy="140.26" r="4.45"></circle>
            <circle id="_Path_985" stroke="#847B42" stroke-width="3" stroke-linecap="round" stroke-linejoin="round" cx="95.92" cy="122.21" r="4.45"></circle>
            <circle id="_Path_986" stroke="#847B42" stroke-width="3" stroke-linecap="round" stroke-linejoin="round" cx="108.47" cy="88.75" r="3.44"></circle>
            <circle id="_Path_987" stroke="#847B42" stroke-width="3" stroke-linecap="round" stroke-linejoin="round" cx="73.55" cy="107.84" r="3.44"></circle>
            <polyline id="_Path_988" stroke="#847B42" stroke-width="3" stroke-linecap="round" stroke-linejoin="round" points="80.56 41.64 80.56 62.64 91.47 62.64 91.47 103.48 86.02 103.48 86.02 112.98"></polyline>
            <polyline id="_Path_989" stroke="#847B42" stroke-width="3" stroke-linecap="round" stroke-linejoin="round" points="73.19 104.41 73.19 98.99 81.18 89.28 81.54 73.64 74.46 73.64 74.46 80.39"></polyline>
            <polyline id="_Path_990" stroke="#847B42" stroke-width="3" stroke-linecap="round" stroke-linejoin="round" points="107.8 40.1 101.14 44.64 101.14 66.14 108.47 66.14 108.47 79.42 108.47 85.31"></polyline>
            <path d="M101.14,72.14 L101.14,90.39" id="_Path_991" stroke="#847B42" stroke-width="3" stroke-linecap="round" stroke-linejoin="round"></path>
            <polyline id="_Path_992" stroke="#847B42" stroke-width="3" stroke-linecap="round" stroke-linejoin="round" points="91.47 56.48 91.47 39.31 97.76 34.48"></polyline>
            <polyline id="_Path_993" stroke="#847B42" stroke-width="3" stroke-linecap="round" stroke-linejoin="round" points="68.72 92.89 68.72 68.89 55.22 68.89 55.31 48.57 46.16 40.64"></polyline>
            <polyline id="_Path_994" stroke="#847B42" stroke-width="3" stroke-linecap="round" stroke-linejoin="round" points="52.97 112.98 52.97 85.55 60.97 85.55 60.97 75.06 55.08 75.06"></polyline>
            <polyline id="_Path_995" stroke="#847B42" stroke-width="3" stroke-linecap="round" stroke-linejoin="round" points="61.97 107.66 61.97 94.98 58.45 94.98"></polyline>
            <polyline id="_Path_996" stroke="#847B42" stroke-width="3" stroke-linecap="round" stroke-linejoin="round" points="70.1 62.89 70.1 58.02 65.35 58.02 65.08 43.21 58.45 36.58"></polyline>
            <polyline id="_Path_997" stroke="#847B42" stroke-width="3" stroke-linecap="round" stroke-linejoin="round" points="42.64 85.31 42.64 78.99 42.64 68.31 47.14 68.31 47.14 54.48 38.46 46.77"></polyline>
            <polyline id="_Path_998" stroke="#847B42" stroke-width="3" stroke-linecap="round" stroke-linejoin="round" points="108.46 61.52 108.46 50.89 112.83 47.39"></polyline>
            <path d="M72.92,48.64 L72.92,38.64" id="_Path_999" stroke="#847B42" stroke-width="3" stroke-linecap="round" stroke-linejoin="round"></path>
            <polyline id="_Path_1000" stroke="#847B42" stroke-width="3" stroke-linecap="round" stroke-linejoin="round" points="64.27 112.98 64.27 120.98 70.11 120.98 70.11 128.14"></polyline>
            <polyline id="_Path_1001" stroke="#847B42" stroke-width="3" stroke-linecap="round" stroke-linejoin="round" points="101.42 100.14 101.42 112.98 95.92 112.98 95.92 117.81"></polyline>
            <polyline id="_Path_1002" stroke="#847B42" stroke-width="3" stroke-linecap="round" stroke-linejoin="round" points="84.22 119.48 77.37 119.48 77.37 135.81"></polyline>
            <path d="M81.54,73.64 L81.54,69.27" id="_Path_1003" stroke="#847B42" stroke-width="3" stroke-linecap="round" stroke-linejoin="round"></path>
            <polyline id="_Path_1004" stroke="#847B42" stroke-width="3" stroke-linecap="round" stroke-linejoin="round" points="47.14 68.31 47.14 79.42 54.21 79.42"></polyline>
            <path d="M86.02,103.48 L86.02,94.98" id="_Path_1005" stroke="#847B42" stroke-width="3" stroke-linecap="round" stroke-linejoin="round"></path>
            <path d="M80.56,62.64 L76.22,62.64" id="_Path_1006" stroke="#847B42" stroke-width="3" stroke-linecap="round" stroke-linejoin="round"></path>
        </g>
    </g>
</svg>