<?xml version="1.0" encoding="UTF-8"?>
<svg width="153px" height="135px" viewBox="0 0 153 135" version="1.1" xmlns="http://www.w3.org/2000/svg" xmlns:xlink="http://www.w3.org/1999/xlink">
    <!-- Generator: Sketch 52.5 (67469) - http://www.bohemiancoding.com/sketch -->
    <title>_Group_83</title>
    <desc>Created with Sketch.</desc>
    <g id="Page-1" stroke="none" stroke-width="1" fill="none" fill-rule="evenodd" stroke-linecap="round" stroke-linejoin="round">
        <g id="_Group_83" transform="translate(1.000000, 1.000000)" stroke="#3B6D96" stroke-width="3">
            <g id="_Group_84">
                <path d="M98.24,123.37 C74.9245724,136.364926 46.0593332,133.932001 25.2479568,117.217819 C4.43658035,100.503637 -4.16801513,72.8435196 3.48936334,47.2731887 C11.1467418,21.7028578 33.5380614,3.32488275 60.110691,0.800476741 C86.6833206,-1.72392927 112.134682,12.1089799 124.47,35.78" id="_Path_363"></path>
                <polyline id="_Path_364" points="66.3 108.35 66.3 131.67 114.06 131.67"></polyline>
                <path d="M66.3,0.51 L66.3,23.01" id="_Path_365"></path>
                <path d="M0.72,66.09 L30.97,66.09" id="_Path_366"></path>
                <path d="M23.31,16.58 C51.332969,25.1713133 81.287031,25.1713133 109.31,16.58" id="_Path_367"></path>
                <path d="M78.81,108.96 C74.3241145,108.515838 69.8176624,108.312214 65.31,108.35 C51.0352911,108.455655 36.8780048,110.939686 23.42,115.7" id="_Path_368"></path>
                <path d="M50.85,2.35 C24.3442656,40.706357 24.3442656,91.463643 50.85,129.82" id="_Path_369"></path>
                <path d="M87.82,120.01 C85.9948463,123.38378 83.9920331,126.658379 81.82,129.82" id="_Path_370"></path>
                <path d="M81.78,2.35 C88.9226996,12.7539625 94.2827,24.2749218 97.64,36.44" id="_Path_371"></path>
                <path d="M66.73,23.02 L66.73,108.35" id="_Path_372"></path>
                <path d="M30.97,66.21 L71.72,66.21" id="_Path_373"></path>
            </g>
            <g id="_Group_85" transform="translate(78.000000, 40.000000)">
                <path d="M15.06,77.42 C0.68,59.2 0.46,35.11 0.36,24.79 C0.347751601,23.4594969 0.711737158,22.1526154 1.41,21.02 C3.47,17.68 14.76,1.02 35.22,0.45 L36.22,0.45 C47.22,0.45 55.73,5.31 61.56,10.25" id="_Path_374"></path>
                <path d="M71.71,22.02 L71.71,24.15 C71.63,38.35 71.43,71.54 43.99,89.29 C41.6368064,90.8257356 38.8899604,91.6487476 36.08,91.66" id="_Path_375"></path>
            </g>
        </g>
    </g>
</svg>