<?xml version="1.0"?>
<svg xmlns="http://www.w3.org/2000/svg" height="512px" viewBox="-26 0 480 480" width="512px" class=""><g transform="matrix(0.860058 0 0 0.860058 29.9475 33.586)"><path d="m351.453125 240.054688c5.648437-4.832032 10.910156-9.546876 15.785156-14.152344 6.277344 3.960937 13.542969 6.074218 20.964844 6.097656 16.078125.03125 30.605469-9.589844 36.859375-24.402344s3.011719-31.929687-8.226562-43.429687c10.65625-21.910157 7.855468-36.046875 3.199218-44.160157-14.949218-25.960937-66.34375-25.976562-138.191406-.488281-13.960938-75-39.695312-119.519531-69.640625-119.519531-29.941406 0-55.664063 44.496094-69.597656 119.457031-14.8125-5.320312-29.917969-9.789062-45.242188-13.378906-49.160156-11.132813-81.328125-6.308594-93.007812 13.921875-11.679688 20.230469.234375 50.496094 34.449219 87.503906 10.765624 11.480469 22.1875 22.328125 34.199218 32.496094-57.960937 49.601562-83.605468 94.121094-68.605468 120 7.527343 13.0625 24.253906 19.574219 48.183593 19.574219 30.847657-1.421875 61.253907-7.871094 90.023438-19.09375 2.472656 13.28125 5.390625 25.847656 8.710937 37.597656-17.746094 10.832031-24.199218 33.472656-14.828125 52.027344 9.367188 18.558593 31.417969 26.808593 50.667969 18.957031 6.636719 6.726562 15.605469 10.644531 25.046875 10.9375 29.9375 0 55.664063-44.496094 69.601563-119.457031 14.8125 5.320312 29.917968 9.789062 45.238281 13.378906 14.855469 3.601563 30.058593 5.5625 45.335937 5.847656 23.875 0 40.082032-6.632812 47.664063-19.769531 11.683593-20.230469-.230469-50.496094-34.445313-87.503906-10.75-11.460938-22.148437-22.292969-34.144531-32.441406zm36.75-24.054688c-13.253906 0-24-10.746094-24-24s10.746094-24 24-24c13.257813 0 24 10.746094 24 24s-10.742187 24-24 24zm17.953125-88c4.296875 7.449219 1.601562 17.902344-2.617188 27.078125-16.425781-6.882813-35.421874-2.046875-46.5625 11.847656-11.140624 13.894531-11.726562 33.492188-1.4375 48.027344-5.070312 4.757813-10.636718 9.679687-16.589843 14.71875-14.785157-11.886719-30.878907-23.679687-48.152344-35.097656-1.25-20.398438-3.359375-40.183594-6.257813-59.023438 71.882813-25.949219 112.867188-22.75 121.617188-7.550781zm-176.261719 193.550781c7.4375-3.949219 14.886719-8 22.308594-12.304687 7.144531-4.117188 14.464844-8.558594 21.824219-13.125-1.144532 14.648437-2.773438 28.878906-4.796875 42.632812-12.851563-5.066406-25.992188-10.816406-39.335938-17.203125zm-74.714843 17.136719c-2.03125-13.71875-3.632813-27.894531-4.800782-42.527344 7.148438 4.449219 14.421875 8.820313 21.824219 13.121094 7.402344 4.296875 14.808594 8.402344 22.210937 12.320312-13.445312 6.429688-26.523437 12.125-39.234374 17.085938zm25.023437-43.261719c-10.6875-6.179687-21-12.570312-31.0625-19.050781-.59375-12.160156-.9375-24.375-.9375-36.375s.34375-24.257812.945313-36.433594c10.480468-6.710937 20.921874-13.117187 31.054687-18.957031 10.664063-6.144531 21.410156-11.9375 32.050781-17.371094 10.613282 5.457031 21.285156 11.203125 31.949219 17.335938 10.664063 6.136719 21 12.570312 31.066406 19.050781.589844 12.160156.933594 24.375.933594 36.375s-.34375 24.257812-.941406 36.433594c-10.480469 6.710937-20.921875 13.117187-31.058594 18.957031-10.664063 6.144531-21.40625 11.9375-32.046875 17.371094-10.617188-5.457031-21.289062-11.160157-31.953125-17.335938zm14.3125-136.976562c-7.4375 3.949219-14.886719 8-22.3125 12.304687-7.140625 4.117188-14.460937 8.558594-21.824219 13.125 1.144532-14.648437 2.777344-28.878906 4.800782-42.632812 12.847656 5.066406 25.992187 10.816406 39.335937 17.203125zm-61.832031 106.976562c-12.191406-8.359375-23.703125-16.832031-34.535156-25.425781 10.800781-8.59375 22.316406-17.09375 34.542968-25.503906-.285156 8.535156-.488281 17.070312-.488281 25.503906s.195313 16.902344.480469 25.425781zm136.546875-124.113281c2.03125 13.71875 3.628906 27.894531 4.796875 42.527344-7.144532-4.449219-14.421875-8.820313-21.824219-13.121094-7.402344-4.296875-14.804687-8.402344-22.207031-12.320312 13.453125-6.425782 26.527344-12.121094 39.234375-17.085938zm22.496093 73.261719c12.191407 8.363281 23.703126 16.839843 34.535157 25.425781-10.800781 8.59375-22.316407 17.09375-34.546875 25.503906.289062-8.535156.488281-17.070312.488281-25.503906s-.191406-16.902344-.476563-25.425781zm-79.523437-198.574219c17.546875 0 40.859375 33.910156 54.402344 109.167969-17.386719 6.6875-35.578125 14.753906-54.273438 24.097656-18.527343-9.257813-36.800781-17.3125-54.496093-24.175781 13.570312-75.203125 36.832031-109.089844 54.367187-109.089844zm-161.65625 180.632812c-27.734375-30-39.820313-55.65625-32.335937-68.632812 4.488281-7.769531 16.402343-11.726562 33.785156-11.726562 14.097656.28125 28.121094 2.097656 41.824218 5.414062 15.617188 3.664062 31 8.265625 46.0625 13.777344-2.910156 18.863281-5.015624 38.679687-6.269531 59.121094-17.289062 11.429687-33.410156 23.199218-48.121093 35.03125-12.296876-10.285157-23.96875-21.300782-34.945313-32.984376zm-32.300781 155.367188c-8.800782-15.199219 8.878906-52.3125 67.238281-101.640625 14.777344 11.878906 30.863281 23.65625 48.128906 35.074219 1.246094 20.40625 3.359375 40.191406 6.261719 59.023437-71.886719 25.941407-112.863281 22.742188-121.628906 7.542969zm129.957031 80c0-13.253906 10.746094-24 24-24 13.257813 0 24 10.746094 24 24s-10.742187 24-24 24c-13.253906 0-24-10.746094-24-24zm64 32c-4.097656-.21875-8.019531-1.734375-11.199219-4.328125 11.164063-11.53125 14.332032-28.625 8.050782-43.390625-6.285157-14.765625-20.800782-24.332031-36.851563-24.28125-1.957031.050781-3.910156.25-5.839844.59375-3.277343-11.746094-6.144531-24.386719-8.550781-37.761719 17.375-6.6875 35.574219-14.753906 54.273438-24.097656 18.527343 9.257813 36.796874 17.3125 54.496093 24.175781-13.578125 75.203125-36.839843 109.089844-54.378906 109.089844zm193.992187-112c-7.496093 12.976562-35.757812 15.335938-75.605468 6.3125-15.617188-3.664062-31-8.265625-46.066406-13.777344 2.914062-18.863281 5.015624-38.679687 6.273437-59.121094 17.289063-11.429687 33.40625-23.199218 48.121094-35.03125 12.296875 10.285157 23.96875 21.300782 34.941406 32.984376 27.738281 30 39.824219 55.65625 32.335937 68.632812zm0 0" data-original="#000000" class="active-path" data-old_color="#fcaf3a" fill="#fcaf3a"/></g> </svg>
