<?xml version="1.0" encoding="UTF-8"?>
<svg width="187px" height="144px" viewBox="0 0 187 144" version="1.1" xmlns="http://www.w3.org/2000/svg" xmlns:xlink="http://www.w3.org/1999/xlink">
    <!-- Generator: Sketch 52.5 (67469) - http://www.bohemiancoding.com/sketch -->
    <title>_Group_288</title>
    <desc>Created with Sketch.</desc>
    <g id="Page-1" stroke="none" stroke-width="1" fill="none" fill-rule="evenodd">
        <g id="_Group_288" transform="translate(1.000000, 1.000000)">
            <path d="M131.3,96.16 C135.893333,96.16 140.483333,96.1166667 145.07,96.03 C149.07,95.95 153.07,95.84 157.07,95.63 C162.4008,95.4840721 167.612535,94.0205264 172.24,91.37 C174.92,89.78 179.73,86.84 182.24,80.75 C184.042152,76.1967752 184.201276,71.1578593 182.69,66.5 C180.727531,60.4435097 176.237612,55.5341425 170.38,53.04 L170.31,53.04 L170.23,53.04 C166.23,39.84 154.75,30.28 141.13,30.28 C137.199607,30.2840587 133.312174,31.0976284 129.71,32.67 C124.46,14.22 108.47,0.79 89.55,0.79 C76.8705237,0.889574731 64.9572899,6.87575298 57.31,16.99 C55.1444841,16.4727562 52.926419,16.2076622 50.7,16.2 C33.81,16.2 20.12,30.89 20.12,49 C20.12,49.05 20.12,49.09 20.12,49.14 C9.12,50.39 0.61,60.34 0.61,72.44 C0.61,85.38 10.4,95.87 22.47,95.87 L41.42,95.66 L51.42,95.66" id="_Path_1180" stroke="#3B6D96" stroke-width="3" stroke-linecap="round" stroke-linejoin="round"></path>
            <path d="M177.91,67.97 C176.455444,63.4553967 173.16132,59.7653958 168.84,57.81 C167.207609,57.33746 165.926988,56.0681386 165.44,54.44 C162,42.96 152.23,35.25 141.13,35.25 C137.879017,35.2579415 134.66489,35.9389007 131.69,37.25 C130.367548,37.8199693 128.86356,37.7920806 127.563148,37.1734751 C126.262736,36.5548697 125.29218,35.4056188 124.9,34.02 C120.1,17.13 105.9,5.78 89.55,5.78 C78.4131923,5.88664185 67.9573336,11.158907 61.25,20.05 C60.0509017,21.5931687 58.0626387,22.2962873 56.16,21.85 C54.3721384,21.4168734 52.5395704,21.1953542 50.7,21.19 C36.63,21.19 25.18,33.61 25.12,48.89 C25.1248043,48.9699279 25.1248043,49.0500721 25.12,49.13 C25.1366399,51.6833226 23.2267369,53.8389693 20.69,54.13 C12.09,55.13 5.61,62.99 5.61,72.46 C5.61,82.62 13.17,90.89 22.41,90.89 L41.41,90.68 L51.41,90.68 L131.26,91.21 C136.17,91.21 140.64,91.21 144.91,91.08 C148.15,91.01 152.43,90.91 156.74,90.68 C161.262445,90.5819874 165.689167,89.3584522 169.62,87.12 C172.53,85.4 175.78,83.2 177.56,78.89 C178.973261,75.4078047 179.097372,71.5355489 177.91,67.97 Z M89.43,77.47 C85.8809862,77.5005808 82.4800855,76.0493287 80.0465609,73.4658442 C77.6130362,70.8823598 76.3675012,67.4008514 76.61,63.86 L77.36,52.86 C77.6499621,48.7164159 80.0900605,45.0278069 83.79,43.14 C82.4776624,40.9054082 82.7015295,38.0889033 84.3503877,36.0896791 C85.9992458,34.0904549 88.7216594,33.3346238 91.1651776,34.1976704 C93.6086958,35.060717 95.25251,37.3586924 95.28,39.95 C95.2873741,41.0670976 94.993759,42.1655638 94.43,43.13 C98.017099,44.9360648 100.436924,48.4451886 100.85,52.44 L102,63.44 C102.368993,67.0109665 101.215436,70.572028 98.8227133,73.2483752 C96.4299903,75.9247225 93.0198405,77.4683315 89.43,77.5 L89.43,77.47 Z" id="_Compound_Path_36" fill="#E0C79B" fill-rule="nonzero"></path>
            <path d="M89.43,77.5 C93.0217722,77.4686065 96.4336883,75.9236388 98.826751,73.2450078 C101.219814,70.5663768 102.372005,67.0025936 102,63.43 L100.85,52.43 C100.221569,46.3876427 95.1047591,41.8119503 89.03,41.86 C82.861264,41.9089369 77.7731608,46.7049211 77.36,52.86 L76.61,63.86 C76.3587429,67.405853 77.6003576,70.8954302 80.0348759,73.4856665 C82.4693942,76.0759028 85.8753932,77.5312126 89.43,77.5 Z" id="_Path_1181" stroke="#3B6D96" stroke-width="3" stroke-linecap="round" stroke-linejoin="round"></path>
            <path d="M94.42,43.11 C95.7573381,40.8656326 95.5361546,38.0222733 93.8678279,36.0117151 C92.1995012,34.0011568 89.4457301,33.2592952 86.9931947,34.1596997 C84.5406592,35.0601041 82.9210771,37.407564 82.95,40.02 C82.9501013,41.1108756 83.2436957,42.1816317 83.8,43.12" id="_Path_1182" stroke="#3B6D96" stroke-width="3" stroke-linecap="round" stroke-linejoin="round"></path>
            <path d="M83.8,43.12 C82.4876624,40.8854082 82.7115295,38.0689033 84.3603877,36.0696791 C86.0092458,34.0704549 88.7316594,33.3146238 91.1751776,34.1776704 C93.6186958,35.040717 95.26251,37.3386924 95.29,39.93 C95.2973741,41.0470976 95.003759,42.1455638 94.44,43.11" id="_Path_1183" stroke="#3B6D96" stroke-width="3" stroke-linecap="round" stroke-linejoin="round"></path>
            <path d="M89.43,77.47 L89.24,55.18" id="_Path_1184" stroke="#3B6D96" stroke-width="3" stroke-linecap="round" stroke-linejoin="round"></path>
            <polyline id="_Path_1185" stroke="#3B6D96" stroke-width="3" stroke-linecap="round" stroke-linejoin="round" points="94.51 43.11 102.82 43.04 106.89 39.04"></polyline>
            <polyline id="_Path_1186" stroke="#3B6D96" stroke-width="3" stroke-linecap="round" stroke-linejoin="round" points="100.97 52.58 106.23 52.54 112.08 47.98"></polyline>
            <polyline id="_Path_1187" stroke="#3B6D96" stroke-width="3" stroke-linecap="round" stroke-linejoin="round" points="102.06 64.75 107.31 64.71 110.79 70.15"></polyline>
            <polyline id="_Path_1188" stroke="#3B6D96" stroke-width="3" stroke-linecap="round" stroke-linejoin="round" points="98.89 73.14 102.16 76.14 104.92 80.13"></polyline>
            <polyline id="_Path_1189" stroke="#3B6D96" stroke-width="3" stroke-linecap="round" stroke-linejoin="round" points="83.53 43.2 75.23 43.27 71.09 39.34"></polyline>
            <polyline id="_Path_1190" stroke="#3B6D96" stroke-width="3" stroke-linecap="round" stroke-linejoin="round" points="77.24 52.78 71.97 52.82 66.05 48.37"></polyline>
            <polyline id="_Path_1191" stroke="#3B6D96" stroke-width="3" stroke-linecap="round" stroke-linejoin="round" points="76.35 64.97 71.09 65.01 67.71 70.51"></polyline>
            <polyline id="_Path_1192" stroke="#3B6D96" stroke-width="3" stroke-linecap="round" stroke-linejoin="round" points="79.66 73.3 76.44 76.35 73.74 80.39"></polyline>
            <path d="M92.79,34.96 C94.1562298,33.0080454 93.9553575,30.3632265 92.31,28.64" id="_Path_1193" stroke="#3B6D96" stroke-width="3" stroke-linecap="round" stroke-linejoin="round"></path>
            <path d="M85.36,35.03 C83.9585866,33.1015857 84.1134592,30.4520094 85.73,28.7" id="_Path_1194" stroke="#3B6D96" stroke-width="3" stroke-linecap="round" stroke-linejoin="round"></path>
            <rect id="_Rectangle_91" stroke="#3B6D96" stroke-width="3" stroke-linecap="round" stroke-linejoin="round" transform="translate(150.215000, 124.495000) rotate(-90.000000) translate(-150.215000, -124.495000) " x="133.83" y="104.6" width="32.77" height="39.79" rx="7.94"></rect>
            <path d="M137.46,124.5 L144.32,124.5" id="_Path_1195" stroke="#3B6D96" stroke-width="3" stroke-linecap="round" stroke-linejoin="round"></path>
            <path d="M130.33,124.5 L101.69,124.5 C94.7406406,124.49448 89.1099978,118.859362 89.11,111.91 L89.11,79.35" id="_Path_1196" stroke="#3B6D96" stroke-width="3" stroke-linecap="round" stroke-linejoin="round"></path>
        </g>
    </g>
</svg>