<?xml version="1.0"?>
<svg xmlns="http://www.w3.org/2000/svg" height="512px" viewBox="-3 0 511 512" width="512px" class=""><g transform="matrix(0.754719 0 0 0.754719 61.9333 62.7918)"><path d="m499.382812 452.71875-214.464843-428.929688c-7.558594-15.117187-19.296875-23.789062-32.203125-23.789062-12.902344 0-24.640625 8.671875-32.199219 23.789062l-214.46875 428.929688c-7.300781 14.605469-7.398437 29.59375-.269531 41.128906s20.582031 18.152344 36.910156 18.152344h420.058594c16.328125 0 29.78125-6.617188 36.910156-18.152344s7.03125-26.527344-.273438-41.128906zm-25.246093 25.359375c-1.519531 2.453125-5.777344 3.921875-11.390625 3.921875h-420.058594c-5.613281 0-9.871094-1.46875-11.390625-3.921875-1.519531-2.457031-.925781-6.921875 1.582031-11.941406l214.46875-428.929688c2.296875-4.59375 4.4375-6.53125 5.367188-7.089843.933594.558593 3.074218 2.496093 5.371094 7.089843l214.464843 428.929688c2.511719 5.019531 3.101563 9.484375 1.585938 11.941406zm0 0" data-original="#000000" class="active-path" data-old_color="#fcaf3a" fill="#fcaf3a"/><path d="m252.714844 128.53125c-8.28125 0-15 6.71875-15 15v192.800781c0 8.285157 6.71875 15 15 15 8.285156 0 15-6.714843 15-15v-192.800781c0-8.28125-6.714844-15-15-15zm0 0" data-original="#000000" class="active-path" data-old_color="#fcaf3a" fill="#fcaf3a"/><path d="m252.714844 401.671875c-3.949219 0-7.820313 1.597656-10.609375 4.386719-2.789063 2.792968-4.390625 6.660156-4.390625 10.601562 0 3.949219 1.601562 7.820313 4.390625 10.609375 2.800781 2.789063 6.660156 4.402344 10.609375 4.402344 3.941406 0 7.8125-1.613281 10.609375-4.402344 2.789062-2.789062 4.390625-6.660156 4.390625-10.609375 0-3.9375-1.601563-7.808594-4.390625-10.601562-2.796875-2.789063-6.660157-4.386719-10.609375-4.386719zm0 0" data-original="#000000" class="active-path" data-old_color="#fcaf3a" fill="#fcaf3a"/></g> </svg>
