<?xml version="1.0" encoding="UTF-8"?>
<svg width="188px" height="107px" viewBox="0 0 188 107" version="1.1" xmlns="http://www.w3.org/2000/svg" xmlns:xlink="http://www.w3.org/1999/xlink">
    <!-- Generator: Sketch 52.2 (67145) - http://www.bohemiancoding.com/sketch -->
    <title>Group 8</title>
    <desc>Created with Sketch.</desc>
    <g id="Page-1" stroke="none" stroke-width="1" fill="none" fill-rule="evenodd">
        <g id="Group-8" transform="translate(0.000000, 1.000000)" stroke="#FCAF3A">
            <path d="M125.5,46 L125.5,56.5" id="Line-5" stroke-width="2" stroke-linecap="square"></path>
            <circle id="Oval" stroke-width="2" cx="180.5" cy="6.5" r="6.5"></circle>
            <circle id="Oval-Copy-3" stroke-width="2" cx="23.5" cy="57.5" r="6.5"></circle>
            <rect id="Rectangle" stroke-width="2" x="1" y="22" width="44" height="71" rx="2"></rect>
            <path d="M1.5,36.5 L44.5,36.5" id="Line-3" stroke-width="2" stroke-linecap="square"></path>
            <path d="M1.5,78.5 L44.5,78.5" id="Line-3-Copy" stroke-width="2" stroke-linecap="square"></path>
            <rect id="Rectangle" fill="#D8D8D8" x="86.5" y="104.5" width="78" height="1" rx="0.5"></rect>
            <g id="Group-7" transform="translate(69.000000, 0.000000)" fill="#D8D8D8">
                <rect id="Rectangle-Copy-4" x="0.5" y="0.5" width="94" height="1" rx="0.5"></rect>
                <rect id="Rectangle-Copy-6" x="0.5" y="77.5" width="112" height="1" rx="0.5"></rect>
                <rect id="Rectangle-Copy-7" transform="translate(112.000000, 45.500000) rotate(90.000000) translate(-112.000000, -45.500000) " x="79" y="45" width="66" height="1" rx="0.5"></rect>
                <rect id="Rectangle-Copy-8" transform="translate(1.000000, 39.500000) rotate(90.000000) translate(-1.000000, -39.500000) " x="-38" y="39" width="78" height="1" rx="0.5"></rect>
            </g>
            <circle id="Oval-Copy-2" stroke-width="2" cx="125.5" cy="39.5" r="6.5"></circle>
            <rect id="Rectangle-Copy-5" fill="#D8D8D8" transform="translate(125.500000, 94.500000) rotate(90.000000) translate(-125.500000, -94.500000) " x="115" y="94" width="21" height="1" rx="0.5"></rect>
            <path d="M30,57.5 L125.5,56.5" id="Line-4" stroke-width="2" stroke-linecap="square"></path>
        </g>
    </g>
</svg>