<?xml version="1.0" encoding="UTF-8"?>
<svg width="130px" height="160px" viewBox="0 0 130 160" version="1.1" xmlns="http://www.w3.org/2000/svg" xmlns:xlink="http://www.w3.org/1999/xlink">
    <!-- Generator: Sketch 52.2 (67145) - http://www.bohemiancoding.com/sketch -->
    <title>Group 2</title>
    <desc>Created with Sketch.</desc>
    <g id="Page-1" stroke="none" stroke-width="1" fill="none" fill-rule="evenodd">
        <g id="Group-2" transform="translate(1.000000, 1.000000)" stroke="#FCAF3A" stroke-width="2">
            <path d="M68.3884272,1.42108547e-14 L61.1199574,1.42108547e-14 L-2.13162821e-14,9.21575308 L-2.13162821e-14,93.2157531 C1.91206066,111.970852 8.08911143,124.810835 18.5311523,131.735701 C28.9731932,138.660567 43.9246082,147.372369 63.3853974,157.871107 L105.13401,134.715753 C119.886985,124.715753 127.263473,110.88242 127.263473,93.2157531 C127.263473,75.5490864 127.263473,47.5490864 127.263473,9.21575308 L68.3884272,1.42108547e-14 Z" id="Path-2"></path>
            <g id="Group" transform="translate(28.000000, 29.000000)">
                <path d="M24.6503814,7.10542736e-15 L46.6055373,7.10542736e-15 C53.4716759,5.3137018 58.0589049,8.4248329 60.367224,9.33339331 C62.6755431,10.2419537 64.344053,12.2417878 65.3727536,15.3328955 C67.2571404,23.0024719 68.77438,27.3459789 69.9244723,28.3634164 C71.0745646,29.3808539 71.0745646,31.639214 69.9244723,35.1384966 C66.8899932,39.47183 65.3727536,43.1384966 65.3727536,46.1384966 C65.3727536,49.1384966 63.3992994,51.6384966 59.452391,53.6384966 C54.5238691,55.9954222 50.6126426,58.7513203 47.7187115,61.9061908 L25.8630095,62.3088192 L14.2541555,54.6948303 C9.66925748,52.9926391 6.79734389,49.713279 5.63841478,44.8567499 C4.47948566,40.0002208 3.21847005,36.760803 1.85536794,35.1384966 C0.714877354,32.2878027 0.714877354,29.6211361 1.85536794,27.1384966 C2.99585852,24.6558572 3.88338146,22.804492 4.51793675,21.5844009 C5.99751641,18.8988236 6.73730624,16.4168555 6.73730624,14.1384966 C6.73730624,11.8601378 9.24292267,9.62454031 14.2541555,7.43170431 L24.6503814,7.10542736e-15 Z" id="Path-3"></path>
                <polyline id="Path-4" points="33 61.9593308 46.327349 92.7890082 52.0549838 80.5509762 64.2417569 86.297177 52.0549838 58"></polyline>
                <polyline id="Path-4-Copy" transform="translate(21.735453, 77.149087) rotate(45.000000) translate(-21.735453, -77.149087) " points="6.95867472 64.8449669 18.5978234 92.836894 24.3254582 80.598862 36.5122313 86.3450629 26.0193808 61.4612792"></polyline>
                <circle id="Oval" cx="36.5" cy="31.5" r="21.5"></circle>
            </g>
        </g>
    </g>
</svg>