<?xml version="1.0"?>
<svg xmlns="http://www.w3.org/2000/svg" height="512px" viewBox="0 -32 512 512" width="512px" class=""><g transform="matrix(0.785678 0 0 0.785678 54.8663 48.0081)"><path d="m479.9375 80.15625v-64.125h-303.59375v15.03125h288.5625v49.09375h-305.59375v-80.15625h-159.3125v383.75h120.234375v-15.03125h-105.203125v-353.6875h129.25v65.125h-112.21875v15.03125h464.90625v273.53125h-104.203125v15.03125h119.234375v-303.59375zm0 0" data-original="#000000" class="active-path" data-old_color="#fcaf3a" fill="#fcaf3a"/><path d="m272.53125 48.09375h16.03125v15.03125h-16.03125zm0 0" data-original="#000000" class="active-path" data-old_color="#fcaf3a" fill="#fcaf3a"/><path d="m304.59375 48.09375h16.03125v15.03125h-16.03125zm0 0" data-original="#000000" class="active-path" data-old_color="#fcaf3a" fill="#fcaf3a"/><path d="m336.65625 48.09375h16.03125v15.03125h-16.03125zm0 0" data-original="#000000" class="active-path" data-old_color="#fcaf3a" fill="#fcaf3a"/><path d="m346.832031 335.65625h52.949219v-63.125h-52.949219c-1.359375-4.007812-2.964843-7.902344-4.792969-11.539062l37.308594-37.429688-42.691406-42.753906-37.558594 37.277344c-3.636718-1.832032-7.527344-3.464844-11.535156-4.824219v-52.949219h-63.125v52.949219c-3.003906 1.359375-7.398438 2.964843-11.035156 4.792969l-37.183594-37.308594-42.625 42.691406 37.335938 37.554688c-1.828126 3.636718-3.398438 7.53125-4.761719 11.539062h-53.949219v63.125h53.949219c1.363281 3.003906 2.964843 7.398438 4.792969 11.035156l-37.304688 37.183594 42.6875 42.628906 37.058594-37.339844c3.636718 1.828126 8.03125 3.398438 11.035156 4.761719v53.949219h63.125v-53.949219c4.007812-1.363281 7.902344-2.964843 11.535156-4.792969l37.433594 37.308594 42.753906-42.691406-37.277344-37.058594c1.828126-3.636718 3.464844-8.03125 4.824219-11.035156zm-90.332031 48.59375c-44.472656 0-80.65625-36.183594-80.65625-80.65625 0-44.476562 36.183594-80.660156 80.65625-80.660156 44.476562 0 80.660156 36.183594 80.660156 80.660156 0 44.472656-36.183594 80.65625-80.660156 80.65625zm128.25-96.6875v33.0625h-33.996094c.941406-6.011719 1.433594-10.894531 1.433594-16.53125s-.492188-11.523438-1.433594-16.53125zm-48.09375-85.5625 21.4375 21.4375-24.097656 24.097656c-5.96875-8.226562-13.210938-15.46875-21.4375-21.4375zm-97.1875-26.65625h33.0625v33.996094c-5.007812-.941406-10.894531-1.433594-16.53125-1.433594s-10.519531.492188-16.53125 1.433594zm-84.558594 48.09375 21.433594-21.4375 24.097656 24.097656c-8.226562 5.96875-15.46875 13.210938-21.4375 21.4375zm-27.660156 97.1875v-33.0625h34.996094c-.9375 5.007812-1.433594 10.894531-1.433594 16.53125s.496094 10.519531 1.433594 16.53125zm49.09375 84.558594-21.433594-21.433594 24.09375-24.097656c5.96875 8.226562 13.210938 15.46875 21.4375 21.4375zm96.1875 27.660156h-33.0625v-34.996094c6.011719.9375 10.894531 1.433594 16.53125 1.433594s11.523438-.496094 16.53125-1.433594zm85.5625-49.09375-21.4375 21.433594-24.097656-24.09375c8.226562-5.96875 15.46875-13.210938 21.4375-21.4375zm0 0" data-original="#000000" class="active-path" data-old_color="#fcaf3a" fill="#fcaf3a"/><path d="m256.5 247.984375c-30.660156 0-55.609375 24.945313-55.609375 55.609375 0 30.660156 24.949219 55.609375 55.609375 55.609375 30.664062 0 55.609375-24.949219 55.609375-55.609375 0-30.664062-24.945313-55.609375-55.609375-55.609375zm0 96.1875c-22.375 0-40.578125-18.203125-40.578125-40.578125s18.203125-40.578125 40.578125-40.578125 40.582031 18.203125 40.582031 40.578125-18.207031 40.578125-40.582031 40.578125zm0 0" data-original="#000000" class="active-path" data-old_color="#fcaf3a" fill="#fcaf3a"/><path d="m256.5 280.046875c-12.980469 0-23.546875 10.5625-23.546875 23.546875s10.566406 23.546875 23.546875 23.546875c12.984375 0 23.546875-10.5625 23.546875-23.546875s-10.5625-23.546875-23.546875-23.546875zm0 32.0625c-4.695312 0-8.515625-3.820313-8.515625-8.515625s3.820313-8.515625 8.515625-8.515625 8.519531 3.820313 8.519531 8.515625-3.824219 8.515625-8.519531 8.515625zm0 0" data-original="#000000" class="active-path" data-old_color="#fcaf3a" fill="#fcaf3a"/></g> </svg>
