<?xml version="1.0" encoding="UTF-8"?>
<svg width="151px" height="149px" viewBox="0 0 151 149" version="1.1" xmlns="http://www.w3.org/2000/svg" xmlns:xlink="http://www.w3.org/1999/xlink">
    <!-- Generator: Sketch 52.2 (67145) - http://www.bohemiancoding.com/sketch -->
    <title>Group 6</title>
    <desc>Created with Sketch.</desc>
    <g id="Page-1" stroke="none" stroke-width="1" fill="none" fill-rule="evenodd">
        <g id="Group-6" transform="translate(-24.000000, -1.000000)">
            <rect id="Rectangle-Copy-3" fill="#D8D8D8" opacity="0" x="0" y="0" width="200" height="150"></rect>
            <g id="France-2" transform="translate(24.000000, 0.000000)" fill="#FF8200">
                <g id="France">
                    <g id="Group" transform="translate(75.500000, 75.473995) scale(-1, 1) rotate(-180.000000) translate(-75.500000, -75.473995) translate(0.000000, 0.973995)">
                        <path d="M76.4088564,148.512534 C75.6298366,147.849416 75.2662941,147.680386 74.5521926,147.680386 C74.1107481,147.680386 73.5784179,147.563365 73.0590714,147.342325 C71.9684437,146.887244 71.0855546,146.653202 70.8907997,146.770223 C70.5402408,146.991262 68.6965606,146.237128 68.1642304,145.665025 C67.9824592,145.469991 67.528031,145.079921 67.1644884,144.806872 C66.7749785,144.520821 66.4503869,144.156756 66.3984523,143.974723 C66.3595013,143.792691 66.3854686,143.259596 66.4763543,142.765507 C66.5672399,142.284421 66.7100602,141.452273 66.8139295,140.919178 C67.0346518,139.670955 67.0476354,138.500745 66.8528805,137.278527 C66.6061909,135.770258 66.6451419,135.432197 67.0995701,134.574044 L67.5020636,133.780902 L66.9697334,133.806907 C66.3984523,133.832911 66.4244196,133.845914 65.9440241,132.805728 C65.7752365,132.428661 65.2818573,131.791547 64.7625107,131.284456 C64.0354256,130.556326 63.749785,130.374294 63.1395529,130.192261 C62.7240757,130.07524 61.8152193,129.698173 61.1270851,129.334108 C59.5171109,128.527964 58.1018917,128.046878 57.2839209,128.046878 C56.7126397,128.046878 56.5308684,127.968864 55.6739467,127.344752 C54.739123,126.655629 52.8305245,125.70646 52.38908,125.70646 C52.272227,125.70646 52.0125537,125.550432 51.8177988,125.342395 C51.5191745,125.043341 51.4412726,124.835304 51.3763543,124.055165 C51.3244196,123.548074 51.2205503,122.962969 51.155632,122.767935 C50.9868444,122.338858 50.9478934,121.584723 51.07773,121.4547 C51.1296647,121.389688 51.4932072,121.324677 51.8827171,121.28567 L52.5968186,121.220658 L51.5321582,120.570542 C48.8185727,118.906245 48.766638,118.893242 47.4423044,119.322319 C47.0138435,119.452342 45.8972485,119.634375 44.9624248,119.712389 C43.8588134,119.803405 42.9759243,119.94643 42.4955288,120.128463 C40.8336199,120.72657 40.3662081,120.739572 39.4963027,120.232482 C38.9639725,119.920426 38.9509888,119.920426 38.9509888,120.271489 C38.9509888,120.55754 38.2368874,121.727749 37.6656062,122.35186 L37.3539983,122.702923 L37.8473775,123.158004 C38.327773,123.613086 38.3407567,123.626088 38.2628547,124.36722 C38.171969,125.277383 37.8863285,125.576436 36.8606191,125.82348 C36.172485,125.992511 36.1465176,125.979508 35.1857266,125.524427 C34.6533964,125.264381 34.1210662,125.056343 33.9912296,125.056343 C33.8613929,125.056343 33.6017197,125.238376 33.4069647,125.459415 C32.8616509,126.070525 32.3293207,126.265559 31.6152193,126.083527 C31.3036113,126.005513 30.9400688,125.966506 30.8361995,126.018515 C30.5116079,126.135536 29.9922614,125.87549 29.9922614,125.576436 C29.9922614,125.433411 30.2519347,125.056343 30.5635426,124.731285 C31.3815133,123.912139 31.4204643,123.834125 31.2127257,122.988974 C30.9530525,121.896779 30.9790198,121.571721 31.4074807,121.090635 C31.7061049,120.752574 31.7969905,120.492528 31.8748925,119.803405 C31.9527945,118.971256 31.9787618,118.932249 32.5370593,118.54218 C33.4329321,117.93107 33.4718831,117.827052 33.5757524,115.499636 C33.666638,113.458271 33.666638,113.432267 34.0301806,113.094206 C34.3937231,112.769148 34.3937231,112.769148 34.2509028,111.910995 C34.0431642,110.688776 34.3028375,109.31053 34.8092003,108.868451 L35.1727429,108.569398 L34.5625107,108.491384 C34.2249355,108.452377 33.783491,108.41337 33.5627687,108.41337 C33.3550301,108.426372 32.9914875,108.322354 32.7707653,108.205333 C32.4851247,108.049305 32.2254514,108.010298 31.9008598,108.075309 C31.4204643,108.166326 31.4204643,108.179328 31.4204643,108.790437 C31.4204643,109.505565 31.3036113,109.648591 30.5505589,109.817621 C29.8104901,109.986651 29.4209802,109.778614 29.3690456,109.193509 C29.3171109,108.686419 29.2262253,108.595402 28.4991402,108.400368 C28.2134996,108.322354 27.8629407,108.179328 27.7071367,108.088312 C27.4474635,107.919282 27.4344798,107.932284 27.4474635,108.374363 C27.4604471,108.97247 27.1618229,109.193509 26.694411,108.933463 C26.3957868,108.777435 26.3308684,108.790437 26.1880482,108.998474 C26.0322442,109.193509 25.9024076,109.219514 25.383061,109.128498 C24.8377472,109.050484 24.6429923,108.933463 24.0067928,108.283347 C23.6042992,107.867272 23.1628547,107.347179 23.0330181,107.12614 C22.9031814,106.9051 22.7603611,106.723068 22.7084265,106.723068 C22.6694755,106.723068 22.5526225,107.061128 22.4617369,107.4642 C22.3319003,108.062307 22.18908,108.322354 21.6957008,108.816442 C21.3321582,109.180507 20.9296647,109.791616 20.6570077,110.376721 C19.877988,112.093027 19.9688736,111.989009 19.4365434,112.002011 C19.0210662,112.002011 18.9042132,112.080025 18.6964746,112.418085 C18.4368014,112.83416 17.9044712,112.990188 17.7226999,112.704136 C17.6837489,112.639125 17.450043,112.574113 17.2293207,112.574113 C16.7359415,112.574113 16.0607911,112.197046 15.7621668,111.728962 C15.4895099,111.312888 14.7494411,111.260879 14.5417025,111.663951 C14.3079966,112.093027 13.9184867,112.236053 13.5809114,112.002011 C13.3212382,111.832981 13.2693035,111.676953 13.2173689,110.844804 C13.1784179,110.324711 13.1134996,109.817621 13.0615649,109.739607 C12.9966466,109.635588 12.5681857,109.583579 11.8930353,109.583579 C10.9582115,109.583579 10.7764402,109.544572 10.3869304,109.258521 C9.82863285,108.842447 9.40017197,108.829444 9.27033534,109.232516 C9.06259673,109.921639 8.50429923,110.155681 7.8810834,109.817621 C7.72527945,109.739607 7.27085125,109.427551 6.88134136,109.128498 C6.1672399,108.569398 6.15425623,108.569398 5.85563199,108.816442 C5.68684437,108.959467 5.45313844,109.063486 5.32330181,109.063486 C5.1155632,109.063486 2.29810834,107.68524 1.59699054,107.243161 C1.32433362,107.074131 0,104.616692 0,104.278631 C0,103.810547 1.62295787,103.43348 2.28512468,103.771541 C2.49286328,103.875559 2.93430782,103.99258 3.27188306,104.031587 C3.99896819,104.135606 4.23267412,103.940571 4.03791917,103.43348 C3.93404987,103.173434 3.80421324,103.09542 3.42768702,103.056413 C2.98624248,103.017406 2.93430782,102.978399 2.77850387,102.432301 C2.64866724,102.003225 2.64866724,101.821192 2.75253654,101.678166 C2.99922614,101.379113 3.59647463,101.132069 4.0638865,101.132069 C4.40146174,101.132069 4.64815133,101.002046 5.06362855,100.650983 L5.60894239,100.156895 L4.15477214,100.143892 C2.92132416,100.13089 2.64866724,100.091883 2.36302666,99.8708436 C2.1033534,99.6758087 2.01246776,99.4937762 2.01246776,99.1687181 C2.01246776,98.7396415 2.03843508,98.7136368 2.79148753,98.4665927 C3.68736028,98.1675393 3.84316423,98.076523 4.27162511,97.5954371 C4.55726569,97.270379 4.57024936,97.2053674 4.42742906,96.6462675 C4.25864144,95.9571443 4.46638005,95.2680212 4.94677558,95.0209771 C5.36225279,94.7869353 6.77747206,94.9299608 7.30980224,95.2420166 C7.54350817,95.3850421 8.11478934,95.54107 8.56921754,95.5930793 C9.04961307,95.6450886 9.51702494,95.7881141 9.65984523,95.9051351 C9.85460017,96.0871676 9.91951849,96.0871676 9.97145314,95.9571443 C10.0753224,95.6580909 10.8024076,94.8909539 11.1529665,94.7089213 C11.3347377,94.6049027 11.8411006,94.4878818 12.2695615,94.4358725 C13.2303525,94.3188516 13.7107481,94.0848098 13.8016337,93.6947401 C13.9314703,93.2006518 14.8533104,92.3815055 15.2817713,92.4075101 C16.8917455,92.4725218 16.9826311,92.4595194 17.5019776,91.9004195 C17.9693895,91.4193336 18.0602752,91.3803266 18.7094583,91.3803266 C19.0989682,91.3803266 19.605331,91.4323359 19.839037,91.4973475 C20.1636285,91.6013661 20.2545142,91.5883638 20.2545142,91.4323359 C20.2545142,91.3283173 20.4622528,91.0162616 20.7219261,90.7432128 L21.1763543,90.2231199 L22.9031814,90.3011338 C24.4482373,90.3661454 24.6300086,90.3531431 24.7079106,90.1581082 C24.7598452,90.028085 24.7079106,89.7550362 24.5910576,89.5469991 C24.2794497,88.9228876 24.2015477,87.492632 24.461221,86.9855414 C24.8247635,86.283416 25.0974205,86.1793974 26.3568358,86.2964183 C26.9670679,86.3484276 27.5643164,86.4394438 27.7071367,86.5044555 C27.9148753,86.5954717 27.9408426,86.5694671 27.888908,86.2314067 C27.849957,86.0233695 27.7460877,85.6853091 27.6552021,85.4642696 C27.5383491,85.1652162 27.5253654,84.9441767 27.6422184,84.5411047 C27.772055,84.073021 27.849957,83.9820048 28.2264832,83.9169932 C28.7198624,83.8259769 28.9146174,83.6439444 28.9535684,83.2538747 C29.005503,82.7987934 28.966552,82.6947748 28.7068788,82.6037585 C28.5770421,82.5647516 28.3043852,82.382719 28.1226139,82.2136888 C27.6941531,81.8106168 27.6811694,81.2905239 28.1096303,80.2633404 C28.3563199,79.6392289 28.5380911,79.4051871 29.0184867,79.0931313 C29.4858985,78.7810756 29.7585555,78.4560175 30.2649183,77.5328525 C30.6154772,76.8957387 30.9660361,76.1286016 31.0309544,75.8425505 C31.1607911,75.2314414 31.8099742,74.5943275 33.0174549,73.8922021 C33.4588994,73.6321556 34.0950989,73.2420859 34.4326741,73.0210464 C34.7962167,72.7870046 35.2895959,72.6049721 35.6271711,72.5659651 C36.1205503,72.5009535 36.2244196,72.4359419 36.3672399,72.1108838 C36.7307825,71.2397282 37.1592433,71.1617142 38.327773,71.7468188 L39.1067928,72.1498908 L39.0288908,71.7988281 C38.9769561,71.6037932 38.8211522,71.2787351 38.6783319,71.0837003 C38.366724,70.6416213 38.366724,70.3685725 38.6783319,69.6534447 C39.0678418,68.7432821 39.2755804,67.6250823 39.0938091,67.4170452 C39.0159071,67.3130266 38.9639725,66.9099546 38.9769561,66.5068826 C38.9899398,66.1038105 38.9639725,65.7397455 38.9120378,65.6877362 C38.7562339,65.518706 38.405675,65.9737873 38.1849527,66.6239035 C38.0421324,67.0269755 37.8084265,67.3780382 37.4968186,67.6250823 C37.0294067,68.0021497 37.0034394,68.0021497 36.6788478,67.7941125 C36.2374033,67.4950591 36.2633706,67.0529801 36.8086844,65.999792 C37.0423904,65.518706 37.28908,64.9205991 37.3410146,64.6605527 C37.4059329,64.2834853 37.4708512,64.2054714 37.7564918,64.2054714 L38.0810834,64.2054714 L37.8084265,63.9064179 C37.4708512,63.5423529 37.4578676,63.3213134 37.7564918,62.9572484 C38.0551161,62.5931833 38.3537403,62.4501578 39.1587274,62.2681252 C39.6910576,62.138102 39.9507309,61.9690718 40.5349957,61.3709649 C41.4178848,60.4478 41.950215,59.7586769 42.3137575,59.0435491 C42.5993981,58.4844492 43.0408426,56.8071495 42.9239897,56.703131 C42.8980224,56.6771263 42.833104,56.8461565 42.7811694,57.0801983 C42.7292347,57.3142401 42.5604471,57.7433168 42.3916595,58.0293679 C42.0670679,58.6014701 40.3532244,60.2657675 39.4313844,60.9158836 C38.444626,61.6050068 38.366724,61.3969696 38.1589854,57.6392982 C38.0940671,56.4300822 37.9772141,54.5837523 37.8993121,53.5435665 C37.8084265,52.5033806 37.7564918,51.2551576 37.7564918,50.7740716 C37.7694755,50.1109532 37.7045572,49.7468881 37.5098022,49.3568184 C37.0034394,48.3556395 37.4059329,47.9525675 38.405675,48.4596581 C38.9899398,48.7587116 39.0808255,48.7197046 39.0808255,48.1866093 C39.0808255,47.9005582 39.0288908,47.8225443 38.7951849,47.8225443 C38.6263972,47.8225443 38.2628547,47.6795187 37.9772141,47.5234909 C37.4838349,47.2504421 37.4578676,47.1854305 37.3669819,46.4573004 C37.3150473,46.0282237 37.1852107,45.274089 37.0813414,44.7669984 C36.9774721,44.2729101 36.8216681,42.9206685 36.7437661,41.7764641 C36.5879622,39.4100413 36.133534,36.9526022 35.2116939,33.5980028 C34.3937231,30.6074685 33.666638,29.3982525 32.4591574,29.0471898 C31.8878762,28.8781596 31.8748925,28.8521549 31.9008598,28.3840713 C31.9527945,27.6689435 32.1345658,27.5129156 32.7837489,27.6169342 C33.3290628,27.6949482 33.3420464,27.6819458 33.4848667,27.2398669 C33.5757524,26.9798204 33.705589,26.7457786 33.7964746,26.7197739 C34.0561479,26.6287577 34.4067068,26.8758018 34.4067068,27.1488506 C34.4067068,27.2918761 34.4196905,27.4088971 34.4456578,27.4088971 C34.4586414,27.4088971 34.861135,27.2788738 35.3285469,27.1098436 C36.1205503,26.8237925 36.172485,26.7847855 36.0815993,26.4857321 C35.9517627,25.9786415 35.6920894,25.5495649 35.2895959,25.1724975 C35.0948409,24.990465 34.9260533,24.7694255 34.9260533,24.6914115 C34.9260533,24.470372 35.7959587,23.6382234 36.0296647,23.6382234 C36.1465176,23.6382234 36.4061909,23.7682466 36.6139295,23.9112721 L36.9904557,24.1973233 L37.4968186,23.7812489 C37.8733448,23.4951978 38.1460017,23.3781769 38.5095443,23.3781769 C38.8341359,23.3781769 39.0938091,23.2871606 39.2885641,23.1051281 C39.4573517,22.9360979 39.7949269,22.8060747 40.0805675,22.78007 C40.3532244,22.7670677 40.8336199,22.6500468 41.1452279,22.5460282 C41.4568358,22.4290073 41.8982803,22.3379911 42.1319862,22.3379911 C42.4306105,22.3379911 42.6902837,22.2079678 43.0927773,21.8178981 C43.3914015,21.5188447 43.7679278,21.2978052 43.9367154,21.2978052 C44.3521926,21.2978052 44.6248495,21.0377587 44.7546862,20.5176658 C44.8975064,19.9455636 45.261049,19.8675497 45.7803955,20.2966263 C46.0660361,20.5436705 46.2607911,20.5956798 46.6373173,20.5436705 C46.9878762,20.5046635 47.2215821,20.5696751 47.5072227,20.76471 L47.8967326,21.0377587 L48.5848667,20.3096287 C48.9613929,19.9065566 49.2989682,19.5424916 49.3379192,19.4904823 C49.3768702,19.438473 49.5716251,19.2694428 49.7793637,19.1134149 C50.2987102,18.7233452 51.1426483,18.7363476 52.0515047,19.1524219 L52.7656062,19.4904823 L53.2979364,18.9573871 C53.583577,18.6713359 53.8822012,18.4372941 53.9601032,18.4372941 C54.0380052,18.4372941 54.2327601,18.5803197 54.3885641,18.7493499 C54.6482373,19.0223987 54.739123,19.0484033 55.2065348,18.9313824 C55.5051591,18.8663708 56.2062769,18.8403661 56.7645744,18.8663708 C57.6734308,18.9053778 57.8292347,18.9573871 58.16681,19.2824451 C58.5822872,19.6855171 58.6731728,20.2056101 58.4264832,20.8557262 C58.3485813,21.0507611 58.3096303,21.2197913 58.3355976,21.2457959 C58.3615649,21.2718006 58.8419604,21.1027704 59.4132416,20.8557262 C60.0364574,20.5956798 60.7635426,20.4006449 61.2828891,20.3486356 C62.3994841,20.244617 62.4773861,20.2056101 62.7370593,19.6075032 C62.9058469,19.1914289 63.0226999,19.0874103 63.2953568,19.0874103 C63.4901118,19.0874103 63.7238177,19.1784265 63.827687,19.2824451 C64.0094583,19.4514753 64.0873603,19.438473 64.5417885,19.2174335 C64.8144454,19.074408 65.0481513,18.8663708 65.0481513,18.7753545 C65.0481513,18.6713359 65.2039553,18.4112895 65.3857266,18.19025 C65.8141874,17.6701571 66.3465176,17.6441524 66.7230439,18.1252384 C66.9567498,18.4242918 67.0216681,18.4502965 67.216423,18.2942686 C67.333276,18.19025 67.6838349,18.1122361 67.9954428,18.1122361 C68.5537403,18.1122361 68.5797077,18.0992337 68.7614789,17.5921431 C68.9042992,17.1760688 68.9172829,17.0070386 68.7874463,16.7729968 C68.5797077,16.3699248 68.7874463,16.057869 69.2808255,16.0448667 C69.4885641,16.0318644 69.9689596,15.8368295 70.3454858,15.5897854 C70.8907997,15.2387227 71.0206363,15.0956971 71.0206363,14.7966437 C71.0206363,14.1725322 71.3062769,14.0685136 72.2281169,14.3415624 C72.6695615,14.4715856 73.344712,14.7186297 73.7212382,14.9006623 L74.422356,15.212718 L75.2013758,14.809646 C75.8116079,14.4975902 76.1621668,14.406574 76.7074807,14.406574 C77.3177128,14.406574 77.4865004,14.3545647 77.7981083,14.0555113 L78.1616509,13.7044485 L78.5251935,13.9904996 C79.2263113,14.5495995 80.2650043,15.0826948 81.199828,15.3817482 C82.1346518,15.6808016 82.1995701,15.6808016 83.0954428,15.4987691 C84.5496131,15.1867134 84.744368,15.4337575 83.8874463,16.460941 C83.0045572,17.5271315 82.7968186,18.5803197 83.1733448,20.0495822 C83.3810834,20.8687285 83.3680997,22.1559585 83.1214101,23.6382234 C83.0045572,24.3403488 83.0045572,24.3663535 83.471969,24.8864464 C83.9263972,25.4065393 84.1601032,25.796609 84.3029235,26.2516903 C84.3548581,26.3947159 84.5885641,26.4857321 85.0429923,26.5377414 C85.4195185,26.5897507 85.822012,26.7067716 85.9518487,26.8237925 C86.0687016,26.9278111 86.3673259,27.0188274 86.6010318,27.0188274 C86.9645744,27.0188274 87.172313,27.1618529 87.8604471,27.8639784 C88.4836629,28.5140945 88.6784179,28.8001456 88.6784179,29.0861967 C88.6784179,29.5022711 89.1068788,29.7623175 89.366552,29.5022711 C89.600258,29.2682293 90.1715391,29.3462432 90.4701634,29.6582989 C90.6259673,29.8143268 90.8856406,30.2043965 91.0544282,30.5294546 C91.2621668,30.9195243 91.4699054,31.1275615 91.716595,31.1925731 C91.9243336,31.2445824 92.1840069,31.3876079 92.3138435,31.5046288 C92.5215821,31.6996637 92.5475494,31.673659 92.7033534,31.309594 C92.8072227,31.0755522 93.066896,30.8025034 93.3395529,30.6594778 C93.5992261,30.5294546 93.9757524,30.2434035 94.183491,30.022364 C94.5989682,29.580285 95.2481513,29.4762664 95.377988,29.8143268 C95.4429063,29.9703547 95.5078246,29.9443501 95.7155632,29.6713013 C96.2349097,29.0211851 97.0269132,29.0211851 97.533276,29.6582989 L97.7669819,29.9443501 L97.7669819,29.5932873 C97.7669819,29.138206 98.1305245,28.9301689 98.5589854,29.1512083 C98.8316423,29.2942339 98.9355116,29.2552269 99.4678418,28.8781596 C100.909028,27.850976 101.739983,27.8769807 102.077558,28.9821781 C102.15546,29.2682293 102.259329,29.4892687 102.311264,29.4892687 C102.441101,29.4892687 102.83061,29.0341874 102.83061,28.8781596 C102.83061,28.5010922 103.336973,28.3190597 104.791144,28.1890364 C105.596131,28.1240248 106.37515,28.0590132 106.504987,28.0590132 C106.803611,28.0590132 106.790628,27.7729621 106.453052,27.1358483 C106.154428,26.5247391 106.167412,25.9396345 106.492003,25.8746229 C106.62184,25.8486183 107.102236,25.9786415 107.569647,26.1736764 C108.543422,26.5637461 108.829063,26.5247391 109.153654,25.9526369 C109.283491,25.7445997 109.660017,25.4195416 109.984609,25.2635137 C110.659759,24.912451 112.191831,24.6003953 112.54239,24.7434208 C112.879966,24.8864464 116.658212,25.2245068 117.670937,25.1985021 C118.333104,25.1854998 118.644712,25.2375091 118.904385,25.4195416 C119.086156,25.5495649 119.540585,25.796609 119.904127,25.9786415 C120.254686,26.160674 120.55331,26.3687112 120.566294,26.4337228 C120.566294,26.5117368 120.618229,26.8627995 120.670163,27.2138622 C120.748065,27.7599598 120.825967,27.9029853 121.150559,28.0980202 C121.384265,28.2280434 121.630954,28.5270968 121.747807,28.8391526 C121.903611,29.2422246 122.020464,29.3592455 122.25417,29.3592455 C122.604729,29.3592455 123.552537,30.1523872 123.66939,30.5424569 C123.721324,30.6724801 124.006965,30.8935196 124.318573,31.0365452 C125.175494,31.4136126 125.90258,32.0507264 126.240155,32.7268472 C126.512812,33.2599424 126.590714,33.3249541 127.032158,33.363961 C127.707309,33.4159703 129.563972,34.3911446 129.745744,34.7812142 C129.849613,35.0022537 129.849613,35.2492979 129.745744,35.6133629 C129.615907,36.0944489 129.641874,36.1724628 129.914531,36.4845186 C130.940241,37.628723 131.511522,38.3828577 131.68031,38.837939 C131.875064,39.3450296 131.875064,39.3840366 131.615391,39.7090947 C131.459587,39.9171319 131.342734,40.2551923 131.342734,40.5932527 C131.329751,41.0223293 131.277816,41.1393502 131.070077,41.1653549 C130.914273,41.1913595 130.667584,41.0613363 130.485813,40.8663014 C130.252107,40.6192573 130.057352,40.5412434 129.641874,40.5412434 C129.356234,40.5412434 129.05761,40.4892341 128.979708,40.4112201 C128.746002,40.1771783 128.070851,40.2291876 127.681341,40.5022364 C127.473603,40.645262 127.071109,40.8402968 126.785469,40.9313131 C126.499828,41.0223293 125.980482,41.2303665 125.616939,41.3863944 C125.26638,41.5424222 124.811952,41.7504594 124.604213,41.8284734 C124.409458,41.9064873 124.188736,42.1275268 124.123818,42.3225616 C124.045916,42.5305988 123.877128,42.8946638 123.734308,43.1547103 C123.591488,43.4147568 123.474635,43.8308311 123.474635,44.0648729 C123.474635,44.3119171 123.357782,44.7409937 123.227945,45.0270448 C123.007223,45.5211331 123.007223,45.5601401 123.214961,45.8721958 C123.331814,46.0542284 123.56552,46.561319 123.734308,47.0164003 C124.019948,47.809542 124.032932,47.8225443 124.526311,47.8225443 C124.993723,47.8225443 125.032674,47.8485489 125.032674,48.1996117 C125.032674,48.4206512 124.889854,48.7457092 124.708083,48.9667487 C124.474377,49.2397975 124.383491,49.5128463 124.383491,49.8769113 C124.383491,50.5140252 124.253654,50.6310461 123.059157,50.9951111 C122.163285,51.2681599 122.098366,51.3071669 121.825709,51.8532644 C121.669905,52.1783225 121.540069,52.5813945 121.540069,52.7504247 C121.527085,52.9194549 121.319347,53.28352 121.072657,53.5565688 C120.488392,54.2066849 120.488392,54.4537291 121.04669,54.4537291 C121.293379,54.4537291 121.527085,54.492736 121.566036,54.5447453 C121.617971,54.5967546 121.981513,54.6097569 122.371023,54.5967546 C123.124076,54.5577477 123.227945,54.6227593 123.968014,55.5979335 C124.227687,55.9619985 124.292605,55.9750009 124.643164,55.8449776 C124.954772,55.7279567 125.058641,55.7409591 125.279364,55.9359939 C125.681857,56.3130613 125.993465,57.2232239 125.889596,57.8213307 C125.837661,58.1853958 125.863629,58.3674283 126.006449,58.4844492 C126.357008,58.7835027 126.214187,59.1085607 125.4092,59.7716792 C124.980739,60.1357443 124.578246,60.4347977 124.513328,60.4347977 C124.461393,60.4347977 124.34454,60.6168302 124.240671,60.8378697 C124.110834,61.1629278 124.110834,61.331958 124.227687,61.6440137 C124.422442,62.1641067 124.162769,62.5931833 123.578504,62.7492112 C123.227945,62.8402275 123.046174,63.0352623 122.604729,63.789397 L122.059415,64.712562 L122.345056,64.9205991 C122.50086,65.0246177 122.708598,65.115634 122.799484,65.115634 C123.072141,65.115634 124.643164,66.6759128 124.643164,66.9489615 C124.643164,67.3520336 124.149785,68.3402101 123.877128,68.4832357 C123.734308,68.5612496 123.448667,68.6262612 123.240929,68.6262612 C122.864402,68.6262612 122.864402,68.6262612 122.968272,69.1853611 C123.124076,70.0175098 123.124076,70.0565168 122.604729,70.2775563 C122.332072,70.3815748 122.085383,70.4985957 122.059415,70.5246004 C122.033448,70.550605 122.228203,70.8236538 122.487876,71.1487119 C123.098108,71.8898443 123.098108,72.3319233 122.526827,72.8910232 C122.189252,73.2160813 122.098366,73.3981138 122.150301,73.6711626 C122.215219,74.1132416 122.098366,74.2172602 120.955804,74.6723415 C119.956062,75.0624112 119.605503,75.0494088 118.488908,74.6203322 C118.125365,74.4773066 117.657954,74.3212787 117.463199,74.2822718 C117.25546,74.2432648 116.814015,73.9442114 116.47644,73.6321556 C115.749355,72.9560348 115.515649,72.9170278 115.217025,73.4111161 C115.087188,73.606151 114.853482,73.8791998 114.684695,74.0352276 L114.373087,74.3082764 L114.840499,74.9843972 C115.320894,75.7125273 115.372829,75.9075622 115.16509,76.2976318 C115.061221,76.4926667 115.178074,76.6226899 115.905159,77.1297805 C116.645228,77.6368711 117.528117,78.5210291 117.865692,79.0931313 C117.917627,79.1841476 118.138349,79.3271731 118.346088,79.4311917 C118.670679,79.5872196 118.748581,79.7042405 118.774549,80.1203148 C118.8135,80.6274054 118.475924,81.6285843 118.255202,81.6285843 C118.203267,81.6285843 118.151333,81.6805936 118.151333,81.7326029 C118.151333,81.7846122 118.644712,81.9926494 119.24196,82.1876842 C120.046948,82.4477307 120.540327,82.7077771 121.072657,83.1498561 C121.747807,83.708956 121.799742,83.7999723 121.747807,84.1770396 C121.682889,84.5411047 121.747807,84.6451233 122.202236,85.0091883 C122.513844,85.2562324 122.864402,85.7373184 123.072141,86.1533927 C123.604471,87.2845948 123.617455,87.2975972 124.214703,87.453625 C124.669132,87.5836483 124.773001,87.6616622 124.773001,87.9217087 C124.773001,88.2727714 124.331556,88.6108318 123.734308,88.740855 C123.27988,88.8318713 123.292863,88.779862 123.539553,89.4039735 C123.851161,90.1581082 124.357524,90.4831663 125.084609,90.3921501 C125.720808,90.3011338 125.79871,90.2101175 125.487102,89.9500711 C125.240413,89.7420339 125.240413,89.5079921 125.474119,89.3129572 C125.603955,89.1959363 125.993465,89.182934 126.785469,89.2479456 C127.824162,89.3259596 127.953998,89.3779689 128.525279,89.8330502 C128.927773,90.1321036 129.226397,90.5221733 129.369218,90.8602337 L129.58994,91.4063313 L130.148237,91.3283173 C130.862339,91.2112964 131.057094,91.4193336 130.927257,92.1084567 C130.862339,92.4465171 130.628633,92.8235845 130.200172,93.2786658 L129.576956,93.9417843 L129.849613,94.5788981 C129.992433,94.9299608 130.135254,95.4630561 130.148237,95.7621095 C130.174205,96.0611629 130.342992,96.5682535 130.537747,96.9063139 C130.940241,97.6474463 130.953224,97.7904719 130.602666,98.3495718 C130.330009,98.7916508 130.278074,99.2207274 130.330009,100.507957 C130.355976,101.210083 130.394927,101.301099 130.992175,101.964218 C131.43362,102.445304 131.667326,102.835373 131.732244,103.173434 C131.771195,103.446482 131.926999,103.862557 132.056836,104.096599 C132.238607,104.408654 132.303525,104.759717 132.290542,105.331819 C132.277558,105.942928 132.342476,106.280989 132.576182,106.723068 C133.056578,107.672237 134.264058,109.349537 134.913242,109.973649 C135.601376,110.636767 136.120722,111.598939 136.653052,113.263236 C137.107481,114.654485 137.055546,114.745501 135.75718,114.875524 C135.082029,114.940536 134.783405,115.031552 134.497764,115.278596 C134.19914,115.525641 134.030353,115.57765 133.692777,115.512638 C132.731986,115.330606 131.810146,115.369613 130.745486,115.629659 C129.706793,115.889706 129.641874,115.928713 129.525021,116.318782 C129.460103,116.552824 129.265348,116.890885 129.096561,117.072917 C128.758985,117.436982 128.642132,117.436982 127.512554,116.903887 C126.96724,116.656843 126.694583,116.604833 126.279106,116.656843 C125.993465,116.708852 125.51307,116.760861 125.227429,116.773864 C124.708083,116.799868 124.136801,117.124926 123.539553,117.723033 C123.370765,117.892063 123.17601,118.035089 123.124076,118.035089 C122.812468,118.022087 122.020464,117.658022 121.86466,117.436982 C121.682889,117.20294 121.669905,117.20294 121.423216,117.42398 C121.293379,117.541001 121.098624,117.892063 121.007739,118.204119 C120.761049,119.036268 120.514359,119.465344 120.163801,119.621372 C119.943078,119.725391 119.813242,119.907423 119.761307,120.232482 C119.722356,120.492528 119.657438,120.804584 119.618487,120.934607 C119.540585,121.23366 118.099398,121.935786 117.593035,121.935786 C117.39828,121.935786 116.930868,122.117818 116.554342,122.325856 C116.164832,122.546895 115.710404,122.715925 115.541617,122.715925 C115.359845,122.715925 114.840499,122.455879 114.399054,122.130821 C113.736887,121.675739 113.529149,121.584723 113.334394,121.688742 C113.191574,121.753753 113.087704,121.870774 113.087704,121.935786 C113.087704,122.286849 112.64626,122.455879 111.685469,122.455879 C110.854514,122.455879 110.659759,122.494886 110.400086,122.728928 C110.088478,123.027981 109.647034,123.092993 108.984867,122.936965 C108.504471,122.819944 107.972141,123.171007 107.712468,123.821123 C107.387876,124.601262 106.530954,125.09535 106.258298,124.653271 C106.206363,124.562255 106.102494,124.666274 105.998624,124.900316 C105.868788,125.212371 105.712984,125.329392 105.297506,125.446413 C104.972915,125.537429 104.583405,125.771471 104.336715,126.031518 C103.882287,126.525606 102.648839,127.136715 102.142476,127.136715 C101.804901,127.136715 101.791917,127.175722 101.791917,127.773829 C101.791917,128.137894 101.856836,128.462952 101.934738,128.514961 C102.142476,128.644985 101.986672,129.776187 101.701032,130.257273 C101.48031,130.647342 101.48031,130.673347 101.752966,131.206442 C102.103525,131.908568 102.220378,132.584688 102.038607,132.805728 C101.947721,132.909747 101.636113,132.98776 101.311522,132.98776 C100.779192,132.98776 100.662339,132.922749 100.091058,132.350647 C99.5457438,131.791547 99.4548581,131.635519 99.4548581,131.180438 C99.4548581,130.595333 99.1172829,130.257273 98.5330181,130.257273 C98.3382631,130.257273 97.8708512,130.049235 97.494325,129.802191 C96.7282889,129.282098 96.572485,129.282098 95.261135,129.776187 C94.4950989,130.062238 94.4950989,130.062238 94.5600172,130.530321 C94.5989682,130.790368 94.7417885,131.128428 94.8975924,131.284456 C95.0533964,131.440484 95.1702494,131.726535 95.1702494,131.92157 C95.1702494,132.298637 94.8326741,132.727714 94.5470335,132.727714 C94.4561479,132.727714 94.3912296,132.87074 94.3912296,133.03977 C94.3912296,133.572865 94.6249355,134.027946 94.9754944,134.15797 C95.4558899,134.340002 95.3909716,134.730072 94.8196905,135.081134 C94.5470335,135.237162 94.1185727,135.601227 93.8588994,135.874276 L93.4044712,136.355362 L91.91135,136.355362 C90.8986242,136.355362 90.3403267,136.290351 90.1585555,136.17333 C89.8988822,136.004299 89.8729149,136.030304 89.7300946,136.693423 C89.5353396,137.551576 88.9251075,138.500745 88.2759243,138.929822 C87.7695615,139.267883 86.7178848,139.384903 86.1206363,139.176866 C85.8869304,139.08585 85.7700774,139.163864 85.4325021,139.631948 C85.1338779,140.061024 85.0429923,140.282064 85.1079106,140.529108 C85.3935512,141.66031 85.3935512,141.647308 84.4846948,142.21941 C83.9393809,142.570473 83.6147893,142.856524 83.5628547,143.064561 C83.4460017,143.50664 83.0175408,143.584654 82.1995701,143.311605 C81.6023216,143.11657 81.160877,142.752505 80.9661221,142.310426 C80.9012038,142.141396 80.3299226,142.7265 79.7586414,143.558649 C79.4989682,143.922714 79.2782459,144.078742 78.8368014,144.195763 L78.2525365,144.338789 L78.3434222,145.456988 C78.4213242,146.497174 78.4083405,146.601193 78.1097163,147.043272 C77.9409286,147.303318 77.7461737,147.732395 77.694239,148.018446 C77.655288,148.291495 77.5514187,148.603551 77.4735168,148.694567 C77.2787618,148.941611 76.8373173,148.876599 76.4088564,148.512534 Z" id="Path"></path>
                        <path d="M148.559071,23.8982698 C147.948839,23.8072536 147.767068,23.625221 147.741101,23.1181304 C147.741101,22.9360979 147.70215,22.0389376 147.676182,21.1157727 C147.650215,20.1926077 147.59828,19.399466 147.559329,19.3734614 C147.520378,19.3344544 147.364574,19.3734614 147.195787,19.438473 C146.832244,19.6075032 146.092175,19.4644777 145.014531,19.0093963 C144.612038,18.8403661 144.170593,18.6973406 144.040757,18.6973406 C143.742132,18.6973406 142.547635,18.151243 142.041273,17.787178 C141.846518,17.6441524 141.586844,17.5271315 141.495959,17.5271315 C141.106449,17.5271315 140.872743,17.0720502 140.872743,16.3179155 C140.872743,15.693804 140.820808,15.5637807 140.535168,15.3297389 C140.353396,15.1867134 140.093723,15.0306855 139.950903,14.9916785 C139.769132,14.9266669 139.704213,14.7836413 139.704213,14.4715856 C139.704213,14.0685136 139.743164,14.0165043 140.210576,13.8864811 C140.483233,13.8214694 140.781857,13.6654416 140.885727,13.5484207 C141.028547,13.3793905 141.00258,13.3663881 140.703955,13.4313997 C140.288478,13.5484207 139.704213,13.0283277 139.704213,12.5342395 C139.704213,11.9361326 140.587102,10.7269165 141.392089,10.2328283 C141.547893,10.141812 141.521926,10.0637981 141.197334,9.79074928 C140.989596,9.60871676 140.665004,9.38767727 140.483233,9.296661 C140.067756,9.08862383 140.028805,8.8415797 140.353396,8.3344891 C140.587102,7.93141708 140.652021,7.90541243 141.327171,7.90541243 C141.716681,7.90541243 142.041273,7.85340314 142.041273,7.78839153 C142.041273,7.72337991 141.976354,7.37231719 141.898452,7.02125446 C141.768616,6.46215457 141.690714,6.35813599 141.379106,6.29312437 C141.119433,6.24111508 141.00258,6.13709649 141.00258,5.98106862 C141.00258,5.56499428 141.43104,5.30494782 142.080224,5.30494782 C142.74239,5.30494782 142.98908,5.09691065 142.625537,4.83686419 C142.495701,4.7328456 142.378848,4.43379217 142.339897,4.08272945 C142.274979,3.56263652 142.326913,3.43261329 142.74239,2.86051108 C143.23577,2.17138795 143.417541,2.05436705 143.962855,2.05436705 C144.15761,2.05436705 144.560103,1.93734614 144.871711,1.79432059 C145.339123,1.58628342 145.481943,1.41725322 145.741617,0.832148677 C145.975322,0.286051108 146.14411,0.0910162616 146.403783,0.0260046462 C146.871195,-0.0910162616 147.364574,0.312055754 147.559329,0.962171908 C147.637231,1.24822302 147.870937,1.71630665 148.052709,2.00235775 C148.247463,2.27540654 148.403267,2.57445997 148.403267,2.65247391 C148.403267,2.73048785 148.52012,2.95152734 148.675924,3.14656219 C148.870679,3.39360632 148.935598,3.61464582 148.883663,3.91369925 C148.844712,4.18674803 148.896647,4.40778752 149.026483,4.5638154 C149.169304,4.7328456 149.247206,5.21393156 149.312124,6.31912902 L149.403009,7.84040082 L150.207997,9.42668423 C150.948065,10.9089491 151,11.0779793 151,11.8971256 C151,12.3782116 150.935082,13.3013765 150.870163,13.9384903 C150.766294,14.770639 150.779278,15.2257203 150.883147,15.5377761 C151.025967,15.9928574 150.85718,17.4491176 150.597506,17.9432059 C150.532588,18.0732291 150.480653,18.2682639 150.480653,18.3722825 C150.480653,18.4893034 150.337833,18.6453313 150.156062,18.7233452 C149.909372,18.8403661 149.844454,18.9313824 149.909372,19.1394196 C150.000258,19.438473 150.259931,19.9325613 150.506621,20.2706217 C150.61049,20.4266496 150.584523,20.6086821 150.376784,21.0507611 C150.22098,21.4018238 150.07816,22.012933 150.039209,22.5980375 C149.987274,23.3911792 149.922356,23.6122187 149.68865,23.8072536 C149.532846,23.9242745 149.351075,24.0152907 149.260189,24.0152907 C149.182287,24.0022884 148.857696,23.9502791 148.559071,23.8982698 Z" id="Path"></path>
                    </g>
                </g>
            </g>
        </g>
    </g>
</svg>