<?xml version="1.0" encoding="UTF-8"?>
<svg width="161px" height="132px" viewBox="0 0 161 132" version="1.1" xmlns="http://www.w3.org/2000/svg" xmlns:xlink="http://www.w3.org/1999/xlink">
    <!-- Generator: Sketch 52.5 (67469) - http://www.bohemiancoding.com/sketch -->
    <title>_Group_134</title>
    <desc>Created with Sketch.</desc>
    <g id="Page-1" stroke="none" stroke-width="1" fill="none" fill-rule="evenodd">
        <g id="_Group_134" transform="translate(1.000000, 1.000000)">
            <rect id="_Rectangle_38" fill="#fcaf3a" x="114.49" y="106.37" width="42.92" height="22.99" rx="2.51"></rect>
            <rect id="_Rectangle_39" fill="#fcaf3a" transform="translate(25.600000, 117.865000) rotate(180.000000) translate(-25.600000, -117.865000) " x="4.14" y="106.37" width="42.92" height="22.99" rx="2.51"></rect>
            <path d="M94.62,69.36 L66.13,69.36" id="_Path_611" stroke="#847B42" stroke-width="3" stroke-linecap="round" stroke-linejoin="round"></path>
            <path d="M0.51,59.73 L0.51,10.21 C0.51,7.66126953 1.52247924,5.21692843 3.32470383,3.41470383 C5.12692843,1.61247924 7.57126953,0.6 10.12,0.6 L148.12,0.6 C153.429076,0.599997132 157.734481,4.90092637 157.74,10.21 L157.74,56.65" id="_Path_612" stroke="#fcaf3a" stroke-width="3" stroke-linecap="round" stroke-linejoin="round"></path>
            <path d="M154.52,102.13 C155.900398,99.6243028 156.626138,96.8107695 156.63,93.95 L156.63,66.5 C156.667086,64.5937997 155.826496,62.7762069 154.35,61.57 C152.49,60.13 149.64,59.57 146.16,64.38 L146.16,59.87 C146.228126,57.3859496 144.567516,55.1856411 142.16,54.57 C141.661133,54.4612092 141.14882,54.4275044 140.64,54.47 C137.92,54.61 135.19,58.82 134.76,59.24 L134.76,54.5 C134.814689,52.2483127 133.35712,50.2380131 131.2,49.59 C130.684322,49.4580654 130.148985,49.420795 129.62,49.48 C127.743026,49.6616688 126.117848,50.8603816 125.39,52.6 C125.03,53.38 124.67,54.18 124.29,54.98 L124.29,33.3 C124.359493,30.5667259 122.494665,28.162519 119.83,27.55 C119.542383,27.5002575 119.251709,27.4701878 118.96,27.46 C118.418771,27.4240645 117.875275,27.4747008 117.35,27.61 C114.785749,28.2796005 113.023331,30.6308741 113.1,33.28 C113.1,41.86 113.1,50.43 113.1,58.99 C113.1,61.99 113.1,64.87 113.1,67.8 C113.131461,68.3768767 112.904175,68.9377599 112.48,69.33 C111.972745,69.729476 111.292518,69.8320802 110.69,69.6 L110.52,69.35 L107.25,64.71 C107.25,64.71 104.62,59.57 100.76,58.99 C100.737429,58.9815666 100.712571,58.9815666 100.69,58.99 C100.421502,58.9497222 100.148498,58.9497222 99.88,58.99 C99.0920359,59.1309201 98.4094268,59.6191919 98.0215098,60.3193821 C97.6335927,61.0195724 97.5816173,61.8572256 97.88,62.6 L100.66,69.35 L113.19,98.27 C113.838109,99.7698767 114.700426,101.167774 115.75,102.42" id="_Path_613" stroke="#fcaf3a" stroke-width="3" stroke-linecap="round" stroke-linejoin="round"></path>
            <rect id="_Rectangle_40" stroke="#fcaf3a" stroke-width="3" stroke-linecap="round" stroke-linejoin="round" x="114.49" y="106.37" width="42.92" height="22.99" rx="2.51"></rect>
            <path d="M7.06,102.13 C5.67960203,99.6243028 4.95386176,96.8107695 4.95,93.95 L4.95,66.5 C4.91291357,64.5937997 5.75350416,62.7762069 7.23,61.57 C9.09,60.13 11.94,59.57 15.42,64.38 L15.42,59.87 C15.3518737,57.3859496 17.0124839,55.1856411 19.42,54.57 C19.9188668,54.4612092 20.4311801,54.4275044 20.94,54.47 C23.66,54.61 26.39,58.82 26.82,59.24 L26.82,54.5 C26.7653107,52.2483127 28.2228802,50.2380131 30.38,49.59 C30.8956775,49.4580654 31.4310153,49.420795 31.96,49.48 C33.8353441,49.6659142 35.4585772,50.8631926 36.19,52.6 C36.55,53.38 36.91,54.18 37.29,54.98 L37.29,33.3 C37.2205072,30.5667259 39.0853354,28.162519 41.75,27.55 C42.0376169,27.5002575 42.3282913,27.4701878 42.62,27.46 C43.1612218,27.4245753 43.7046373,27.4752041 44.23,27.61 C46.7942506,28.2796005 48.5566691,30.6308741 48.48,33.28 C48.48,41.86 48.48,50.43 48.48,58.99 C48.48,61.99 48.48,64.87 48.48,67.8 C48.4485392,68.3768767 48.6758253,68.9377599 49.1,69.33 C49.6064228,69.7313949 50.2877115,69.8341591 50.89,69.6 L51.06,69.35 L54.33,64.71 C54.33,64.71 56.95,59.57 60.82,58.99 C60.8425713,58.9815666 60.8674287,58.9815666 60.89,58.99 C61.1585089,58.9498708 61.4314911,58.9498708 61.7,58.99 C62.4879641,59.1309201 63.1705732,59.6191919 63.5584902,60.3193821 C63.9464073,61.0195724 63.9983827,61.8572256 63.7,62.6 L60.92,69.35 L48.39,98.27 C47.7418912,99.7698767 46.8795738,101.167774 45.83,102.42" id="_Path_614" stroke="#fcaf3a" stroke-width="3" stroke-linecap="round" stroke-linejoin="round"></path>
            <rect id="_Rectangle_41" stroke="#fcaf3a" stroke-width="3" stroke-linecap="round" stroke-linejoin="round" transform="translate(25.600000, 117.865000) rotate(180.000000) translate(-25.600000, -117.865000) " x="4.14" y="106.37" width="42.92" height="22.99" rx="2.51"></rect>
            <polygon id="_Path_615" fill="#CECE7A" points="22.99 17.43 22.99 21.34 14.01 21.34 14.01 12.37 19.15 12.37 22.99 12.37"></polygon>
            <polygon id="_Path_616" fill="#CECE7A" points="47.17 17.43 47.17 21.34 38.2 21.34 38.2 12.37 43.33 12.37 47.17 12.37"></polygon>
            <polygon id="_Path_617" fill="#CECE7A" points="144.2 17.43 144.2 21.34 135.22 21.34 135.22 12.37 140.36 12.37 144.2 12.37"></polygon>
            <polygon id="_Path_618" fill="#CECE7A" points="72.08 17.43 72.08 21.34 63.1 21.34 63.1 12.37 68.24 12.37 72.17 12.37"></polygon>
            <polygon id="_Path_619" fill="#CECE7A" points="99.11 17.43 99.11 21.34 90.13 21.34 90.13 12.37 95.27 12.37 99.11 12.37"></polygon>
            <polygon id="_Path_620" fill="#CECE7A" points="72.08 38.06 72.08 41.97 63.1 41.97 63.1 32.99 68.24 32.99 72.17 32.99"></polygon>
            <polygon id="_Path_621" fill="#CECE7A" points="99.11 38.06 99.11 41.97 90.13 41.97 90.13 32.99 95.27 32.99 99.11 32.99"></polygon>
            <polygon id="_Path_622" fill="#CECE7A" points="85.61 54.92 85.61 58.83 76.63 58.83 76.63 49.86 81.77 49.86 85.61 49.86"></polygon>
            <polygon id="_Path_623" fill="#CECE7A" points="121.87 17.43 121.87 21.34 112.89 21.34 112.89 12.37 118.03 12.37 121.87 12.37"></polygon>
            <polygon id="_Path_624" fill="#CECE7A" points="19.15 32.99 14.01 32.99 14.01 41.97 22.99 41.97 22.99 38.06 22.99 32.99"></polygon>
            <polygon id="_Path_625" fill="#CECE7A" points="144.2 38.06 144.2 41.97 135.22 41.97 135.22 32.99 140.36 32.99 144.2 32.99"></polygon>
            <g id="_Group_135" transform="translate(63.000000, 91.000000)" stroke="#847B42" stroke-linecap="round" stroke-linejoin="round" stroke-width="3">
                <path d="M19.54,36.09 C16.6169413,36.0923632 13.8289062,34.8597836 11.863402,32.6962052 C9.89789774,30.5326269 8.93785043,27.6394105 9.22,24.73 L10.07,15.73 C10.5485836,10.8078413 14.6846302,7.05251862 19.63,7.05 C24.6424153,7.05113707 28.8084503,10.9121277 29.19,15.91 L29.88,24.91 C30.1058432,27.7925166 29.1179981,30.6384343 27.1548033,32.761115 C25.1916084,34.8837957 22.4313504,36.0904692 19.54,36.09 Z" id="_Path_626"></path>
                <path d="M23.89,8.09 C24.9004304,6.27112287 24.6788381,4.01660584 23.3336166,2.42926134 C21.988395,0.841916841 19.8007499,0.253564046 17.8407828,0.951999751 C15.8808157,1.65043546 14.5582389,3.48965836 14.52,5.57 C14.5235653,6.48225555 14.7722383,7.37678748 15.24,8.16" id="_Path_627"></path>
                <path d="M19.54,36.09 L19.54,17.95" id="_Path_628"></path>
                <polyline id="_Path_629" points="15.16 8.16 8.4 8.16 5.07 4.93"></polyline>
                <polyline id="_Path_630" points="9.98 15.91 5.69 15.91 0.9 12.25"></polyline>
                <polyline id="_Path_631" points="9.17 25.83 4.89 25.83 2.1 30.28"></polyline>
                <polyline id="_Path_632" points="11.81 32.63 9.17 35.1 6.94 38.36"></polyline>
                <polyline id="_Path_633" points="24.11 8.16 30.87 8.16 34.2 4.93"></polyline>
                <polyline id="_Path_634" points="29.29 15.91 33.58 15.91 38.37 12.25"></polyline>
                <polyline id="_Path_635" points="30.1 25.83 34.38 25.83 37.17 30.28"></polyline>
                <polyline id="_Path_636" points="27.46 32.63 30.1 35.1 32.33 38.36"></polyline>
            </g>
            <path d="M82.56,69.36 L82.56,91.54" id="_Path_637" stroke="#847B42" stroke-width="3" stroke-linecap="round" stroke-linejoin="round"></path>
        </g>
    </g>
</svg>