<?xml version="1.0" encoding="UTF-8"?>
<svg width="159px" height="136px" viewBox="0 0 159 136" version="1.1" xmlns="http://www.w3.org/2000/svg" xmlns:xlink="http://www.w3.org/1999/xlink">
    <!-- Generator: Sketch 52.5 (67469) - http://www.bohemiancoding.com/sketch -->
    <title>Group-38</title>
    <desc>Created with Sketch.</desc>
    <g id="Page-1" stroke="none" stroke-width="1" fill="none" fill-rule="evenodd">
        <g id="Group-38" transform="translate(2.000000, 2.000000)">
            <g id="_Group_105" transform="translate(10.000000, 10.000000)" fill="#E0C79B">
                <path d="M107.73,34.62 L107.67,34.62 C104.767191,35.8889705 101.375488,34.7410759 99.84,31.97 C88.0821892,10.6084727 62.6304949,0.843418776 39.6017954,8.85840228 C16.5730959,16.8733858 2.68420991,40.3306633 6.73005237,64.3762891 C10.7758948,88.4219149 31.5764081,106.042462 55.96,106.08 C57.54,106.08 59.12,106.01 60.69,105.86 C63.7958377,105.590402 66.6148279,107.679973 67.26,110.73 L67.26,110.94 C38.3233432,116.867879 9.75785115,99.3014668 1.99168603,70.8031065 C-5.77447909,42.3047462 9.92929585,12.6743965 37.8727033,3.10173555 C65.8161108,-6.47092536 96.3900284,7.30592986 107.73,34.58 L107.73,34.62 Z" id="_Path_459"></path>
            </g>
            <g id="_Group_106" transform="translate(82.000000, 49.000000)">
                <path d="M36.45,77.2 C30.7904079,77.1971851 25.3942559,74.8084852 21.5872018,70.6207256 C17.7801477,66.4329661 15.9150129,60.8342506 16.45,55.2 L18.12,37.85 C19.0275673,28.312057 27.0389754,21.0281713 36.62,21.03 C46.3339951,21.0329718 54.4079954,28.514385 55.15,38.2 L56.49,55.58 C56.9130697,61.15852 54.9920102,66.6609653 51.1888407,70.7639856 C47.3856712,74.8670058 42.0445395,77.1993195 36.45,77.2 Z" id="_Path_460" stroke="#3B6D96" stroke-width="3" stroke-linecap="round" stroke-linejoin="round"></path>
                <path d="M36.45,73.2 C31.9175939,73.1954558 27.5973101,71.2795116 24.5513261,67.9232179 C21.5053421,64.5669243 20.0161936,60.0816003 20.45,55.57 L22.12,38.22 C22.8164434,30.6643147 29.1915675,24.9058055 36.77893,24.9789116 C44.3662925,25.0520176 50.6292741,30.9322979 51.18,38.5 L52.52,55.88 C52.8589461,60.3397871 51.327412,64.7395821 48.2924431,68.0249359 C45.2574742,71.3102897 40.9926237,73.1850811 36.52,73.2 L36.45,73.2 Z" id="_Path_461" fill="#9ABFE2"></path>
                <path d="M44.87,22.97 C47.2600349,18.8651843 46.3369726,13.6346174 42.6862746,10.5958377 C39.0355765,7.55705795 33.7243456,7.59830407 30.1212824,10.6934153 C26.5182191,13.7885264 25.6765026,19.0327984 28.13,23.1" id="_Path_462" stroke="#3B6D96" stroke-width="3" stroke-linecap="round" stroke-linejoin="round"></path>
                <path d="M36.45,77.2 L36.45,42.06" id="_Path_463" stroke="#3B6D96" stroke-width="3" stroke-linecap="round" stroke-linejoin="round"></path>
                <polyline id="_Path_464" stroke="#3B6D96" stroke-width="3" stroke-linecap="round" stroke-linejoin="round" points="27.98 23.1 14.88 23.1 8.42 16.84"></polyline>
                <polyline id="_Path_465" stroke="#3B6D96" stroke-width="3" stroke-linecap="round" stroke-linejoin="round" points="17.93 38.11 9.63 38.11 0.34 31.01"></polyline>
                <polyline id="_Path_466" stroke="#3B6D96" stroke-width="3" stroke-linecap="round" stroke-linejoin="round" points="16.36 57.32 8.08 57.32 2.67 65.94"></polyline>
                <polyline id="_Path_467" stroke="#3B6D96" stroke-width="3" stroke-linecap="round" stroke-linejoin="round" points="21.47 70.49 16.36 75.27 12.05 81.6"></polyline>
                <polyline id="_Path_468" stroke="#3B6D96" stroke-width="3" stroke-linecap="round" stroke-linejoin="round" points="45.3 23.1 58.39 23.1 64.86 16.84"></polyline>
                <polyline id="_Path_469" stroke="#3B6D96" stroke-width="3" stroke-linecap="round" stroke-linejoin="round" points="55.34 38.11 63.64 38.11 72.93 31.01"></polyline>
                <polyline id="_Path_470" stroke="#3B6D96" stroke-width="3" stroke-linecap="round" stroke-linejoin="round" points="56.91 57.32 65.19 57.32 70.6 65.94"></polyline>
                <polyline id="_Path_471" stroke="#3B6D96" stroke-width="3" stroke-linecap="round" stroke-linejoin="round" points="51.8 70.49 56.91 75.27 61.22 81.6"></polyline>
                <path d="M30.6,10.23 C28.4016546,7.16579178 28.6825342,2.97355886 31.27,0.23" id="_Path_472" stroke="#3B6D96" stroke-width="3" stroke-linecap="round" stroke-linejoin="round"></path>
                <path d="M42.31,10.23 C44.5043236,7.16464638 44.2236327,2.97523055 41.64,0.23" id="_Path_473" stroke="#3B6D96" stroke-width="3" stroke-linecap="round" stroke-linejoin="round"></path>
            </g>
            <g id="_Group_107" stroke-linecap="round" stroke-linejoin="round" transform="translate(50.000000, 50.000000)" stroke="#3B6D96" stroke-width="3">
                <path d="M0.62,12.26 C1.8984031,6.85864864 5.90099195,2.51493005 11.18,0.8" id="_Path_474"></path>
                <path d="M11.91,31.39 C11.5,31.27 11.09,31.15 10.69,31 C5.75220709,29.1984694 2.01417681,25.0866361 0.69,20" id="_Path_475"></path>
                <path d="M31.37,12.26 C30.0862362,6.86149929 26.0857294,2.52004019 20.81,0.8" id="_Path_476"></path>
                <path d="M20.06,31.39 C20.47,31.27 20.87,31.15 21.27,31 C26.2077929,29.1984694 29.9458232,25.0866361 31.27,20" id="_Path_477"></path>
            </g>
            <path d="M66.18,74.3 C62.0823936,74.2927173 58.5955529,71.3131988 57.9493323,67.2668634 C57.3031117,63.220528 59.6884881,59.3031861 63.58,58.02 C64.4205839,57.7522353 65.2978029,57.6172785 66.18,57.62 C70.7860548,57.62 74.52,61.3539452 74.52,65.96 C74.52,70.5660548 70.7860548,74.3 66.18,74.3 Z" id="_Path_478" stroke="#3B6D96" stroke-width="3" stroke-linecap="round" stroke-linejoin="round"></path>
            <path d="M65.91,57.63 L65.91,43.98" id="_Path_480" stroke="#3B6D96" stroke-width="3" stroke-linecap="round" stroke-linejoin="round"></path>
            <path d="M65.98,88.18 L65.98,74.31" id="_Path_481" stroke="#3B6D96" stroke-width="3" stroke-linecap="round" stroke-linejoin="round"></path>
            <polyline id="_Path_482" stroke="#3B6D96" stroke-width="3" stroke-linecap="round" stroke-linejoin="round" points="74.51 65.96 82.99 65.96 85.73 65.96"></polyline>
            <path d="M57.84,65.96 L44.07,65.96" id="_Path_483" stroke="#3B6D96" stroke-width="3" stroke-linecap="round" stroke-linejoin="round"></path>
            <path d="M86.74,128.43 C52.6564729,139.813919 15.7476424,121.721271 3.86926127,87.8069013 C-8.00911987,53.8925314 9.5448605,16.7244882 43.2829002,4.35415684 C77.02094,-8.01617448 114.440335,8.99542603 127.3,42.55" id="_Path_484" stroke="#3B6D96" stroke-width="3" stroke-linecap="round" stroke-linejoin="round"></path>
            <path d="M76.98,119.86 C48.6173864,125.684678 20.6067992,108.480917 12.9765456,80.5498603 C5.34629194,52.6188032 20.7197027,23.5633285 48.1043844,14.1588654 C75.4890662,4.75440232 105.469987,18.2342664 116.61,44.96" id="_Path_485" stroke="#3B6D96" stroke-width="3" stroke-linecap="round" stroke-linejoin="round"></path>
        </g>
    </g>
</svg>