<?xml version="1.0" encoding="UTF-8"?>
<svg width="193px" height="117px" viewBox="0 0 193 117" version="1.1" xmlns="http://www.w3.org/2000/svg" xmlns:xlink="http://www.w3.org/1999/xlink">
    <!-- Generator: Sketch 52.5 (67469) - http://www.bohemiancoding.com/sketch -->
    <title>_Group_145</title>
    <desc>Created with Sketch.</desc>
    <g id="Page-1" stroke="none" stroke-width="1" fill="none" fill-rule="evenodd">
        <g id="_Group_145" transform="translate(2.000000, 1.000000)">
            <g id="_Group_146" transform="translate(78.000000, 2.000000)">
                <path d="M37.29,0.82 C22.5747542,0.815955127 9.3062173,9.67709258 3.67213358,23.2710462 C-1.96195015,36.8649999 1.14809941,52.5143264 11.5519195,62.9210071 C21.9557396,73.3276877 37.6042106,76.4420394 51.1997126,70.811693 C64.7952146,65.1813467 73.6599994,51.9152464 73.66,37.2 C73.6379661,17.1209178 57.3690754,0.847553938 37.29,0.82 Z M37.29,64.69 C26.1704238,64.694045 16.1435036,57.9988867 11.8854229,47.7268985 C7.62734222,37.4549103 9.97680095,25.6293314 17.8380987,17.7651729 C25.6993965,9.90101439 37.5241198,7.54725325 47.7976566,11.8015963 C58.0711933,16.0559394 64.7699993,26.080423 64.77,37.2 C64.770001,52.3784034 52.4684024,64.6844786 37.29,64.69 Z" id="_Compound_Path_26" fill="#FFEB99" fill-rule="nonzero"></path>
                <path d="M50.85,3.57 C37.1086192,-1.98729648 21.368336,1.37867368 11.1016233,12.0699646 C0.834910612,22.7612555 -1.89080964,38.6249474 4.218459,52.1299808 C10.3277276,65.6350142 24.0417534,74.0618622 38.85,73.41 C55.903394,72.6810409 70.1378942,60.154093 73.0283499,43.3316409 C75.9188056,26.5091888 66.6820307,9.94937573 50.85,3.57 Z" id="_Path_690" stroke="#847B42" stroke-width="3" stroke-linecap="round" stroke-linejoin="round"></path>
                <path d="M26.86,62.6 C18.6517238,59.2231459 12.579864,52.0896538 10.5576987,43.4473284 C8.53553347,34.8050029 10.8120855,25.7181166 16.67,19.05 C17.02,18.66 17.38,18.27 17.75,17.89 C18.12,17.51 18.25,17.39 18.51,17.16 C25.4983485,10.5839623 35.4133816,8.13458888 44.66,10.7" id="_Path_691" stroke="#847B42" stroke-width="3" stroke-linecap="round" stroke-linejoin="round"></path>
                <path d="M62.06,25.16 C67.1509532,35.6336081 65.0874615,48.1788363 56.91,56.47" id="_Path_692" stroke="#847B42" stroke-width="3" stroke-linecap="round" stroke-linejoin="round"></path>
                <path d="M71.85,63.89 L66.55,58.66" id="_Path_693" stroke="#847B42" stroke-width="3" stroke-linecap="round" stroke-linejoin="round"></path>
                <path d="M64.69,71.61 L59.15,66.15" id="_Path_694" stroke="#847B42" stroke-width="3" stroke-linecap="round" stroke-linejoin="round"></path>
                <path d="M95.7,105.67 L62.06,74.43 L74.34,61.2 L107.97,92.44 C109.731356,94.0657238 110.771441,96.3268964 110.85967,98.7222183 C110.947899,101.11754 110.076982,103.449102 108.44,105.2 C106.814943,106.955285 104.557975,107.991443 102.167565,108.079629 C99.777155,108.167815 97.4499743,107.300775 95.7,105.67 Z" id="_Path_695" stroke="#847B42" stroke-width="3" stroke-linecap="round" stroke-linejoin="round"></path>
                <path d="M106.6,103.26 L70.12,69.68 L74.49,64.97 L106.16,94.4 C108.682034,96.7467562 108.877111,100.674912 106.6,103.26 Z" id="_Path_696" fill="#CECE7A"></path>
                <g id="_Group_147" transform="translate(22.000000, 19.000000)" stroke="#847B42" stroke-linecap="round" stroke-linejoin="round" stroke-width="3">
                    <path d="M15.77,33.27 C13.3394417,33.2700148 11.0218311,32.2439057 9.3879984,30.4444046 C7.75416568,28.6449036 6.95596713,26.2392648 7.19,23.82 L7.9,16.38 C8.30049619,12.2917592 11.7322045,9.17123853 15.84,9.16 C20.0235017,9.14700923 23.5105678,12.3594689 23.84,16.53 L24.41,23.99 C24.5913697,26.3909355 23.7614669,28.758474 22.1207636,30.5207109 C20.4800603,32.2829478 18.1777569,33.2796307 15.77,33.27 Z" id="_Path_697"></path>
                    <path d="M19.38,9.99 C20.4001654,8.23003568 20.0015516,5.99081455 18.4367048,4.69101983 C16.871858,3.39122511 14.5975135,3.41023077 13.0546073,4.73599558 C11.5117011,6.06176038 11.1505647,8.30733039 12.2,10.05" id="_Path_698"></path>
                    <path d="M15.77,33.27 L15.77,18.19" id="_Path_699"></path>
                    <polyline id="_Path_700" points="12.13 10.05 6.51 10.05 3.74 7.37"></polyline>
                    <polyline id="_Path_701" points="7.82 16.49 4.26 16.49 0.28 13.45"></polyline>
                    <polyline id="_Path_702" points="7.15 24.74 3.6 24.74 1.28 28.43"></polyline>
                    <polyline id="_Path_703" points="9.34 30.39 7.15 32.44 5.3 35.16"></polyline>
                    <polyline id="_Path_704" points="19.57 10.05 25.19 10.05 27.96 7.37"></polyline>
                    <polyline id="_Path_705" points="23.88 16.49 27.44 16.49 31.43 13.45"></polyline>
                    <polyline id="_Path_706" points="24.55 24.74 28.1 24.74 30.43 28.43"></polyline>
                    <polyline id="_Path_707" points="22.36 30.39 24.55 32.44 26.4 35.16"></polyline>
                    <path d="M13.26,4.5 C12.3229371,3.18692397 12.4443749,1.3946696 13.55,0.22" id="_Path_708"></path>
                    <path d="M18.29,4.5 C19.2230759,3.18579698 19.1018266,1.39632411 18,0.22" id="_Path_709"></path>
                </g>
            </g>
            <g id="_Group_148" stroke="#847B42" stroke-linecap="round" stroke-linejoin="round" stroke-width="3">
                <path d="M74.1,21.55 L25.09,21.55" id="_Path_710"></path>
                <path d="M146.83,91.57 L146.83,114.25 L0.42,114.25 L0.42,9.95 C0.42,4.97943725 4.44943725,0.95 9.42,0.95 L39.12,0.95 C42.8339082,0.930695405 46.1782654,3.1946902 47.54,6.65 L53.43,21.57" id="_Path_711"></path>
                <polyline id="_Path_712" points="70.88 35.63 17.19 35.63 17.19 98.98 131.01 98.98 131.01 79.92"></polyline>
            </g>
            <polyline id="_Path_713" stroke="#847B42" stroke-width="3" stroke-linecap="round" stroke-linejoin="round" points="71.12 84.36 28.08 84.36 28.08 72.05 71.12 72.05 71.12 59.73 28.08 59.73 28.08 47.42 71.12 47.42"></polyline>
        </g>
    </g>
</svg>