<?xml version="1.0" encoding="UTF-8"?>
<svg width="133px" height="135px" viewBox="0 0 133 135" version="1.1" xmlns="http://www.w3.org/2000/svg" xmlns:xlink="http://www.w3.org/1999/xlink">
    <!-- Generator: Sketch 52.5 (67469) - http://www.bohemiancoding.com/sketch -->
    <title>_Group_136</title>
    <desc>Created with Sketch.</desc>
    <g id="Page-1" stroke="none" stroke-width="1" fill="none" fill-rule="evenodd">
        <g id="_Group_136" transform="translate(2.000000, 2.000000)">
            <path d="M121.25,29.69 C121.25,32.1476671 119.257667,34.14 116.8,34.14 C114.342333,34.14 112.35,32.1476671 112.35,29.69 C112.35,27.2323329 114.342333,25.24 116.8,25.24 C119.255386,25.2454992 121.244501,27.2346143 121.25,29.69 Z" id="_Path_638" stroke="#847B42" stroke-width="3" stroke-linecap="round" stroke-linejoin="round"></path>
            <path d="M98.19,10.15 C98.1940442,11.9557152 97.1088851,13.5856909 95.4413925,14.2785777 C93.7738998,14.9714644 91.8531516,14.5905217 90.5763149,13.3136851 C89.2994783,12.0368484 88.9185356,10.1161002 89.6114223,8.44860754 C90.3043091,6.78111488 91.9342848,5.69595583 93.74,5.7 C96.1976671,5.7 98.19,7.69233286 98.19,10.15 Z" id="_Path_639" stroke="#847B42" stroke-width="3" stroke-linecap="round" stroke-linejoin="round"></path>
            <circle id="_Path_640" stroke="#847B42" stroke-width="3" stroke-linecap="round" stroke-linejoin="round" cx="123.15" cy="71.7" r="4.45"></circle>
            <path d="M112.75,99.5 C112.75,101.957667 110.757667,103.95 108.3,103.95 C105.842333,103.95 103.85,101.957667 103.85,99.5 C103.85,97.0423329 105.842333,95.05 108.3,95.05 C110.755386,95.0554992 112.744501,97.0446143 112.75,99.5 Z" id="_Path_641" stroke="#847B42" stroke-width="3" stroke-linecap="round" stroke-linejoin="round"></path>
            <circle id="_Path_642" stroke="#847B42" stroke-width="3" stroke-linecap="round" stroke-linejoin="round" cx="124.46" cy="109.83" r="4.45"></circle>
            <path d="M109.41,42.19 C109.414044,43.9957152 108.328885,45.6256909 106.661392,46.3185777 C104.9939,47.0114644 103.073152,46.6305217 101.796315,45.3536851 C100.519478,44.0768484 100.138536,42.1561002 100.831422,40.4886075 C101.524309,38.8211149 103.154285,37.7359558 104.96,37.74 C107.415386,37.7454992 109.404501,39.7346143 109.41,42.19 Z" id="_Path_643" stroke="#847B42" stroke-width="3" stroke-linecap="round" stroke-linejoin="round"></path>
            <circle id="_Path_644" stroke="#847B42" stroke-width="3" stroke-linecap="round" stroke-linejoin="round" cx="103.84" cy="60.64" r="4.45"></circle>
            <g id="_Group_137">
                <g id="_Group_138" transform="translate(0.000000, 1.000000)">
                    <path d="M30.62,33.9 C30.37,34.07 30.13,34.24 29.9,34.43 L29.63,34.65 C23.3097539,39.4556405 14.5602461,39.4556405 8.24,34.65 L7.96,34.43 C7.73246721,34.2414164 7.49549474,34.0645214 7.25,33.9 C-1.41,27.9 -1.75,13.41 3.51,5.14 C4.06,4.3 6.16,0.95 7.44,0.95 L10.93,0.95 L10.93,17.32 C10.93,20.6337085 13.6162915,23.32 16.93,23.32 L20.93,23.32 C24.2437085,23.32 26.93,20.6337085 26.93,17.32 L26.93,0.95 L30.42,0.95 C31.7,0.95 33.8,4.3 34.35,5.14 C39.66,13.41 39.28,27.88 30.62,33.9 Z" id="_Path_645" fill="#ffaf3a"></path>
                    <g id="_Group_139" transform="translate(0.000000, 88.000000)" fill="#ffaf3a">
                        <path d="M34.36,37.24 C33.81,38.08 31.71,41.43 30.43,41.43 L26.94,41.43 L26.94,25.06 C26.94,21.7462915 24.2537085,19.06 20.94,19.06 L16.94,19.06 C13.6262915,19.06 10.94,21.7462915 10.94,25.06 L10.94,41.43 L7.45,41.43 C6.17,41.43 4.06,38.08 3.52,37.24 C-1.78,28.97 -1.41,14.5 7.26,8.48 C7.50549474,8.31547859 7.74246721,8.13858364 7.97,7.95 L8.25,7.73 C14.5702461,2.92435949 23.3197539,2.92435949 29.64,7.73 L29.91,7.95 C30.14,8.14 30.38,8.31 30.63,8.48 C39.28,14.5 39.66,28.97 34.36,37.24 Z" id="_Path_646"></path>
                        <path d="M26.06,0.22 C26.085945,3.11247495 27.3756198,5.84892377 29.59,7.71" id="_Path_647"></path>
                        <path d="M8.21,7.71 C10.4184745,5.84536502 11.7038694,3.11024918 11.73,0.22" id="_Path_648"></path>
                    </g>
                    <path d="M30.62,33.9 C30.37,34.07 30.13,34.24 29.9,34.43 L29.63,34.65 C23.3097539,39.4556405 14.5602461,39.4556405 8.24,34.65 L7.96,34.43 C7.73246721,34.2414164 7.49549474,34.0645214 7.25,33.9 C-1.41,27.9 -1.75,13.41 3.51,5.14 C4.06,4.3 6.16,0.95 7.44,0.95 L10.93,0.95 L10.93,17.32 C10.93,20.6337085 13.6162915,23.32 16.93,23.32 L20.93,23.32 C24.2437085,23.32 26.93,20.6337085 26.93,17.32 L26.93,0.95 L30.42,0.95 C31.7,0.95 33.8,4.3 34.35,5.14 C39.66,13.41 39.28,27.88 30.62,33.9 Z" id="_Path_649" stroke="#847B42" stroke-width="3" stroke-linecap="round" stroke-linejoin="round"></path>
                    <path d="M8.21,34.67 C10.4184745,36.534635 11.7038694,39.2697508 11.73,42.16 L11.73,88.22" id="_Path_650" stroke="#847B42" stroke-width="3" stroke-linecap="round" stroke-linejoin="round"></path>
                    <path d="M26.06,88.22 L26.06,42.16 C26.0821122,39.268836 27.3682567,36.5321251 29.58,34.67" id="_Path_651" stroke="#847B42" stroke-width="3" stroke-linecap="round" stroke-linejoin="round"></path>
                    <g id="_Group_140" transform="translate(0.000000, 88.000000)" stroke="#847B42" stroke-linecap="round" stroke-linejoin="round" stroke-width="3">
                        <path d="M34.36,37.24 C33.81,38.08 31.71,41.43 30.43,41.43 L26.94,41.43 L26.94,25.06 C26.94,21.7462915 24.2537085,19.06 20.94,19.06 L16.94,19.06 C13.6262915,19.06 10.94,21.7462915 10.94,25.06 L10.94,41.43 L7.45,41.43 C6.17,41.43 4.06,38.08 3.52,37.24 C-1.78,28.97 -1.41,14.5 7.26,8.48 C7.50549474,8.31547859 7.74246721,8.13858364 7.97,7.95 L8.25,7.73 C14.5702461,2.92435949 23.3197539,2.92435949 29.64,7.73 L29.91,7.95 C30.14,8.14 30.38,8.31 30.63,8.48 C39.28,14.5 39.66,28.97 34.36,37.24 Z" id="_Path_652"></path>
                        <path d="M26.06,0.22 C26.085945,3.11247495 27.3756198,5.84892377 29.59,7.71" id="_Path_653"></path>
                        <path d="M8.21,7.71 C10.4184745,5.84536502 11.7038694,3.11024918 11.73,0.22" id="_Path_654"></path>
                    </g>
                </g>
                <g id="_Group_141" transform="translate(47.000000, 0.000000)">
                    <path d="M19.94,70.92 L19.94,121.19 C19.9409293,123.432547 18.6911999,125.488429 16.7,126.52 C15.8478543,126.963605 14.9006898,127.193532 13.94,127.19 L6.42,127.19 C5.45931025,127.193532 4.51214566,126.963605 3.66,126.52 C1.66880006,125.488429 0.419070748,123.432547 0.42,121.19 L0.42,70.92 C0.42,69.8154305 1.3154305,68.92 2.42,68.92 L17.88,68.92 C18.4207508,68.9037701 18.9450103,69.107297 19.3331619,69.4841432 C19.7213136,69.8609895 19.9402435,70.3790058 19.94,70.92 Z" id="_Path_655" fill="#ffaf3a"></path>
                    <path d="M17.61,64.29 L17.61,68.88 L2.76,68.88 L2.76,64.29 C2.76,62.6331458 4.10314575,61.29 5.76,61.29 L14.61,61.29 C16.2668542,61.29 17.61,62.6331458 17.61,64.29 Z" id="_Path_656" stroke="#847B42" stroke-width="3" stroke-linecap="round" stroke-linejoin="round"></path>
                    <polyline id="_Path_657" stroke="#847B42" stroke-width="3" stroke-linecap="round" stroke-linejoin="round" points="6.84 61.29 6.84 16.58 4.99 10.47 7.88 0.3 12.42 0.3 15.38 10.38 13.48 16.28 13.48 55.49"></polyline>
                    <path d="M19.94,70.92 L19.94,121.19 C19.9409293,123.432547 18.6911999,125.488429 16.7,126.52 C15.8478543,126.963605 14.9006898,127.193532 13.94,127.19 L6.42,127.19 C5.45931025,127.193532 4.51214566,126.963605 3.66,126.52 C1.66880006,125.488429 0.419070748,123.432547 0.42,121.19 L0.42,70.92 C0.42,69.8154305 1.3154305,68.92 2.42,68.92 L17.88,68.92 C18.4207508,68.9037701 18.9450103,69.107297 19.3331619,69.4841432 C19.7213136,69.8609895 19.9402435,70.3790058 19.94,70.92 Z" id="_Path_658" stroke="#847B42" stroke-width="3" stroke-linecap="round" stroke-linejoin="round"></path>
                    <polyline id="_Path_659" stroke="#847B42" stroke-width="3" stroke-linecap="round" stroke-linejoin="round" points="3.66 126.52 6.07 131.46 14.29 131.46 16.7 126.52"></polyline>
                </g>
            </g>
            <polyline id="_Path_660" stroke="#847B42" stroke-width="3" stroke-linecap="round" stroke-linejoin="round" points="66.94 115.74 84.98 115.74 84.98 109.83 120.01 109.83"></polyline>
            <polyline id="_Path_661" stroke="#847B42" stroke-width="3" stroke-linecap="round" stroke-linejoin="round" points="66.94 95.02 74.65 95.02 74.65 99.49 103.84 99.49"></polyline>
            <polyline id="_Path_662" stroke="#847B42" stroke-width="3" stroke-linecap="round" stroke-linejoin="round" points="66.94 85.69 82.98 85.69 90.31 71.69 118.7 71.69"></polyline>
            <polyline id="_Path_663" stroke="#847B42" stroke-width="3" stroke-linecap="round" stroke-linejoin="round" points="66.94 74.36 75.98 74.36 82.65 61.29 98.98 61.29"></polyline>
            <polyline id="_Path_664" stroke="#847B42" stroke-width="3" stroke-linecap="round" stroke-linejoin="round" points="60.48 48.36 73.81 48.36 73.81 42.19 100.5 42.19"></polyline>
            <path d="M62.38,61.29 L72.81,61.29" id="_Path_665" stroke="#847B42" stroke-width="3" stroke-linecap="round" stroke-linejoin="round"></path>
            <polyline id="_Path_666" stroke="#847B42" stroke-width="3" stroke-linecap="round" stroke-linejoin="round" points="60.48 23.36 89.48 23.36 89.48 29.69 112.34 29.69"></polyline>
            <path d="M62.38,10.38 L88.48,10.38" id="_Path_667" stroke="#847B42" stroke-width="3" stroke-linecap="round" stroke-linejoin="round"></path>
            <path d="M60.48,34.15 L66.15,34.15" id="_Path_668" stroke="#847B42" stroke-width="3" stroke-linecap="round" stroke-linejoin="round"></path>
            <path d="M127.6,16.2 L110.59,16.2" id="_Path_669" stroke="#847B42" stroke-width="3" stroke-linecap="round" stroke-linejoin="round"></path>
            <polyline id="_Path_670" stroke="#847B42" stroke-width="3" stroke-linecap="round" stroke-linejoin="round" points="121.25 40.19 121.25 52.19 115.09 52.19"></polyline>
            <polyline id="_Path_671" stroke="#847B42" stroke-width="3" stroke-linecap="round" stroke-linejoin="round" points="97.67 84.99 97.67 79.11 107.67 79.11 107.67 87.11 120.54 87.11"></polyline>
            <path d="M118.17,122.2 L97.67,122.2" id="_Path_672" stroke="#847B42" stroke-width="3" stroke-linecap="round" stroke-linejoin="round"></path>
        </g>
    </g>
</svg>