<?xml version="1.0" encoding="UTF-8"?>
<svg width="156px" height="156px" viewBox="0 0 156 156" version="1.1" xmlns="http://www.w3.org/2000/svg" xmlns:xlink="http://www.w3.org/1999/xlink">
    <!-- Generator: Sketch 52.5 (67469) - http://www.bohemiancoding.com/sketch -->
    <title>_Group_282</title>
    <desc>Created with Sketch.</desc>
    <g id="Page-1" stroke="none" stroke-width="1" fill="none" fill-rule="evenodd">
        <g id="_Group_282" transform="translate(1.000000, 1.000000)">
            <path d="M76.8,0.77 C34.826359,0.77 0.8,34.796359 0.8,76.77 L0.8,77.35 C0.8,119.323641 34.826359,153.35 76.8,153.35 C118.773641,153.35 152.8,119.323641 152.8,77.35 L152.8,76.77 C152.8,34.796359 118.773641,0.77 76.8,0.77 Z M76.8,139.77 C64.4110625,139.786879 52.2959626,136.12555 41.99,129.25 C39.6304154,129.586382 37.2437243,128.853143 35.48,127.25 C34.0722615,125.908585 33.2163277,124.089726 33.08,122.15 C12.6338173,102.469778 7.89806157,71.535789 21.52,46.64 C21.9352508,44.8930706 22.8862799,43.3196769 24.24,42.14 C26.524025,38.6778465 29.143322,35.4489433 32.06,32.5 C32.5933333,31.96 33.1333333,31.43 33.68,30.91 L56.06,59.38 L111.26,129.5 C101.023858,136.217515 89.0435,139.787981 76.8,139.77 Z M142.45,95.42 C141.776731,98.4452905 139.455304,100.832491 136.45,101.59 C135.829794,101.75338 135.191359,101.837384 134.55,101.84 C131.39771,109.056185 126.928056,115.621625 121.37,121.2 L43.86,23.2 L43.7,23.15 C58.4464459,14.0416775 76.2967102,11.4187668 93.04,15.9 C93.7601636,14.1585094 94.9513873,12.6521654 96.48,11.55 C99.4776249,9.42532126 103.338147,8.93759737 106.77,10.25 C110.599421,11.7530633 113.25639,15.2840863 113.64,19.38 C113.821344,21.3081637 113.457531,23.2485004 112.59,24.98 C117.129808,28.1238567 121.235199,31.8526685 124.8,36.07 L125.8,37.21 C126.06,37.52 126.31,37.84 126.55,38.16 C137.288914,51.983812 141.792113,69.6524405 138.98,86.93 C139.445419,87.2105139 139.875206,87.546285 140.26,87.93 C142.196092,89.9036437 143.017876,92.7142216 142.45,95.42 Z" id="_Compound_Path_34" fill="#ffaf3a" fill-rule="nonzero"></path>
            <g id="_Group_283" transform="translate(0.000000, 1.000000)" stroke="#847B42" stroke-linecap="round" stroke-linejoin="round" stroke-width="3">
                <path d="M40.21,45.65 C37.47,42.92 35.36,39.52 31.21,39 C28.0816668,38.5850213 24.9696747,39.8710962 23.046984,42.3734823 C21.1242932,44.8758684 20.6832155,48.2141216 21.89,51.13 C23.76,55.62 28.89,56.58 32.89,58.4 C37.21,60.4 41.48,62.51 45.65,64.79 L47.16,65.62 C50.109732,67.2778618 51.6406419,70.6596336 50.94,73.97 C50.94,73.97 50.94,74.08 50.94,74.13 C50.2336834,77.7168394 47.1055499,80.3145684 43.45,80.35 C40.11,80.35 36.3,80.35 34.1,80.19 C31.4,79.98 28.74,79.12 26.31,80.7 C24.4500798,81.8926066 23.3713235,83.9899767 23.4828941,86.1965952 C23.5944647,88.4032138 24.8792722,90.3810778 26.85,91.38 C29.85,92.95 33.04,91.12 35.99,90.28 C39.19,89.36 42.43,88.56 45.68,87.89 L45.73,87.89 C48.4277551,87.3365119 51.1361892,88.7874587 52.17,91.34 C52.5947964,92.368944 53.0823808,93.3708297 53.63,94.34 C54.9505412,96.6868554 54.4687975,99.6354591 52.47,101.44 C50.23,103.44 47.9366667,105.393333 45.59,107.3 C43.93,108.66 42.24,110.03 40.49,111.3 C37.71,113.3 34.43,114.68 33.38,118.23 C33.1100121,119.154302 33.0117215,120.120261 33.09,121.08 C33.2263277,123.019726 34.0822615,124.838585 35.49,126.18 C37.2537243,127.783143 39.6404154,128.516382 42,128.18 C42.2391018,128.151222 42.4762136,128.107808 42.71,128.05 C46.91,127.05 48.49,122.69 50.64,119.44 C52.9933333,115.92 55.4633333,112.486667 58.05,109.14 L58.23,108.91 C60.4762722,105.990747 64.4157897,104.965732 67.8,106.42 L68.02,106.52 C71.4529269,107.982185 73.4635579,111.57994 72.91,115.27 C72.7,116.56 72.48,117.85 72.23,119.13 C71.92,120.8 71.63,122.49 71.23,124.13 C70.58,126.76 69.31,129.24 70.5,131.91 C71.3818037,133.934209 73.2810372,135.330379 75.4761449,135.568079 C77.6712526,135.805779 79.8253295,134.848527 81.12,133.06 C83.12,130.33 81.85,126.9 81.49,123.85 C81.09,120.56 80.82,117.24 80.67,113.91 L80.67,113.85 C80.5580626,111.104511 82.4207815,108.669941 85.1,108.06 C86.2987749,107.772564 87.4778652,107.408482 88.63,106.97" id="_Path_1165"></path>
                <path d="M58.19,29.5 C58.8494767,28.8401981 59.6493426,28.3377183 60.53,28.03 C62.773914,27.2686736 65.2551306,27.8243426 66.96,29.47 C69.08,31.53 68.85,34.34 69.24,37.06 C69.51,38.77 69.86,40.47 70.24,42.16 C70.55,43.66 70.88,45.16 71.24,46.65 C72.0328649,49.9314381 75.0155906,52.2091559 78.39,52.11 L78.47,52.11 C81.8111917,52.014953 84.7105839,49.7778175 85.65,46.57 C86.02,45.35 86.37,44.13 86.72,42.9 C88.3,37.24 89.6733333,31.5333333 90.84,25.78 C91.56,22.25 91.69,18.21 93.12,14.88 C93.8401636,13.1385094 95.0313873,11.6321654 96.56,10.53 C99.5576249,8.40532126 103.418147,7.91759737 106.85,9.23 C110.679421,10.7330633 113.33639,14.2640863 113.72,18.36 C113.901344,20.2881637 113.537531,22.2285004 112.67,23.96 C111.53,26.41 109.67,28.61 108.19,30.96 C106.62,33.51 105.19,36.16 103.73,38.79 C101.26,43.26 98.92,47.79 96.73,52.43 C95.6058804,54.8592562 96.2027252,57.7379159 98.2,59.52 C98.66,59.93 99.14,60.36 99.6,60.81 C101.645924,62.7726536 104.78639,63.0354018 107.13,61.44 C109.94,59.56 112.68,57.56 115.33,55.44 C117.79,53.5 120.07,50.58 123.51,50.89 C125.745426,51.0724973 127.711673,52.4388132 128.662296,54.4702532 C129.612919,56.5016932 129.402149,58.8867558 128.11,60.72 C126.42,63.16 123.6,63.36 120.99,64.19 C119.33,64.72 117.71,65.35 116.1,65.95 C114.99,66.37 113.88,66.81 112.78,67.26 C109.183519,68.7498041 107.084213,72.5177892 107.71,76.36 L107.71,76.56 C108.289298,80.2175911 111.248158,83.0330157 114.93,83.43 L115.11,83.43 C119.47,83.92 123.85,84.28 128.25,84.43 C131.8,84.57 135.85,83.86 138.92,85.81 C139.385419,86.0905139 139.815206,86.426285 140.2,86.81 C142.261597,88.8815404 143.054418,91.8993036 142.27722,94.7166468 C141.500021,97.53399 139.272105,99.7184463 136.44,100.44 C135.819794,100.60338 135.181359,100.687384 134.54,100.69 C131.67,100.69 129.15,99 126.45,97.85 C124.38,96.99 122.25,96.23 120.13,95.48 C116.64,94.23 113.13,93.07 109.55,92.04 C108.177182,91.6495935 106.700571,92.0321352 105.69,93.04" id="_Path_1166"></path>
                <path d="M87.81,57.5 C89.362225,56.9504194 91.0926678,57.3902929 92.1940249,58.6144064 C93.295382,59.8385198 93.5506263,61.6056563 92.8406786,63.0913936 C92.1307309,64.577131 90.5954895,65.4886982 88.9511905,65.4008219 C87.3068916,65.3129455 85.8775514,64.2429419 85.33,62.69" id="_Path_1167"></path>
                <path d="M59.2,75.24 C60.188092,74.8905039 61.289422,75.1709594 61.9900079,75.9504801 C62.6905939,76.7300009 62.8523229,77.8549128 62.3997173,78.8002283 C61.9471117,79.7455438 60.9693977,80.3249042 59.9228669,80.2679266 C58.876336,80.210949 57.9673005,79.5288658 57.62,78.54" id="_Path_1168"></path>
                <path d="M96.96,71.33 C97.948092,70.9805039 99.049422,71.2609594 99.7500079,72.0404801 C100.450594,72.8200009 100.612323,73.9449128 100.159717,74.8902283 C99.7071117,75.8355438 98.7293977,76.4149042 97.6828669,76.3579266 C96.636336,76.300949 95.7273005,75.6188658 95.38,74.63" id="_Path_1169"></path>
                <path d="M72.77,96.92 C70.8454651,99.3613403 67.3064539,99.7808128 64.8645278,97.8570212 C62.4226017,95.9332296 62.0020517,92.3943463 63.9250998,89.9518347 C65.8481479,87.509323 69.386903,87.0876956 71.83,89.01" id="_Path_1170"></path>
                <path d="M93.06,14.91 C93.7801636,13.1685094 94.9713873,11.6621654 96.5,10.56 C99.4976249,8.43532126 103.358147,7.94759737 106.79,9.26 C110.619421,10.7630633 113.27639,14.2940863 113.66,18.39 C113.841344,20.3181637 113.477531,22.2585004 112.61,23.99 L93.06,14.91 Z M140.03,79.99 C140.1,78.8 140.14,77.6 140.14,76.39 C140.152842,62.1669873 135.35252,48.3581316 126.52,37.21 C126.28,36.89 126.03,36.57 125.77,36.26 L124.77,35.12 C122.506812,32.4951341 120.035454,30.0572188 117.38,27.83 L140.03,79.99 Z M87.04,13.83 C83.6250858,13.2708037 80.1703959,12.9898802 76.71,12.99 C65.1101919,12.9777266 53.7321844,16.1682749 43.83,22.21 L121.34,120.21 L121.83,120.82 C126.320044,116.305069 130.105695,111.140672 133.06,105.5 L87.04,13.83 Z M48.06,132.77 C68.4939231,143.222977 92.9866725,141.787855 112.06,129.02 L56.06,58.38 L33.62,30.01 L32.06,31.5 C31.29,32.24 30.64,32.92 29.86,33.81 L48.06,132.77 Z M17.4,54.36 C9.57623973,75.544069 13.6307327,99.2918137 28.04,116.68 L17.4,54.36 Z M76.84,0.32 C35.0956929,0.318742087 1.16406763,33.9869508 0.84,75.73 L0.84,76.31 C0.84,118.283641 34.866359,152.31 76.84,152.31 C118.813641,152.31 152.84,118.283641 152.84,76.31 L152.84,75.73 C152.493938,33.9830965 118.538328,0.33109967 76.79,0.36 L76.84,0.32 Z M33.06,121.1 C33.1963277,123.039726 34.0522615,124.858585 35.46,126.2 C37.2237243,127.803143 39.6104154,128.536382 41.97,128.2 L33.06,121.1 Z M21.5,45.54 C21.9152508,43.7930706 22.8662799,42.2196769 24.22,41.04 L21.5,45.54 Z M138.96,85.89 C139.425419,86.1705139 139.855206,86.506285 140.24,86.89 C142.301597,88.9615404 143.094418,91.9793036 142.31722,94.7966468 C141.540021,97.61399 139.312105,99.7984463 136.48,100.52 C135.859794,100.68338 135.221359,100.767384 134.58,100.77 L138.96,85.89 Z" id="_Compound_Path_35"></path>
            </g>
        </g>
    </g>
</svg>