<?xml version="1.0" encoding="UTF-8"?>
<svg width="220px" height="145px" viewBox="0 0 220 145" version="1.1" xmlns="http://www.w3.org/2000/svg" xmlns:xlink="http://www.w3.org/1999/xlink">
    <!-- Generator: Sketch 52.5 (67469) - http://www.bohemiancoding.com/sketch -->
    <title>Group 4</title>
    <desc>Created with Sketch.</desc>
    <g id="Page-1" stroke="none" stroke-width="1" fill="none" fill-rule="evenodd">
        <g id="Group-4" transform="translate(2.000000, 2.000000)">
            <path d="M84,54 C84,56.7614237 81.7614237,59 79,59 C76.2385763,59 74,56.7614237 74,54 C74,51.2385763 76.2385763,49 79,49 C81.7614237,49 84,51.2385763 84,54 Z" id="_Path_354" fill="#CECE7A"></path>
            <path d="M99,76 C99,78.7614237 96.7614237,81 94,81 C91.2385763,81 89,78.7614237 89,76 C89,73.2385763 91.2385763,71 94,71 C96.7614237,71 99,73.2385763 99,76 Z" id="_Path_355" fill="#CECE7A"></path>
            <path d="M46,101 C46,103.761424 43.7614237,106 41,106 C38.2385763,106 36,103.761424 36,101 C36,98.2385763 38.2385763,96 41,96 C43.7614237,96 46,98.2385763 46,101 Z" id="_Path_356" fill="#CECE7A"></path>
            <path d="M26,113 C26,115.761424 23.7614237,118 21,118 C18.2385763,118 16,115.761424 16,113 C16,110.238576 18.2385763,108 21,108 C23.7614237,108 26,110.238576 26,113 Z" id="_Path_357" fill="#CECE7A"></path>
            <path d="M159.92,10.0160525 C132.64,10.7360525 117.55,34.3360525 116,36.8560525 C116.19,56.8560525 117,103.036052 153.85,126.856052 C158.131732,129.696574 163.698268,129.696574 167.98,126.856052 C205.4,102.656052 205.65,56.7560525 205.77,35.8560525 C204.35,33.6860525 188.13,9.28605248 159.92,10.0160525 Z M182.92,85.1160525 C182.92,85.9673974 182.581805,86.7838735 181.979813,87.3858652 C181.377821,87.987857 180.561345,88.3260525 179.71,88.3260525 L147.2,88.3260525 C146.348655,88.3260525 145.532179,87.987857 144.930187,87.3858652 C144.328195,86.7838735 143.99,85.9673974 143.99,85.1160525 L143.99,62.9660525 C143.99,61.1932184 145.427166,59.7560525 147.2,59.7560525 L179.71,59.7560525 C181.482834,59.7560525 182.92,61.1932184 182.92,62.9660525 L182.92,85.1160525 Z" id="_Compound_Path_11" fill="#ffaf3a" fill-rule="nonzero"></path>
            <rect id="_Rectangle_32" stroke="#847B42" stroke-width="3" stroke-linecap="round" stroke-linejoin="round" x="144" y="60" width="38.94" height="28.57" rx="3.21"></rect>
            <path d="M148,59.71 L148,55.82 C148,47.65 155,41 163.59,41 C172.18,41 179.19,47.65 179.19,55.82 L179.19,59.71" id="_Path_358" stroke="#847B42" stroke-width="3" stroke-linecap="round" stroke-linejoin="round"></path>
            <path d="M158,75.5718401 L158,73.7118401 C158.087044,71.0336338 160.321373,68.9288961 163,69.0018401 C165.678627,68.9288961 167.912956,71.0336338 168,73.7118401 L168,75.5718401" id="_Path_359" stroke="#847B42" stroke-width="3" stroke-linecap="round" stroke-linejoin="round"></path>
            <path d="M199.68,15 C190.75,7.43 177.68,-5.68434189e-14 160.85,-5.68434189e-14 L159.36,-5.68434189e-14 C128,0.82 110.69,26.41 107.53,31.53 L105.89,34.19 L105.89,37.37 C106.04,53.19 106.39,90.11 128.43,118.03 L73,118.03 L73,99.64 L94.26,99.64 L94.26,81.37" id="_Path_360" stroke="#ffaf3a" stroke-width="3" stroke-linecap="round" stroke-linejoin="round"></path>
            <path d="M215.73,33 L215.73,36.27 C215.6,58.03 215.3,108.9 173.24,136.11 C165.888626,140.962752 156.351374,140.962752 149,136.11" id="_Path_361" stroke="#847B42" stroke-width="3" stroke-linecap="round" stroke-linejoin="round"></path>
            <path d="M205.77,35.8487686 C205.65,56.7387686 205.4,102.628769 167.98,126.848769 C163.698268,129.68929 158.131732,129.68929 153.85,126.848769 C116.98,102.998769 116.19,56.8487686 116,36.8487686 C117.55,34.3287686 132.64,10.7287686 159.92,10.0187686 C188.13,9.22876859 204.35,33.6287686 205.77,35.8487686 Z" id="_Path_362" stroke="#ffaf3a" stroke-width="3" stroke-linecap="round" stroke-linejoin="round"></path>
            <path d="M97.86,33 C84.6081636,34.0441466 72.4333927,40.6991543 64.4,51.29 C61.9431767,50.7011951 59.4263784,50.3991793 56.9,50.39 C37.71,50.39 22.16,67.08 22.16,87.65 L22.16,87.81 C9.71,89.24 -1.13686838e-13,100.54 -1.13686838e-13,114.28 C-1.13686838e-13,128.98 11.12,140.9 24.83,140.9 L141.9,139.57" id="_Path_400" stroke="#847B42" stroke-width="3" stroke-linecap="round" stroke-linejoin="round"></path>
            <path d="M84,54 C84,56.7614237 81.7614237,59 79,59 C76.2385763,59 74,56.7614237 74,54 C74,51.2385763 76.2385763,49 79,49 C81.7614237,49 84,51.2385763 84,54 Z" id="_Path_401" stroke="#ffaf3a" stroke-width="3" stroke-linecap="round" stroke-linejoin="round"></path>
            <path d="M99,76 C99,78.7614237 96.7614237,81 94,81 C91.2385763,81 89,78.7614237 89,76 C89,73.2385763 91.2385763,71 94,71 C96.7614237,71 99,73.2385763 99,76 Z" id="_Path_402" stroke="#ffaf3a" stroke-width="3" stroke-linecap="round" stroke-linejoin="round"></path>
            <path d="M46,101 C46,103.761424 43.7614237,106 41,106 C38.2385763,106 36,103.761424 36,101 C36,98.2385763 38.2385763,96 41,96 C43.7614237,96 46,98.2385763 46,101 Z" id="_Path_403" stroke="#ffaf3a" stroke-width="3" stroke-linecap="round" stroke-linejoin="round"></path>
            <path d="M26,113 C26,115.761424 23.7614237,118 21,118 C18.2385763,118 16,115.761424 16,113 C16,110.238576 18.2385763,108 21,108 C23.7614237,108 26,110.238576 26,113 Z" id="_Path_404" stroke="#ffaf3a" stroke-width="3" stroke-linecap="round" stroke-linejoin="round"></path>
            <polyline id="_Path_405" stroke="#ffaf3a" stroke-width="3" stroke-linecap="round" stroke-linejoin="round" points="126.91 130.48 58.98 130.48 58.98 113 26 113"></polyline>
            <polyline id="_Path_406" stroke="#ffaf3a" stroke-width="3" stroke-linecap="round" stroke-linejoin="round" points="62 96.05 62 70.87 78.35 70.87 78.35 59"></polyline>
            <polyline id="_Path_407" stroke="#ffaf3a" stroke-width="3" stroke-linecap="round" stroke-linejoin="round" points="62.61 87 41 87 41 95.61"></polyline>
        </g>
    </g>
</svg>