<?xml version="1.0" encoding="UTF-8"?>
<svg width="162px" height="119px" viewBox="0 0 162 119" version="1.1" xmlns="http://www.w3.org/2000/svg" xmlns:xlink="http://www.w3.org/1999/xlink">
    <!-- Generator: Sketch 52.5 (67469) - http://www.bohemiancoding.com/sketch -->
    <title>Group 16</title>
    <desc>Created with Sketch.</desc>
    <g id="Page-1" stroke="none" stroke-width="1" fill="none" fill-rule="evenodd">
        <g id="Group-16" transform="translate(1.000000, 2.000000)">
            <path d="M0.97,0.25 L0.97,26.25 L159.48,26.25 L159.48,0.25 L0.97,0.25 Z M12.97,18.38 C10.1380875,18.3744797 7.84632591,16.0752618 7.85000433,13.2433463 C7.85368274,10.4114309 10.1514096,8.11817431 12.9833268,8.12001083 C15.8152441,8.12184734 18.1099946,10.4180822 18.11,13.25 C18.1100215,16.0754286 15.8254072,18.3689847 13,18.38 L12.97,18.38 Z M30.27,18.38 C27.4367792,18.38 25.14,16.0832208 25.14,13.25 C25.14,10.4167792 27.4367792,8.12 30.27,8.12 C33.1032208,8.12 35.4,10.4167792 35.4,13.25 C35.4000482,16.0715463 33.121498,18.3634997 30.3,18.38 L30.27,18.38 Z M47.56,18.38 C44.7267792,18.38 42.43,16.0832208 42.43,13.25 C42.43,10.4167792 44.7267792,8.12 47.56,8.12 C50.3932208,8.12 52.69,10.4167792 52.69,13.25 C52.6900482,16.0715463 50.411498,18.3634997 47.59,18.38 L47.56,18.38 Z" id="_Compound_Path_23" fill="#CECE7A" fill-rule="nonzero"></path>
            <g id="_Group_119" transform="translate(55.000000, 37.000000)" fill="#FFEB99" fill-rule="nonzero">
                <path d="M0.06,0.8 L0.06,66.57 L39.74,66.57 C45.6289727,66.5644808 50.4000026,61.7889752 50.4,55.9 L50.4,0.8 L0.06,0.8 Z M42.63,28.8 L41.88,38.74 C41.7754912,40.1155598 40.6295236,41.1787389 39.25,41.18 L39.25,43.55 C39.2450806,45.420685 37.7501886,46.9466281 35.88,46.99 C34.1808773,46.9507904 32.7690498,48.2911329 32.72,49.99 L32.72,53.65 C32.72,54.9975748 31.6275748,56.09 30.28,56.09 L20.22,56.09 C18.8724252,56.09 17.78,54.9975748 17.78,53.65 L17.78,50.07 C17.7807094,48.3979783 16.4513125,47.0286995 14.78,46.98 C12.8947939,47.02475 11.3290936,45.535098 11.28,43.65 L11.28,41.17 C9.90047639,41.1687389 8.75450883,40.1055598 8.65,38.73 L7.9,28.79 C7.48819066,22.9839255 10.1772042,17.3929073 14.97,14.09 C17.7580492,12.329658 20.9828128,11.3840507 24.28,11.36 C27.6740031,11.1050645 31.0758415,11.7392471 34.15,13.2 C39.3152794,15.9901224 42.5923966,21.331175 42.74,27.2 C42.67,27.68 42.66,28.22 42.62,28.76 L42.63,28.8 Z" id="_Compound_Path_24"></path>
            </g>
            <path d="M94.24,78.15 C95.6195236,78.1487389 96.7654912,77.0855598 96.87,75.71 L97.62,65.71 C97.6501057,65.1670837 97.6501057,64.6229163 97.62,64.08 C97.4765277,58.2099531 94.19824,52.866993 89.03,50.08 C85.9545566,48.6232085 82.5537743,47.9892227 79.16,48.24 C75.8668433,48.2701343 72.6469239,49.2153365 69.86,50.97 C65.0608253,54.2674444 62.3699409,59.8623526 62.79,65.67 L63.54,75.67 C63.6445088,77.0455598 64.7904764,78.1087389 66.17,78.11 L66.17,80.58 C66.2191123,82.4611084 67.778658,83.9491563 69.66,83.91 C71.3313125,83.9586995 72.6607094,85.3279783 72.66,87 L72.66,90.58 C72.66,91.9275748 73.7524252,93.02 75.1,93.02 L85.17,93.02 C86.5175748,93.02 87.61,91.9275748 87.61,90.58 L87.61,86.92 C87.6536486,85.2227121 89.0626024,83.8808514 90.76,83.92 C92.6285852,83.8819754 94.1249538,82.3589652 94.13,80.49 L94.24,78.15 Z" id="_Path_552" stroke="#847B42" stroke-width="3" stroke-linecap="round" stroke-linejoin="round"></path>
            <path d="M76.82,71.38 L76.82,71.62 C76.8200154,72.6046976 76.0246822,73.4044989 75.04,73.41 L71.74,73.41 C70.7514103,73.41 69.95,72.6085897 69.95,71.62 L69.95,69.38 C69.95,68.3914103 70.7514103,67.59 71.74,67.59 L74.19,67.59" id="_Path_555" stroke="#847B42" stroke-width="3" stroke-linecap="round" stroke-linejoin="round"></path>
            <path d="M83.63,71.38 L83.63,71.62 C83.6299846,72.6046976 84.4253178,73.4044989 85.41,73.41 L88.72,73.41 C89.7046822,73.4044989 90.5000154,72.6046976 90.5,71.62 L90.5,69.38 C90.5000154,68.3953024 89.7046822,67.5955011 88.72,67.59 L86.26,67.59" id="_Path_556" stroke="#847B42" stroke-width="3" stroke-linecap="round" stroke-linejoin="round"></path>
            <path d="M78.42,76.23 L78.05,77 C77.7475122,77.6106661 77.7020418,78.317002 77.9237339,78.9614122 C78.1454261,79.6058224 78.6158334,80.1346844 79.23,80.43 C79.5466298,80.5639672 79.8862277,80.6352827 80.23,80.64 C80.3531204,80.6502494 80.4768796,80.6502494 80.6,80.64 C81.3992822,80.4937149 82.0816533,79.9766662 82.4387142,79.2467629 C82.795775,78.5168595 82.7851188,77.6607893 82.41,76.94 L82.06,76.25" id="_Path_557" stroke="#847B42" stroke-width="3" stroke-linecap="round" stroke-linejoin="round"></path>
            <g id="_Group_122" transform="translate(75.000000, 90.000000)" stroke="#847B42" stroke-linecap="round" stroke-linejoin="round" stroke-width="3">
                <path d="M1.41,3.06 L1.41,0.04" id="_Path_558"></path>
                <path d="M5.41,3.06 L5.41,0.04" id="_Path_559"></path>
                <path d="M9.42,3.06 L9.42,0.04" id="_Path_560"></path>
            </g>
            <g id="_Group_123" transform="translate(55.000000, 37.000000)" stroke="#847B42" stroke-linecap="round" stroke-linejoin="round" stroke-width="3">
                <path d="M0.06,51.07 L0.06,66.57 L39.74,66.57 C42.5698599,66.57 45.2838162,65.4458425 47.2848294,63.4448294 C49.2858425,61.4438162 50.41,58.7298599 50.41,55.9 L50.41,0.8 L0.06,0.8 L0.06,51.07 Z" id="_Path_561"></path>
                <polyline id="_Path_562" points="39.1 66.58 39.1 56.37 50.4 56.37"></polyline>
            </g>
            <rect id="_Path_563" stroke="#847B42" stroke-width="3" stroke-linecap="round" stroke-linejoin="round" x="0.97" y="0.26" width="158.51" height="25.99"></rect>
            <polyline id="_Path_564" stroke="#847B42" stroke-width="3" stroke-linecap="round" stroke-linejoin="round" points="0.97 26.25 0.97 115.13 159.48 115.13 159.48 26.25"></polyline>
            <path d="M18.14,13.25 C18.1440464,15.3298412 16.8942944,17.2071386 14.9739318,18.0058647 C13.0535693,18.8045908 10.8411255,18.367306 9.36902157,16.8980661 C7.89691768,15.4288262 7.45532515,13.2172382 8.25030999,11.2953238 C9.04529484,9.37340949 10.9201549,8.12000394 13,8.12 C14.3622924,8.11734445 15.6696985,8.6566525 16.633924,9.6190021 C17.5981495,10.5813517 18.1400026,11.887705 18.14,13.25 Z" id="_Path_565" stroke="#847B42" stroke-width="3" stroke-linecap="round" stroke-linejoin="round"></path>
            <path d="M35.43,13.25 C35.4340442,15.3307504 34.1832081,17.2086793 32.2616165,18.0068173 C30.3400249,18.8049553 28.1267964,18.3658346 26.6554809,16.8945191 C25.1841654,15.4232036 24.7450447,13.2099751 25.5431827,11.2883835 C26.3413207,9.36679186 28.2192496,8.11595577 30.3,8.12 C31.6605606,8.12 32.9653962,8.66048059 33.9274578,9.62254221 C34.8895194,10.5846038 35.43,11.8894394 35.43,13.25 Z" id="_Path_566" stroke="#847B42" stroke-width="3" stroke-linecap="round" stroke-linejoin="round"></path>
            <path d="M52.72,13.25 C52.7240442,15.3307504 51.4732081,17.2086793 49.5516165,18.0068173 C47.6300249,18.8049553 45.4167964,18.3658346 43.9454809,16.8945191 C42.4741654,15.4232036 42.0350447,13.2099751 42.8331827,11.2883835 C43.6313207,9.36679186 45.5092496,8.11595577 47.59,8.12 C50.4232208,8.12 52.72,10.4167792 52.72,13.25 Z" id="_Path_567" stroke="#847B42" stroke-width="3" stroke-linecap="round" stroke-linejoin="round"></path>
            <path d="M59.97,13.25 L123.86,13.25" id="_Path_568" stroke="#847B42" stroke-width="3" stroke-linecap="round" stroke-linejoin="round"></path>
            <path d="M137.5,8.12 L146.97,17.58" id="_Path_569" stroke="#847B42" stroke-width="3" stroke-linecap="round" stroke-linejoin="round"></path>
            <path d="M146.97,8.12 L137.5,17.58" id="_Path_570" stroke="#847B42" stroke-width="3" stroke-linecap="round" stroke-linejoin="round"></path>
        </g>
    </g>
</svg>