<?xml version="1.0" encoding="UTF-8"?>
<svg width="194px" height="148px" viewBox="0 0 194 148" version="1.1" xmlns="http://www.w3.org/2000/svg" xmlns:xlink="http://www.w3.org/1999/xlink">
    <!-- Generator: Sketch 52.5 (67469) - http://www.bohemiancoding.com/sketch -->
    <title>Group 11</title>
    <desc>Created with Sketch.</desc>
    <g id="Page-1" stroke="none" stroke-width="1" fill="none" fill-rule="evenodd">
        <g id="Group-11" transform="translate(1.000000, 2.000000)">
            <path d="M106.43,60.2 C106.51,58.28 106.54,56.34 106.5,54.41 C106.15,37.41 100.04,20.82 86.31,10.26 C77.7264768,3.75644393 67.2880595,0.168347453 56.52,0.02 C35.02,-0.26 16.03,15.26 9.17,35.16" id="_Path_256" stroke="#847B42" stroke-width="3" stroke-linecap="round" stroke-linejoin="round"></path>
            <path d="M88.48,39.22 C89.3578838,41.9810221 89.9640929,44.8211621 90.29,47.7 C90.607254,50.5751473 90.7341971,53.4681147 90.67,56.36 C90.67,57.36 90.59,58.41 90.52,59.43" id="_Path_257" stroke="#847B42" stroke-width="3" stroke-linecap="round" stroke-linejoin="round"></path>
            <path d="M52.33,16.75 C60.3453026,15.3049705 68.6073113,17.072322 75.33,21.67 C78.1181599,23.54899 80.6005472,25.8458728 82.69,28.48" id="_Path_258" stroke="#847B42" stroke-width="3" stroke-linecap="round" stroke-linejoin="round"></path>
            <path d="M0.59,57.7 C9.05,59.47 19.59,56.88 24.74,49.52 C28.08,44.74 28.74,38.78 30.74,33.43 C32.5862302,28.7398095 35.8070836,24.7172286 39.98,21.89" id="_Path_259" stroke="#847B42" stroke-width="3" stroke-linecap="round" stroke-linejoin="round"></path>
            <path d="M52.98,89.18 C50.0389279,91.7524734 46.8499897,94.0269368 43.46,95.97 C40.4124873,97.6936983 37.2324147,99.1717131 33.95,100.39 C29.8050405,102.004212 25.5468652,103.311077 21.21,104.3" id="_Path_260" stroke="#847B42" stroke-width="3" stroke-linecap="round" stroke-linejoin="round"></path>
            <path d="M2.74,76.5 C8.23753294,76.6251242 13.7179764,75.8412383 18.96,74.18 C22.8672121,72.9589763 26.5735542,71.1698239 29.96,68.87 C34.1900624,65.9655905 37.6274751,62.0503775 39.96,57.48 C44.96,47.57 42.52,42.86 48.02,37.68 C51.9,34.02 58.3,31.83 63.94,33.57 C66.2768741,34.3041502 68.3802324,35.6385759 70.04,37.44 C76.53,44.53 73.5,56.81 72.35,61.44 C71.7454372,63.8885755 70.9496613,66.2859342 69.97,68.61" id="_Path_261" stroke="#847B42" stroke-width="3" stroke-linecap="round" stroke-linejoin="round"></path>
            <path d="M51.62,68.55 C48.6088819,72.9299659 44.9505749,76.8276644 40.77,80.11 C28.17,89.99 14.36,91.35 8.34,91.56" id="_Path_262" stroke="#847B42" stroke-width="3" stroke-linecap="round" stroke-linejoin="round"></path>
            <path d="M59.06,49.71 C58.7653363,51.2449702 58.3677726,52.7583852 57.87,54.24 C57.4554127,55.4698186 56.9712996,56.6750935 56.42,57.85" id="_Path_263" stroke="#847B42" stroke-width="3" stroke-linecap="round" stroke-linejoin="round"></path>
            <path d="M45.5,110.41 C41.4923541,112.400836 37.3486379,114.105106 33.1,115.51 C27.2448136,117.444413 21.2170153,118.810714 15.1,119.59" id="_Path_265" stroke="#847B42" stroke-width="3" stroke-linecap="round" stroke-linejoin="round"></path>
            <path d="M46.06,126.75 C39.8848338,128.615735 33.5408509,129.868454 27.12,130.49" id="_Path_266" stroke="#847B42" stroke-width="3" stroke-linecap="round" stroke-linejoin="round"></path>
            <path d="M51.46,141.5 C49.24,142.08 46.88,142.59 44.37,143" id="_Path_267" stroke="#847B42" stroke-width="3" stroke-linecap="round" stroke-linejoin="round"></path>
            <g id="_Group_39" transform="translate(56.000000, 71.000000)">
                <path d="M11.79,10.05 C-2.82430866,23.8374823 -3.49499489,46.861543 10.2919609,61.4763484 C24.0789166,76.0911538 47.1029532,76.7626696 61.7182553,62.9762403 C76.3335574,49.1898111 77.0059026,26.1657988 63.22,11.55 C49.4253619,-3.05094668 26.4121637,-3.72214632 11.79,10.05 Z M55.62,56.5 C47.5337147,64.1332317 35.6451745,66.1430323 25.4991033,61.5920461 C15.3530322,57.04106 8.94802423,46.8257499 9.27132615,35.7104581 C9.59462807,24.5951664 16.5825552,14.7694062 26.9759918,10.8158369 C37.3694284,6.86226765 49.1210538,9.55967149 56.75,17.65 C61.7526587,22.9513438 64.4441459,30.0230543 64.2322233,37.3090634 C64.0203008,44.5950725 60.9223328,51.4983895 55.62,56.5 Z" id="_Compound_Path_9" fill="#FFEB99" fill-rule="nonzero"></path>
                <path d="M23.54,2.74 C7.39111494,9.05193389 -2.03695211,25.9056939 1.0351882,42.9699534 C4.1073285,60.0342129 18.8213852,72.5415792 36.1576662,72.8250576 C53.4939472,73.1085361 68.6090627,61.0889288 72.2374722,44.134235 C75.8658818,27.1795412 66.9938845,10.0265431 51.06,3.19 C42.304176,-0.579675361 32.4143916,-0.741390586 23.54,2.74 Z" id="_Path_268" stroke="#847B42" stroke-width="3" stroke-linecap="round" stroke-linejoin="round"></path>
                <path d="M46.61,62.14 C38.322597,65.3125011 29.0134332,64.2893847 21.6128667,59.3927096 C14.2123002,54.4960345 9.63059873,46.3280904 9.31,37.46 C9.31,36.93 9.31,36.4 9.31,35.87 C9.31,35.51 9.31,35.16 9.31,34.87 C9.87826686,25.2935276 15.4065465,16.7091482 23.89,12.23" id="_Path_269" stroke="#847B42" stroke-width="3" stroke-linecap="round" stroke-linejoin="round"></path>
                <path d="M46.48,10.78 C57.3710215,14.9065201 64.4815665,25.4461505 64.23,37.09" id="_Path_270" stroke="#847B42" stroke-width="3" stroke-linecap="round" stroke-linejoin="round"></path>
                <path d="M80.21,32.2 L72.77,32.04" id="_Path_271" stroke="#847B42" stroke-width="3" stroke-linecap="round" stroke-linejoin="round"></path>
                <path d="M80.3,42.74 L72.53,42.57" id="_Path_272" stroke="#847B42" stroke-width="3" stroke-linecap="round" stroke-linejoin="round"></path>
                <path d="M126.23,46.23 L80.33,46.58 L80.19,28.58 L126.09,28.23 C128.492504,28.2059738 130.804878,29.1435681 132.512221,30.8340066 C134.219564,32.5244452 135.18012,34.8273759 135.18,37.23 C135.180076,42.1811018 131.181025,46.2024939 126.23,46.23 Z" id="_Path_273" stroke="#847B42" stroke-width="3" stroke-linecap="round" stroke-linejoin="round"></path>
                <path d="M132.51,37 L82.93,37.61 L82.93,31.18 L126.16,30.85 C129.586142,30.8587136 132.391682,33.5758905 132.51,37 Z" id="_Path_274" fill="#CECE7A"></path>
            </g>
        </g>
    </g>
</svg>