<?xml version="1.0" encoding="UTF-8"?>
<svg width="162px" height="135px" viewBox="0 0 162 135" version="1.1" xmlns="http://www.w3.org/2000/svg" xmlns:xlink="http://www.w3.org/1999/xlink">
    <!-- Generator: Sketch 52.5 (67469) - http://www.bohemiancoding.com/sketch -->
    <title>_Group_321</title>
    <desc>Created with Sketch.</desc>
    <g id="Page-1" stroke="none" stroke-width="1" fill="none" fill-rule="evenodd">
        <g id="_Group_321" transform="translate(2.000000, 1.000000)">
            <path d="M31.19,17.66 L127.68,17.66 C132.020958,17.66 135.54,14.1409581 135.54,9.8 L23.32,9.8 C23.3255179,14.1425752 26.8474213,17.6600035 31.19,17.66 Z" id="_Path_1349" fill="#FCAF3A"></path>
            <g id="_Group_322" stroke="#847B42" stroke-linecap="round" stroke-linejoin="round" stroke-width="3">
                <g id="_Group_323">
                    <g id="_Group_324" transform="translate(13.000000, 0.000000)">
                        <polygon id="_Path_1350" points="132.66 71.5 132.66 0.63 0.21 0.63 0.21 86.19 58.19 86.19 132.66 86.19"></polygon>
                        <polygon id="_Path_1351" points="122.54 77.02 61.47 77.02 10.32 77.02 10.32 9.8 122.54 9.8 122.54 70.03"></polygon>
                    </g>
                    <polyline id="_Path_1352" points="13.2 86.19 0.49 124.23 0.49 132.1 74.26 132.1"></polyline>
                    <path d="M0.49,124.23 L85.15,124.23" id="_Path_1353"></path>
                    <polyline id="_Path_1354" points="145.55 86.19 158.26 124.23 158.26 132.1 74.26 132.1"></polyline>
                    <path d="M158.26,124.23 L85.15,124.23" id="_Path_1355"></path>
                </g>
                <g id="_Group_325" transform="translate(50.000000, 97.000000)">
                    <path d="M0.75,1.05 L5.6,1.05" id="_Path_1356"></path>
                    <path d="M18.26,1.05 L23.1,1.05" id="_Path_1357"></path>
                    <path d="M35.76,1.05 L40.61,1.05" id="_Path_1358"></path>
                    <path d="M53.27,1.05 L58.11,1.05" id="_Path_1359"></path>
                    <path d="M9.62,11.46 L14.46,11.46" id="_Path_1360"></path>
                    <path d="M26.51,11.46 L31.35,11.46" id="_Path_1361"></path>
                    <path d="M46.02,11.46 L50.86,11.46" id="_Path_1362"></path>
                </g>
            </g>
            <g id="_Group_326" transform="translate(31.000000, 23.000000)" stroke="#FCAF3A" stroke-linecap="round" stroke-linejoin="round" stroke-width="3">
                <g id="_Group_327" transform="translate(35.000000, 0.000000)">
                    <g id="_Group_328" transform="translate(0.000000, 10.000000)">
                        <path d="M5.93,0.88 C2.87586533,0.88 0.4,3.35586533 0.4,6.41 L0.4,12.03 C0.397617409,12.9549604 0.498237371,13.87731 0.7,14.78 C1.12686256,16.8317832 2.07381063,18.7394531 3.45,20.32 C5.37779367,22.5931569 8.19956611,23.9146079 11.18,23.94 L14.68,23.94 C20.68,23.94 25.45,18.61 25.45,12.03 L25.45,6.41 C25.4526609,4.94253871 24.870892,3.53441503 23.8332385,2.49676149 C22.795585,1.45910796 21.3874613,0.877339139 19.92,0.88 L5.93,0.88 Z" id="_Path_1363"></path>
                    </g>
                    <path d="M3.93,10.88 C3.51,5.05 7.73,0.04 12.86,0.04 C17.99,0.04 22.21,5.04 21.79,10.88" id="_Path_1364"></path>
                </g>
                <path d="M51.31,20.68 L50.31,22.91 L50.31,25.62 C50.3540201,26.7904359 49.5467643,27.8216946 48.4,28.06 L48.11,28.06 C47.897144,28.0801827 47.682856,28.0801827 47.47,28.06 C46.2779838,27.8551731 45.4224184,26.7985499 45.47,25.59 C45.47,24.69 45.47,23.8 45.54,22.9 L44.54,20.66 C43.9921319,19.5173129 44.0533089,18.1761176 44.70293,17.0880525 C45.3525512,15.9999874 46.5041749,15.3098352 47.77,15.25 L48.06,15.25 C49.3328396,15.3054894 50.4926339,15.9967913 51.1469418,17.0899888 C51.8012497,18.1831863 51.8625123,19.5319887 51.31,20.68 Z" id="_Path_1365"></path>
                <polyline id="_Path_1366" points="58.83 12.5 95.11 12.5 95.11 27.01 59.46 27.01"></polyline>
                <path d="M76.97,12.5 L76.97,27.01" id="_Path_1367"></path>
                <path d="M66.14,40.77 L66.14,27.01" id="_Path_1368"></path>
                <polyline id="_Path_1369" points="95.11 27.01 95.11 40.77 47.86 40.77"></polyline>
                <polyline id="_Path_1370" points="36.96 12.5 0.68 12.5 0.68 27.01 36.33 27.01"></polyline>
                <path d="M18.82,12.5 L18.82,27.01" id="_Path_1371"></path>
                <path d="M29.65,40.77 L29.65,27.01" id="_Path_1372"></path>
                <polyline id="_Path_1373" points="0.68 27.01 0.68 40.77 47.93 40.77"></polyline>
            </g>
            <path d="M16.42,93.02 L7.73,120.02 L148.79,120.02 C149.851677,120.01945 150.842589,119.487459 151.429645,118.602855 C152.0167,117.718251 152.121944,116.598499 151.71,115.62 C151.211074,114.448525 150.063282,113.685951 148.79,113.68 L27.41,113.68 C25.230517,113.67343 23.1784521,112.652063 21.8591804,110.917211 C20.5399087,109.182359 20.1039812,106.931997 20.68,104.83 L23.37,95.12 C23.6731415,94.0268165 23.4477846,92.8547719 22.7608589,91.9519552 C22.0739332,91.0491385 21.0044358,90.5193747 19.87,90.52 C18.2994413,90.5166964 16.9059163,91.5264971 16.42,93.02 Z" id="_Path_1374" fill="#FCAF3A"></path>
        </g>
    </g>
</svg>