<?xml version="1.0" encoding="UTF-8"?>
<svg width="111px" height="136px" viewBox="0 0 111 136" version="1.1" xmlns="http://www.w3.org/2000/svg" xmlns:xlink="http://www.w3.org/1999/xlink">
    <!-- Generator: Sketch 52.5 (67469) - http://www.bohemiancoding.com/sketch -->
    <title>_Group_124</title>
    <desc>Created with Sketch.</desc>
    <g id="Page-1" stroke="none" stroke-width="1" fill="none" fill-rule="evenodd">
        <g id="_Group_124" transform="translate(1.000000, 2.000000)">
            <g id="_Group_125" stroke="#847B42" stroke-linecap="round" stroke-linejoin="round" stroke-width="3">
                <path d="M60.45,79.83 C60.6235777,78.7811908 60.1655606,77.728143 59.28,77.14 L56.73,75.43 C54.9794157,74.22689 52.6048652,74.5280105 51.21,76.13 C50.7352362,76.7033726 50.4242713,77.3944058 50.31,78.13 C50.1878611,78.8584568 50.256772,79.6061392 50.51,80.3 C51.3071664,82.2739893 53.4578644,83.3364341 55.51,82.77" id="_Path_571"></path>
                <path d="M27.44,63.05 L28.44,67.12 C29.0556821,69.0971525 28.5404211,71.2526998 27.0971522,72.7376817 C25.6538833,74.2226635 23.5138875,74.7991146 21.52,74.24 C20.3495777,73.8634386 19.2435025,73.310401 18.24,72.6 C18.24,72.6 18.77,80.8 28.15,82.29 L42.5,79.51 C45.98,78.09 44.6,72.87 44.5,72.61 C42.7012268,71.1319269 41.1190899,69.4084075 39.8,67.49 C36.1854862,61.8080126 33.6151091,55.5259972 32.21,48.94 L32.21,48.75 C31.7238957,46.3710451 31.4859549,43.9480705 31.5,41.52 L31.5,40.52 C39.1689214,37.1818176 44.8136661,30.4214668 46.73,22.28 C46.73,22.28 49.73,40.45 77.28,40.78 L77.28,41.49 C77.2878331,43.958478 77.0432275,46.4212872 76.55,48.84 C76.55,48.84 76.55,48.84 76.55,48.9 C75.62,53.34 74.14,60.41 69,67.2 C67.4840555,69.1296376 65.7640759,70.8898507 63.87,72.45" id="_Path_572"></path>
                <path d="M64.68,85.74 L54.97,114.59 L42.51,79.5 C45.99,78.08 44.61,72.86 44.51,72.6 C45.4467226,73.1587528 46.4113064,73.6694148 47.4,74.13" id="_Path_573"></path>
                <path d="M81.06,59.31 L80.2,64.5 C78.6373461,73.9804712 70.0431297,80.6624418 60.47,79.84" id="_Path_574"></path>
                <g id="_Group_126" transform="translate(20.000000, 0.000000)">
                    <path d="M67.33,42.55 L65.9,55.27 C65.62,57.73 63.67,59.53 61.55,59.27 C59.42,59.03 57.92,56.84 58.19,54.38 L59.12,46.12 C59.4,43.66 61.35,41.86 63.48,42.12 L67.33,42.55 Z" id="_Path_575"></path>
                    <path d="M0.89,42.55 L2.32,55.27 C2.6,57.73 4.55,59.53 6.68,59.27 C8.8,59.03 10.3,56.84 10.03,54.38 L9.1,46.12 C8.82,43.66 6.87,41.86 4.74,42.12 L0.89,42.55 Z" id="_Path_576"></path>
                    <path d="M1.68,42.5 L1.19,38.79 C-0.743740482,25.9361625 4.95552878,13.1279914 15.7986382,5.95948614 C26.6417476,-1.20901911 40.6588653,-1.43557978 51.7279814,5.37875507 C62.7970975,12.1930899 68.9073221,24.8103825 67.39,37.72 L66.88,42.54" id="_Path_577"></path>
                </g>
                <path d="M28.16,82.29 L11.38,85.83 C4.91061172,87.1512491 0.333417072,92.9403025 0.54,99.54 L0.66,117.97 C0.714945697,125.524834 6.85496632,131.6202 14.41,131.62 L94.33,131.62 C98.0045584,131.622992 101.52698,130.152939 104.109263,127.538707 C106.691545,124.924475 108.118175,121.384244 108.07,117.71 L107.85,98.53 C107.847112,96.9398323 107.506247,95.3684413 106.85,93.92 C105.712701,91.6267221 103.956518,89.6973461 101.78,88.35 C99.3697748,86.7714787 96.7134134,85.6055186 93.92,84.9 L74.92,79.9" id="_Path_578"></path>
            </g>
            <rect id="_Path_579" fill="#CECE7A" x="69.9" y="105.75" width="25.68" height="15.49"></rect>
        </g>
    </g>
</svg>