<?xml version="1.0" encoding="UTF-8"?>
<svg width="116px" height="148px" viewBox="0 0 116 148" version="1.1" xmlns="http://www.w3.org/2000/svg" xmlns:xlink="http://www.w3.org/1999/xlink">
    <!-- Generator: Sketch 52.5 (67469) - http://www.bohemiancoding.com/sketch -->
    <title>_Group_12</title>
    <desc>Created with Sketch.</desc>
    <g id="Page-1" stroke="none" stroke-width="1" fill="none" fill-rule="evenodd">
        <g id="_Group_12" transform="translate(2.000000, 1.000000)">
            <rect id="_Rectangle_2" fill="#CECE7A" x="9.13" y="65.17" width="94.11" height="71.5"></rect>
            <g id="_Group_13" stroke="#847B42" stroke-linecap="round" stroke-linejoin="round" stroke-width="3">
                <path d="M94.29,57.5 L108.85,57.5 C110.622834,57.5 112.06,58.937166 112.06,60.71 L112.06,141.8 C112.06,143.572834 110.622834,145.01 108.85,145.01 L3.39,145.01 C1.61716595,145.01 0.18,143.572834 0.18,141.8 L0.18,60.72 C0.18,58.947166 1.61716595,57.51 3.39,57.51 L17.54,57.51" id="_Path_92"></path>
                <path d="M25.72,57.51 L86.16,57.51" id="_Path_93"></path>
                <path d="M63.51,0.77 C85.2005531,4.59728257 100.992731,23.4744637 100.93,45.5 L100.930186,57.39" id="_Path_94"></path>
                <path d="M11.3197306,57.43 L11.32,45.5 C11.2469148,24.1713618 26.0524968,5.67687497 46.88,1.08" id="_Path_95"></path>
                <path d="M30.62,57.43 L30.62,44.18 C30.5402935,32.5992608 38.1013498,22.3509147 49.19,19.01" id="_Path_96"></path>
                <path d="M66.8,20.43 C75.9120994,24.8217396 81.6837358,34.06492 81.63,44.18 L81.63,57.43" id="_Path_97"></path>
                <path d="M56,125.1 C52.2791933,125.099795 48.7310063,123.530433 46.2276471,120.77769 C43.724288,118.024946 42.4979176,114.344111 42.85,110.64 L43.95,99.23 C44.5526397,92.9646762 49.8157603,88.1819884 56.11,88.18 C62.4964289,88.1823831 67.8039629,93.1020923 68.29,99.47 L69.16,110.89 C69.4443565,114.556097 68.185443,118.174474 65.6869214,120.872346 C63.1883998,123.570218 59.6771069,125.102648 56,125.1 Z" id="_Path_98"></path>
                <path d="M61.53,89.5 C63.095073,86.8034144 62.4855718,83.3710334 60.0877717,81.3781505 C57.6899717,79.3852676 54.2040115,79.4137891 51.8391411,81.4456393 C49.4742707,83.4774895 48.9210136,86.919384 50.53,89.59" id="_Path_99"></path>
                <path d="M56,125.11 L56,102.01" id="_Path_100"></path>
                <polyline id="_Path_101" points="50.43 89.55 41.82 89.55 37.57 85.43 32.26 79.03 18.47 79.03"></polyline>
                <polyline id="_Path_102" points="43.82 100.57 38.37 100.57 32.26 95.9 25.1 95.9"></polyline>
                <polyline id="_Path_103" points="42.79 112.04 37.35 112.04 33.8 117.7 20.85 117.7"></polyline>
                <polyline id="_Path_104" points="46.15 120.7 42.79 123.84 39.96 128 33.89 128"></polyline>
                <path d="M52.15,81.09 C50.712321,79.0785421 50.8965775,76.331445 52.59,74.53" id="_Path_105"></path>
                <path d="M59.85,81.09 C61.287679,79.0785421 61.1034225,76.331445 59.41,74.53" id="_Path_106"></path>
                <polyline id="_Path_107" points="46.87 1.12 50.09 5.15 44.09 12.64 49.18 19.01"></polyline>
                <polyline id="_Path_108" points="63.5 0.77 67.01 5.15 61.01 12.64 67.01 20.15 66.79 20.43"></polyline>
                <polyline id="_Path_109" points="0.18 134.78 17.35 134.78 17.35 128 25.1 128"></polyline>
                <polyline id="_Path_110" points="0.18 65.9 19.1 65.9 19.1 70.78 34.89 70.78"></polyline>
                <path d="M0.18,123.32 L9.22,123.32" id="_Path_111"></path>
                <polyline id="_Path_112" points="0.18 109.9 16.85 109.9 16.85 104.9 26.97 104.9"></polyline>
                <polyline id="_Path_113" points="0.18 88.74 9.25 88.74 9.25 90.87 15.27 90.87"></polyline>
                <polyline id="_Path_114" points="61.81 89.55 70.42 89.55 74.66 85.43 79.97 79.03 94.89 79.03"></polyline>
                <polyline id="_Path_115" points="68.41 100.57 73.87 100.57 79.97 95.9 87.14 95.9"></polyline>
                <polyline id="_Path_116" points="69.44 112.04 74.89 112.04 78.44 117.7 91.39 117.7"></polyline>
                <polyline id="_Path_117" points="66.09 120.7 69.45 123.84 72.28 128 78.35 128"></polyline>
                <polyline id="_Path_118" points="112.06 134.78 94.89 134.78 94.89 128 85.26 128"></polyline>
                <polyline id="_Path_119" points="112.06 65.9 93.14 65.9 93.14 70.78 77.35 70.78"></polyline>
                <path d="M112.06,123.32 L103.01,123.32" id="_Path_120"></path>
                <polyline id="_Path_121" points="112.06 109.9 95.39 109.9 95.39 104.9 85.26 104.9"></polyline>
                <polyline id="_Path_122" points="112.06 87.64 102.84 87.64 102.84 89.8 96.72 89.8"></polyline>
                <circle id="_Path_123" cx="15.27" cy="79.15" r="3.21"></circle>
                <path d="M101.31,79.03 C101.31,80.802834 99.872834,82.24 98.1,82.24 C96.327166,82.24 94.89,80.802834 94.89,79.03 C94.89,77.257166 96.327166,75.82 98.1,75.82 C98.9513449,75.82 99.767821,76.1581955 100.369813,76.7601872 C100.971805,77.362179 101.31,78.1786551 101.31,79.03 Z" id="_Path_124"></path>
                <path d="M41.31,70.55 C41.31,72.322834 39.872834,73.76 38.1,73.76 C36.327166,73.76 34.89,72.322834 34.89,70.55 C34.89,68.777166 36.327166,67.34 38.1,67.34 C39.872834,67.34 41.31,68.777166 41.31,70.55 Z" id="_Path_125"></path>
                <path d="M77.33,70.77 C77.3340475,72.0692262 76.5545275,73.2427742 75.3553587,73.7427736 C74.15619,74.2427729 72.7738748,73.9706128 71.8537466,73.0533511 C70.9336184,72.1360893 70.6571466,70.75463 71.153402,69.5539071 C71.6496574,68.3531841 72.8207675,67.5700063 74.12,67.57 C75.8889361,67.5699914 77.3244893,69.0010724 77.33,70.77 Z" id="_Path_126"></path>
                <circle id="_Path_127" cx="90.35" cy="95.9" r="3.21"></circle>
                <path d="M25.06,95.9 C25.06,97.672834 23.622834,99.11 21.85,99.11 C20.077166,99.11 18.64,97.672834 18.64,95.9 C18.64,94.127166 20.077166,92.69 21.85,92.69 C23.622834,92.69 25.06,94.127166 25.06,95.9 Z" id="_Path_128"></path>
                <path d="M98.06,117.7 C98.06,119.472834 96.622834,120.91 94.85,120.91 C93.077166,120.91 91.64,119.472834 91.64,117.7 C91.64,115.927166 93.077166,114.49 94.85,114.49 C96.622834,114.49 98.06,115.927166 98.06,117.7 Z" id="_Path_129"></path>
                <path d="M20.75,117.7 C20.75,119.472834 19.312834,120.91 17.54,120.91 C15.767166,120.91 14.33,119.472834 14.33,117.7 C14.33,115.927166 15.767166,114.49 17.54,114.49 C19.312834,114.49 20.75,115.927166 20.75,117.7 Z" id="_Path_130"></path>
            </g>
        </g>
    </g>
</svg>