<?xml version="1.0"?>
<svg xmlns="http://www.w3.org/2000/svg" height="512px" viewBox="0 -12 455.78164 455" width="512px" class=""><g transform="matrix(0.747172 0 0 0.747172 57.6171 54.4844)"><path d="m12.445312 195.675781 13.304688-8.390625c-15.464844 111.179688 57.125 215.574219 166.734375 239.785156 15.664063 3.523438 31.671875 5.308594 47.726563 5.316407 78.6875-.179688 151.050781-43.121094 188.914062-112.09375 37.859375-68.976563 35.230469-153.082031-6.863281-219.558594-30.539063-48.523437-79.226563-82.804687-135.199219-95.203125-81.867188-18.144531-166.859375 12.5-218.304688 78.714844-1.816406 2.253906-2.273437 5.316406-1.191406 8 1.082032 2.6875 3.53125 4.578125 6.402344 4.949218 2.871094.371094 5.71875-.839843 7.445312-3.167968 47.644532-61.320313 126.363282-89.691406 202.175782-72.863282 105.1875 23.613282 172.730468 126.347657 152.714844 232.277344-20.015626 105.933594-120.390626 176.9375-226.941407 160.539063-106.554687-16.398438-180.933593-114.296875-168.175781-221.34375l7.023438 11.078125c2.414062 3.613281 7.265624 4.640625 10.933593 2.316406s4.8125-7.152344 2.582031-10.875l-18.136718-28.671875c-2.363282-3.730469-7.300782-4.839844-11.03125-2.480469l-28.671875 18.160156c-2.492188 1.496094-3.9765628 4.222657-3.88281275 7.125.09765575 2.902344 1.75781275 5.527344 4.34374975 6.851563 2.582032 1.328125 5.683594 1.148437 8.097656-.464844zm0 0" data-original="#000000" class="active-path" data-old_color="#fcaf3a" fill="#fcaf3a"/><path d="m216.078125 301.683594c0 4.417968 3.582031 8 8 8h32c4.417969 0 8-3.582032 8-8v-26.960938c11.34375-12.863281 10.527344-32.386718-1.851563-44.257812-12.378906-11.875-31.917968-11.875-44.300781 0-12.378906 11.871094-13.195312 31.394531-1.847656 44.257812zm24-64c8.835937 0 16 7.164062 16 16-.003906 4.53125-1.957031 8.84375-5.359375 11.832031-1.683594 1.519531-2.644531 3.679687-2.640625 5.945313v22.222656h-16v-22.222656c0-2.265626-.960937-4.425782-2.640625-5.945313-3.40625-2.988281-5.355469-7.300781-5.359375-11.832031 0-8.835938 7.164063-16 16-16zm0 0" data-original="#000000" class="active-path" data-old_color="#fcaf3a" fill="#fcaf3a"/><path d="m248.742188 61.019531h-17.328126c-34.960937.039063-63.292968 28.367188-63.335937 63.328125v49.335938h-24c-4.417969 0-8 3.582031-8 8v168c0 4.417968 3.582031 8 8 8h192c4.417969 0 8-3.582032 8-8v-168c0-4.417969-3.582031-8-8-8h-24v-49.335938c-.046875-34.960937-28.378906-63.289062-63.335937-63.328125zm-64.664063 63.328125c.03125-26.128906 21.207031-47.300781 47.335937-47.328125h17.328126c26.128906.027344 47.304687 21.199219 47.335937 47.328125v49.335938h-16v-41.335938c-.027344-21.710937-17.625-39.304687-39.335937-39.328125-22.449219.023438-40.644532 18.214844-40.664063 40.664063v40h-16zm80 8v41.335938h-48v-40c.011719-13.613282 11.046875-24.648438 24.664063-24.664063 12.878906.015625 23.316406 10.449219 23.335937 23.328125zm64 57.335938v152h-176v-152zm0 0" data-original="#000000" class="active-path" data-old_color="#fcaf3a" fill="#fcaf3a"/></g> </svg>
