<?xml version="1.0"?>
<svg xmlns="http://www.w3.org/2000/svg" xmlns:xlink="http://www.w3.org/1999/xlink" version="1.1" id="Capa_1" x="0px" y="0px" viewBox="0 0 326.464 326.464" style="enable-background:new 0 0 326.464 326.464;" xml:space="preserve" width="512px" height="512px"><g transform="matrix(0.842943 0 0 0.842943 25.6367 25.6367)"><g>
	<g>
		<path d="M306.88,193.952l-32.768-32.768l29.696-29.696c12.288-12.288,19.456-29.184,19.456-47.104s-6.656-34.304-19.456-47.104    l-15.36-14.336C276.16,10.656,259.264,3.488,241.344,3.488c-17.92,0-34.304,6.656-47.104,19.456L164.544,52.64l-32.768-32.768    C119.488,7.584,102.592,0.416,84.672,0.416c-17.92,0-34.304,6.656-47.104,19.456L22.72,34.72    C10.432,47.008,3.264,63.904,3.264,81.824c0,17.92,6.656,34.304,19.456,47.104l32.768,32.768l-36.352,36.352    c-25.6,25.6-25.6,67.584,0.512,93.696l14.848,14.848C46.784,318.88,63.68,326.048,81.6,326.048s34.304-6.656,47.104-19.456    l36.352-36.352l32.768,32.768c12.288,12.288,29.184,19.456,47.104,19.456s34.304-6.656,47.104-19.456l14.848-14.848    C332.992,262.048,332.992,220.064,306.88,193.952z M201.408,30.112c10.752-10.752,25.6-16.384,39.936-16.384    s28.672,5.632,39.936,16.384l14.848,14.848c22.016,22.016,22.016,57.856,0,79.872l-29.696,29.696l-94.72-94.72L201.408,30.112z     M30.4,121.248c-10.752-10.752-16.384-24.576-16.384-39.936c0-14.848,5.632-29.184,16.384-39.936l14.848-14.848    C56,15.776,70.848,10.144,85.184,10.144s28.672,5.632,39.936,16.384l32.768,32.768l-94.72,94.72L30.4,121.248z M121.024,298.912    c-22.016,22.016-57.856,22.016-79.872,0l-14.848-14.848c-22.016-22.016-22.016-57.856,0-79.872l36.864-35.328l94.208,94.208    L121.024,298.912z M164.544,255.904l-94.208-94.208l94.208-94.208l94.208,94.208L164.544,255.904z M299.2,281.504l-14.848,14.848    c-10.752,10.752-24.576,16.384-39.936,16.384c-14.848,0-29.184-5.632-39.936-16.384l-32.768-33.28l94.208-94.208l33.28,32.768    C321.216,223.648,321.216,259.488,299.2,281.504z" data-original="#000000" class="active-path" data-old_color="#fcaf3a" fill="#fcaf3a"/>
	</g>
</g><g>
	<g>
		<circle cx="163.581" cy="92.14" r="5.12" data-original="#000000" class="active-path" data-old_color="#fcaf3a" fill="#fcaf3a"/>
	</g>
</g><g>
	<g>
		<circle cx="181.256" cy="109.365" r="5.12" data-original="#000000" class="active-path" data-old_color="#fcaf3a" fill="#fcaf3a"/>
	</g>
</g><g>
	<g>
		<circle cx="198.945" cy="127.371" r="5.12" data-original="#000000" class="active-path" data-old_color="#fcaf3a" fill="#fcaf3a"/>
	</g>
</g><g>
	<g>
		<circle cx="216.268" cy="144.978" r="5.12" data-original="#000000" class="active-path" data-old_color="#fcaf3a" fill="#fcaf3a"/>
	</g>
</g><g>
	<g>
		<circle cx="234.309" cy="162.596" r="5.12" data-original="#000000" class="active-path" data-old_color="#fcaf3a" fill="#fcaf3a"/>
	</g>
</g><g>
	<g>
		<circle cx="149.527" cy="105.843" r="5.12" data-original="#000000" class="active-path" data-old_color="#fcaf3a" fill="#fcaf3a"/>
	</g>
</g><g>
	<g>
		<circle cx="167.206" cy="123.828" r="5.12" data-original="#000000" class="active-path" data-old_color="#fcaf3a" fill="#fcaf3a"/>
	</g>
</g><g>
	<g>
		<circle cx="184.891" cy="141.084" r="5.12" data-original="#000000" class="active-path" data-old_color="#fcaf3a" fill="#fcaf3a"/>
	</g>
</g><g>
	<g>
		<circle cx="202.57" cy="159.053" r="5.12" data-original="#000000" class="active-path" data-old_color="#fcaf3a" fill="#fcaf3a"/>
	</g>
</g><g>
	<g>
		<circle cx="219.893" cy="176.687" r="5.12" data-original="#000000" class="active-path" data-old_color="#fcaf3a" fill="#fcaf3a"/>
	</g>
</g><g>
	<g>
		<circle cx="135.488" cy="120.285" r="5.12" data-original="#000000" class="active-path" data-old_color="#fcaf3a" fill="#fcaf3a"/>
	</g>
</g><g>
	<g>
		<circle cx="153.152" cy="137.541" r="5.12" data-original="#000000" class="active-path" data-old_color="#fcaf3a" fill="#fcaf3a"/>
	</g>
</g><g>
	<g>
		<circle cx="170.836" cy="155.536" r="5.12" data-original="#000000" class="active-path" data-old_color="#fcaf3a" fill="#fcaf3a"/>
	</g>
</g><g>
	<g>
		<circle cx="188.516" cy="172.818" r="5.12" data-original="#000000" class="active-path" data-old_color="#fcaf3a" fill="#fcaf3a"/>
	</g>
</g><g>
	<g>
		<circle cx="205.838" cy="190.431" r="5.12" data-original="#000000" class="active-path" data-old_color="#fcaf3a" fill="#fcaf3a"/>
	</g>
</g><g>
	<g>
		<circle cx="121.413" cy="134.024" r="5.12" data-original="#000000" class="active-path" data-old_color="#fcaf3a" fill="#fcaf3a"/>
	</g>
</g><g>
	<g>
		<circle cx="139.098" cy="152.029" r="5.12" data-original="#000000" class="active-path" data-old_color="#fcaf3a" fill="#fcaf3a"/>
	</g>
</g><g>
	<g>
		<circle cx="156.777" cy="169.265" r="5.12" data-original="#000000" class="active-path" data-old_color="#fcaf3a" fill="#fcaf3a"/>
	</g>
</g><g>
	<g>
		<circle cx="174.125" cy="186.893" r="5.12" data-original="#000000" class="active-path" data-old_color="#fcaf3a" fill="#fcaf3a"/>
	</g>
</g><g>
	<g>
		<circle cx="191.809" cy="204.891" r="5.12" data-original="#000000" class="active-path" data-old_color="#fcaf3a" fill="#fcaf3a"/>
	</g>
</g><g>
	<g>
		<circle cx="107.359" cy="148.476" r="5.12" data-original="#000000" class="active-path" data-old_color="#fcaf3a" fill="#fcaf3a"/>
	</g>
</g><g>
	<g>
		<circle cx="125.038" cy="165.732" r="5.12" data-original="#000000" class="active-path" data-old_color="#fcaf3a" fill="#fcaf3a"/>
	</g>
</g><g>
	<g>
		<circle cx="142.723" cy="183.717" r="5.12" data-original="#000000" class="active-path" data-old_color="#fcaf3a" fill="#fcaf3a"/>
	</g>
</g><g>
	<g>
		<circle cx="160.407" cy="200.973" r="5.12" data-original="#000000" class="active-path" data-old_color="#fcaf3a" fill="#fcaf3a"/>
	</g>
</g><g>
	<g>
		<circle cx="177.724" cy="218.581" r="5.12" data-original="#000000" class="active-path" data-old_color="#fcaf3a" fill="#fcaf3a"/>
	</g>
</g><g>
	<g>
		<circle cx="93.299" cy="162.205" r="5.12" data-original="#000000" class="active-path" data-old_color="#fcaf3a" fill="#fcaf3a"/>
	</g>
</g><g>
	<g>
		<circle cx="110.984" cy="180.185" r="5.12" data-original="#000000" class="active-path" data-old_color="#fcaf3a" fill="#fcaf3a"/>
	</g>
</g><g>
	<g>
		<circle cx="128.668" cy="197.43" r="5.12" data-original="#000000" class="active-path" data-old_color="#fcaf3a" fill="#fcaf3a"/>
	</g>
</g><g>
	<g>
		<circle cx="145.985" cy="215.064" r="5.12" data-original="#000000" class="active-path" data-old_color="#fcaf3a" fill="#fcaf3a"/>
	</g>
</g><g>
	<g>
		<circle cx="164.037" cy="232.707" r="5.12" data-original="#000000" class="active-path" data-old_color="#fcaf3a" fill="#fcaf3a"/>
	</g>
</g></g> </svg>
