<?xml version="1.0"?>
<svg xmlns="http://www.w3.org/2000/svg" xmlns:xlink="http://www.w3.org/1999/xlink" version="1.1" id="Capa_1" x="0px" y="0px" viewBox="0 0 58 58" style="enable-background:new 0 0 58 58;" xml:space="preserve" width="512px" height="512px" class=""><g transform="matrix(0.913517 0 0 0.913517 2.508 2.508)"><g>
	<path style="fill:#FCAF3A" d="M31,26.962h26.924C56.94,12.541,45.421,1.022,31,0.038V26.962z" data-original="#F0785A" class="active-path" data-old_color="#fcaf3a"/>
	<path style="fill:#FCAF3A" d="M50.386,48.615c4.343-4.71,7.151-10.858,7.614-17.653H32.733L50.386,48.615z" data-original="#F0C419" class="" data-old_color="#fcaf3a"/>
	<path style="fill:#FCAF3A" d="M27,28.134V0.038C11.918,1.067,0,13.619,0,28.962C0,36.25,2.695,42.905,7.134,48L27,28.134z" data-original="#556080" class="" data-old_color="#fcaf3a"/>
	<path style="fill:#FCAF3A" d="M28.414,32.376L9.962,50.828c5.095,4.439,11.75,7.134,19.038,7.134   c6.99,0,13.396-2.479,18.401-6.599L28.414,32.376z" data-original="#71C285" class="" data-old_color="#fcaf3a"/>
</g></g> </svg>
