<svg id="Layer_1" data-name="Layer 1" xmlns="http://www.w3.org/2000/svg" viewBox="0 0 360.94 120"><defs><style>.cls-1{fill:#a0a2a7;}.cls-2{fill:#464d57;}.cls-3{fill:#ffaf3a;}.cls-4{isolation:isolate;}</style></defs><title>Quzara Logo</title><g id="logo_item--logo_0" data-name="logo  item--logo 0"><path class="cls-1" d="M51.64,107.78a3.59,3.59,0,0,0,3.59,3.59,48.12,48.12,0,0,0,0-96.23,3.59,3.59,0,1,0,0,7.17,41,41,0,0,1,0,82.08A3.43,3.43,0,0,0,51.64,107.78Z" transform="translate(-2.96 -3.35)"/><path class="cls-2" d="M42.11,84.2a6.39,6.39,0,0,1-6.32,4.9A6.51,6.51,0,1,1,42.11,81h4.53V65.61H31.26a6.4,6.4,0,0,1-6.32,4.91,6.51,6.51,0,1,1,6.32-8.11H46.64v-12h-5a6.41,6.41,0,0,1-6.32,4.91,6.51,6.51,0,1,1,6.32-8.11h5V19.58a43.68,43.68,0,1,0,0,87.35V84.2Z" transform="translate(-2.96 -3.35)"/><path class="cls-3" d="M55.13,3.35a3.59,3.59,0,0,0,0,7.17,52.83,52.83,0,0,1,0,105.66,3.59,3.59,0,0,0,0,7.17,60,60,0,0,0,0-120Zm8.78,34.53V38l.09.28a.93.93,0,0,0,.66.67l1.23.28c.09.19.28.28.37.38a3.23,3.23,0,0,0,1.32.37,1.11,1.11,0,0,0,.85-.47l.48-.66a1.4,1.4,0,0,0,.18-.57V38a1,1,0,0,0-.56-.66,4.56,4.56,0,0,1-.66-.38l-.66-.56a1,1,0,0,0-.76-.19,4.37,4.37,0,0,0-.85.19,1.28,1.28,0,0,0-1.13.19,1.51,1.51,0,0,0-.47.94A.74.74,0,0,0,63.91,37.88ZM58.72,85c0-.09-.29,1.13-.29,1.13a13.45,13.45,0,0,0-.18,1.51,4.05,4.05,0,0,1-.29,1,4.87,4.87,0,0,1-.38.57,1.41,1.41,0,0,0-.18.56V91a6.87,6.87,0,0,0-.19,1.32A3.13,3.13,0,0,0,58,94.39a4.22,4.22,0,0,0,3.68.94,1.09,1.09,0,0,0,.66-.47,1.28,1.28,0,0,0,.19-.57V94.1l-.19-.85c0-.09-.19-.18-.19-.28a1.61,1.61,0,0,0,.66-1h0v-.09a2.69,2.69,0,0,0,.48-.57l.18-.19a1.05,1.05,0,0,0,.29-.75c.09-.09.28-.19.28-.28a.45.45,0,0,0,.09-.29l.76-.18.28-.1.47-.09a1.31,1.31,0,0,0,1-1.32h0a.52.52,0,0,0,.37-.1l1.42-1c.38-.37.66-.56.75-.85a2.89,2.89,0,0,0,1-.94c0,.1.19-.19.19-.19.28-.28.75-.66.75-1.22a2,2,0,0,0,.1-.57c.18-.09.66-.28.66-.28l.56-.29s.19-.09.19,0l1-.37a10.73,10.73,0,0,0,1.51-1A1.88,1.88,0,0,0,75.79,80c0-.09.57-1.22.57-1.22s0-.1.09-.19l.29-1.13v-.19c0-.19.37-.57.75-.76l.09-.09a3.34,3.34,0,0,0,1.23-3.68,1.73,1.73,0,0,0-.75-.85l-.57-.47L77,70.9a.69.69,0,0,0-.38-.19l-.85-.1a1.7,1.7,0,0,1-.47-.09c-.09-.1-.28-.19-.38-.28L74.66,70l-.09-.09-.95-.66c-.09-.1-.28-.1-.37-.19a1.27,1.27,0,0,1-.29-.19,1.66,1.66,0,0,0-.38-.28v-.38c-.18-1.79-1.88-2.55-2.83-2.83-.09,0-1.32-.28-1.32-.28a.3.3,0,0,0,.1.19c0-.1-.1-.19-.19-.29l-.94-1-.19-.19-.85-.57a.36.36,0,0,0-.28-.09,4.44,4.44,0,0,1-.57-.19,1.17,1.17,0,0,0-.38-.19,1.29,1.29,0,0,0-.56-.19h-.29l-1-.09a3.43,3.43,0,0,0-.76-.1.76.76,0,0,1-.28-.09,3.84,3.84,0,0,1-.38-.47,1.89,1.89,0,0,0-.57-.38H60.7a1.67,1.67,0,0,0-.66.09l-.29.1L58.62,62c.1,0,.47-.28.57-.28l-.57.09-.66.09a.72.72,0,0,0-.66.48l-.19.28c0,.09-.09.09-.09.19h0a2,2,0,0,0-1.42-.47c-.09,0-.18,0-.18.09a.29.29,0,0,0-.19.09h-24a6.39,6.39,0,0,0-6.32-4.9,6.51,6.51,0,1,0,6.32,8.11H53.62c.1.1.29.1.38.19a2.57,2.57,0,0,0,1.32-.19h.47c0,.19.1.76.1,1-.1.09-.76.85-.76.85l-.19.28-.66,1a1.82,1.82,0,0,0-.37,1.22v.66a3.22,3.22,0,0,0-.19.57c0,.09-.1.28-.1.38a.52.52,0,0,0,.1.37l.47,1.13c0,.1.09.19.19.29l.75.85.76,1.41.19.38.47,1,.75,1.13.1.09.94.66.47.29.57.28h0l.09.09v.29l-.09.66v.37H42.11a6.39,6.39,0,0,0-6.32-4.9,6.51,6.51,0,1,0,6.32,8.11h16.7ZM77.58,73.82a.72.72,0,0,1-.47-.19A.72.72,0,0,0,77.58,73.82ZM25,67.5a3.4,3.4,0,1,1,3.39-3.4A3.38,3.38,0,0,1,25,67.5ZM60.6,92h0c.1,0,.1.09,0,0Zm.76-1.23c0-.28.09-.38.19-.38h0A.49.49,0,0,0,61.36,90.8Zm-5.47-24v0Zm3.58,24.62V90.14a2.05,2.05,0,0,1,.28-.38c.1-.09.1-.18.19-.28l.38-1.32v-.28l.1-1,.28-1.42.19-1.6.19-1.32.09-.38.19-1.22v-.19a2.09,2.09,0,0,0-.19-1.61A2.6,2.6,0,0,0,60,78l-.29-.28-.56-.28-.47-.29-.29-.28-.18-.28-.38-1-.19-.47-.94-1.8a11,11,0,0,0-.76-.94,2.25,2.25,0,0,1-.28-.66l.19-.38c0-.09.09-.19.09-.37v-1l.38-.47.28-.47.28-.48.1-.09A1.73,1.73,0,0,0,58,67v-.28l-.09-1.33v-.09a.09.09,0,0,0,.09-.09l.38-.48a.28.28,0,0,0,.09-.18s.19-.38.29-.66h.19l.56-.1a.69.69,0,0,0,.38-.19,3.52,3.52,0,0,0,.57-.19h0l.37.38a.81.81,0,0,0,.47.28l.57.19c.09,0,.28,0,.28.1l.57.09,1.41.1.19.18c.1,0,.19.1.29.1a3.22,3.22,0,0,1,.56.19c.19.09.47.37.66.37a7.22,7.22,0,0,1,.76.85,1.57,1.57,0,0,0,.94.76l1.7.38h-.1s1.14.28,1.23,1V69a1.54,1.54,0,0,0,.47.85l.38.38a2.43,2.43,0,0,0,1.13.84,6,6,0,0,0,.85.57l.28.28.19.19.66.38a.9.9,0,0,0,.47.09l.38.1a2.22,2.22,0,0,0,.57.09l.38.38a3.76,3.76,0,0,0,.66.47v.19c0,.28-.1.66-.76,1.13a3.76,3.76,0,0,0-1.6,2.17h0a3.94,3.94,0,0,1-.29,1,9.09,9.09,0,0,0-.47.94l-.19.66a4.54,4.54,0,0,1-.85.66s-.84.29-1,.38a8.5,8.5,0,0,0-1,.47l-.47.19a1.57,1.57,0,0,0-1,1.13s-.09.57-.19,1l-.09.09-.47.76-.29.19s-.38.47-.47.47l-.38.37s-.56.38-.94.66a1,1,0,0,0-.75.19l-.38.29a.94.94,0,0,0-.38.66,1.31,1.31,0,0,1-.09.47,1,1,0,0,0-.29.09L63,88.16a.82.82,0,0,0-.56.57.39.39,0,0,0-.1.28h-.19a.82.82,0,0,0-.56.57c-.1.09-.1.28-.1.47a.52.52,0,0,0,.1.37l-.38.19a1,1,0,0,0-.57,1v.19h0a3.75,3.75,0,0,0-.56.47c-.19.09-.19.19-.29.37l-.09.29v.28h-.09c-.19-.19-.19-.38-.19-.75A2,2,0,0,1,59.47,91.37ZM35.89,86.08a3.4,3.4,0,1,1,3.39-3.39A3.38,3.38,0,0,1,35.89,86.08ZM80.79,54a7.2,7.2,0,0,0-.85.47l-.19.19-.94,1a7.64,7.64,0,0,0-1,1.7L77.58,59s-.09.85-.09.94a9,9,0,0,0-.38.95L77,62.31v.1l.09.75a.73.73,0,0,0,.19.47s.66.85.76.95.37.66.37.66l.29.66c0,.09.09.09.09.18l.57.85a.83.83,0,0,0,.56.38l1.14.38a1.07,1.07,0,0,0,1-.28h0a1,1,0,0,0,.47-.1h.67a1.29,1.29,0,0,0,.56-.19,1.09,1.09,0,0,0,.28-.19h.19a1.46,1.46,0,0,0,.66.48v.28a8,8,0,0,1-.19.94v.19l.1,1.23a4.86,4.86,0,0,0,.38.85v1.41a7,7,0,0,0-.1.85c-.09.19-.47.76-.47.76s-.38.47-.47,2.16l-.19,1v1.7l.28,1.51v.09a.93.93,0,0,0,.76,1,1,1,0,0,0,1.13-.47c7.26-13.21,3.3-24.44,3.11-24.91L89,55.24c0-.1-.09-.1-.09-.19l-.38-.57a1.18,1.18,0,0,0-1-.47v-.09a.83.83,0,0,0,.57-.29.89.89,0,0,0,.28-.94c-1.13-4.53-5.09-10.19-5.28-10.47a1.22,1.22,0,0,0-.85-.47.88.88,0,0,0-.47.09l-.47-.47a.84.84,0,0,0-1.13,0,1,1,0,0,0-.48.85v.28a.7.7,0,0,0-.18.38l-.1.85v.09a.32.32,0,0,0,.1.28l.18.57a1,1,0,0,0,1,.66h.09a.33.33,0,0,0,.1.28l.19.19V46a.61.61,0,0,0,.09.38l.19.47a.09.09,0,0,0,.09.09.52.52,0,0,0-.37.1c-.29.09-.48.19-.57.47l-.28.47a1.28,1.28,0,0,0-.19.57v.94a.6.6,0,0,0,.09.38,3.24,3.24,0,0,1,.19.47,7.15,7.15,0,0,1-.28.85c0,.09-.1.19-.1.28a.87.87,0,0,0,.38.76l.76.66c.09.09.18.09.28.19h.09c-.09.09-.19.18-.19.28C81.08,53.44,80.89,53.82,80.79,54Zm3.78-3h0a.7.7,0,0,1,.18.38c-.09,0-.18,0-.18-.1Zm-.76-3.21a3.43,3.43,0,0,0-.19-.66c.19.38.47.85.66,1.23-.09,0-.28.19-.47.38h-.19l-.09.09a1.48,1.48,0,0,0,.19-.28,1.42,1.42,0,0,0,.19-.57C83.81,48,83.81,47.88,83.81,47.78Zm-2,1.61a1.41,1.41,0,0,0,.75.19c.19,0,.29-.1.48-.1-.1.1-.1.19-.19.28l-.19.29-.19.94h0c-.28.09-.47.09-.57.19h0c.1-.28.19-.47.19-.47s.1-.19.1-.29a.52.52,0,0,0-.1-.37,4.84,4.84,0,0,1-.28-.66Zm-.28,6.51,1-.76.1-.09h0V55a1.82,1.82,0,0,0,.19-.56,3,3,0,0,0,.56-.66c.1,0,.19-.19.38-.29h.38c-.1,0,.85.19.85.19h.19a1.31,1.31,0,0,1,.09.47.72.72,0,0,0,.19.38l.09.19h0a2.93,2.93,0,0,0,.85,1.51l.57.57a.72.72,0,0,0,.47.18,25.73,25.73,0,0,1,1,7.46,31.71,31.71,0,0,1-1,7.45V70.9c0-.1-.09-.38-.09-.48l-.28-.75s-.1-.57-.1-.66a8,8,0,0,1,.19-.94V66.84a.91.91,0,0,0-.75-.94,1.91,1.91,0,0,0-.47-.1,1,1,0,0,0-1-.66h-1a1.43,1.43,0,0,0-.56.19,1.09,1.09,0,0,0-.28.19h-.48l-.94.09a.8.8,0,0,0-.38.19.58.58,0,0,0-.37-.09c-.19-.19-.29-.38-.38-.47a2.88,2.88,0,0,1-.28-.57L80,63.82c0-.09-.1-.09-.1-.19s-.47-.56-.66-.85c0-.19,0-.28-.09-.37s.09-.95.09-.95l.29-.66c0-.09.09-.28.09-.38l.09-1.22v-1c.1-.18.38-.84.57-.94a8.94,8.94,0,0,1,.94-.94A.63.63,0,0,1,81.55,55.9Zm-24,40.56a1.35,1.35,0,0,0-1,.29l-.19.18a3.24,3.24,0,0,1-.47.19c-.47-.09-1.14-.19-1.14-.19l-.28-.09a1.16,1.16,0,0,0-.94.09,1,1,0,0,0-.47.85v1.14a1,1,0,0,0,.94,1c5.19.29,12.36-.19,17.17-3.87a.94.94,0,0,0,.19-1.41l-.19-.28A1,1,0,0,0,69.94,94l-1.6.66a.36.36,0,0,0-.19.09.83.83,0,0,1-.57.19H67.4l-1,.1-1.23.37-.28.1c-.1,0-.85.09-.85.09l-1.42.1H60.79l-.19-.19a1.17,1.17,0,0,0-.94-.19l-.85.28a1.19,1.19,0,0,0-.66.66c0,.1-.09.19-.09.29v.09l-.1.1C58.06,96.75,57.87,96.56,57.58,96.46Zm.1,1.13a1.31,1.31,0,0,1,.28-.37h0A1.5,1.5,0,0,1,57.68,97.59Zm.38-.37Zm1.13-.38ZM35.42,55.42a6.57,6.57,0,0,0,6.32-4.9H53.15v.66a1,1,0,0,0,.47.75c.1.1.19.1.38.19-.09,0-.09,0-.19.1a1.12,1.12,0,0,0-.66.94v2a1.42,1.42,0,0,0,.19.57l.09.09a1.4,1.4,0,0,0-.18.57v.56c0,.38.47.85.84,1l.38.19c.1,0,.28.19.38.19a6.85,6.85,0,0,1,1.13.28,3,3,0,0,0,.57.29.57.57,0,0,0,.37.09h.57v.57a1.16,1.16,0,0,0,.38.75,1,1,0,0,0,.85.19s.56-.1.85-.19a.47.47,0,0,0,.28.09.88.88,0,0,0,.85,0l1.41-.56a1.16,1.16,0,0,0,.66-1,1,1,0,0,0-.75-.94l-.85-.19h-.38a1.31,1.31,0,0,0-.47.09l-.09-.09a.86.86,0,0,0-.95,0l-.56.28a.89.89,0,0,0-.19-.66l-.38-.66c-.09-.09-.19-.28-.38-.28l-1-.47c-.1,0-.57-.19-1.23-.38l.09-.38c0-.09.1-.19.1-.28v-.94A1.9,1.9,0,0,0,55,52.41l-.1-.1a.73.73,0,0,0-.37-.19h-.1a.51.51,0,0,0,.47-.19l1.14-1.13a2,2,0,0,0,.66-1.13.83.83,0,0,0-.29-.57h0c.1-.18.29-.66.29-.66v-.09a.78.78,0,0,1,.37-.47,1.35,1.35,0,0,0,.76-1.13h.47l1.13-.19h.1l.09-.1.57-.38a1,1,0,0,0,.47-.84c0-.1,0-.1-.1-.19a10,10,0,0,1,1.14.28l.28.09.85.19a1.1,1.1,0,0,0,1-.66.57.57,0,0,0,.09-.37,1.53,1.53,0,0,0-.47-.95l-1-.94-.18-.19s-.66-.38-.95-.57a2.77,2.77,0,0,0-.37-.47c-.1-.09-.19-.28-.38-.28l-.28-.57c-.1-.09-.19-.09-.38-.09a5,5,0,0,0-.66-.1c-.1,0-.1,0-.19-.09l-.1-.09v-.1a.61.61,0,0,0-.09-.38,1,1,0,0,0-.66-.56,1,1,0,0,0-.38-.1l-.47-.47L57,38.16l-.1-.09c0-.1.1-.1.1-.19v-.47c0-.19-.1-.29-.19-.48s.09-.09.09-.18v-.19h0l.19.28.29.28a5.29,5.29,0,0,1,.94.76l1,1.13c.75,1,1.13,1.23,1.32,1.23a6.75,6.75,0,0,0,.75.28c.1.09.19.28.38.38a1.37,1.37,0,0,0,.85,0l.38-.19a1.05,1.05,0,0,0,.56-1v-.28l-.28-1c0-.09-.09-.19-.09-.28a2.82,2.82,0,0,1-.29-.57,4.65,4.65,0,0,0,.38-.56c0-.1.09-.28.09-.38h0a1.31,1.31,0,0,0,.76-1.23h0a1.59,1.59,0,0,0-1-1.41c-.28-.28-.66-.57-.66-.66a1.7,1.7,0,0,0-1.41-1l-.38-.09s-.66-.38-1-.57h.09a.43.43,0,0,1,.29.1.71.71,0,0,0,.56.18l1.8.1a1,1,0,0,0,1-.76l.1-.37a1,1,0,0,0-.1-.76,1,1,0,0,0-.66-.47,42.65,42.65,0,0,0-8.39-.85,1.11,1.11,0,0,0-.76.28.35.35,0,0,0-.47.38v3.11a1,1,0,0,0,.47.85,1.14,1.14,0,0,0-.47.85V47.41H41.64a6.41,6.41,0,0,0-6.32-4.91A6.52,6.52,0,0,0,28.81,49,6.65,6.65,0,0,0,35.42,55.42Zm20.47-9.05Zm2.17-2a1.28,1.28,0,0,0-.57-.19H57.3l.38-.19A1.51,1.51,0,0,1,58.06,44.39ZM55.23,31.75a1,1,0,0,0,.75.47h.66c.28.19,1.61.75,1.61.75l.94.57,1,.47.19.09a3.71,3.71,0,0,0,.94,1.14c-.19.09-.28.37-.38.56v.28c0,.1.1.19.1.29-.19.19-.48.47-.48.75v.19c-.28-.28-.94-1-.94-1s-.09-.09-.19-.09a1.48,1.48,0,0,1-.28-.19,1.42,1.42,0,0,0-.19-.57l-.85-1.22a1,1,0,0,0-.85-.47H57a.31.31,0,0,0-.1-.19c-.09-.1-.09-.19-.18-.19A14.52,14.52,0,0,0,55,32v-.28Zm0,8.58c.09,0,.19.09.28.09l.66-.09c.09,0,.09-.09.19-.09l.47.47c.09.09.09.09.19.09.09.19.09.38.19.47a3.56,3.56,0,0,0,.47.38.32.32,0,0,0-.28.1l-.76.37c-.09.1-.19.1-.28.19l-.47.47a1.07,1.07,0,0,0-.29.76.86.86,0,0,0,.29.66,1.06,1.06,0,0,0,.75.28v.1L56,45.71V46a3,3,0,0,0-.75.85ZM35.42,45.52a3.4,3.4,0,1,1-3.4,3.4A3.32,3.32,0,0,1,35.42,45.52Z" transform="translate(-2.96 -3.35)"/></g><g class="cls-4"><path class="cls-2" d="M148.19,49.9a15.86,15.86,0,0,1-.51,4.14,11.36,11.36,0,0,1-1.49,3.37,9.29,9.29,0,0,1-2.44,2.48,9.81,9.81,0,0,1-3.34,1.46,10.46,10.46,0,0,0,.57,2.9A5.39,5.39,0,0,0,142.05,66a3.57,3.57,0,0,0,1.4.9,5.21,5.21,0,0,0,1.57.25h.51V69h-2.3a9.48,9.48,0,0,1-2.83-.43A7.25,7.25,0,0,1,136,64.94a8.84,8.84,0,0,1-.92-3.47,9.92,9.92,0,0,1-3.76-1.3,9,9,0,0,1-2.66-2.48,10.68,10.68,0,0,1-1.59-3.48,17.41,17.41,0,0,1-.52-4.35A16.18,16.18,0,0,1,127.2,45a10,10,0,0,1,2-3.69A9,9,0,0,1,132.62,39a12.7,12.7,0,0,1,4.79-.83A12,12,0,0,1,142,39a9.21,9.21,0,0,1,3.38,2.38,10.31,10.31,0,0,1,2.09,3.7A15.53,15.53,0,0,1,148.19,49.9Zm-16.28,0A25.11,25.11,0,0,0,132.2,54a10,10,0,0,0,1,3,4.83,4.83,0,0,0,1.69,1.9,5.25,5.25,0,0,0,5.06,0,4.66,4.66,0,0,0,1.68-1.9,10,10,0,0,0,.93-3,25.11,25.11,0,0,0,.29-4.09,25.15,25.15,0,0,0-.29-4.1,10.08,10.08,0,0,0-.93-3,4.75,4.75,0,0,0-1.67-1.89,4.64,4.64,0,0,0-2.51-.65,4.46,4.46,0,0,0-4.25,2.54,10.07,10.07,0,0,0-1,3A25.15,25.15,0,0,0,131.91,49.9Z" transform="translate(-2.96 -3.35)"/></g><g class="cls-4"><path class="cls-2" d="M164.12,61.35l-.7-2.27h-.15a5.79,5.79,0,0,1-1.05,1.34,4.4,4.4,0,0,1-1.2.78,5.16,5.16,0,0,1-1.36.37,11.56,11.56,0,0,1-1.46.09,4.76,4.76,0,0,1-3.83-1.55A7.18,7.18,0,0,1,153,55.33V48.16a4.41,4.41,0,0,0-.12-1.14,1.65,1.65,0,0,0-.39-.69,1.51,1.51,0,0,0-.68-.34,4.81,4.81,0,0,0-1-.09h-.06V44.19h7.11V54.44A13,13,0,0,0,158,56.3a4.78,4.78,0,0,0,.4,1.42,2.09,2.09,0,0,0,.75.9,2,2,0,0,0,1.17.32,2.35,2.35,0,0,0,2.22-1.3,4.83,4.83,0,0,0,.52-1.53,11.37,11.37,0,0,0,.16-2V47.94a2.82,2.82,0,0,0-.18-1.11,1.54,1.54,0,0,0-.5-.61,1.77,1.77,0,0,0-.74-.27,6.37,6.37,0,0,0-.89-.05h-.09V44.19h7.26V57.63a2.91,2.91,0,0,0,.17,1.1,1.34,1.34,0,0,0,.44.6,1.37,1.37,0,0,0,.68.26,5.57,5.57,0,0,0,.85.06h.27v1.7Z" transform="translate(-2.96 -3.35)"/></g><g class="cls-4"><path class="cls-2" d="M183.08,59.18a2.23,2.23,0,0,0,.82-.14,1.58,1.58,0,0,0,.58-.46,2.6,2.6,0,0,0,.4-.8,11.39,11.39,0,0,0,.31-1.2l.19-1h1.89l-.16,5.8H171.88V60l9.43-13.66h-4.67a1.65,1.65,0,0,0-.62.1,1.17,1.17,0,0,0-.48.36,2.46,2.46,0,0,0-.38.69,9.89,9.89,0,0,0-.35,1.08l-.19.77H172.7l.39-5.19h13.82v1.38l-9.47,13.61Z" transform="translate(-2.96 -3.35)"/></g><g class="cls-4"><path class="cls-2" d="M197.47,45.74a1.81,1.81,0,0,0-1.69,1,3.33,3.33,0,0,0-.35,1.09,8.44,8.44,0,0,0-.1,1.38,8.36,8.36,0,0,1-3.24-.48A1.69,1.69,0,0,1,191,47.05a2.26,2.26,0,0,1,.52-1.5,3.87,3.87,0,0,1,1.43-1A8.23,8.23,0,0,1,195,44a17.2,17.2,0,0,1,2.55-.18,12.86,12.86,0,0,1,2.95.29,5.22,5.22,0,0,1,2.09.93,3.82,3.82,0,0,1,1.26,1.68,6.73,6.73,0,0,1,.42,2.53v8.16a5.4,5.4,0,0,0,.1,1.09,1.69,1.69,0,0,0,.32.7,1.31,1.31,0,0,0,.6.37,3.35,3.35,0,0,0,.9.11h.13v1.7h-6l-.68-2.2h-.28a14.46,14.46,0,0,1-1,1.11,4.64,4.64,0,0,1-1,.79,4,4,0,0,1-1.19.46,7.27,7.27,0,0,1-1.57.15,6,6,0,0,1-2-.31,4.29,4.29,0,0,1-1.59-1,4.45,4.45,0,0,1-1.07-1.63,6.19,6.19,0,0,1-.39-2.3,4.37,4.37,0,0,1,1.79-3.86,10,10,0,0,1,5.38-1.36l2.62-.09V49.38q0-.8-.06-1.47a3.67,3.67,0,0,0-.27-1.15,1.51,1.51,0,0,0-.6-.75A1.82,1.82,0,0,0,197.47,45.74Zm-2.85,10.84a3.93,3.93,0,0,0,.44,2.07,1.5,1.5,0,0,0,1.38.68,2.55,2.55,0,0,0,1.24-.29,2.65,2.65,0,0,0,.95-.82,3.71,3.71,0,0,0,.61-1.28,6.43,6.43,0,0,0,.21-1.7V52.83l-1.43.1a5.08,5.08,0,0,0-1.61.3,2.6,2.6,0,0,0-1,.71,2.71,2.71,0,0,0-.56,1.11A5.84,5.84,0,0,0,194.62,56.58Z" transform="translate(-2.96 -3.35)"/></g><g class="cls-4"><path class="cls-2" d="M218.72,61.35H208v-1.7h.09a6,6,0,0,0,1-.08,1.81,1.81,0,0,0,.79-.32,1.56,1.56,0,0,0,.5-.7,3.3,3.3,0,0,0,.18-1.2V48.07a3.19,3.19,0,0,0-.16-1.13,1.53,1.53,0,0,0-.47-.67,1.46,1.46,0,0,0-.73-.3,5.49,5.49,0,0,0-.95-.07h-.09V44.19h6.47l.64,2.5h.15a7,7,0,0,1,.69-1.25,3.5,3.5,0,0,1,.9-.9,3.83,3.83,0,0,1,1.23-.54,7,7,0,0,1,1.7-.18,4.69,4.69,0,0,1,2.78.66,2.28,2.28,0,0,1,.89,1.93,2.69,2.69,0,0,1-1.06,2.28,4.87,4.87,0,0,1-3,.82,9.63,9.63,0,0,0-.07-1.16,2.54,2.54,0,0,0-.25-.83,1.24,1.24,0,0,0-.49-.5,1.54,1.54,0,0,0-.75-.17,1.63,1.63,0,0,0-1,.28,2.54,2.54,0,0,0-.69.73,4.18,4.18,0,0,0-.46,1,7.89,7.89,0,0,0-.28,1.14,8.89,8.89,0,0,0-.14,1.08c0,.35,0,.64,0,.89v5.54a3.24,3.24,0,0,0,.17,1.13,1.56,1.56,0,0,0,.47.65,1.8,1.8,0,0,0,.71.29,6.3,6.3,0,0,0,.89.07h1Z" transform="translate(-2.96 -3.35)"/></g><g class="cls-4"><path class="cls-2" d="M232.73,45.74a1.93,1.93,0,0,0-1,.26,1.77,1.77,0,0,0-.66.72,3.11,3.11,0,0,0-.35,1.09,8.39,8.39,0,0,0-.11,1.38,8.43,8.43,0,0,1-3.24-.48,1.69,1.69,0,0,1-1.08-1.66,2.26,2.26,0,0,1,.52-1.5,3.83,3.83,0,0,1,1.42-1A8.47,8.47,0,0,1,230.3,44a17.24,17.24,0,0,1,2.56-.18,12.77,12.77,0,0,1,2.94.29,5.33,5.33,0,0,1,2.1.93,3.82,3.82,0,0,1,1.26,1.68,6.73,6.73,0,0,1,.42,2.53v8.16a4.76,4.76,0,0,0,.1,1.09,1.57,1.57,0,0,0,.32.7,1.27,1.27,0,0,0,.59.37,3.43,3.43,0,0,0,.91.11h.12v1.7h-6l-.67-2.2h-.28c-.36.42-.69.8-1,1.11a4.89,4.89,0,0,1-1,.79,4.1,4.1,0,0,1-1.2.46,7.15,7.15,0,0,1-1.57.15,6,6,0,0,1-2-.31,4.42,4.42,0,0,1-1.6-1,4.58,4.58,0,0,1-1.07-1.63,6.19,6.19,0,0,1-.39-2.3,4.39,4.39,0,0,1,1.79-3.86,10,10,0,0,1,5.38-1.36l2.63-.09V49.38q0-.8-.06-1.47a4,4,0,0,0-.27-1.15,1.62,1.62,0,0,0-.6-.75A1.87,1.87,0,0,0,232.73,45.74Zm-2.84,10.84a3.93,3.93,0,0,0,.44,2.07,1.5,1.5,0,0,0,1.37.68A2.59,2.59,0,0,0,233,59a2.83,2.83,0,0,0,1-.82,3.9,3.9,0,0,0,.61-1.28,6.43,6.43,0,0,0,.21-1.7V52.83l-1.44.1a5.19,5.19,0,0,0-1.61.3,2.6,2.6,0,0,0-1,.71,2.84,2.84,0,0,0-.56,1.11A6.33,6.33,0,0,0,229.89,56.58Z" transform="translate(-2.96 -3.35)"/></g><g class="cls-4"><path class="cls-2" d="M244.89,59.05a3.27,3.27,0,0,1,.2-1.22,2,2,0,0,1,.56-.79,2.12,2.12,0,0,1,.83-.43,4.36,4.36,0,0,1,1-.12,4,4,0,0,1,1,.12,2.23,2.23,0,0,1,.84.43,2,2,0,0,1,.57.79,3.62,3.62,0,0,1,0,2.43,2.08,2.08,0,0,1-.57.78,2.39,2.39,0,0,1-.84.43,4,4,0,0,1-1,.13,4.36,4.36,0,0,1-1-.13,2.26,2.26,0,0,1-.83-.43,2.06,2.06,0,0,1-.56-.78A3.29,3.29,0,0,1,244.89,59.05Z" transform="translate(-2.96 -3.35)"/></g><g class="cls-4"><path class="cls-2" d="M261.83,61.66a11,11,0,0,1-3.23-.45,6,6,0,0,1-2.51-1.5A7,7,0,0,1,254.47,57a12.71,12.71,0,0,1-.58-4.14,13.35,13.35,0,0,1,.6-4.32,7.2,7.2,0,0,1,1.66-2.79,6.08,6.08,0,0,1,2.49-1.49,10.63,10.63,0,0,1,3.09-.44,13.12,13.12,0,0,1,2.74.25,7,7,0,0,1,2,.72,3.36,3.36,0,0,1,1.21,1.07,2.3,2.3,0,0,1,.42,1.32,2.85,2.85,0,0,1-.18,1,2.06,2.06,0,0,1-.64.87,3.67,3.67,0,0,1-1.27.61,7.33,7.33,0,0,1-2.05.23,13.09,13.09,0,0,0-.1-1.57A5.3,5.3,0,0,0,263.5,47a2.38,2.38,0,0,0-.63-.89,1.49,1.49,0,0,0-1-.34,2.33,2.33,0,0,0-1.26.34,2.57,2.57,0,0,0-1,1.14A7.65,7.65,0,0,0,259,49.4a22.82,22.82,0,0,0-.21,3.4,10.25,10.25,0,0,0,.89,4.86,3.06,3.06,0,0,0,2.9,1.61,6,6,0,0,0,1.56-.19,5.56,5.56,0,0,0,1.32-.55,4.75,4.75,0,0,0,1-.83,4.67,4.67,0,0,0,.73-1,1.34,1.34,0,0,1,.57.63,1.91,1.91,0,0,1,.19.84,2.47,2.47,0,0,1-.36,1.23,3.34,3.34,0,0,1-1.12,1.13,6.29,6.29,0,0,1-1.93.83A10.81,10.81,0,0,1,261.83,61.66Z" transform="translate(-2.96 -3.35)"/></g><g class="cls-4"><path class="cls-2" d="M287.36,52.71q0,4.51-2.12,6.73c-1.41,1.48-3.49,2.22-6.22,2.22a10.09,10.09,0,0,1-3.46-.55,6.74,6.74,0,0,1-2.6-1.67,7.4,7.4,0,0,1-1.64-2.79,12.35,12.35,0,0,1-.57-3.94q0-4.51,2.12-6.72t6.24-2.2a10.22,10.22,0,0,1,3.44.54,6.79,6.79,0,0,1,2.6,1.66,7.4,7.4,0,0,1,1.64,2.79A12.24,12.24,0,0,1,287.36,52.71Zm-11.64,0a22.18,22.18,0,0,0,.18,3,7.74,7.74,0,0,0,.58,2.17,3.12,3.12,0,0,0,1,1.32,2.91,2.91,0,0,0,3.11,0,3.18,3.18,0,0,0,1-1.32,7.43,7.43,0,0,0,.57-2.17,25.17,25.17,0,0,0,0-6,7.93,7.93,0,0,0-.58-2.15,3.1,3.1,0,0,0-1-1.29,3.06,3.06,0,0,0-3.13,0,3.08,3.08,0,0,0-1,1.29,7.62,7.62,0,0,0-.56,2.15A23.92,23.92,0,0,0,275.72,52.71Z" transform="translate(-2.96 -3.35)"/></g><g class="cls-4"><path class="cls-2" d="M302.27,61.35V50.82a11.21,11.21,0,0,0-.14-1.84,4.37,4.37,0,0,0-.43-1.35,2.31,2.31,0,0,0-.8-.84,2.37,2.37,0,0,0-1.2-.28,2.09,2.09,0,0,0-1.32.4,2.86,2.86,0,0,0-.86,1.09,6.13,6.13,0,0,0-.46,1.58,12.59,12.59,0,0,0-.14,1.88v6.11a2.91,2.91,0,0,0,.17,1.08,1.44,1.44,0,0,0,.46.63,1.62,1.62,0,0,0,.72.3,7,7,0,0,0,1,.07h.1v1.7H289.5v-1.7h.06a7.47,7.47,0,0,0,1-.07,1.85,1.85,0,0,0,.79-.31,1.56,1.56,0,0,0,.53-.67,3.1,3.1,0,0,0,.18-1.16V47.88a2.93,2.93,0,0,0-.16-1.08,1.46,1.46,0,0,0-.47-.63,1.71,1.71,0,0,0-.73-.3,6.71,6.71,0,0,0-.95-.07h-.09V44.19h6.72l.42,2.28H297A6.07,6.07,0,0,1,298,45a4.1,4.1,0,0,1,1.14-.82,4.76,4.76,0,0,1,1.29-.36,13.17,13.17,0,0,1,1.43-.07,6.64,6.64,0,0,1,3,.63,3.86,3.86,0,0,1,1.83,2H307A5.35,5.35,0,0,1,308,45a4.29,4.29,0,0,1,1.22-.82,5.25,5.25,0,0,1,1.36-.36,14,14,0,0,1,1.46-.07,6.46,6.46,0,0,1,2.22.36A4.16,4.16,0,0,1,316,45.26a5,5,0,0,1,1,1.91,9.55,9.55,0,0,1,.36,2.79v7.42a4.28,4.28,0,0,0,.14,1.2,1.28,1.28,0,0,0,1.07,1,5.12,5.12,0,0,0,.93.08h.1v1.7h-7.11V50.82a7.19,7.19,0,0,0-.57-3.19,2,2,0,0,0-2-1.12,2.22,2.22,0,0,0-1.28.36,3,3,0,0,0-.87,1,5.08,5.08,0,0,0-.49,1.47,9.81,9.81,0,0,0-.16,1.75v6.3a4.28,4.28,0,0,0,.14,1.2,1.47,1.47,0,0,0,.4.68,1.39,1.39,0,0,0,.67.31,5.27,5.27,0,0,0,.95.08h.1v1.7Z" transform="translate(-2.96 -3.35)"/></g><g class="cls-4"><path class="cls-3" d="M123.66,84.27a3.44,3.44,0,0,0-2.84,1.28,6.72,6.72,0,0,0,0,7.12,3.5,3.5,0,0,0,2.88,1.21,7.52,7.52,0,0,0,1.59-.16c.5-.11,1-.25,1.59-.42v1.8a9.67,9.67,0,0,1-3.43.58A5.46,5.46,0,0,1,119.08,94a7.15,7.15,0,0,1-1.52-4.9,7.88,7.88,0,0,1,.74-3.5,5.2,5.2,0,0,1,2.12-2.3,6.36,6.36,0,0,1,3.26-.8,8.1,8.1,0,0,1,3.64.82L126.56,85a13,13,0,0,0-1.37-.54A5.15,5.15,0,0,0,123.66,84.27Z" transform="translate(-2.96 -3.35)"/></g><g class="cls-4"><path class="cls-3" d="M132.45,95.5h-2.07V81.82h2.07Z" transform="translate(-2.96 -3.35)"/></g><g class="cls-4"><path class="cls-3" d="M145,90.62a5.28,5.28,0,0,1-1.23,3.72,4.36,4.36,0,0,1-3.4,1.34,4.67,4.67,0,0,1-2.41-.62,4.05,4.05,0,0,1-1.6-1.77,5.9,5.9,0,0,1-.57-2.67A5.28,5.28,0,0,1,137,86.93a4.39,4.39,0,0,1,3.42-1.33A4.29,4.29,0,0,1,143.79,87,5.22,5.22,0,0,1,145,90.62Zm-7.08,0c0,2.25.83,3.37,2.49,3.37s2.46-1.12,2.46-3.37-.83-3.33-2.48-3.33a2.13,2.13,0,0,0-1.89.86A4.49,4.49,0,0,0,138,90.62Z" transform="translate(-2.96 -3.35)"/></g><g class="cls-4"><path class="cls-3" d="M155.25,95.5,155,94.23h-.1a3,3,0,0,1-1.23,1.06,4,4,0,0,1-1.81.39,3.59,3.59,0,0,1-2.64-.88,3.67,3.67,0,0,1-.87-2.67V85.78h2.08v6a2.63,2.63,0,0,0,.46,1.68,1.75,1.75,0,0,0,1.43.56,2.26,2.26,0,0,0,1.91-.78,4.27,4.27,0,0,0,.62-2.61V85.78h2.07V95.5Z" transform="translate(-2.96 -3.35)"/></g><g class="cls-4"><path class="cls-3" d="M164.1,95.68a3.39,3.39,0,0,1-2.84-1.32,7.2,7.2,0,0,1,0-7.42,3.42,3.42,0,0,1,2.86-1.34A3.34,3.34,0,0,1,167.06,87h.1a12.4,12.4,0,0,1-.15-1.65V81.82h2.08V95.5h-1.62l-.36-1.27H167A3.31,3.31,0,0,1,164.1,95.68Zm.56-1.67a2.24,2.24,0,0,0,1.85-.72,3.74,3.74,0,0,0,.6-2.33v-.29a4.36,4.36,0,0,0-.6-2.61,2.23,2.23,0,0,0-1.87-.77,1.91,1.91,0,0,0-1.68.88,4.56,4.56,0,0,0-.59,2.52,4.44,4.44,0,0,0,.57,2.47A1.94,1.94,0,0,0,164.66,94Z" transform="translate(-2.96 -3.35)"/></g><g class="cls-4"><path class="cls-3" d="M172.73,94.4a1.31,1.31,0,0,1,.34-1,1.5,1.5,0,0,1,1.94,0,1.6,1.6,0,0,1,0,2,1.26,1.26,0,0,1-1,.36,1.24,1.24,0,0,1-1-.36A1.37,1.37,0,0,1,172.73,94.4Z" transform="translate(-2.96 -3.35)"/></g><g class="cls-4"><path class="cls-3" d="M192.29,92a3.23,3.23,0,0,1-1.24,2.69,5.37,5.37,0,0,1-3.42,1,8.12,8.12,0,0,1-3.56-.68V93a9.29,9.29,0,0,0,1.86.65,7.89,7.89,0,0,0,1.84.24,3,3,0,0,0,1.85-.47,1.66,1.66,0,0,0,0-2.5,8.28,8.28,0,0,0-2.25-1.19,5.87,5.87,0,0,1-2.47-1.62,3.45,3.45,0,0,1-.73-2.2,3.08,3.08,0,0,1,1.15-2.53,4.69,4.69,0,0,1,3.06-.92,9,9,0,0,1,3.68.8L191.43,85a8,8,0,0,0-3.06-.72,2.36,2.36,0,0,0-1.54.44,1.44,1.44,0,0,0-.53,1.17,1.66,1.66,0,0,0,.21.86,2.11,2.11,0,0,0,.69.67,13.11,13.11,0,0,0,1.74.84,9.32,9.32,0,0,1,2.08,1.1,3.13,3.13,0,0,1,1,1.15A3.39,3.39,0,0,1,192.29,92Z" transform="translate(-2.96 -3.35)"/></g><g class="cls-4"><path class="cls-3" d="M199.8,95.68a4.7,4.7,0,0,1-3.54-1.33A5,5,0,0,1,195,90.71,5.49,5.49,0,0,1,196.17,87a4.08,4.08,0,0,1,3.26-1.37,4,4,0,0,1,3,1.17A4.48,4.48,0,0,1,203.58,90v1.12h-6.47a3.19,3.19,0,0,0,.76,2.17,2.65,2.65,0,0,0,2,.76,7.45,7.45,0,0,0,1.61-.16,8.79,8.79,0,0,0,1.59-.54V95a6.26,6.26,0,0,1-1.53.51A9.28,9.28,0,0,1,199.8,95.68Zm-.37-8.51a2.09,2.09,0,0,0-1.58.62,3,3,0,0,0-.71,1.82h4.41a2.65,2.65,0,0,0-.58-1.82A2,2,0,0,0,199.43,87.17Z" transform="translate(-2.96 -3.35)"/></g><g class="cls-4"><path class="cls-3" d="M210.85,95.68a4.24,4.24,0,0,1-3.35-1.29,5.36,5.36,0,0,1-1.15-3.7,5.42,5.42,0,0,1,1.2-3.77A4.46,4.46,0,0,1,211,85.6a6.53,6.53,0,0,1,2.77.57l-.63,1.67a6.22,6.22,0,0,0-2.16-.51c-1.68,0-2.52,1.11-2.52,3.34a4,4,0,0,0,.63,2.46A2.17,2.17,0,0,0,211,94a5.35,5.35,0,0,0,2.61-.68v1.8a4,4,0,0,1-1.18.46A6.7,6.7,0,0,1,210.85,95.68Z" transform="translate(-2.96 -3.35)"/></g><g class="cls-4"><path class="cls-3" d="M223.7,95.5l-.29-1.27h-.11a2.89,2.89,0,0,1-1.22,1.06,4.09,4.09,0,0,1-1.82.39,3.61,3.61,0,0,1-2.64-.88,3.67,3.67,0,0,1-.87-2.67V85.78h2.09v6a2.63,2.63,0,0,0,.45,1.68,1.78,1.78,0,0,0,1.44.56,2.29,2.29,0,0,0,1.91-.78,4.28,4.28,0,0,0,.61-2.61V85.78h2.07V95.5Z" transform="translate(-2.96 -3.35)"/></g><g class="cls-4"><path class="cls-3" d="M234.2,85.6a4.85,4.85,0,0,1,1,.09l-.2,1.93a4,4,0,0,0-.92-.11,2.67,2.67,0,0,0-2,.81,2.94,2.94,0,0,0-.77,2.1V95.5h-2.06V85.78h1.62l.27,1.71h.1a3.93,3.93,0,0,1,1.27-1.38A3,3,0,0,1,234.2,85.6Z" transform="translate(-2.96 -3.35)"/></g><g class="cls-4"><path class="cls-3" d="M237.91,83.2a1.14,1.14,0,0,1,.3-.85,1.18,1.18,0,0,1,.87-.3,1.14,1.14,0,0,1,.84.3,1.15,1.15,0,0,1,.31.85,1.12,1.12,0,0,1-.31.83,1.1,1.1,0,0,1-.84.31,1.14,1.14,0,0,1-.87-.31A1.11,1.11,0,0,1,237.91,83.2Zm2.18,12.3H238V85.78h2.06Z" transform="translate(-2.96 -3.35)"/></g><g class="cls-4"><path class="cls-3" d="M247.67,94a5,5,0,0,0,1.51-.24v1.55a3.75,3.75,0,0,1-.88.25,5.91,5.91,0,0,1-1.12.11c-2,0-2.94-1-2.94-3.1V87.34h-1.33v-.91l1.43-.76.7-2h1.28v2.16h2.76v1.56h-2.76v5.21a1.46,1.46,0,0,0,.37,1.1A1.35,1.35,0,0,0,247.67,94Z" transform="translate(-2.96 -3.35)"/></g><g class="cls-4"><path class="cls-3" d="M250.65,85.78h2.25l2,5.51a10.33,10.33,0,0,1,.6,2.21h.07a9,9,0,0,1,.29-1.17c.14-.46.89-2.64,2.23-6.55h2.24l-4.16,11q-1.14,3-3.78,3a6,6,0,0,1-1.34-.15V98a4.89,4.89,0,0,0,1.07.11,2.19,2.19,0,0,0,2.1-1.74l.36-.91Z" transform="translate(-2.96 -3.35)"/></g><g class="cls-4"><path class="cls-3" d="M262.47,94.4a1.35,1.35,0,0,1,.33-1,1.28,1.28,0,0,1,1-.35,1.26,1.26,0,0,1,1,.36,1.38,1.38,0,0,1,.34,1,1.41,1.41,0,0,1-.34,1,1.28,1.28,0,0,1-1,.36,1.25,1.25,0,0,1-1-.36A1.41,1.41,0,0,1,262.47,94.4Z" transform="translate(-2.96 -3.35)"/></g><g class="cls-4"><path class="cls-3" d="M282.59,95.5l-1.28-3.57h-4.92l-1.25,3.57h-2.22l4.81-12.9H280l4.81,12.9Zm-1.84-5.38-1.2-3.5c-.09-.23-.21-.6-.37-1.1s-.26-.88-.32-1.11a20.55,20.55,0,0,1-.69,2.36L277,90.12Z" transform="translate(-2.96 -3.35)"/></g><g class="cls-4"><path class="cls-3" d="M295.85,95.5h-2.07v-6a2.63,2.63,0,0,0-.46-1.68,1.77,1.77,0,0,0-1.43-.55,2.29,2.29,0,0,0-1.92.77,4.32,4.32,0,0,0-.61,2.6V95.5H287.3V85.78h1.62l.29,1.27h.1A2.86,2.86,0,0,1,290.56,86a4.22,4.22,0,0,1,1.79-.38q3.5,0,3.5,3.56Z" transform="translate(-2.96 -3.35)"/></g><g class="cls-4"><path class="cls-3" d="M305.81,95.5l-.42-1.35h-.07a4.11,4.11,0,0,1-1.41,1.21,4.58,4.58,0,0,1-1.83.32,3.08,3.08,0,0,1-2.24-.78,2.9,2.9,0,0,1-.8-2.19,2.56,2.56,0,0,1,1.11-2.26,6.49,6.49,0,0,1,3.41-.84l1.67,0V89a2,2,0,0,0-.43-1.39,1.77,1.77,0,0,0-1.35-.46,4.8,4.8,0,0,0-1.43.21,11,11,0,0,0-1.32.52L300,86.45a7,7,0,0,1,1.73-.63,8.24,8.24,0,0,1,1.78-.22,4.21,4.21,0,0,1,2.8.81,3.17,3.17,0,0,1,.94,2.54V95.5Zm-3.08-1.41a2.57,2.57,0,0,0,1.81-.63,2.27,2.27,0,0,0,.68-1.76v-.84l-1.25,0a4.31,4.31,0,0,0-2.12.49,1.47,1.47,0,0,0-.67,1.33,1.31,1.31,0,0,0,.39,1A1.69,1.69,0,0,0,302.73,94.09Z" transform="translate(-2.96 -3.35)"/></g><g class="cls-4"><path class="cls-3" d="M313.23,95.5h-2.06V81.82h2.06Z" transform="translate(-2.96 -3.35)"/></g><g class="cls-4"><path class="cls-3" d="M315.71,85.78H318l2,5.51a10.33,10.33,0,0,1,.6,2.21h.07a10.92,10.92,0,0,1,.29-1.17c.14-.46.89-2.64,2.23-6.55h2.24l-4.16,11q-1.14,3-3.78,3a6,6,0,0,1-1.34-.15V98a5,5,0,0,0,1.07.11,2.19,2.19,0,0,0,2.1-1.74l.36-.91Z" transform="translate(-2.96 -3.35)"/></g><g class="cls-4"><path class="cls-3" d="M331.46,94a5,5,0,0,0,1.51-.24v1.55a3.85,3.85,0,0,1-.89.25,5.83,5.83,0,0,1-1.12.11c-1.95,0-2.93-1-2.93-3.1V87.34H326.7v-.91l1.42-.76.71-2h1.27v2.16h2.77v1.56H330.1v5.21a1.5,1.5,0,0,0,.37,1.1A1.37,1.37,0,0,0,331.46,94Z" transform="translate(-2.96 -3.35)"/></g><g class="cls-4"><path class="cls-3" d="M335.79,83.2a1.14,1.14,0,0,1,.3-.85,1.18,1.18,0,0,1,.87-.3,1.14,1.14,0,0,1,.84.3,1.11,1.11,0,0,1,.31.85,1.08,1.08,0,0,1-.31.83,1.1,1.1,0,0,1-.84.31,1.14,1.14,0,0,1-.87-.31A1.11,1.11,0,0,1,335.79,83.2ZM338,95.5h-2.06V85.78H338Z" transform="translate(-2.96 -3.35)"/></g><g class="cls-4"><path class="cls-3" d="M345.85,95.68a4.28,4.28,0,0,1-3.36-1.29,6.55,6.55,0,0,1,.06-7.47A4.43,4.43,0,0,1,346,85.6a6.5,6.5,0,0,1,2.77.57l-.62,1.67a6.22,6.22,0,0,0-2.16-.51c-1.68,0-2.53,1.11-2.53,3.34a4,4,0,0,0,.63,2.46,2.18,2.18,0,0,0,1.84.82,5.35,5.35,0,0,0,2.61-.68v1.8a3.77,3.77,0,0,1-1.18.46A6.61,6.61,0,0,1,345.85,95.68Z" transform="translate(-2.96 -3.35)"/></g><g class="cls-4"><path class="cls-3" d="M358.37,92.73a2.56,2.56,0,0,1-1,2.19,5,5,0,0,1-3,.76,7.08,7.08,0,0,1-3.12-.59V93.3a7.62,7.62,0,0,0,3.19.79c1.27,0,1.91-.38,1.91-1.15a.9.9,0,0,0-.21-.61,2.22,2.22,0,0,0-.7-.51,10.79,10.79,0,0,0-1.34-.6,6.15,6.15,0,0,1-2.27-1.3,2.41,2.41,0,0,1-.6-1.69,2.23,2.23,0,0,1,1-1.94A4.77,4.77,0,0,1,355,85.6a7.65,7.65,0,0,1,3.24.7l-.67,1.55a7.24,7.24,0,0,0-2.64-.65c-1.09,0-1.64.31-1.64.93a1,1,0,0,0,.43.78,9.23,9.23,0,0,0,1.86.87,8.64,8.64,0,0,1,1.75.85,2.71,2.71,0,0,1,.81.89A2.67,2.67,0,0,1,358.37,92.73Z" transform="translate(-2.96 -3.35)"/></g><g class="cls-4"><path class="cls-3" d="M361.29,94.4a1.35,1.35,0,0,1,.34-1,1.28,1.28,0,0,1,1-.35,1.26,1.26,0,0,1,1,.36,1.38,1.38,0,0,1,.34,1,1.41,1.41,0,0,1-.34,1,1.28,1.28,0,0,1-1,.36,1.25,1.25,0,0,1-1-.36A1.41,1.41,0,0,1,361.29,94.4Z" transform="translate(-2.96 -3.35)"/></g></svg>