<?xml version="1.0" encoding="UTF-8"?>
<svg width="373px" height="132px" viewBox="0 0 373 132" version="1.1" xmlns="http://www.w3.org/2000/svg" xmlns:xlink="http://www.w3.org/1999/xlink">
    <!-- Generator: Sketch 52.5 (67469) - http://www.bohemiancoding.com/sketch -->
    <title>Artboard</title>
    <desc>Created with Sketch.</desc>
    <g id="Artboard" stroke="none" stroke-width="1" fill="none" fill-rule="evenodd">
        <g id="Quzara-Logo" transform="translate(5.000000, 6.000000)">
            <g id="logo_item--logo_0">
                <path d="M49.68,104.43 C49.68,106.412702 51.2872977,108.02 53.27,108.02 C79.572708,107.640797 100.696332,86.2104413 100.696332,59.905 C100.696332,33.5995587 79.572708,12.1692028 53.27,11.79 C51.9440247,11.7199445 50.6876651,12.387507 50.0036239,13.5255782 C49.3195827,14.6636493 49.3195827,16.0863507 50.0036239,17.2244218 C50.6876651,18.362493 51.9440247,19.0300555 53.27,18.96 C75.9357661,18.96 94.31,37.3342339 94.31,60 C94.31,82.6657661 75.9357661,101.04 53.27,101.04 C52.3398211,100.99651 51.431937,101.333084 50.7548936,101.972409 C50.0778503,102.611735 49.6898433,103.498857 49.68,104.43 Z" id="Path" fill="#A0A2A7"></path>
                <path d="M40.15,80.85 C39.4520251,83.762631 36.8246824,85.7996529 33.83,85.75 C30.4429014,85.7462763 27.6245574,83.1459171 27.3487721,79.7700626 C27.0729868,76.3942081 29.4319139,73.3708997 32.7734981,72.8174865 C36.1150823,72.2640734 39.3227337,74.3654785 40.15,77.65 L44.68,77.65 L44.68,62.26 L29.3,62.26 C28.6026618,65.1744525 25.9763822,67.2148057 22.98,67.17 C19.5945476,67.1649635 16.7780035,64.565955 16.5014431,61.191814 C16.2248826,57.8176729 18.5806243,54.7947196 21.9200718,54.2384787 C25.2595192,53.6822378 28.4679333,55.7783878 29.3,59.06 L44.68,59.06 L44.68,47.06 L39.68,47.06 C38.9793286,49.9723024 36.3551229,52.0110445 33.36,51.97 C29.9745476,51.9649635 27.1580035,49.365955 26.8814431,45.991814 C26.6048826,42.6176729 28.9606243,39.5947196 32.3000718,39.0384787 C35.6395192,38.4822378 38.8479333,40.5783878 39.68,43.86 L44.68,43.86 L44.68,16.23 C28.9189219,15.9915036 14.2519453,24.2633567 6.30175394,37.8744889 C-1.64843738,51.4856212 -1.64843738,68.3243788 6.30175394,81.9355111 C14.2519453,95.5466433 28.9189219,103.818496 44.68,103.58 L44.68,80.85 L40.15,80.85 Z" id="Path" fill="#464D57"></path>
                <path d="M53.17,0 C51.263561,0.100723245 49.769407,1.67590208 49.769407,3.585 C49.769407,5.49409792 51.263561,7.06927675 53.17,7.17 C82.3472033,7.17 106,30.8227967 106,60 C106,89.1772033 82.3472033,112.83 53.17,112.83 C51.263561,112.930723 49.769407,114.505902 49.769407,116.415 C49.769407,118.324098 51.263561,119.899277 53.17,120 C86.307085,120 113.17,93.137085 113.17,60 C113.17,26.862915 86.307085,-7.10542736e-15 53.17,0 Z M61.95,34.53 L61.95,34.65 L62.04,34.93 C62.1225445,35.2563134 62.3749647,35.5125582 62.7,35.6 L63.93,35.88 C64.02,36.07 64.21,36.16 64.3,36.26 C64.7084576,36.4763605 65.1585944,36.6025353 65.62,36.63 C65.960479,36.6121893 66.2738849,36.4388943 66.47,36.16 L66.95,35.5 C67.0503347,35.3251737 67.1117339,35.1307427 67.13,34.93 L67.13,34.65 C67.0531472,34.3564256 66.8471411,34.1136328 66.57,33.99 C66.3397889,33.8819584 66.1190192,33.7548486 65.91,33.61 L65.25,33.05 C65.0330489,32.8859434 64.7586306,32.8173389 64.49,32.86 C64.2010465,32.8948695 63.9162992,32.9585189 63.64,33.05 C63.2544341,32.9317863 62.8357039,33.0021922 62.51,33.24 C62.2458307,33.4869467 62.0790557,33.8204965 62.04,34.18 C61.9815356,34.2874358 61.9506135,34.4076883 61.95,34.53 Z M56.76,81.65 C56.76,81.56 56.47,82.78 56.47,82.78 C56.3815712,83.279536 56.3214752,83.7836749 56.29,84.29 C56.2367622,84.6344225 56.1392903,84.9705327 56,85.29 C55.8868704,85.4886845 55.7598897,85.6791556 55.62,85.86 C55.5212978,86.0319364 55.4599634,86.2227547 55.44,86.42 L55.44,87.65 C55.3340091,88.0827971 55.270376,88.5248795 55.25,88.97 C55.2521428,89.7332413 55.5330917,90.4693986 56.04,91.04 C57.0483691,91.9188454 58.4136818,92.2675937 59.72,91.98 C59.9922192,91.9139589 60.2285646,91.7456523 60.38,91.51 C60.487661,91.337766 60.5527884,91.1423837 60.57,90.94 L60.57,90.75 L60.38,89.9 C60.38,89.81 60.19,89.72 60.19,89.62 C60.5304598,89.3839912 60.7668458,89.0258305 60.85,88.62 L60.85,88.53 C61.0356695,88.3631891 61.1972192,88.1713488 61.33,87.96 L61.51,87.77 C61.7023574,87.5683855 61.8066834,87.2985769 61.8,87.02 C61.89,86.93 62.08,86.83 62.08,86.74 C62.1426926,86.65668 62.1745047,86.5541743 62.17,86.45 L62.93,86.27 L63.21,86.17 L63.68,86.08 C64.2844403,85.9332074 64.7023176,85.3816092 64.68,84.76 C64.8115671,84.774993 64.943898,84.7392279 65.05,84.66 L66.47,83.66 C66.85,83.29 67.13,83.1 67.22,82.81 C67.623977,82.5815094 67.9669818,82.2590849 68.22,81.87 C68.22,81.97 68.41,81.68 68.41,81.68 C68.69,81.4 69.16,81.02 69.16,80.46 C69.2207909,80.2758528 69.2544768,80.0838433 69.26,79.89 C69.44,79.8 69.92,79.61 69.92,79.61 L70.48,79.32 C70.48,79.32 70.67,79.23 70.67,79.32 L71.67,78.95 C72.2006156,78.6598168 72.7057479,78.3252921 73.18,77.95 C73.5621856,77.6213303 73.7963756,77.1529503 73.83,76.65 C73.83,76.56 74.4,75.43 74.4,75.43 C74.4,75.43 74.4,75.33 74.49,75.24 L74.78,74.11 L74.78,73.92 C74.78,73.73 75.15,73.35 75.53,73.16 L75.62,73.07 C76.7735339,72.2316746 77.26761,70.7534631 76.85,69.39 C76.7025558,69.030477 76.4383663,68.7310622 76.1,68.54 L75.53,68.07 L75.04,67.55 C74.9364694,67.4482762 74.8034974,67.3817903 74.66,67.36 L73.81,67.26 C73.6498735,67.2523107 73.4916395,67.2220106 73.34,67.17 C73.25,67.07 73.06,66.98 72.96,66.89 L72.7,66.65 L72.61,66.56 L71.66,65.9 C71.57,65.8 71.38,65.8 71.29,65.71 C71.1851025,65.660221 71.0875268,65.5962922 71,65.52 C70.8873173,65.4090425 70.7593573,65.3147562 70.62,65.24 L70.62,64.86 C70.44,63.07 68.74,62.31 67.79,62.03 C67.7,62.03 66.47,61.75 66.47,61.75 C66.478752,61.8235013 66.5143683,61.8911722 66.57,61.94 C66.57,61.84 66.47,61.75 66.38,61.65 L65.44,60.65 L65.25,60.46 L64.4,59.89 C64.3237367,59.8215042 64.2218901,59.7887678 64.12,59.8 C63.9259278,59.7496097 63.7354919,59.6861311 63.55,59.61 C63.43599,59.5240069 63.3072005,59.4596122 63.17,59.42 C63.0005639,59.3141585 62.8088607,59.2491164 62.61,59.23 L62.32,59.23 L61.32,59.14 C61.0711989,59.0783745 60.816274,59.0448317 60.56,59.04 C60.4616968,59.0285178 60.3665828,58.9979454 60.28,58.95 C60.1411816,58.8035606 60.0141214,58.6464072 59.9,58.48 C59.7347339,58.3196694 59.5415613,58.1908877 59.33,58.1 L58.74,58.1 C58.5161885,58.0853751 58.2917241,58.1159838 58.08,58.19 L57.79,58.29 L56.66,58.65 C56.76,58.65 57.13,58.37 57.23,58.37 L56.66,58.46 L56,58.55 C55.7018095,58.5578345 55.4393282,58.7487299 55.34,59.03 L55.15,59.31 C55.15,59.4 55.06,59.4 55.06,59.5 C54.6652714,59.1655697 54.1563066,58.9971095 53.64,59.03 C53.55,59.03 53.46,59.03 53.46,59.12 C53.3876389,59.1251788 53.3198468,59.1572909 53.27,59.21 L29.27,59.21 C28.5720251,56.297369 25.9446824,54.2603471 22.95,54.31 C19.5645476,54.3150365 16.7480035,56.914045 16.4714431,60.288186 C16.1948826,63.6623271 18.5506243,66.6852804 21.8900718,67.2415213 C25.2295192,67.7977622 28.4379333,65.7016122 29.27,62.42 L51.66,62.42 C51.76,62.52 51.95,62.52 52.04,62.61 C52.4890533,62.6639194 52.9443836,62.5983795 53.36,62.42 L53.83,62.42 C53.83,62.61 53.93,63.18 53.93,63.42 C53.83,63.51 53.17,64.27 53.17,64.27 L52.98,64.55 L52.32,65.55 C52.0536113,65.8987573 51.9222105,66.3320247 51.95,66.77 L51.95,67.43 C51.8690399,67.613663 51.8054297,67.8044935 51.76,68 C51.76,68.09 51.66,68.28 51.66,68.38 C51.645007,68.5115671 51.6807721,68.643898 51.76,68.75 L52.23,69.88 C52.23,69.98 52.32,70.07 52.42,70.17 L53.17,71.02 L53.93,72.43 L54.12,72.81 L54.59,73.81 L55.34,74.94 L55.44,75.03 L56.38,75.69 L56.85,75.98 L57.42,76.26 L57.51,76.35 L57.51,76.64 L57.42,77.3 L57.42,77.67 L40.15,77.67 C39.4520251,74.757369 36.8246824,72.7203471 33.83,72.77 C30.4445476,72.7750365 27.6280035,75.374045 27.3514431,78.748186 C27.0748826,82.1223271 29.4306243,85.1452804 32.7700718,85.7015213 C36.1095192,86.2577622 39.3179333,84.1616122 40.15,80.88 L56.85,80.88 L56.76,81.65 Z M75.62,70.47 C75.4454802,70.4657393 75.2784523,70.3982173 75.15,70.28 C75.2784523,70.3982173 75.4454802,70.4657393 75.62,70.47 Z M23.04,64.15 C21.6639256,64.1540473 20.4210964,63.3282349 19.8916888,62.0580677 C19.3622811,60.7879005 19.6506972,59.3238627 20.6222988,58.349395 C21.5939005,57.3749273 23.0570824,57.0822001 24.3288034,57.6078642 C25.6005245,58.1335283 26.429994,59.3739196 26.43,60.75 C26.4353392,61.6516278 26.0802161,62.5180168 25.4435975,63.1565134 C24.8069788,63.79501 23.9416396,64.1526834 23.04,64.15 Z M59.4,87.42 C59.4,87.14 59.49,87.04 59.59,87.04 C59.4636675,87.1375624 59.3927735,87.2905444 59.4,87.45 L59.4,87.42 Z M57.51,88.04 L57.51,86.79 C57.5883907,86.6529749 57.6823467,86.5254632 57.79,86.41 C57.89,86.32 57.89,86.23 57.98,86.13 L58.36,84.81 L58.36,84.53 L58.46,83.53 L58.74,82.11 L58.93,80.51 L59.12,79.19 L59.21,78.81 L59.4,77.59 L59.4,77.4 C59.555865,76.8596285 59.4873724,76.2792441 59.21,75.79 C58.9526035,75.2941702 58.542347,74.8944331 58.04,74.65 L57.75,74.37 L57.19,74.09 L56.72,73.8 L56.43,73.52 L56.25,73.24 L55.87,72.24 L55.68,71.77 L54.74,69.97 C54.5040874,69.6429735 54.2503711,69.3291664 53.98,69.03 C53.851991,68.8263795 53.7574578,68.6035513 53.7,68.37 L53.89,67.99 C53.89,67.9 53.98,67.8 53.98,67.62 L53.98,66.62 L54.36,66.15 L54.64,65.68 L54.92,65.2 L55.02,65.11 C55.6036348,64.849167 55.995863,64.2877424 56.04,63.65 L56.04,63.37 L55.95,62.04 L55.95,61.95 C55.9997056,61.95 56.04,61.9097056 56.04,61.86 L56.42,61.38 C56.4712705,61.333227 56.5033439,61.2690802 56.51,61.2 C56.51,61.2 56.7,60.82 56.8,60.54 L56.99,60.54 L57.55,60.44 C57.6934974,60.4182097 57.8264694,60.3517238 57.93,60.25 C58.1250678,60.2030277 58.3157623,60.1394629 58.5,60.06 L58.87,60.44 C58.9894524,60.5850171 59.1556015,60.6839996 59.34,60.72 L59.91,60.91 C60,60.91 60.19,60.91 60.19,61.01 L60.76,61.1 L62.17,61.2 L62.36,61.38 C62.46,61.38 62.55,61.48 62.65,61.48 C62.8420994,61.5260223 63.0295564,61.5896237 63.21,61.67 C63.4,61.76 63.68,62.04 63.87,62.04 C64.1453449,62.3028552 64.3994705,62.5870746 64.63,62.89 C64.8293409,63.2586378 65.1677908,63.5322782 65.57,63.65 L67.27,64.03 L67.17,64.03 C67.17,64.03 68.31,64.31 68.4,65.03 L68.4,65.65 C68.4608757,65.9766143 68.6257457,66.2747833 68.87,66.5 L69.25,66.88 C69.5355149,67.2653814 69.9286897,67.5576529 70.38,67.72 C70.6465824,67.9338616 70.93095,68.1245551 71.23,68.29 L71.51,68.57 L71.7,68.76 L72.36,69.14 C72.5056742,69.2118641 72.6680822,69.2429635 72.83,69.23 L73.21,69.33 C73.3952751,69.3846715 73.5868935,69.414927 73.78,69.42 L74.16,69.8 C74.3624283,69.9799825 74.5837128,70.1375639 74.82,70.27 L74.82,70.46 C74.82,70.74 74.72,71.12 74.06,71.59 C73.2767562,72.0906771 72.7067484,72.8637502 72.46,73.76 C72.407997,74.1046946 72.310479,74.4409634 72.17,74.76 C71.9953361,75.0640069 71.8384072,75.3778647 71.7,75.7 L71.51,76.36 C71.253835,76.612921 70.9684977,76.8344771 70.66,77.02 C70.66,77.02 69.82,77.31 69.66,77.4 C69.3168259,77.5348124 68.982787,77.6918107 68.66,77.87 L68.19,78.06 C67.6856428,78.2412914 67.3086095,78.667339 67.19,79.19 C67.19,79.19 67.1,79.76 67,80.19 L66.91,80.28 L66.44,81.04 L66.15,81.23 C66.15,81.23 65.77,81.7 65.68,81.7 L65.3,82.07 C65.3,82.07 64.74,82.45 64.36,82.73 C64.0946335,82.6901392 63.8243812,82.7586031 63.61,82.92 L63.23,83.21 C63.015894,83.3665382 62.8778825,83.6062422 62.85,83.87 C62.8491121,84.0308637 62.8186032,84.1901882 62.76,84.34 C62.6593157,84.3550634 62.5615219,84.3854132 62.47,84.43 L61.04,84.81 C60.7671245,84.8900434 60.5552016,85.1057506 60.48,85.38 C60.4110017,85.4564673 60.375053,85.5571237 60.38,85.66 L60.19,85.66 C59.9171245,85.7400434 59.7052016,85.9557506 59.63,86.23 C59.53,86.32 59.53,86.51 59.53,86.7 C59.515007,86.8315671 59.5507721,86.963898 59.63,87.07 L59.25,87.26 C58.867975,87.4396101 58.6398841,87.8397696 58.68,88.26 L58.68,88.45 C58.4784707,88.5880531 58.2909129,88.7454677 58.12,88.92 C57.93,89.01 57.93,89.11 57.83,89.29 L57.74,89.58 L57.74,89.86 L57.65,89.86 C57.46,89.67 57.46,89.48 57.46,89.11 C57.3753163,88.7490553 57.3926273,88.3716761 57.51,88.02 L57.51,88.04 Z M33.93,82.73 C32.5530167,82.734044 31.3095567,81.9071465 30.7807383,80.6357496 C30.2519198,79.3643526 30.5421732,77.89953 31.5158516,76.9258516 C32.48953,75.9521732 33.9543526,75.6619198 35.2257496,76.1907383 C36.4971465,76.7195567 37.324044,77.9630167 37.32,79.34 C37.3226664,80.2398987 36.966363,81.1037085 36.3300358,81.7400358 C35.6937085,82.376363 34.8298987,82.7326664 33.93,82.73 Z M78.83,50.65 C78.5364104,50.7873553 78.252431,50.9443792 77.98,51.12 L77.79,51.31 L76.85,52.31 C76.4446155,52.8310798 76.1084819,53.4025069 75.85,54.01 L75.62,55.65 C75.62,55.65 75.53,56.5 75.53,56.59 C75.3854208,56.8992045 75.2585492,57.2163836 75.15,57.54 L75.04,58.96 L75.04,59.06 L75.13,59.81 C75.1351542,59.9843335 75.2025546,60.1510608 75.32,60.28 C75.32,60.28 75.98,61.13 76.08,61.23 C76.18,61.33 76.45,61.89 76.45,61.89 L76.74,62.55 C76.74,62.64 76.83,62.64 76.83,62.73 L77.4,63.58 C77.5242048,63.7804716 77.727825,63.9186425 77.96,63.96 L79.1,64.34 C79.4593182,64.4255181 79.8373354,64.3196732 80.1,64.06 C80.2624658,64.0653624 80.4237897,64.0310381 80.57,63.96 L81.24,63.96 C81.4388607,63.9408836 81.6305639,63.8758415 81.8,63.77 C81.9026548,63.7216283 81.9971262,63.6575227 82.08,63.58 L82.27,63.58 C82.4399012,63.7994833 82.6688463,63.9659888 82.93,64.06 L82.93,64.34 C82.8855212,64.6568509 82.8220739,64.9707481 82.74,65.28 L82.74,65.47 L82.84,66.7 C82.9391718,66.9948417 83.0664223,67.2794809 83.22,67.55 L83.22,68.96 C83.1693606,69.2410284 83.1359649,69.5248922 83.12,69.81 C83.03,70 82.65,70.57 82.65,70.57 C82.65,70.57 82.27,71.04 82.18,72.73 L81.99,73.73 L81.99,75.43 L82.27,76.94 L82.27,77.03 C82.2259775,77.5098969 82.5558377,77.9439235 83.03,78.03 C83.4697524,78.1490236 83.9343679,77.9557765 84.16,77.56 C91.42,64.35 87.46,53.12 87.27,52.65 L87.04,51.89 C87.04,51.79 86.95,51.79 86.95,51.7 L86.57,51.13 C86.3351435,50.817305 85.9606217,50.6412797 85.57,50.66 L85.57,50.57 C85.7911092,50.553352 85.9963645,50.4489239 86.14,50.28 C86.4131426,50.0510041 86.523317,49.6811328 86.42,49.34 C85.29,44.81 81.33,39.15 81.14,38.87 C80.9339315,38.6024386 80.6261729,38.4322662 80.29,38.4 C80.1280276,38.386009 79.9653454,38.4171609 79.82,38.49 L79.35,38.02 C79.0296196,37.7287876 78.5403804,37.7287876 78.22,38.02 C77.9231844,38.2006915 77.7414496,38.5225136 77.74,38.87 L77.74,39.15 C77.6424758,39.2552274 77.5796402,39.3878802 77.56,39.53 L77.46,40.38 L77.46,40.47 C77.4453184,40.5740931 77.4826987,40.678758 77.56,40.75 L77.74,41.32 C77.8900511,41.7374466 78.2971758,42.0061489 78.74,41.98 L78.83,41.98 C78.817018,42.0839133 78.8541277,42.1878204 78.93,42.26 L79.12,42.45 L79.12,42.65 C79.107549,42.7831067 79.1391701,42.9166178 79.21,43.03 L79.4,43.5 C79.4,43.5238695 79.4094821,43.5467613 79.4263604,43.5636396 C79.4432387,43.5805179 79.4661305,43.59 79.49,43.59 C79.3584329,43.575007 79.226102,43.6107721 79.12,43.69 C78.83,43.78 78.64,43.88 78.55,44.16 L78.27,44.63 C78.162339,44.802234 78.0972116,44.9976163 78.08,45.2 L78.08,46.14 C78.0667866,46.2731588 78.0984653,46.4069132 78.17,46.52 C78.2455115,46.6714638 78.3090392,46.8286114 78.36,46.99 C78.2845073,47.2789021 78.1909909,47.5627914 78.08,47.84 C78.08,47.93 77.98,48.03 77.98,48.12 C77.9659284,48.4221684 78.1098223,48.7099562 78.36,48.88 L79.12,49.54 C79.21,49.63 79.3,49.63 79.4,49.73 L79.49,49.73 C79.4,49.82 79.3,49.91 79.3,50.01 C79.12,50.09 78.93,50.47 78.83,50.65 Z M82.61,47.65 C82.7075242,47.7552274 82.7703598,47.8878802 82.79,48.03 C82.7,48.03 82.61,48.03 82.61,47.93 L82.61,47.65 Z M81.85,44.44 C81.8089074,44.2141973 81.7452551,43.9930892 81.66,43.78 C81.85,44.16 82.13,44.63 82.32,45.01 C82.23,45.01 82.04,45.2 81.85,45.39 L81.66,45.39 L81.57,45.48 C81.6438297,45.3942375 81.7075796,45.3002903 81.76,45.2 C81.863265,45.0257272 81.9280483,44.8313773 81.95,44.63 C81.85,44.65 81.85,44.53 81.85,44.43 L81.85,44.44 Z M79.85,46.05 C80.0773936,46.1820259 80.3371744,46.2478371 80.6,46.24 C80.79,46.24 80.89,46.14 81.08,46.14 C80.98,46.24 80.98,46.33 80.89,46.42 L80.7,46.71 L80.51,47.65 C80.23,47.74 80.04,47.74 79.94,47.84 C80.04,47.56 80.13,47.37 80.13,47.37 C80.13,47.37 80.23,47.18 80.23,47.08 C80.244993,46.9484329 80.2092279,46.816102 80.13,46.71 C80.0204786,46.4972247 79.9268885,46.2766196 79.85,46.05 Z M79.57,52.56 L80.57,51.8 L80.67,51.71 L80.67,51.65 C80.7634385,51.4749395 80.8276188,51.2857764 80.86,51.09 C81.0775894,50.8982269 81.2662189,50.6759135 81.42,50.43 C81.52,50.43 81.61,50.24 81.8,50.14 L82.18,50.14 C82.08,50.14 83.03,50.33 83.03,50.33 L83.22,50.33 C83.2786032,50.4798118 83.3091121,50.6391363 83.31,50.8 C83.3336696,50.9428943 83.3998863,51.0753278 83.5,51.18 L83.59,51.37 C83.7146136,51.9475194 84.0109072,52.4738762 84.44,52.88 L85.01,53.45 C85.1399125,53.5645853 85.3067812,53.6284924 85.48,53.63 C86.1772064,56.054205 86.5141439,58.5677587 86.48,61.09 C86.4432221,63.6041979 86.1075309,66.1050978 85.48,68.54 L85.48,67.55 C85.48,67.45 85.39,67.17 85.39,67.07 L85.11,66.32 C85.11,66.32 85.01,65.75 85.01,65.66 C85.0544788,65.3431491 85.1179261,65.0292519 85.2,64.72 L85.2,63.49 C85.222136,63.0325871 84.9009094,62.6299831 84.45,62.55 C84.2981678,62.4970138 84.1402517,62.4634146 83.98,62.45 C83.8299489,62.0325534 83.4228242,61.7638511 82.98,61.79 L81.98,61.79 C81.782134,61.8136234 81.5913894,61.8783403 81.42,61.98 C81.3173452,62.0283717 81.2228738,62.0924773 81.14,62.17 L80.66,62.17 L79.72,62.26 C79.578524,62.2879269 79.4472271,62.3535753 79.34,62.45 C79.2303099,62.379215 79.0999473,62.3475052 78.97,62.36 C78.78,62.17 78.68,61.98 78.59,61.89 C78.4759399,61.7109027 78.3820358,61.5197408 78.31,61.32 L78.04,60.47 C78.04,60.38 77.94,60.38 77.94,60.28 C77.94,60.18 77.47,59.72 77.28,59.43 C77.28,59.24 77.28,59.15 77.19,59.06 C77.1,58.97 77.28,58.11 77.28,58.11 L77.57,57.45 C77.57,57.36 77.66,57.17 77.66,57.07 L77.75,55.85 L77.75,54.85 C77.85,54.67 78.13,54.01 78.32,53.91 C78.6095708,53.5737726 78.9237726,53.2595708 79.26,52.97 C79.3022719,52.7879893 79.4231581,52.6341342 79.59,52.55 L79.57,52.56 Z M55.57,93.12 C55.2112991,93.0790633 54.8511464,93.1835076 54.57,93.41 L54.38,93.59 C54.2285362,93.6655115 54.0713886,93.7290392 53.91,93.78 C53.44,93.69 52.77,93.59 52.77,93.59 L52.49,93.5 C52.1780819,93.3953369 51.8363915,93.4280519 51.55,93.59 C51.2570145,93.7731155 51.0793086,94.0944985 51.08,94.44 L51.08,95.58 C51.0790458,96.1096773 51.4912761,96.5482202 52.02,96.58 C57.21,96.87 64.38,96.39 69.19,92.71 C69.4187171,92.5606479 69.5711536,92.3191908 69.607633,92.0484754 C69.6441124,91.77776 69.5610261,91.5045657 69.38,91.3 L69.19,91.02 C68.925884,90.6247376 68.4200079,90.4700482 67.98,90.65 L66.38,91.31 C66.3091224,91.3204266 66.2429675,91.3517632 66.19,91.4 C66.0303949,91.5322941 65.8270606,91.6000722 65.62,91.59 L65.44,91.59 L64.44,91.69 L63.21,92.06 L62.93,92.16 C62.83,92.16 62.08,92.25 62.08,92.25 L60.66,92.35 L58.83,92.35 L58.64,92.16 C58.3682088,91.9652626 58.0260881,91.8961105 57.7,91.97 L56.85,92.25 C56.5493008,92.3709412 56.3109412,92.6093008 56.19,92.91 C56.19,93.01 56.1,93.1 56.1,93.2 L56.1,93.29 L56,93.39 C56.1,93.4 55.91,93.21 55.62,93.11 L55.57,93.12 Z M55.67,94.25 C55.7405733,94.1109881 55.8353938,93.9856897 55.95,93.88 C55.8909015,94.0103587 55.8134495,94.1315878 55.72,94.24 L55.67,94.25 Z M33.46,52.07 C36.4325947,52.0545103 39.0244391,50.0450108 39.78,47.17 L51.19,47.17 L51.19,47.83 C51.2214777,48.1394975 51.3952017,48.4167167 51.66,48.58 C51.76,48.68 51.85,48.68 52.04,48.77 C51.95,48.77 51.95,48.77 51.85,48.87 C51.4738542,49.0380922 51.2203635,49.3991245 51.19,49.81 L51.19,51.81 C51.2119517,52.0113773 51.276735,52.2057272 51.38,52.38 L51.47,52.47 C51.3696653,52.6448263 51.3082661,52.8392573 51.29,53.04 L51.29,53.6 C51.29,53.98 51.76,54.45 52.13,54.6 L52.51,54.79 C52.61,54.79 52.79,54.98 52.89,54.98 C53.2739297,55.0410986 53.6519613,55.1347701 54.02,55.26 C54.1991243,55.3767002 54.3902098,55.4739191 54.59,55.55 C54.6993697,55.6215275 54.8299962,55.6533015 54.96,55.64 L55.53,55.64 L55.53,56.21 C55.5584215,56.4987232 55.6940017,56.7663157 55.91,56.96 C56.149422,57.149876 56.4625189,57.2198623 56.76,57.15 C56.76,57.15 57.32,57.05 57.61,56.96 C57.6913018,57.0191818 57.7894419,57.0507268 57.89,57.05 C58.1545484,57.1959094 58.4754516,57.1959094 58.74,57.05 L60.15,56.49 C60.5384465,56.3048809 60.7925035,55.9199461 60.81,55.49 C60.7973669,55.0445582 60.4915168,54.6612261 60.06,54.55 L59.21,54.36 L58.83,54.36 C58.6691363,54.3608879 58.5098118,54.3913968 58.36,54.45 L58.27,54.36 C57.9820656,54.1692273 57.6079344,54.1692273 57.32,54.36 L56.76,54.64 C56.7875225,54.40344 56.7190873,54.1657178 56.57,53.98 L56.19,53.32 C56.1,53.23 56,53.04 55.81,53.04 L54.81,52.57 C54.71,52.57 54.24,52.38 53.58,52.19 L53.67,51.81 C53.67,51.72 53.77,51.62 53.77,51.53 L53.77,50.59 C53.7802796,49.9936948 53.5099743,49.4271644 53.04,49.06 L52.94,48.96 C52.8377006,48.8621274 52.7091484,48.7961141 52.57,48.77 L52.47,48.77 C52.6492793,48.7945301 52.8281333,48.7222275 52.94,48.58 L54.08,47.45 C54.4204909,47.1580013 54.65294,46.7600203 54.74,46.32 C54.723352,46.0988908 54.6189239,45.8936355 54.45,45.75 C54.55,45.57 54.74,45.09 54.74,45.09 L54.74,45 C54.7959737,44.8003887 54.9291084,44.6312716 55.11,44.53 C55.5486718,44.3180608 55.8391218,43.8862075 55.87,43.4 L56.34,43.4 L57.47,43.21 L57.57,43.21 L57.66,43.11 L58.23,42.73 C58.5199824,42.5487758 58.6972583,42.2319422 58.7,41.89 C58.7,41.79 58.7,41.79 58.6,41.7 C58.985155,41.7709298 59.3658107,41.8644242 59.74,41.98 L60.02,42.07 L60.87,42.26 C61.3044169,42.2567695 61.6962405,41.9981659 61.87,41.6 C61.9415275,41.4906303 61.9733015,41.3600038 61.96,41.23 C61.921526,40.8674492 61.7548513,40.5305536 61.49,40.28 L60.49,39.34 L60.31,39.15 C60.31,39.15 59.65,38.77 59.36,38.58 C59.2539934,38.4104371 59.1299369,38.2528518 58.99,38.11 C58.89,38.02 58.8,37.83 58.61,37.83 L58.33,37.26 C58.23,37.17 58.14,37.17 57.95,37.17 C57.7324732,37.1220018 57.511982,37.088594 57.29,37.07 C57.19,37.07 57.19,37.07 57.1,36.98 L57,36.89 L57,36.79 C57.012451,36.6568933 56.9808299,36.5233822 56.91,36.41 C56.7863672,36.1328589 56.5435744,35.9268528 56.25,35.85 C56.1311933,35.7918637 56.0020336,35.7578744 55.87,35.75 L55.4,35.28 L55.04,34.81 L54.94,34.72 C54.94,34.62 55.04,34.62 55.04,34.53 L55.04,34.06 C55.04,33.87 54.94,33.77 54.85,33.58 C54.76,33.39 54.94,33.49 54.94,33.4 L54.94,33.21 L55.13,33.49 L55.42,33.77 C55.7613433,33.9865841 56.0767352,34.2415819 56.36,34.53 L57.36,35.66 C58.11,36.66 58.49,36.89 58.68,36.89 C58.9242402,36.9980894 59.1746805,37.0915871 59.43,37.17 C59.53,37.26 59.62,37.45 59.81,37.55 C60.0861675,37.6401184 60.3838325,37.6401184 60.66,37.55 L61.04,37.36 C61.4081729,37.1669208 61.6277598,36.7748015 61.6,36.36 L61.6,36.08 L61.32,35.08 C61.32,34.99 61.23,34.89 61.23,34.8 C61.1120319,34.6216114 61.0147397,34.430382 60.94,34.23 C61.0801002,34.0528108 61.2071031,33.8656486 61.32,33.67 C61.32,33.57 61.41,33.39 61.41,33.29 C61.8871418,33.0695862 62.1863526,32.5853372 62.17,32.06 C62.1435807,31.4340278 61.7520209,30.8819285 61.17,30.65 C60.89,30.37 60.51,30.08 60.51,29.99 C60.2571932,29.4247546 59.7170445,29.0416703 59.1,28.99 L58.72,28.9 C58.72,28.9 58.06,28.52 57.72,28.33 L57.81,28.33 C57.9156734,28.3265467 58.0189149,28.3621472 58.1,28.43 C58.251865,28.5681391 58.4560888,28.6337825 58.66,28.61 L60.46,28.71 C60.9306972,28.7237136 61.3471845,28.4071833 61.46,27.95 L61.56,27.58 C61.628941,27.3234407 61.5929611,27.0499933 61.46,26.82 C61.3161657,26.5772312 61.0764585,26.4065306 60.8,26.35 C58.0382801,25.7901988 55.2278793,25.5054741 52.41,25.5 C52.1304424,25.4942774 51.8590238,25.5942737 51.65,25.78 C51.5336706,25.7359315 51.4026919,25.7569203 51.3059572,25.8351313 C51.2092225,25.9133423 51.16127,26.0370213 51.18,26.16 L51.18,29.27 C51.1793086,29.6155015 51.3570145,29.9368845 51.65,30.12 C51.3744314,30.3190813 51.2020911,30.6307606 51.18,30.97 L51.18,44.06 L39.68,44.06 C38.9793286,41.1476976 36.3551229,39.1089555 33.36,39.15 C29.7708029,39.155488 26.8610056,42.0608155 26.85,45.65 C26.9733954,49.217116 29.8908028,52.0506645 33.46,52.07 Z M56.1,41.02 C55.927766,40.912339 55.7323837,40.8472116 55.53,40.83 L55.34,40.83 L55.72,40.64 C55.8701572,40.7488647 55.9989737,40.884461 56.1,41.04 L56.1,41.02 Z M53.27,28.4 C53.4332833,28.6647983 53.7105025,28.8385223 54.02,28.87 L54.68,28.87 C54.96,29.06 56.29,29.62 56.29,29.62 L57.23,30.19 L58.23,30.66 L58.42,30.75 C58.6537281,31.1891824 58.9734002,31.5768698 59.36,31.89 C59.17,31.98 59.08,32.26 58.98,32.45 L58.98,32.73 C58.98,32.83 59.08,32.92 59.08,33.02 C58.89,33.21 58.6,33.49 58.6,33.77 L58.6,33.96 C58.32,33.68 57.66,32.96 57.66,32.96 C57.66,32.96 57.57,32.87 57.47,32.87 C57.3697097,32.8175796 57.2757625,32.7538297 57.19,32.68 C57.1680483,32.4786227 57.103265,32.2842728 57,32.11 L56.15,30.89 C55.9668845,30.5970145 55.6455015,30.4193086 55.3,30.42 L55.04,30.42 C55.0303638,30.3467766 54.994902,30.2793993 54.94,30.23 C54.85,30.13 54.85,30.04 54.76,30.04 C54.2228352,29.5336165 53.6478347,29.0689358 53.04,28.65 L53.04,28.37 L53.27,28.4 Z M53.27,36.98 C53.36,36.98 53.46,37.07 53.55,37.07 L54.21,36.98 C54.3,36.98 54.3,36.89 54.4,36.89 L54.87,37.36 C54.96,37.45 54.96,37.45 55.06,37.45 C55.15,37.64 55.15,37.83 55.25,37.92 C55.3956115,38.0597608 55.5528447,38.1868855 55.72,38.3 C55.6159069,38.2853184 55.511242,38.3226987 55.44,38.4 L54.68,38.77 C54.59,38.87 54.49,38.87 54.4,38.96 L53.93,39.43 C53.7370516,39.6352774 53.632846,39.9083678 53.64,40.19 C53.6353434,40.4418542 53.7413401,40.6830879 53.93,40.85 C54.1337893,41.0377805 54.4030111,41.13829 54.68,41.13 L54.68,41.23 L54.04,42.36 L54.04,42.65 C53.7382551,42.8830972 53.4837119,43.1715796 53.29,43.5 L53.27,36.98 Z M33.46,42.17 C34.8351716,42.17 36.074935,42.9983834 36.6011904,44.2688763 C37.1274458,45.5393693 36.8365562,47.0017699 35.8641631,47.9741631 C34.8917699,48.9465562 33.4293693,49.2374458 32.1588763,48.7111904 C30.8883834,48.184935 30.06,46.9451716 30.06,45.57 C30.0378352,44.6616503 30.3889261,43.783909 31.0314175,43.1414175 C31.673909,42.4989261 32.5516503,42.1478352 33.46,42.17 Z" id="Shape" fill="#FFAF3A" fill-rule="nonzero"></path>
            </g>
            <path d="M146.23,46.55 C146.243008,47.9464348 146.071525,49.3384714 145.72,50.69 C145.410037,51.8869336 144.906752,53.0252373 144.23,54.06 C143.580097,55.0329451 142.75225,55.8743638 141.79,56.54 C140.777654,57.2310534 139.644767,57.7262674 138.45,58 C138.501788,58.9887722 138.693703,59.9651831 139.02,60.9 C139.26136,61.546447 139.624603,62.1405359 140.09,62.65 C140.479243,63.0561093 140.958944,63.3644888 141.49,63.55 C141.997463,63.7131578 142.526959,63.7974725 143.06,63.8 L143.57,63.8 L143.57,65.65 L141.27,65.65 C140.31034,65.6507333 139.356131,65.5057476 138.44,65.22 C136.53895,64.6620328 134.949063,63.3503759 134.04,61.59 C133.49923,60.508431 133.186108,59.3274159 133.12,58.12 C131.79174,57.9450142 130.512689,57.5027891 129.36,56.82 C128.31381,56.1829568 127.408667,55.3390641 126.7,54.34 C125.964846,53.285165 125.426205,52.1062514 125.11,50.86 C124.754195,49.4376797 124.579479,47.9761111 124.59,46.51 C124.558516,44.8663862 124.777699,43.2275727 125.24,41.65 C125.638129,40.2923687 126.319808,39.0346706 127.24,37.96 C128.185681,36.9354867 129.35646,36.1446973 130.66,35.65 C132.188325,35.0674729 133.814783,34.7856439 135.45,34.82 C137.019561,34.7937832 138.579016,35.0757761 140.04,35.65 C141.332453,36.1769687 142.48823,36.9907999 143.42,38.03 C144.366038,39.1048218 145.077821,40.3649171 145.51,41.73 C146.00217,43.2887623 146.245161,44.9154538 146.23,46.55 Z M129.95,46.55 C129.934462,47.9222952 130.031453,49.2935547 130.24,50.65 C130.412109,51.6967088 130.749662,52.7093676 131.24,53.65 C131.623513,54.4229156 132.207071,55.0789866 132.93,55.55 C134.505396,56.4164348 136.414604,56.4164348 137.99,55.55 C138.714891,55.0841686 139.296431,54.4264745 139.67,53.65 C140.136087,52.7052298 140.449958,51.6927442 140.6,50.65 C140.808002,49.296852 140.904992,47.9289594 140.89,46.56 C140.905359,45.1877101 140.808368,43.8164653 140.6,42.46 C140.448657,41.4175495 140.134849,40.4052637 139.67,39.46 C139.293815,38.6910238 138.716807,38.0380033 138,37.57 C137.242097,37.1192244 136.371434,36.8937539 135.49,36.92 C133.690304,36.8303869 132.013487,37.8325315 131.24,39.46 C130.750752,40.4010945 130.413258,41.4135757 130.24,42.46 C130.032175,43.8131679 129.935186,45.181046 129.95,46.55 Z" id="Shape" fill="#464D57" fill-rule="nonzero"></path>
            <path d="M162.16,58 L161.46,55.73 L161.31,55.73 C161.027935,56.2259616 160.674112,56.6775078 160.26,57.07 C159.90525,57.3937491 159.499889,57.6572341 159.06,57.85 C158.625724,58.0349573 158.168123,58.1594517 157.7,58.22 C157.215721,58.2807915 156.728079,58.3108517 156.24,58.31 C154.793957,58.403233 153.38419,57.8327005 152.41,56.76 C151.398574,55.3807042 150.912753,53.685652 151.04,51.98 L151.04,44.81 C151.049768,44.4263976 151.009427,44.0431609 150.92,43.67 C150.847993,43.4117292 150.714131,43.1748968 150.53,42.98 C150.336041,42.8105259 150.101955,42.6934829 149.85,42.64 C149.520719,42.5751968 149.18556,42.5450325 148.85,42.55 L148.79,42.55 L148.79,40.84 L155.9,40.84 L155.9,51.09 C155.90207,51.7125524 155.948857,52.334152 156.04,52.95 C156.099047,53.4411808 156.233987,53.9202181 156.44,54.37 C156.599087,54.735366 156.859311,55.0476357 157.19,55.27 C157.537471,55.495211 157.946277,55.6070214 158.36,55.59 C159.292545,55.6361629 160.163962,55.1258737 160.58,54.29 C160.838023,53.8128201 161.013816,53.2955827 161.1,52.76 C161.212165,52.0993508 161.265707,51.430079 161.26,50.76 L161.26,44.59 C161.275127,44.211668 161.21391,43.8341639 161.08,43.48 C160.969112,43.2367102 160.796794,43.0264818 160.58,42.87 C160.356746,42.7255577 160.103816,42.6332726 159.84,42.6 C159.544865,42.5625709 159.24747,42.5458633 158.95,42.55 L158.86,42.55 L158.86,40.84 L166.12,40.84 L166.12,54.28 C166.105362,54.6541895 166.163084,55.0276871 166.29,55.38 C166.377087,55.6175252 166.529635,55.8255451 166.73,55.98 C166.92907,56.1264075 167.164033,56.2162463 167.41,56.24 C167.691386,56.281675 167.97555,56.3017337 168.26,56.3 L168.53,56.3 L168.53,58 L162.16,58 Z" id="Path" fill="#464D57"></path>
            <path d="M181.12,55.83 C181.399695,55.835179 181.677867,55.7876861 181.94,55.69 C182.167033,55.58476 182.365822,55.4270997 182.52,55.23 C182.698545,54.9884417 182.83388,54.7177708 182.92,54.43 C183.045036,54.0359227 183.148522,53.6353298 183.23,53.23 L183.42,52.23 L185.31,52.23 L185.15,58.03 L169.92,58.03 L169.92,56.65 L179.35,42.99 L174.68,42.99 C174.468837,42.9833331 174.258359,43.0172813 174.06,43.09 C173.871428,43.1662369 173.705988,43.2903169 173.58,43.45 C173.417092,43.6580952 173.288781,43.8910815 173.2,44.14 C173.06275,44.4930013 172.945891,44.8535952 172.85,45.22 L172.66,45.99 L170.74,45.99 L171.13,40.8 L184.95,40.8 L184.95,42.18 L175.48,55.79 L181.12,55.83 Z" id="Path" fill="#464D57"></path>
            <path d="M195.51,42.39 C194.799091,42.3622225 194.137842,42.753494 193.82,43.39 C193.641285,43.7304044 193.522869,44.0991863 193.47,44.48 C193.398954,44.9364879 193.365508,45.3980384 193.37,45.86 C192.268915,45.9152013 191.167785,45.7520709 190.13,45.38 C189.438267,45.1187531 188.996687,44.438152 189.04,43.7 C189.026234,43.1535684 189.210975,42.6206641 189.56,42.2 C189.954322,41.7621487 190.44342,41.4201219 190.99,41.2 C191.646729,40.9289507 192.335791,40.7440804 193.04,40.65 C193.884358,40.5268301 194.736712,40.466664 195.59,40.47 C196.581224,40.4526359 197.571132,40.5499489 198.54,40.76 C199.296859,40.9116583 200.010664,41.2292843 200.63,41.69 C201.198702,42.121291 201.635197,42.7032849 201.89,43.37 C202.190877,44.1786153 202.333466,45.0375412 202.31,45.9 L202.31,54.06 C202.306328,54.4257825 202.339834,54.7909916 202.41,55.15 C202.461406,55.4048403 202.570913,55.6443854 202.73,55.85 C202.892437,56.0258375 203.099951,56.153804 203.33,56.22 C203.623629,56.2972832 203.926401,56.3342887 204.23,56.33 L204.36,56.33 L204.36,58.03 L198.36,58.03 L197.68,55.83 L197.4,55.83 C197.086017,56.2169845 196.752238,56.5874789 196.4,56.94 C196.104588,57.2480737 195.768082,57.5139139 195.4,57.73 C195.030499,57.9460123 194.628723,58.1013207 194.21,58.19 C193.693655,58.2967858 193.167224,58.3470817 192.64,58.34 C191.960589,58.3506612 191.284304,58.2458369 190.64,58.03 C190.042638,57.8182106 189.499624,57.4766924 189.05,57.03 C188.577221,56.5724472 188.211783,56.0157522 187.98,55.4 C187.705402,54.6649806 187.573052,53.8844554 187.59,53.1 C187.477705,51.5901253 188.154946,50.1297053 189.38,49.24 C191.009121,48.2881993 192.874276,47.8167102 194.76,47.88 L197.38,47.79 L197.38,46.03 C197.38,45.4966667 197.36,45.0066667 197.32,44.56 C197.292687,44.1646022 197.201506,43.7762393 197.05,43.41 C196.936959,43.1013607 196.726298,42.8380344 196.45,42.66 C196.16717,42.4859214 195.842099,42.3925499 195.51,42.39 Z M192.66,53.23 C192.614636,53.9472521 192.76682,54.6632114 193.1,55.3 C193.399889,55.7632635 193.929935,56.0244454 194.48,55.98 C194.911207,55.9897584 195.337844,55.8899805 195.72,55.69 C196.097753,55.496672 196.423555,55.2154536 196.67,54.87 C196.953734,54.4865185 197.16085,54.051916 197.28,53.59 C197.425503,53.0352348 197.49613,52.4634963 197.49,51.89 L197.49,49.48 L196.06,49.58 C195.51064,49.5922661 194.966909,49.6935824 194.45,49.88 C194.064819,50.0335394 193.721948,50.276978 193.45,50.59 C193.179837,50.9116036 192.988125,51.2916026 192.89,51.7 C192.745817,52.1975423 192.668471,52.7120565 192.66,53.23 Z" id="Shape" fill="#464D57" fill-rule="nonzero"></path>
            <path d="M216.76,58 L206.04,58 L206.04,56.3 L206.13,56.3 C206.464982,56.3012955 206.799484,56.2745353 207.13,56.22 C207.415052,56.1777416 207.685895,56.0680332 207.92,55.9 C208.148978,55.7181389 208.322232,55.4755826 208.42,55.2 C208.553657,54.8145645 208.614689,54.4076874 208.6,54 L208.6,44.72 C208.615027,44.3367778 208.560827,43.9539863 208.44,43.59 C208.34708,43.3281314 208.1846,43.0965112 207.97,42.92 C207.758822,42.7548791 207.50626,42.6510865 207.24,42.62 C206.92596,42.5691863 206.608097,42.5457648 206.29,42.55 L206.2,42.55 L206.2,40.84 L212.67,40.84 L213.31,43.34 L213.46,43.34 C213.646794,42.9009045 213.877996,42.4820596 214.15,42.09 C214.392472,41.7375147 214.697515,41.4324718 215.05,41.19 C215.424986,40.9389434 215.841389,40.7561321 216.28,40.65 C216.837185,40.5207713 217.408108,40.4603206 217.98,40.47 C218.952757,40.3954996 219.924535,40.6262094 220.76,41.13 C221.356706,41.5872658 221.689656,42.3092824 221.65,43.06 C221.695451,43.9485284 221.298636,44.8020558 220.59,45.34 C219.706501,45.9338758 218.652745,46.2219023 217.59,46.16 C217.59004,45.7722767 217.566664,45.3849049 217.52,45 C217.48484,44.7110524 217.400276,44.4302981 217.27,44.17 C217.158081,43.9597289 216.987967,43.7861433 216.78,43.67 C216.548399,43.5508199 216.290354,43.4923295 216.03,43.5 C215.675055,43.4818157 215.323893,43.580141 215.03,43.78 C214.753698,43.9749748 214.519112,44.2231605 214.34,44.51 C214.143257,44.821599 213.988582,45.1578469 213.88,45.51 C213.758489,45.8825201 213.664896,46.2635744 213.6,46.65 C213.531306,47.0068007 213.484552,47.3674772 213.46,47.73 C213.46,48.08 213.46,48.37 213.46,48.62 L213.46,54.16 C213.449271,54.5437637 213.506833,54.9263799 213.63,55.29 C213.727334,55.543929 213.889356,55.7680029 214.1,55.94 C214.313086,56.086549 214.555248,56.1854606 214.81,56.23 C215.104638,56.2743502 215.402051,56.2977422 215.7,56.3 L216.7,56.3 L216.76,58 Z" id="Path" fill="#464D57"></path>
            <path d="M230.77,42.39 C230.419232,42.3841708 230.073508,42.4740589 229.77,42.65 C229.486825,42.8233476 229.258116,43.0728481 229.11,43.37 C228.926889,43.7085451 228.808213,44.078139 228.76,44.46 C228.68538,44.9161844 228.648589,45.3777552 228.65,45.84 C227.549005,45.8933663 226.448231,45.7302887 225.41,45.36 C224.729541,45.0976512 224.294123,44.4283985 224.33,43.7 C224.316234,43.1535684 224.500975,42.6206641 224.85,42.2 C225.240514,41.762328 225.726337,41.4201991 226.27,41.2 C226.933947,40.9298131 227.629507,40.7450026 228.34,40.65 C229.187676,40.5264822 230.04338,40.4663155 230.9,40.47 C231.887919,40.4526006 232.87452,40.5499184 233.84,40.76 C234.599266,40.9137083 235.315901,41.2310753 235.94,41.69 C236.508702,42.121291 236.945197,42.7032849 237.2,43.37 C237.500877,44.1786153 237.643466,45.0375412 237.62,45.9 L237.62,54.06 C237.611309,54.4259699 237.644864,54.7917208 237.72,55.15 C237.766934,55.4062701 237.876905,55.646832 238.04,55.85 C238.198348,56.0258996 238.402699,56.1540516 238.63,56.22 C238.927046,56.2972151 239.233111,56.334212 239.54,56.33 L239.66,56.33 L239.66,58.03 L233.66,58.03 L232.99,55.83 L232.71,55.83 C232.35,56.25 232.02,56.63 231.71,56.94 C231.412555,57.2458275 231.076367,57.5114157 230.71,57.73 C230.336668,57.9454598 229.931694,58.1006998 229.51,58.19 C228.993799,58.2977421 228.467264,58.3480481 227.94,58.34 C227.260589,58.3506612 226.584304,58.2458369 225.94,58.03 C225.340908,57.8157127 224.795141,57.4746087 224.34,57.03 C223.870472,56.5697659 223.505536,56.0138362 223.27,55.4 C222.995402,54.6649806 222.863052,53.8844554 222.88,53.1 C222.771608,51.590838 223.448012,50.1322238 224.67,49.24 C226.299121,48.2881993 228.164276,47.8167102 230.05,47.88 L232.68,47.79 L232.68,46.03 C232.68,45.4966667 232.66,45.0066667 232.62,44.56 C232.58741,44.1654167 232.496418,43.7778582 232.35,43.41 C232.230412,43.1050965 232.021216,42.8436009 231.75,42.66 C231.454531,42.4812369 231.115331,42.3877839 230.77,42.39 Z M227.93,53.23 C227.884636,53.9472521 228.03682,54.6632114 228.37,55.3 C228.668127,55.7599493 229.193393,56.020665 229.74,55.98 C230.194792,55.9860553 230.64316,55.8722389 231.04,55.65 C231.432155,55.457512 231.774423,55.1768515 232.04,54.83 C232.319838,54.4441911 232.526588,54.0103557 232.65,53.55 C232.795503,52.9952348 232.86613,52.4234963 232.86,51.85 L232.86,49.48 L231.42,49.58 C230.870838,49.5941632 230.327408,49.6954236 229.81,49.88 C229.424819,50.0335394 229.081948,50.276978 228.81,50.59 C228.543643,50.914099 228.352395,51.2931813 228.25,51.7 C228.080532,52.1948209 227.973046,52.7087381 227.93,53.23 Z" id="Shape" fill="#464D57" fill-rule="nonzero"></path>
            <path d="M242.93,55.7 C242.918487,55.2843158 242.986367,54.8702504 243.13,54.48 C243.249136,54.1747704 243.441439,53.9034858 243.69,53.69 C243.931227,53.4866969 244.214786,53.3397929 244.52,53.26 C244.847579,53.1815045 245.18315,53.1412359 245.52,53.14 C245.857058,53.137707 246.193054,53.1780266 246.52,53.26 C246.827468,53.3417705 247.11388,53.488386 247.36,53.69 C247.612209,53.9023281 247.808017,54.1737115 247.93,54.48 C248.209985,55.265805 248.209985,56.124195 247.93,56.91 C247.80385,57.2111318 247.608583,57.4783384 247.36,57.69 C247.111361,57.8877356 246.825795,58.0339178 246.52,58.12 C246.193485,58.2053453 245.857483,58.2490257 245.52,58.25 C245.182761,58.2454902 244.847183,58.2018652 244.52,58.12 C244.21639,58.0360751 243.933677,57.8896092 243.69,57.69 C243.444498,57.4777418 243.252619,57.2104821 243.13,56.91 C242.988083,56.5227673 242.920237,56.1123038 242.93,55.7 Z" id="Path" fill="#464D57"></path>
            <path d="M259.87,58.31 C258.776955,58.3213207 257.688327,58.1696543 256.64,57.86 C255.692436,57.5746421 254.830164,57.0593404 254.13,56.36 C253.390668,55.5918246 252.836575,54.6649162 252.51,53.65 C252.089489,52.3114714 251.893506,50.9125535 251.93,49.51 C251.891832,48.0468453 252.094537,46.5873725 252.53,45.19 C252.863714,44.1457515 253.431479,43.1914961 254.19,42.4 C254.887578,41.7096458 255.741908,41.1984202 256.68,40.91 C257.68274,40.6120948 258.723961,40.4638303 259.77,40.47 C260.689571,40.4570712 261.607953,40.5408652 262.51,40.72 C263.209432,40.8567889 263.883873,41.0995876 264.51,41.44 C264.994338,41.692972 265.409672,42.0602506 265.72,42.51 C265.99232,42.8963853 266.138973,43.3572943 266.14,43.83 C266.140383,44.1714242 266.079415,44.5101394 265.96,44.83 C265.827839,45.1717588 265.606912,45.4720812 265.32,45.7 C264.940035,45.9834458 264.508756,46.1905956 264.05,46.31 C263.380925,46.4829184 262.690759,46.5603517 262,46.54 C261.998173,46.0151351 261.964779,45.4908552 261.9,44.97 C261.837536,44.5162939 261.716528,44.0725977 261.54,43.65 C261.401705,43.3085763 261.186046,43.0039143 260.91,42.76 C260.629367,42.5283599 260.273667,42.4074221 259.91,42.42 C259.466187,42.4109938 259.029037,42.528955 258.65,42.76 C258.209592,43.0307692 257.861083,43.4280685 257.65,43.9 C257.342516,44.5829417 257.13699,45.3073365 257.04,46.05 C256.88539,47.1765186 256.815194,48.3130175 256.83,49.45 C256.725942,51.1183359 257.031485,52.7868059 257.72,54.31 C258.28674,55.3694787 259.421079,55.9992322 260.62,55.92 C261.146081,55.9253346 261.670579,55.8614535 262.18,55.73 C262.64184,55.6042496 263.085509,55.4193877 263.5,55.18 C263.869785,54.9504545 264.206267,54.6711746 264.5,54.35 C264.786637,54.050543 265.032127,53.714255 265.23,53.35 C265.483305,53.4926145 265.683364,53.7137326 265.8,53.98 C265.926457,54.2418839 265.991442,54.5291866 265.99,54.82 C265.98031,55.254533 265.85613,55.6788155 265.63,56.05 C265.353139,56.5113844 264.968905,56.8990489 264.51,57.18 C263.917747,57.5629089 263.265315,57.8434885 262.58,58.01 C261.692949,58.2239775 260.782375,58.3247791 259.87,58.31 Z" id="Path" fill="#464D57"></path>
            <path d="M285.4,49.36 C285.4,52.3666667 284.693333,54.61 283.28,56.09 C281.87,57.57 279.79,58.31 277.06,58.31 C275.883419,58.3298309 274.712437,58.1436923 273.6,57.76 C272.615697,57.4121993 271.72564,56.8405087 271,56.09 C270.254176,55.2923949 269.694117,54.3396122 269.36,53.3 C268.958181,52.0261332 268.765681,50.6955162 268.79,49.36 C268.79,46.3533333 269.496667,44.1133333 270.91,42.64 C272.323333,41.1666667 274.403333,40.4333333 277.15,40.44 C278.319114,40.4218921 279.482666,40.6045427 280.59,40.98 C281.572545,41.3265322 282.462167,41.8945217 283.19,42.64 C283.935824,43.4376051 284.495883,44.3903878 284.83,45.43 C285.232657,46.7002395 285.42519,48.0277064 285.4,49.36 Z M273.76,49.36 C273.752103,50.3629195 273.812241,51.3652198 273.94,52.36 C274.02679,53.1076876 274.22218,53.8387169 274.52,54.53 C274.728345,55.0520448 275.07385,55.5081104 275.52,55.85 C276.46973,56.4504133 277.68027,56.4504133 278.63,55.85 C279.074061,55.5060385 279.419095,55.0505948 279.63,54.53 C279.928746,53.8396888 280.120936,53.1080156 280.2,52.36 C280.439232,50.367154 280.439232,48.352846 280.2,46.36 C280.108755,45.6196202 279.913497,44.8958188 279.62,44.21 C279.407885,43.6983917 279.062583,43.2529511 278.62,42.92 C277.655607,42.3460266 276.454393,42.3460266 275.49,42.92 C275.046722,43.2522453 274.701258,43.6978945 274.49,44.21 C274.199297,44.8954589 274.010625,45.6198231 273.93,46.36 C273.810518,47.3554491 273.753739,48.3574255 273.76,49.36 Z" id="Shape" fill="#464D57" fill-rule="nonzero"></path>
            <path d="M300.31,58 L300.31,47.47 C300.31398,46.8538614 300.267155,46.2384435 300.17,45.63 C300.101055,45.1596057 299.955814,44.7036139 299.74,44.28 C299.549122,43.9365126 299.273773,43.647397 298.94,43.44 C298.571684,43.2424944 298.157691,43.1458959 297.74,43.16 C297.267413,43.140122 296.802059,43.2811383 296.42,43.56 C296.048154,43.847179 295.752784,44.2215432 295.56,44.65 C295.33635,45.1535982 295.181623,45.6850524 295.1,46.23 C295.006415,46.8522872 294.959617,47.4807152 294.96,48.11 L294.96,54.22 C294.947924,54.5875073 295.005608,54.9539738 295.13,55.3 C295.22245,55.5483225 295.381624,55.7663218 295.59,55.93 C295.801985,56.0871476 296.049149,56.1901326 296.31,56.23 C296.641232,56.2772018 296.975422,56.3005951 297.31,56.3 L297.41,56.3 L297.41,58 L287.54,58 L287.54,56.3 L287.6,56.3 C287.934525,56.2990843 288.26861,56.2756983 288.6,56.23 C288.883797,56.1892778 289.154245,56.0831524 289.39,55.92 C289.625567,55.7503324 289.809117,55.518298 289.92,55.25 C290.05333,54.878326 290.114426,54.4846016 290.1,54.09 L290.1,44.53 C290.114802,44.1631551 290.060527,43.7967961 289.94,43.45 C289.843869,43.2009841 289.681311,42.9830873 289.47,42.82 C289.253389,42.6644453 289.003397,42.5617092 288.74,42.52 C288.425392,42.4741902 288.107925,42.4507979 287.79,42.45 L287.7,42.45 L287.7,40.84 L294.42,40.84 L294.84,43.12 L295.04,43.12 C295.299378,42.5835749 295.636324,42.0882632 296.04,41.65 C296.370015,41.3131401 296.75567,41.0357387 297.18,40.83 C297.590885,40.6498042 298.025183,40.5286048 298.47,40.47 C298.945045,40.4207555 299.422417,40.3973877 299.9,40.4 C300.93545,40.3731349 301.962826,40.5888838 302.9,41.03 C303.731738,41.4534948 304.381861,42.1640118 304.73,43.03 L305.04,43.03 C305.297455,42.5195226 305.635071,42.0536127 306.04,41.65 C306.39646,41.3085114 306.809185,41.0311067 307.26,40.83 C307.695129,40.6495286 308.152569,40.5284417 308.62,40.47 C309.105116,40.4212599 309.592446,40.3978947 310.08,40.4 C310.835357,40.3892734 311.586741,40.5111195 312.3,40.76 C312.968244,40.9893583 313.567065,41.3851305 314.04,41.91 C314.508262,42.4663714 314.849528,43.1181887 315.04,43.82 C315.297067,44.72713 315.418383,45.667328 315.4,46.61 L315.4,54.03 C315.389693,54.4346075 315.436829,54.8386316 315.54,55.23 C315.651899,55.7546066 316.079032,56.1537969 316.61,56.23 C316.916917,56.2849283 317.228211,56.3117062 317.54,56.31 L317.64,56.31 L317.64,58.01 L310.53,58.01 L310.53,47.47 C310.585219,46.3771461 310.390268,45.2861054 309.96,44.28 C309.594629,43.5237616 308.795702,43.076362 307.96,43.16 C307.506573,43.1464053 307.059865,43.2720421 306.68,43.52 C306.319068,43.7842978 306.021814,44.1259697 305.81,44.52 C305.572457,44.9820603 305.407202,45.4778262 305.32,45.99 C305.214422,46.5673722 305.160873,47.1530548 305.16,47.74 L305.16,54.04 C305.149693,54.4446075 305.196829,54.8486316 305.3,55.24 C305.368882,55.4988796 305.507197,55.7340148 305.7,55.92 C305.891309,56.0818357 306.122807,56.1889469 306.37,56.23 C306.683599,56.2853138 307.001567,56.31209 307.32,56.31 L307.42,56.31 L307.42,58.01 L300.31,58 Z" id="Path" fill="#464D57"></path>
            <path d="M121.7,80.92 C120.603317,80.8690322 119.548175,81.3445893 118.86,82.2 C117.499392,84.3783276 117.499392,87.1416724 118.86,89.32 C119.576777,90.1531395 120.643269,90.6012141 121.74,90.53 C122.274178,90.5332914 122.807187,90.4796554 123.33,90.37 C123.83,90.26 124.33,90.12 124.92,89.95 L124.92,91.75 C123.821128,92.1490864 122.658994,92.3455988 121.49,92.33 C119.854964,92.4546235 118.250489,91.8378003 117.12,90.65 C116.024619,89.2609391 115.483061,87.5151273 115.6,85.75 C115.57508,84.54203 115.828271,83.344507 116.34,82.25 C116.793864,81.2839224 117.534027,80.4809154 118.46,79.95 C119.455418,79.3962065 120.5813,79.1199164 121.72,79.15 C122.980613,79.1363434 124.227012,79.4171256 125.36,79.97 L124.6,81.65 C124.153903,81.4442592 123.696503,81.26397 123.23,81.11 C122.732423,80.9702538 122.216645,80.9062029 121.7,80.92 Z" id="Path" fill="#FFAF3A"></path>
            <polygon id="Path" fill="#FFAF3A" points="130.49 92.15 128.42 92.15 128.42 78.47 130.49 78.47"></polygon>
            <path d="M143.04,87.27 C143.122279,88.6218594 142.68193,89.9536451 141.81,90.99 C140.92758,91.91301 139.684879,92.4027803 138.41,92.33 C137.565377,92.3451102 136.732471,92.1308358 136,91.71 C135.30103,91.2940515 134.743497,90.6772801 134.4,89.94 C134.003862,89.1068057 133.808635,88.1923241 133.83,87.27 C133.749948,85.9309517 134.182569,84.6116352 135.04,83.58 C135.931156,82.6586273 137.180499,82.1727719 138.46,82.25 C139.735716,82.1918169 140.971034,82.7050052 141.83,83.65 C142.675848,84.6606553 143.108104,85.9538525 143.04,87.27 Z M135.96,87.27 C135.96,89.52 136.79,90.64 138.45,90.64 C140.11,90.64 140.91,89.52 140.91,87.27 C140.91,85.02 140.08,83.94 138.43,83.94 C137.693467,83.8793788 136.978148,84.2048683 136.54,84.8 C136.140957,85.5587197 135.967456,86.4158173 136.04,87.27 L135.96,87.27 Z" id="Shape" fill="#FFAF3A" fill-rule="nonzero"></path>
            <path d="M153.29,92.15 L153.04,90.88 L152.94,90.88 C152.635232,91.3396802 152.209643,91.7064485 151.71,91.94 C151.145472,92.2097696 150.525532,92.3433479 149.9,92.33 C148.937477,92.4035362 147.985896,92.0863427 147.26,91.45 C146.627503,90.7105308 146.314568,89.7501427 146.39,88.78 L146.39,82.43 L148.47,82.43 L148.47,88.43 C148.428056,89.0259935 148.590292,89.6185065 148.93,90.11 C149.294926,90.507021 149.822512,90.713628 150.36,90.67 C151.085123,90.7327251 151.796076,90.4423883 152.27,89.89 C152.751686,89.1091957 152.969085,88.1940142 152.89,87.28 L152.89,82.43 L154.96,82.43 L154.96,92.15 L153.29,92.15 Z" id="Path" fill="#FFAF3A"></path>
            <path d="M162.14,92.33 C161.034642,92.3798493 159.974516,91.8871149 159.3,91.01 C157.927423,88.7270947 157.927423,85.8729053 159.3,83.59 C159.977654,82.7035211 161.045153,82.2033643 162.16,82.25 C163.316522,82.174983 164.429266,82.7048614 165.1,83.65 L165.2,83.65 C165.113271,83.1039591 165.063159,82.552729 165.05,82 L165.05,78.47 L167.13,78.47 L167.13,92.15 L165.51,92.15 L165.15,90.88 L165.04,90.88 C164.392443,91.836104 163.293417,92.385617 162.14,92.33 Z M162.7,90.66 C163.395154,90.7212774 164.079155,90.4550719 164.55,89.94 C165.001182,89.2506225 165.212101,88.4315535 165.15,87.61 L165.15,87.32 C165.228763,86.4085988 165.018857,85.4955115 164.55,84.71 C164.085567,84.1691984 163.390576,83.8830253 162.68,83.94 C162.003637,83.914952 161.364527,84.2497237 161,84.82 C160.564076,85.5853872 160.359154,86.4606468 160.41,87.34 C160.355938,88.2012302 160.554012,89.0595507 160.98,89.81 C161.365671,90.3730463 162.018827,90.6920291 162.7,90.65 L162.7,90.66 Z" id="Shape" fill="#FFAF3A" fill-rule="nonzero"></path>
            <path d="M170.77,91.05 C170.737978,90.6837234 170.861355,90.3208498 171.11,90.05 C171.669641,89.5755454 172.490359,89.5755454 173.05,90.05 C173.518001,90.6345325 173.518001,91.4654675 173.05,92.05 C172.786063,92.3115927 172.420111,92.4433354 172.05,92.41 C171.679529,92.4461766 171.312403,92.3140114 171.05,92.05 C170.829055,91.7663263 170.728489,91.4071616 170.77,91.05 Z" id="Path" fill="#FFAF3A"></path>
            <path d="M190.33,88.65 C190.3764,89.6945105 189.914344,90.6968735 189.09,91.34 C188.097038,92.0528583 186.890587,92.4056217 185.67,92.34 C184.447257,92.3844451 183.230278,92.1519885 182.11,91.66 L182.11,89.65 C182.705206,89.9319875 183.328712,90.1498793 183.97,90.3 C184.571758,90.4520951 185.189362,90.532652 185.81,90.54 C186.46139,90.5889224 187.110948,90.4238995 187.66,90.07 C188.020742,89.754772 188.227709,89.299065 188.227709,88.82 C188.227709,88.340935 188.020742,87.885228 187.66,87.57 C186.975816,87.0597385 186.21685,86.6583301 185.41,86.38 C184.462038,86.0593708 183.611785,85.5017147 182.94,84.76 C182.450224,84.1328037 182.192326,83.3555774 182.21,82.56 C182.169452,81.5818251 182.596357,80.6426336 183.36,80.03 C184.24087,79.3746114 185.323757,79.0490374 186.42,79.11 C187.689357,79.1141684 188.943475,79.3868028 190.1,79.91 L189.47,81.65 C188.507656,81.2099874 187.467579,80.9652636 186.41,80.93 C185.861071,80.8926693 185.31635,81.048304 184.87,81.37 C184.519549,81.6552437 184.323312,82.0884458 184.34,82.54 C184.330861,82.8403909 184.403442,83.1376279 184.55,83.4 C184.725355,83.673473 184.961489,83.9027623 185.24,84.07 C185.798549,84.3924172 186.380128,84.6731795 186.98,84.91 C187.71702,85.1873223 188.415922,85.5569338 189.06,86.01 C189.482989,86.3050907 189.826504,86.700133 190.06,87.16 C190.261195,87.6299555 190.353497,88.1393285 190.33,88.65 Z" id="Path" fill="#FFAF3A"></path>
            <path d="M197.84,92.33 C196.52583,92.4018722 195.241732,91.9194289 194.3,91 C193.410734,90.0036299 192.957025,88.6929149 193.04,87.36 C192.964101,86.0219808 193.380246,84.7024092 194.21,83.65 C195.03203,82.7216817 196.23161,82.2175636 197.47,82.28 C198.589751,82.2324933 199.678071,82.6569379 200.47,83.45 C201.258973,84.3240873 201.672098,85.4736526 201.62,86.65 L201.62,87.77 L195.15,87.77 C195.124787,88.562657 195.395735,89.3362847 195.91,89.94 C196.440227,90.4631587 197.166149,90.7390094 197.91,90.7 C198.450884,90.7052721 198.990733,90.6516224 199.52,90.54 C200.066018,90.4111527 200.598447,90.2303278 201.11,90 L201.11,91.65 C200.624124,91.8852592 200.109857,92.0566815 199.58,92.16 C199.006642,92.271296 198.424057,92.3282152 197.84,92.33 Z M197.47,83.82 C196.879346,83.7938841 196.305265,84.0191565 195.89,84.44 C195.4569,84.9504581 195.206976,85.591109 195.18,86.26 L199.59,86.26 C199.629642,85.6023257 199.422864,84.9534692 199.01,84.44 C198.610733,84.0199831 198.048914,83.7937964 197.47,83.82 Z" id="Shape" fill="#FFAF3A" fill-rule="nonzero"></path>
            <path d="M208.89,92.33 C207.637409,92.417243 206.410573,91.9448193 205.54,91.04 C204.708711,89.9932114 204.298556,88.6735839 204.39,87.34 C204.300668,85.9770198 204.729247,84.6305659 205.59,83.57 C206.49518,82.6520657 207.753273,82.1707082 209.04,82.25 C209.993885,82.235378 210.939389,82.4299402 211.81,82.82 L211.18,84.49 C210.496397,84.1918824 209.764752,84.019133 209.02,83.98 C207.34,83.98 206.5,85.09 206.5,87.32 C206.437229,88.1866619 206.658378,89.0501949 207.13,89.78 C207.574758,90.3790795 208.296103,90.7076502 209.04,90.65 C209.953796,90.6499509 210.85235,90.415845 211.65,89.97 L211.65,91.77 C211.283591,91.9850246 210.885266,92.1403039 210.47,92.23 C209.949136,92.3256586 209.418768,92.3592262 208.89,92.33 Z" id="Path" fill="#FFAF3A"></path>
            <path d="M221.74,92.15 L221.45,90.88 L221.34,90.88 C221.042416,91.3421667 220.619199,91.7098804 220.12,91.94 C219.55137,92.2081508 218.928578,92.3416063 218.3,92.33 C217.337759,92.4012618 216.387036,92.0843539 215.66,91.45 C215.027503,90.7105308 214.714568,89.7501427 214.79,88.78 L214.79,82.43 L216.88,82.43 L216.88,88.43 C216.835137,89.024828 216.993818,89.6172377 217.33,90.11 C217.699742,90.5061178 218.229784,90.7122453 218.77,90.67 C219.494361,90.7277658 220.203148,90.4383136 220.68,89.89 C221.157532,89.1077499 221.371355,88.1928713 221.29,87.28 L221.29,82.43 L223.36,82.43 L223.36,92.15 L221.74,92.15 Z" id="Path" fill="#FFAF3A"></path>
            <path d="M232.24,82.25 C232.575549,82.2453231 232.910678,82.2754847 233.24,82.34 L233.04,84.27 C232.73863,84.1978194 232.429892,84.1609051 232.12,84.16 C231.369064,84.1365886 230.643013,84.430639 230.12,84.97 C229.596682,85.5412134 229.319967,86.2958914 229.35,87.07 L229.35,92.15 L227.29,92.15 L227.29,82.43 L228.91,82.43 L229.18,84.14 L229.28,84.14 C229.585763,83.5842504 230.021503,83.1107692 230.55,82.76 C231.049437,82.4243566 231.638267,82.2466621 232.24,82.25 Z" id="Path" fill="#FFAF3A"></path>
            <path d="M235.95,79.85 C235.928983,79.5374847 236.037475,79.2300887 236.25,79 C236.487447,78.7863765 236.80135,78.6781341 237.12,78.7 C237.429124,78.6817639 237.732366,78.7900646 237.96,79 C238.175131,79.2290758 238.287145,79.5362116 238.27,79.85 C238.285143,80.1575156 238.173024,80.4577035 237.96,80.68 C237.736626,80.897771 237.431291,81.0104544 237.12,80.99 C236.799253,81.0140269 236.483282,80.9014394 236.25,80.68 C236.039583,80.4566878 235.930987,80.1562388 235.95,79.85 Z M238.13,92.15 L236.04,92.15 L236.04,82.43 L238.1,82.43 L238.13,92.15 Z" id="Shape" fill="#FFAF3A" fill-rule="nonzero"></path>
            <path d="M245.71,90.65 C246.222661,90.6478855 246.731947,90.5669394 247.22,90.41 L247.22,91.96 C246.937969,92.0789348 246.642437,92.1628928 246.34,92.21 C245.971016,92.2822094 245.595982,92.319043 245.22,92.32 C243.22,92.32 242.28,91.32 242.28,89.22 L242.28,83.99 L240.95,83.99 L240.95,83.08 L242.38,82.32 L243.08,80.32 L244.36,80.32 L244.36,82.48 L247.12,82.48 L247.12,84.04 L244.36,84.04 L244.36,89.25 C244.326042,89.6520403 244.459972,90.0502094 244.73,90.35 C245.004532,90.5749321 245.356599,90.6827075 245.71,90.65 Z" id="Path" fill="#FFAF3A"></path>
            <path d="M248.69,82.43 L250.94,82.43 L252.94,87.94 C253.221288,88.652153 253.422524,89.3933731 253.54,90.15 L253.61,90.15 C253.680412,89.7539575 253.777296,89.363081 253.9,88.98 C254.04,88.52 254.79,86.34 256.13,82.43 L258.37,82.43 L254.21,93.43 C253.45,95.43 252.19,96.43 250.43,96.43 C249.979116,96.4305076 249.529612,96.3801899 249.09,96.28 L249.09,94.65 C249.441536,94.7259019 249.800374,94.7627917 250.16,94.76 C251.179788,94.7398058 252.050613,94.0182648 252.26,93.02 L252.62,92.11 L248.69,82.43 Z" id="Path" fill="#FFAF3A"></path>
            <path d="M260.51,91.05 C260.4801,90.6857389 260.59917,90.32492 260.84,90.05 C261.107139,89.794381 261.471761,89.6667632 261.84,89.7 C262.210111,89.6666646 262.576063,89.7984073 262.84,90.06 C263.081459,90.3350568 263.203761,90.6947683 263.18,91.06 C263.200512,91.424795 263.078617,91.7833087 262.84,92.06 C262.574594,92.3192579 262.209754,92.4506003 261.84,92.42 C261.469709,92.4547423 261.103179,92.3227913 260.84,92.06 C260.602503,91.7792468 260.484086,91.4168182 260.51,91.05 Z" id="Path" fill="#FFAF3A"></path>
            <path d="M280.63,92.15 L279.35,88.58 L274.43,88.58 L273.18,92.15 L270.96,92.15 L275.77,79.25 L278.04,79.25 L282.85,92.15 L280.63,92.15 Z M278.79,86.77 L277.59,83.27 C277.5,83.04 277.38,82.67 277.22,82.17 C277.06,81.67 276.96,81.29 276.9,81.06 C276.717311,81.8597336 276.486898,82.6478105 276.21,83.42 L275.04,86.77 L278.79,86.77 Z" id="Shape" fill="#FFAF3A" fill-rule="nonzero"></path>
            <path d="M293.89,92.15 L291.82,92.15 L291.82,86.15 C291.861944,85.5540065 291.699708,84.9614935 291.36,84.47 C290.991486,84.0791739 290.46543,83.8768445 289.93,83.92 C289.203933,83.8565027 288.490999,84.1424185 288.01,84.69 C287.537162,85.4704867 287.323622,86.3806588 287.4,87.29 L287.4,92.15 L285.34,92.15 L285.34,82.43 L286.96,82.43 L287.25,83.7 L287.35,83.7 C287.655807,83.2359913 288.090171,82.8711252 288.6,82.65 C289.161692,82.3939366 289.772722,82.2642207 290.39,82.27 C292.723333,82.27 293.89,83.4566667 293.89,85.83 L293.89,92.15 Z" id="Path" fill="#FFAF3A"></path>
            <path d="M303.85,92.15 L303.43,90.8 L303.36,90.8 C302.988525,91.3056749 302.506201,91.7195837 301.95,92.01 C301.368266,92.2405616 300.745455,92.3494684 300.12,92.33 C299.299146,92.3794594 298.492599,92.0986083 297.88,91.55 C297.318701,90.9640638 297.028549,90.1697721 297.08,89.36 C297.028361,88.4641958 297.449499,87.6067443 298.19,87.1 C299.227868,86.5119341 300.407736,86.2212921 301.6,86.26 L303.27,86.26 L303.27,85.65 C303.306264,85.149113 303.152764,84.6529144 302.84,84.26 C302.474422,83.9241302 301.984597,83.7572268 301.49,83.8 C301.005466,83.7974224 300.523335,83.8682249 300.06,84.01 C299.609269,84.1547485 299.168352,84.3284431 298.74,84.53 L298.04,83.1 C298.586414,82.8147477 299.168111,82.6029158 299.77,82.47 C300.353561,82.3321194 300.950429,82.2583492 301.55,82.25 C302.550008,82.1779811 303.542891,82.4652079 304.35,83.06 C305.027451,83.7234659 305.372324,84.6553576 305.29,85.6 L305.29,92.15 L303.85,92.15 Z M300.77,90.74 C301.431995,90.7712294 302.080464,90.5455192 302.58,90.11 C303.051294,89.6497853 303.299434,89.0075413 303.26,88.35 L303.26,87.51 L302.01,87.51 C301.273056,87.4893301 300.543129,87.6580398 299.89,88 C299.442009,88.289034 299.185628,88.797971 299.22,89.33 C299.201205,89.7037363 299.343139,90.0676693 299.61,90.33 C299.931419,90.6075589 300.345554,90.7539341 300.77,90.74 Z" id="Shape" fill="#FFAF3A" fill-rule="nonzero"></path>
            <polygon id="Path" fill="#FFAF3A" points="311.27 92.15 309.21 92.15 309.21 78.47 311.27 78.47"></polygon>
            <path d="M313.75,82.43 L316.04,82.43 L318.04,87.94 C318.321288,88.652153 318.522524,89.3933731 318.64,90.15 L318.71,90.15 C318.785051,89.7549581 318.881866,89.3643632 319,88.98 C319.14,88.52 319.89,86.34 321.23,82.43 L323.47,82.43 L319.31,93.43 C318.55,95.43 317.29,96.43 315.53,96.43 C315.079116,96.4305076 314.629612,96.3801899 314.19,96.28 L314.19,94.65 C314.541674,94.7250361 314.900416,94.7619161 315.26,94.76 C316.279788,94.7398058 317.150613,94.0182648 317.36,93.02 L317.72,92.11 L313.75,82.43 Z" id="Path" fill="#FFAF3A"></path>
            <path d="M329.5,90.65 C330.012661,90.6478855 330.521947,90.5669394 331.01,90.41 L331.01,91.96 C330.724451,92.0787773 330.425631,92.1627156 330.12,92.21 C329.751087,92.2826982 329.376007,92.3195365 329,92.32 C327.05,92.32 326.07,91.32 326.07,89.22 L326.07,83.99 L324.74,83.99 L324.74,83.08 L326.16,82.32 L326.87,80.32 L328.14,80.32 L328.14,82.48 L330.91,82.48 L330.91,84.04 L328.14,84.04 L328.14,89.25 C328.110746,89.6514589 328.244071,90.0478302 328.51,90.35 C328.788115,90.5755326 329.143476,90.6832176 329.5,90.65 Z" id="Path" fill="#FFAF3A"></path>
            <path d="M333.83,79.85 C333.808983,79.5374847 333.917475,79.2300887 334.13,79 C334.367447,78.7863765 334.68135,78.6781341 335,78.7 C335.309124,78.6817639 335.612366,78.7900646 335.84,79 C336.059357,79.2264512 336.172069,79.5354992 336.15,79.85 C336.17013,80.15827 336.057285,80.4604034 335.84,80.68 C335.616626,80.897771 335.311291,81.0104544 335,80.99 C334.679253,81.0140269 334.363282,80.9014394 334.13,80.68 C333.919583,80.4566878 333.810987,80.1562388 333.83,79.85 Z M336.04,92.15 L333.98,92.15 L333.98,82.43 L336.04,82.43 L336.04,92.15 Z" id="Shape" fill="#FFAF3A" fill-rule="nonzero"></path>
            <path d="M343.89,92.33 C342.634845,92.4146946 341.405989,91.9429018 340.53,91.04 C338.988954,88.7815282 339.012875,85.8034263 340.59,83.57 C341.492951,82.6486613 342.75266,82.1666855 344.04,82.25 C344.993977,82.2343997 345.939691,82.4290051 346.81,82.82 L346.19,84.49 C345.506397,84.1918824 344.774752,84.019133 344.03,83.98 C342.35,83.98 341.5,85.09 341.5,87.32 C341.437229,88.1866619 341.658378,89.0501949 342.13,89.78 C342.572698,90.3373136 343.259582,90.6434247 343.97,90.6 C344.883796,90.5999509 345.78235,90.365845 346.58,89.92 L346.58,91.72 C346.21542,91.938777 345.816459,92.0943045 345.4,92.18 C344.904094,92.2877999 344.397423,92.3381315 343.89,92.33 Z" id="Path" fill="#FFAF3A"></path>
            <path d="M356.41,89.38 C356.462136,90.2309741 356.087211,91.0520609 355.41,91.57 C354.515538,92.1342231 353.46521,92.4003063 352.41,92.33 C351.338743,92.3720916 350.271916,92.1703518 349.29,91.74 L349.29,89.95 C350.283214,90.4422262 351.371863,90.7118288 352.48,90.74 C353.75,90.74 354.39,90.36 354.39,89.59 C354.397786,89.3677024 354.322975,89.1503964 354.18,88.98 C353.982412,88.7656924 353.744553,88.5923951 353.48,88.47 C353.047474,88.2398077 352.599771,88.0393438 352.14,87.87 C351.298863,87.6044662 350.524686,87.1611049 349.87,86.57 C349.460047,86.1048247 349.245153,85.4995422 349.27,84.88 C349.242477,84.1032528 349.621364,83.3682115 350.27,82.94 C351.101248,82.4326265 352.067879,82.1918411 353.04,82.25 C354.15818,82.2437344 355.264139,82.4826762 356.28,82.95 L355.61,84.5 C354.778944,84.1185614 353.883151,83.8980065 352.97,83.85 C351.88,83.85 351.33,84.16 351.33,84.78 C351.34324,85.0930018 351.5024,85.3817093 351.76,85.56 C352.345711,85.9182782 352.969571,86.2100835 353.62,86.43 C354.233474,86.6465444 354.820528,86.9316849 355.37,87.28 C355.70329,87.5122112 355.980114,87.8163764 356.18,88.17 C356.349919,88.5498968 356.428681,88.9642538 356.41,89.38 Z" id="Path" fill="#FFAF3A"></path>
            <path d="M359.33,91.05 C359.302821,90.6843247 359.425561,90.3233253 359.67,90.05 C359.937139,89.794381 360.301761,89.6667632 360.67,89.7 C361.040111,89.6666646 361.406063,89.7984073 361.67,90.06 C361.911459,90.3350568 362.033761,90.6947683 362.01,91.06 C362.030512,91.424795 361.908617,91.7833087 361.67,92.06 C361.404594,92.3192579 361.039754,92.4506003 360.67,92.42 C360.299709,92.4547423 359.933179,92.3227913 359.67,92.06 C359.428904,91.7807753 359.306842,91.4181815 359.33,91.05 Z" id="Path" fill="#FFAF3A"></path>
        </g>
    </g>
</svg>