<?xml version="1.0" encoding="UTF-8"?>
<svg width="200px" height="109px" viewBox="0 0 200 109" version="1.1" xmlns="http://www.w3.org/2000/svg" xmlns:xlink="http://www.w3.org/1999/xlink">
    <!-- Generator: Sketch 52.2 (67145) - http://www.bohemiancoding.com/sketch -->
    <title>Group 7</title>
    <desc>Created with Sketch.</desc>
    <g id="Page-1" stroke="none" stroke-width="1" fill="none" fill-rule="evenodd">
        <g id="Group-7" transform="translate(0.000000, -21.000000)">
            <rect id="Rectangle-Copy-4" fill="#D8D8D8" opacity="0" x="0" y="0" width="200" height="150"></rect>
            <g id="Russia_map-2" transform="translate(0.000000, 21.000000)" fill="#FF8200" fill-rule="nonzero">
                <g id="Russia_map">
                    <path d="M171.488137,108.348477 C172.076248,107.918881 172.077957,107.824487 171.527611,106.169242 C171.211215,105.217635 170.683249,104.107073 170.354354,103.701323 C169.833683,103.058982 169.814529,102.8516 170.206202,102.097419 C170.453614,101.621023 170.809639,101.21233 170.997369,101.18921 C171.185101,101.166092 171.623997,101.12826 171.972689,101.105142 C172.738882,101.054338 173.117203,99.8518144 172.644552,98.9695665 C172.401533,98.5159422 172.421318,98.1860847 172.712578,97.8354964 C173.129528,97.3336171 173.117676,97.2849842 172.006246,94.9374768 C171.676112,94.2401856 171.666442,93.9127108 171.96536,93.5529071 C172.268183,93.1883978 172.241549,92.9860288 171.847787,92.659568 C171.567789,92.4274326 171.3387,91.8777131 171.3387,91.4379776 C171.3387,90.9982398 171.22366,90.6384545 171.083051,90.6384545 C170.789517,90.6384545 169.821604,92.0490551 169.904728,92.3556977 C169.935138,92.4678893 169.584474,92.7604656 169.125471,93.0058654 C168.666465,93.2512652 168.202841,93.8026047 168.095194,94.2310646 C167.987544,94.6595245 167.775233,95.0100827 167.623385,95.0100827 C167.471537,95.0100827 167.129076,95.2280827 166.862359,95.4945221 C166.155307,96.2008536 165.10291,95.7829089 164.425798,94.5268786 C164.005035,93.7463695 163.581874,93.4192704 162.958059,93.3923315 C162.475969,93.3715086 161.506647,93.2985016 160.80401,93.2300943 C160.101371,93.1616847 159.454393,93.2222408 159.366278,93.364669 C159.130437,93.7458786 157.911796,93.4374893 156.943048,92.7514437 C155.743662,91.902071 155.436982,91.7269935 154.6758,91.4571252 C154.036467,91.2304605 154.042227,91.2079392 154.790137,91.0100823 L155.577724,90.8017287 L154.705983,89.8620658 C154.226525,89.345256 153.834239,88.7788777 153.834239,88.6034545 C153.834239,88.4280313 153.676146,88.2845016 153.482924,88.2845016 C153.289699,88.2845016 152.721646,87.898773 152.220585,87.4273284 C151.367927,86.6250792 151.1478,86.5813662 148.784875,86.7450782 C145.16437,86.9959257 144.745872,87.068239 144.741217,87.4438028 C144.738926,87.6287571 144.208742,88.1219579 143.563032,88.5398013 C142.22831,89.4035145 142.091664,89.9548863 143.062264,90.5604147 C143.815106,91.0300895 143.977646,92.6160118 143.338391,93.2546112 C143.119265,93.4735123 142.926474,94.6717818 142.908257,95.928031 C142.879191,97.9328912 142.76315,98.3239109 141.936398,99.2028426 L140.997549,100.200953 L139.510107,99.6666204 C138.289999,99.2283228 137.917032,99.2094541 137.434894,99.5616439 C136.955002,99.9121884 136.679374,99.9043464 135.933258,99.5189081 C135.111717,99.0945086 134.898343,99.1181775 133.820892,99.7532373 C133.161708,100.141766 132.534862,100.807975 132.427904,101.233699 C132.290723,101.779716 131.908333,102.068674 131.12989,102.214563 C130.52294,102.328308 129.758087,102.717498 129.430206,103.079429 C129.102331,103.441355 128.678499,103.641429 128.488356,103.524036 C128.298213,103.406641 127.270958,103.342015 126.205565,103.380421 C124.594596,103.438497 124.153388,103.326831 123.584788,102.717139 C123.139851,102.240046 122.658098,102.047503 122.205295,102.165792 C121.737141,102.288089 121.396935,102.137443 121.165438,101.705331 C120.734961,100.9018 118.35294,100.823163 116.928209,101.565453 C116.3979,101.841744 115.683955,102.068731 115.341664,102.069872 C114.63634,102.072218 112.766082,100.222755 112.766082,99.5229201 C112.766082,99.022935 111.100963,98.0365933 110.256899,98.0365933 C109.423339,98.0365933 107.242481,96.7466233 106.987245,96.1026061 C106.797796,95.6245893 106.749736,95.662783 106.730506,96.3066527 C106.717494,96.7423393 106.328144,97.548407 105.865286,98.0979214 C104.989819,99.1372859 104.760564,100.665706 105.386359,101.290859 C105.645459,101.549691 105.499653,101.90221 104.875687,102.525536 C104.167037,103.233462 103.79718,103.359128 102.914084,103.192049 C102.315526,103.0788 101.643078,102.843081 101.419759,102.668234 C101.196442,102.493382 100.875854,102.435444 100.707344,102.539482 C100.359957,102.753957 99.5117982,101.871868 99.1862803,100.957558 C99.0247278,100.503789 98.6883656,100.374618 97.8727762,100.453139 C97.2697843,100.511191 96.6249493,100.377079 96.4398051,100.155118 C96.1818097,99.8458136 95.6707301,99.9158363 94.2517497,100.454905 C93.2334614,100.841751 91.9694475,101.141821 91.442827,101.121729 C90.7566055,101.09555 90.5360035,101.217096 90.6641696,101.550742 C90.864158,102.071372 90.3370854,102.339022 88.5581465,102.620202 C87.894188,102.725149 87.2465063,102.874981 87.1188524,102.953166 C86.9912007,103.031351 86.5367578,102.723639 86.1089792,102.269358 C85.6410715,101.772463 84.8660496,101.40114 84.163639,101.337325 C83.1711615,101.247155 82.949316,101.067349 82.6842895,100.138339 C82.5128085,99.5372399 82.1672007,99.045431 81.9162687,99.045431 C81.6332076,99.045431 81.4600265,98.6604328 81.4600265,98.0311526 C81.4600265,97.2025221 81.2437659,96.9138519 80.278474,96.4540078 C79.4362803,96.0528072 78.9930461,95.9949058 78.7352768,96.2524108 C78.165143,96.82196 77.1034567,96.3595534 76.5568501,95.30362 C76.0293968,94.2846843 75.0641672,93.9861464 75.0641672,94.8419439 C75.0641672,95.1193731 74.8369446,95.3463604 74.5592307,95.3463604 C74.1636736,95.3463604 74.0542941,94.8860901 74.0542941,93.2215817 C74.0542941,92.0529542 73.8167693,90.2977846 73.5264579,89.3212068 C73.2361465,88.3446244 73.068767,87.475528 73.154504,87.3898812 C73.2402434,87.3042298 72.9475836,86.8430838 72.5041557,86.3651084 C71.5059066,85.2890825 71.4990669,85.063865 72.4553299,84.7574782 C73.1137059,84.5465344 73.0390208,84.4809662 71.884128,84.256016 C70.9270138,84.0695868 70.4275213,84.1250985 70.0977336,84.4545481 C69.6375652,84.9142447 68.3572884,84.896588 67.2094268,84.4147089 C66.7273737,84.21234 66.6901349,84.0950348 67.0394752,83.879353 C67.390714,83.6625006 67.3425294,83.4942051 66.815233,83.0961477 C66.4458489,82.8172967 65.9590254,82.5843362 65.7334083,82.5784507 C65.5077912,82.5725698 65.4103864,82.3407685 65.5169539,82.0633393 C65.658654,81.6944607 65.47491,81.5589205 64.833143,81.5589205 C63.9947255,81.5589205 63.6600334,80.9574041 64.198917,80.4190754 C64.3327578,80.2853695 64.4756367,79.6548472 64.5164256,79.0179115 C64.5771361,78.0698996 64.4719412,77.8598499 63.9364533,77.8598499 C63.5766794,77.8598499 62.9875744,77.565407 62.6273322,77.2055342 C62.1032491,76.6819885 61.7692791,76.6093964 60.9563057,76.8423153 C59.8473483,77.160033 56.8311661,76.6240388 53.3519043,75.4909619 C52.2410438,75.1291925 51.1168639,74.833231 50.8537266,74.8332679 C50.5905917,74.8333071 50.1078212,74.5915275 49.78091,74.2959785 C49.4539965,74.0004295 49.0435836,73.8468663 48.8688824,73.9547279 C48.3508916,74.2745357 48.1627693,75.9701264 48.5848524,76.5147346 C48.9221742,76.9499718 48.8975398,76.9579636 48.4052238,76.5729908 C47.508511,75.871789 46.2664671,76.1949245 46.3629815,77.1043071 C46.4535998,77.9581343 45.5450923,78.1530714 44.8008293,77.4395017 C44.4426332,77.0960733 44.3963057,77.2653022 44.5476644,78.3642687 C44.9527878,81.3057409 44.9491707,81.3671842 44.3636828,81.4858421 C44.0487439,81.5496727 43.4633045,81.2253252 43.0627116,80.7650732 C42.6621142,80.3048213 42.1487855,79.999384 41.9219827,80.0863305 C41.3859389,80.2918174 40.8233552,79.5914105 40.676594,78.5358458 C40.6051453,78.0219557 40.3015167,77.6492679 39.8904602,77.5709054 C39.5221165,77.5006868 39.0140865,77.1484924 38.7615075,76.7882532 C38.5035859,76.4203978 38.0845063,76.2167544 37.8055121,76.3237035 C37.5322941,76.4284403 36.9420865,76.4221998 36.4939435,76.3098377 C35.8718443,76.1538616 35.6791315,75.8802555 35.6791315,75.1530089 C35.6791315,73.9884672 35.1697705,73.5990169 34.7020219,74.4059164 C34.4392561,74.8592044 34.383466,74.6170331 34.4684948,73.3921796 C34.559233,72.0851152 34.4601234,71.718677 33.9407647,71.4410127 C33.5890715,71.2529843 33.3240934,70.9178888 33.351925,70.6963561 C33.4762249,69.7069818 33.282481,69.4161914 32.5653552,69.5158031 C31.9996021,69.5943937 31.7811638,69.4328318 31.7020796,68.8773074 C31.6079158,68.2158641 31.4496759,68.1540797 30.2714268,68.3187158 C29.4936551,68.4273909 28.9466448,68.3657932 28.9466448,68.1695379 C28.9466448,67.9856805 28.3028524,67.867677 27.5159919,67.9073042 C26.3468178,67.9661826 26.066361,68.1088136 25.9815006,68.6876797 C25.9243887,69.077259 25.6535629,69.481914 25.3796667,69.5869112 C24.8296621,69.7977513 24.400481,69.0354864 24.6716828,68.3294729 C24.9985248,67.4786093 24.4250438,67.1373056 22.9913114,67.3294152 C21.9020819,67.47536 21.5512676,67.6844787 21.402534,68.2764754 C21.206504,69.0567219 19.8577912,69.6974114 19.8577912,69.0102851 C19.8577912,68.8014959 19.6174221,68.9734901 19.323639,69.3924949 C18.916391,69.9733243 18.8808385,70.2642852 19.1739919,70.6171525 C19.4718097,70.9756311 19.4214752,71.1569905 18.9507416,71.4215679 C18.3796897,71.7425233 18.3904671,71.8075062 19.1291984,72.4974624 C19.6658143,72.9986527 19.8542941,73.4593079 19.722887,73.9484875 C19.6169977,74.3426757 19.5282918,74.8543558 19.5257636,75.0855464 C19.5232353,75.3167393 19.2939458,75.505897 19.0162295,75.505897 C18.407895,75.505897 18.3406794,76.7059824 18.9286817,77.0690146 C19.8666794,77.6481341 17.6234014,77.7222887 16.2775029,77.1566501 C15.0591153,76.6446013 14.7724671,76.6300027 13.9818627,77.0397551 C13.4849862,77.2972716 12.9753829,77.4935569 12.8494106,77.4759464 C11.773406,77.3255126 11.4359804,77.5824299 11.5058858,78.4989102 C11.5468016,79.0353469 11.3879481,79.7057592 11.1528731,79.9887144 C10.7983449,80.4154575 10.8364233,80.5625015 11.3761903,80.8510795 C11.7340865,81.0424218 12.1225709,81.1034203 12.2394844,80.9866221 C12.3564002,80.8698262 12.4520588,80.9508157 12.4520588,81.1665919 C12.4520588,81.3987965 11.9134152,81.5589205 11.132308,81.5589205 C9.70189273,81.5589205 9.78854325,81.4173656 9.22817647,84.6695016 C9.06396424,85.6225234 8.8501857,85.9305487 8.35297463,85.9305487 C6.95092157,85.9305487 6.39282238,85.3104792 6.39282238,83.7527471 C6.39282238,82.9378788 6.23150058,82.1715696 6.03432872,82.0498376 C5.83715686,81.9281032 5.70172664,81.4273646 5.7333737,80.9370835 C5.88363206,78.6091708 5.71997116,78.0306319 4.75626644,77.4830602 C3.9654729,77.0337336 3.76495156,76.6521852 3.61331834,75.3082682 C3.51217416,74.4118458 3.25985352,73.621946 3.05260554,73.552935 C2.54668397,73.3844666 1.6800812,71.6675968 1.6800812,70.833756 C1.6800812,70.465154 1.39341223,69.962982 1.04303852,69.7178195 C0.498385698,69.3367251 0.376551788,68.6732677 0.202997001,65.1432992 L4.61361014e-07,61.0145221 L0.8128609,61.8907139 C1.52936609,62.6630423 1.70875017,62.7151042 2.3261511,62.3299263 C2.88892388,61.9788311 3.15889389,61.9754988 3.69982814,62.3129725 C4.30427336,62.6900664 4.37307612,62.64881 4.37307612,61.90929 C4.37307612,61.4562533 4.52455709,60.9920653 4.70970127,60.8777559 C4.89484314,60.7634488 5.04750519,60.7923488 5.04895156,60.9419784 C5.05157901,61.214324 6.62569666,62.0547324 7.13317993,62.0547324 C7.64153057,62.0547324 7.40282468,61.0793898 6.81360208,60.7489423 C6.29301615,60.4569883 6.28626413,60.3947891 6.75555133,60.2140888 C7.41771511,59.9591187 9.0858143,60.5648245 9.0858143,61.0602353 C9.0858143,61.551074 10.5178835,61.0992932 10.8698189,60.4974289 C11.0178766,60.244224 11.3587093,60.0370594 11.6272238,60.0370594 C11.8957405,60.0370594 12.1154337,59.9033812 12.1154337,59.740001 C12.1154337,59.5766185 12.4183956,59.3637989 12.7886817,59.2670632 C13.6199596,59.049902 13.706158,57.3181478 12.9571061,55.8834105 C12.6817359,55.3559634 12.5438881,54.5763138 12.6507809,54.1508566 C12.8137682,53.5021269 12.6841603,53.3419822 11.8475744,53.1584266 C10.9875928,52.9697368 10.8609331,52.8009781 10.9291476,51.9347345 C10.9726655,51.3820861 11.3331246,50.6275849 11.7301649,50.2580634 C12.5920334,49.455934 12.6070046,49.310487 11.9274383,48.3412696 C11.4319689,47.6346131 11.4501511,47.5750618 12.2546609,47.2695 C12.7595675,47.0777337 13.1995236,46.5757161 13.3349008,46.0368874 C13.5269031,45.2726753 13.3625017,44.9439861 12.3032053,43.9742088 L11.043113,42.8206039 L11.9788754,41.8448788 C13.0858374,40.6906448 13.3246863,40.6448303 13.559466,41.541709 C13.6885594,42.0348568 14.0186286,42.2142689 14.7967785,42.2142689 C15.4867047,42.2142689 15.7774798,42.0840635 15.6278143,41.842148 C15.3049654,41.3203007 16.1401465,38.832552 16.9403564,37.9324908 C17.3075098,37.5195237 17.88691,37.0931816 18.2279135,36.9850619 C18.8738051,36.7802733 19.1014106,35.3486055 18.5428962,35.0037784 C18.3751338,34.9002007 18.3125917,34.5300363 18.4039112,34.1811856 C18.4952307,33.8323372 18.4052676,33.4452443 18.2039965,33.3209774 C17.6574937,32.9835682 17.7624187,32.1258949 18.3501995,32.1258949 C18.6318835,32.1258949 19.0349008,31.747582 19.2457935,31.2851984 C19.456684,30.8228149 19.8321396,30.4444996 20.0801373,30.4444996 C20.3281326,30.4444996 20.5310392,30.2984996 20.5310392,30.120053 C20.5310392,29.9416064 20.85697,29.6213515 21.2553299,29.4083751 C21.8722641,29.0785407 21.9486747,29.1017095 21.7708316,29.564683 C21.4924164,30.2894754 22.0632007,30.2591144 22.6158535,29.5197326 C22.8577797,29.1960648 23.7824048,28.5892597 24.6705709,28.1712781 C26.4255513,27.3453646 27.2591084,27.4981766 27.9409008,28.7708127 C28.5447416,29.8979372 28.9705271,29.535147 28.7392884,28.0905467 C28.5896943,27.1560042 28.6459204,26.7454314 28.923489,26.7454314 C29.1432215,26.7454314 29.2193529,26.577894 29.0926701,26.3731238 C28.9423841,26.1302059 29.0817128,26.0697996 29.4935836,26.1993068 C30.8318697,26.6201114 33.8149331,27.0817091 35.1960957,27.0817091 C36.6400842,27.0817091 37.899902,26.3335796 37.5119273,25.7064747 C37.1529123,25.1261684 37.7259596,24.0985335 38.4721949,23.9844499 C38.8800173,23.9221033 39.1758143,23.6855272 39.1295283,23.4587265 C39.0832422,23.2319259 39.3483356,23.0463608 39.7186217,23.0463608 C40.1343933,23.0463608 40.3928731,22.8213 40.3944948,22.4578738 C40.3970277,21.8909632 41.7513783,21.0286856 42.6392768,21.0286856 C42.8758143,21.0286856 43.3358443,20.6125406 43.6615675,20.1039185 C44.4781788,18.8287683 45.1279435,18.3625732 46.114481,18.3439995 C47.293489,18.3218031 47.6786101,17.9925678 47.9413276,16.7822576 C48.1337497,15.8958041 48.3599712,15.6996249 49.3805386,15.5341799 C50.2705571,15.3898967 50.8334591,15.510034 51.5047347,15.9875324 C52.0070461,16.3448427 52.4929516,16.5623403 52.5845271,16.4708563 C52.6761027,16.3793747 52.9522249,16.5467047 53.1981326,16.8427007 C53.490767,17.1949436 53.5262134,17.4591568 53.3007301,17.6074567 C52.8484187,17.9049392 52.4885456,19.3472903 52.8666401,19.3472903 C53.0279319,19.3472903 53.3416759,19.6865914 53.5638443,20.1012915 C54.0603587,21.0280818 53.972481,28.0505785 53.4566009,28.6715397 C53.2625202,28.9051523 52.5372261,29.2658432 51.8448362,29.4730769 C50.8079319,29.7834204 50.4412791,29.7551657 49.765496,29.3128308 C48.5347878,28.5072655 47.4428039,25.101769 47.4536851,22.1031306 C47.4571684,21.1432785 46.8827486,21.4389519 46.3743933,22.658678 C45.8921373,23.8157764 45.869722,23.9053039 45.8199366,24.8732354 C45.7924141,25.4082848 45.5158466,25.7706465 45.0204533,25.9207231 C43.7172699,26.3155128 42.7482388,27.4523137 42.7482388,28.5863285 C42.7482388,29.1644341 42.5664625,29.8190217 42.3442895,30.0409669 C42.0784279,30.3065559 42.0650069,30.4444996 42.30503,30.4444996 C42.5056067,30.4444996 42.7489423,30.7471509 42.8457774,31.1170596 C43.0423472,31.8679797 43.908684,32.0154593 44.3273368,31.369269 C44.4771223,31.1380761 44.5996736,30.5738939 44.5996736,30.1155293 C44.5996736,29.5953735 44.8175559,29.2392062 45.1793737,29.1679115 C45.6422411,29.076704 45.7504556,29.2827509 45.7163033,30.1902554 C45.6303218,32.4750245 47.2135006,33.6080092 47.8686517,31.7305591 C48.2210969,30.7205715 48.2346655,30.7158221 50.1014429,30.9488217 C51.236684,31.0905148 52.1418697,31.4029392 52.3897728,31.7386407 C52.6192976,32.0494497 52.6611107,32.3437083 52.4847186,32.4068269 C51.9563287,32.5959108 52.5061649,33.1347326 53.2275029,33.1347326 C54.0378651,33.1347326 54.7477266,32.489312 54.9180035,31.5976966 C54.9873552,31.2345376 55.3708754,30.9019978 55.7891615,30.8423381 C56.2001511,30.7837201 56.8271822,30.3664921 57.1825617,29.9151629 C57.5911499,29.3962607 58.0267762,29.170497 58.3674521,29.3010942 C58.998594,29.5430374 59.023729,29.7556381 58.5640012,30.963577 C58.3049562,31.6442163 58.1166401,31.7755371 57.7890784,31.5039612 C57.0303379,30.8749091 55.957436,31.4231399 55.7959296,32.5224222 C55.6027001,33.8376236 56.3508777,34.6140193 57.5286794,34.3205212 C59.6322065,33.7963395 62.3636874,34.0333488 63.2010946,34.8127081 C63.6205248,35.2030686 64.0058627,35.3431693 64.1259965,35.148988 C64.2392561,34.9659141 64.6494245,34.8161278 65.0374775,34.8161278 C65.7194844,34.8161278 65.722887,34.8383657 65.1394683,35.4823782 C64.6337174,36.0406518 64.6075744,36.2349046 64.978158,36.680975 C65.2479181,37.0056797 65.7071546,37.1414251 66.1555582,37.0290007 C66.6204671,36.9124352 67.0914106,37.0662427 67.4367324,37.4474293 C67.7765986,37.8225921 68.3771845,38.0228963 69.0273599,37.9779298 C69.9669723,37.9129423 70.052098,37.9847048 69.8743979,38.6919904 C69.7068754,39.3587639 69.794248,39.4657913 70.4491569,39.3960382 C71.561316,39.2775831 72.0345479,38.9052041 72.0345479,38.1485205 C72.0345479,36.9431073 72.969233,37.0509182 74.211699,38.39964 C75.3897912,39.678475 75.9589331,40.7599508 75.6278904,41.0906564 C75.533842,41.1846084 75.7519666,41.5562477 76.1126101,41.9165192 C76.4732561,42.2767953 76.8582687,43.0208136 76.9681972,43.5698925 C77.0781257,44.1189737 77.3578074,44.5682219 77.5897105,44.5682219 C78.282857,44.5682219 78.8386632,43.6420422 78.5987209,42.8868266 C78.474917,42.4971574 78.5561719,41.9636588 78.7804418,41.6937121 C79.0666701,41.3491846 79.074857,41.2054313 78.8082503,41.2054313 C78.2140196,41.2054313 78.365669,40.2167529 79.1036574,39.2795165 C79.4739435,38.8092587 79.7769054,38.0665931 79.7769054,37.6291505 C79.7769054,37.0648739 79.9675536,36.8338031 80.4331153,36.8338031 C80.7940265,36.8338031 81.8109423,36.1528389 82.6929216,35.3205467 C83.5749031,34.4882568 84.3301119,33.8072925 84.3711707,33.8072925 C84.4122249,33.8072925 84.8343818,33.9548711 85.309293,34.1352466 C86.475406,34.5781484 86.4320358,35.7105547 85.1925686,37.1827829 C84.4813345,38.0275812 84.2589331,38.5857096 84.3820634,39.2167805 C84.4872422,39.7558304 84.3479735,40.2900802 84.0157659,40.6219472 C83.72097,40.916443 83.4797728,41.2911012 83.4797728,41.4545274 C83.4797728,41.6179514 83.1737036,42.3845071 82.7996159,43.1579785 C82.3703057,44.0456418 82.1972514,44.873915 82.3303864,45.403821 C82.4827762,46.0103679 82.3859066,46.3029235 81.981323,46.4580169 C81.6733299,46.5760825 81.5028893,46.8849904 81.602564,47.1444749 C81.7142872,47.4353205 81.4634983,47.7379142 80.9486609,47.9334529 C80.4893368,48.1079082 80.1135306,48.3946335 80.1135306,48.5706189 C80.1135306,48.7466044 79.6236321,49.1347342 79.0248639,49.4331338 C78.0119112,49.9379421 77.9065571,49.935186 77.5100542,49.3934906 C77.2756759,49.0732887 77.0839112,48.9344185 77.0839112,49.0848938 C77.0839112,49.2353645 76.8566909,49.1700959 76.5789769,48.9398501 C76.2732445,48.6863732 76.0740404,48.6592776 76.0740404,48.8711709 C76.0740404,49.7278993 76.5748431,50.344466 77.6276413,50.7839042 C78.6513668,51.2112073 78.9119942,51.1919284 80.279143,50.5877918 C82.2575467,49.7135473 83.6311892,48.4168344 83.7159988,47.3434126 C83.8053414,46.2126355 84.1683333,45.8923645 85.0882272,46.1326761 C85.9488708,46.3575087 86.4551845,47.783397 85.8788201,48.3591704 C85.409263,48.8282461 85.3769792,50.2849654 85.8361419,50.2849654 C86.021286,50.2849654 86.4906817,50.6025541 86.8792468,50.9907208 L87.5857266,51.6964762 L87.3351984,50.907943 C87.1974083,50.4742475 86.8436321,49.9433368 86.5490323,49.7281413 C86.062015,49.3723888 86.0664602,49.2782939 86.5980173,48.6915352 C86.9195582,48.3365985 87.1826401,47.7187759 87.1826401,47.3186053 C87.1826401,46.4381411 85.9187647,44.9064883 85.1863426,44.8993514 C84.8957313,44.8965216 84.4627347,44.770471 84.2241326,44.6192422 C83.6814683,44.2752999 84.1975444,42.7417621 85.2245594,41.6464435 C85.7199666,41.1180953 85.876887,40.587535 85.7808408,39.7656611 C85.6475998,38.6255073 86.0989193,37.8426407 86.8894567,37.8426407 C87.1141234,37.8426407 87.6128293,37.5778214 87.9976943,37.2541514 C88.6793576,36.6808759 88.6839273,36.683049 88.1743795,37.3382219 C87.8866932,37.7081283 87.6103772,38.5007242 87.5603518,39.0995467 C87.4861373,39.987876 87.6289123,40.2609198 88.3358881,40.5827095 C88.8124625,40.7996287 89.2023841,41.1041443 89.2023841,41.2594105 C89.2023841,41.4146744 89.4248524,41.541709 89.6967578,41.541709 C90.3312537,41.541709 89.9835075,40.5314034 89.1403956,39.9253173 C88.4008616,39.3936877 88.3346217,38.5151984 89.0340727,38.5151984 C89.3117889,38.5151984 89.5390092,38.666524 89.5390092,38.8514784 C89.5390092,39.0364304 89.7838973,39.187756 90.0832053,39.187756 C90.4550369,39.187756 90.5736067,38.982253 90.4575582,38.5389364 C90.3333576,38.0644799 90.4522364,37.9024986 90.8999135,37.9361872 C91.2366217,37.9615222 91.4379273,38.1021667 91.3472537,38.2487268 C91.2565848,38.3952846 91.4156736,38.5151984 91.7007855,38.5151984 C91.9858997,38.5151984 92.3145571,38.8948295 92.4311292,39.3588261 C92.5595813,39.870096 92.9599527,40.2818971 93.4474152,40.4041154 C94.4275652,40.6498632 94.4881419,41.0652338 93.5784994,41.3028676 C93.1187024,41.4229842 92.9052514,41.7615548 92.9052514,42.3707727 C92.9052514,42.9337703 93.0418028,43.1784903 93.2754614,43.0342301 C93.4951961,42.8985654 93.4661257,43.1296961 93.2039458,43.6028713 C92.9609977,44.0413394 92.8103264,44.5514087 92.8691246,44.7363607 C92.9968662,45.1381813 93.1802341,45.9822676 93.2161211,46.3336877 C93.2539227,46.7038637 94.2517497,46.6419849 94.2517497,46.2694653 C94.2517497,46.0954271 94.1060542,45.863082 93.9279873,45.7531418 C93.7207209,45.6251739 93.7207209,45.2471559 93.9279873,44.7025661 C94.1060542,44.2346865 94.2517497,43.3978062 94.2517497,42.8428279 C94.2517497,42.2878497 94.417263,41.5248244 94.6195582,41.1472212 C94.8855559,40.6507112 94.8855559,40.3589599 94.6195582,40.0932349 C94.417263,39.8911471 94.2517497,39.5079303 94.2517497,39.2416408 C94.2517497,38.9753558 94.0262849,38.5894751 93.750714,38.3841311 C93.3910231,38.1161017 93.3072191,37.662853 93.453639,36.7774227 L93.6575928,35.5440658 L95.9742457,35.6004462 C97.6075928,35.6401978 98.2909423,35.784299 98.2910669,36.0890059 C98.2911915,36.4069195 98.4576298,36.4322291 98.9205594,36.18473 C99.3971476,35.9299281 99.531519,35.5231922 99.4742249,34.5088032 C99.4233368,33.6078433 99.5549077,33.1093975 99.8761142,32.9862667 C100.138762,32.8855834 100.269651,32.6674198 100.166977,32.5014587 C99.9001696,32.0701989 102.069524,31.1170596 103.317884,31.1170596 C103.943992,31.1170596 104.450239,30.9123585 104.565367,30.6126408 C104.780755,30.0519245 105.696972,29.9157874 105.696972,30.4444996 C105.696972,30.629454 105.969736,30.7807796 106.303113,30.7807796 C107.05536,30.7807796 108.720412,30.0290829 108.723964,29.6878737 C108.725411,29.549158 109.079058,29.4356643 109.509851,29.4356643 C110.180885,29.4356643 110.272783,29.2972988 110.151228,28.4699566 C109.971051,27.2435752 111.593614,25.5194395 112.343131,26.1408432 C112.713607,26.4479974 112.716961,26.5701995 112.361233,26.7998162 C112.011602,27.0254992 112.025205,27.1477382 112.429457,27.4128386 C112.707173,27.5949608 113.123745,27.7462864 113.355175,27.7491186 C113.586603,27.7519508 113.775955,28.0569203 113.775955,28.4268267 C113.775955,29.2130923 114.382541,29.3279295 114.664093,28.5949655 C114.964116,27.8139218 116.45204,27.9978368 117.733669,28.9743823 C118.624686,29.6532979 118.788149,29.9276645 118.438691,30.157749 C118.068751,30.4013214 118.093817,30.5415465 118.57285,30.9083119 C119.418986,31.5561452 119.311992,32.0126548 117.986677,33.4093895 C117.34028,34.0906211 116.810098,34.8048891 116.808493,34.99666 C116.806885,35.1884308 116.123909,36.0662127 115.290765,36.9472899 C114.457618,37.8283647 113.780772,38.7307442 113.786659,38.9525695 C113.792666,39.178748 113.993782,39.0974174 114.244552,38.7674078 C114.490504,38.44374 115.00566,38.1789184 115.389344,38.1789184 C115.799427,38.1789184 116.178213,37.891693 116.308361,37.482042 C116.438901,37.0711765 116.720527,36.8582878 116.994555,36.9633334 C117.250186,37.0613297 117.680123,36.9209455 117.949971,36.6513744 C118.587489,36.0145103 119.709865,36.0225021 119.956924,36.6656643 C120.063494,36.9430935 120.31586,37.1700831 120.51774,37.1700831 C120.719621,37.1700831 120.801418,37.0353079 120.699507,36.8705843 C120.427586,36.4310585 122.027288,35.4886878 123.045323,35.4886878 C123.527918,35.4886878 124.149994,35.7156751 124.427708,35.9931043 C125.078253,36.642984 126.66628,36.6377529 127.936541,35.9815499 C128.788241,35.5415701 128.882647,35.3671954 128.577507,34.7976232 C128.082668,33.873953 128.441849,33.4587414 129.545046,33.6791564 C130.1642,33.8028588 130.624038,33.6877543 130.916356,33.3358963 C131.312935,32.8585362 131.453743,32.8759486 132.349531,33.5131538 C132.923247,33.9212563 133.267242,34.4167846 133.163791,34.6860929 C133.061185,34.9532097 133.195851,35.1524078 133.479037,35.1524078 C134.044887,35.1524078 134.140442,35.6821478 133.631295,35.9964941 C133.13915,36.300346 133.614806,36.9141843 134.17577,36.6991432 C134.482153,36.5816951 134.646659,36.7528136 134.646659,37.1889611 C134.646659,37.6041958 134.998938,38.003463 135.572375,38.2381471 C136.884276,38.7750608 137.870077,38.7370238 137.723586,38.1551412 C137.657035,37.8907897 137.550961,37.1793861 137.487865,36.5742471 C137.391526,35.6502959 137.459032,35.5220077 137.909145,35.7736456 C138.682442,36.2059608 139.696022,35.8472218 139.696022,35.1412105 C139.696022,34.3682853 140.327478,34.1514399 141.304119,34.5889815 C142.272465,35.0228084 143.218255,34.3273308 142.386202,33.7932792 C141.968841,33.5253996 142.008149,33.4369806 142.619051,33.2695031 C143.27634,33.0893097 143.312645,32.9737928 142.962525,32.1766064 C142.747203,31.6863323 142.432264,31.1869786 142.262661,31.0669288 C142.093055,30.946879 142.076151,30.5685661 142.225092,30.22623 C142.374036,29.8838963 142.480043,29.5148564 142.460659,29.4061444 C142.441277,29.2974325 143.061021,28.8846566 143.83787,28.4888668 C145.013245,27.8900351 145.268589,27.8526571 145.359159,28.2661773 C145.491436,28.8701041 146.078656,28.9287913 146.125436,28.3427561 C146.14389,28.1115655 146.264331,28.3007208 146.393081,28.7631044 C146.756029,30.0665692 147.259032,29.7567235 147.374359,28.1586452 C147.459865,26.9738175 147.630571,26.6557887 148.32199,26.3931816 C149.55992,25.9230022 149.864257,25.9968895 149.636922,26.7124226 C149.449148,27.3034446 149.541106,27.3278716 150.848829,27.0343482 C151.627136,26.8596533 152.489318,26.8031207 152.76479,26.9087217 C153.316942,27.1203845 154.844112,25.8649326 154.844112,25.1993574 C154.844112,24.9683581 155.23628,24.3137704 155.715595,23.7447213 C156.440176,22.8844901 156.831316,22.7100809 158.03595,22.7100809 C159.013304,22.7100809 159.547881,22.8742399 159.678585,23.2144997 C160.095729,24.3004508 162.711674,23.4695896 162.566442,22.2972797 C162.452534,21.3778289 163.053828,20.2898292 163.841138,19.9908005 C164.295443,19.818251 164.841219,19.2163912 165.053967,18.6533336 C165.329025,17.9253657 165.61189,17.674297 166.033035,17.7843156 C166.358776,17.8694116 166.718276,17.7887332 166.831927,17.6050301 C166.945579,17.4213271 167.318864,17.3442482 167.661448,17.4337458 C168.004033,17.523241 168.459927,17.385099 168.674548,17.1267621 C169.231627,16.4562116 168.477191,15.6482221 167.294006,15.6482221 C165.967524,15.6482221 165.82783,14.8440578 166.946502,13.6477471 C167.474197,13.0834267 167.836606,12.6217092 167.751858,12.6217092 C167.667108,12.6217092 167.871427,12.1361798 168.205893,11.542752 C169.128439,9.90594074 170.43079,8.87096615 173.526758,7.31428715 C174.082188,7.03501209 174.792176,6.58685387 175.104513,6.31837973 C175.416845,6.04990558 175.817547,5.91986144 175.994954,6.02939376 C176.172366,6.13892609 176.410409,5.98672476 176.523939,5.69116653 C176.649362,5.36465968 176.942096,5.2349566 177.269941,5.36063383 C177.669865,5.51394129 177.75428,5.42366486 177.596087,5.01184765 C177.407722,4.52148362 177.620795,4.47778913 179.41004,4.63986499 C181.014156,4.78517374 181.437427,4.72486195 181.437427,4.35098503 C181.437427,4.07113848 181.094262,3.87845505 180.595867,3.87845505 C179.618765,3.87845505 179.554296,3.69393856 180.278601,2.97037674 C180.566963,2.68231025 180.726174,2.24688867 180.632405,2.00277476 C180.534375,1.7475811 180.776534,1.46139503 181.202137,1.32945664 C181.609261,1.20324708 182.358935,0.806881142 182.86808,0.448646765 C183.841503,-0.236260381 183.805394,-0.264310021 183.928446,1.2722904 C183.946961,1.50348332 184.113591,1.80613461 184.298732,1.94485036 C184.51025,2.10332438 184.451323,2.31524066 184.14017,2.51505402 C183.867817,2.68994947 183.725533,2.913517 183.823985,3.01186818 C184.002843,3.19054061 185.253727,3.46999541 186.085879,3.51718573 C186.334239,3.53127047 186.42031,3.71385584 186.283122,3.93560055 C186.119464,4.20013641 186.223238,4.25867839 186.599884,4.11429372 C186.965639,3.97408469 187.16004,4.07095412 187.16004,4.3934259 C187.16004,4.66505252 187.008559,4.88729038 186.823415,4.88729038 C186.638271,4.88729038 186.51816,5.00078634 186.556499,5.13949979 C186.594836,5.27821554 186.176409,5.86100835 185.626656,6.43459723 C184.818723,7.27755438 184.516698,7.40791192 184.051194,7.11457979 C183.59867,6.82942841 183.367457,6.89418087 182.971997,7.41680937 C182.695189,7.78263226 182.463895,8.42242539 182.458006,8.83857034 C182.44987,9.4136548 182.250146,9.59519856 181.625607,9.59519856 C181.173676,9.59519856 180.710292,9.44387292 180.595867,9.25891858 C180.286202,8.75838275 179.853671,8.85147751 179.616163,9.46978404 C179.355953,10.1471879 180.373231,10.9798304 181.169111,10.7408738 C181.582596,10.616729 181.936991,10.9498865 182.440737,11.936295 C183.205113,13.4330632 183.013307,14.3131149 181.778873,14.9730857 C181.364135,15.1948189 181.202467,15.5215908 181.335791,15.8686694 C181.529118,16.3719567 181.577607,16.3715511 181.949457,15.8635397 C182.171521,15.5601625 182.677341,15.3119421 183.073503,15.3119421 C183.469664,15.3119421 183.793798,15.1504193 183.793798,14.9530025 C183.793798,14.5344794 185.196668,14.8924073 185.518995,15.393169 C185.651302,15.5987181 185.812377,15.5858823 185.953,15.3585816 C186.239055,14.8962119 188.598866,14.9634808 188.911821,15.4429264 C189.19008,15.8692063 187.918956,17.3296173 187.269674,17.3296173 C186.714744,17.3296173 186.680193,17.898436 187.224119,18.0795581 C187.47342,18.1625755 187.65888,19.1398515 187.714965,20.666052 C187.764546,22.0152347 187.967355,23.6102158 188.165653,24.2104532 C188.363955,24.8106906 188.585182,25.6077456 188.65727,25.9816894 C188.729358,26.3556308 188.939946,27.2100894 189.125242,27.8804855 C189.444552,29.0357588 189.420077,29.0993843 188.656359,29.0993843 C187.653369,29.0993843 186.841328,30.5368178 186.766493,32.4447395 C186.720963,33.6054766 186.641501,33.7391433 186.208995,33.3825105 C185.770529,33.0209601 185.729528,33.1534147 185.895348,34.3957796 C186.034209,35.4361696 185.968135,35.8249655 185.652458,35.8249655 C184.928859,35.8249655 184.774739,37.2513538 185.404243,38.1222338 C185.72193,38.5617319 186.360557,39.6230325 186.823415,40.4806827 C187.661828,42.0342069 188.843161,42.7675626 188.843161,41.7345053 C188.843161,41.4435168 189.088047,41.2054313 189.387358,41.2054313 C189.758296,41.2054313 189.877736,41.4110219 189.762511,41.8511952 C189.636601,42.3321733 189.819854,42.5607737 190.480656,42.7470554 C190.96861,42.8846074 191.497141,42.9671018 191.655171,42.9303805 C191.813203,42.893657 192.229775,42.9546947 192.580889,43.0660198 C193.336562,43.3056147 193.442589,44.2319419 192.71434,44.2319419 C192.436624,44.2319419 192.209404,44.5141851 192.209404,44.8591505 C192.209404,45.7621775 193.490799,47.2584548 194.264144,47.2584548 C195.053646,47.2584548 195.482188,48.1588847 194.947095,48.6934317 C194.737367,48.9029422 194.565773,49.6282024 194.565773,50.30512 C194.565773,51.2115253 194.778571,51.6955153 195.373245,52.141641 C196.140942,52.7175642 196.158257,52.8109839 195.724799,54.0382778 C195.361946,55.0656639 195.356029,55.3291512 195.69581,55.3291512 C196.255074,55.3291512 197.595392,58.4159759 197.595392,59.7039872 C197.595392,61.0262471 196.727611,61.0404678 195.497374,59.7383649 C194.99267,59.2041796 193.935215,58.4315217 193.147473,58.0213475 C190.340818,56.559941 185.140294,51.7632358 185.140294,50.6359293 C185.140294,49.7396059 184.437136,48.2672924 184.009062,48.2672924 C183.796945,48.2672924 183.818223,48.1083806 184.063097,47.8637574 C184.660511,47.2669559 184.583722,43.7384692 183.96211,43.2231043 C183.684393,42.9928585 183.457173,42.5292836 183.457173,42.192939 C183.457173,41.8565945 183.298336,41.4833352 183.104202,41.363479 C182.8582,41.211598 182.858682,41.0162207 183.105784,40.7187843 C183.358714,40.4143379 183.29345,39.8421893 182.878096,38.7226533 C182.393514,37.4165314 182.368257,37.0374626 182.727526,36.4627768 C183.21751,35.678993 183.012942,35.2848209 181.32551,33.7612521 C180.717468,33.2122562 180.343399,32.5398184 180.343399,31.9957863 C180.343399,30.9816438 179.857851,30.8569713 179.213032,31.7055467 C178.588942,32.5268352 178.637948,33.0486756 179.417683,33.8847609 C179.798882,34.2935109 180.090931,35.0714897 180.090931,35.6782003 C180.090931,36.2675423 180.183418,37.2116897 180.296456,37.7763051 C180.461962,38.6029814 180.394818,38.7871684 179.951648,38.7221924 C179.648963,38.6778089 179.169187,38.3104305 178.885473,37.9057893 C178.289348,37.0555755 177.734562,36.9440867 177.734562,37.6744996 C177.734562,37.9519311 177.493157,38.1789184 177.19811,38.1789184 C176.903062,38.1789184 176.582435,38.4815697 176.4856,38.8514784 C176.388767,39.2213847 176.187766,39.524036 176.038924,39.524036 C175.561694,39.524036 175.295212,41.5410568 175.706961,42.036675 C175.920541,42.2937583 176.182087,43.3846708 176.288181,44.4609249 C176.394271,45.5371835 176.69829,46.8474833 176.963773,47.3727043 C177.42757,48.2902562 177.471886,48.3046751 178.095452,47.740933 C178.475639,47.3972236 178.744433,47.3160059 178.744433,47.544839 C178.744433,47.759682 178.365731,48.2644004 177.902873,48.6664375 C177.440015,49.068477 177.061311,49.6073103 177.061311,49.8638498 C177.061311,50.1704255 176.840278,50.2602065 176.416393,50.1258093 C176.061687,50.0133434 175.682836,50.0646033 175.574497,50.2397154 C175.46616,50.4148298 175.074712,50.4789992 174.704606,50.3823164 C174.236735,50.260089 174.031694,50.3721769 174.031694,50.7501649 C174.031694,51.049166 173.918084,51.2758837 173.779226,51.25398 C172.778446,51.0961259 172.312366,51.390578 172.131279,52.2950982 C171.925046,53.3251943 171.463794,53.8530009 170.208769,54.4949948 C169.811943,54.6979859 169.509191,55.1253489 169.53599,55.4446912 C169.569685,55.8462675 169.465399,55.926386 169.197784,55.7045145 C168.934926,55.4865837 168.410439,55.7503037 167.562093,56.5269622 C165.673618,58.2558427 165.170283,59.1821031 165.414015,60.4799681 C165.529535,61.0951107 165.509934,61.7124079 165.370453,61.8517412 C165.230977,61.9910792 165.089604,62.8583804 165.056296,63.7790824 C165.022984,64.6997868 164.833787,65.6480199 164.635851,65.8862667 C164.43792,66.1245182 164.290802,67.3067142 164.308922,68.5133695 C164.327044,69.7200272 164.174123,71.0204018 163.969106,71.4030909 C163.764087,71.7857777 163.596343,72.4782203 163.596343,72.9418483 C163.596343,73.4054762 163.444862,73.8783334 163.259717,73.9926405 C163.074576,74.1069477 162.923095,74.4941949 162.923095,74.8531852 C162.923095,75.3513221 163.157542,75.505897 163.913099,75.505897 C164.457602,75.505897 164.996027,75.3557005 165.109597,75.1721334 C165.223655,74.9877667 165.67983,75.2511896 166.1287,75.7606205 C166.780144,76.4999632 166.943418,76.5661605 166.951948,76.0943841 C166.964871,75.3794017 167.635833,75.2969189 167.635833,76.0103158 C167.635833,76.287745 167.863055,76.5147346 168.140769,76.5147346 C168.418486,76.5147346 168.645706,76.287745 168.645706,76.0103158 C168.645706,75.7328843 168.872928,75.505897 169.150642,75.505897 C169.725708,75.505897 169.835549,74.6478665 169.302608,74.3188271 C168.648529,73.9149993 169.715819,73.0805917 170.646303,73.2683229 C172.686555,73.679958 173.727692,74.009115 173.717362,74.2392432 C173.711272,74.3748779 174.247062,75.0260665 174.908003,75.68633 C175.663978,76.4415295 176.035383,77.0803271 175.909309,77.40853 C175.643482,78.1005579 176.343507,80.375487 177.058043,81.1416671 C177.370972,81.4772142 178.0322,82.5576439 178.527438,83.5426306 C179.425072,85.3279423 179.427401,85.3524592 179.276892,91.4328433 C179.11739,97.876603 179.026709,98.9896727 178.6058,99.6700125 C178.462045,99.9023784 178.433187,100.445774 178.541671,100.877564 C178.796486,101.891794 177.597076,104.612734 176.435265,105.65609 C175.694848,106.321015 175.308896,106.422019 174.122956,106.261224 L172.699408,106.068213 L172.480968,107.432868 C172.307464,108.516791 172.119641,108.797525 171.567962,108.797525 C170.906144,108.797525 170.902382,108.776352 171.488137,108.348477 Z M187.694663,91.6211022 C187.186926,91.0518388 186.854172,90.3708745 186.955208,90.1078458 C187.056246,89.8448193 187.003277,89.6296169 186.837507,89.6296169 C186.494038,89.6296169 185.476919,87.7260829 185.476919,87.0832847 C185.476919,86.8493564 184.964559,86.3416285 184.33834,85.9550011 C183.712121,85.5683714 183.001535,84.7615709 182.759256,84.1621101 C182.516977,83.5626447 181.804345,82.3912104 181.175621,81.5589205 C180.546901,80.7266283 179.826149,79.5538551 179.573953,78.9527558 C179.268137,78.2238661 178.885452,77.8598499 178.424986,77.8598499 C177.734301,77.8598499 176.388063,76.7757977 176.388063,76.2196281 C176.388063,76.0573241 176.160843,75.7361428 175.883127,75.505897 C175.605413,75.2756489 175.37819,74.8528902 175.37819,74.5664345 C175.37819,74.2799742 175.119122,73.7596271 174.802483,73.4101012 C174.354843,72.9159717 174.321747,72.7159694 174.653692,72.511024 C175.25398,72.1404079 174.7681,70.4152421 174.007468,70.2165395 C173.658451,70.1253643 173.481185,69.8609114 173.586068,69.5878745 C173.866818,68.8569938 174.351759,69.029299 174.717328,69.9898333 C174.900116,70.4701131 175.350811,70.9417374 175.718869,71.0378902 C176.086926,71.1340406 176.388063,71.4267967 176.388063,71.6884635 C176.388063,71.9501257 176.653155,72.2586164 176.977157,72.3740021 C178.008721,72.741362 178.438061,73.2147055 178.104525,73.6169085 C177.70449,74.0992992 178.596121,75.1967011 179.838463,75.7510041 C180.347607,75.9781689 180.764179,76.318606 180.764179,76.507524 C180.764179,76.696442 180.930248,76.8510123 181.133226,76.8510123 C181.336202,76.8510123 182.434437,77.6678855 183.573752,78.6662817 C184.713065,79.6646802 186.175413,80.7116148 186.823415,80.9928049 L188.0016,81.5040564 L186.392073,81.5314884 C184.432922,81.5648774 184.227501,81.9414644 184.972562,84.1337747 C185.721321,86.3369735 186.759191,87.9459518 187.439962,87.9589165 C187.748862,87.9647998 188.296615,88.1924992 188.657189,88.4649116 C189.017764,88.7373286 189.560513,88.8816695 189.863293,88.7856642 C190.592988,88.5543077 191.457561,90.2713158 190.81205,90.6698571 C190.579983,90.8131311 190.253097,90.8457642 190.085634,90.742371 C189.91817,90.63898 189.986679,90.4242914 190.237877,90.2652897 C190.573939,90.0525692 190.583431,89.9748358 190.273814,89.971045 C189.547452,89.9621568 188.555923,91.184192 188.877738,91.6916711 C189.709964,93.0040126 188.884174,92.9547552 187.694663,91.6211022 Z M186.176744,90.4983377 C186.162128,90.1438457 186.241687,89.9452284 186.353544,90.0569707 C186.465401,90.1687129 186.47736,90.4587543 186.380119,90.7015063 C186.272661,90.9697662 186.192894,90.8900855 186.176744,90.4983377 Z M195.575646,89.0602936 C195.575646,88.1039856 195.741427,87.6203505 196.118815,87.4756801 C196.582156,87.2980608 196.627777,87.4534008 196.429245,88.5326068 C196.088375,90.3855331 195.575646,90.7024949 195.575646,89.0602936 Z M196.819341,86.7245964 C196.345535,86.2512737 196.565943,83.3197751 197.090456,83.1187059 C197.36817,83.0122477 197.595392,82.6934077 197.595392,82.410169 C197.595392,82.1269349 197.746871,81.8951981 197.932015,81.8951981 C198.391083,81.8951981 198.355888,82.2770208 197.767048,83.6848698 C197.491173,84.3444535 197.352368,85.1103732 197.458594,85.386906 C197.684433,85.9748285 197.162375,87.0672781 196.819341,86.7245964 Z M198.628926,79.9814416 C198.615911,79.3912584 198.756744,78.8148558 198.941888,78.7005464 C199.345621,78.4512798 199.345621,79.4433641 198.941888,80.381944 C198.69802,80.9488684 198.648866,80.8859688 198.628926,79.9814416 Z M199.668287,74.833337 C199.668287,74.3709535 199.744693,74.1817982 199.838075,74.4129888 C199.931459,74.6441817 199.931459,75.0224947 199.838075,75.2536876 C199.744693,75.4848782 199.668287,75.2957229 199.668287,74.833337 Z M166.121025,73.1519417 C166.006599,72.9669897 166.073399,72.8156641 166.269468,72.8156641 C166.46554,72.8156641 166.62596,72.9669897 166.62596,73.1519417 C166.62596,73.3368961 166.559161,73.4882217 166.477517,73.4882217 C166.395872,73.4882217 166.23545,73.3368961 166.121025,73.1519417 Z M198.426502,68.7634266 C198.117328,68.2636835 198.363217,68.086767 198.903418,68.420284 C199.192825,68.5989656 199.227254,68.7722687 199.001088,68.911904 C198.808972,69.0305158 198.550407,68.9637008 198.426502,68.7634266 Z M197.932015,66.4263606 C197.932015,66.2414086 198.083496,66.0900829 198.26864,66.0900829 C198.453782,66.0900829 198.605263,66.2414086 198.605263,66.4263606 C198.605263,66.6113149 198.453782,66.7626406 198.26864,66.7626406 C198.083496,66.7626406 197.932015,66.6113149 197.932015,66.4263606 Z M197.567454,64.5768265 C197.53897,64.3918721 197.535646,64.120923 197.560073,63.9747155 C197.584497,63.8285081 197.458045,63.4355458 197.279069,63.1014665 C197.05861,62.6899581 197.078857,62.3689704 197.341847,62.1062504 C197.82608,61.622514 198.384693,61.5950934 198.091215,62.0694624 C197.971777,62.2625191 198.026066,62.6034471 198.211858,62.8270815 C198.442022,63.1041282 198.401427,63.5012477 198.084453,64.0733963 C197.828592,64.5352359 197.595943,64.7617808 197.567454,64.5768265 Z M175.714815,51.14551 C175.714815,51.063949 175.866296,50.9036936 176.051441,50.7893842 C176.236582,50.6750771 176.388063,50.7418067 176.388063,50.9376772 C176.388063,51.1335454 176.236582,51.293803 176.051441,51.293803 C175.866296,51.293803 175.714815,51.2270711 175.714815,51.14551 Z M72.0345479,35.8249655 C72.0345479,35.2701048 72.1860288,34.8161278 72.371173,34.8161278 C72.5563172,34.8161278 72.7077982,35.2701048 72.7077982,35.8249655 C72.7077982,36.3798262 72.5563172,36.8338031 72.371173,36.8338031 C72.1860288,36.8338031 72.0345479,36.3798262 72.0345479,35.8249655 Z M118.6822,34.5205719 C118.5779,34.3519837 118.718912,34.1272755 118.995563,34.0212229 C119.272213,33.9151703 119.498566,33.9660454 119.498566,34.1342787 C119.498566,34.5901222 118.900352,34.8731881 118.6822,34.5205719 Z M85.5477359,33.16599 C85.2090992,32.9558136 85.1931338,32.8194783 85.4859758,32.6386742 C85.9478927,32.3534906 86.2946655,32.6059512 86.1236759,33.1029382 C86.0536482,33.3064732 85.8159988,33.3324927 85.5477359,33.16599 Z M70.5939343,32.1542856 C69.8653829,31.2880675 69.7432999,30.9394449 70.0424325,30.5793808 C70.5441811,29.9754309 70.1479043,28.4268267 69.491609,28.4268267 C69.0935905,28.4268267 69.0569815,28.2854539 69.3253068,27.7846001 C69.5414798,27.3810881 69.9039435,27.2036531 70.3004556,27.3072354 C70.6841096,27.4074624 71.2990254,27.1318767 71.8688247,26.6043467 C72.9461373,25.6069506 73.3340934,25.5452792 74.2424233,26.2270269 C74.8704394,26.6983863 74.8386448,26.7687592 73.4249723,28.0363371 C72.0937751,29.2299585 71.9339319,29.5409473 71.7418512,31.3109874 L71.5296113,33.2667631 L70.5939343,32.1542856 Z M62.1602388,31.9017098 C61.7695467,31.5114207 61.914714,31.1520041 62.6140657,30.7781088 C63.154707,30.4890629 63.3353945,30.52766 63.5046747,30.9683564 C63.785669,31.699857 62.7074683,32.4483805 62.1602388,31.9017098 Z M140.623185,27.6701985 C140.234024,26.6130482 141.172333,26.092897 142.529796,26.6132695 C143.292444,26.9056245 143.188772,27.2524519 142.204864,27.7002898 C141.113475,28.1970487 140.815042,28.1913705 140.623185,27.6701985 Z M75.0641672,26.0728737 C74.8198789,25.6168804 74.8160657,25.4003138 75.0523241,25.4003138 C75.2439804,25.4003138 75.3629216,25.2111585 75.3166355,24.9799655 C75.2696113,24.7450832 75.4924002,24.603215 75.8215721,24.6584271 C76.1455721,24.712775 76.4106632,24.6176385 76.4106632,24.4470155 C76.4106632,24.2763924 76.8651061,23.9487495 77.4205363,23.7189185 C77.9759666,23.4890875 78.4304095,23.2010832 78.4304095,23.0789088 C78.4304095,22.9567343 78.8213368,22.8244502 79.2991384,22.7849475 C79.77694,22.7454448 80.4127624,22.5762137 80.7120796,22.4088814 C81.0368847,22.2272961 81.5801649,22.2276533 82.0596528,22.4097663 C82.5015052,22.5775871 83.0084256,22.6251208 83.1861419,22.5153972 C83.3638604,22.4056759 83.7326863,22.501135 84.005752,22.7275278 C84.3348593,23.0003827 85.1307532,23.0743529 86.3665179,22.9469427 C87.8275144,22.7963084 88.2720565,22.8621532 88.4215513,23.2513269 C88.5264671,23.524456 88.5156621,23.8444713 88.3975398,23.9624747 C88.0729377,24.286744 84.8865686,24.6365372 84.4896459,24.3914785 C84.2986955,24.2735856 83.3495629,24.3097722 82.3804648,24.4718942 C81.4113645,24.6340161 80.1878028,24.8095845 79.6614383,24.8620451 C79.1350715,24.9145056 78.6048893,25.094911 78.4832514,25.2629415 C78.3616159,25.4309744 77.8833945,25.6091698 77.4205363,25.6589341 C76.9576782,25.7086985 76.4107947,25.9735178 76.2052422,26.2474235 C75.7089008,26.9088093 75.4944302,26.876001 75.0641672,26.0728737 Z M139.359397,26.5971384 C139.359397,26.5155751 139.510878,26.3553197 139.696022,26.2410126 C139.881164,26.1267055 140.032645,26.1934374 140.032645,26.3893056 C140.032645,26.5851737 139.881164,26.7454314 139.696022,26.7454314 C139.510878,26.7454314 139.359397,26.6786994 139.359397,26.5971384 Z M9.1912699,26.0032267 C9.005609,25.7641019 8.75920069,25.3036333 8.64369896,24.9799655 C8.52051096,24.6347536 8.08964821,24.3914785 7.60143829,24.3914785 C7.14369435,24.3914785 6.67180507,24.2340852 6.55279469,24.0417198 C6.41248328,23.8149238 6.6421857,23.7686276 7.20617647,23.9100349 C7.92444637,24.0901246 8.07594348,24.0108795 8.07594348,23.455074 C8.07594348,22.2414039 9.7291015,22.2528685 9.75390888,23.4667091 C9.75674394,23.6054248 9.99542907,23.7189185 10.2843195,23.7189185 C10.6852745,23.7189185 10.7848524,24.0166844 10.7051015,24.9771679 C10.5951453,26.3014073 9.82701615,26.8220356 9.1912699,26.0032267 Z M136.419941,25.5932991 C135.597817,25.2133085 134.900398,23.6534125 135.201814,22.8687462 C135.4281,22.2796599 135.800869,22.2473355 136.717364,22.7373263 C137.517544,23.1651317 137.974566,22.8735555 137.401364,22.3009414 C136.760241,21.6604731 136.921907,21.5369505 138.493478,21.4665107 C139.998296,21.3990621 140.983775,21.9888673 140.546696,22.6953509 C140.205175,23.2473771 139.093854,23.105744 138.683337,22.4578738 C138.431307,22.0601229 138.352675,22.0328752 138.440725,22.3738032 C138.512377,22.6512324 138.905489,23.0462986 139.314303,23.2517256 L140.057607,23.6252292 L139.119408,24.2512763 C138.603399,24.5956011 138.049016,24.837482 137.887448,24.7887869 C137.725874,24.7400941 137.678439,24.9209051 137.782036,25.1905936 C138.028802,25.833 137.363872,26.0295871 136.419941,25.5932991 Z M109.374606,23.5175036 C109.758772,22.801468 110.073088,22.0242243 110.073088,21.7902937 C110.073088,21.5563631 110.224569,21.3649656 110.409713,21.3649656 C110.594855,21.3649656 110.746336,21.5162912 110.746336,21.7012455 C110.746336,21.8861976 110.908636,22.0375232 111.107007,22.0375232 C111.693115,22.0375232 112.509012,23.0267731 112.322774,23.5116065 C112.228133,23.7579857 111.721106,24.0531037 111.19605,24.167427 C110.670993,24.2817503 109.889215,24.475208 109.458762,24.5973341 L108.676123,24.8193807 L109.374606,23.5175036 Z M106.622689,22.1814608 C105.471761,21.5577112 105.385764,20.2757422 106.445125,19.5344984 C107.400525,18.8659965 107.844017,18.8671326 107.586539,19.5374204 C107.433401,19.9360793 107.540326,20.014368 108.027134,19.8600212 C108.796278,19.6161539 109.219533,20.1669196 108.873,20.9607207 C108.735565,21.2755326 108.655923,21.797926 108.696015,22.1215938 C108.786213,22.8497783 107.902915,22.8752815 106.622689,22.1814608 Z M141.263129,21.1080689 C141.069893,20.7890861 141.737879,20.2060974 142.389016,20.1254489 C142.66673,20.0910505 143.271337,19.9503576 143.732587,19.8127963 C144.545969,19.5702195 144.555602,19.5861916 144.052465,20.3431816 C143.546714,21.104103 141.586375,21.6416642 141.263129,21.1080689 Z M104.574894,19.7956628 C104.166008,19.3871986 104.342303,19.0289873 104.855413,19.225685 C105.133127,19.3321432 105.360349,19.5543834 105.360349,19.7195495 C105.360349,20.0721057 104.896601,20.1170446 104.574894,19.7956628 Z M105.238869,18.5072483 C104.972811,17.8146212 105.565191,16.6570597 106.185701,16.6570597 C106.441475,16.6570597 106.718368,16.4679021 106.801018,16.2367091 C107.001685,15.675426 107.281346,15.9682096 107.524396,16.9940264 C107.774779,18.0508125 107.44413,18.5614625 106.328319,18.8412261 C105.68509,19.0025023 105.394945,18.9135556 105.238869,18.5072483 Z M164.606216,16.8611754 C164.606216,16.7884888 164.833436,16.6419103 165.111152,16.5354521 C165.388866,16.4289916 165.616089,16.4884646 165.616089,16.6676117 C165.616089,16.8467612 165.388866,16.9933374 165.111152,16.9933374 C164.833436,16.9933374 164.606216,16.9338644 164.606216,16.8611754 Z M89.3525709,12.2561305 C89.2281742,12.0550612 89.2583725,11.7587103 89.4196736,11.5975747 C89.8177912,11.1998629 90.6940035,11.7788004 90.4038304,12.2478345 C90.1097728,12.7231391 89.6437705,12.726817 89.3525709,12.2561305 Z M91.2221303,12.2854315 C91.2221303,12.1004771 91.5340334,11.9491515 91.9152468,11.9491515 C92.2964602,11.9491515 92.5147416,12.1004771 92.4003149,12.2854315 C92.2858904,12.4703835 91.9739873,12.6217092 91.7071984,12.6217092 C91.4404118,12.6217092 91.2221303,12.4703835 91.2221303,12.2854315 Z M88.3632076,9.93532926 C88.2452745,9.744706 88.3803956,9.68833019 88.6799642,9.80316734 C89.2631384,10.0267233 89.3698397,10.2677562 88.8856275,10.2677562 C88.7114129,10.2677562 88.4763195,10.1181635 88.3632076,9.93532926 Z M84.3213345,8.58636093 C83.283895,8.32264776 83.4766286,8.20800649 85.0562964,8.14919719 C85.5530992,8.13070175 86.0201649,8.29716066 86.0942226,8.51910586 C86.2417612,8.96126793 85.8540634,8.97597486 84.3213345,8.58636093 Z M83.7041903,7.35333818 C83.5807601,7.23003452 83.4797728,7.0172149 83.4797728,6.88040032 C83.4797728,6.55709894 84.7812168,6.89636778 85.0196943,7.28183603 C85.2313368,7.6239278 84.0398812,7.68868717 83.7041903,7.35333818 Z M166.347528,6.05756784 C165.786608,4.82773905 165.855254,4.2905004 166.62596,3.87845505 C167.369157,3.48111433 167.394446,3.53116216 167.305704,5.22357036 C167.22387,6.78420609 166.833803,7.1237215 166.347528,6.05756784 Z" id="path3628"></path>
                </g>
            </g>
        </g>
    </g>
</svg>