<?xml version="1.0"?>
<svg xmlns="http://www.w3.org/2000/svg" height="512px" viewBox="0 1 511 511.999" width="512px"><g transform="matrix(0.860058 0 0 0.860058 35.7551 35.9649)"><path d="m505.652344 446.460938-48.441406-83.902344c-2.566407-4.445313-8.027344-6.167969-12.625-4.175782l-15.640626-27.085937c43.828126-43.195313 54.902344-112.207031 22.734376-167.925781-17.207032-29.804688-43.898438-50.792969-74.082032-61.367188v-18.195312c0-21.992188-17.894531-39.886719-39.890625-39.886719h-211.285156c-1.253906 0-2.410156-.734375-2.945313-1.867187l-13.730468-29.019532c-3.746094-7.917968-11.824219-13.035156-20.585938-13.035156h-65.886718c-12.558594 0-22.773438 10.214844-22.773438 22.773438v256.53125c0 22.859374 18.597656 41.460937 41.457031 41.460937h182.910157c18.195312 22.15625 42.769531 38.070313 71.019531 45.636719 11.933593 3.199218 24.039062 4.78125 36.070312 4.78125 12.390625 0 24.695313-1.691406 36.640625-5.011719l15.625 27.0625c-1.800781 1.339844-3.113281 3.246094-3.699218 5.433594-.6875 2.5625-.328126 5.292969 1 7.589843l48.4375 83.902344c8.085937 14 22.804687 21.839844 37.917968 21.839844 7.410156 0 14.914063-1.882812 21.777344-5.847656 10.109375-5.835938 17.339844-15.257813 20.359375-26.535156 3.023437-11.273438 1.472656-23.046876-4.363281-33.15625zm-482.378906-426.460938h65.886718c1.066406 0 2.054688.625 2.507813 1.585938l10.566406 22.335937h-81.734375v-21.148437c0-1.527344 1.242188-2.773438 2.773438-2.773438zm277.789062 327.085938c-25.550781-6.84375-47.589844-21.667969-63.378906-42.351563-.011719-.011719-.019532-.027344-.027344-.042969-1.519531-1.984375-2.980469-4.03125-4.375-6.121094-.089844-.132812-.179688-.269531-.269531-.402343-.5625-.847657-1.109375-1.699219-1.648438-2.5625-.144531-.230469-.292969-.460938-.4375-.695313-.585937-.949218-1.160156-1.90625-1.71875-2.867187-.03125-.054688-.066406-.113281-.101562-.171875-10.753907-18.625-16.210938-39.609375-15.882813-60.949219.023438-1.421875.070313-2.84375.144532-4.269531.015624-.34375.015624-.6875 0-1.023438-.234376-4.726562-3.78125-8.65625-8.457032-9.375-.332031-.050781-.671875-.085937-1.019531-.101562-5.488281-.285156-10.214844 3.957031-10.5 9.472656-.082031 1.652344-.140625 3.304688-.164063 4.957031-.007812.515625.003907 1.03125.003907 1.546875-.007813 1.132813-.015625 2.265625.007812 3.398438.011719.628906.046875 1.257812.070313 1.886718.035156 1.015626.0625 2.03125.117187 3.042969.039063.679688.101563 1.355469.148438 2.035157.070312.957031.128906 1.917968.214843 2.875.066407.703124.15625 1.402343.230469 2.105468.101563.929688.191407 1.859375.308594 2.785156.09375.714844.207031 1.421876.3125 2.132813.128906.910156.253906 1.824219.402344 2.730469.117187.71875.257812 1.433594.390625 2.148437.160156.894531.3125 1.789063.492187 2.679688.148438.722656.3125 1.4375.472657 2.15625.191406.882812.375 1.765625.585937 2.640625.171875.71875.363281 1.429687.546875 2.144531.222656.871094.441406 1.746094.679688 2.613281.199218.710938.414062 1.421875.625 2.132813.253906.859375.5 1.722656.769531 2.578125.226562.707031.46875 1.410156.703125 2.117187.285156.851563.5625 1.703125.863281 2.546875.25.703125.519531 1.398438.777344 2.097656.316406.839844.625 1.683594.957031 2.519532.273438.691406.566406 1.378906.851562 2.066406.34375.832031.6875 1.667969 1.046876 2.492188.300781.683593.617187 1.355468.925781 2.035156.375.824218.75 1.648437 1.144531 2.464844.320312.671874.660156 1.335937.992188 2 .40625.8125.8125 1.628906 1.238281 2.433593.347656.660157.707031 1.316407 1.066406 1.972657.328125.597656.640625 1.207031.980469 1.800781h-169.195313c-11.832031 0-21.457031-9.625-21.457031-21.457031v-215.382813h317.207031c10.96875 0 19.890625 8.921875 19.890625 19.886719v12.734375c-29.140625-5.609375-58.847656-1.75-85.644531 11.136719-.03125.015624-.066406.03125-.097656.046874-.929688.449219-1.859375.910157-2.78125 1.378907-.167969.085937-.335938.167969-.503907.253906-.820312.421875-1.632812.855469-2.449218 1.292969-.21875.117187-.4375.234375-.65625.351562-1 .546875-1.992188 1.101563-2.984375 1.671875-8.476563 4.894531-16.332031 10.59375-23.503907 17.046875-.023437.023438-.042968.042969-.066406.0625-1.570312 1.414063-3.105468 2.863282-4.609375 4.347656-2.011719 1.992188-3.957031 4.050782-5.847656 6.160157-.441406.5-.882813.996093-1.320313 1.5-1.230468 1.414062-2.433593 2.851562-3.605468 4.320312-3.449219 4.3125-2.746094 10.605469 1.566406 14.054688 4.316406 3.449219 10.609375 2.746093 14.058594-1.570313 9.214844-11.527344 20.425781-21.152344 33.328125-28.601562 56.589843-32.671875 129.207031-13.214844 161.878906 43.375 28.960937 50.164062 16.953125 112.921875-25.566406 149.285156-.300781.253906-.597657.511719-.898438.761719-.386719.324219-.777343.640625-1.164062.960937-.394531.320313-.785157.640625-1.183594.953125-.3125.25-.628906.492188-.941406.738281-.472657.367188-.941407.734376-1.417969 1.09375-.261719.195313-.523438.386719-.789062.582032-.527344.394531-1.054688.785156-1.589844 1.167968-.238282.171876-.480469.335938-.722656.507813-.554688.390625-1.113282.78125-1.671876 1.164063-.265624.179687-.535156.355468-.804687.535156-.539063.359375-1.078125.71875-1.621094 1.070312-.375.242188-.757812.480469-1.136719.714844-.441406.28125-.886718.566406-1.332031.835938-.835937.511718-1.679687 1.015624-2.535156 1.507812-6.65625 3.84375-13.707031 7.050781-20.964844 9.539062-.113281.039063-.222656.089844-.332031.132813-21.984375 7.480469-45.6875 8.308594-68.625 2.164063zm89.328125 10.996093c.4375-.203125.875-.410156 1.3125-.621093.699219-.335938 1.398437-.679688 2.097656-1.027344.667969-.335938 1.335938-.683594 2-1.03125.519531-.273438 1.042969-.539063 1.5625-.820313 1.214844-.652343 2.425781-1.324219 3.621094-2.011719 1.066406-.617187 2.117187-1.242187 3.15625-1.882812.160156-.097656.316406-.199219.472656-.292969.894531-.554687 1.78125-1.113281 2.65625-1.679687.144531-.09375.285157-.191406.429688-.285156.886719-.582032 1.769531-1.171876 2.640625-1.773438.140625-.09375.277344-.191406.414062-.289062.871094-.605469 1.734375-1.214844 2.585938-1.835938.035156-.023438.070312-.050781.109375-.074219l13.777343 23.867188-3.929687 2.269531-21.789063 12.578125-13.777343-23.867187c.007812-.003907.015625-.007813.027343-.011719.878907-.394531 1.757813-.800781 2.632813-1.210938zm100.308594 116.359375c-1.640625 6.117188-5.558594 11.226563-11.042969 14.390625-11.3125 6.535157-25.835938 2.644531-32.371094-8.671875l-43.441406-75.242187 41.046875-23.699219 43.441406 75.242188c3.164063 5.480468 4.003907 11.867187 2.367188 17.980468zm0 0" data-original="#000000" class="active-path" data-old_color="#fcaf3a" fill="#fcaf3a"/><path d="m425.644531 257.785156c6.722657-25.082031 3.273438-51.285156-9.710937-73.777344-26.804688-46.425781-86.386719-62.390624-132.8125-35.585937-46.429688 26.808594-62.394532 86.386719-35.589844 132.8125 17.988281 31.15625 50.734375 48.59375 84.363281 48.59375 16.484375 0 33.179688-4.1875 48.449219-13.003906 22.492188-12.988281 38.582031-33.953125 45.300781-59.039063zm-93.78125 52.046875c-26.707031 0-52.722656-13.851562-67.007812-38.597656-21.292969-36.878906-8.613281-84.199219 28.265625-105.492187 12.132812-7.003907 25.386718-10.332032 38.484375-10.332032 26.707031 0 52.71875 13.851563 67.007812 38.597656 10.3125 17.867188 13.054688 38.675782 7.714844 58.601563s-18.117187 36.578125-35.980469 46.894531c-12.132812 7-25.390625 10.328125-38.484375 10.328125zm0 0" data-original="#000000" class="active-path" data-old_color="#fcaf3a" fill="#fcaf3a"/><path d="m212.367188 175.054688c-5.519532 0-10 4.476562-10 10v.027343c0 5.523438 4.480468 9.988281 10 9.988281 5.523437 0 10-4.492187 10-10.015624 0-5.523438-4.476563-10-10-10zm0 0" data-original="#000000" class="active-path" data-old_color="#fcaf3a" fill="#fcaf3a"/></g> </svg>
