<?xml version="1.0" encoding="UTF-8"?>
<svg width="110px" height="150px" viewBox="0 0 110 150" version="1.1" xmlns="http://www.w3.org/2000/svg" xmlns:xlink="http://www.w3.org/1999/xlink">
    <!-- Generator: Sketch 52.2 (67145) - http://www.bohemiancoding.com/sketch -->
    <title>Group 5</title>
    <desc>Created with Sketch.</desc>
    <g id="Page-1" stroke="none" stroke-width="1" fill="none" fill-rule="evenodd">
        <g id="Group-5" transform="translate(-45.000000, 0.000000)">
            <rect id="Rectangle-Copy-2" fill="#D8D8D8" opacity="0" x="0" y="0" width="200" height="150"></rect>
            <g id="Taiwan-2" transform="translate(45.000000, 0.000000)" fill="#FF8200">
                <g id="Taiwan">
                    <g id="Group" transform="translate(55.000000, 75.391637) scale(-1, 1) rotate(-180.000000) translate(-55.000000, -75.391637) translate(0.000000, 0.891637)">
                        <path d="M91.1668484,148.698713 C90.6270447,148.542188 90.219193,148.494026 89.823337,148.542188 C89.2955289,148.61443 89.1875682,148.578309 88.3238822,148.036492 C86.8124318,147.097342 86.0327154,146.362879 85.8287895,145.676577 C85.7328244,145.315365 85.2769902,144.556821 84.6652126,143.726035 L83.6695747,142.353432 L81.870229,141.799574 C79.1592148,140.980828 78.6314068,140.860424 77.1919302,140.776142 L75.87241,140.691859 L74.4329335,139.897194 C73.6412214,139.4517 72.261723,138.8256 71.3740458,138.488469 C70.4863686,138.163379 69.4427481,137.754006 69.046892,137.597481 L68.3391494,137.308512 L67.2715376,135.394091 C66.6837514,134.334537 65.3762268,132.227471 64.344602,130.710383 L62.4852781,127.929054 L62.389313,126.387886 C62.2933479,124.906919 62.2693566,124.834676 61.9334787,124.497546 C61.7415485,124.3049 61.261723,124.00389 60.8778626,123.847365 C60.4460196,123.666759 60.17012,123.486154 60.1941112,123.401871 C60.3380589,122.860054 60.3500545,122.41456 60.2181025,122.10151 C59.9781897,121.535612 59.4863686,121.342966 58.1788441,121.306844 C56.8713195,121.258683 56.7393675,121.1744 56.4754635,120.114847 C56.2835333,119.320182 55.9956379,119.007132 55.2039258,118.766324 C54.3522356,118.489395 53.9923664,118.01982 53.1526718,115.984996 C52.8047983,115.142169 52.1330425,113.745485 51.6652126,112.866537 C50.9334787,111.493934 50.6215921,111.06048 49.3260632,109.615634 C47.9705562,108.098546 47.778626,107.833657 47.1788441,106.569417 C46.7589967,105.666389 46.351145,104.992127 46.0152672,104.642956 C45.5354417,104.149301 45.4874591,104.040937 45.4154853,103.306474 C45.2955289,101.982032 45.0556161,101.404094 44.2998909,100.525146 C43.9160305,100.091692 43.4721919,99.5378346 43.304253,99.297027 C43.1363141,99.0682597 42.87241,98.8033713 42.7044711,98.7190886 C42.3206107,98.5264425 42.2246456,98.381958 42.2246456,98.0568676 C42.2126499,96.7324257 40.389313,94.1317033 38.3140676,92.4701306 C37.8822246,92.1209595 37.5463468,91.7597481 37.5463468,91.6393443 C37.5463468,91.2058905 36.8505998,88.66537 36.5866957,88.1355932 C36.4187568,87.8105029 35.4950927,86.7870705 34.12759,85.4385477 C31.9923664,83.3194406 31.9323882,83.2351579 30.9847328,81.5856256 C29.5452563,79.0812263 29.5572519,79.105307 29.4732824,77.6965824 C29.4133043,76.7453922 29.3173391,76.2156154 29.0294438,75.4089099 C28.2857143,73.3259239 28.261723,73.2175604 28.4296619,72.6155414 C28.6455834,71.8569973 28.6095965,71.6402704 28.129771,70.8456053 C27.9018539,70.460313 27.7099237,70.0388997 27.7099237,69.9064555 C27.7099237,69.7740113 27.9018539,69.5091229 28.1417666,69.3044364 C28.525627,68.9793461 28.5736096,68.8589423 28.6815703,68.0401964 C28.9094875,66.3184218 28.6575791,64.3919607 27.82988,61.4179865 C27.0501636,58.6005372 26.6902944,57.5409836 26.3424209,56.9750857 C25.9945474,56.4332685 25.5986914,55.2894322 25.478735,54.4827267 L25.3947655,53.9288691 L25.7666303,54.0131518 C25.9825518,54.0492729 26.1984733,54.0613133 26.2704471,54.0131518 C26.474373,53.8807076 26.0785169,53.2907289 25.4427481,52.8091136 C25.1188659,52.5562656 24.8189749,52.2432157 24.782988,52.0987311 C24.7470011,51.9542465 24.7110142,51.400389 24.7110142,50.8465314 C24.7110142,49.9435028 24.7350055,49.823099 25.0109051,49.5582106 C25.1788441,49.3776049 25.4427481,49.2572011 25.6346783,49.2572011 C26.2104689,49.2451607 26.9541985,48.8237473 28.4296619,47.6317496 C29.221374,46.9936093 29.8931298,46.4277114 29.9291167,46.3675095 C29.9651036,46.3073076 30.0130862,45.6691674 30.0370774,44.9587848 C30.08506,43.4778179 30.3009815,42.7674354 31.0087241,41.8523664 C31.4165758,41.3105492 31.4285714,41.2744281 31.3565976,40.4918033 C31.2606325,39.4202093 31.4165758,38.8904325 32.1962923,37.7104751 C32.8560523,36.7231638 33.4558342,35.4228026 33.7317339,34.4114106 C33.8516903,33.9538761 33.8516903,33.7491896 33.7197383,33.3398166 C33.4918212,32.593313 33.5158124,32.3886265 33.959651,31.268871 C34.4634678,29.9685098 35.0392585,29.1136427 35.8669575,28.4393813 C36.4307525,27.9818468 36.5267176,27.8494026 36.5027263,27.5363527 C36.478735,27.199222 36.4907306,27.199222 36.5627045,27.45207 C36.6466739,27.7410392 36.6706652,27.7410392 37.1264995,27.1631009 C38.7818975,25.1282764 38.7699019,25.1403168 40.1374046,24.4058535 C40.8571429,24.0205613 42.1526718,23.2379365 43.0043621,22.6599981 C43.868048,22.0941002 44.8157034,21.5402427 45.1155943,21.4318792 C45.4274809,21.3235158 46.0752454,21.0225063 46.5550709,20.7816986 C48.8822246,19.6137816 50.1537623,18.1087339 50.7415485,15.8210614 C50.95747,14.9902751 51.0654308,14.7735482 51.5692475,14.2558118 C52.2050164,13.5935908 52.3969466,13.1721775 53.0926936,10.8604242 C53.6564885,9.01824581 54.1003272,7.05566361 54.1003272,6.405483 C54.1003272,5.92386774 54.0523446,5.83958507 53.4405671,5.27368714 C52.5888768,4.49106233 52.5768811,4.26229508 53.3925845,3.38334723 C53.7284624,3.02213578 54.040349,2.6127628 54.1003272,2.46827823 C54.1483097,2.33583403 54.1483097,1.81809762 54.0883315,1.32444197 C53.9323882,-0.0602019079 53.9203926,0.0120403816 54.4601963,0.0120403816 C54.8800436,0.0120403816 54.9400218,0.0481615263 54.9400218,0.30100954 C54.9400218,0.722422895 55.431843,1.36056312 55.8396947,1.48096694 C56.3794984,1.62545151 56.8113413,1.49300732 57.9389313,0.854867093 C58.9705562,0.264888395 59.9182116,-0.0963230527 60.0501636,0.0481615263 C60.0981461,0.0963230527 60.0381679,0.445494119 59.9302072,0.83078633 C59.5703381,2.13114754 59.7022901,2.58868204 60.7818975,3.68435677 C61.5136314,4.44290081 62.0414395,5.27368714 62.2693566,6.03223118 C62.3773173,6.39344262 62.3653217,6.59812911 62.2093784,7.06770399 C61.8015267,8.3078633 61.6575791,9.43965916 61.7775354,10.5112531 C61.8375136,11.0530703 61.9454744,12.3895527 62.0054526,13.4491062 C62.1134133,15.3274058 62.1134133,15.4116884 61.8615049,15.9173845 C61.6575791,16.3387978 61.5976009,16.6518477 61.5976009,17.4103918 C61.6095965,18.3615819 61.6215921,18.4097434 62.6412214,20.6612948 C63.2050164,21.9255349 64.1886587,24.1891266 64.8244275,25.6941743 C66.1919302,28.9691581 66.2039258,28.9932389 66.695747,29.4507734 C66.9116685,29.6554598 67.1875682,29.9564694 67.3075245,30.1370751 C67.523446,30.4380847 67.5354417,30.4862462 67.3555071,30.8233769 C67.1395856,31.2568306 67.1155943,31.9190516 67.3315158,32.18394 C67.4034896,32.2923034 68.4231189,32.9304436 69.5747001,33.6167454 C73.4133043,35.8682967 74.0490731,36.3619524 74.5288986,37.4576271 C74.6608506,37.7586367 74.9007634,38.1680096 75.044711,38.3726961 C75.4045802,38.8302306 75.4045802,38.9626748 75.0327154,39.5646939 C74.8647764,39.8295823 74.7328244,40.1305918 74.7328244,40.2389553 C74.7328244,40.515884 75.2966194,40.9854589 76.0643402,41.3466704 C77.0479826,41.8162453 77.7677208,42.659072 78.4514722,44.1279985 C78.7753544,44.8022599 79.5070883,46.0905807 80.0708833,46.981569 C81.2104689,48.751505 81.9062159,50.0518663 82.2181025,51.0391775 C82.434024,51.6773178 82.8898582,52.0987311 83.7295529,52.471983 L84.0294438,52.5923868 L83.95747,53.9047884 C83.8375136,55.7349264 83.9814613,56.8546819 84.3773173,57.3844586 C84.5572519,57.6132259 84.7491821,57.805872 84.8211559,57.805872 C84.8811341,57.805872 84.9291167,57.8660739 84.9291167,57.9262758 C84.9291167,58.1430027 86.0926936,60.4065944 86.608506,61.2012596 C86.8964013,61.6587941 87.2802617,62.5497823 87.6161396,63.5732148 C88.4798255,66.1739372 88.6477644,66.9926832 88.7677208,68.8228212 C88.8636859,70.5686765 88.9836423,71.0743725 89.6314068,72.4951375 C89.9432933,73.2055201 89.9792803,73.3500046 89.9073064,74.0844679 C89.8353326,74.8309716 89.8473282,74.939335 90.3031625,75.9507271 C90.6630316,76.769473 90.782988,77.2149671 90.8429662,77.9133093 C90.8789531,78.503288 91.082879,79.3701954 91.3947655,80.3213856 C92.4023991,83.4518848 93.17012,86.425859 93.565976,88.6894508 C93.7938931,90.0018524 93.8778626,90.2908215 94.1057797,90.4714272 C94.7655398,90.9771233 94.7295529,92.1329999 94.0338059,92.9397055 C93.6379498,93.3851996 93.6259542,93.4574419 93.8418757,94.4808743 C94.0458015,95.4320645 94.261723,95.7451144 95.1014177,96.3110123 L95.785169,96.7685468 L95.7491821,98.1050292 C95.7131952,99.1525424 95.7491821,99.5137538 95.8931298,99.8147634 C96.0010905,100.01945 96.5888768,100.585348 97.2126499,101.079003 C99.3838604,102.824859 100.643402,104.642956 100.643402,106.075762 C100.643402,107.159396 100.847328,108.098546 101.159215,108.519959 C101.327154,108.736686 101.483097,109.158099 101.519084,109.447069 C101.555071,109.772159 101.72301,110.13337 101.950927,110.42234 C102.154853,110.687228 102.322792,111.000278 102.322792,111.144762 C102.322792,111.277207 102.526718,111.614337 102.790622,111.903306 C103.414395,112.589608 103.522356,112.830416 103.522356,113.516718 C103.522356,114.311383 103.870229,114.877281 104.36205,114.877281 C104.865867,114.877281 105.009815,115.214411 104.91385,116.165602 C104.793893,117.345559 104.410033,119.079374 104.122137,119.753635 C103.70229,120.728906 103.282443,122.330277 103.282443,122.932296 C103.282443,123.317588 103.162486,123.739002 102.910578,124.268778 C102.550709,124.991201 102.538713,125.087524 102.598691,126.038714 C102.790622,128.675558 103.690294,130.553858 105.849509,132.745207 C106.449291,133.359266 107.264995,134.069649 107.648855,134.334537 C108.248637,134.73187 108.452563,134.804112 109.004362,134.804112 C109.760087,134.804112 109.80807,134.888395 109.736096,136.00815 C109.7241,136.369362 109.748092,136.670371 109.80807,136.670371 C109.868048,136.670371 109.892039,136.706493 109.844057,136.742614 C109.80807,136.778735 109.700109,136.766694 109.61614,136.718533 C109.53217,136.658331 109.328244,136.62221 109.160305,136.63425 L108.860414,136.658331 L109.160305,136.574048 C109.376227,136.501806 109.412214,136.453645 109.304253,136.381402 C109.14831,136.285079 108.812432,136.501806 108.476554,136.911179 C108.392585,137.007502 108.104689,137.501158 107.840785,138.018894 L107.36096,138.933963 L107.36096,140.523294 L107.36096,142.112624 L107.037077,142.028341 C105.129771,141.546726 102.706652,141.474484 101.159215,141.847735 C99.6477644,142.208947 98.8200654,142.690562 97.5485278,143.942762 C96.9247546,144.544781 96.0490731,145.399648 95.5932388,145.845142 C94.8854962,146.543484 94.7535442,146.73613 94.693566,147.181625 L94.6215921,147.711401 L93.3740458,148.325461 C92.6902944,148.674632 92.0785169,148.951561 92.0305344,148.93952 C91.9825518,148.93952 91.5986914,148.831157 91.1668484,148.698713 Z" id="Path"></path>
                        <path d="M109.040349,129.518385 C109.040349,129.422062 108.932388,129.301658 108.788441,129.265537 C108.40458,129.133093 108.692475,128.940446 109.400218,128.844123 C110.011996,128.759841 110.011996,128.759841 109.940022,129.072891 C109.892039,129.241456 109.80807,129.458183 109.736096,129.530425 C109.568157,129.747152 109.040349,129.735112 109.040349,129.518385 Z" id="Path"></path>
                        <path d="M6.12977099,78.8283783 C5.7219193,78.3949245 5.86586696,77.9735112 6.65757906,77.275169 C7.14940022,76.8417153 7.37731734,76.7092711 7.55725191,76.769473 C7.76117775,76.8296749 7.79716467,76.9500787 7.79716467,77.6002593 C7.79716467,78.2865611 7.76117775,78.3828841 7.40130862,78.7320552 C6.9214831,79.2016301 6.50163577,79.2257108 6.12977099,78.8283783 Z" id="Path"></path>
                        <path d="M3.97055616,77.5039363 C3.83860414,77.3594517 3.71864776,77.1427248 3.71864776,77.0343614 C3.71864776,76.9139576 3.67066521,76.7333519 3.59869138,76.612948 C3.5387132,76.5045846 3.45474373,76.0952116 3.41875682,75.7219598 C3.35877863,75.1319811 3.2868048,74.9754561 2.9389313,74.6744466 C2.71101418,74.4697601 2.32715376,74.277114 2.09923664,74.2289525 C1.78735005,74.1687506 1.67938931,74.0965083 1.70338059,73.9520237 C1.72737186,73.8075391 1.90730643,73.7473372 2.42311887,73.7232565 C3.08287895,73.6871353 3.11886587,73.6991757 3.59869138,74.180791 C3.91057797,74.4938409 4.06652126,74.7466889 4.03053435,74.8670927 C3.99454744,74.9634158 4.06652126,75.192183 4.21046892,75.3607484 C4.40239913,75.601556 4.45038168,75.8182829 4.4263904,76.3239789 C4.40239913,76.8898768 4.4263904,76.9982403 4.65430752,77.1186441 L4.91821156,77.2631286 L4.57033806,77.5159767 L4.22246456,77.7808651 L3.97055616,77.5039363 Z" id="Path"></path>
                        <path d="M7.72519084,75.8423636 C7.53326063,75.697879 7.12540894,75.3607484 6.82551799,75.09586 C6.52562704,74.8189312 6.10577972,74.5058813 5.90185387,74.3975178 C5.54198473,74.2048717 5.51799346,74.1567102 5.51799346,73.5065296 C5.51799346,73.0489951 5.45801527,72.7479856 5.33805889,72.6155414 C5.17011996,72.4228952 5.18211559,72.3867741 5.44601963,72.2182088 C5.69792803,72.0496434 5.75790622,72.0496434 5.8778626,72.194128 C5.96183206,72.2904511 6.15376227,72.3747337 6.3217012,72.3747337 C6.5736096,72.3747337 6.60959651,72.3265722 6.5736096,72.0496434 C6.53762268,71.7245531 6.56161396,71.7125127 7.16139586,71.6763916 L7.78516903,71.6402704 L8.25299891,72.4590164 C8.60087241,73.0610355 8.85278081,73.3379642 9.16466739,73.4944892 C9.76444929,73.7834584 10.3882225,73.7593776 10.5801527,73.4583681 C10.7840785,73.1453181 10.8440567,73.1573585 11.0959651,73.5306104 L11.2998909,73.8436603 L10.6041439,74.5540428 C10.0643402,75.1079003 9.80043621,75.2764657 9.33260632,75.3968695 C9.0087241,75.4691118 8.58887677,75.6617579 8.4089422,75.8182829 L8.0610687,76.107252 L7.72519084,75.8423636 Z" id="Path"></path>
                        <path d="M25.4427481,72.0014819 L24.6750273,70.8937668 L24.8189749,69.858294 C24.9389313,69.039548 25.0229008,68.7626192 25.2628135,68.5218116 L25.5507088,68.2208021 L25.5507088,69.6415671 L25.5507088,71.0623321 L26.0785169,71.8569973 C26.5343511,72.5192183 26.5943293,72.6877836 26.474373,72.8683894 C26.3904035,73.0008336 26.306434,73.0971566 26.2704471,73.0971566 C26.2344602,73.0971566 25.8625954,72.603501 25.4427481,72.0014819 Z" id="Path"></path>
                        <path d="M3.56270447,71.9533204 C3.35877863,71.6763916 3.35877863,71.6402704 3.56270447,71.3392609 L3.76663032,71.026211 L4.04252999,71.3513013 C4.29443839,71.6402704 4.30643402,71.7125127 4.16248637,71.9292396 C3.93456925,72.2784107 3.81461287,72.2904511 3.56270447,71.9533204 Z" id="Path"></path>
                        <path d="M3.16684842,65.379272 C2.83097056,64.9096971 2.90294438,64.5605261 3.31079607,64.6448087 C3.47873501,64.6688895 3.68266085,64.8013337 3.77862595,64.9458183 C3.92257361,65.1505048 3.92257361,65.2227471 3.75463468,65.4635547 C3.51472192,65.8368065 3.46673937,65.8247661 3.16684842,65.379272 Z" id="Path"></path>
                        <path d="M0.563794984,58.468093 C0.443838604,58.2995276 0.275899673,58.1670834 0.179934569,58.1670834 C-0.0359869138,58.1670834 -0.0599781897,57.6734278 0.143947655,57.4687413 C0.227917121,57.3844586 0.455834242,57.3242567 0.671755725,57.3242567 C0.983642312,57.3242567 1.07960742,57.396499 1.24754635,57.7336297 C1.49945474,58.2634065 1.48745911,58.3597296 1.17557252,58.5764564 C0.827699019,58.8172641 0.815703381,58.8172641 0.563794984,58.468093 Z" id="Path"></path>
                        <path d="M84.389313,35.181995 C83.9214831,34.2548856 84.3053435,33.4963416 85.2649945,33.4843012 L85.7688113,33.4843012 L85.7688113,34.2428452 C85.7688113,35.1338335 85.6368593,35.3505603 85.0250818,35.4589238 C84.6172301,35.5311661 84.5692475,35.5070853 84.389313,35.181995 Z" id="Path"></path>
                        <path d="M38.8898582,18.457905 C38.7339149,18.3375012 38.6379498,18.1689358 38.6859324,18.0605724 C38.7219193,17.9522089 38.6139586,17.8077244 38.3620502,17.6511994 L37.9661941,17.4224322 L38.4220284,17.3140687 C38.7938931,17.2297861 38.9258451,17.2418264 39.1057797,17.4103918 C39.2257361,17.5187552 39.5136314,17.6993609 39.7295529,17.8077244 C40.221374,18.0605724 40.3293348,18.4940261 39.9214831,18.6023896 C39.4656489,18.7227934 39.1777535,18.6866722 38.8898582,18.457905 Z" id="Path"></path>
                        <path d="M86.6804798,8.44030749 C85.9367503,8.15133833 85.912759,8.11521719 86.2246456,7.88644994 C86.4285714,7.74196536 86.4885496,7.5854404 86.4885496,7.16402704 C86.4885496,6.65833102 86.5125409,6.61016949 87.0643402,6.26099843 C87.9640131,5.69510049 88.7797165,5.33388904 89.4034896,5.26164675 C89.955289,5.20144485 89.9672846,5.20144485 89.9672846,5.51449477 C89.9672846,5.7553024 89.7633588,6.04427156 89.2235551,6.59812911 L88.4918212,7.34463277 L88.8037077,7.48911735 C89.2115594,7.66972307 89.2115594,7.79012689 88.827699,7.88644994 C88.6357688,7.93461147 88.5278081,8.0429749 88.5278081,8.19949986 C88.5278081,8.48846902 88.4798255,8.51254978 87.8080698,8.59683245 C87.4242094,8.65703436 87.1003272,8.60887284 86.6804798,8.44030749 Z" id="Path"></path>
                    </g>
                </g>
            </g>
        </g>
    </g>
</svg>