<?xml version="1.0"?>
<svg xmlns="http://www.w3.org/2000/svg" height="512px" viewBox="0 0 511.99965 511" width="512px"><g transform="matrix(0.842943 0 0 0.842943 40.2065 40.128)"><path d="m375.449219 192.210938c0 8.285156-6.71875 15-15 15-8.285157 0-15-6.714844-15-15 0-8.28125 6.714843-14.996094 15-14.996094 8.28125 0 15 6.714844 15 14.996094zm0 0" data-original="#000000" class="active-path" data-old_color="#fcaf3a" fill="#fcaf3a"/><path d="m360.449219 64.757812c-25.988281 0-47.128907 21.144532-47.128907 47.128907 0 8.285156 6.714844 15 15 15 8.28125 0 14.996094-6.714844 14.996094-15 0-9.445313 7.6875-17.132813 17.132813-17.132813 9.445312 0 17.132812 7.6875 17.132812 17.132813 0 9.445312-7.6875 17.132812-17.132812 17.132812-8.285157 0-15 6.714844-15 14.996094 0 8.285156 6.714843 15 15 15 25.988281 0 47.128906-21.140625 47.128906-47.128906 0-25.984375-21.144531-47.128907-47.128906-47.128907zm0 0" data-original="#000000" class="active-path" data-old_color="#fcaf3a" fill="#fcaf3a"/><path d="m432.742188.5h-144.585938c-43.773438 0-79.257812 35.410156-79.257812 79.257812v224.910157c0 12.265625 14.070312 19.441406 23.996093 12l60.261719-45.195313h139.585938c43.773437 0 79.257812-35.414062 79.257812-79.257812v-112.457032c0-43.777343-35.410156-79.257812-79.257812-79.257812zm49.261718 191.710938c0 27.210937-22.007812 49.261718-49.261718 49.261718h-144.585938c-3.246094 0-6.402344 1.054688-9 3l-40.261719 30.199219v-194.914063c0-27.210937 22.007813-49.261718 49.261719-49.261718h144.585938c27.210937 0 49.261718 22.007812 49.261718 49.261718zm0 0" data-original="#000000" class="active-path" data-old_color="#fcaf3a" fill="#fcaf3a"/><path d="m337.542969 348.90625c-8.902344-8.898438-20.734375-13.800781-33.320313-13.800781-12.585937 0-24.421875 4.898437-33.320312 13.800781l-12.171875 12.167969c-19.234375 19.238281-50.398438 19.269531-69.667969 0l-37.640625-37.636719c-19.234375-19.234375-19.269531-50.402344 0-69.667969l12.167969-12.171875c8.902344-8.902344 13.804687-20.734375 13.804687-33.320312 0-12.585938-4.902343-24.421875-13.804687-33.320313l-50.957032-50.960937c-18.371093-18.371094-48.269531-18.371094-66.640624 0l-22.726563 22.726562c-14.96875 14.96875-23.2109375 34.871094-23.2109375 56.042969 0 21.71875-5.2343755 130.976563 86.7343745 222.945313 91.109376 91.109374 198.792969 86.734374 222.941407 86.734374 21.171875 0 41.078125-8.246093 56.046875-23.214843l22.722656-22.722657c18.375-18.375 18.375-48.269531 0-66.640624zm29.746093 96.390625-22.722656 22.722656c-9.304687 9.304688-21.675781 14.429688-34.835937 14.429688h-13.542969c-76.132812 0-142.332031-32.09375-188.1875-77.949219-45.824219-45.824219-77.949219-112.019531-77.949219-188.1875v-13.546875c0-13.15625 5.125-25.527344 14.429688-34.832031l22.722656-22.722656c3.339844-3.339844 7.722656-5.011719 12.109375-5.011719s8.773438 1.671875 12.109375 5.007812l50.960937 50.957031c3.234376 3.238282 5.015626 7.539063 5.015626 12.113282 0 4.574218-1.78125 8.875-5.019532 12.109375l-12.09375 12.097656-.074218.074219c-14.96875 14.964844-23.210938 34.871094-23.210938 56.042968 0 21.171876 8.246094 41.078126 23.210938 56.046876l37.644531 37.636718c14.96875 14.972656 34.871093 23.214844 56.042969 23.214844 21.171874 0 41.074218-8.242188 56.042968-23.210938l12.171875-12.171874c3.234375-3.234376 7.535157-5.015626 12.109375-5.015626 4.574219 0 8.875 1.78125 12.109375 5.015626l50.960938 50.957031c6.675781 6.679687 6.675781 17.542969-.003907 24.222656zm0 0" data-original="#000000" class="active-path" data-old_color="#fcaf3a" fill="#fcaf3a"/></g> </svg>
