<?xml version="1.0" encoding="UTF-8"?>
<svg width="199px" height="122px" viewBox="0 0 199 122" version="1.1" xmlns="http://www.w3.org/2000/svg" xmlns:xlink="http://www.w3.org/1999/xlink">
    <!-- Generator: Sketch 52.2 (67145) - http://www.bohemiancoding.com/sketch -->
    <title>Group 3</title>
    <desc>Created with Sketch.</desc>
    <g id="Page-1" stroke="none" stroke-width="1" fill="none" fill-rule="evenodd">
        <g id="Group-3" transform="translate(0.000000, -14.000000)">
            <rect id="Rectangle" fill="#E1E1E1" opacity="0" x="0" y="0" width="200" height="150"></rect>
            <g id="United-States-2" transform="translate(0.000000, 14.000000)" fill="#FF8200">
                <g id="United-States">
                    <g id="Group" transform="translate(99.515514, 61.000000) scale(-1, 1) rotate(-180.000000) translate(-99.515514, -61.000000) translate(0.015514, 0.000000)">
                        <path d="M16.8952172,121.534943 C16.8952172,121.224905 16.9727894,121.069886 17.1279337,121.069886 C17.4071935,121.069886 17.422708,120.961372 17.1434482,120.186277 C16.9727894,119.690216 16.9727894,119.426684 17.1434482,118.589581 C17.4382224,117.147903 17.4382224,117.085896 16.6159575,115.721728 C16.0729523,114.822618 15.7781781,114.466074 15.5144327,114.43507 C15.1731152,114.388564 15.1576008,114.404066 15.2662018,115.055146 C15.3282595,115.427192 15.4834039,115.907751 15.5920049,116.14028 C15.8247214,116.574333 15.8712647,117.333926 15.7161204,117.938501 C15.6385482,118.186531 15.4989183,118.279543 15.1886296,118.279543 C14.9559132,118.279543 14.6456245,118.41906 14.4904802,118.589581 C14.3353358,118.760102 14.0560761,118.899619 13.8854173,118.899619 C13.6992441,118.899619 12.8304359,119.39568 11.9305988,119.984752 C11.0307617,120.573825 10.25504,121.069886 10.1929823,121.069886 C9.92923695,121.069886 9.78960705,119.938247 9.94475138,119.147649 C10.0688668,118.558577 10.0688668,118.09352 9.96026581,117.488945 C9.82063592,116.806861 9.83615035,116.574333 10.0223235,116.264295 C10.2240112,115.907751 10.2240112,115.799238 10.0223235,115.33418 C9.80512149,114.807116 9.82063592,114.776112 10.2860689,114.373062 C10.7359875,113.985515 10.7515019,113.954511 10.4256988,113.939009 C10.2395256,113.939009 10.0068091,113.78399 9.89820808,113.597967 C9.74306376,113.318933 9.77409262,113.225921 10.0688668,113.008895 C10.4101844,112.745362 10.4101844,112.72986 10.146439,112.187294 C9.99129468,111.846252 9.77409262,111.613723 9.60343386,111.613723 C9.3862318,111.613723 9.30865964,111.4277 9.23108748,110.745616 C9.06042872,109.288437 5.64725351,100.28183 4.66984425,98.7006353 C4.46815663,98.3905972 4.1733824,98.0495553 4.01823808,97.9720457 C3.86309375,97.8945362 3.69243499,97.6 3.63037726,97.3209657 C3.56831953,97.0419314 3.30457417,96.5923761 3.05634325,96.3133418 C2.59091027,95.8327827 2.59091027,95.8017789 2.76156903,95.119695 C2.87017006,94.639136 2.88568449,94.298094 2.77708346,94.0190597 C2.68399686,93.802033 2.62193913,92.6083863 2.62193913,91.3682338 L2.62193913,89.1204574 L2.03239069,88.1128335 C1.72210203,87.5547649 1.13255359,86.5781449 0.729178338,85.9425667 C-0.186173193,84.5163914 -0.201687626,84.252859 0.543005146,81.9895807 C1.05498143,80.3928844 1.07049586,80.2533672 0.837779368,79.9898348 C0.698149473,79.8348158 0.449918549,79.3542567 0.279259789,78.9202033 C-5.32577454e-14,78.1761118 -5.32577454e-14,78.0986023 0.232716491,77.7265565 C0.480947415,77.3700127 0.465432982,77.323507 0.217202058,77.0444727 C-0.0310288655,76.7654384 -0.0310288655,76.7189327 0.310288655,76.160864 C0.51197628,75.835324 0.899837098,75.2617535 1.17909689,74.8897078 C1.64452987,74.2696315 1.69107317,74.1146125 1.69107317,73.1379924 C1.69107317,72.1458704 1.73761647,71.9908513 2.17202058,71.4327827 L2.66848243,70.8127065 L3.02531438,71.2622618 C3.21148758,71.4947903 3.39766077,71.6653113 3.42868963,71.6188056 C3.5528051,71.4792884 3.97169478,68.9834816 3.87860818,68.9834816 C3.83206488,68.9834816 3.64589169,69.0919949 3.49074736,69.2160102 C3.3200886,69.3400254 3.02531438,69.4485388 2.82362676,69.4485388 C2.48230924,69.4485388 2.4667948,69.3865311 2.4667948,68.4099111 L2.4667948,67.3867853 L3.3200886,66.4876747 C4.29749787,65.4645489 4.42161333,64.9219822 3.80103602,64.3484117 C3.61486283,64.1623888 3.35111747,63.7283355 3.25803087,63.3717916 C3.07185768,62.7517154 3.07185768,62.7362135 3.59934839,62.1781449 C3.92515148,61.8526048 4.2199257,61.32554 4.32852673,60.9224905 C4.62330095,59.7908513 5.35247929,58.3336722 5.70931125,58.1476493 C6.0661432,57.9461245 6.15922979,57.2330368 5.86445557,56.9385006 C5.74034011,56.8144854 5.78688341,56.6284625 6.08165763,56.2409149 L6.46951845,55.729352 L6.09717206,54.7217281 L5.72482568,53.7141042 L6.23680196,53.2955527 C6.50054731,53.0630241 7.01252359,52.7994917 7.35384111,52.7064803 C7.69515864,52.6134689 8.51742357,52.2879288 9.20005861,51.9623888 C10.2705545,51.4663278 10.4567277,51.3113088 10.6894442,50.7687421 C11.0307617,49.9781449 11.2014204,49.8386277 12.1943441,49.6060991 C13.1407245,49.3890724 13.3579266,49.1720457 13.4044699,48.3969504 C13.4354987,47.8853875 13.482042,47.8233799 13.8699029,47.8388818 C14.1957059,47.8543837 14.4439369,47.6683609 15.0179709,46.9707751 C16.4297843,45.2810673 16.6935296,44.6454892 16.8176451,42.6612452 C16.8952172,41.5761118 17.0038183,40.878526 17.1124193,40.8475222 C17.2830781,40.7855146 25.6608717,39.9949174 26.1107903,39.9949174 C26.281449,39.9949174 26.3590212,39.8554003 26.3590212,39.5763659 C26.3590212,39.2198221 26.5141655,39.0493011 27.2588583,38.584244 C27.7398057,38.2897078 30.8271778,36.3519695 34.1162376,34.3057179 L40.0892942,30.5697586 L45.5969178,29.8566709 C48.6222322,29.4691233 51.197628,29.1435832 51.2907146,29.1435832 C51.3993156,29.1435832 51.5234311,29.515629 51.5854888,30.0736976 C51.6475466,30.5852605 51.7406332,31.0503177 51.8182053,31.0968234 C51.8957775,31.1433291 53.2920764,31.0348158 54.9366063,30.8487929 C58.3187526,30.492249 59.2496186,30.1977128 59.2496186,29.4846252 C59.2496186,29.2055909 59.9477681,28.3684879 62.0422165,26.1982211 C63.5781453,24.6015248 64.8348144,23.1753494 64.8348144,23.0203304 C64.8348144,22.8808132 64.9744443,22.5552732 65.1606175,22.3072427 C65.4243628,21.935197 65.4553917,21.7181703 65.3778195,21.2221093 C65.1761319,20.0439644 65.501935,19.6564168 68.2479896,17.7186785 C69.6132597,16.7575604 70.8544143,15.9669632 71.0095586,15.9669632 C71.4594772,15.9669632 72.3593143,17.0365947 72.8247472,18.1682338 C73.2746658,19.2068615 73.4763534,19.3773825 74.2365606,19.3773825 C74.4072194,19.3773825 74.6864792,19.5168996 74.8416235,19.6874206 L75.1208833,19.9974587 L75.4932297,19.6564168 C75.8035183,19.3773825 76.0982926,19.284371 77.1377595,19.2223634 C78.5650874,19.129352 79.4183812,18.7573062 79.4183812,18.2147395 C79.4183812,17.8891995 80.3492471,16.8970775 81.2180554,16.3080051 C81.5593729,16.0754765 81.7455461,15.7964422 81.8231182,15.3933926 C82.0403203,14.1997459 83.1108161,11.9364676 83.9175666,10.9908513 C84.3364563,10.4637865 84.6932883,9.93672173 84.6932883,9.81270648 C84.6932883,9.39415502 85.3138656,8.68106734 85.7017264,8.68106734 C86.1206161,8.68106734 86.3998759,8.06099111 86.3998759,7.13087675 C86.3998759,6.38678526 86.6015635,5.78221093 87.3772851,4.20101652 L88.0133769,2.89885642 L89.6579068,2.13926302 C90.5577439,1.72071156 91.8454418,1.24015248 92.5435912,1.10063532 C93.2572552,0.930114358 94.0640057,0.635578145 94.4208376,0.403049555 C94.9638428,0.0310038119 95.1034726,8.60422844e-16 95.367218,0.170520966 C95.6309634,0.325540025 95.72405,0.325540025 95.9257376,0.170520966 C96.3446273,-0.186022872 96.2360262,0.620076239 95.8016221,1.06963151 C95.5689056,1.33316391 95.2431025,2.0772554 94.9483283,3.10038119 C94.4984098,4.65057179 94.4984098,4.77458704 94.7000974,5.39466328 C94.8862706,5.89072427 94.8862706,6.12325286 94.7621551,6.34027954 C94.6070108,6.55730623 94.6535541,6.71232529 94.9483283,7.11537484 C95.2431025,7.50292249 95.3206747,7.81296061 95.3206747,8.49504447 C95.3206747,9.3476493 95.3361891,9.37865311 95.7395644,9.42515883 C96.2205118,9.48716645 96.6394015,9.96772554 96.6394015,10.4947903 C96.6394015,10.8668361 97.0582912,11.0683609 97.4771809,10.9133418 C97.663354,10.8358323 97.7564406,10.9288437 97.8184984,11.2853875 C97.8960705,11.6574333 98.020186,11.7659466 98.4080468,11.8434562 C99.2303118,12.0139771 99.3854561,12.1689962 99.059653,12.5410419 C98.7803932,12.8510801 98.7803932,12.866582 99.3389128,13.1146125 C99.8043458,13.347141 99.9439757,13.3626429 100.269779,13.1766201 C100.611096,13.0060991 100.781755,13.0371029 101.945337,13.6416773 C104.0553,14.7113088 104.551762,15.0368488 104.644849,15.4398983 C104.691392,15.6414231 104.986166,16.0289708 105.296455,16.2925032 C105.761888,16.7110546 105.823946,16.819568 105.668801,17.0675985 C105.358513,17.5636595 105.451599,17.9512071 105.948061,18.2147395 C106.475552,18.4937738 106.723783,18.4162643 106.723783,17.9977128 C106.723783,17.8426938 106.847898,17.6721728 107.003043,17.641169 C107.158187,17.5946633 108.507943,17.8581957 109.997328,18.2302414 C111.486714,18.6022872 112.867498,18.9123253 113.0847,18.8968234 C113.301902,18.8968234 114.341369,18.6952986 115.411865,18.4472681 C116.482361,18.2147395 117.397712,18.0442186 117.45977,18.0752224 C117.537342,18.1217281 117.583886,18.3542567 117.583886,18.5867853 C117.583886,19.1603558 118.095862,19.4083863 118.669896,19.129352 C118.887098,19.0208386 119.181872,18.8968234 119.337017,18.8503177 C119.492161,18.8038119 119.724877,18.5557814 119.880022,18.307751 C120.066195,17.966709 120.298911,17.81169 120.686772,17.7496823 C121.074633,17.6876747 121.338378,17.5016518 121.586609,17.145108 C121.803811,16.819568 122.207187,16.5250318 122.641591,16.3545108 C123.324226,16.0909784 123.324226,16.0909784 123.805173,16.494028 C124.363693,16.9590851 125.1239,17.0210928 125.434189,16.6335451 C125.635876,16.3700127 125.666905,16.3700127 125.884107,16.649047 C126.008223,16.819568 126.116824,17.145108 126.116824,17.3776366 C126.116824,17.9202033 126.799459,18.1062262 127.109747,17.641169 C127.233863,17.470648 127.699296,17.1606099 128.1337,16.9590851 C128.614647,16.7420584 128.971479,16.4630241 129.018023,16.2770013 C129.126624,15.9049555 129.064566,15.8894536 129.902345,16.3080051 L130.600495,16.649047 L129.328311,17.4086404 C128.630162,17.8271919 127.99407,18.2147395 127.932012,18.292249 C127.652753,18.5557814 129.033537,20.3074968 129.514484,20.3074968 C129.685143,20.3074968 129.545513,20.8965693 129.35934,21.0205845 C129.297282,21.0515883 128.831849,20.8345616 128.350902,20.5090216 C127.513123,19.950953 127.466579,19.9354511 127.264892,20.2299873 C127.140776,20.3850064 127.04769,20.5710292 127.04769,20.6485388 C127.04769,20.8190597 125.992708,20.8035578 125.372131,20.6330368 C124.922212,20.4935197 124.860155,20.5245235 124.642953,20.9120712 C124.456779,21.2996188 124.456779,21.3926302 124.658467,21.6871665 C124.953241,22.090216 125.511761,22.1057179 126.923574,21.7491741 L127.947527,21.4856417 L129.436912,22.1832274 C130.86424,22.8498094 130.972841,22.8808132 131.81062,22.7722999 C132.493256,22.6792884 132.757001,22.6947903 132.943174,22.8653113 C133.082804,22.9893266 133.331035,23.0513342 133.486179,23.0048285 C133.73441,22.9428208 133.858526,23.0668361 134.075728,23.6404066 C134.386016,24.3844981 134.649762,24.5550191 134.649762,24.0124524 C134.649762,23.4233799 135.115195,22.6637865 135.534084,22.5552732 C135.844373,22.4777637 136.030546,22.5552732 136.340835,22.8498094 C136.573551,23.082338 136.945898,23.252859 137.147585,23.252859 C137.364787,23.252859 137.675076,23.3923761 137.814706,23.5473952 C138.078451,23.8419314 138.326682,23.8574333 139.226519,23.6559085 C139.521294,23.5939009 139.955698,23.6404066 140.374587,23.7954257 C141.212367,24.0899619 141.165823,24.0899619 141.165823,23.7179161 C141.165823,23.5163914 141.274424,23.407878 141.460598,23.407878 C141.631256,23.407878 142.158747,23.252859 142.639695,23.0668361 C143.353358,22.8033037 143.586075,22.7722999 143.818791,22.911817 C144.051508,23.0668361 144.206652,23.0513342 144.578999,22.8653113 C145.059946,22.6172808 145.153033,22.415756 144.889287,22.2452351 C144.610027,22.0747141 144.718629,21.9041931 145.277148,21.5631512 C145.680523,21.3306226 145.820153,21.1445997 145.820153,20.8345616 C145.820153,20.5245235 145.866697,20.4625159 146.021841,20.5865311 C146.114927,20.6795426 146.71999,21.0050826 147.356082,21.3151207 C147.992174,21.6406607 148.78341,22.1522236 149.140242,22.4777637 C150.505512,23.7489199 151.855268,23.3303685 154.197947,20.8965693 C155.314986,19.7494282 155.594246,19.5324015 156.013136,19.5324015 C156.44754,19.5324015 156.556141,19.4393901 157.068117,18.5092757 C157.766266,17.2536213 157.874867,16.5870394 157.549064,15.4554003 C157.238776,14.4167726 157.238776,13.6571792 157.53355,13.2696315 C157.797295,12.9130877 158.231699,13.0526048 158.231699,13.4866582 C158.231699,13.8897078 158.712647,13.9052097 158.960878,13.4866582 C159.209109,13.1146125 159.069479,12.3395172 158.681618,11.9984752 C158.417873,11.7659466 158.417873,11.703939 158.635075,11.3008895 C158.75919,11.052859 158.929849,10.8513342 159.007421,10.8513342 C159.084993,10.8513342 159.395282,10.4792884 159.690056,10.0142313 C160.155489,9.30114358 160.295119,9.17712834 160.853639,9.0841169 C161.412158,9.00660737 161.48973,8.94459975 161.48973,8.5570521 C161.48973,8.27801779 161.753476,7.84396442 162.265452,7.23939009 C162.699856,6.7433291 163.087717,6.13875476 163.13426,5.92172808 C163.180803,5.68919949 163.242861,5.42566709 163.27389,5.31715375 C163.304919,5.22414231 163.599693,5.10012706 163.925496,5.03811944 C164.577102,4.9296061 165.244223,4.4180432 165.895829,3.53443456 C166.128546,3.20889454 166.485378,2.89885642 166.687065,2.8523507 C166.966325,2.79034307 167.074926,2.65082592 167.074926,2.38729352 C167.074926,2.18576874 167.136984,2.01524778 167.199042,2.01524778 C167.602417,2.01524778 168.797028,2.55781449 169.215918,2.91435832 C169.665836,3.31740788 169.681351,3.3639136 169.57275,4.10800508 C169.448634,4.80559085 169.479663,4.9296061 169.836495,5.39466328 C170.208842,5.89072427 170.224356,5.95273189 170.038183,6.68132147 C169.883038,7.28589581 169.883038,7.59593393 170.038183,8.20050826 C170.270899,9.13062262 170.162298,9.45616264 168.921144,11.3163914 C168.440196,12.0449809 167.897191,13.0836086 167.711018,13.6416773 C167.462787,14.4012706 167.276614,14.7268107 166.935296,14.9283355 C166.578464,15.1298602 166.469863,15.331385 166.392291,15.9514612 C166.330233,16.3855146 166.330233,16.8970775 166.392291,17.1141042 C166.516407,17.6566709 165.383853,19.2998729 164.685703,19.5944091 C164.344386,19.7339263 164.127184,19.950953 164.065126,20.2299873 C164.003068,20.447014 163.584179,21.0825921 163.118746,21.6406607 C162.32751,22.5707751 162.265452,22.6947903 162.265452,23.4233799 C162.265452,24.0434562 162.18788,24.3224905 161.877591,24.6790343 C161.660389,24.9270648 161.48973,25.3301144 161.48973,25.5626429 C161.48973,25.7796696 161.381129,26.1362135 161.241499,26.3222363 C161.117384,26.5082592 160.900182,27.4383736 160.776066,28.4304956 C160.558864,30.0581957 160.574379,30.2907243 160.807095,31.1123253 C161.070841,32.0424396 161.62936,33.2670902 162.110308,33.9491741 C162.249938,34.1662008 162.420596,34.5537484 162.482654,34.8017789 C162.684342,35.5923761 163.754837,36.8325286 165.19768,37.917662 C166.066488,38.5532402 166.640522,39.1113088 166.749123,39.3748412 C166.826695,39.6073698 167.105955,40.0879288 167.3697,40.4599746 C167.617931,40.8165184 167.912705,41.3590851 168.021306,41.6691233 C168.300566,42.53723 169.169375,43.9168996 169.696865,44.3044473 C169.960611,44.4904701 170.534645,44.7229987 170.984563,44.8160102 C172.039545,45.0330368 172.256747,45.2500635 172.567035,46.319695 C172.753208,46.9707751 173.079012,47.5133418 173.823704,48.3969504 C174.676998,49.4045743 174.956258,49.6371029 175.716465,49.9161372 C176.212927,50.1021601 176.771447,50.3966963 176.973134,50.5672173 C177.392024,50.9702668 177.438567,51.4043202 177.050706,51.2337992 C175.59235,50.613723 175.142431,50.5672173 174.863171,51.0012706 C174.692513,51.280305 174.708027,51.3113088 175.03383,51.3113088 C175.809552,51.3113088 176.631817,52.4584498 176.135355,52.8770013 C176.011239,52.9700127 175.918153,53.2180432 175.918153,53.419568 C175.918153,53.8691233 176.523216,54.1016518 176.724903,53.7296061 C176.942105,53.3420584 177.593711,53.4350699 178.105688,53.9311309 C178.493549,54.3341804 178.555606,54.5047014 178.555606,55.2487929 C178.555606,56.1789072 178.400462,56.3184244 178.028116,55.7758577 L177.779885,55.4348158 L177.407538,55.7913596 C177.050706,56.1324015 177.019677,56.1324015 176.306014,55.8998729 C175.918153,55.7603558 175.514777,55.6828463 175.437205,55.729352 C175.080373,55.9618806 175.390662,56.3029225 176.53873,56.9850064 C177.609226,57.6050826 177.779885,57.7756036 177.779885,58.1321474 C177.779885,58.364676 177.671284,58.6437103 177.547168,58.7522236 C177.423053,58.860737 177.267908,59.2172808 177.221365,59.5428208 C177.066221,60.4574333 176.911076,60.5194409 175.157946,60.4109276 C174.692513,60.3799238 174.61494,60.4419314 174.506339,60.8139771 C174.413253,61.170521 174.444282,61.2325286 174.692513,61.2325286 C175.002801,61.2325286 175.095888,61.4650572 174.832142,61.6200762 C174.583912,61.7750953 174.661484,62.2866582 174.940743,62.4571792 C175.204489,62.5966963 175.204489,62.6277001 174.956258,63.0617535 C174.801114,63.3252859 174.676998,63.7283355 174.676998,63.9763659 C174.676998,64.9684879 174.149507,65.5730623 173.311728,65.5730623 C173.141069,65.5730623 172.846295,65.7125794 172.644607,65.8831004 C172.272261,66.1931385 172.272261,66.1931385 172.567035,66.4256671 C172.737694,66.5496823 173.063497,66.6581957 173.311728,66.6581957 C173.544445,66.6581957 173.746132,66.6891995 173.746132,66.7357052 C173.746132,66.766709 173.575473,67.26277 173.358271,67.8363405 C173.047983,68.6579416 172.970411,69.1540025 172.970411,70.2856417 C172.970411,71.6343075 172.985925,71.7273189 173.451358,72.2853875 C173.715103,72.5954257 174.056421,72.8589581 174.242594,72.8589581 C174.506339,72.8589581 174.537368,72.7814485 174.444282,72.3628971 C174.397738,72.0838628 174.242594,71.5878018 174.102964,71.2777637 C173.885762,70.7662008 173.885762,70.6421855 174.08745,70.1151207 C174.22708,69.7895807 174.413253,69.0144854 174.521854,68.4099111 L174.723541,67.2782719 L175.483749,67.1852605 C176.212927,67.092249 176.228441,67.0767471 176.228441,66.5496823 C176.228441,66.0381194 176.243956,66.0226175 176.740418,66.0691233 C177.23688,66.115629 177.23688,66.115629 177.174822,65.4955527 C177.159307,65.1700127 177.066221,64.7204574 176.988649,64.5189327 C176.911076,64.3174079 176.849019,63.8368488 176.849019,63.4337992 L176.864533,62.7052097 L177.252394,63.464803 C177.469596,63.8678526 177.748856,64.7049555 177.872971,65.3095299 C177.997087,65.8986023 178.198774,66.5341804 178.32289,66.7202033 C178.493549,66.93723 178.555606,67.4642948 178.555606,68.4099111 L178.555606,69.7895807 L177.997087,70.3011436 C177.686798,70.5801779 177.329966,70.9057179 177.205851,71.0297332 C177.081735,71.1382465 176.662846,71.711817 176.290499,72.2853875 C175.778523,73.0759848 175.638893,73.4480305 175.700951,73.7270648 C175.747494,73.9285896 175.840581,74.0991105 175.887124,74.0991105 C175.933667,74.0991105 176.212927,73.8200762 176.507701,73.4790343 C176.802475,73.1224905 177.314452,72.703939 177.640255,72.5489199 C177.966058,72.378399 178.307375,72.0993647 178.415976,71.9133418 L178.586635,71.5878018 L178.974496,71.9598475 C179.191698,72.1458704 179.672645,72.9674714 180.044992,73.7580686 C180.712112,75.184244 180.727627,75.2307497 180.727627,76.8739517 C180.727627,78.6721728 180.587997,79.0287166 179.951905,78.8581957 C179.765732,78.81169 179.641617,78.8581957 179.641617,78.9512071 C179.641617,79.3232529 179.920876,79.5402795 180.510425,79.633291 C180.836228,79.6797967 181.549892,79.9898348 182.092897,80.3153748 C182.620388,80.6409149 183.473681,81.0904701 183.985658,81.3229987 C184.637264,81.6175349 185.00961,81.8965693 185.304385,82.3306226 L185.692245,82.935197 L185.211298,82.935197 C184.932038,82.935197 184.34249,82.7026684 183.846028,82.4081321 C182.341128,81.5090216 180.867257,80.8734435 180.696598,81.0439644 C180.324252,81.4160102 182.13944,83.1987294 183.442653,83.7722999 C183.877057,83.9583227 184.606235,84.2063532 185.071668,84.2993647 C185.537101,84.407878 186.343852,84.7179161 186.855828,85.0124524 C187.74015,85.4930114 187.786694,85.5550191 187.833237,86.1595934 C187.864266,86.5626429 187.972867,86.8106734 188.143526,86.888183 C188.283156,86.9346887 188.422786,86.9191868 188.453814,86.8416773 C188.469329,86.7641677 188.593444,86.5626429 188.71756,86.4076239 C188.934762,86.1285896 188.965791,86.1440915 189.431224,86.7021601 C189.710483,87.0277001 190.113859,87.384244 190.36209,87.5082592 C190.74995,87.7252859 190.812008,87.709784 190.951638,87.4772554 C191.091268,87.2292249 191.122297,87.2292249 191.386042,87.4617535 C191.541187,87.6012706 191.851475,87.7872935 192.099706,87.880305 C192.441024,88.0198221 192.518596,88.1438374 192.518596,88.5623888 C192.518596,89.1049555 192.130735,90.0660737 191.898018,90.0660737 C191.603244,90.0660737 191.417071,89.6165184 191.572215,89.3064803 C191.86699,88.7794155 191.773903,88.4073698 191.355013,88.2988564 C190.843037,88.1748412 190.486205,88.3763659 189.881142,89.1359593 C189.508796,89.6010165 189.276079,89.7560356 188.934762,89.7560356 C188.314185,89.7560356 188.236612,90.0660737 188.593444,91.0581957 C188.85719,91.7712834 188.872704,91.9418043 188.702045,92.2518424 C188.391757,92.825413 188.4383,93.4454892 188.950276,95.1506989 C189.291594,96.282338 189.369166,96.8094028 189.276079,97.0729352 C189.089906,97.5689962 189.694969,98.3595934 190.175916,98.2355781 C190.393118,98.1890724 190.563777,98.266582 190.718922,98.5146125 C190.858551,98.7161372 191.184355,98.9021601 191.494643,98.9641677 C191.991105,99.0571792 192.053163,99.1501906 192.441024,100.157814 C192.782341,101.041423 192.953,101.289454 193.294317,101.413469 C193.527034,101.490978 193.945924,101.83202 194.225183,102.173062 C194.628559,102.684625 194.799217,102.777637 195.109506,102.715629 C195.40428,102.638119 195.668026,102.777637 196.459262,103.475222 C197.002267,103.955781 197.529758,104.51385 197.638359,104.715375 C197.74696,104.9169 198.010705,105.149428 198.227907,105.226938 L198.631282,105.350953 L198.27445,105.707497 C198.088277,105.89352 197.871075,106.203558 197.809017,106.389581 C197.715931,106.622109 197.452185,106.79263 196.971238,106.916645 C196.397204,107.071665 196.24206,107.19568 196.055886,107.660737 C195.916257,108.032783 195.621482,108.342821 195.233621,108.559848 C194.566501,108.931893 194.380328,109.39695 193.418433,112.80737 L192.937485,114.559085 L191.944562,115.194663 L190.967152,115.830241 L189.958714,115.194663 C189.415709,114.838119 188.85719,114.559085 188.733074,114.559085 C188.422786,114.559085 188.081468,115.024142 188.143526,115.365184 C188.190069,115.582211 188.128011,115.65972 187.926324,115.613215 C187.507434,115.535705 186.281794,111.474206 186.405909,110.575095 C186.452453,110.218551 186.421424,109.784498 186.328337,109.629479 C186.219736,109.427954 186.219736,109.009403 186.328337,108.373825 C186.483481,107.335197 186.312823,106.327573 185.893933,105.847014 C185.738789,105.676493 185.676731,105.412961 185.738789,105.133926 C185.878419,104.467344 185.490558,104.002287 184.916524,104.110801 C184.233889,104.250318 183.520225,103.490724 183.520225,102.638119 C183.520225,102.188564 183.442653,102.002541 183.256479,101.940534 C183.101335,101.90953 180.712112,101.366963 177.935029,100.746887 C174.165022,99.909784 172.799752,99.5377382 172.520492,99.3052097 C171.651684,98.5301144 170.007154,96.5303685 169.929582,96.1273189 C169.867524,95.8792884 169.526206,95.3832274 169.15386,95.0111817 C168.781514,94.639136 168.471225,94.2515883 168.471225,94.1275731 C168.471225,94.0035578 168.641884,93.7090216 168.859086,93.4454892 C169.122831,93.1354511 169.246947,92.7944091 169.246947,92.4223634 C169.246947,91.5697586 167.835133,90.2831004 166.175089,89.6165184 C164.949449,89.1204574 164.91842,89.1204574 164.49953,89.3994917 C164.018583,89.7095299 163.801381,89.694028 161.924134,89.2754765 L160.558864,88.9499365 L160.40372,88.3453621 C160.248576,87.7872935 160.279605,87.6942821 160.636437,87.213723 C161.319072,86.3146125 161.117384,85.8340534 159.286681,84.0978399 C158.433387,83.2917408 157.611122,82.6251588 157.440463,82.6251588 C157.285319,82.6251588 156.990545,82.4081321 156.804372,82.1445997 C156.416511,81.6175349 154.135889,80.1448539 153.717,80.1448539 C153.57737,80.1448539 153.096422,79.7263024 152.646504,79.2147395 C151.93284,78.3776366 151.824239,78.315629 151.482921,78.470648 C151.188147,78.6101652 151.017488,78.5481576 150.396911,78.1296061 C149.745305,77.6800508 149.621189,77.649047 148.876496,77.7420584 C148.426578,77.8040661 147.681885,78.0210928 147.216452,78.2381194 C146.71999,78.4551461 146.223528,78.5791614 146.021841,78.5171537 C145.696038,78.4396442 145.665009,78.4861499 145.665009,78.9822109 C145.665009,79.307751 145.835668,79.78831 146.05287,80.1448539 C146.270072,80.4858958 146.440731,80.9044473 146.440731,81.0904701 C146.440731,81.2609911 146.58036,81.5865311 146.735505,81.8035578 C146.906164,82.0050826 147.092337,82.4856417 147.154394,82.8731893 C147.231967,83.4622618 147.309539,83.5552732 147.619827,83.5552732 C147.821515,83.5552732 147.992174,83.6017789 147.992174,83.6792884 C147.992174,83.7412961 148.069746,84.2063532 148.147318,84.7179161 C148.286948,85.6015248 148.271434,85.7565438 147.666371,87.5547649 C147.061308,89.352986 146.99925,89.4925032 146.502788,89.694028 C146.223528,89.8180432 145.882211,89.9110546 145.77361,89.9110546 C145.587437,89.9110546 144.873773,89.0894536 143.880849,87.7717916 C143.586075,87.384244 142.90344,87.8337992 142.794839,88.5003812 C142.701752,89.027446 142.76381,89.1359593 143.399902,89.7870394 L144.113566,90.4846252 L144.113566,91.7867853 C144.098051,92.6238882 144.020479,93.2284625 143.880849,93.476493 C143.617104,93.9260483 143.570561,94.8096569 143.803277,94.9491741 C143.880849,94.9956798 143.958421,95.1041931 143.958421,95.1662008 C143.958421,95.4452351 142.670723,96.1273189 142.003603,96.2203304 C141.569199,96.282338 141.165823,96.452859 140.964136,96.6543837 C140.777963,96.8559085 140.250472,97.1194409 139.800553,97.2434562 L138.993803,97.4759848 L138.435283,96.7939009 C138.016394,96.282338 137.892278,96.0188056 137.96985,95.7552732 C138.031908,95.4917408 137.954336,95.290216 137.675076,95.0266836 C137.395816,94.7631512 137.287215,94.4996188 137.287215,94.0965693 C137.287215,93.5229987 137.1631,93.305972 136.558037,92.7944091 C136.216719,92.5153748 136.185691,92.5153748 135.906431,92.7634053 C135.285853,93.321474 134.649762,92.4688691 134.479103,90.841169 C134.417045,90.2831004 134.308444,89.3839898 134.261901,88.8259212 C134.137785,87.709784 134.494617,86.1595934 135.208281,84.7644219 C135.627171,83.9273189 135.689229,82.919695 135.409969,80.9664549 C135.177252,79.292249 134.323959,77.8660737 133.206919,77.2149936 L132.400169,76.7499365 L131.795106,77.0909784 C131.314159,77.3700127 131.127985,77.5870394 130.926298,78.1916137 C130.786668,78.6101652 130.507408,79.0752224 130.305721,79.2457433 C130.010946,79.4782719 129.933374,79.7108005 129.886831,80.4238882 C129.871316,80.9044473 129.700658,82.098094 129.514484,83.0592122 C129.21971,84.6094028 129.204196,84.8884371 129.390369,85.4620076 C129.49897,85.8185515 129.576542,86.5626429 129.545513,87.1517154 C129.49897,88.0508259 129.545513,88.2523507 129.902345,88.7639136 C130.197119,89.197967 130.305721,89.5700127 130.305721,90.0815756 C130.305721,90.5621347 130.476379,91.166709 130.833211,91.9418043 C131.345188,93.0579416 131.655476,94.0965693 131.484817,94.0965693 C131.438274,94.0965693 131.174529,93.7710292 130.910783,93.3679797 C130.631524,92.9494282 130.119547,92.3448539 129.762715,92.0038119 C129.421398,91.66277 129.033537,91.2287166 128.909422,91.0426938 C128.754277,90.7946633 128.614647,90.7326557 128.459503,90.8256671 C128.118186,91.0426938 128.381931,91.7712834 129.204196,92.9029225 C129.623085,93.476493 130.010946,94.1275731 130.05749,94.3601017 C130.119547,94.5926302 130.336749,95.1041931 130.522923,95.4917408 C130.72461,95.8792884 130.941812,96.4838628 131.00387,96.8559085 C131.081442,97.3519695 131.174529,97.5069886 131.407245,97.5069886 C131.608933,97.5069886 131.702019,97.3984752 131.702019,97.1659466 L131.717534,96.8094028 L131.996794,97.1659466 C132.36914,97.6 132.78803,97.6155019 132.78803,97.1969504 C132.78803,96.7318933 133.253463,96.8249047 133.45515,97.3364676 C133.59478,97.7085133 133.718896,97.8015248 134.261901,97.8480305 C134.649762,97.8945362 135.177252,98.1270648 135.580628,98.421601 C136.154662,98.8401525 136.371864,98.9021601 137.209643,98.9021601 C137.96985,98.9021601 138.233596,98.8401525 138.450798,98.592122 C138.714543,98.2975858 138.730057,98.2975858 139.040346,98.6851334 C139.319606,99.0571792 139.412693,99.0726811 140.219443,98.9796696 C140.902078,98.9021601 141.243396,98.9486658 141.786401,99.1811944 C142.391464,99.4447268 142.438007,99.5067344 142.174262,99.5997459 C142.003603,99.6617535 141.320968,99.9252859 140.653847,100.173316 C139.645409,100.560864 139.319606,100.622872 138.683514,100.52986 C137.954336,100.421347 137.907793,100.436849 137.752648,100.839898 C137.675076,101.056925 137.597504,101.413469 137.597504,101.630496 C137.597504,102.064549 137.504417,102.080051 136.713181,101.785515 C136.387378,101.661499 135.642685,101.475476 135.037622,101.382465 C134.215358,101.242948 133.73441,101.056925 133.06729,100.591868 C132.198481,100.002795 132.182967,99.9872935 131.00387,100.064803 C129.948889,100.126811 129.762715,100.188818 129.173167,100.653875 C128.350902,101.320457 127.513123,101.599492 126.644314,101.475476 C126.147853,101.413469 125.992708,101.444473 126.023737,101.58399 C126.054766,101.677001 126.178881,102.111055 126.271968,102.514104 C126.427112,103.056671 126.6288,103.382211 127.094233,103.769759 L127.71481,104.281321 L127.032175,104.389835 C126.427112,104.482846 126.318511,104.451842 126.116824,104.141804 C125.620362,103.366709 123.867231,101.940534 122.765706,101.428971 C122.269244,101.18094 121.493523,100.700381 121.043604,100.343837 C120.267883,99.739263 120.205825,99.7082592 119.616276,99.8632783 C119.181872,99.9717916 118.840555,99.9717916 118.499237,99.8477764 C118.219977,99.7547649 117.940718,99.6772554 117.87866,99.6772554 C117.676972,99.6772554 117.708001,100.731385 117.909689,100.8554 C118.033804,100.93291 118.01829,101.010419 117.847631,101.103431 C117.661458,101.196442 117.227054,101.056925 116.342731,100.60737 C115.163634,100.018297 115.055033,99.9872935 114.480999,100.157814 C114.139682,100.266328 113.860422,100.405845 113.860422,100.467853 C113.860422,100.52986 114.5896,101.273952 115.473923,102.111055 C116.559933,103.13418 117.832117,104.126302 119.352531,105.102922 C120.593686,105.909022 121.602124,106.622109 121.602124,106.684117 C121.633153,106.885642 120.640229,106.994155 119.585247,106.885642 C118.700925,106.79263 118.437179,106.823634 118.111376,107.040661 C117.723516,107.288691 117.661458,107.288691 116.544419,106.885642 C115.520466,106.529098 115.318778,106.498094 114.822317,106.668615 C114.512028,106.761626 114.062109,107.009657 113.829393,107.211182 C113.596676,107.397205 113.270873,107.52122 113.115729,107.490216 C112.929556,107.428208 112.681325,107.598729 112.355522,108.001779 C111.921118,108.559848 111.797002,108.621855 110.695478,108.792376 C109.79564,108.931893 109.345722,108.931893 108.833746,108.792376 C108.213168,108.637357 108.073538,108.652859 107.282302,109.024905 C106.615182,109.350445 106.335922,109.412452 106.041148,109.288437 C105.498143,109.086912 105.203368,109.489962 105.187854,110.45108 C105.172339,111.722236 104.986166,112.15629 104.458676,112.202795 C104.024271,112.249301 103.977728,112.202795 103.853613,111.582719 L103.698468,110.916137 L100.595582,110.761118 C96.515286,110.544091 81.8386327,110.978145 77.0136441,111.443202 C69.8304617,112.140788 62.3990484,113.0554 55.5261547,114.094028 C51.55446,114.698602 46.9466734,115.396188 45.2711147,115.65972 C41.7958818,116.186785 25.1023522,119.860737 20.3704502,121.147395 C18.6638626,121.612452 17.174477,122 17.0813904,122 C16.9727894,122 16.8952172,121.798475 16.8952172,121.534943 Z" id="Path"></path>
                    </g>
                </g>
            </g>
        </g>
    </g>
</svg>