<?xml version="1.0" encoding="UTF-8"?>
<svg width="150px" height="134px" viewBox="0 0 150 134" version="1.1" xmlns="http://www.w3.org/2000/svg" xmlns:xlink="http://www.w3.org/1999/xlink">
    <!-- Generator: Sketch 52.5 (67469) - http://www.bohemiancoding.com/sketch -->
    <title>_Group_150</title>
    <desc>Created with Sketch.</desc>
    <g id="Page-1" stroke="none" stroke-width="1" fill="none" fill-rule="evenodd" stroke-linecap="round" stroke-linejoin="round">
        <g id="_Group_150" transform="translate(1.000000, 1.000000)" stroke="#3B6D96" stroke-width="3">
            <g id="_Group_151">
                <polyline id="_Path_714" points="103.87 131.21 0.65 131.21 0.65 0.58 73.78 0.58 73.78 1.12 73.78 26.28"></polyline>
                <g id="_Group_152" transform="translate(23.000000, 37.000000)">
                    <path d="M2.77,46.95 C5.16630979,48.9514366 8.07048714,50.2494897 11.16,50.7 L11.16,53.3 C11.1573364,54.4173759 11.6000333,55.4897541 12.3901396,56.2798604 C13.1802459,57.0699667 14.2526241,57.5126636 15.37,57.51 C17.6951188,57.51 19.58,55.6251188 19.58,53.3 L19.58,50.67 C22.5047206,50.2582521 25.2462891,49.0038716 27.47,47.06 C29.9388229,44.7732533 31.2864906,41.5227811 31.16,38.16 C31.2957478,34.8119165 29.8697407,31.5904705 27.3,29.44" id="_Path_715"></path>
                    <path d="M27.3,29.44 C25.04,27.44 21.69,25.77 17.09,24.26 C15.2304064,23.7096598 13.7377713,22.3170275 13.06,20.5 C12.46,18.5 13.62,16.32 15.85,16.32" id="_Path_716"></path>
                    <path d="M28.41,10.84 C26.0134289,8.83718979 23.1098112,7.53592609 20.02,7.08 L20.02,4.5 C20.02,2.1748812 18.1351188,0.29 15.81,0.29 C13.4848812,0.29 11.6,2.1748812 11.6,4.5 L11.6,7.13 C8.67527944,7.54174786 5.93371085,8.79612842 3.71,10.74 C1.24162899,13.0228713 -0.106239715,16.2701756 0.02,19.63 C-0.110132843,22.9234699 1.13616729,26.1225484 3.46,28.46 C7.21,32 12.46,32.9 16.52,35.92 C17.5077421,36.5189155 18.136365,37.5666203 18.2,38.72 C18.1407481,40.2382077 16.8893494,41.4365436 15.37,41.43 L11.45,41.43" id="_Path_717"></path>
                </g>
                <polyline id="_Path_718" points="63.82 32.56 63.82 13.62 10.61 13.62 10.61 38.23"></polyline>
                <polyline id="_Path_719" points="10.61 81.42 10.61 118.17 62.71 118.17"></polyline>
            </g>
            <g id="_Group_153" transform="translate(62.000000, 22.000000)">
                <path d="M17.79,92.3 C0.73,70.68 0.46,42.1 0.34,29.85 L0.34,27.38 L1.61,25.32 C4.05,21.32 17.46,1.55 41.74,0.91 L42.89,0.91" id="_Path_720"></path>
                <path d="M84.98,26.56 L84.98,29.09 C84.88,45.94 84.64,85.33 52.07,106.4 C49.2799133,108.222003 46.0222863,109.197902 42.69,109.21" id="_Path_721"></path>
            </g>
        </g>
    </g>
</svg>