<?xml version="1.0" encoding="UTF-8"?>
<svg width="195px" height="142px" viewBox="0 0 195 142" version="1.1" xmlns="http://www.w3.org/2000/svg" xmlns:xlink="http://www.w3.org/1999/xlink">
    <!-- Generator: Sketch 52.5 (67469) - http://www.bohemiancoding.com/sketch -->
    <title>_Group_247</title>
    <desc>Created with Sketch.</desc>
    <g id="Page-1" stroke="none" stroke-width="1" fill="none" fill-rule="evenodd">
        <g id="_Group_247" transform="translate(1.000000, 1.000000)">
            <path d="M173.06,66.26 L173.06,133.05 C173.06,136.915993 169.925993,140.05 166.06,140.05 L5.9,140.05 C2.74483236,140.050005 0.185516027,137.495163 0.18,134.34 L0.18,128.5 L162.45,128.5 L162.45,61.5 L168.27,61.5 C170.897063,61.5161484 173.027347,63.6330905 173.06,66.26 Z" id="_Path_1082" fill="#9ABFE2"></path>
            <path d="M191.99,51.5 C187.2,30.13 170.13,11.25 148.35,8.04 C136.08,6.23 123.5,10.12 113.55,17.44 C97.21,29.44 92.75,46.76 91.69,51.5 L191.99,51.5 Z" id="_Path_1083" fill="#E0C79B"></path>
            <g id="_Group_248" stroke-linecap="round" stroke-linejoin="round" transform="translate(38.000000, 60.000000)" stroke="#3B6D96" stroke-width="3">
                <g id="_Group_249" transform="translate(13.000000, 0.000000)">
                    <polyline id="_Path_1084" points="0.18 4.35 3.57 0.83 3.57 12.4"></polyline>
                    <path d="M0.99,12.4 L5.94,12.4" id="_Path_1085"></path>
                </g>
                <g id="_Group_250" transform="translate(36.000000, 0.000000)">
                    <polyline id="_Path_1086" points="0.4 4.35 3.79 0.83 3.79 12.4"></polyline>
                    <path d="M1.21,12.4 L6.16,12.4" id="_Path_1087"></path>
                </g>
                <rect id="_Rectangle_68" x="23.85" y="0.83" width="7.17" height="11.57" rx="0.79"></rect>
                <rect id="_Rectangle_69" x="0.57" y="0.83" width="7.17" height="11.57" rx="0.79"></rect>
                <g id="_Group_251" transform="translate(59.000000, 0.000000)">
                    <polyline id="_Path_1088" points="0.33 4.35 3.72 0.83 3.72 12.4"></polyline>
                    <path d="M1.14,12.4 L6.09,12.4" id="_Path_1089"></path>
                </g>
                <rect id="_Rectangle_70" x="69.99" y="0.83" width="7.17" height="11.57" rx="0.79"></rect>
                <rect id="_Rectangle_71" x="47.1" y="0.83" width="7.17" height="11.57" rx="0.79"></rect>
            </g>
            <g id="_Group_252" stroke-linecap="round" stroke-linejoin="round" transform="translate(38.000000, 96.000000)" stroke="#3B6D96" stroke-width="3">
                <g id="_Group_253" transform="translate(13.000000, 0.000000)">
                    <polyline id="_Path_1090" points="0.18 3.63 3.57 0.11 3.57 11.68"></polyline>
                    <path d="M0.99,11.68 L5.94,11.68" id="_Path_1091"></path>
                </g>
                <g id="_Group_254" transform="translate(36.000000, 0.000000)">
                    <polyline id="_Path_1092" points="0.4 3.63 3.79 0.11 3.79 11.68"></polyline>
                    <path d="M1.21,11.68 L6.16,11.68" id="_Path_1093"></path>
                </g>
                <rect id="_Rectangle_72" x="23.85" y="0.11" width="7.17" height="11.57" rx="0.79"></rect>
                <rect id="_Rectangle_73" x="0.57" y="0.11" width="7.17" height="11.57" rx="0.79"></rect>
                <g id="_Group_255" transform="translate(59.000000, 0.000000)">
                    <polyline id="_Path_1094" points="0.33 3.63 3.72 0.11 3.72 11.68"></polyline>
                    <path d="M1.14,11.68 L6.09,11.68" id="_Path_1095"></path>
                </g>
                <rect id="_Rectangle_74" x="69.99" y="0.11" width="7.17" height="11.57" rx="0.79"></rect>
                <rect id="_Rectangle_75" x="47.1" y="0.11" width="7.17" height="11.57" rx="0.79"></rect>
            </g>
            <g id="_Group_256" stroke-linecap="round" stroke-linejoin="round" transform="translate(40.000000, 78.000000)" stroke="#3B6D96" stroke-width="3">
                <polyline id="_Path_1096" points="0.16 3.87 3.55 0.35 3.55 11.92"></polyline>
                <path d="M0.97,11.93 L5.91,11.93" id="_Path_1097"></path>
            </g>
            <g id="_Group_257" stroke-linecap="round" stroke-linejoin="round" transform="translate(63.000000, 78.000000)" stroke="#3B6D96" stroke-width="3">
                <polyline id="_Path_1098" points="0.37 3.87 3.76 0.35 3.76 11.92"></polyline>
                <path d="M1.18,11.93 L6.13,11.93" id="_Path_1099"></path>
            </g>
            <rect id="_Rectangle_76" stroke="#3B6D96" stroke-width="3" stroke-linecap="round" stroke-linejoin="round" x="50.82" y="78.35" width="7.17" height="11.57" rx="0.79"></rect>
            <g id="_Group_258" stroke-linecap="round" stroke-linejoin="round" transform="translate(86.000000, 78.000000)" stroke="#3B6D96" stroke-width="3">
                <polyline id="_Path_1100" points="0.3 3.87 3.69 0.35 3.69 11.92"></polyline>
                <path d="M1.11,11.93 L6.06,11.93" id="_Path_1101"></path>
            </g>
            <g id="_Group_259" stroke-linecap="round" stroke-linejoin="round" transform="translate(110.000000, 78.000000)" stroke="#3B6D96" stroke-width="3">
                <polyline id="_Path_1102" points="0.01 3.87 3.4 0.35 3.4 11.92"></polyline>
                <path d="M0.82,11.93 L5.76,11.93" id="_Path_1103"></path>
            </g>
            <rect id="_Rectangle_77" stroke="#3B6D96" stroke-width="3" stroke-linecap="round" stroke-linejoin="round" x="96.97" y="78.35" width="7.17" height="11.57" rx="0.79"></rect>
            <rect id="_Rectangle_78" stroke="#3B6D96" stroke-width="3" stroke-linecap="round" stroke-linejoin="round" x="74.07" y="78.35" width="7.17" height="11.57" rx="0.79"></rect>
            <g id="_Group_260" stroke-linecap="round" stroke-linejoin="round" transform="translate(1.000000, 11.000000)" stroke="#3B6D96" stroke-width="3">
                <polyline id="_Path_1104" points="85.95 27.05 0.23 27.05 0.23 0.61 107.72 0.61"></polyline>
                <polyline id="_Path_1105" points="0.23 27.05 0.23 117.45 161.45 117.45 161.45 51.56"></polyline>
                <path d="M17.69,13.83 C17.69,16.7129264 15.3529264,19.05 12.47,19.05 C9.58707361,19.05 7.25,16.7129264 7.25,13.83 C7.25,10.9470736 9.58707361,8.61 12.47,8.61 C15.3529264,8.61 17.69,10.9470736 17.69,13.83 Z" id="_Path_1106"></path>
                <path d="M35.28,13.83 C35.28,16.7129264 32.9429264,19.05 30.06,19.05 C27.1770736,19.05 24.84,16.7129264 24.84,13.83 C24.84,10.9470736 27.1770736,8.61 30.06,8.61 C32.9429264,8.61 35.28,10.9470736 35.28,13.83 Z" id="_Path_1107"></path>
                <path d="M52.87,13.83 C52.87,16.7129264 50.5329264,19.05 47.65,19.05 C44.7670736,19.05 42.43,16.7129264 42.43,13.83 C42.43,10.9470736 44.7670736,8.61 47.65,8.61 C50.5329264,8.61 52.87,10.9470736 52.87,13.83 Z" id="_Path_1108"></path>
                <path d="M60.24,13.83 L90.68,13.83" id="_Path_1109"></path>
            </g>
            <path d="M191.99,51.5 C187.2,30.13 170.13,11.25 148.35,8.04 C136.08,6.23 123.5,10.12 113.55,17.44 C97.21,29.44 92.75,46.76 91.69,51.5 L191.99,51.5 Z" id="_Path_1110" stroke="#3B6D96" stroke-width="3" stroke-linecap="round" stroke-linejoin="round"></path>
            <path d="M141.84,7.6 L141.84,0.71" id="_Path_1111" stroke="#3B6D96" stroke-width="3" stroke-linecap="round" stroke-linejoin="round"></path>
            <path d="M114.19,51.5 C114.55,45.79 116.33,30.16 128.5,17.32 C132.374457,13.2418209 136.89936,9.83547175 141.89,7.24" id="_Path_1112" stroke="#3B6D96" stroke-width="3" stroke-linecap="round" stroke-linejoin="round"></path>
            <path d="M169.59,51.5 C169.23,45.79 167.45,30.16 155.29,17.32 C151.410067,13.243698 146.882215,9.83767222 141.89,7.24" id="_Path_1113" stroke="#3B6D96" stroke-width="3" stroke-linecap="round" stroke-linejoin="round"></path>
            <path d="M141.84,7.6 L141.84,87.67 C141.834501,90.0646345 139.894635,92.0045014 137.5,92.01 C135.103084,92.01 133.16,90.0669158 133.16,87.67 L133.16,85.82" id="_Path_1114" stroke="#3B6D96" stroke-width="3" stroke-linecap="round" stroke-linejoin="round"></path>
        </g>
    </g>
</svg>