<?xml version="1.0" encoding="UTF-8"?>
<svg width="183px" height="133px" viewBox="0 0 183 133" version="1.1" xmlns="http://www.w3.org/2000/svg" xmlns:xlink="http://www.w3.org/1999/xlink">
    <!-- Generator: Sketch 52.5 (67469) - http://www.bohemiancoding.com/sketch -->
    <title>_Group_109</title>
    <desc>Created with Sketch.</desc>
    <g id="Page-1" stroke="none" stroke-width="1" fill="none" fill-rule="evenodd">
        <g id="_Group_109" transform="translate(2.000000, 1.000000)">
            <path d="M63.33,106.14 L63.33,112.5 C63.33,113.879126 63.8778556,115.201766 64.8530447,116.176955 C65.8282339,117.152144 67.1508743,117.7 68.53,117.7 L123.6,117.7 C124.848249,117.702656 126.046283,117.208651 126.929868,116.326942 C127.813453,115.445233 128.310003,114.248252 128.31,113 L128.31,50.1 C128.31,47.6920385 126.357962,45.74 123.95,45.74 L115.43,45.74 L115.43,106.18 L63.33,106.14 Z" id="_Path_537" fill="#9ABFE2"></path>
            <path d="M0.06,0.5 L0.06,29.81 L178.74,29.81 L178.74,0.5 L0.06,0.5 Z M13.63,20.94 C10.4322713,20.94 7.84,18.3477287 7.84,15.15 C7.84,11.9522713 10.4322713,9.36 13.63,9.36 C16.8277287,9.36 19.42,11.9522713 19.42,15.15 C19.4067963,16.6856215 18.7840806,18.1530963 17.6888556,19.2295674 C16.5936306,20.3060385 15.1156205,20.9033182 13.58,20.89 L13.63,20.94 Z M33.13,20.94 C29.9322713,20.94 27.34,18.3477287 27.34,15.15 C27.34,11.9522713 29.9322713,9.36 33.13,9.36 C36.3277287,9.36 38.92,11.9522713 38.92,15.15 C38.9068215,16.6891233 38.281355,18.1596581 37.1817905,19.2367059 C36.0822259,20.3137538 34.5990666,20.9086648 33.06,20.89 L33.13,20.94 Z M52.63,20.94 C49.4322713,20.94 46.84,18.3477287 46.84,15.15 C46.84,11.9522713 49.4322713,9.36 52.63,9.36 C55.8277287,9.36 58.42,11.9522713 58.42,15.15 C58.4067963,16.6856215 57.7840806,18.1530963 56.6888556,19.2295674 C55.5936306,20.3060385 54.1156205,20.9033182 52.58,20.89 L52.63,20.94 Z" id="_Compound_Path_19" fill="#E0C79B" fill-rule="nonzero"></path>
            <g id="_Group_110" stroke-linecap="round" stroke-linejoin="round" stroke="#3B6D96" stroke-width="3">
                <g id="_Group_111">
                    <path d="M0.06,0.5 L0.06,29.81 L178.74,29.81 L178.74,0.5 L0.06,0.5 Z M13.63,20.94 C10.4322713,20.94 7.84,18.3477287 7.84,15.15 C7.84,11.9522713 10.4322713,9.36 13.63,9.36 C16.8277287,9.36 19.42,11.9522713 19.42,15.15 C19.4067963,16.6856215 18.7840806,18.1530963 17.6888556,19.2295674 C16.5936306,20.3060385 15.1156205,20.9033182 13.58,20.89 L13.63,20.94 Z M33.13,20.94 C29.9322713,20.94 27.34,18.3477287 27.34,15.15 C27.34,11.9522713 29.9322713,9.36 33.13,9.36 C36.3277287,9.36 38.92,11.9522713 38.92,15.15 C38.9068215,16.6891233 38.281355,18.1596581 37.1817905,19.2367059 C36.0822259,20.3137538 34.5990666,20.9086648 33.06,20.89 L33.13,20.94 Z M52.63,20.94 C49.4322713,20.94 46.84,18.3477287 46.84,15.15 C46.84,11.9522713 49.4322713,9.36 52.63,9.36 C55.8277287,9.36 58.42,11.9522713 58.42,15.15 C58.4067963,16.6856215 57.7840806,18.1530963 56.6888556,19.2295674 C55.5936306,20.3060385 54.1156205,20.9033182 52.58,20.89 L52.63,20.94 Z" id="_Compound_Path_20"></path>
                    <polyline id="_Path_538" points="0.01 29.76 0.01 129.98 178.74 129.98 178.74 29.76"></polyline>
                    <path d="M66.54,15.11 L138.58,15.11" id="_Path_539"></path>
                    <path d="M153.96,9.32 L164.63,19.99" id="_Path_540"></path>
                    <path d="M164.63,9.32 L153.96,19.99" id="_Path_541"></path>
                </g>
                <g id="_Group_112" transform="translate(63.000000, 46.000000)">
                    <path d="M15.57,19.35 L37.18,40.96" id="_Path_542"></path>
                    <path d="M37.18,19.35 L15.57,40.96" id="_Path_543"></path>
                    <rect id="_Path_544" x="0.33" y="0.17" width="52.1" height="59.97"></rect>
                </g>
            </g>
        </g>
    </g>
</svg>