<?xml version="1.0" encoding="UTF-8"?>
<svg width="60px" height="78px" viewBox="0 0 60 78" version="1.1" xmlns="http://www.w3.org/2000/svg" xmlns:xlink="http://www.w3.org/1999/xlink">
    <!-- Generator: Sketch 52.5 (67469) - http://www.bohemiancoding.com/sketch -->
    <title>_Group_86</title>
    <desc>Created with Sketch.</desc>
    <g id="Page-1" stroke="none" stroke-width="1" fill="none" fill-rule="evenodd">
        <g id="_Group_86" transform="translate(2.000000, 2.000000)">
            <path d="M27.45,0.17 C10.62,0.62 1.31,15.17 0.36,16.73 C0.47,29.06 0.96,57.55 23.71,72.27 C26.3495152,74.0203737 29.7804848,74.0203737 32.42,72.27 C55.51,57.34 55.66,29.02 55.74,16.14 C54.86,14.77 44.85,-0.28 27.45,0.17 Z M41.62,46.5 C41.62,47.6045695 40.7245695,48.5 39.62,48.5 L19.62,48.5 C18.5154305,48.5 17.62,47.6045695 17.62,46.5 L17.62,32.84 C17.62,31.7354305 18.5154305,30.84 19.62,30.84 L39.62,30.84 C40.7245695,30.84 41.62,31.7354305 41.62,32.84 L41.62,46.5 Z" id="_Compound_Path_12" fill="#9ABFE2" fill-rule="nonzero"></path>
            <rect id="_Rectangle_33" stroke="#3B6D96" stroke-width="3" stroke-linecap="round" stroke-linejoin="round" x="17.6" y="30.86" width="24.02" height="17.63" rx="3.21"></rect>
            <path d="M19.99,30.84 L19.99,28.44 C20.2245412,23.2974469 24.4621012,19.2487482 29.61,19.2487482 C34.7578988,19.2487482 38.9954588,23.2974469 39.23,28.44 L39.23,30.84" id="_Path_376" stroke="#3B6D96" stroke-width="3" stroke-linecap="round" stroke-linejoin="round"></path>
            <path d="M26.51,40.55 L26.51,39.4 C26.5360841,38.6042003 26.8774566,37.8514127 27.4589184,37.3074645 C28.0403802,36.7635163 28.8142298,36.4730317 29.61,36.5 C31.2633562,36.4494825 32.645634,37.7467659 32.7,39.4 L32.7,40.55" id="_Path_377" stroke="#3B6D96" stroke-width="3" stroke-linecap="round" stroke-linejoin="round"></path>
            <path d="M55.74,16.14 C55.66,29.03 55.51,57.34 32.43,72.27 C29.7865767,74.0194693 26.3534233,74.0194693 23.71,72.27 C0.96,57.55 0.47,29.06 0.36,16.73 C1.36,15.18 10.62,0.61 27.45,0.17 C44.85,-0.28 54.86,14.77 55.74,16.14 Z" id="_Path_378" stroke="#3B6D96" stroke-width="3" stroke-linecap="round" stroke-linejoin="round"></path>
        </g>
    </g>
</svg>