<?xml version="1.0" encoding="UTF-8"?>
<svg width="152px" height="144px" viewBox="0 0 152 144" version="1.1" xmlns="http://www.w3.org/2000/svg" xmlns:xlink="http://www.w3.org/1999/xlink">
    <!-- Generator: Sketch 52.5 (67469) - http://www.bohemiancoding.com/sketch -->
    <title>_Group_330</title>
    <desc>Created with Sketch.</desc>
    <g id="Page-1" stroke="none" stroke-width="1" fill="none" fill-rule="evenodd">
        <g id="_Group_330" transform="translate(2.000000, 2.000000)">
            <g id="_Group_331" stroke-linecap="round" stroke-linejoin="round" stroke="#3B6D96" stroke-width="3">
                <g id="_Group_332" transform="translate(0.000000, 62.000000)">
                    <path d="M21.74,0.91 L9.52,0.91 C4.29376909,0.915518726 0.0599970862,5.15376617 0.06,10.38 L0.06,59.23 C0.0655116975,64.452329 4.29767099,68.6844883 9.52,68.69 L26.52,68.69" id="_Path_1375"></path>
                    <path d="M49.81,68.69 L97.29,68.69 C102.516234,68.6900029 106.754481,64.4562309 106.76,59.23 L106.76,29.13" id="_Path_1376"></path>
                    <path d="M49.8,68.69 L33.33,78.24" id="_Path_1377"></path>
                    <path d="M26.55,68.69 L23.85,77.34" id="_Path_1378"></path>
                </g>
                <g id="_Group_333" transform="translate(41.000000, 0.000000)">
                    <g id="_Group_334">
                        <path d="M43.69,68.25 L57.52,68.25" id="_Path_1379"></path>
                        <path d="M80.77,68.25 L97.77,68.25 C103.000137,68.25 107.24,64.0101366 107.24,58.78 L107.24,9.93 C107.234481,4.70376909 102.996234,0.469997086 97.77,0.47 L10.06,0.47 C4.83767099,0.475511697 0.605511697,4.70767099 0.6,9.93 L0.6,33.5" id="_Path_1380"></path>
                        <path d="M57.52,68.24 L73.99,77.8" id="_Path_1381"></path>
                        <path d="M80.77,68.24 L83.48,76.9" id="_Path_1382"></path>
                    </g>
                    <path d="M29.13,30.07 L78.7,30.07" id="_Path_1383"></path>
                    <path d="M38.72,42.1 L78.7,42.1" id="_Path_1384"></path>
                </g>
                <path d="M28.13,92.31 L77.7,92.31" id="_Path_1385"></path>
                <path d="M28.13,104.34 L77.7,104.34" id="_Path_1386"></path>
                <g id="_Group_335" transform="translate(42.000000, 37.000000)">
                    <g id="_Group_336">
                        <rect id="_Rectangle_93" x="0.45" y="16.49" width="32.6" height="25.03" rx="3.21"></rect>
                        <path d="M3.7,16.5 L3.7,13.1 C3.8956751,6.03060228 9.68289474,0.401351629 16.755,0.401351629 C23.8271053,0.401351629 29.6143249,6.03060228 29.81,13.1 L29.81,16.5" id="_Path_1387"></path>
                    </g>
                    <path d="M12.55,30.25 L12.55,28.62 C12.5605578,27.5166833 13.0090003,26.4627555 13.7966643,25.6900947 C14.5843282,24.9174338 15.6466843,24.4893402 16.75,24.5 C17.8533157,24.4893402 18.9156718,24.9174338 19.7033357,25.6900947 C20.4909997,26.4627555 20.9394422,27.5166833 20.95,28.62 L20.95,30.25" id="_Path_1388"></path>
                </g>
            </g>
            <path d="M46.72,25.65 L46.72,12.58 C46.7199982,10.581186 47.5147078,8.66438402 48.9290203,7.25194728 C50.3433328,5.83951054 52.2611878,5.04734553 54.26,5.05 L136.88,5.05 C138.569991,5.05 139.94,6.42000867 139.94,8.11 C139.94,9.79999133 138.569991,11.17 136.88,11.17 L58.79,11.17 C55.6695912,11.17 53.14,13.6995912 53.14,16.82 L53.14,25.65 C53.14,27.422834 51.702834,28.86 49.93,28.86 C48.157166,28.86 46.72,27.422834 46.72,25.65 Z" id="_Path_1389" fill="#9ABFE2"></path>
            <path d="M102.06,105.72 L102.06,118.78 C102.054491,122.941943 98.681943,126.314491 94.52,126.32 L11.9,126.32 C10.2100087,126.32 8.84,124.949991 8.84,123.26 C8.84,121.570009 10.2100087,120.2 11.9,120.2 L89.99,120.2 C91.4902074,120.200002 92.9288245,119.603364 93.988693,118.541619 C95.0485615,117.479875 95.6426552,116.040205 95.64,114.54 L95.64,105.72 C95.64,103.947166 97.077166,102.51 98.85,102.51 C100.622834,102.51 102.06,103.947166 102.06,105.72 Z" id="_Path_1390" fill="#9ABFE2"></path>
        </g>
    </g>
</svg>