<?xml version="1.0" encoding="UTF-8"?>
<svg width="180px" height="161px" viewBox="0 0 180 161" version="1.1" xmlns="http://www.w3.org/2000/svg" xmlns:xlink="http://www.w3.org/1999/xlink">
    <!-- Generator: Sketch 52.5 (67469) - http://www.bohemiancoding.com/sketch -->
    <title>_Group_131</title>
    <desc>Created with Sketch.</desc>
    <g id="Page-1" stroke="none" stroke-width="1" fill="none" fill-rule="evenodd">
        <g id="_Group_131" transform="translate(1.000000, 2.000000)">
            <g id="_Group_132" stroke-linecap="round" stroke-linejoin="round" transform="translate(74.000000, 74.000000)" stroke="#3B6D96" stroke-width="3">
                <g id="_Group_133">
                    <rect id="_Rectangle_37" x="0.12" y="15.43" width="29.97" height="23.44" rx="3.21"></rect>
                    <path d="M3.11,15.41 L3.11,12.22 C3.11,5.592583 8.482583,0.22 15.11,0.22 C21.737417,0.22 27.11,5.592583 27.11,12.22 L27.11,15.41" id="_Path_594"></path>
                </g>
                <path d="M11.25,28.32 L11.25,26.8 C11.25,24.6681809 12.9781809,22.94 15.11,22.94 C17.2418191,22.94 18.97,24.6681809 18.97,26.8 L18.97,28.32" id="_Path_595"></path>
            </g>
            <g id="_Group_134">
                <path d="M23.74,144.82 C19.2855358,144.844297 15.2561588,142.179694 13.5346468,138.071259 C11.8131348,133.962824 12.7393803,129.22172 15.8805834,126.063289 C19.0217864,122.904858 23.7577529,121.952696 27.8755421,123.651711 C31.9933314,125.350727 34.6799337,129.36547 34.68,133.82 C34.68009,139.871778 29.7916877,144.78699 23.74,144.82 Z" id="_Path_596" fill="#E0C79B"></path>
                <path d="M154.48,144.95 C149.998558,144.95 145.958388,142.250445 144.243415,138.110132 C142.528441,133.96982 143.476399,129.204115 146.645257,126.035257 C149.814115,122.866399 154.57982,121.918441 158.720132,123.633415 C162.860445,125.348388 165.56,129.388558 165.56,133.87 C165.548992,139.98475 160.59475,144.938992 154.48,144.95 Z" id="_Path_597" fill="#E0C79B"></path>
                <path d="M89.11,33.42 C83.244736,33.42 78.49,28.665264 78.49,22.8 C78.49,16.934736 83.244736,12.18 89.11,12.18 C94.975264,12.18 99.73,16.934736 99.73,22.8 C99.7244871,28.662979 94.972979,33.4144871 89.11,33.42 Z" id="_Path_598" fill="#E0C79B"></path>
                <path d="M82.56,44.63 L48.24,103.21" id="_Path_599" stroke="#3B6D96" stroke-width="3" stroke-linecap="round" stroke-linejoin="round"></path>
                <path d="M30.45,111.42 L68.98,45.59" id="_Path_600" stroke="#3B6D96" stroke-width="3" stroke-linecap="round" stroke-linejoin="round"></path>
                <path d="M46.51,128.27 L118.61,128.27" id="_Path_601" stroke="#3B6D96" stroke-width="3" stroke-linecap="round" stroke-linejoin="round"></path>
                <path d="M131.7,139.47 L68.21,139.47" id="_Path_602" stroke="#3B6D96" stroke-width="3" stroke-linecap="round" stroke-linejoin="round"></path>
                <path d="M114.93,55.64 L138.1,95" id="_Path_603" stroke="#3B6D96" stroke-width="3" stroke-linecap="round" stroke-linejoin="round"></path>
                <path d="M138.1,117.08 L97.61,48.42" id="_Path_604" stroke="#3B6D96" stroke-width="3" stroke-linecap="round" stroke-linejoin="round"></path>
                <path d="M0.96,133.87 C0.96,121.288953 11.1589534,111.09 23.74,111.09 C36.3210466,111.09 46.52,121.288953 46.52,133.87 C46.52,146.451047 36.3210466,156.65 23.74,156.65" id="_Path_605" stroke="#3B6D96" stroke-width="3" stroke-linecap="round" stroke-linejoin="round"></path>
                <circle id="_Path_606" stroke="#3B6D96" stroke-width="3" stroke-linecap="round" stroke-linejoin="round" transform="translate(23.800446, 133.799431) rotate(-9.220000) translate(-23.800446, -133.799431) " cx="23.8004461" cy="133.799431" r="14.38"></circle>
                <path d="M177.26,133.87 C177.26,146.451047 167.061047,156.65 154.48,156.65 C141.898953,156.65 131.7,146.451047 131.7,133.87 C131.7,121.288953 141.898953,111.09 154.48,111.09" id="_Path_607" stroke="#3B6D96" stroke-width="3" stroke-linecap="round" stroke-linejoin="round"></path>
                <circle id="_Path_608" stroke="#3B6D96" stroke-width="3" stroke-linecap="round" stroke-linejoin="round" transform="translate(154.361094, 133.730496) rotate(-84.350000) translate(-154.361094, -133.730496) " cx="154.361094" cy="133.730496" r="14.38"></circle>
                <path d="M89.11,45.58 C76.5289534,45.58 66.33,35.3810466 66.33,22.8 C66.33,10.2189534 76.5289534,0.02 89.11,0.02 C101.691047,0.02 111.89,10.2189534 111.89,22.8" id="_Path_609" stroke="#3B6D96" stroke-width="3" stroke-linecap="round" stroke-linejoin="round"></path>
                <circle id="_Path_610" stroke="#3B6D96" stroke-width="3" stroke-linecap="round" stroke-linejoin="round" cx="89.11" cy="22.8" r="14.38"></circle>
            </g>
        </g>
    </g>
</svg>