<?xml version="1.0" encoding="UTF-8"?>
<svg width="174px" height="133px" viewBox="0 0 174 133" version="1.1" xmlns="http://www.w3.org/2000/svg" xmlns:xlink="http://www.w3.org/1999/xlink">
    <!-- Generator: Sketch 52.5 (67469) - http://www.bohemiancoding.com/sketch -->
    <title>_Group_62</title>
    <desc>Created with Sketch.</desc>
    <g id="Page-1" stroke="none" stroke-width="1" fill="none" fill-rule="evenodd">
        <g id="_Group_62" transform="translate(2.000000, 2.000000)">
            <g id="_Group_63" stroke-linecap="round" stroke-linejoin="round" transform="translate(15.000000, 0.000000)" stroke="#3B6D96" stroke-width="3">
                <g id="_Group_64" transform="translate(17.000000, 0.000000)">
                    <polyline id="_Path_312" points="0.64 5.32 5.27 0.51 5.27 16.31"></polyline>
                    <path d="M1.75,16.31 L8.5,16.31" id="_Path_313"></path>
                </g>
                <g id="_Group_65" transform="translate(49.000000, 0.000000)">
                    <polyline id="_Path_314" points="0.34 5.32 4.97 0.51 4.97 8.41"></polyline>
                </g>
                <rect id="_Rectangle_18" x="32.2" y="0.51" width="9.78" height="15.8" rx="0.79"></rect>
                <rect id="_Rectangle_19" x="0.43" y="0.51" width="9.78" height="15.8" rx="0.79"></rect>
                <g id="_Group_66" transform="translate(145.000000, 0.000000)">
                    <polyline id="_Path_315" points="0.59 5.32 5.22 0.51 5.22 16.31"></polyline>
                    <path d="M1.7,16.31 L8.45,16.31" id="_Path_316"></path>
                </g>
                <rect id="_Rectangle_20" x="128.37" y="0.51" width="9.78" height="15.8" rx="0.79"></rect>
                <g id="_Group_67" transform="translate(80.000000, 0.000000)">
                    <polyline id="_Path_317" points="0.64 5.32 5.27 0.51 5.27 7.23"></polyline>
                </g>
                <g id="_Group_68" transform="translate(112.000000, 0.000000)">
                    <polyline id="_Path_318" points="0.33 5.32 4.96 0.51 4.96 16.31"></polyline>
                    <path d="M1.44,16.31 L8.19,16.31" id="_Path_319"></path>
                </g>
                <path d="M95.2,10.41 L95.2,1.41 C95.2,0.896375183 95.6163752,0.48 96.13,0.48 L104.06,0.48 C104.573625,0.48 104.99,0.896375183 104.99,1.41 L104.99,15.35 C104.99,15.8636248 104.573625,16.28 104.06,16.28 L100.81,16.28" id="_Path_320"></path>
                <path d="M63.9499456,5.84 L63.95,1.44 C63.9473289,1.19427281 64.0430767,0.957689983 64.2159005,0.782987635 C64.3887244,0.608285286 64.6242583,0.509985483 64.87,0.51 L72.8,0.51 C73.3136248,0.51 73.73,0.926375183 73.73,1.44 L73.73,5.62" id="_Path_321"></path>
            </g>
            <g id="_Group_69" stroke-linecap="round" stroke-linejoin="round" transform="translate(17.000000, 29.000000)" stroke="#3B6D96" stroke-width="3">
                <polyline id="_Path_322" points="0.35 5.49 4.98 0.68 4.98 16.48"></polyline>
                <path d="M1.46,16.48 L8.21,16.48" id="_Path_323"></path>
            </g>
            <path d="M37.64,45.5 L32.84,45.5 C32.3263752,45.5 31.91,45.0836248 31.91,44.57 L31.91,30.63 C31.91,30.3833487 32.0079819,30.1467995 32.1823907,29.9723907 C32.3567995,29.7979819 32.5933487,29.7 32.84,29.7 L40.76,29.7" id="_Path_324" stroke="#3B6D96" stroke-width="3" stroke-linecap="round" stroke-linejoin="round"></path>
            <rect id="_Rectangle_21" stroke="#3B6D96" stroke-width="3" stroke-linecap="round" stroke-linejoin="round" x="0.13" y="29.68" width="9.78" height="15.8" rx="0.79"></rect>
            <g id="_Group_70" stroke-linecap="round" stroke-linejoin="round" transform="translate(148.000000, 29.000000)" stroke="#3B6D96" stroke-width="3">
                <polyline id="_Path_325" points="0.05 5.49 4.68 0.68 4.68 16.48"></polyline>
                <path d="M1.16,16.48 L7.91,16.48" id="_Path_326"></path>
            </g>
            <path d="M130.84,31.81 L130.84,30.61 C130.84,30.3633487 130.937982,30.1267995 131.112391,29.9523907 C131.2868,29.7779819 131.523349,29.68 131.77,29.68 L139.69,29.68 C139.936651,29.68 140.1732,29.7779819 140.347609,29.9523907 C140.522018,30.1267995 140.62,30.3633487 140.62,30.61 L140.62,44.55 C140.62,45.0636248 140.203625,45.48 139.69,45.48 L135.99,45.48" id="_Path_327" stroke="#3B6D96" stroke-width="3" stroke-linecap="round" stroke-linejoin="round"></path>
            <g id="_Group_71" stroke-linecap="round" stroke-linejoin="round" transform="translate(31.000000, 57.000000)" stroke="#3B6D96" stroke-width="3">
                <polyline id="_Path_328" points="0.81 5.66 5.44 0.86 5.44 16.65"></polyline>
                <path d="M1.92,16.65 L8.67,16.65" id="_Path_329"></path>
            </g>
            <rect id="_Rectangle_22" stroke="#3B6D96" stroke-width="3" stroke-linecap="round" stroke-linejoin="round" x="14.59" y="57.86" width="9.78" height="15.8" rx="0.79"></rect>
            <g id="_Group_72" stroke-linecap="round" stroke-linejoin="round" transform="translate(162.000000, 57.000000)" stroke="#3B6D96" stroke-width="3">
                <polyline id="_Path_330" points="0.51 5.66 5.15 0.86 5.15 16.65"></polyline>
                <path d="M1.62,16.65 L8.37,16.65" id="_Path_331"></path>
            </g>
            <rect id="_Rectangle_23" stroke="#3B6D96" stroke-width="3" stroke-linecap="round" stroke-linejoin="round" x="145.3" y="57.86" width="9.78" height="15.8" rx="0.79"></rect>
            <g id="_Group_73" stroke-linecap="round" stroke-linejoin="round" transform="translate(130.000000, 57.000000)" stroke="#3B6D96" stroke-width="3">
                <polyline id="_Path_332" points="2.65 2.14 3.89 0.86 3.89 16.65"></polyline>
                <path d="M0.36,16.65 L7.11,16.65" id="_Path_333"></path>
            </g>
            <g id="_Group_74" stroke-linecap="round" stroke-linejoin="round" transform="translate(17.000000, 113.000000)" stroke="#3B6D96" stroke-width="3">
                <g id="_Group_75" transform="translate(17.000000, 0.000000)">
                    <polyline id="_Path_334" points="0.57 5.13 5.2 0.32 5.2 16.12"></polyline>
                    <path d="M1.68,16.12 L8.42,16.12" id="_Path_335"></path>
                </g>
                <g id="_Group_76" transform="translate(50.000000, 8.000000)">
                    <path d="M3.89,0.22 L3.89,8.12" id="_Path_336"></path>
                    <path d="M0.37,8.12 L7.12,8.12" id="_Path_337"></path>
                </g>
                <rect id="_Rectangle_24" x="32.13" y="0.32" width="9.78" height="15.8" rx="0.79"></rect>
                <rect id="_Rectangle_25" x="0.35" y="0.32" width="9.78" height="15.8" rx="0.79"></rect>
                <g id="_Group_77" transform="translate(145.000000, 0.000000)">
                    <polyline id="_Path_338" points="0.51 5.13 5.15 0.32 5.15 16.12"></polyline>
                    <path d="M1.62,16.12 L8.37,16.12" id="_Path_339"></path>
                </g>
                <rect id="_Rectangle_26" x="128.3" y="0.32" width="9.78" height="15.8" rx="0.79"></rect>
                <g id="_Group_78" transform="translate(81.000000, 6.000000)">
                    <path d="M4.19,0.68 L4.19,10.12" id="_Path_340"></path>
                    <path d="M0.67,10.12 L7.42,10.12" id="_Path_341"></path>
                </g>
                <g id="_Group_79" transform="translate(112.000000, 0.000000)">
                    <polyline id="_Path_342" points="0.25 5.13 4.89 0.32 4.89 16.12"></polyline>
                    <path d="M1.36,16.12 L8.11,16.12" id="_Path_343"></path>
                </g>
                <rect id="_Rectangle_27" x="95.12" y="0.32" width="9.78" height="15.8" rx="0.79"></rect>
                <path d="M73.65,12.79 L73.65,15.19 C73.65,15.7036248 73.2336248,16.12 72.72,16.12 L64.8,16.12 C64.2863752,16.12 63.87,15.7036248 63.87,15.19 L63.87,12.97" id="_Path_344"></path>
            </g>
            <g id="_Group_80" stroke-linecap="round" stroke-linejoin="round" transform="translate(0.000000, 85.000000)" stroke="#3B6D96" stroke-width="3">
                <g id="_Group_81" transform="translate(17.000000, 0.000000)">
                    <polyline id="_Path_345" points="0.35 5.39 4.98 0.59 4.98 16.39"></polyline>
                    <path d="M1.46,16.39 L8.21,16.39" id="_Path_346"></path>
                </g>
                <rect id="_Rectangle_28" x="31.91" y="0.59" width="9.78" height="15.8" rx="0.79"></rect>
                <rect id="_Rectangle_29" x="0.13" y="0.59" width="9.78" height="15.8" rx="0.79"></rect>
                <g id="_Group_82" transform="translate(145.000000, 0.000000)">
                    <polyline id="_Path_347" points="0.3 5.39 4.93 0.59 4.93 16.39"></polyline>
                    <path d="M1.41,16.39 L8.16,16.39" id="_Path_348"></path>
                </g>
                <rect id="_Rectangle_30" x="128.08" y="0.59" width="9.78" height="15.8" rx="0.79"></rect>
            </g>
            <path d="M59.94,103.68 C42.56,81.68 42.29,52.56 42.17,40.09 L42.17,37.58 L43.46,35.48 C45.95,31.48 59.6,11.27 84.33,10.62 L85.5,10.62 C98.77,10.62 109.08,16.5 116.12,22.46" id="_Path_349" stroke="#3B6D96" stroke-width="3" stroke-linecap="round" stroke-linejoin="round"></path>
            <path d="M128.36,36.73 L128.36,39.31 C128.25,56.47 128.02,96.58 94.85,118.03 C89.0547469,121.85682 81.5352531,121.85682 75.74,118.03" id="_Path_350" stroke="#3B6D96" stroke-width="3" stroke-linecap="round" stroke-linejoin="round"></path>
            <path d="M119.49,40.13 C119.39,56.05 119.2,91.05 90.67,109.51 C87.4010051,111.669126 83.1589949,111.669126 79.89,109.51 C51.78,91.32 51.17,56.1 51.03,40.85 C52.21,38.93 63.71,20.93 84.52,20.39 C106.06,19.83 118.4,38.43 119.49,40.13 Z" id="_Path_351" stroke="#3B6D96" stroke-width="3" stroke-linecap="round" stroke-linejoin="round"></path>
            <path d="M85.47,25.37 L84.65,25.37 C68.75,25.79 58.89,38.18 56.04,42.31 C56.21,57.31 57.36,88.97 82.61,105.31 C83.4013506,105.837102 84.329206,106.122061 85.28,106.13 C86.2332382,106.117745 87.1631058,105.833233 87.96,105.31 C113.36,88.87 114.35,57.84 114.48,41.66 C111.53,37.55 101.43,25.37 85.47,25.37 Z M99.06,75.74 C99.06,77.512834 97.622834,78.95 95.85,78.95 L77.45,78.95 C75.677166,78.95 74.24,77.512834 74.24,75.74 L74.24,62.74 C74.24,60.967166 75.677166,59.53 77.45,59.53 L95.85,59.53 C97.622834,59.53 99.06,60.967166 99.06,62.74 L99.06,75.74 Z" id="_Compound_Path_10" fill="#E0C79B" fill-rule="nonzero"></path>
            <rect id="_Rectangle_31" stroke="#3B6D96" stroke-width="3" stroke-linecap="round" stroke-linejoin="round" x="74.2" y="59.54" width="24.82" height="19.41" rx="3.21"></rect>
            <path d="M76.67,59.5 L76.67,56.86 C76.67,51.3702896 81.1202896,46.92 86.61,46.92 C92.0997104,46.92 96.55,51.3702896 96.55,56.86 L96.55,59.5" id="_Path_352" stroke="#3B6D96" stroke-width="3" stroke-linecap="round" stroke-linejoin="round"></path>
            <path d="M83.4199843,70.21 L83.42,68.95 C83.4173424,68.1022281 83.7522571,67.2882677 84.3507865,66.6878621 C84.9493158,66.0874565 85.7622239,65.7499958 86.61,65.75 C88.3773112,65.75 89.81,67.1826888 89.81,68.95 L89.81,70.21" id="_Path_353" stroke="#3B6D96" stroke-width="3" stroke-linecap="round" stroke-linejoin="round"></path>
        </g>
    </g>
</svg>