<?xml version="1.0" encoding="UTF-8"?>
<svg width="200px" height="136px" viewBox="0 0 200 136" version="1.1" xmlns="http://www.w3.org/2000/svg" xmlns:xlink="http://www.w3.org/1999/xlink">
    <!-- Generator: Sketch 52.5 (67469) - http://www.bohemiancoding.com/sketch -->
    <title>_Group_88</title>
    <desc>Created with Sketch.</desc>
    <g id="Page-1" stroke="none" stroke-width="1" fill="none" fill-rule="evenodd">
        <g id="_Group_88" transform="translate(2.000000, 2.000000)">
            <path d="M30.18,9.64 L30.18,51.03 C30.1799824,56.0327016 32.1707138,60.8297788 35.7128452,64.3625296 C39.2549767,67.8952804 44.057316,69.8732839 49.06,69.86 L82.28,69.86 C86.1459932,69.86 89.28,72.9940068 89.28,76.86 L26.28,76.86 C24.3801405,76.86 22.84,75.3198595 22.84,73.42 L22.84,14.03 C22.845514,11.6038533 24.813847,9.63999373 27.24,9.64 L30.18,9.64 Z" id="_Path_382" fill="#E0C79B"></path>
            <g id="_Group_89" stroke-linecap="round" stroke-linejoin="round" stroke="#3B6D96" stroke-width="3">
                <g id="_Group_90">
                    <g id="_Group_91" transform="translate(12.000000, 0.000000)">
                        <polyline id="_Path_383" points="106.69 0.46 0.72 0.46 0.72 86.03 81.13 86.03"></polyline>
                        <path d="M76.69,76.86 L14.9,76.86 C12.6522011,76.86 10.83,75.0377989 10.83,72.79 L10.83,13.7 C10.8355133,11.4561073 12.6561005,9.63999323 14.9,9.64 L93.2,9.64" id="_Path_384"></path>
                    </g>
                    <polyline id="_Path_385" points="12.72 86.03 0 124.07 0 131.94 73.77 131.94"></polyline>
                    <path d="M0,124.07 L84.66,124.07" id="_Path_386"></path>
                    <path d="M145.07,131.94 L73.77,131.94" id="_Path_387"></path>
                    <path d="M118.69,124.07 L84.66,124.07" id="_Path_388"></path>
                </g>
                <g id="_Group_92" transform="translate(50.000000, 97.000000)">
                    <path d="M0.26,0.89 L5.11,0.89" id="_Path_389"></path>
                    <path d="M17.77,0.89 L22.61,0.89" id="_Path_390"></path>
                    <path d="M35.27,0.89 L40.12,0.89" id="_Path_391"></path>
                    <path d="M9.13,11.3 L13.98,11.3" id="_Path_392"></path>
                    <path d="M26.02,11.3 L30.86,11.3" id="_Path_393"></path>
                    <path d="M45.53,11.3 L50.37,11.3" id="_Path_394"></path>
                </g>
                <g id="_Group_93" transform="translate(93.000000, 0.000000)">
                    <path d="M21.35,111.4 C0.62,85.14 0.3,50.4 0.16,35.54 L0.16,32.54 L1.7,30.04 C4.7,25.22 20.96,1.16 50.45,0.39 L51.85,0.39 C67.68,0.39 79.97,7.39 88.37,14.52" id="_Path_395"></path>
                    <path d="M102.97,31.5 L102.97,34.57 C102.85,55.04 102.56,102.88 62.97,128.48 C59.5793278,130.695521 55.6202978,131.88323 51.57,131.9" id="_Path_396"></path>
                </g>
            </g>
            <g id="_Group_94" transform="translate(101.000000, 7.000000)">
                <path d="M42.65,1.01 C16.3,1.71 1.72,24.5 0.22,26.94 C0.41,46.25 1.17,90.86 36.78,113.94 C40.9174156,116.680262 46.2925844,116.680262 50.43,113.94 C86.58,90.56 86.82,46.23 86.94,26.06 C85.56,23.88 69.9,0.31 42.65,1.01 Z M64.83,73.55 C64.8244897,75.263699 63.4337079,76.6500089 61.72,76.65 L30.32,76.65 C28.6079173,76.65 27.22,75.2620827 27.22,73.55 L27.22,52.16 C27.22,50.4479173 28.6079173,49.06 30.32,49.06 L61.72,49.06 C63.4337079,49.0599911 64.8244897,50.446301 64.83,52.16 L64.83,73.55 Z" id="_Compound_Path_14" fill="#9ABFE2" fill-rule="nonzero"></path>
                <rect id="_Rectangle_35" stroke="#3B6D96" stroke-width="3" stroke-linecap="round" stroke-linejoin="round" x="27.22" y="49.06" width="37.61" height="27.6" rx="3.21"></rect>
                <path d="M30.96,49.03 L30.96,45.28 C30.96,37.39 37.72,30.97 46.02,30.97 C54.32,30.97 61.08,37.39 61.08,45.28 L61.08,49.03" id="_Path_397" stroke="#3B6D96" stroke-width="3" stroke-linecap="round" stroke-linejoin="round"></path>
                <path d="M41.18,64.24 L41.18,62.44 C41.2669705,59.8516531 43.4313855,57.8213961 46.02,57.9 C48.6124633,57.815761 50.7830676,59.8476256 50.87,62.44 L50.87,64.24" id="_Path_398" stroke="#3B6D96" stroke-width="3" stroke-linecap="round" stroke-linejoin="round"></path>
                <path d="M86.94,26.02 C86.82,46.19 86.58,90.52 50.44,113.9 C46.2986784,116.639362 40.9213216,116.639362 36.78,113.9 C1.17,90.9 0.41,46.25 0.23,26.9 C1.72,24.47 16.29,1.67 42.64,0.98 C69.9,0.31 85.56,23.88 86.94,26.02 Z" id="_Path_399" stroke="#3B6D96" stroke-width="3" stroke-linecap="round" stroke-linejoin="round"></path>
            </g>
        </g>
    </g>
</svg>