<?xml version="1.0" encoding="UTF-8"?>
<svg width="182px" height="138px" viewBox="0 0 182 138" version="1.1" xmlns="http://www.w3.org/2000/svg" xmlns:xlink="http://www.w3.org/1999/xlink">
    <!-- Generator: Sketch 52.5 (67469) - http://www.bohemiancoding.com/sketch -->
    <title>_Group_305</title>
    <desc>Created with Sketch.</desc>
    <g id="Page-1" stroke="none" stroke-width="1" fill="none" fill-rule="evenodd">
        <g id="_Group_305" transform="translate(1.000000, 1.000000)">
            <g id="_Group_306">
                <path d="M19.22,44.5 C21.7384185,44.5 23.78,46.5415815 23.78,49.06 C23.78,51.5784185 21.7384185,53.62 19.22,53.62 C16.7015815,53.62 14.66,51.5784185 14.66,49.06 C14.66,46.5415815 16.7015815,44.5 19.22,44.5 Z" id="_Path_1287" fill="#E0C79B"></path>
                <circle id="_Path_1288" fill="#E0C79B" transform="translate(51.162273, 38.009125) rotate(-7.640000) translate(-51.162273, -38.009125) " cx="51.1622726" cy="38.0091245" r="4.56"></circle>
                <circle id="_Path_1289" fill="#E0C79B" cx="112.82" cy="28.85" r="4.56"></circle>
                <circle id="_Path_1290" fill="#E0C79B" cx="89.72" cy="7.8" r="7.3"></circle>
                <polyline id="_Path_1291" stroke="#3B6D96" stroke-width="3" stroke-linecap="round" stroke-linejoin="round" points="82.9 86.11 82.9 69.09 73.89 63.18 73.89 51.21"></polyline>
                <polyline id="_Path_1292" stroke="#3B6D96" stroke-width="3" stroke-linecap="round" stroke-linejoin="round" points="99.7 86.11 99.7 45.46 89.72 37.57 89.72 15.11"></polyline>
                <polyline id="_Path_1293" stroke="#3B6D96" stroke-width="3" stroke-linecap="round" stroke-linejoin="round" points="29.53 86.11 29.53 67.8 19.49 67.8 19.49 53.61"></polyline>
                <path d="M19.22,44.5 C21.7384185,44.5 23.78,46.5415815 23.78,49.06 C23.78,51.5784185 21.7384185,53.62 19.22,53.62 C16.7015815,53.62 14.66,51.5784185 14.66,49.06 C14.66,46.5415815 16.7015815,44.5 19.22,44.5 Z" id="_Path_1294" stroke="#3B6D96" stroke-width="3" stroke-linecap="round" stroke-linejoin="round"></path>
                <circle id="_Path_1295" stroke="#3B6D96" stroke-width="3" stroke-linecap="round" stroke-linejoin="round" transform="translate(51.162273, 38.009125) rotate(-7.640000) translate(-51.162273, -38.009125) " cx="51.1622726" cy="38.0091245" r="4.56"></circle>
                <circle id="_Path_1296" stroke="#3B6D96" stroke-width="3" stroke-linecap="round" stroke-linejoin="round" cx="112.82" cy="28.85" r="4.56"></circle>
                <circle id="_Path_1297" stroke="#3B6D96" stroke-width="3" stroke-linecap="round" stroke-linejoin="round" cx="89.72" cy="7.8" r="7.3"></circle>
                <g id="_Group_307" stroke-linecap="round" stroke-linejoin="round" transform="translate(0.000000, 61.000000)" stroke="#3B6D96" stroke-width="3">
                    <path d="M106.82,48.89 C112.540558,66.040821 129.839694,76.5258823 147.691148,73.6621321 C165.542601,70.7983819 178.694043,55.4284047 178.762903,37.3488388 C178.831763,19.2692729 165.79778,3.79956281 147.968659,0.799915411 C130.139538,-2.19973198 112.761036,8.15325196 106.91,25.26 L106.91,36.62 L63.43,36.62" id="_Path_1298"></path>
                    <path d="M106.63,25.1 L42.92,25.1 L42.92,31.16 L34.83,31.16 L34.83,25.1 L22.06,25.1 L22.06,31.16 L14.18,31.16 L14.18,25.1 L6.18,25.1 C3.06901997,25.1055159 0.54999511,27.6290151 0.55,30.74 L0.55,43.32 C0.54999511,46.4309849 3.06901997,48.9544841 6.18,48.96 L106.63,48.96 L106.63,46.96" id="_Path_1299"></path>
                    <path d="M145.06,25.76 C149.794991,23.2631378 155.613739,24.2289428 159.288184,28.1216163 C162.962629,32.0142898 163.591494,37.8790266 160.825904,42.4622533 C158.060314,47.0454799 152.57862,49.2230104 147.421895,47.7868185 C142.26517,46.3506266 138.69827,41.6529854 138.7,36.3" id="_Path_1300"></path>
                </g>
                <path d="M51.21,42.55 L51.21,86.11" id="_Path_1301" stroke="#3B6D96" stroke-width="3" stroke-linecap="round" stroke-linejoin="round"></path>
                <path d="M4.93,86.11 L4.93,71.53" id="_Path_1302" stroke="#3B6D96" stroke-width="3" stroke-linecap="round" stroke-linejoin="round"></path>
                <polyline id="_Path_1303" stroke="#3B6D96" stroke-width="3" stroke-linecap="round" stroke-linejoin="round" points="34.96 53.61 34.96 28.09 23.78 28.09 23.78 12.38"></polyline>
                <polyline id="_Path_1304" stroke="#3B6D96" stroke-width="3" stroke-linecap="round" stroke-linejoin="round" points="121.1 67.67 121.1 50.69 112.82 50.69 112.82 33.41"></polyline>
                <path d="M5.85,16.77 L5.85,33" id="_Path_1305" stroke="#3B6D96" stroke-width="3" stroke-linecap="round" stroke-linejoin="round"></path>
                <path d="M73.2,31.13 L73.2,15.96" id="_Path_1306" stroke="#3B6D96" stroke-width="3" stroke-linecap="round" stroke-linejoin="round"></path>
            </g>
            <path d="M141.41,65.65 C128.389395,65.6464529 116.631606,73.4377119 111.56,85.43 L111.56,110.63 C117.875828,125.572885 134.272228,133.538502 149.922626,129.267138 C165.573024,124.995775 175.649519,109.805079 173.498582,93.7254964 C171.347645,77.6459137 157.632806,65.6377422 141.41,65.63 L141.41,65.65 Z M150.65,113.21 C141.86315,113.21 134.74,106.08685 134.74,97.3 C134.74,88.5131496 141.86315,81.39 150.65,81.39 C159.43685,81.39 166.56,88.5131496 166.56,97.3 C166.554484,106.084564 159.434564,113.204484 150.65,113.21 Z" id="_Compound_Path_44" fill="#9ABFE2" fill-rule="nonzero"></path>
        </g>
    </g>
</svg>