<?xml version="1.0" encoding="UTF-8"?>
<svg width="161px" height="118px" viewBox="0 0 161 118" version="1.1" xmlns="http://www.w3.org/2000/svg" xmlns:xlink="http://www.w3.org/1999/xlink">
    <!-- Generator: Sketch 52.5 (67469) - http://www.bohemiancoding.com/sketch -->
    <title>_Group_154</title>
    <desc>Created with Sketch.</desc>
    <g id="Page-1" stroke="none" stroke-width="1" fill="none" fill-rule="evenodd">
        <g id="_Group_154" transform="translate(1.000000, 1.000000)">
            <path d="M0.94,0.6 L0.94,26.4 L158.3,26.4 L158.3,0.6 L0.94,0.6 Z M12.88,18.6 C10.8172426,18.6 8.95759748,17.3574249 8.16821438,15.4516855 C7.37883128,13.5459461 7.81516564,11.3523452 9.27375542,9.89375542 C10.7323452,8.43516564 12.9259461,7.99883128 14.8316855,8.78821438 C16.7374249,9.57759748 17.98,11.4372426 17.98,13.5 C17.98,16.3166522 15.6966522,18.6 12.88,18.6 Z M30.05,18.6 C27.2333478,18.6 24.95,16.3166522 24.95,13.5 C24.95,10.6833478 27.2333478,8.4 30.05,8.4 C32.8666522,8.4 35.15,10.6833478 35.15,13.5 C35.1445215,16.3104801 32.870464,18.5890054 30.06,18.6 L30.05,18.6 Z M47.22,18.6 C44.4033478,18.6 42.12,16.3166522 42.12,13.5 C42.12,10.6833478 44.4033478,8.4 47.22,8.4 C50.0366522,8.4 52.32,10.6833478 52.32,13.5 C52.32,14.8526041 51.7826801,16.1498091 50.8262446,17.1062446 C49.8698091,18.0626801 48.5726041,18.6 47.22,18.6 Z" id="_Compound_Path_27" fill="#9ABFE2" fill-rule="nonzero"></path>
            <g id="_Group_155" stroke-linecap="round" stroke-linejoin="round" stroke="#3B6D96" stroke-width="3">
                <g id="_Group_156" transform="translate(24.000000, 46.000000)">
                    <g id="_Group_157" transform="translate(40.000000, 0.000000)">
                        <g id="_Group_158" transform="translate(0.000000, 13.000000)">
                            <path d="M6.87,0.16 C3.3353776,0.16 0.47,3.0253776 0.47,6.56 L0.47,13.06 C0.470520605,14.129043 0.58449216,15.1950122 0.81,16.24 C1.30708736,18.6145111 2.40548442,20.821635 4,22.65 C6.23021332,25.2785495 9.4929603,26.807734 12.94,26.84 L16.94,26.84 C23.82,26.84 29.4,20.66 29.4,13.06 L29.4,6.56 C29.4,3.0253776 26.5346224,0.16 23,0.16 L6.87,0.16 Z" id="_Path_722"></path>
                        </g>
                        <path d="M4.55,13.16 C4.07,6.42 8.95,0.62 14.88,0.62 C20.81,0.62 25.7,6.42 25.21,13.16" id="_Path_723"></path>
                    </g>
                    <path d="M58.87,24.5 L57.67,27.09 L57.73,30.22 C57.7788747,31.5750246 56.8464705,32.7690083 55.52,33.05 L55.18,33.05 C54.9339738,33.0751384 54.6860262,33.0751384 54.44,33.05 C53.0779458,32.7929067 52.1111718,31.5748566 52.17,30.19 L52.26,27.09 L51.06,24.5 C50.4243529,23.179096 50.4933273,21.6274788 51.2436723,20.3681865 C51.9940174,19.1088943 53.3257675,18.3096978 54.79,18.24 L55.07,18.24 C56.5467932,18.2870276 57.8998144,19.0771147 58.666521,20.340163 C59.4332276,21.6032112 59.509777,23.1681535 58.87,24.5 Z" id="_Path_724"></path>
                    <polyline id="_Path_725" points="67.57 15.03 109.53 15.03 109.53 31.81 68.3 31.81"></polyline>
                    <path d="M88.55,15.03 L88.55,31.81" id="_Path_726"></path>
                    <path d="M76.02,47.74 L76.02,31.81" id="_Path_727"></path>
                    <polyline id="_Path_728" points="109.53 31.81 109.53 47.74 54.88 47.74"></polyline>
                    <path d="M29.02,31.81 L41.54,31.81" id="_Path_729"></path>
                    <polyline id="_Path_730" points="42.27 15.03 0.31 15.03 0.31 21.24"></polyline>
                    <path d="M21.29,15.03 L21.29,21.79" id="_Path_731"></path>
                    <path d="M33.82,47.74 L33.82,31.81" id="_Path_732"></path>
                    <path d="M28.47,47.74 L54.96,47.74" id="_Path_733"></path>
                </g>
                <g id="_Group_159">
                    <path d="M0.94,0.6 L0.94,26.4 L158.3,26.4 L158.3,0.6 L0.94,0.6 Z M12.88,18.6 C10.8172426,18.6 8.95759748,17.3574249 8.16821438,15.4516855 C7.37883128,13.5459461 7.81516564,11.3523452 9.27375542,9.89375542 C10.7323452,8.43516564 12.9259461,7.99883128 14.8316855,8.78821438 C16.7374249,9.57759748 17.98,11.4372426 17.98,13.5 C17.98,16.3166522 15.6966522,18.6 12.88,18.6 Z M30.05,18.6 C27.2333478,18.6 24.95,16.3166522 24.95,13.5 C24.95,10.6833478 27.2333478,8.4 30.05,8.4 C32.8666522,8.4 35.15,10.6833478 35.15,13.5 C35.1445215,16.3104801 32.870464,18.5890054 30.06,18.6 L30.05,18.6 Z M47.22,18.6 C44.4033478,18.6 42.12,16.3166522 42.12,13.5 C42.12,10.6833478 44.4033478,8.4 47.22,8.4 C50.0366522,8.4 52.32,10.6833478 52.32,13.5 C52.32,14.8526041 51.7826801,16.1498091 50.8262446,17.1062446 C49.8698091,18.0626801 48.5726041,18.6 47.22,18.6 Z" id="_Compound_Path_28"></path>
                    <rect id="_Path_734" x="0.94" y="26.4" width="157.37" height="88.24"></rect>
                    <path d="M59.51,13.5 L122.94,13.5" id="_Path_735"></path>
                    <path d="M136.48,8.41 L145.88,17.8" id="_Path_736"></path>
                    <path d="M145.88,8.41 L136.48,17.8" id="_Path_737"></path>
                </g>
                <g id="_Group_160" transform="translate(14.000000, 70.000000)">
                    <path d="M9.06,26.5 C7.36667172,24.8286772 6.45844003,22.5196261 6.55938957,20.1425502 C6.66033911,17.7654743 7.76106891,15.5417397 9.59,14.02 L15.21,9.33 C18.3000297,6.74776616 22.84684,6.93829916 25.71,9.77 C28.609524,12.6443204 28.8098775,17.2655171 26.17,20.38 L21.43,25.96 C19.9111228,27.7544958 17.7118795,28.8331968 15.3631159,28.9357297 C13.0143524,29.0382627 10.7294751,28.1553115 9.06,26.5 Z" id="_Path_738"></path>
                    <path d="M27.61,12.78 C28.3051292,12.594405 28.9373315,12.2247566 29.44,11.71 C30.6662689,10.4845098 30.9866971,8.61904419 30.2396508,7.05460068 C29.4926046,5.49015717 27.8404003,4.56665438 26.1164602,4.74993517 C24.39252,4.93321596 22.9714175,6.1834575 22.57,7.87" id="_Path_739"></path>
                    <path d="M9.07,26.49 L19.45,16" id="_Path_740"></path>
                    <polyline id="_Path_741" points="22.52 7.83 18.61 3.96 18.53 0.18"></polyline>
                    <polyline id="_Path_742" points="15.08 9.35 12.61 6.89 11.93 2.03"></polyline>
                    <polyline id="_Path_743" points="8.94 14.62 6.47 12.17 2.3 13.15"></polyline>
                    <polyline id="_Path_744" points="6.57 20.06 3.64 19.98 0.48 20.6"></polyline>
                    <polyline id="_Path_745" points="27.69 12.95 31.61 16.82 35.39 16.86"></polyline>
                    <polyline id="_Path_746" points="26.26 20.4 28.74 22.85 33.61 23.48"></polyline>
                    <polyline id="_Path_747" points="21.05 26.6 23.53 29.05 22.59 33.22"></polyline>
                    <polyline id="_Path_748" points="15.63 29.03 15.75 31.96 15.16 35.13"></polyline>
                    <path d="M27.11,4.76 C27.3619771,3.20032216 28.6810969,2.0361466 30.26,1.98" id="_Path_749"></path>
                    <path d="M30.61,8.22 C32.1646183,7.94870998 33.3115131,6.61764224 33.35,5.04" id="_Path_750"></path>
                </g>
            </g>
        </g>
    </g>
</svg>