<?xml version="1.0" encoding="UTF-8"?>
<svg width="103px" height="148px" viewBox="0 0 103 148" version="1.1" xmlns="http://www.w3.org/2000/svg" xmlns:xlink="http://www.w3.org/1999/xlink">
    <!-- Generator: Sketch 52.5 (67469) - http://www.bohemiancoding.com/sketch -->
    <title>_Group_308</title>
    <desc>Created with Sketch.</desc>
    <g id="Page-1" stroke="none" stroke-width="1" fill="none" fill-rule="evenodd">
        <g id="_Group_308" transform="translate(2.000000, 1.000000)">
            <path d="M61.18,68.02 C39.9472572,68.0144843 22.7292149,85.2205979 22.7200153,106.453339 C22.7108158,127.686081 39.9139418,144.907108 61.1466814,144.919992 C82.379421,144.932875 99.6034328,127.732737 99.62,106.5 C99.6306159,96.2981494 95.5853859,86.5105058 88.3753366,79.2929538 C81.1652873,72.0754018 71.3818561,68.0199945 61.18,68.02 Z M61.18,136.91 C48.8595776,136.914035 37.7508105,129.493361 33.0369305,118.110385 C28.3230505,106.727408 30.933094,93.625546 39.6492427,84.9179874 C48.3653914,76.2104289 61.4698205,73.6133055 72.8481437,78.3384072 C84.2264668,83.0635089 91.6361838,94.1795876 91.62,106.5 C91.581453,123.290695 77.9707247,136.888009 61.18,136.91 Z" id="_Compound_Path_45" fill="#E0C79B" fill-rule="nonzero"></path>
            <g id="_Group_309" stroke-linecap="round" stroke-linejoin="round" stroke="#3B6D96" stroke-width="3">
                <g id="_Group_310">
                    <path d="M62.87,144.95 L11.58,144.95 C8.50705965,144.950001 5.56012486,143.728596 3.38816591,141.554762 C1.21620696,139.380927 -0.00265366179,136.432939 -1.13686838e-13,133.36 L-4.32402728e-06,50.36" id="_Path_1307"></path>
                    <path d="M63.89,50.4 L63.89,60.33" id="_Path_1308"></path>
                    <path d="M34.48,50.4 L-8.78455194e-06,50.4 L1.52465931e-20,41.6 C-0.00265520737,40.0865341 0.596706408,38.6341465 1.66595169,37.5630253 C2.73519697,36.4919042 4.1865318,35.8899977 5.7,35.89 L58.18,35.89 C59.6952002,35.8873394 61.1491074,36.4880726 62.2205174,37.5594826 C63.2919274,38.6308926 63.8926606,40.0847998 63.89,41.6 L63.8900088,50.4 L52.65,50.4" id="_Path_1309"></path>
                    <polyline id="_Path_1310" points="9.86 35.89 9.86 0.88 54.02 0.88 54.02 35.89"></polyline>
                    <g id="_Group_311" transform="translate(16.000000, 11.000000)">
                        <polyline id="_Path_1311" points="10.65 5.11 10.65 9.24 0.46 9.24 0.46 0.98 6.01 0.98"></polyline>
                        <polyline id="_Path_1312" points="31.42 5.11 31.42 9.24 21.24 9.24 21.24 0.98 26.79 0.98"></polyline>
                    </g>
                </g>
                <path d="M62.87,144.91 C81.0354356,144.067086 96.1203791,130.600938 99.0111868,112.647198 C101.901994,94.6934578 91.8063548,77.1728783 74.8235989,70.6706049 C57.840843,64.1683315 38.6255975,70.4665046 28.7868486,85.7600515 C18.9480997,101.053598 21.1824477,121.15087 34.14,133.91" id="_Path_1313"></path>
                <g id="_Group_312" transform="translate(45.000000, 87.000000)">
                    <path d="M16.69,35.5 C14.1155115,35.499878 11.6601897,34.4151806 9.92641295,32.5120228 C8.19263622,30.608865 7.34083986,28.0633559 7.58,25.5 L8.34,17.59 C8.75763331,13.2480661 12.4080295,9.93542899 16.77,9.94 C21.190193,9.9377656 24.8652167,13.3425028 25.2,17.75 L25.81,25.67 C25.9990673,28.2070271 25.1233454,30.7082337 23.3930361,32.5732491 C21.6627267,34.4382646 19.234062,35.498694 16.69,35.5 Z" id="_Path_1314"></path>
                    <path d="M20.52,10.78 C21.6088228,8.91103252 21.1887716,6.52902346 19.5263447,5.14522021 C17.8639179,3.76141697 15.4452308,3.78046175 13.8048009,5.19027174 C12.164371,6.60008173 11.7818815,8.98841001 12.9,10.84" id="_Path_1315"></path>
                    <path d="M16.69,35.48 L16.69,19.48" id="_Path_1316"></path>
                    <polyline id="_Path_1317" points="12.83 10.84 6.87 10.84 3.92 7.99"></polyline>
                    <polyline id="_Path_1318" points="8.25 17.68 4.48 17.68 0.25 14.45"></polyline>
                    <polyline id="_Path_1319" points="7.54 26.43 3.77 26.43 1.31 30.35"></polyline>
                    <polyline id="_Path_1320" points="9.87 32.42 7.54 34.6 5.58 37.48"></polyline>
                    <polyline id="_Path_1321" points="20.72 10.84 26.68 10.84 29.62 7.99"></polyline>
                    <polyline id="_Path_1322" points="25.29 17.68 29.07 17.68 33.3 14.45"></polyline>
                    <polyline id="_Path_1323" points="26.01 26.43 29.78 26.43 32.24 30.35"></polyline>
                    <polyline id="_Path_1324" points="23.68 32.42 26.01 34.6 27.97 37.48"></polyline>
                    <path d="M14.06,4.98 C13.0685225,3.58607567 13.1982486,1.68621486 14.37,0.44" id="_Path_1325"></path>
                    <path d="M19.36,4.98 C20.3514775,3.58607567 20.2217514,1.68621486 19.05,0.44" id="_Path_1326"></path>
                </g>
                <path d="M41.62,83.64 C52.2929995,74.5033895 67.8691463,73.9720071 79.14,82.36" id="_Path_1327"></path>
                <path d="M89.49,116.63 C85.1094843,128.776899 73.4651042,136.772854 60.5553806,136.498806 C47.645657,136.224757 36.3510913,127.741852 32.49,115.42" id="_Path_1328"></path>
            </g>
            <path d="M56.35,55.36 L4.89,55.36 L4.89,130.29 C4.85263937,132.789811 5.74743872,135.213969 7.4,137.09 C9.49454209,139.263577 12.3814724,140.494131 15.4,140.5 L26.56,140.5 C27.9407119,140.5 29.06,139.380712 29.06,138 C29.06,136.619288 27.9407119,135.5 26.56,135.5 L16.76,135.5 C15.4657047,135.518394 14.1850085,135.234175 13.02,134.67 C10.9548907,133.816714 9.6776162,131.726996 9.86,129.5 L9.86,106.82 C9.86552057,81.146569 30.676569,60.3355206 56.35,60.33 C57.7212932,60.3300111 58.8344928,59.2212822 58.84,57.85 C58.8345192,56.4770876 57.7229124,55.3654808 56.35,55.36 Z" id="_Path_1329" fill="#9ABFE2"></path>
        </g>
    </g>
</svg>