<?xml version="1.0" encoding="UTF-8"?>
<svg width="148px" height="134px" viewBox="0 0 148 134" version="1.1" xmlns="http://www.w3.org/2000/svg" xmlns:xlink="http://www.w3.org/1999/xlink">
    <!-- Generator: Sketch 52.5 (67469) - http://www.bohemiancoding.com/sketch -->
    <title>_Group_219</title>
    <desc>Created with Sketch.</desc>
    <g id="Page-1" stroke="none" stroke-width="1" fill="none" fill-rule="evenodd">
        <g id="_Group_219" transform="translate(1.000000, 1.000000)">
            <path d="M141,128.13 L141,98.38 C141,97.2312477 140.068752,96.3 138.92,96.3 C137.775155,96.3055041 136.849987,97.2351417 136.85,98.38 L136.85,117.72 C136.844483,121.537905 133.747909,124.630004 129.93,124.63 L101,124.63 C100.033502,124.63 99.25,125.413502 99.25,126.38 C99.25,127.346498 100.033502,128.13 101,128.13 L141,128.13 Z" id="_Compound_Path_29" fill="#9ABFE2"></path>
            <g id="_Group_220">
                <g id="_Group_221" stroke-linecap="round" stroke-linejoin="round" transform="translate(93.000000, 63.000000)" stroke="#3B6D96" stroke-width="3">
                    <g id="_Group_222">
                        <rect id="_Rectangle_64" x="0.31" y="27.58" width="51.98" height="40.65" rx="3.21"></rect>
                        <path d="M38.53,18.91 C37.2380214,13.1696794 32.1287039,9.0995865 26.2448351,9.1236121 C20.3609663,9.1476377 15.2850575,13.25932 14.04,19.01" id="_Path_971"></path>
                        <path d="M5.48,27.5 L5.48,21.98 C5.31460927,14.4347561 9.24535587,7.39079441 15.7535569,3.56961933 C22.261758,-0.251555757 30.328242,-0.251555757 36.8364431,3.56961933 C43.3446441,7.39079441 47.2753907,14.4347561 47.11,21.98 L47.11,27.5" id="_Path_972"></path>
                    </g>
                    <path d="M32.99,49.94 L32.99,47.3 C32.9900041,43.6035939 29.996402,40.605517 26.3,40.6 C22.5996922,40.6 19.6,43.5996922 19.6,47.3 L19.6,49.94" id="_Path_973"></path>
                </g>
                <g id="_Group_223">
                    <polyline id="_Path_974" stroke="#3B6D96" stroke-width="3" stroke-linecap="round" stroke-linejoin="round" points="96.6 131.24 0.95 131.24 0.95 0.58 131.61 0.58 131.61 60.84"></polyline>
                    <polyline id="_Path_975" stroke="#3B6D96" stroke-width="3" stroke-linecap="round" stroke-linejoin="round" points="86.27 118.92 13.26 118.92 13.26 12.89 119.29 12.89 119.29 57.59"></polyline>
                    <circle id="_Path_976" fill="#9ABFE2" transform="translate(95.261804, 43.408749) rotate(-86.830000) translate(-95.261804, -43.408749) " cx="95.2618041" cy="43.4087492" r="13.17"></circle>
                    <path d="M24.06,73.37 C28.3,75 29.65,80.12 35.24,80.12 C41.91,80.12 41.91,72.85 48.56,72.85 C55.21,72.85 55.23,80.12 61.89,80.12 C68.55,80.12 68.54,72.85 75.21,72.85 C81.88,72.85 81.87,80.12 88.52,80.12" id="_Path_977" stroke="#3B6D96" stroke-width="3" stroke-linecap="round" stroke-linejoin="round"></path>
                    <path d="M88.51,98.6 C81.86,98.6 81.86,91.33 75.2,91.33 C68.54,91.33 68.53,98.6 61.88,98.6 C55.23,98.6 55.22,91.33 48.55,91.33" id="_Path_978" stroke="#3B6D96" stroke-width="3" stroke-linecap="round" stroke-linejoin="round"></path>
                    <path d="M61.88,95.6 C59.95,95.6 59.08,94.73 57.43,92.94 C55.64,90.94 53.2,88.33 48.55,88.33 C43.9,88.33 41.47,90.99 39.69,92.94 C38.04,94.73 37.16,95.6 35.23,95.6 C33.3,95.6 32.23,94.66 30.37,92.85 C29.82,92.3 29.25,91.73 28.61,91.18 C27.6224415,90.347245 27.0517869,89.1218008 27.05,87.83 L27.05,87.06 C27.0461729,85.7050355 27.6682506,84.4242284 28.7355848,83.5895183 C29.802919,82.7548082 31.1958951,82.45974 32.51,82.79 C33.399177,83.0139707 34.3130621,83.1248464 35.23,83.12 C39.89,83.12 42.33,80.46 44.11,78.51 C45.76,76.72 46.63,75.85 48.55,75.85 C50.47,75.85 51.36,76.72 53.01,78.52 C54.66,80.32 57.23,83.12 61.88,83.12 C66.53,83.12 68.96,80.46 70.74,78.52 C72.52,76.58 73.27,75.85 75.2,75.85 C77.13,75.85 78,76.72 79.65,78.52 C80.7847021,79.8626602 82.1368411,81.0052177 83.65,81.9 C84.84965,82.5899891 85.5808183,83.8762328 85.56,85.26 L85.56,86.12 C85.551576,87.449621 84.8576683,88.680784 83.7245649,89.3765136 C82.5914615,90.0722432 81.1795656,90.1340511 79.99,89.54 L79.9,89.54 C78.4587146,88.8025965 76.8686446,88.4025144 75.25,88.37 C74.0116082,88.3556663 72.7811404,88.5692185 71.62,89 C69.566633,89.8795039 67.7629692,91.253724 66.37,93 C64.68,94.74 63.8,95.6 61.88,95.6 Z" id="_Path_979" fill="#E0C79B"></path>
                    <circle id="_Path_980" stroke="#3B6D96" stroke-width="3" stroke-linecap="round" stroke-linejoin="round" transform="translate(95.261804, 43.408749) rotate(-86.830000) translate(-95.261804, -43.408749) " cx="95.2618041" cy="43.4087492" r="13.17"></circle>
                </g>
            </g>
        </g>
    </g>
</svg>