<?xml version="1.0" encoding="UTF-8"?>
<svg width="161px" height="147px" viewBox="0 0 161 147" version="1.1" xmlns="http://www.w3.org/2000/svg" xmlns:xlink="http://www.w3.org/1999/xlink">
    <!-- Generator: Sketch 52.5 (67469) - http://www.bohemiancoding.com/sketch -->
    <title>_Group_290</title>
    <desc>Created with Sketch.</desc>
    <g id="Page-1" stroke="none" stroke-width="1" fill="none" fill-rule="evenodd">
        <g id="_Group_290" transform="translate(1.000000, 2.000000)">
            <polygon id="_Compound_Path_38" fill="#E0C79B" points="26.11 25.56 25.02 27.56 20.87 25.21 20.87 29.98 18.61 29.98 18.61 25.14 14.46 27.48 13.29 25.61 17.43 23.18 13.29 20.84 14.46 18.84 18.61 21.27 18.61 16.42 20.87 16.42 20.87 21.19 25.02 18.76 26.11 20.76 21.97 23.18"></polygon>
            <polygon id="_Compound_Path_39" fill="#E0C79B" points="49.86 25.56 48.76 27.56 44.62 25.21 44.62 29.98 42.35 29.98 42.35 25.14 38.21 27.48 37.04 25.61 41.18 23.18 37.04 20.84 38.21 18.84 42.35 21.27 42.35 16.42 44.62 16.42 44.62 21.19 48.76 18.76 49.86 20.76 45.72 23.18"></polygon>
            <polygon id="_Compound_Path_40" fill="#E0C79B" points="73.61 25.56 72.51 27.56 68.37 25.21 68.37 29.98 66.06 29.98 66.06 25.14 61.92 27.48 60.75 25.61 64.89 23.18 60.75 20.84 61.92 18.84 66.06 21.27 66.06 16.42 68.33 16.42 68.33 21.19 72.47 18.76 73.57 20.76 69.42 23.18"></polygon>
            <polygon id="_Compound_Path_41" fill="#E0C79B" points="97.36 25.56 96.26 27.56 92.12 25.21 92.12 29.98 89.85 29.98 89.85 25.14 85.71 27.48 84.53 25.61 88.68 23.18 84.53 20.84 85.71 18.84 89.85 21.27 89.85 16.42 92.12 16.42 92.12 21.19 96.26 18.76 97.36 20.76 93.21 23.18"></polygon>
            <polygon id="_Compound_Path_42" fill="#E0C79B" points="121.06 25.56 119.97 27.56 115.83 25.21 115.83 29.98 113.56 29.98 113.56 25.14 109.41 27.48 108.24 25.61 112.39 23.18 108.24 20.84 109.41 18.84 113.56 21.27 113.56 16.42 115.83 16.42 115.83 21.19 119.97 18.76 121.06 20.76 116.92 23.18"></polygon>
            <polyline id="_Path_1218" stroke="#3B6D96" stroke-width="3" stroke-linecap="round" stroke-linejoin="round" points="125.78 5.33 0.54 5.33 0.54 40.38 125.78 40.38"></polyline>
            <path d="M142.81,113.02 C142.810056,126.281094 132.73131,137.370182 119.530495,138.633153 C106.329679,139.896124 94.331148,130.919251 91.8167436,117.898713 C89.3023392,104.878176 97.0957359,92.0792713 109.817635,88.33629 C122.539534,84.5933087 136.022467,91.1323851 140.96,103.44 C139.362558,105.056506 137.532309,106.42498 135.53,107.5 C132.790398,100.733137 125.505022,96.9966018 118.410946,98.7199533 C111.31687,100.443305 106.557711,107.105797 107.227955,114.375366 C107.898199,121.644935 113.795318,127.324933 121.084906,127.722131 C128.374494,128.119329 134.853855,123.113705 136.31,115.96 C138.607886,115.024606 140.786491,113.819492 142.8,112.37 C142.81,112.58 142.81,112.8 142.81,113.02 Z" id="_Path_1219" fill="#9ABFE2"></path>
            <g id="_Group_291" stroke-linecap="round" stroke-linejoin="round" transform="translate(94.000000, 0.000000)" stroke="#3B6D96" stroke-width="3">
                <path d="M24.2,113.39 C26.3511224,113.933652 28.5612427,114.209077 30.78,114.21 C45.5883716,114.204479 57.590001,102.198373 57.59,87.39 L57.59,47.74" id="_Path_1220"></path>
                <path d="M0.36,73.74 C0.36,73.74 9.01,65.83 8.55,54.66 L8.55,75.8 C8.54894373,77.3690142 8.68614094,78.9350702 8.96,80.48" id="_Path_1221"></path>
                <path d="M52.4,49.63 L61.17,46.2" id="_Path_1222"></path>
                <path d="M52.4,42.1 L61.17,38.66" id="_Path_1223"></path>
                <path d="M52.4,34.56 L61.17,31.12" id="_Path_1224"></path>
                <path d="M52.4,27.02 L61.17,23.58" id="_Path_1225"></path>
                <path d="M63.06,10.99 C63.7322939,9.98372764 64.1098399,8.80952485 64.15,7.6 C64.4285621,5.13576011 63.2872012,2.72639945 61.2039395,1.38100137 C59.1206779,0.0356032844 56.4551007,-0.013607372 54.3235993,1.2539797 C52.1920979,2.52156678 50.962584,4.88715744 51.15,7.36 C51.1081429,9.81849739 52.5705346,12.0536976 54.84,13 C56.6022114,13.9207422 57.6993246,15.7518396 57.68,17.74 L57.68,24.98" id="_Path_1226"></path>
            </g>
            <g id="_Group_292" stroke-linecap="round" stroke-linejoin="round" transform="translate(1.000000, 82.000000)" stroke="#3B6D96" stroke-width="3">
                <path d="M140.06,12.25 C133.190053,3.52842118 122.102647,-0.740885877 111.157506,1.12083052 C100.212365,2.98254693 91.1600272,10.6775285 87.56,21.18 L87.56,30.5 L51.88,30.5" id="_Path_1227"></path>
                <path d="M87.51,40.58 C92.2587428,54.6085447 106.452857,63.148443 121.071494,60.7722951 C135.690131,58.3961472 146.448802,45.8003639 146.51,30.99" id="_Path_1228"></path>
                <path d="M87.35,21.05 L35.06,21.05 L35.06,26.05 L28.42,26.05 L28.42,21.05 L17.94,21.05 L17.94,26.05 L11.47,26.05 L11.47,21.05 L4.91,21.05 C2.35292161,21.05 0.28,23.1229216 0.28,25.68 L0.28,36 C0.28,38.5570784 2.35292161,40.63 4.91,40.63 L87.35,40.63 L87.35,38.97" id="_Path_1229"></path>
                <path d="M128.56,38.19 C125.561942,41.3587877 120.908538,42.3270603 116.895331,40.6171651 C112.882124,38.90727 110.356966,34.8804485 110.565526,30.5231474 C110.774086,26.1658464 113.672303,22.3986121 117.830476,21.0798359 C121.988648,19.7610598 126.528299,21.1693534 129.21,24.61" id="_Path_1230"></path>
            </g>
        </g>
    </g>
</svg>