<?xml version="1.0" encoding="UTF-8"?>
<svg width="124px" height="159px" viewBox="0 0 124 159" version="1.1" xmlns="http://www.w3.org/2000/svg" xmlns:xlink="http://www.w3.org/1999/xlink">
    <!-- Generator: Sketch 52.5 (67469) - http://www.bohemiancoding.com/sketch -->
    <title>_Group_28</title>
    <desc>Created with Sketch.</desc>
    <g id="Page-1" stroke="none" stroke-width="1" fill="none" fill-rule="evenodd">
        <g id="_Group_28" transform="translate(1.000000, 1.000000)">
            <path d="M115.550009,150.79 L115.55,72.59 C115.552661,71.1411038 114.978267,69.7507849 113.953741,68.7262589 C112.929215,67.7017328 111.538896,67.127339 110.09,67.13 C108.642836,67.1299976 107.255089,67.7055649 106.232728,68.729802 C105.210367,69.7540391 104.637345,71.1428383 104.64,72.59 L104.64,123.42 C104.64,133.455014 96.5050139,141.59 86.47,141.59 L10.41,141.59 C7.86949015,141.59 5.81,143.64949 5.81,146.19 C5.81,148.73051 7.86949015,150.79 10.41,150.79 L115.550009,150.79 Z" id="_Compound_Path_6" fill="#E0C79B"></path>
            <path d="M71.58,101.5 C68.37,108.36 68.47,119.15 60.27,122.39 C55.69,124.2 50.27,122.98 47.88,118.39 C45.12,113.19 47.1,106.54 50.4,102.07 C53.5747085,97.6822298 58.3218511,94.6906343 63.65,93.72 C65.4416751,93.4300087 67.2683249,93.4300087 69.06,93.72 C70.1517803,93.8709179 71.2140598,94.1879156 72.21,94.66 C72.8519601,94.9416585 73.3803581,95.4313074 73.71,96.05 C74.2,97.17 73.25,97.9 71.58,101.5 Z" id="_Path_197" stroke="#3B6D96" stroke-width="3" stroke-linecap="round" stroke-linejoin="round"></path>
            <path d="M73,98.69 C73,98.69 64,120.56 73,123.16 C82,125.76 88.07,114.77 88,105.72 C87.93,96.67 83.68,87.86 75.52,83.43 C65.52,78.01 52.88,80.43 44.52,87.71 C42.3481436,89.6070429 40.4440668,91.7903394 38.86,94.2 C33.58,102.29 29.86,116.68 38.6,127.62 C46.15,137.1 60.05,140.24 72.02,134.72" id="_Path_198" stroke="#3B6D96" stroke-width="3" stroke-linecap="round" stroke-linejoin="round"></path>
            <rect id="_Path_199" stroke="#3B6D96" stroke-width="3" stroke-linecap="round" stroke-linejoin="round" x="0.81" y="62.13" width="119.74" height="93.66" rx="3.21"></rect>
            <path d="M12.72,62.13 L12.72,49.31 C12.72,22.52 34.24,0.73 60.72,0.73 C87.2,0.73 108.72,22.52 108.72,49.31 L108.72,62.13" id="_Path_200" stroke="#3B6D96" stroke-width="3" stroke-linecap="round" stroke-linejoin="round"></path>
            <path d="M87.98,47.85 C87.98,32.42 75.73,19.85 60.68,19.85 C45.63,19.85 33.38,32.41 33.38,47.85" id="_Path_201" stroke="#3B6D96" stroke-width="3" stroke-linecap="round" stroke-linejoin="round"></path>
            <path d="M91.98,58.13 L91.98,47.85 C91.98,30.21 77.98,15.85 60.68,15.85 C43.38,15.85 29.38,30.2 29.38,47.85 L29.38,58.13 L16.72,58.13 L16.72,49.31 C16.72,24.73 36.44,4.73 60.72,4.73 C85,4.73 104.72,24.73 104.72,49.31 L104.72,58.13 L91.98,58.13 Z" id="_Path_202" fill="#9ABFE2"></path>
        </g>
    </g>
</svg>