<?xml version="1.0" encoding="UTF-8"?>
<svg width="136px" height="136px" viewBox="0 0 136 136" version="1.1" xmlns="http://www.w3.org/2000/svg" xmlns:xlink="http://www.w3.org/1999/xlink">
    <!-- Generator: Sketch 52.5 (67469) - http://www.bohemiancoding.com/sketch -->
    <title>_Group_289</title>
    <desc>Created with Sketch.</desc>
    <g id="Page-1" stroke="none" stroke-width="1" fill="none" fill-rule="evenodd">
        <g id="_Group_289" transform="translate(2.000000, 2.000000)">
            <path d="M16.54,131.63 C8.21,130 3.71,122.92 4.17,114.16 C4.46,108.76 6.6,103.37 8.39,98.3 C10.62,92.01 13.7,85.9 15.22,79.4 C16.2489146,74.9879843 16.7557243,70.4703296 16.73,65.94 C17.8,69.57 18.73,73.25 19.52,76.94 C20.31,80.63 20.14,86.94 24.77,87.5 C30.87,88.26 30.49,80.61 29.29,76.62 C31.3967499,76.8728612 33.4055236,77.6536688 35.13,78.89 C35.7881889,79.3464027 36.3891617,79.8802278 36.92,80.48 C37.1,80.69 37.28,80.89 37.45,81.11 C37.62,81.33 37.82,81.58 37.99,81.82 C38.16,82.06 38.33,82.32 38.49,82.57 C38.5302733,82.6277201 38.5670075,82.6878305 38.6,82.75 C38.88,83.2 39.14,83.65 39.38,84.11 C41.4622496,87.9161386 42.1686038,92.3237888 41.38,96.59 C40.7974485,98.8428231 40.4357404,101.147038 40.3,103.47 C40.3,107.37 42.72,111.32 46.8,111.13 C49.82365,110.995329 52.1953681,108.486441 52.16,105.46 C52.2142992,103.962827 51.8395854,102.481319 51.08,101.19 C50.7,100.55 47.91,97.87 48.3,97.32 C48.81,96.59 53.95,98.32 58.07,102.73 C63.8,108.81 64.58,116.73 64.71,119.63 C64.8368675,123.661493 64.3100487,127.686929 63.15,131.55" id="_Path_1197" stroke="#3B6D96" stroke-width="3" stroke-linecap="round" stroke-linejoin="round"></path>
            <path d="M16.95,127.63 C11.07,126.32 7.8,121.39 8.16,114.37 C8.39,110.17 9.99,105.7 11.54,101.37 L12.16,99.62 C12.91,97.51 13.75,95.44 14.64,93.24 C15.53,91.04 16.57,88.5 17.42,86.04 C18.4768334,89.0162657 21.1330114,91.1334529 24.27,91.5 C24.7044164,91.5556136 25.1420445,91.5823389 25.58,91.58 C28.1109679,91.6615764 30.5251278,90.5141054 32.06,88.5 C33.1584053,86.9446079 33.8118473,85.1191189 33.95,83.22 L34.05,83.33 L34.31,83.64 L34.39,83.74 C34.51,83.89 34.63,84.06 34.75,84.22 C34.87,84.38 35.02,84.62 35.14,84.81 L35.05,84.63 C35.1006645,84.7365132 35.1574253,84.8400182 35.22,84.94 C35.45,85.31 35.66,85.67 35.85,86.04 C37.5100535,89.0454633 38.0789084,92.5327911 37.46,95.91 C37.37,96.38 37.27,96.91 37.16,97.34 C36.6552845,99.3736236 36.3703189,101.455549 36.31,103.55 C36.31,109.29 40.13,115.22 46.53,115.22 L47,115.22 C51.7496479,115.027647 55.6295243,111.361186 56.09,106.63 C58.9723848,110.466019 60.5904363,115.103502 60.72,119.9 C60.7981907,122.496791 60.5767285,125.093939 60.06,127.64 L16.95,127.63 Z" id="_Path_1198" fill="#E0C79B"></path>
            <path d="M89.48,127.67 L68.16,127.61 C68.6044226,124.930789 68.7852865,122.214481 68.7,119.5 C68.5,115.07 67.23,106.67 60.97,100.03 C56.79,95.59 51.57,93.2 48.79,93.2 C47.646106,93.1782439 46.5346642,93.5807853 45.67,94.33 C45.8537223,90.1550644 44.9034217,86.0082984 42.92,82.33 C42.66,81.84 42.38,81.33 42.05,80.8 C42.8431851,79.5054462 43.7183023,78.2629133 44.67,77.08 L45.38,76.16 C46.5,74.68 47.63,73.22 48.77,71.76 C50.07,70.08 51.38,68.41 52.65,66.71 C56.88,61.08 61.13,54.99 62.38,47.91 C62.7925454,45.5668734 62.9700928,43.1884081 62.91,40.81 C64.0595352,43.9719103 64.4733464,47.3542185 64.12,50.7 C63.56,55.41 63.34,57.7 64.12,61.58 C64.3881819,63.2471366 65.0272294,64.8327947 65.99,66.22 C67.3128751,68.0603025 69.4240882,69.1714672 71.69,69.22 L72.29,69.22 C76.16,68.87 78.46,65.65 79.66,62.51 C81.1022267,66.7374016 81.6172328,71.2257987 81.17,75.67 C80.8325655,78.7746351 80.0232465,81.8095814 78.77,84.67 C78.2326235,85.8693019 77.6352005,87.040785 76.98,88.18 C74.51,92.64 71.14,98.76 74.79,105.18 C77.0945498,109.029658 81.3056583,111.326627 85.79,111.18 C87.8920407,111.179934 89.9693155,110.726276 91.88,109.85 C94.8441063,108.561118 97.155094,106.120137 98.28,103.09 C98.7999701,101.595521 99.0571054,100.022259 99.04,98.44 L99.56,99.12 C104.18,105.78 106.95,115.43 102.69,121.95 C100.848119,124.583243 98.2502377,126.595293 95.24,127.72 L89.48,127.67 Z" id="_Compound_Path_37" fill="#9ABFE2"></path>
            <path d="M16.54,131.63 C8.21,130 3.71,122.92 4.17,114.16 C4.46,108.76 6.6,103.37 8.39,98.3 C10.62,92.01 13.7,85.9 15.22,79.4 C16.2489146,74.9879843 16.7557243,70.4703296 16.73,65.94 C17.8,69.57 18.73,73.25 19.52,76.94 C20.31,80.63 20.14,86.94 24.77,87.5 C30.87,88.26 30.49,80.61 29.29,76.62 C31.3967499,76.8728612 33.4055236,77.6536688 35.13,78.89 C35.7881889,79.3464027 36.3891617,79.8802278 36.92,80.48 C37.1,80.69 37.28,80.89 37.45,81.11 C38.4,78.34 40.45,75.94 42.17,73.63 C44.56,70.47 47.05,67.37 49.43,64.2 C53.17,59.2 57.3,53.44 58.43,47.1 C59.4179457,40.8717357 58.7275727,34.4926888 56.43,28.62 C62.65,31.62 65.08,35.85 65.95,37.62 C67.8575881,41.8122002 68.5936666,46.4429287 68.08,51.02 C67.52,55.74 67.39,57.43 68.01,60.68 C68.1694638,61.7536349 68.5656949,62.7783704 69.17,63.68 C69.774829,64.5714106 70.7932403,65.091932 71.87,65.06 C74.74,64.8 76.27,60.57 76.62,58.06 C77.0544777,54.8377652 76.5219537,51.5590883 75.09,48.64 C78.4530769,51.6944916 81.1053763,55.4493556 82.86,59.64 C84.9118841,64.7988226 85.6838873,70.3778326 85.11,75.9 C84.7309034,79.4093993 83.8240117,82.841428 82.42,86.08 C80.27,91.22 74.87,97.15 78.22,103.02 C80.62,107.21 86.1,107.95 90.1,106.09 C96.44,103.16 95.62,96.25 93,90.71 C92.13,88.87 91.33,87.89 91.63,87.56 C93.42,85.56 101.79,95.32 102.75,96.7 C107.9,104.12 111.41,115.7 105.95,124.01 C103.48869,127.555376 99.9505515,130.213364 95.86,131.59 L131.62,131.59 L131.62,0.25 L0.19,0.25 L0.19,131.67 L16.54,131.63 Z" id="_Path_1199" stroke="#3B6D96" stroke-width="3" stroke-linecap="round" stroke-linejoin="round"></path>
            <path d="M0.19,20.64 L131.61,20.64" id="_Path_1200" stroke="#3B6D96" stroke-width="3" stroke-linecap="round" stroke-linejoin="round"></path>
            <path d="M76.28,43.52 L131.61,43.52" id="_Path_1201" stroke="#3B6D96" stroke-width="3" stroke-linecap="round" stroke-linejoin="round"></path>
            <path d="M0.19,43.52 L51.9,43.52" id="_Path_1202" stroke="#3B6D96" stroke-width="3" stroke-linecap="round" stroke-linejoin="round"></path>
            <path d="M90.65,66.4 L131.61,66.4" id="_Path_1203" stroke="#3B6D96" stroke-width="3" stroke-linecap="round" stroke-linejoin="round"></path>
            <path d="M24.51,66.4 L41.55,66.4" id="_Path_1204" stroke="#3B6D96" stroke-width="3" stroke-linecap="round" stroke-linejoin="round"></path>
            <path d="M0.19,66.4 L10.99,66.4" id="_Path_1205" stroke="#3B6D96" stroke-width="3" stroke-linecap="round" stroke-linejoin="round"></path>
            <path d="M105.24,89.28 L131.61,89.28" id="_Path_1206" stroke="#3B6D96" stroke-width="3" stroke-linecap="round" stroke-linejoin="round"></path>
            <path d="M1.25,89.28 L5.56,89.28" id="_Path_1207" stroke="#3B6D96" stroke-width="3" stroke-linecap="round" stroke-linejoin="round"></path>
            <path d="M115.2,112.16 L131.61,112.16" id="_Path_1208" stroke="#3B6D96" stroke-width="3" stroke-linecap="round" stroke-linejoin="round"></path>
            <path d="M41.21,0.25 L41.21,20.64" id="_Path_1209" stroke="#3B6D96" stroke-width="3" stroke-linecap="round" stroke-linejoin="round"></path>
            <path d="M18,20.64 L18,43.52" id="_Path_1210" stroke="#3B6D96" stroke-width="3" stroke-linecap="round" stroke-linejoin="round"></path>
            <path d="M65.9,20.64 L65.9,26.53" id="_Path_1211" stroke="#3B6D96" stroke-width="3" stroke-linecap="round" stroke-linejoin="round"></path>
            <path d="M108.69,20.64 L108.69,43.52" id="_Path_1212" stroke="#3B6D96" stroke-width="3" stroke-linecap="round" stroke-linejoin="round"></path>
            <path d="M108.69,67.11 L108.69,88.84" id="_Path_1213" stroke="#3B6D96" stroke-width="3" stroke-linecap="round" stroke-linejoin="round"></path>
            <path d="M88.81,0.25 L88.81,20.64" id="_Path_1214" stroke="#3B6D96" stroke-width="3" stroke-linecap="round" stroke-linejoin="round"></path>
            <path d="M39.88,43.52 L39.88,66.4" id="_Path_1215" stroke="#3B6D96" stroke-width="3" stroke-linecap="round" stroke-linejoin="round"></path>
            <path d="M91.77,43.52 L91.77,66.4" id="_Path_1216" stroke="#3B6D96" stroke-width="3" stroke-linecap="round" stroke-linejoin="round"></path>
            <path d="M95.85,131.67 L48.81,131.67" id="_Path_1217" stroke="#3B6D96" stroke-width="3" stroke-linecap="round" stroke-linejoin="round"></path>
        </g>
    </g>
</svg>