<?xml version="1.0" encoding="UTF-8"?>
<svg width="153px" height="135px" viewBox="0 0 153 135" version="1.1" xmlns="http://www.w3.org/2000/svg" xmlns:xlink="http://www.w3.org/1999/xlink">
    <!-- Generator: Sketch 52.5 (67469) - http://www.bohemiancoding.com/sketch -->
    <title>_Group_337</title>
    <desc>Created with Sketch.</desc>
    <g id="Page-1" stroke="none" stroke-width="1" fill="none" fill-rule="evenodd">
        <g id="_Group_337" transform="translate(2.000000, 1.000000)">
            <g id="_Group_338">
                <g id="_Group_339" stroke-linecap="round" stroke-linejoin="round" stroke="#3B6D96" stroke-width="3">
                    <path d="M65.97,132.43 C30.7175363,132.423999 1.74869482,104.605139 0.31552076,69.3818198 C-1.11765331,34.1585003 25.4953711,4.07811366 60.6308171,1.20815413 C95.766263,-1.6618054 126.90804,23.7010107 131.21,58.69" id="_Path_1391"></path>
                    <polyline id="_Path_1392" points="65.97 90.53 65.97 109.06 65.97 132.43 87.97 132.43"></polyline>
                    <polyline id="_Path_1393" points="65.97 0.98 65.97 23.54 65.97 90.53"></polyline>
                    <polyline id="_Path_1394" points="0.24 66.71 30.55 66.71 92.55 66.71"></polyline>
                    <path d="M22.88,17.09 C50.9594634,25.6909514 80.9705366,25.6909514 109.05,17.09" id="_Path_1395"></path>
                    <path d="M74.77,109.36 C71.63,109.14 68.36,109.03 64.97,109.06 C50.6574838,109.163034 36.462507,111.653915 22.97,116.43" id="_Path_1396"></path>
                    <path d="M50.48,2.83 C23.905618,41.2673581 23.905618,92.1426419 50.48,130.58" id="_Path_1397"></path>
                    <path d="M81.48,2.83 C93.5424344,20.391576 100.417965,40.9939104 101.32,62.28" id="_Path_1398"></path>
                </g>
                <g id="_Group_340" transform="translate(84.000000, 68.000000)">
                    <circle id="_Path_1399" fill="#E0C79B" cx="46.97" cy="18.42" r="7.14"></circle>
                    <path d="M3.97,64.43 L47.55,64.43 C49.41,64.43 50.91,63.34 50.91,61.99 L50.91,46.91 C50.91,45.57 49.41,44.48 47.55,44.48 L3.97,44.48 C2.12,44.48 0.62,45.57 0.62,46.91 L0.62,55" id="_Path_1400" stroke="#3B6D96" stroke-width="3" stroke-linecap="round" stroke-linejoin="round"></path>
                    <path d="M33.33,44.48 L33.33,36.1" id="_Path_1401" stroke="#3B6D96" stroke-width="3" stroke-linecap="round" stroke-linejoin="round"></path>
                    <path d="M46.97,0.73 C56.7399172,0.73 64.66,8.65008278 64.66,18.42 C64.66,28.1899172 56.7399172,36.11 46.97,36.11 C37.2000828,36.11 29.28,28.1899172 29.28,18.42" id="_Path_1402" stroke="#3B6D96" stroke-width="3" stroke-linecap="round" stroke-linejoin="round"></path>
                    <circle id="_Path_1403" stroke="#3B6D96" stroke-width="3" stroke-linecap="round" stroke-linejoin="round" cx="46.97" cy="18.42" r="7.14"></circle>
                    <path d="M46.97,0.729996296 L14.67,0.73 C11.0825408,0.727346553 7.64110627,2.15059956 5.1034512,4.68637905 C2.56579613,7.22215854 1.13999902,10.6625398 1.14,14.25 L1.14,36.1 L46.97,36.1" id="_Path_1404" stroke="#3B6D96" stroke-width="3" stroke-linecap="round" stroke-linejoin="round"></path>
                </g>
            </g>
            <rect id="_Path_1405" fill="#E0C79B" x="88.75" y="116.08" width="42.22" height="12.75" rx="1.71"></rect>
            <path d="M111.13,100.5 L89.7299949,100.500116 L89.73,83.06 C89.7273429,80.4680212 90.755826,77.9814394 92.5886327,76.1486327 C94.4214394,74.315826 96.9080212,73.2873429 99.5,73.29 L106.06,73.29 C107.164569,73.29 108.06,74.1854305 108.06,75.29 C108.06,76.3945695 107.164569,77.29 106.06,77.29 L103.32,77.29 C97.9186551,77.29 93.54,81.6686551 93.54,87.07 C93.54,92.4713449 97.9186551,96.85 103.32,96.85 L111.15,96.85 C111.629127,96.8499926 112.088486,97.041007 112.426341,97.3807384 C112.764195,97.7204698 112.952662,98.18088 112.95,98.66 C112.960874,99.1477712 112.773277,99.6190622 112.430175,99.9659343 C112.087074,100.312806 111.617861,100.505542 111.13,100.5 Z" id="_Path_1406" fill="#9ABFE2"></path>
        </g>
    </g>
</svg>