<?xml version="1.0" encoding="UTF-8"?>
<svg width="219px" height="145px" viewBox="0 0 219 145" version="1.1" xmlns="http://www.w3.org/2000/svg" xmlns:xlink="http://www.w3.org/1999/xlink">
    <!-- Generator: Sketch 52.5 (67469) - http://www.bohemiancoding.com/sketch -->
    <title>Group-25</title>
    <desc>Created with Sketch.</desc>
    <g id="Page-1" stroke="none" stroke-width="1" fill="none" fill-rule="evenodd">
        <g id="Group-25" transform="translate(1.000000, 1.000000)">
            <path d="M84.56,54.84 C84.56,57.6014237 82.3214237,59.84 79.56,59.84 C76.7985763,59.84 74.56,57.6014237 74.56,54.84 C74.56,52.0785763 76.7985763,49.84 79.56,49.84 C82.3214237,49.84 84.56,52.0785763 84.56,54.84 Z" id="_Path_354" fill="#E0C79B"></path>
            <path d="M100.27,77.21 C100.27,79.9714237 98.0314237,82.21 95.27,82.21 C92.5085763,82.21 90.27,79.9714237 90.27,77.21 C90.27,74.4485763 92.5085763,72.21 95.27,72.21 C98.0314237,72.21 100.27,74.4485763 100.27,77.21 Z" id="_Path_355" fill="#E0C79B"></path>
            <path d="M46.6,101.93 C46.6,104.691424 44.3614237,106.93 41.6,106.93 C38.8385763,106.93 36.6,104.691424 36.6,101.93 C36.6,99.1685763 38.8385763,96.93 41.6,96.93 C44.3614237,96.93 46.6,99.1685763 46.6,101.93 Z" id="_Path_356" fill="#E0C79B"></path>
            <path d="M26.92,113.73 C26.92,116.491424 24.6814237,118.73 21.92,118.73 C19.1585763,118.73 16.92,116.491424 16.92,113.73 C16.92,110.968576 19.1585763,108.73 21.92,108.73 C24.6814237,108.73 26.92,110.968576 26.92,113.73 Z" id="_Path_357" fill="#E0C79B"></path>
            <path d="M160.56,11.28 C133.28,12 118.19,35.6 116.64,38.12 C116.83,58.12 117.64,104.3 154.49,128.12 C158.771732,130.960521 164.338268,130.960521 168.62,128.12 C206.04,103.92 206.29,58.02 206.41,37.12 C204.99,34.95 188.77,10.55 160.56,11.28 Z M183.56,86.38 C183.56,87.2313449 183.221805,88.047821 182.619813,88.6498128 C182.017821,89.2518045 181.201345,89.59 180.35,89.59 L147.84,89.59 C146.988655,89.59 146.172179,89.2518045 145.570187,88.6498128 C144.968195,88.047821 144.63,87.2313449 144.63,86.38 L144.63,64.23 C144.63,62.457166 146.067166,61.02 147.84,61.02 L180.35,61.02 C182.122834,61.02 183.56,62.457166 183.56,64.23 L183.56,86.38 Z" id="_Compound_Path_11" fill="#9ABFE2" fill-rule="nonzero"></path>
            <rect id="_Rectangle_32" stroke="#3B6D96" stroke-width="3" stroke-linecap="round" stroke-linejoin="round" x="144.59" y="61.02" width="38.94" height="28.57" rx="3.21"></rect>
            <path d="M148.46,61 L148.46,57.11 C148.46,48.94 155.46,42.29 164.05,42.29 C172.64,42.29 179.65,48.94 179.65,57.11 L179.65,61" id="_Path_358" stroke="#3B6D96" stroke-width="3" stroke-linecap="round" stroke-linejoin="round"></path>
            <path d="M159.06,76.74 L159.06,74.88 C159.147044,72.2017937 161.381373,70.097056 164.06,70.17 C166.738627,70.097056 168.972956,72.2017937 169.06,74.88 L169.06,76.74" id="_Path_359" stroke="#3B6D96" stroke-width="3" stroke-linecap="round" stroke-linejoin="round"></path>
            <path d="M200.64,15.86 C191.71,8.29 178.64,0.86 161.81,0.86 L160.32,0.86 C128.96,1.68 111.65,27.27 108.49,32.39 L106.85,35.05 L106.85,38.23 C107,54.05 107.35,90.97 129.39,118.89 L73.96,118.89 L73.96,100.5 L95.22,100.5 L95.22,82.23" id="_Path_360" stroke="#3B6D96" stroke-width="3" stroke-linecap="round" stroke-linejoin="round"></path>
            <path d="M216.19,33.97 L216.19,37.24 C216.06,59 215.76,109.87 173.7,137.08 C166.348626,141.932752 156.811374,141.932752 149.46,137.08" id="_Path_361" stroke="#3B6D96" stroke-width="3" stroke-linecap="round" stroke-linejoin="round"></path>
            <path d="M206.41,37.17 C206.29,58.06 206.04,103.95 168.62,128.17 C164.338268,131.010521 158.771732,131.010521 154.49,128.17 C117.62,104.32 116.83,58.17 116.64,38.17 C118.19,35.65 133.28,12.05 160.56,11.34 C188.77,10.55 204.99,34.95 206.41,37.17 Z" id="_Path_362" stroke="#3B6D96" stroke-width="3" stroke-linecap="round" stroke-linejoin="round"></path>
            <path d="M98.45,34.35 C85.1981636,35.3941466 73.0233927,42.0491543 64.99,52.64 C62.5331767,52.0511951 60.0163784,51.7491793 57.49,51.74 C38.3,51.74 22.75,68.43 22.75,89 L22.75,89.16 C10.3,90.59 0.59,101.89 0.59,115.63 C0.59,130.33 11.71,142.25 25.42,142.25 L142.49,140.92" id="_Path_400" stroke="#3B6D96" stroke-width="3" stroke-linecap="round" stroke-linejoin="round"></path>
            <path d="M84.56,54.84 C84.56,57.6014237 82.3214237,59.84 79.56,59.84 C76.7985763,59.84 74.56,57.6014237 74.56,54.84 C74.56,52.0785763 76.7985763,49.84 79.56,49.84 C82.3214237,49.84 84.56,52.0785763 84.56,54.84 Z" id="_Path_401" stroke="#3B6D96" stroke-width="3" stroke-linecap="round" stroke-linejoin="round"></path>
            <path d="M100.27,77.21 C100.27,79.9714237 98.0314237,82.21 95.27,82.21 C92.5085763,82.21 90.27,79.9714237 90.27,77.21 C90.27,74.4485763 92.5085763,72.21 95.27,72.21 C98.0314237,72.21 100.27,74.4485763 100.27,77.21 Z" id="_Path_402" stroke="#3B6D96" stroke-width="3" stroke-linecap="round" stroke-linejoin="round"></path>
            <path d="M46.6,101.93 C46.6,104.691424 44.3614237,106.93 41.6,106.93 C38.8385763,106.93 36.6,104.691424 36.6,101.93 C36.6,99.1685763 38.8385763,96.93 41.6,96.93 C44.3614237,96.93 46.6,99.1685763 46.6,101.93 Z" id="_Path_403" stroke="#3B6D96" stroke-width="3" stroke-linecap="round" stroke-linejoin="round"></path>
            <path d="M26.92,113.73 C26.92,116.491424 24.6814237,118.73 21.92,118.73 C19.1585763,118.73 16.92,116.491424 16.92,113.73 C16.92,110.968576 19.1585763,108.73 21.92,108.73 C24.6814237,108.73 26.92,110.968576 26.92,113.73 Z" id="_Path_404" stroke="#3B6D96" stroke-width="3" stroke-linecap="round" stroke-linejoin="round"></path>
            <polyline id="_Path_405" stroke="#3B6D96" stroke-width="3" stroke-linecap="round" stroke-linejoin="round" points="127.83 131.21 59.9 131.21 59.9 113.73 26.92 113.73"></polyline>
            <polyline id="_Path_406" stroke="#3B6D96" stroke-width="3" stroke-linecap="round" stroke-linejoin="round" points="63.19 96.91 63.19 71.73 79.54 71.73 79.54 59.86"></polyline>
            <polyline id="_Path_407" stroke="#3B6D96" stroke-width="3" stroke-linecap="round" stroke-linejoin="round" points="63.19 88.3 41.58 88.3 41.58 96.91"></polyline>
        </g>
    </g>
</svg>