<?xml version="1.0" encoding="UTF-8"?>
<svg width="161px" height="156px" viewBox="0 0 161 156" version="1.1" xmlns="http://www.w3.org/2000/svg" xmlns:xlink="http://www.w3.org/1999/xlink">
    <!-- Generator: Sketch 52.5 (67469) - http://www.bohemiancoding.com/sketch -->
    <title>Group-21</title>
    <desc>Created with Sketch.</desc>
    <g id="Page-1" stroke="none" stroke-width="1" fill="none" fill-rule="evenodd">
        <g id="Group-21" transform="translate(2.000000, 2.000000)">
            <path d="M77.97,39.5 L77.2,39.5 C61.99,39.9 52.66,51.88 50.13,55.59 C50.28,69.46 51.25,99.21 74.99,114.59 C76.6861,115.742418 78.9139,115.742418 80.61,114.59 C104.49,99.14 105.32,70.03 105.42,55 C102.8,51.26 93.24,39.5 77.97,39.5 Z M92.06,80.02 C92.06,87.02 86.89,92.78 80.52,92.78 L76.77,92.78 C73.5777377,92.7494483 70.5562128,91.3335646 68.49,88.9 C66.9942481,87.2120029 65.9607493,85.1656752 65.49,82.96 C65.2766242,81.9945714 65.1693214,81.0087271 65.17,80.02 L65.17,74.02 C65.1755163,70.7488574 67.8288527,68.0999953 71.1,68.1 L86.1,68.1 C87.6718135,68.0973449 89.180159,68.7198851 90.2925381,69.8303884 C91.4049172,70.9408916 92.0300022,72.4481842 92.03,74.02 L92.06,80.02 Z" id="_Compound_Path_2" fill="#9ABFE2" fill-rule="nonzero"></path>
            <g id="_Group_2" stroke-linecap="round" stroke-linejoin="round" transform="translate(65.000000, 68.000000)" stroke="#3B6D96" stroke-width="3">
                <path d="M6.16,0.07 C2.88495143,0.07 0.23,2.72495143 0.23,6 L0.23,12 C0.228760215,12.9887572 0.336069644,13.9746626 0.55,14.94 C1.01770772,17.1467464 2.05158074,19.193815 3.55,20.88 C5.61621275,23.3135646 8.63773771,24.7294483 11.83,24.76 L15.58,24.76 C21.95,24.76 27.12,19.04 27.12,12 L27.12,6 C27.1226603,4.42645218 26.4987485,2.91658732 25.3860806,1.8039194 C24.2734127,0.691251473 22.7635478,0.0673397275 21.19,0.07 L6.16,0.07 Z" id="_Path_2"></path>
            </g>
            <path d="M69.06,68.07 C68.56,61.82 73.06,56.5 78.58,56.5 C84.1,56.5 88.58,61.86 88.15,68.11" id="_Path_3" stroke="#3B6D96" stroke-width="3" stroke-linecap="round" stroke-linejoin="round"></path>
            <path d="M82.28,78.57 L81.16,80.96 L81.22,83.86 C81.2708034,85.1008665 80.430357,86.2018514 79.22,86.48 L78.91,86.48 C78.6804293,86.4998745 78.4495707,86.4998745 78.22,86.48 C76.9604341,86.2384429 76.0673356,85.1114377 76.12,83.83 C76.12,82.83 76.12,81.91 76.2,80.95 L75.08,78.55 C74.4680484,77.3285191 74.5218426,75.8791895 75.2226601,74.7064342 C75.9234776,73.5336788 77.1743783,72.7997185 78.54,72.76 L78.79,72.76 C80.153106,72.817713 81.3960874,73.5562059 82.09862,74.7257515 C82.8011525,75.8952971 82.8692933,77.3395033 82.28,78.57 Z" id="_Path_4" stroke="#3B6D96" stroke-width="3" stroke-linecap="round" stroke-linejoin="round"></path>
            <path d="M137.99,28.02 L118.37,28.02 L118.37,36.66 L106.82,36.66 C100.19,31.04 90.48,25.51 77.98,25.51 L76.88,25.51 C53.59,26.12 40.73,45.12 38.39,48.92 L37.17,50.92 L37.17,53.28 C37.28,65.03 37.54,92.45 53.91,113.18 L53.91,130.93 L36.06,130.93 L36.06,143.44" id="_Path_5" stroke="#3B6D96" stroke-width="3" stroke-linecap="round" stroke-linejoin="round"></path>
            <path d="M60.56,146.98 L60.56,139.98 L68.8,139.98 L68.8,126.69 C74.26,130.29 81.34,130.29 86.8,126.69 C118.06,106.5 118.26,68.7 118.36,52.5 L118.36,50.08 L141.11,50.08" id="_Path_6" stroke="#3B6D96" stroke-width="3" stroke-linecap="round" stroke-linejoin="round"></path>
            <path d="M109.43,53.75 C109.34,68.48 109.17,100.84 82.78,117.91 C79.7533779,119.932247 75.8066221,119.932247 72.78,117.91 C46.78,101.09 46.22,68.52 46.09,54.42 C47.18,52.64 57.82,36 77.09,35.49 C96.99,34.97 108.43,52.18 109.43,53.75 Z" id="_Path_7" stroke="#3B6D96" stroke-width="3" stroke-linecap="round" stroke-linejoin="round"></path>
            <path d="M77.8,129.39 L77.8,145.33" id="_Path_8" stroke="#3B6D96" stroke-width="3" stroke-linecap="round" stroke-linejoin="round"></path>
            <path d="M37.17,50.91 L15.63,50.91" id="_Path_9" stroke="#3B6D96" stroke-width="3" stroke-linecap="round" stroke-linejoin="round"></path>
            <polyline id="_Path_10" stroke="#3B6D96" stroke-width="3" stroke-linecap="round" stroke-linejoin="round" points="37.17 64.58 25.11 64.58 22.27 72.77 12.03 72.77"></polyline>
            <polyline id="_Path_11" stroke="#3B6D96" stroke-width="3" stroke-linecap="round" stroke-linejoin="round" points="107.75 104.19 126.33 104.19 132.78 95.11 145.86 95.11"></polyline>
            <polyline id="_Path_12" stroke="#3B6D96" stroke-width="3" stroke-linecap="round" stroke-linejoin="round" points="99.28 116.09 128.61 116.09 134.29 108.88 150.5 108.88"></polyline>
            <path d="M114.93,86.53 L125.99,86.53" id="_Path_13" stroke="#3B6D96" stroke-width="3" stroke-linecap="round" stroke-linejoin="round"></path>
            <polyline id="_Path_14" stroke="#3B6D96" stroke-width="3" stroke-linecap="round" stroke-linejoin="round" points="94.56 120.78 94.56 133.62 88.18 133.62 88.18 146.99"></polyline>
            <path d="M76.88,25.52 L76.88,14.91" id="_Path_15" stroke="#3B6D96" stroke-width="3" stroke-linecap="round" stroke-linejoin="round"></path>
            <polyline id="_Path_16" stroke="#3B6D96" stroke-width="3" stroke-linecap="round" stroke-linejoin="round" points="53.41 33.29 53.41 20.6 45.3 15.76 45.3 7.04"></polyline>
            <polyline id="_Path_17" stroke="#3B6D96" stroke-width="3" stroke-linecap="round" stroke-linejoin="round" points="42.17 43.68 42.17 31.83 33.21 25.51 33.21 12.35"></polyline>
            <polyline id="_Path_18" stroke="#3B6D96" stroke-width="3" stroke-linecap="round" stroke-linejoin="round" points="94.56 28.96 94.56 17.57 101.69 17.57 101.69 9.41"></polyline>
            <polyline id="_Path_19" stroke="#3B6D96" stroke-width="3" stroke-linecap="round" stroke-linejoin="round" points="117.29 72.77 130.5 72.77 130.5 65.52 140.74 65.52"></polyline>
            <path d="M41,86.53 L13.03,86.53" id="_Path_20" stroke="#3B6D96" stroke-width="3" stroke-linecap="round" stroke-linejoin="round"></path>
            <polyline id="_Path_21" stroke="#3B6D96" stroke-width="3" stroke-linecap="round" stroke-linejoin="round" points="50.27 108.03 34.49 108.03 34.49 117.13 14.73 117.13"></polyline>
            <path d="M44.71,97.4 L28.52,97.4" id="_Path_22" stroke="#3B6D96" stroke-width="3" stroke-linecap="round" stroke-linejoin="round"></path>
            <polyline id="_Path_23" stroke="#3B6D96" stroke-width="3" stroke-linecap="round" stroke-linejoin="round" points="104.15 123.38 104.15 139.73 125.99 139.73 125.99 145.33"></polyline>
            <polyline id="_Path_24" stroke="#3B6D96" stroke-width="3" stroke-linecap="round" stroke-linejoin="round" points="137.99 14.91 111.55 14.91 111.55 23.87"></polyline>
            <polyline id="_Path_25" stroke="#3B6D96" stroke-width="3" stroke-linecap="round" stroke-linejoin="round" points="9.19 34.25 28.52 34.25 28.52 41.92 36.06 41.92"></polyline>
            <path d="M113.44,126.56 L137.99,126.56" id="_Path_26" stroke="#3B6D96" stroke-width="3" stroke-linecap="round" stroke-linejoin="round"></path>
            <path d="M25.68,129.39 L13.03,129.39" id="_Path_27" stroke="#3B6D96" stroke-width="3" stroke-linecap="round" stroke-linejoin="round"></path>
            <path d="M9.19,34.24 C9.19404668,36.0245829 8.12215416,37.6356955 6.47457455,38.3214316 C4.82699494,39.0071678 2.92853745,38.6323392 1.66521199,37.3718784 C0.401886518,36.1114177 0.0227491687,34.213816 0.704743295,32.5646839 C1.38673742,30.9155518 2.99541248,29.8400046 4.78,29.84 C7.21167584,29.8399937 9.184486,31.8083304 9.19,34.24 Z" id="_Path_28" stroke="#3B6D96" stroke-width="3" stroke-linecap="round" stroke-linejoin="round"></path>
            <circle id="_Path_29" stroke="#3B6D96" stroke-width="3" stroke-linecap="round" stroke-linejoin="round" transform="translate(76.908499, 11.501921) rotate(-80.780000) translate(-76.908499, -11.501921) " cx="76.9084985" cy="11.5019208" r="3.29"></circle>
            <circle id="_Path_30" stroke="#3B6D96" stroke-width="3" stroke-linecap="round" stroke-linejoin="round" cx="45.3" cy="3.75" r="3.29"></circle>
            <circle id="_Path_31" stroke="#3B6D96" stroke-width="3" stroke-linecap="round" stroke-linejoin="round" cx="144.03" cy="65.32" r="3.29"></circle>
            <circle id="_Path_32" stroke="#3B6D96" stroke-width="3" stroke-linecap="round" stroke-linejoin="round" cx="129.28" cy="86.53" r="3.29"></circle>
            <circle id="_Path_33" stroke="#3B6D96" stroke-width="3" stroke-linecap="round" stroke-linejoin="round" cx="141.28" cy="28" r="3.29"></circle>
            <circle id="_Path_34" stroke="#3B6D96" stroke-width="3" stroke-linecap="round" stroke-linejoin="round" cx="9.73" cy="86.53" r="3.29"></circle>
            <circle id="_Path_35" stroke="#3B6D96" stroke-width="3" stroke-linecap="round" stroke-linejoin="round" cx="24.6" cy="97.4" r="3.29"></circle>
            <path d="M39.35,146.98 C39.35,148.310681 38.5484172,149.510334 37.3190285,150.019564 C36.0896398,150.528793 34.6745521,150.247315 33.7336187,149.306381 C32.7926853,148.365448 32.5112068,146.95036 33.0204363,145.720972 C33.5296658,144.491583 34.7293192,143.69 36.06,143.69 C37.8770168,143.69 39.35,145.162983 39.35,146.98 Z" id="_Path_36" stroke="#3B6D96" stroke-width="3" stroke-linecap="round" stroke-linejoin="round"></path>
            <path d="M81.06,148.62 C81.0544811,150.435705 79.5790631,151.90367 77.7633536,151.899993 C75.9476441,151.896317 74.4781828,150.422389 74.4800169,148.606677 C74.4818509,146.790964 75.9542868,145.320008 77.77,145.32 C78.6442976,145.319996 79.482641,145.667992 80.099924,146.287152 C80.7172069,146.906311 81.0626574,147.745706 81.06,148.62 Z" id="_Path_37" stroke="#3B6D96" stroke-width="3" stroke-linecap="round" stroke-linejoin="round"></path>
            <circle id="_Path_38" stroke="#3B6D96" stroke-width="3" stroke-linecap="round" stroke-linejoin="round" transform="translate(126.025261, 148.661365) rotate(-80.780000) translate(-126.025261, -148.661365) " cx="126.025261" cy="148.661365" r="3.29"></circle>
            <circle id="_Path_39" stroke="#3B6D96" stroke-width="3" stroke-linecap="round" stroke-linejoin="round" cx="153.79" cy="108.88" r="3.29"></circle>
        </g>
    </g>
</svg>