<?xml version="1.0" encoding="UTF-8"?>
<svg width="140px" height="140px" viewBox="0 0 140 140" version="1.1" xmlns="http://www.w3.org/2000/svg" xmlns:xlink="http://www.w3.org/1999/xlink">
    <!-- Generator: Sketch 52.5 (67469) - http://www.bohemiancoding.com/sketch -->
    <title>Group-20</title>
    <desc>Created with Sketch.</desc>
    <g id="Page-1" stroke="none" stroke-width="1" fill="none" fill-rule="evenodd">
        <g id="Group-20" transform="translate(1.000000, 1.000000)">
            <path d="M68.63,34.5 C49.9462069,34.5 34.8,49.6462069 34.8,68.33 C34.8,87.0137931 49.9462069,102.16 68.63,102.16 C87.3137931,102.16 102.46,87.0137931 102.46,68.33 C102.437958,49.6553444 87.3046556,34.5220415 68.63,34.5 Z M68.63,93.89 C54.5136018,93.89 43.07,82.4463982 43.07,68.33 C43.07,54.2136018 54.5136018,42.77 68.63,42.77 C82.7463982,42.77 94.19,54.2136018 94.19,68.33 C94.1844787,82.4424928 82.7424939,93.8800011 68.63,93.88 L68.63,93.89 Z" id="_Compound_Path_3" fill="#9ABFE2" fill-rule="nonzero"></path>
            <path d="M132.34,129.5 L99.16,99.13 L103.16,94.87 L131.96,121.48 C134.251564,123.602848 134.420581,127.169993 132.34,129.5 Z" id="_Path_40" fill="#E0C79B"></path>
            <path d="M111.6,121.8 C83.6254064,144.215451 43.0495468,141.043751 18.8977559,114.553728 C-5.25403514,88.0637044 -4.673277,47.3682159 20.2245936,21.5781716 C45.1224642,-4.21187268 85.7723072,-6.2244152 113.095865,16.9801863 C140.419423,40.1847877 145.017093,80.6238962 123.6,109.37" id="_Path_41" stroke="#3B6D96" stroke-width="3" stroke-linecap="round" stroke-linejoin="round"></path>
            <path d="M69.41,112.64 L69.41,136.82" id="_Path_42" stroke="#3B6D96" stroke-width="3" stroke-linecap="round" stroke-linejoin="round"></path>
            <path d="M68.97,0.84 L68.97,24.17" id="_Path_43" stroke="#3B6D96" stroke-width="3" stroke-linecap="round" stroke-linejoin="round"></path>
            <path d="M102.5,68.83 L136.96,68.83" id="_Path_44" stroke="#3B6D96" stroke-width="3" stroke-linecap="round" stroke-linejoin="round"></path>
            <path d="M0.98,68.83 L35.56,68.83" id="_Path_45" stroke="#3B6D96" stroke-width="3" stroke-linecap="round" stroke-linejoin="round"></path>
            <path d="M24.4,17.5 C53.4477251,26.3943666 84.4922749,26.3943666 113.54,17.5" id="_Path_46" stroke="#3B6D96" stroke-width="3" stroke-linecap="round" stroke-linejoin="round"></path>
            <path d="M108.97,118.56 C95.7013062,114.4357 81.8634206,112.437645 67.97,112.64 C53.1675963,112.753147 38.4871612,115.328306 24.53,120.26" id="_Path_47" stroke="#3B6D96" stroke-width="3" stroke-linecap="round" stroke-linejoin="round"></path>
            <path d="M52.95,2.75 C48.76,6.75 24.63,30.83 24.83,69.31 C25.03,107.21 48.69,130.79 52.95,134.9" id="_Path_48" stroke="#3B6D96" stroke-width="3" stroke-linecap="round" stroke-linejoin="round"></path>
            <path d="M85.06,2.75 C89.12,6.51 114.46,30.75 114.06,69.83 C114.044625,78.8798611 112.586317,87.8693831 109.74,96.46" id="_Path_50" stroke="#3B6D96" stroke-width="3" stroke-linecap="round" stroke-linejoin="round"></path>
            <path d="M69.41,101.81 L69.41,112.64" id="_Path_51" stroke="#3B6D96" stroke-width="3" stroke-linecap="round" stroke-linejoin="round"></path>
            <path d="M69.41,24.17 L69.41,34.87" id="_Path_52" stroke="#3B6D96" stroke-width="3" stroke-linecap="round" stroke-linejoin="round"></path>
            <g id="_Group_6" stroke-linecap="round" stroke-linejoin="round" transform="translate(35.000000, 34.000000)" stroke="#3B6D96" stroke-width="3">
                <g id="_Group_7">
                    <g id="_Group_8">
                        <g id="_Group_9">
                            <path d="M46.55,3.29 C34.0146111,-1.7517653 19.6779636,1.22041843 10.18,10.83 C-0.202844736,21.3432023 -2.47700277,37.4150471 4.5814055,50.3961781 C11.6398138,63.377309 26.3657115,70.2054805 40.8340884,67.2059874 C55.3024653,64.2064944 66.1002346,52.0869166 67.4163801,37.3696257 C68.7325255,22.6523349 60.2565685,8.80913646 46.55,3.29 Z" id="_Path_53"></path>
                            <path d="M24.41,57.79 C16.8288582,54.6780016 11.2187935,48.0943872 9.34911529,40.1155058 C7.47943712,32.1366244 9.58062369,23.7460452 14.99,17.59 C15.32,17.22 15.65,16.86 15.99,16.51 C16.33,16.16 16.46,16.05 16.7,15.84 C23.1429479,9.75467878 32.2977786,7.47924447 40.84,9.84" id="_Path_54"></path>
                            <path d="M56.87,23.22 C61.5612897,32.8929486 59.6548577,44.4717197 52.11,52.13" id="_Path_55"></path>
                            <path d="M65.94,58.98 L61.05,54.16" id="_Path_56"></path>
                            <path d="M59.33,66.11 L54.22,61.08" id="_Path_57"></path>
                        </g>
                    </g>
                    <path d="M87.96,97.56 L67.48,78.56 L56.91,68.74 L68.25,56.5 L99.25,85.35 C100.869792,86.8526361 101.825381,88.937849 101.906046,91.1458199 C101.986711,93.3537908 101.185827,95.5031739 99.68,97.12 C96.5584654,100.463372 91.3234325,100.659909 87.96,97.56 Z" id="_Path_58"></path>
                </g>
                <g id="_Group_10" transform="translate(20.000000, 17.000000)">
                    <path d="M14.48,31.25 C12.2413505,31.2367018 10.1106913,30.2860022 8.60554302,28.6288187 C7.10039476,26.9716353 6.3584785,24.7596003 6.56,22.53 L7.21,15.66 C7.57578614,11.8806905 10.7530309,8.99779546 14.55,9 C18.3962146,9.00413597 21.5925336,11.9653034 21.89,15.8 L22.42,22.68 C22.5777657,24.8882454 21.8133955,27.0631387 20.3087806,28.6871374 C18.8041657,30.3111362 16.6938468,31.2390245 14.48,31.25 Z" id="_Path_59"></path>
                    <path d="M17.81,9.77 C18.15373,9.18148263 18.3333032,8.51153658 18.33,7.83 C18.3228222,6.205336 17.2965427,4.76003939 15.7650272,4.21778051 C14.2335116,3.67552164 12.5264319,4.15302643 11.4985352,5.41120484 C10.4706384,6.66938324 10.3431883,8.43740141 11.18,9.83" id="_Path_60"></path>
                    <path d="M14.48,31.25 L14.48,17.33" id="_Path_61"></path>
                    <polyline id="_Path_62" points="11.12 9.82 5.93 9.82 3.37 7.34"></polyline>
                    <polyline id="_Path_63" points="7.14 15.77 3.85 15.77 0.17 12.95"></polyline>
                    <polyline id="_Path_64" points="6.52 23.38 3.24 23.38 1.09 26.79"></polyline>
                    <polyline id="_Path_65" points="8.54 28.6 6.52 30.49 4.81 33"></polyline>
                    <polyline id="_Path_66" points="17.98 9.82 23.17 9.82 25.73 7.34"></polyline>
                    <polyline id="_Path_67" points="21.96 15.77 25.25 15.77 28.93 12.95"></polyline>
                    <polyline id="_Path_68" points="22.59 23.38 25.87 23.38 28.01 26.79"></polyline>
                    <polyline id="_Path_69" points="20.56 28.6 22.59 30.49 24.29 33"></polyline>
                    <path d="M12.16,4.72 C11.2639253,3.49881818 11.377942,1.80968287 12.43,0.72" id="_Path_70"></path>
                    <path d="M16.8,4.72 C17.6918976,3.49760734 17.5780816,1.81144406 16.53,0.72" id="_Path_71"></path>
                </g>
            </g>
        </g>
    </g>
</svg>