<?xml version="1.0" encoding="UTF-8"?>
<svg width="164px" height="141px" viewBox="0 0 164 141" version="1.1" xmlns="http://www.w3.org/2000/svg" xmlns:xlink="http://www.w3.org/1999/xlink">
    <!-- Generator: Sketch 52.5 (67469) - http://www.bohemiancoding.com/sketch -->
    <title>_Group_318</title>
    <desc>Created with Sketch.</desc>
    <g id="Page-1" stroke="none" stroke-width="1" fill="none" fill-rule="evenodd">
        <g id="_Group_318" transform="translate(2.000000, 2.000000)">
            <path d="M122.6,101.3 L122.6,103.3 C122.597274,104.229088 123.146777,105.070996 123.998369,105.442482 C124.849962,105.813967 125.84086,105.644019 126.52,105.01 L131.19,100.67 C131.990204,99.944994 133.209796,99.944994 134.01,100.67 L141.01,106.67 C142.218529,107.709119 143.9215,107.949368 145.370332,107.285141 C146.819164,106.620914 147.748567,105.173835 147.75,103.58 L147.75,62.02 L142.22,62.02 L142.22,101.34 L132.89,92.63 L122.6,101.3 Z" id="_Path_1341" fill="#FFEB99"></path>
            <path d="M16.4999941,78.5 C16.4973458,80.7693331 17.3969749,82.946629 19.0006987,84.5522285 C20.6044225,86.157828 22.7806653,87.0600016 25.05,87.06 L32.89,87.06 C36.4798509,87.06 39.39,89.9701491 39.39,93.56 L39.39,134.37 C39.39,136.822144 41.3778557,138.81 43.83,138.81 L155.83,138.81 C158.510198,138.804485 160.680006,136.630203 160.68,133.95 L160.68,130.5 L48.11,130.5 L48.11,78.5 L16.4999941,78.5 Z" id="_Path_1342" fill="#FFEB99"></path>
            <g id="_Group_319" stroke="#847B42" stroke-linecap="round" stroke-linejoin="round" stroke-width="3">
                <path d="M150.5,49.9 C147.965351,46.5436936 144.322975,44.1945733 140.22,43.27 C136.96,32.39 127.46,24.51 116.22,24.51 C112.979284,24.5235064 109.776077,25.2043155 106.81,26.51 C102.48,11.3 89.3,0.23 73.71,0.23 C63.258515,0.314689611 53.4386137,5.2468071 47.13,13.58 C45.3472015,13.1588035 43.5218735,12.944059 41.69,12.94 C27.76,12.94 16.48,25.04 16.48,39.94 L16.48,40.05 C7.48,41.05 0.41,49.29 0.41,59.26 C0.41,69.93 8.47,78.57 18.41,78.57 L34.03,78.4 L74.56,78.4" id="_Path_1343"></path>
                <path d="M52.27,8.15 C48.2574619,11.2925879 45.3957888,15.6729868 44.13,20.61 C42.9078306,25.3743512 43.1341395,30.394929 44.78,35.03" id="_Path_1344"></path>
                <path d="M109.66,25.5 C107.55336,26.144889 105.618888,27.2556726 104,28.75 C103.068721,29.6164783 102.243006,30.5898832 101.54,31.65" id="_Path_1345"></path>
                <path d="M122.95,61.97 L122.95,101.3 L132.87,92.59 L142.21,101.3 L142.21,59.22 C142.204481,53.9551092 137.934894,49.6899971 132.67,49.69 L122.95,49.69" id="_Path_1346"></path>
                <g id="_Group_320" transform="translate(48.000000, 46.000000)">
                    <path d="M94.2,15.98 L94.2,55.3 L84.87,46.59 L74.95,55.3 L74.95,15.98 L38.83,15.98 L34.52,5.08 C33.5205409,2.56366963 31.0875515,0.911297346 28.38,0.91 L6.69,0.91 C3.05434935,0.915516927 0.109995814,3.86434517 0.11,7.5 L0.11,84.5 L111.61,84.5 L111.61,15.96 L94.2,15.98 Z" id="_Path_1347"></path>
                </g>
            </g>
            <polygon id="_Path_1348" fill="#CECE7A" points="125.93 60.58 139 60.58 139 94.08 132.87 88.72 125.93 94.46"></polygon>
        </g>
    </g>
</svg>