<?xml version="1.0" encoding="UTF-8"?>
<svg width="143px" height="148px" viewBox="0 0 143 148" version="1.1" xmlns="http://www.w3.org/2000/svg" xmlns:xlink="http://www.w3.org/1999/xlink">
    <!-- Generator: Sketch 52.5 (67469) - http://www.bohemiancoding.com/sketch -->
    <title>_Group_183</title>
    <desc>Created with Sketch.</desc>
    <g id="Page-1" stroke="none" stroke-width="1" fill="none" fill-rule="evenodd">
        <g id="_Group_183" transform="translate(1.000000, 1.000000)">
            <g id="_Group_184" transform="translate(26.000000, 0.000000)">
                <path d="M86.87,48.56 L86.87,110.06 C86.8726672,110.91216 86.5353283,111.730186 85.9327574,112.332757 C85.3301865,112.935328 84.5121598,113.272667 83.66,113.27 L3.25,113.27 C2.39865507,113.27 1.58217901,112.931805 0.980187232,112.329813 C0.378195458,111.727821 0.04,110.911345 0.04,110.06 L0.04,48.56 C0.04,46.787166 1.47716595,45.35 3.25,45.35 L83.66,45.35 C84.5113449,45.35 85.327821,45.6881955 85.9298128,46.2901872 C86.5318045,46.892179 86.87,47.7086551 86.87,48.56 Z" id="_Path_833" stroke="#847B42" stroke-width="3" stroke-linecap="round" stroke-linejoin="round"></path>
                <path d="M8.68,45.35 L8.68,36.06 C8.68,16.64 24.28,0.83 43.46,0.83 C62.64,0.83 78.23,16.64 78.23,36.06 L78.23,45.35" id="_Path_834" stroke="#847B42" stroke-width="3" stroke-linecap="round" stroke-linejoin="round"></path>
                <path d="M63.25,35 C63.25,23.81 54.37,14.7 43.46,14.7 C32.3933808,14.8536543 23.5376738,23.9329902 23.66,35" id="_Path_835" stroke="#847B42" stroke-width="3" stroke-linecap="round" stroke-linejoin="round"></path>
                <path d="M67.25,41.35 L67.25,35 C67.25,21.6 56.58,10.7 43.46,10.7 C30.34,10.7 19.66,21.6 19.66,35 L19.66,41.35 L12.66,41.35 L12.66,36.06 C12.5987798,27.836501 15.8076369,19.9256596 21.5803388,14.0685616 C27.3530406,8.2114635 35.2164786,4.88813406 43.44,4.83 C60.44,4.83 74.21,18.83 74.21,36.06 L74.21,41.35 L67.25,41.35 Z" id="_Path_836" fill="#CECE7A"></path>
            </g>
            <path d="M26.04,68.44 L112.87,68.44" id="_Path_837" stroke="#847B42" stroke-width="3" stroke-linecap="round" stroke-linejoin="round"></path>
            <path d="M26.04,91.17 L112.87,91.17" id="_Path_838" stroke="#847B42" stroke-width="3" stroke-linecap="round" stroke-linejoin="round"></path>
            <path d="M42.49,56.5 C42.49,58.2917677 41.4106652,59.9071065 39.7552876,60.5927863 C38.0999101,61.2784662 36.1944881,60.8994542 34.927517,59.632483 C33.6605458,58.3655119 33.2815338,56.4600899 33.9672137,54.8047124 C34.6528935,53.1493348 36.2682323,52.07 38.06,52.07 C40.5066214,52.07 42.49,54.0533786 42.49,56.5 Z" id="_Path_839" fill="#CECE7A"></path>
            <path d="M49.06,55.98 L88.24,55.98" id="_Path_840" stroke="#847B42" stroke-width="3" stroke-linecap="round" stroke-linejoin="round"></path>
            <path d="M42.49,80.79 C42.4844801,83.2353121 40.4986639,85.2136729 38.0533484,85.209995 C35.6080328,85.2063171 33.6281767,83.2219918 33.6300125,80.7766742 C33.6318484,78.3313566 35.6146817,76.3500062 38.06,76.35 C39.2366437,76.349997 40.3649497,76.8181003 41.1960239,77.6510505 C42.0270981,78.4840007 42.4926561,79.6133593 42.49,80.79 Z" id="_Path_841" fill="#CECE7A"></path>
            <path d="M49.06,80.3 L88.24,80.3" id="_Path_842" stroke="#847B42" stroke-width="3" stroke-linecap="round" stroke-linejoin="round"></path>
            <path d="M42.49,102.95 C42.4789661,105.393988 40.4907283,107.367328 38.0467268,107.35998 C35.6027254,107.352632 33.6263887,105.367373 33.6300501,102.923363 C33.6337115,100.479354 35.6159875,98.5000249 38.06,98.5 C39.2383825,98.499988 40.3682119,98.9694632 41.1995754,99.80458 C42.0309388,100.639697 42.49532,101.77163 42.49,102.95 Z" id="_Path_843" fill="#CECE7A"></path>
            <path d="M49.06,102.46 L88.24,102.46" id="_Path_844" stroke="#847B42" stroke-width="3" stroke-linecap="round" stroke-linejoin="round"></path>
            <g id="_Group_185" transform="translate(0.000000, 113.000000)">
                <path d="M93.48,19.69 L93.48,28.23 C93.48,30.0911996 91.9711996,31.6 90.11,31.6 L48.8,31.6 C47.9071373,31.600004 47.0509892,31.2446326 46.4205787,30.6123459 C45.7901682,29.9800592 45.4373427,29.1228588 45.44,28.23 L45.44,19.69 C45.4373427,18.7971412 45.7901682,17.9399408 46.4205787,17.3076541 C47.0509892,16.6753674 47.9071373,16.319996 48.8,16.32 L90.11,16.32 C91.0037796,16.32 91.8609523,16.6750526 92.4929499,17.3070501 C93.1249474,17.9390477 93.48,18.7962204 93.48,19.69 Z" id="_Path_845" fill="#FFEB99"></path>
                <path d="M63.59,0.84 L63.59,16.33" id="_Path_846" stroke="#847B42" stroke-width="3" stroke-linecap="round" stroke-linejoin="round"></path>
                <path d="M75.32,0.84 L75.32,16.33" id="_Path_847" stroke="#847B42" stroke-width="3" stroke-linecap="round" stroke-linejoin="round"></path>
                <path d="M93.48,19.69 L93.48,28.23 C93.48,30.0911996 91.9711996,31.6 90.11,31.6 L48.8,31.6 C47.9071373,31.600004 47.0509892,31.2446326 46.4205787,30.6123459 C45.7901682,29.9800592 45.4373427,29.1228588 45.44,28.23 L45.44,19.69 C45.4373427,18.7971412 45.7901682,17.9399408 46.4205787,17.3076541 C47.0509892,16.6753674 47.9071373,16.319996 48.8,16.32 L90.11,16.32 C91.0037796,16.32 91.8609523,16.6750526 92.4929499,17.3070501 C93.1249474,17.9390477 93.48,18.7962204 93.48,19.69 Z" id="_Path_848" stroke="#847B42" stroke-width="3" stroke-linecap="round" stroke-linejoin="round"></path>
                <path d="M45.43,19.69 L0.57,19.69" id="_Path_849" stroke="#847B42" stroke-width="3" stroke-linecap="round" stroke-linejoin="round"></path>
                <path d="M45.43,29.29 L0.57,29.29" id="_Path_850" stroke="#847B42" stroke-width="3" stroke-linecap="round" stroke-linejoin="round"></path>
                <path d="M139.91,19.69 L93.48,19.69" id="_Path_851" stroke="#847B42" stroke-width="3" stroke-linecap="round" stroke-linejoin="round"></path>
                <path d="M138.76,29.29 L93.48,29.29" id="_Path_852" stroke="#847B42" stroke-width="3" stroke-linecap="round" stroke-linejoin="round"></path>
            </g>
        </g>
    </g>
</svg>