<?xml version="1.0" encoding="UTF-8"?>
<svg width="160px" height="168px" viewBox="0 0 160 168" version="1.1" xmlns="http://www.w3.org/2000/svg" xmlns:xlink="http://www.w3.org/1999/xlink">
    <!-- Generator: Sketch 52.5 (67469) - http://www.bohemiancoding.com/sketch -->
    <title>_Group_234</title>
    <desc>Created with Sketch.</desc>
    <g id="Page-1" stroke="none" stroke-width="1" fill="none" fill-rule="evenodd">
        <g id="_Group_234" transform="translate(2.000000, 2.000000)">
            <path d="M7.62,0.13 L7.62,34.5 L50.97,34.5 L50.97,0.14 L7.62,0.13 Z M24.1,19.13 L14.1,19.13 L14.1,11.02 L24.1,11.02 L24.1,19.13 Z M44.49,19.13 L34.49,19.13 L34.49,11.02 L44.49,11.02 L44.49,19.13 Z" id="_Compound_Path_32" fill="#CECE7A" fill-rule="nonzero"></path>
            <g id="_Group_235" transform="translate(82.000000, 37.000000)">
                <path d="M37.7,78.59 C43.4807717,78.5423584 48.9730008,76.0573406 52.8248812,71.7465856 C56.6767617,67.4358306 58.5305601,61.6996886 57.93,55.95 L56.08,38.25 C55.0528164,28.5445302 46.8395241,21.1957951 37.08,21.25 C27.1698293,21.346057 18.9980629,29.0432776 18.31,38.93 L17.1,56.68 C16.7103271,62.3734996 18.7104223,67.9719226 22.6195431,72.1296331 C26.5286639,76.2873436 31.99331,78.6283615 37.7,78.59 Z" id="_Path_1045" stroke="#847B42" stroke-width="3" stroke-linecap="round" stroke-linejoin="round"></path>
                <path d="M37.52,75.15 C32.947006,75.1411442 28.5820058,73.2382476 25.4631132,69.8938701 C22.3442206,66.5494925 20.7501449,62.062493 21.06,57.5 L22.36,38.58 C22.9338041,30.8348847 29.3245635,24.8085678 37.09,24.69 L37.22,24.69 C44.8546197,24.6756816 51.2596071,30.4453565 52.04,38.04 L54.04,56.91 C54.5249575,61.5437486 53.0319158,66.1669897 49.928343,69.6418488 C46.8247702,73.116708 42.3988892,75.1204816 37.74,75.16 L37.52,75.15 Z" id="_Path_1046" fill="#FFEB99"></path>
                <path d="M45.73,23.29 C47.5660462,20.2107763 47.5978179,16.3804855 45.8131042,13.2712282 C44.0283905,10.1619709 40.7049175,8.25759047 37.12,8.29 C33.5627996,8.31436412 30.2903776,10.2396784 28.5412833,13.337248 C26.792189,16.4348175 26.8336599,20.2313767 28.65,23.29" id="_Path_1047" stroke="#847B42" stroke-width="3" stroke-linecap="round" stroke-linejoin="round"></path>
                <path d="M37.7,78.59 L37.4,42.72" id="_Path_1048" stroke="#847B42" stroke-width="3" stroke-linecap="round" stroke-linejoin="round"></path>
                <polyline id="_Path_1049" stroke="#847B42" stroke-width="3" stroke-linecap="round" stroke-linejoin="round" points="45.89 23.29 59.26 23.18 65.8 16.74"></polyline>
                <polyline id="_Path_1050" stroke="#847B42" stroke-width="3" stroke-linecap="round" stroke-linejoin="round" points="56.27 38.53 64.74 38.46 74.16 31.13"></polyline>
                <polyline id="_Path_1051" stroke="#847B42" stroke-width="3" stroke-linecap="round" stroke-linejoin="round" points="58.04 58.12 66.49 58.05 72.08 66.8"></polyline>
                <polyline id="_Path_1052" stroke="#847B42" stroke-width="3" stroke-linecap="round" stroke-linejoin="round" points="52.93 71.61 58.19 76.45 62.64 82.87"></polyline>
                <polyline id="_Path_1053" stroke="#847B42" stroke-width="3" stroke-linecap="round" stroke-linejoin="round" points="28.21 23.44 14.84 23.55 8.19 17.22"></polyline>
                <polyline id="_Path_1054" stroke="#847B42" stroke-width="3" stroke-linecap="round" stroke-linejoin="round" points="18.08 38.85 9.61 38.92 0.07 31.75"></polyline>
                <polyline id="_Path_1055" stroke="#847B42" stroke-width="3" stroke-linecap="round" stroke-linejoin="round" points="16.64 58.47 8.19 58.54 2.75 67.38"></polyline>
                <polyline id="_Path_1056" stroke="#847B42" stroke-width="3" stroke-linecap="round" stroke-linejoin="round" points="21.97 71.87 16.8 76.8 12.45 83.29"></polyline>
                <path d="M43.11,10.18 C45.309035,7.03592465 44.9869367,2.77753329 42.34,0" id="_Path_1057" stroke="#847B42" stroke-width="3" stroke-linecap="round" stroke-linejoin="round"></path>
                <path d="M31.15,10.28 C28.895613,7.1745097 29.1467442,2.90946619 31.75,0.09" id="_Path_1058" stroke="#847B42" stroke-width="3" stroke-linecap="round" stroke-linejoin="round"></path>
            </g>
            <polyline id="_Path_1059" stroke="#847B42" stroke-width="3" stroke-linecap="round" stroke-linejoin="round" points="7.62 34.49 7.62 0.13 50.96 0.13 50.96 34.49"></polyline>
            <rect id="_Path_1060" stroke="#847B42" stroke-width="3" stroke-linecap="round" stroke-linejoin="round" x="14.09" y="11.02" width="10" height="8.11"></rect>
            <rect id="_Path_1061" stroke="#847B42" stroke-width="3" stroke-linecap="round" stroke-linejoin="round" x="34.48" y="11.02" width="10" height="8.11"></rect>
            <path d="M13.33,111.62 L3.74,101.69 C1.51798626,99.3947929 0.276987118,96.3245753 0.28,93.13 L0.28,38.5 C0.28,36.290861 2.070861,34.5 4.28,34.5 L54.22,34.5 C56.429139,34.5 58.22,36.290861 58.22,38.5 L58.22,93.11 C58.2230129,96.3045753 56.9820137,99.3747929 54.76,101.67 L45.17,111.6" id="_Path_1062" stroke="#847B42" stroke-width="3" stroke-linecap="round" stroke-linejoin="round"></path>
            <path d="M37.65,133.42 L20.92,133.42" id="_Path_1063" stroke="#847B42" stroke-width="3" stroke-linecap="round" stroke-linejoin="round"></path>
            <path d="M37.65,125.29 L37.65,138.89 C37.65,140.392215 36.4322145,141.61 34.93,141.61 L23.64,141.61 C22.9195273,141.610005 22.2287084,141.323116 21.7201964,140.812727 C21.2116844,140.302339 20.9273414,139.610468 20.93,138.89 L20.9299815,125.29" id="_Path_1064" stroke="#847B42" stroke-width="3" stroke-linecap="round" stroke-linejoin="round"></path>
            <g id="_Group_236" transform="translate(13.000000, 111.000000)" stroke="#847B42" stroke-linecap="round" stroke-linejoin="round" stroke-width="3">
                <path d="M32.25,0.62 L32.25,8.43 C32.25,11.6663886 29.6263886,14.29 26.39,14.29 L6.19,14.29 C2.95361137,14.29 0.33,11.6663886 0.33,8.43 L0.33,0.62" id="_Path_1065"></path>
            </g>
            <path d="M34.5,104.77 C34.5,107.647404 32.1674035,109.98 29.29,109.98 C26.4125965,109.98 24.08,107.647404 24.08,104.77 C24.08,101.892596 26.4125965,99.56 29.29,99.56 C30.6717779,99.56 31.9969618,100.108909 32.9740263,101.085974 C33.9510909,102.063038 34.5,103.388222 34.5,104.77 Z" id="_Path_1066" stroke="#847B42" stroke-width="3" stroke-linecap="round" stroke-linejoin="round"></path>
            <g id="_Group_237" transform="translate(15.000000, 40.000000)" stroke="#847B42" stroke-linecap="round" stroke-linejoin="round" stroke-width="3">
                <circle id="_Path_1067" cx="4.29" cy="32.65" r="3.8"></circle>
                <path d="M14.27,59.56 L14.27,9.9" id="_Path_1068"></path>
                <polyline id="_Path_1069" points="14.27 52.6 4.29 46.55 4.29 36.45"></polyline>
                <polyline id="_Path_1070" points="14.27 37.73 24.25 31.68 24.25 21.58"></polyline>
                <rect id="_Rectangle_65" x="20.71" y="14.51" width="7.07" height="7.07"></rect>
                <polygon id="_Path_1071" points="9.28 9.9 14.27 0.14 18.96 9.9"></polygon>
            </g>
            <path d="M29.27,141.61 L29.27,150.82 C29.27,157.93895 35.0410496,163.71 42.16,163.71 L106.61,163.71 C113.72895,163.71 119.5,157.93895 119.5,150.82 L119.5,116" id="_Path_1072" stroke="#847B42" stroke-width="3" stroke-linecap="round" stroke-linejoin="round"></path>
        </g>
    </g>
</svg>