<?xml version="1.0" encoding="UTF-8"?>
<svg width="152px" height="151px" viewBox="0 0 152 151" version="1.1" xmlns="http://www.w3.org/2000/svg" xmlns:xlink="http://www.w3.org/1999/xlink">
    <!-- Generator: Sketch 52.5 (67469) - http://www.bohemiancoding.com/sketch -->
    <title>_Group_298</title>
    <desc>Created with Sketch.</desc>
    <g id="Page-1" stroke="none" stroke-width="1" fill="none" fill-rule="evenodd">
        <g id="_Group_298" transform="translate(2.000000, 1.000000)">
            <path d="M27.78,28.26 L27.78,120.68 L120.19,120.68 L120.19,28.26 L27.78,28.26 Z M102.57,69.5 L95.72,74.74 C95.1977829,75.1407416 94.5582573,75.358602 93.9,75.36 L87.9,75.36 L88.53,83.56 C88.6786599,83.5329244 88.8290225,83.5162175 88.98,83.51 L95.06,83.51 C96.0929485,83.5113754 97.0525377,84.0440607 97.6,84.92 L101.6,91.27 C102.19853,92.1780555 102.258742,93.3389269 101.757367,94.3040315 C101.255993,95.2691361 100.271561,95.8873126 99.1844752,95.919686 C98.0973896,95.9520593 97.0779166,95.3935589 96.52,94.46 L93.41,89.46 L88.97,89.46 C88.7651515,89.4608789 88.5607515,89.440774 88.36,89.4 C88.0448067,90.878305 87.5016511,92.2986064 86.75,93.61 C86.9270574,93.7186353 87.0943519,93.8424332 87.25,93.98 L91.02,97.51 C91.1790599,97.6624688 91.3230586,97.8299092 91.45,98.01 L94.62,102.68 C95.5505998,104.060712 95.1857119,105.9344 93.805,106.865 C92.4242881,107.7956 90.5505998,107.430712 89.62,106.05 L86.62,101.66 L83.09,98.37 C82.9943846,98.2716949 82.9042485,98.1682053 82.82,98.06 C81.0522972,99.4142467 79.0010839,100.350967 76.82,100.8 L76.82,101.12 C76.82,102.776854 75.4768542,104.12 73.82,104.12 C72.1631458,104.12 70.82,102.776854 70.82,101.12 L70.82,100.8 C68.7057503,100.367977 66.7121454,99.4769996 64.98,98.19 C64.93,98.25 64.89,98.31 64.83,98.37 L61.3,101.66 L58.3,106.05 C57.7411887,106.876736 56.8078782,107.371503 55.81,107.37 C55.210628,107.368383 54.6254805,107.187266 54.13,106.85 C53.4704161,106.40353 53.0154501,105.713093 52.8653841,104.930874 C52.715318,104.148654 52.8824711,103.338866 53.33,102.68 L56.51,98.01 C56.6339926,97.8276305 56.7782457,97.6598944 56.94,97.51 L60.71,93.98 C60.8023452,93.901138 60.8991735,93.8276821 61,93.76 C60.2210624,92.4114568 59.6544229,90.9510108 59.32,89.43 L58.99,89.43 L54.55,89.43 L51.44,94.43 C50.8820834,95.3635589 49.8626104,95.9220593 48.7755248,95.889686 C47.6884391,95.8573126 46.7040075,95.2391361 46.202633,94.2740315 C45.7012585,93.3089269 45.7614697,92.1480555 46.36,91.24 L50.36,84.89 C50.9093464,84.0110436 51.8734956,83.4779258 52.91,83.48 L59.06,83.48 L59.26,83.48 L60.05,75.31 L54.05,75.31 C53.3917427,75.308602 52.7522171,75.0907416 52.23,74.69 L45.41,69.5 C44.391327,68.7182975 43.9830874,67.3749668 44.3945578,66.1586422 C44.8060282,64.9423176 45.945965,64.1227195 47.23,64.12 C47.8882573,64.121398 48.5277829,64.3392584 49.05,64.74 L55.05,69.36 L60.16,69.36 C60.3889355,69.3613113 60.617011,69.3881437 60.84,69.44 C61.4259965,67.5287264 62.4264384,65.7702705 63.77,64.29 L57.91,64.29 C57.1292703,64.2894149 56.3795229,63.9844937 55.82,63.44 L51.06,58.87 C50.1780532,58.0199419 49.9014871,56.7190757 50.3613382,55.5837494 C50.8211894,54.4484231 51.9250845,53.7066972 53.15,53.71 C53.9272671,53.7131799 54.6729604,54.0179104 55.23,54.56 L59.12,58.33 L63.69,58.33 C63.69,58.09 63.69,57.86 63.69,57.62 C63.6931623,55.3102494 64.4832422,53.0705138 65.93,51.27 C64.8552354,48.2243764 65.5774694,44.8333523 67.8,42.49 C68.3300108,41.8952183 69.0748328,41.535675 69.8702256,41.4906527 C70.6656184,41.4456305 71.4462559,41.7188271 72.04,42.25 C73.272139,43.3528766 73.379484,45.2448328 72.28,46.48 C71.9535736,46.8367121 71.7079822,47.2596751 71.56,47.72 C72.3139308,47.5429782 73.0855694,47.4523945 73.86,47.45 C74.6376629,47.4535175 75.4124879,47.5440814 76.17,47.72 C76.0220627,47.2574536 75.7726547,46.8338015 75.44,46.48 C74.3430494,45.2421563 74.4548781,43.3500143 75.69,42.25 C76.2355113,41.7499828 76.9500178,41.4748978 77.69,41.48 C78.5450572,41.47888 79.3599621,41.8426768 79.93,42.48 C82.1525306,44.8233523 82.8747646,48.2143764 81.8,51.26 C83.2510306,53.058132 84.0416592,55.2994231 84.04,57.61 C84.04,57.85 84.04,58.08 84.04,58.32 L88.87,58.32 L92.76,54.55 C93.5299073,53.8033147 94.6396829,53.5240897 95.671285,53.8175064 C96.7028871,54.1109232 97.4995907,54.9324047 97.7612852,55.9725067 C98.0229798,57.0126087 97.7099076,58.113315 96.94,58.86 L92.11,63.5 C91.5529604,64.0420896 90.8072671,64.3468201 90.03,64.35 L84.13,64.35 C85.4664759,65.8353942 86.4659788,67.5921996 87.06,69.5 C87.2917576,69.4393127 87.5304303,69.4090584 87.77,69.41 L92.87,69.41 L98.87,64.79 C99.387332,64.3873094 100.024415,64.169082 100.68,64.17 C101.965873,64.1684396 103.109741,64.9865356 103.52383,66.203911 C103.937919,67.4212864 103.530128,68.7671771 102.51,69.55 L102.57,69.5 Z" id="_Compound_Path_43" fill="#CECE7A" fill-rule="nonzero"></path>
            <g id="_Group_299" stroke="#847B42" stroke-linecap="round" stroke-linejoin="round" stroke-width="3">
                <rect id="_Rectangle_92" x="17.75" y="18.24" width="112.47" height="112.47"></rect>
                <polyline id="_Path_1248" points="44.78 120.68 27.78 120.68 27.78 28.27 101.81 28.27"></polyline>
                <polyline id="_Path_1249" points="120.19 49.97 120.19 120.68 74.83 120.68"></polyline>
                <g id="_Group_300" transform="translate(32.000000, 0.000000)">
                    <path d="M1.14,18.24 L1.14,0.87" id="_Path_1250"></path>
                    <path d="M17.48,18.24 L17.48,0.87" id="_Path_1251"></path>
                    <path d="M33.82,18.24 L33.82,0.87" id="_Path_1252"></path>
                    <path d="M50.16,18.24 L50.16,0.87" id="_Path_1253"></path>
                    <path d="M66.49,18.24 L66.49,0.87" id="_Path_1254"></path>
                    <path d="M82.83,18.24 L82.83,0.87" id="_Path_1255"></path>
                </g>
                <g id="_Group_301" transform="translate(32.000000, 130.000000)">
                    <path d="M1.14,18.08 L1.14,0.7" id="_Path_1256"></path>
                    <path d="M17.48,18.08 L17.48,0.7" id="_Path_1257"></path>
                    <path d="M33.82,18.08 L33.82,0.7" id="_Path_1258"></path>
                    <path d="M50.16,18.08 L50.16,0.7" id="_Path_1259"></path>
                    <path d="M66.49,18.08 L66.49,0.7" id="_Path_1260"></path>
                    <path d="M82.83,18.08 L82.83,0.7" id="_Path_1261"></path>
                </g>
                <g id="_Group_302" transform="translate(130.000000, 33.000000)">
                    <path d="M17.59,82.32 L0.22,82.32" id="_Path_1262"></path>
                    <path d="M17.59,65.98 L0.22,65.98" id="_Path_1263"></path>
                    <path d="M17.59,49.64 L0.22,49.64" id="_Path_1264"></path>
                    <path d="M17.59,33.3 L0.22,33.3" id="_Path_1265"></path>
                    <path d="M17.59,16.97 L0.22,16.97" id="_Path_1266"></path>
                    <path d="M17.59,0.63 L0.22,0.63" id="_Path_1267"></path>
                </g>
                <g id="_Group_303" transform="translate(0.000000, 33.000000)">
                    <path d="M17.75,82.32 L0.38,82.32" id="_Path_1268"></path>
                    <path d="M17.75,65.98 L0.38,65.98" id="_Path_1269"></path>
                    <path d="M17.75,49.64 L0.38,49.64" id="_Path_1270"></path>
                    <path d="M17.75,33.3 L0.38,33.3" id="_Path_1271"></path>
                    <path d="M17.75,16.97 L0.38,16.97" id="_Path_1272"></path>
                    <path d="M17.75,0.63 L0.38,0.63" id="_Path_1273"></path>
                </g>
            </g>
            <path d="M80.06,61.23 C81.5857942,58.6175074 81.3102648,55.3288909 79.3710297,53.0067082 C77.4317945,50.6845254 74.2449907,49.8270894 71.4023237,50.8626617 C68.5596568,51.898234 66.6711294,54.6045931 66.68,57.63 C66.666812,58.9318168 67.0128251,60.2120651 67.68,61.33" id="_Path_1274" stroke="#847B42" stroke-width="3" stroke-linecap="round" stroke-linejoin="round"></path>
            <path d="M73.85,101.21 L73.85,75.31" id="_Path_1275" stroke="#847B42" stroke-width="3" stroke-linecap="round" stroke-linejoin="round"></path>
            <polyline id="_Path_1276" stroke="#847B42" stroke-width="3" stroke-linecap="round" stroke-linejoin="round" points="67.6 61.33 57.95 61.33 53.18 56.72"></polyline>
            <polyline id="_Path_1277" stroke="#847B42" stroke-width="3" stroke-linecap="round" stroke-linejoin="round" points="60.19 72.4 54.08 72.4 47.23 67.16"></polyline>
            <polyline id="_Path_1278" stroke="#847B42" stroke-width="3" stroke-linecap="round" stroke-linejoin="round" points="59.04 86.56 52.94 86.56 48.95 92.91"></polyline>
            <polyline id="_Path_1279" stroke="#847B42" stroke-width="3" stroke-linecap="round" stroke-linejoin="round" points="62.81 96.27 59.04 99.79 55.86 104.46"></polyline>
            <polyline id="_Path_1280" stroke="#847B42" stroke-width="3" stroke-linecap="round" stroke-linejoin="round" points="80.37 61.33 90.03 61.33 94.79 56.72"></polyline>
            <polyline id="_Path_1281" stroke="#847B42" stroke-width="3" stroke-linecap="round" stroke-linejoin="round" points="87.78 72.4 93.9 72.4 100.75 67.16"></polyline>
            <polyline id="_Path_1282" stroke="#847B42" stroke-width="3" stroke-linecap="round" stroke-linejoin="round" points="88.94 86.56 95.04 86.56 99.02 92.91"></polyline>
            <polyline id="_Path_1283" stroke="#847B42" stroke-width="3" stroke-linecap="round" stroke-linejoin="round" points="85.17 96.27 88.94 99.79 92.11 104.46"></polyline>
            <path d="M69.53,51.84 C67.9371354,49.579045 68.1588389,46.5086616 70.06,44.5" id="_Path_1284" stroke="#847B42" stroke-width="3" stroke-linecap="round" stroke-linejoin="round"></path>
            <path d="M78.17,51.84 C79.7819819,49.581961 79.5725606,46.4992794 77.67,44.48" id="_Path_1285" stroke="#847B42" stroke-width="3" stroke-linecap="round" stroke-linejoin="round"></path>
            <path d="M82.52,94.42 C80.9988802,96.0761148 79.0288416,97.2539685 76.85,97.81 C74.8764746,98.2702138 72.8235254,98.2702138 70.85,97.81 C65.7249105,96.4548683 62.1307519,91.8507469 62.06,86.55 C62.06,86.13 62.06,85.7 62.06,85.27 L63.32,72.5 C63.6466547,68.957895 65.721767,65.8133307 68.85,64.12 L69.31,63.88 C72.4979484,62.3441377 76.2384568,62.4804481 79.3061589,64.2442768 C82.3738611,66.0081056 84.3734974,69.1721913 84.65,72.7 L85.65,85.52 C85.9020103,88.7944755 84.766196,92.0241071 82.52,94.42 Z" id="_Path_1286" stroke="#847B42" stroke-width="3" stroke-linecap="round" stroke-linejoin="round"></path>
        </g>
    </g>
</svg>