<?xml version="1.0" encoding="UTF-8"?>
<svg width="119px" height="171px" viewBox="0 0 119 171" version="1.1" xmlns="http://www.w3.org/2000/svg" xmlns:xlink="http://www.w3.org/1999/xlink">
    <!-- Generator: Sketch 52.5 (67469) - http://www.bohemiancoding.com/sketch -->
    <title>_Group_312</title>
    <desc>Created with Sketch.</desc>
    <g id="Page-1" stroke="none" stroke-width="1" fill="none" fill-rule="evenodd">
        <g id="_Group_312" transform="translate(1.000000, 2.000000)">
            <g id="_Group_313" transform="translate(55.000000, 106.000000)" stroke="#847B42" stroke-linecap="round" stroke-linejoin="round" stroke-width="3">
                <polygon id="_Path_1330" points="33.32 11.25 33.32 22.54 22.35 22.54 22.35 33.51 11.08 33.51 11.08 22.54 0.11 22.54 0.11 11.25 11.08 11.25 11.08 0.28 22.35 0.28 22.35 11.25"></polygon>
            </g>
            <g id="_Group_314">
                <path d="M71.72,77.89 C53.6922083,77.8859552 37.4373001,88.7425222 30.5355601,105.396869 C23.63382,122.051216 27.4445712,141.223208 40.190715,153.972212 C52.9368588,166.721216 72.1079948,170.536269 88.7638901,163.638267 C105.419785,156.740264 116.28,140.487792 116.28,122.46 C116.280001,97.8485734 96.331426,77.895522 71.72,77.89 Z M71.72,157.76 C52.2243668,157.737896 36.4379498,141.915648 36.4600453,122.420015 C36.4821408,102.924382 52.3043818,87.1379581 71.8000151,87.1600453 C91.2956483,87.1821325 107.082079,103.004367 107.06,122.5 C107.010394,141.984207 91.2042694,157.754551 71.72,157.76 Z" id="_Compound_Path_46" fill="#CECE7A" fill-rule="nonzero"></path>
                <g id="_Group_315" stroke="#847B42" stroke-linecap="round" stroke-linejoin="round" stroke-width="3">
                    <g id="_Group_316">
                        <path d="M73.67,167.08 L14.22,167.08 C6.79729296,167.08 0.78,161.062707 0.78,153.64 L0.78,57.5" id="_Path_1331"></path>
                        <path d="M74.86,57.45 L74.86,68.97" id="_Path_1332"></path>
                        <path d="M40.76,57.5 L0.76,57.5 L0.76,47.3 C0.76,43.643875 3.72387496,40.68 7.38,40.68 L68.22,40.68 C71.876125,40.68 74.84,43.643875 74.84,47.3 L74.84,57.5 L61.84,57.5" id="_Path_1333"></path>
                        <polyline id="_Path_1334" points="12.22 40.63 12.22 0.05 63.42 0.05 63.42 40.63"></polyline>
                        <g id="_Group_317" transform="translate(19.000000, 12.000000)">
                            <polyline id="_Path_1335" points="12.68 5.7 12.68 10.49 0.87 10.49 0.87 0.91 7.31 0.91"></polyline>
                            <polyline id="_Path_1336" points="36.77 5.7 36.77 10.49 24.96 10.49 24.96 0.91 31.39 0.91"></polyline>
                        </g>
                    </g>
                    <path d="M73.67,167.03 C94.7360649,166.066006 112.238936,150.460667 115.603431,129.642681 C118.967927,108.824694 107.271823,88.5003676 87.5818711,80.9495961 C67.8919187,73.3988246 45.6052241,80.6913097 34.18734,98.4209543 C22.7694559,116.150599 25.350077,139.457626 40.37,154.26" id="_Path_1337"></path>
                    <path d="M49.06,95.99 C61.4390718,85.3989277 79.4998595,84.7845869 92.57,94.51" id="_Path_1338"></path>
                    <path d="M104.54,134.24 C99.4718374,148.344164 85.9603175,157.634148 70.9765571,157.316887 C55.9927968,156.999627 42.8866154,147.14605 38.42,132.84" id="_Path_1339"></path>
                </g>
                <path d="M66.12,63.21 L6.46,63.21 L6.46,150.08 C6.41439889,152.977477 7.45214936,155.787605 9.37,157.96 C11.17,159.96 14.04,161.67 18.63,161.96 L31.58,161.96 C32.3482068,161.962658 33.0858613,161.659351 33.6300061,161.117082 C34.174151,160.574814 34.4800046,159.838211 34.48,159.07 C34.48,157.468374 33.1816258,156.17 31.58,156.17 L20.22,156.17 C18.7153132,156.178156 17.2294021,155.83578 15.88,155.17 C13.4937224,154.16859 12.0183939,151.750019 12.22,149.17 L12.22,122.88 C12.22,93.111852 36.351852,68.98 66.12,68.98 C67.7105801,68.98 69,67.6905801 69,66.1 C69.0026582,65.3344454 68.7004044,64.5993344 68.1600112,64.0570649 C67.6196181,63.5147954 66.8855593,63.2099954 66.12,63.21 Z" id="_Path_1340" fill="#FFEB99"></path>
            </g>
        </g>
    </g>
</svg>