<?xml version="1.0" encoding="UTF-8"?>
<svg width="187px" height="139px" viewBox="0 0 187 139" version="1.1" xmlns="http://www.w3.org/2000/svg" xmlns:xlink="http://www.w3.org/1999/xlink">
    <!-- Generator: Sketch 52.5 (67469) - http://www.bohemiancoding.com/sketch -->
    <title>_Group_160</title>
    <desc>Created with Sketch.</desc>
    <g id="Page-1" stroke="none" stroke-width="1" fill="none" fill-rule="evenodd">
        <g id="_Group_160" transform="translate(2.000000, 2.000000)">
            <path d="M127.83,31.78 C135.49832,35.0616521 140.432628,42.6417655 140.329715,50.9821361 C140.226801,59.3225068 135.106959,66.7785601 127.36,69.87 C124.751288,71.0073053 123.300385,73.8207357 123.886415,76.6055893 C124.472445,79.3904428 126.934173,81.3805193 129.78,81.37 C130.607057,81.3715643 131.425046,81.1977417 132.18,80.86 C143.482527,76.0620627 151.203118,65.404876 152.24,53.17 C153.24,39.44 144.92,25.77 132.35,20.66 C129.19,19.38 124.06,19.08 120.18,19.08 L127.83,31.78 Z" id="_Path_751" fill="#FFEB99"></path>
            <g id="_Group_161" transform="translate(94.000000, 45.000000)" fill="#CECE7A">
                <polygon id="_Path_752" points="10.4 46.68 2.58 46.68 0.02 0.2 12.69 0.2"></polygon>
                <path d="M6.94,65.38 L5.78,65.38 C4.2771428,65.3826552 2.83492929,64.7875079 1.77130959,63.7257641 C0.707689888,62.6640202 0.109997654,61.2228596 0.11,59.72 C0.109997654,58.2171404 0.707689888,56.7759798 1.77130959,55.7142359 C2.83492929,54.6524921 4.2771428,54.0573448 5.78,54.06 L6.94,54.06 C8.44193941,54.0573393 9.88312897,54.6528046 10.9451622,55.7148378 C12.0071954,56.776871 12.6026607,58.2180606 12.6,59.72 C12.6026607,61.2219394 12.0071954,62.663129 10.9451622,63.7251622 C9.88312897,64.7871954 8.44193941,65.3826607 6.94,65.38 Z" id="_Path_753"></path>
            </g>
            <g id="_Group_162" transform="translate(17.000000, 0.000000)" stroke="#847B42" stroke-linecap="round" stroke-linejoin="round" stroke-width="3">
                <path d="M28.06,131.37 L4.65,131.37 C3.09167288,131.371555 1.65685281,130.522111 0.908746853,129.155099 C0.1606409,127.788086 0.218648483,126.121683 1.06,124.81 L79.81,2.07 C80.5959989,0.849463765 81.9482758,0.11188235 83.4,0.11188235 C84.8517242,0.11188235 86.2040011,0.849463765 86.99,2.07 L117.99,50.39" id="_Path_754"></path>
                <path d="M133.67,74.9 L165.67,124.81 C166.510385,126.120175 166.569295,127.784395 165.823652,129.150713 C165.07801,130.51703 163.646535,131.3679 162.09,131.37 L75.89,131.37" id="_Path_755"></path>
                <polyline id="_Path_756" points="88.43 27.86 83.36 19.96 20.01 118.7 33.37 118.7"></polyline>
                <path d="M109.02,59.96 L88.43,27.86" id="_Path_757"></path>
                <polyline id="_Path_758" points="72.77 118.7 146.71 118.7 125.35 85.41"></polyline>
            </g>
            <g id="_Group_163" transform="translate(94.000000, 45.000000)" stroke="#847B42" stroke-linecap="round" stroke-linejoin="round" stroke-width="3">
                <polygon id="_Path_759" points="10.4 46.68 2.58 46.68 0.02 0.2 12.69 0.2"></polygon>
                <path d="M6.94,65.38 L5.78,65.38 C4.2771428,65.3826552 2.83492929,64.7875079 1.77130959,63.7257641 C0.707689888,62.6640202 0.109997654,61.2228596 0.11,59.72 C0.109997654,58.2171404 0.707689888,56.7759798 1.77130959,55.7142359 C2.83492929,54.6524921 4.2771428,54.0573448 5.78,54.06 L6.94,54.06 C8.44193941,54.0573393 9.88312897,54.6528046 10.9451622,55.7148378 C12.0071954,56.776871 12.6026607,58.2180606 12.6,59.72 C12.6026607,61.2219394 12.0071954,62.663129 10.9451622,63.7251622 C9.88312897,64.7871954 8.44193941,65.3826607 6.94,65.38 Z" id="_Path_760"></path>
            </g>
            <g id="_Group_164" transform="translate(52.000000, 96.000000)" stroke="#847B42" stroke-linecap="round" stroke-linejoin="round" stroke-width="3">
                <path d="M17.76,37.22 C15.0580893,37.2161162 12.4834469,36.0714518 10.6704977,34.0680667 C8.85754848,32.0646817 7.97488252,29.3888751 8.24,26.7 L9.05,18.42 C9.49343213,13.8730461 13.3214888,10.4087415 17.89,10.42 C22.5267964,10.4280568 26.3749912,14.0060499 26.72,18.63 L27.34,26.92 C27.5407236,29.5830434 26.6207328,32.2089965 24.8019204,34.1645046 C22.9831081,36.1200127 20.4305867,37.2275539 17.76,37.22 Z" id="_Path_761"></path>
                <path d="M21.83,11.35 C22.9635378,9.39378269 22.5221109,6.90535227 20.7848766,5.45838612 C19.0476423,4.01141996 16.5204117,4.02721516 14.8013995,5.49578285 C13.0823872,6.96435054 12.672099,9.45810418 13.83,11.4" id="_Path_762"></path>
                <path d="M17.76,37.23 L17.79,20.46" id="_Path_763"></path>
                <polyline id="_Path_764" points="13.77 11.4 7.52 11.39 4.44 8.4"></polyline>
                <polyline id="_Path_765" points="8.96 18.56 5 18.55 0.57 15.15"></polyline>
                <polyline id="_Path_766" points="8.19 27.72 4.24 27.71 1.65 31.82"></polyline>
                <polyline id="_Path_767" points="10.62 34.01 8.17 36.29 6.11 39.3"></polyline>
                <polyline id="_Path_768" points="22.03 11.42 28.28 11.43 31.37 8.45"></polyline>
                <polyline id="_Path_769" points="26.81 18.59 30.77 18.6 35.21 15.22"></polyline>
                <polyline id="_Path_770" points="27.54 27.76 31.49 27.77 34.06 31.89"></polyline>
                <polyline id="_Path_771" points="25.09 34.04 27.53 36.33 29.57 39.35"></polyline>
                <path d="M15.06,5.26 C14.0242207,3.79669817 14.1622054,1.80637338 15.39,0.5" id="_Path_772"></path>
                <path d="M20.62,5.27 C21.6611775,3.81133382 21.5315746,1.82130207 20.31,0.51" id="_Path_773"></path>
            </g>
            <g id="_Group_165" transform="translate(0.000000, 27.000000)" stroke="#847B42" stroke-linecap="round" stroke-linejoin="round" stroke-width="3">
                <path d="M37.06,56.99 C36.091648,57.0699631 35.118352,57.0699631 34.15,56.99 C32.4232466,56.8417388 30.8370959,57.9482577 30.38,59.62 C29.84,61.62 29.38,63.68 28.97,65.73 C28.56,67.78 28.72,69.93 26.97,71.18 C25.8505652,72.0015371 24.3767953,72.1603811 23.108012,71.5962478 C21.8392286,71.0321145 20.9699185,69.8314776 20.83,68.45 C20.64,66.63 21.83,65.38 22.76,63.93 C23.32,63.03 23.82,62.07 24.32,61.13 C24.71,60.41 25.1,59.68 25.47,58.95 C26.5030586,56.8449005 25.989961,54.3081457 24.22,52.77 L24.1,52.67 C22.3517014,51.1516262 19.797838,51.0076886 17.89,52.32 L17.74,52.43 C15.55,53.93 13.41,55.52 11.33,57.18 C9.42,58.71 7.64,61.02 4.93,60.81 C3.1678408,60.6869477 1.60760002,59.6268123 0.84421106,58.0338326 C0.0808221023,56.440853 0.231962079,54.5605883 1.24,53.11 C2.54,51.19 4.77,51 6.82,50.33 C8.11,49.9 9.39,49.41 10.64,48.91 C12.4133333,48.2433333 14.16,47.5133333 15.88,46.72 C17.4124982,46.0270996 18.2659135,44.3699824 17.94,42.72 C17.7992729,42.0267942 17.7024139,41.3254015 17.65,40.62 C17.5166398,38.8968857 16.1776052,37.5116775 14.46,37.32 C12.39,37.1 10.29,36.95 8.2,36.89 C6.27,36.83 4.02,37.32 2.51,35.8 C1.52517411,34.8214676 1.1382224,33.3913153 1.49529594,32.0497095 C1.85236949,30.7081037 2.89904702,29.6595174 4.24,29.3 C5.99,28.82 7.43,29.84 9,30.48 C10.29,31.01 12.57,31.75 14.57,32.37 C16.7645462,33.0555422 19.1385153,32.1026109 20.25,30.09 L20.25,29.99 C21.3047184,28.1441968 21.0373612,25.8271017 19.59,24.27 C19.34,24.01 19.1,23.74 18.84,23.48 C16.84,21.32 14.64,19.22 12.43,17.21 C10.38,15.35 7.49,13.8 7.23,10.75 C7.09255552,8.87961865 7.88558798,7.06162913 9.35,5.89 C11.0105944,4.61283378 13.2466357,4.37339585 15.14,5.27 C17.51,6.37 18.14,8.81 19.24,10.97 C19.93,12.33 20.72,13.65 21.49,14.97 C22.66,16.97 23.89,18.92 25.16,20.84 C26.1020122,22.2445069 27.8800156,22.8261739 29.47,22.25 L30.02,22.07 C31.6788464,21.5594633 32.7325336,19.9325703 32.52,18.21 C32.27,16.13 31.95,14.06 31.52,12 C31.14,10.11 30.17,8 31.29,6.21 C31.9949869,5.10891626 33.193592,4.4218654 34.5,4.37 C35.9668961,4.34187016 37.3260864,5.13730539 38.02,6.43 C38.89,8.05 38.21,9.66 37.93,11.34 C37.77,12.4 37.66,13.47 37.54,14.53 C37.42,15.59 37.35,16.42 37.28,17.37 C37.1318983,19.4551821 38.4616032,21.3601198 40.47,21.94 C42.4578822,22.5130341 44.5887829,21.742197 45.75,20.03 C46.2,19.38 46.64,18.72 47.07,18.03 C49.07,14.99 50.96,11.8833333 52.74,8.71 C54.38,5.77 55.44,1.92 58.99,0.79 C61.1586447,0.108800529 63.5240751,0.551147252 65.3,1.97 C67.2748098,3.57870518 68.1758929,6.16206769 67.63,8.65 C66.97,11.76 64.25,13.15 61.99,15.06 C60.58,16.27 59.22,17.56 57.87,18.84 C55.58,21.01 53.33,23.25 51.18,25.57 C50.0616663,26.7885211 49.8708973,28.5947384 50.71,30.02 C50.91,30.35 51.1,30.7 51.3,31.02" id="_Path_774"></path>
                <path d="M44.93,34.43 C46.1111665,34.394036 47.1975629,35.0735364 47.6821085,36.1513412 C48.1666542,37.229146 47.9538102,38.4927422 47.1429227,39.3523404 C46.3320351,40.2119385 45.0829882,40.4980499 43.9787805,40.0771307 C42.8745728,39.6562115 42.1329231,38.6112551 42.1,37.43" id="_Path_775"></path>
                <path d="M28.92,45.62 C28.865644,43.3579379 30.6540894,41.4794856 32.9160942,41.4227948 C35.178099,41.3661041 37.0583962,43.1526098 37.1174216,45.4145548 C37.176447,47.6764999 35.3918829,49.55864 33.13,49.62" id="_Path_776"></path>
                <path d="M33.18,30.81 C33.23625,32.0829192 32.5176958,33.2636307 31.3612486,33.7985298 C30.2048013,34.333429 28.8397659,34.1164539 27.9061717,33.2493385 C26.9725774,32.3822231 26.655541,31.0369024 27.1037125,29.844162 C27.5518841,28.6514216 28.6763983,27.8477628 29.95,27.81" id="_Path_777"></path>
            </g>
            <path d="M127.83,31.78 C135.49832,35.0616521 140.432628,42.6417655 140.329715,50.9821361 C140.226801,59.3225068 135.106959,66.7785601 127.36,69.87 C124.751288,71.0073053 123.300385,73.8207357 123.886415,76.6055893 C124.472445,79.3904428 126.934173,81.3805193 129.78,81.37 C130.607057,81.3715643 131.425046,81.1977417 132.18,80.86 C143.482527,76.0620627 151.203118,65.404876 152.24,53.17 C153.24,39.44 144.92,25.77 132.35,20.66 C129.19,19.38 124.06,19.08 120.18,19.08" id="_Path_778" stroke="#847B42" stroke-width="3" stroke-linecap="round" stroke-linejoin="round"></path>
        </g>
    </g>
</svg>