<?xml version="1.0" encoding="UTF-8"?>
<svg width="137px" height="145px" viewBox="0 0 137 145" version="1.1" xmlns="http://www.w3.org/2000/svg" xmlns:xlink="http://www.w3.org/1999/xlink">
    <!-- Generator: Sketch 52.5 (67469) - http://www.bohemiancoding.com/sketch -->
    <title>_Group_284</title>
    <desc>Created with Sketch.</desc>
    <g id="Page-1" stroke="none" stroke-width="1" fill="none" fill-rule="evenodd">
        <g id="_Group_284" transform="translate(1.000000, 2.000000)">
            <polygon id="_Path_1171" fill="#FFEB99" points="99.32 12.85 135.77 12.85 135.77 142.33 30.72 142.33 30.72 130.69 76.97 130.69 99.32 108.67"></polygon>
            <g id="_Group_285" transform="translate(16.000000, 35.000000)" stroke="#847B42" stroke-linecap="round" stroke-linejoin="round" stroke-width="3">
                <path d="M67.9,56.83 C66.9312986,58.3908192 65.1709629,59.2787079 63.34,59.13 C61.06,58.95 59.82,57.13 58.25,55.7 C57.25,54.81 56.25,53.96 55.17,53.13 C53.4633333,51.73 51.71,50.3966667 49.91,49.13 C48.9584474,48.4699426 47.6712696,48.5835171 46.85,49.4 C46.3550043,49.8624876 45.8341673,50.2965183 45.29,50.7 C44.7869182,51.0641105 44.2626625,51.3980313 43.72,51.7 C42.696758,52.321558 42.2977616,53.6086431 42.79,54.7 C43.4166667,56.1266667 44.0833333,57.53 44.79,58.91 C45.46,60.18 46.6,61.46 46.19,62.99 C45.921659,63.9908919 45.1379845,64.7715099 44.1360516,65.0359376 C43.1341187,65.3003652 42.0672981,65.0081253 41.34,64.27 C40.34,63.27 40.52,62.01 40.34,60.75 C40.23,59.96 40.08,59.17 39.94,58.4 L39.61,56.71 C39.2255457,55.0374513 37.6821469,53.8926224 35.97,54.01 C35.0365658,54.0650079 34.100221,54.0449434 33.17,53.95 C31.5228581,53.7616035 29.9756613,54.7748493 29.49,56.36 C28.91,58.29 28.4,60.24 27.97,62.19 C27.54,64.14 27.61,66.19 25.91,67.37 C24.81223,68.1260849 23.3938258,68.2370281 22.1918481,67.6608223 C20.9898704,67.0846165 20.1880554,65.9093414 20.09,64.58 C19.95,62.82 21.17,61.66 22.09,60.3 C22.65,59.44 23.15,58.53 23.66,57.65 C24.06,56.97 24.44,56.28 24.82,55.59 C25.8814527,53.5939202 25.4714542,51.1339287 23.82,49.59 L23.71,49.49 C22.0633871,47.9624065 19.586744,47.7560196 17.71,48.99 L17.56,49.08 C15.42,50.47 13.33,51.94 11.28,53.47 C9.4,54.89 7.63,57.06 5.03,56.78 C3.34452682,56.6097753 1.87954114,55.5493521 1.19133162,54.0013973 C0.50312209,52.4534425 0.697249798,50.6553894 1.7,49.29 C3.01,47.48 5.15,47.36 7.14,46.77 C8.39,46.4 9.63,45.96 10.85,45.51 C12.56,44.91 14.26,44.25 15.93,43.51 C17.4367753,42.8904351 18.3072078,41.3036659 18.02,39.7 C17.9089658,39.0377357 17.8321969,38.3701806 17.79,37.7 C17.7119719,36.0299867 16.4477911,34.6562436 14.79,34.44 C12.79,34.1733333 10.79,33.98 8.79,33.86 C6.94,33.75 4.79,34.16 3.36,32.66 C2.49360241,31.7494924 2.14400537,30.4638775 2.43,29.24 C2.75854877,27.8705666 3.82297443,26.7984277 5.19,26.46 C6.89,26.05 8.19,27.07 9.74,27.73 C10.95,28.27 13.12,29.05 15.03,29.73 C17.1085289,30.4506584 19.4076716,29.6161239 20.54,27.73 L20.6,27.64 C21.6617808,25.8959023 21.4673698,23.6642261 20.12,22.13 L19.42,21.35 C17.5,19.22 15.5,17.14 13.42,15.16 C11.51,13.32 8.78,11.74 8.61,8.81 C8.52786936,7.01211081 9.34027125,5.28996857 10.78,4.21 C12.4048602,3.02395102 14.5590719,2.8537799 16.35,3.77 C18.6,4.89 19.12,7.25 20.13,9.35 C20.76,10.68 21.48,11.97 22.19,13.25 C23.26,15.25 24.38,17.1 25.55,18.98 C26.4095379,20.3566297 28.1007718,20.9644814 29.64,20.45 L30.17,20.29 C31.7788935,19.8462056 32.8371194,18.3115671 32.68,16.65 C32.49,14.65 32.24,12.65 31.9,10.65 C31.59,8.82 30.71,6.81 31.84,5.09 C32.5670075,3.96628085 33.8429057,3.32124231 35.1788546,3.40202062 C36.5148035,3.48279892 37.7036857,4.2768707 38.29,5.48 C39.08,7.05 38.39,8.59 38.08,10.19 C37.89,11.19 37.75,12.19 37.62,13.19 C37.49,14.19 37.38,15 37.29,15.91 C37.0863898,17.9054835 38.3089582,19.7706306 40.22,20.38 C42.1125421,20.9807363 44.1769494,20.2993207 45.34,18.69 C45.79,18.07 46.23,17.46 46.66,16.84 C48.66,13.98 50.57,11.04 52.36,8.05 C54.01,5.27 55.14,1.6 58.57,0.62 C60.794355,-0.0317111351 63.1973775,0.558224429 64.8670565,2.16591044 C66.5367356,3.77359645 67.2171254,6.15259011 66.65,8.4 C65.94,11.4 63.28,12.63 61.06,14.4 C59.67,15.52 58.34,16.72 57.06,17.91 C54.7933333,19.91 52.59,22.0033333 50.45,24.19 C49.3402001,25.328363 49.1085135,27.0599156 49.88,28.45 C50.06,28.77 50.24,29.11 50.41,29.45 C51.1735552,30.9515623 52.880643,31.71767 54.51,31.29 C56.51,30.79 58.38,30.21 60.28,29.57 C62.18,28.93 63.9,27.78 65.77,28.64 C66.9852824,29.1855189 67.8161101,30.3392196 67.9482506,31.6647538 C68.0803911,32.9902881 67.493672,34.2853019 66.41,35.06 C64.98,36.06 63.41,35.65 61.73,35.6 C60.73,35.6 59.66,35.6 58.64,35.6 L56.52,35.68 C54.2082677,35.810395 52.2884678,37.5109074 51.88,39.79 L51.88,39.9 C51.479534,42.0657963 52.58253,44.2307848 54.57,45.18 L54.67,45.18 C57.02,46.32 59.41,47.38 61.84,48.34 C64.09,49.24 66.93,49.63 68.07,52.05 C68.8437437,53.5655245 68.7794515,55.3732711 67.9,56.83 Z" id="_Path_1172"></path>
                <path d="M44.17,32.61 C45.3034027,32.6100072 46.3250113,33.2932924 46.7578056,34.3408089 C47.1906,35.3883254 46.9492053,36.5934359 46.1463361,37.3934377 C45.3434669,38.1934395 44.1375005,38.4305209 43.0915392,37.9939816 C42.0455778,37.5574422 41.3659521,36.5333955 41.37,35.4" id="_Path_1173"></path>
                <path d="M28.49,42.9 C28.4900051,41.3055098 29.4510409,39.8682143 30.9245461,39.2589677 C32.3980512,38.6497212 34.0934972,38.9886477 35.2195385,40.1175542 C36.3455798,41.2464608 36.6801966,42.9427626 36.0672074,44.4147147 C35.4542182,45.8866668 34.014485,46.8440469 32.42,46.84" id="_Path_1174"></path>
                <path d="M32.98,28.81 C32.98,30.4668542 31.6368542,31.81 29.98,31.81 C28.3231458,31.81 26.98,30.4668542 26.98,28.81 C26.98,27.1531458 28.3231458,25.81 29.98,25.81" id="_Path_1175"></path>
            </g>
            <g id="_Group_286" stroke="#847B42" stroke-linecap="round" stroke-linejoin="round" stroke-width="3">
                <polyline id="_Path_1176" points="76.97 130.69 0.51 130.69 0.51 0.03 68.09 0.03 99.32 0.03 99.32 108.67"></polyline>
                <polygon id="_Path_1177" points="99.32 108.67 76.97 108.67 76.97 130.69"></polygon>
            </g>
            <path d="M26.89,14.38 L74.55,14.38" id="_Path_1178" stroke="#847B42" stroke-width="3" stroke-linecap="round" stroke-linejoin="round"></path>
            <path d="M26.89,24.72 L74.55,24.72" id="_Path_1179" stroke="#847B42" stroke-width="3" stroke-linecap="round" stroke-linejoin="round"></path>
        </g>
    </g>
</svg>