<?xml version="1.0" encoding="UTF-8"?>
<svg width="178px" height="149px" viewBox="0 0 178 149" version="1.1" xmlns="http://www.w3.org/2000/svg" xmlns:xlink="http://www.w3.org/1999/xlink">
    <!-- Generator: Sketch 52.5 (67469) - http://www.bohemiancoding.com/sketch -->
    <title>_Group_292 2</title>
    <desc>Created with Sketch.</desc>
    <g id="Page-1" stroke="none" stroke-width="1" fill="none" fill-rule="evenodd">
        <g id="_Group_292-2" transform="translate(1.000000, 2.000000)">
            <g id="_Group_292">
                <g id="_Group_293" stroke="#847B42" stroke-linecap="round" stroke-linejoin="round" stroke-width="3">
                    <g id="_Group_294">
                        <path d="M54.37,20.88 L25.69,20.88" id="_Path_1231"></path>
                        <path d="M127.73,71.88 L127.73,35.1199974 L34.67,35.12 C23.957954,35.1144684 15.2665551,43.7879654 15.25,54.5 L15.25,101.23 L111.84,101.23" id="_Path_1232"></path>
                        <path d="M111.84,114.68 L71.26,114.68" id="_Path_1233"></path>
                        <path d="M71.26,114.67 L0.769950131,114.67 L0.77,9.17 C0.761979874,6.74704083 1.72163372,4.42115132 3.4358725,2.70879012 C5.15011128,0.996428927 7.47705107,0.0393245815 9.9,0.05 L39.9,0.05 C43.6532711,0.0385363948 47.0320399,2.32277442 48.42,5.81 L54.37,20.88 L140.71,20.88 L140.71,60.76" id="_Path_1234"></path>
                        <g id="_Group_295" transform="translate(12.000000, 114.000000)">
                            <path d="M54.77,0.68 L54.77,15.84" id="_Path_1235"></path>
                            <path d="M66.25,0.68 L66.25,15.84" id="_Path_1236"></path>
                            <rect id="_Path_1237" x="35.23" y="15.84" width="47.02" height="14.95" rx="3.3"></rect>
                            <path d="M35.23,19.13 L0.05,19.13" id="_Path_1238"></path>
                            <path d="M35.23,28.53 L0.05,28.53" id="_Path_1239"></path>
                            <path d="M96.26,19.13 L82.25,19.13" id="_Path_1240"></path>
                            <path d="M117.42,28.53 L82.25,28.53" id="_Path_1241"></path>
                        </g>
                    </g>
                    <g id="_Group_296" transform="translate(119.000000, 69.000000)">
                        <g id="_Group_297">
                            <path d="M0.75,64.13 L0.75,32.78 C0.75,30.8304348 2.33043483,29.25 4.28,29.25 L52.88,29.25 C53.8152972,29.2499962 54.7121418,29.6222247 55.3725581,30.2845171 C56.0329744,30.9468096 56.4026571,31.8447065 56.4,32.78 L56.4,70 C56.4026571,70.9352935 56.0329744,71.8331904 55.3725581,72.4954829 C54.7121418,73.1577753 53.8152972,73.5300038 52.88,73.53 L4.28,73.53" id="_Path_1242"></path>
                            <path d="M41.68,19.8 C40.3705685,13.5816514 34.8707445,9.14016474 28.5160907,9.16923674 C22.1614369,9.19830873 16.702481,13.6899309 15.45,19.92" id="_Path_1243"></path>
                            <path d="M6.29,29.21 L6.29,23.21 C6.29,10.55 16.29,0.21 28.58,0.21 C40.87,0.21 50.87,10.52 50.87,23.21 L50.87,29.21" id="_Path_1244"></path>
                        </g>
                        <path d="M35.74,53.6 L35.74,50.72 C35.7732922,46.7307954 32.5691579,43.4684854 28.58,43.43 C26.662464,43.4458471 24.8297681,44.2228174 23.485118,45.5899721 C22.140468,46.9571267 21.3940208,48.8024651 21.41,50.72 L21.41,53.6" id="_Path_1245"></path>
                    </g>
                    <polyline id="_Path_1246" points="15.24 53.8 33.13 53.8 33.13 35.12"></polyline>
                </g>
                <path d="M20.23,58.83 L37.73,58.83 L37.73,40.16 L123.06,40.16 L123.06,74 C123.06,74 119.25,82 119.36,90.46 C119.373911,93.0192568 117.909201,95.3565598 115.6,96.46 L113.89,97.29 L20.23,97.29 L20.23,58.83 Z" id="_Path_1247" fill="#CECE7A"></path>
            </g>
        </g>
    </g>
</svg>