<?xml version="1.0" encoding="UTF-8"?>
<svg width="139px" height="136px" viewBox="0 0 139 136" version="1.1" xmlns="http://www.w3.org/2000/svg" xmlns:xlink="http://www.w3.org/1999/xlink">
    <!-- Generator: Sketch 52.5 (67469) - http://www.bohemiancoding.com/sketch -->
    <title>_Group_205</title>
    <desc>Created with Sketch.</desc>
    <g id="Page-1" stroke="none" stroke-width="1" fill="none" fill-rule="evenodd">
        <g id="_Group_205" transform="translate(1.000000, 2.000000)">
            <g id="_Group_206" transform="translate(84.000000, 66.000000)">
                <g id="_Group_207">
                    <rect id="_Rectangle_62" fill="#FFEB99" x="0.77" y="26.41" width="50.65" height="39.61" rx="3.21"></rect>
                    <rect id="_Rectangle_63" stroke="#847B42" stroke-width="3" stroke-linecap="round" stroke-linejoin="round" x="0.77" y="26.41" width="50.65" height="39.61" rx="3.21"></rect>
                    <path d="M38.06,17.96 C36.7960084,12.3717704 31.8192206,8.41201202 26.0898744,8.43602437 C20.3605281,8.46003672 15.4171062,12.4613719 14.2,18.06" id="_Path_938" stroke="#847B42" stroke-width="3" stroke-linecap="round" stroke-linejoin="round"></path>
                    <path d="M5.81,26.38 L5.81,20.99 C5.64669765,13.6354993 9.4768834,6.76868491 15.8202443,3.04348412 C22.1636051,-0.681716672 30.0263949,-0.681716672 36.3697557,3.04348412 C42.7131166,6.76868491 46.5433024,13.6354993 46.38,20.99 L46.38,26.38" id="_Path_939" stroke="#847B42" stroke-width="3" stroke-linecap="round" stroke-linejoin="round"></path>
                </g>
                <path d="M32.6100077,48.2 L32.61,45.62 C32.6126595,43.8899745 31.926587,42.2300413 30.7032728,41.0067272 C29.4799587,39.783413 27.8200255,39.0973405 26.09,39.1 C22.4891034,39.1 19.57,42.0191034 19.57,45.62 L19.57,48.2" id="_Path_940" stroke="#847B42" stroke-width="3" stroke-linecap="round" stroke-linejoin="round"></path>
            </g>
            <g id="_Group_208">
                <g id="_Group_209" transform="translate(6.000000, 10.000000)" fill="#CECE7A">
                    <polygon id="_Path_941" points="12.07 8.87 11.11 10.59 7.47 8.53 7.47 12.72 5.48 12.72 5.48 8.46 1.83 10.52 0.8 8.87 4.45 6.74 0.8 4.68 1.83 2.96 5.48 5.09 5.48 0.83 7.47 0.83 7.47 5.02 11.11 2.89 12.07 4.61 8.43 6.74"></polygon>
                    <polygon id="_Path_942" points="29.4 8.87 28.44 10.59 24.79 8.53 24.79 12.72 22.8 12.72 22.8 8.46 19.16 10.52 18.13 8.87 21.77 6.74 18.13 4.68 19.16 2.96 22.8 5.09 22.8 0.83 24.79 0.83 24.79 5.02 28.44 2.89 29.4 4.61 25.75 6.74"></polygon>
                    <polygon id="_Path_943" points="46.72 8.87 45.76 10.59 42.12 8.53 42.12 12.72 40.13 12.72 40.13 8.46 36.48 10.52 35.45 8.87 39.1 6.74 35.45 4.68 36.48 2.96 40.13 5.09 40.13 0.83 42.12 0.83 42.12 5.02 45.76 2.89 46.72 4.61 43.08 6.74"></polygon>
                    <polygon id="_Path_944" points="65.85 8.87 64.88 10.59 61.24 8.53 61.24 12.72 59.25 12.72 59.25 8.46 55.61 10.52 54.58 8.87 58.22 6.74 54.58 4.68 55.61 2.96 59.25 5.09 59.25 0.83 61.24 0.83 61.24 5.02 64.88 2.89 65.85 4.61 62.2 6.74"></polygon>
                    <polygon id="_Path_945" points="84.97 8.87 84.01 10.59 80.36 8.53 80.36 12.72 78.37 12.72 78.37 8.46 74.73 10.52 73.7 8.87 77.34 6.74 73.7 4.68 74.73 2.96 78.37 5.09 78.37 0.83 80.36 0.83 80.36 5.02 84.01 2.89 84.97 4.61 81.33 6.74"></polygon>
                    <polygon id="_Path_946" points="104.09 8.87 103.13 10.59 99.49 8.53 99.49 12.72 97.5 12.72 97.5 8.46 93.85 10.52 92.82 8.87 96.46 6.74 92.82 4.68 93.85 2.96 97.5 5.09 97.5 0.83 99.49 0.83 99.49 5.02 103.13 2.89 104.09 4.61 100.45 6.74"></polygon>
                    <polygon id="_Path_947" points="123.22 8.87 122.25 10.59 118.61 8.53 118.61 12.72 116.62 12.72 116.62 8.46 112.98 10.52 111.94 8.87 115.59 6.74 111.94 4.68 112.98 2.96 116.62 5.09 116.62 0.83 118.61 0.83 118.61 5.02 122.25 2.89 123.22 4.61 119.57 6.74"></polygon>
                </g>
                <g id="_Group_210" transform="translate(0.000000, 46.000000)">
                    <polygon id="_Path_948" fill="#CECE7A" points="0.51 66.18 76.51 66.18 79.7 66.18 79.7 50.92 76.51 50.92 0.51 50.92"></polygon>
                    <path d="M87.98,86.03 L9.36,86.03 C4.47227996,86.03 0.51,82.06772 0.51,77.18 L0.51,9.74 C0.509998499,7.39375259 1.44272555,5.14374721 3.10271059,3.48563786 C4.76269562,1.82752852 7.01375409,0.897345874 9.36,0.9 L126.66,0.9 C129.006246,0.897345874 131.257304,1.82752852 132.917289,3.48563786 C134.577274,5.14374721 135.510002,7.39375259 135.51,9.74 L135.51,38.86" id="_Path_949" stroke="#847B42" stroke-width="3" stroke-linecap="round" stroke-linejoin="round"></path>
                    <path d="M89.78,18.14 L65.52,18.14" id="_Path_950" stroke="#847B42" stroke-width="3" stroke-linecap="round" stroke-linejoin="round"></path>
                    <polygon id="_Path_951" fill="#FFEB99" points="17.74 16.25 50.32 16.25 50.32 33.06 17.74 33.06 17.74 26.7"></polygon>
                </g>
                <polyline id="_Path_952" stroke="#847B42" stroke-width="3" stroke-linecap="round" stroke-linejoin="round" points="122.18 46.9 113.51 34.4 96.32 34.4 1.22 34.4 1.22 0.4 135.51 0.4 135.51 34.4 127.35 34.4 125.85 46.9"></polyline>
            </g>
        </g>
    </g>
</svg>