<?xml version="1.0" encoding="UTF-8"?>
<svg width="137px" height="154px" viewBox="0 0 137 154" version="1.1" xmlns="http://www.w3.org/2000/svg" xmlns:xlink="http://www.w3.org/1999/xlink">
    <!-- Generator: Sketch 52.5 (67469) - http://www.bohemiancoding.com/sketch -->
    <title>_Group_96</title>
    <desc>Created with Sketch.</desc>
    <g id="Page-1" stroke="none" stroke-width="1" fill="none" fill-rule="evenodd">
        <g id="_Group_96" transform="translate(2.000000, 2.000000)">
            <polygon id="_Path_438" fill="#FFEB99" points="92.25 108.36 133.2 140.17 133.2 149.95 85.24 113.17"></polygon>
            <polygon id="_Path_439" fill="#FFEB99" points="50.37 108.36 9.42 140.17 9.42 149.95 57.38 113.17"></polygon>
            <g id="_Group_97">
                <g id="_Group_98" transform="translate(9.000000, 12.000000)" stroke="#847B42" stroke-linecap="round" stroke-linejoin="round" stroke-width="3">
                    <polyline id="_Path_440" points="11.16 75.6 0.42 68.22 11.16 59.31"></polyline>
                    <polygon id="_Path_441" points="124.2 137.95 0.42 137.95 48.38 101.17 48.39 101.17 62.31 90.49 76.23 101.17 76.24 101.17"></polygon>
                    <polygon id="_Path_442" points="48.38 101.17 0.42 137.95 0.42 68.22 11.16 75.6"></polygon>
                    <polyline id="_Path_443" points="113.67 59.49 124.2 68.22 113.67 75.46 113.45 75.61"></polyline>
                    <polygon id="_Path_444" points="124.2 68.22 124.2 137.95 76.24 101.17 113.67 75.46"></polygon>
                    <polyline id="_Path_445" points="28.13 0.73 89.14 0.73 113.67 26.71 113.67 66.03"></polyline>
                    <path d="M11.16,66.03 L11.16,24.66" id="_Path_446"></path>
                    <polygon id="_Path_447" points="89.14 26.71 89.14 0.73 113.67 26.71"></polygon>
                </g>
                <g id="_Group_99">
                    <g id="_Group_100" transform="translate(36.000000, 30.000000)" stroke="#847B42" stroke-linecap="round" stroke-linejoin="round" stroke-width="3">
                        <g id="_Group_101">
                            <path d="M21.76,65.36 C36.7200689,71.0068883 53.5849523,65.2830608 62.017452,51.6968929 C70.4499517,38.110725 68.0944908,20.457445 56.3948307,9.55749252 C44.6951706,-1.34245993 26.9195531,-2.4442373 13.9634036,6.9274862 C1.0072542,16.2992097 -3.51019129,33.5264897 3.18,48.05 C6.85098843,56.0424684 13.5280447,62.2631274 21.76,65.36 Z" id="_Path_448"></path>
                            <path d="M1.13,10.16 L6.13,14.87" id="_Path_449"></path>
                            <path d="M7.58,2.89 L12.8,7.81" id="_Path_450"></path>
                        </g>
                    </g>
                    <path d="M14.28,2.11 L45.94,30.23 L34.88,42.68 L3.22,14.57 C-0.215525228,11.5133372 -0.528662782,6.25262633 2.52,2.81 C3.98660472,1.1576316 6.04956633,0.155579522 8.25501801,0.0243026358 C10.4604697,-0.10697425 12.6277352,0.643278596 14.28,2.11 Z" id="_Path_451" stroke="#847B42" stroke-width="3" stroke-linecap="round" stroke-linejoin="round"></path>
                    <path d="M5.21,12.32 C3.78093754,11.0570662 3.13419657,9.12767142 3.51339818,7.25860011 C3.89259979,5.38952881 5.24013422,3.86473737 7.04839828,3.2586 C8.85666233,2.65246264 10.8509377,3.05706603 12.28,4.32 L41.71,30.44 L34.63,38.44 L5.21,12.32 Z" id="_Path_452" fill="#CECE7A"></path>
                </g>
                <g id="_Group_102" transform="translate(43.000000, 38.000000)" stroke="#847B42" stroke-linecap="round" stroke-linejoin="round" stroke-width="3">
                    <path d="M12.39,20.7 C12.9820401,21.0933268 13.7291742,21.1717759 14.39,20.91 C14.8402,20.6466222 15.1485046,20.1951761 15.23,19.68 C15.46,18.12 13.33,16.34 12.6,15.68 C11.8369388,15.110414 11.2397213,14.3474946 10.87,13.47 C10.8182011,13.3344064 10.7813172,13.1935769 10.76,13.05 C10.6465639,12.1532685 11.0201431,11.2641366 11.7400149,10.717529 C12.4598867,10.1709215 13.4166865,10.0498803 14.25,10.4 C15.35,10.86 15.68,11.96 16.25,12.92 C16.7,13.7 17.58,15 18.36,16.12 C19.2165692,17.3517554 20.8211708,17.8114069 22.2,17.22 L22.26,17.22 C23.5596588,16.705794 24.371211,15.4032526 24.26,14.01 C24.26,13.78 24.26,13.54 24.19,13.31 C23.99,11.37 23.73,9.43 23.4,7.51 C23.07,5.59 22.23,3.78 23.31,2.11 C24.0115427,1.0164152 25.2466299,0.384176684 26.5439889,0.454527893 C27.841348,0.524879102 29.0008258,1.28696644 29.58,2.45 C29.91,3.11 29.88,3.66 29.4,7.03 C29.23,8.19 29.08,9.19 28.96,10.03" id="_Path_453"></path>
                    <path d="M19.14,40.8 C19.2179246,39.9758007 18.9203962,39.1603526 18.33,38.58 C17.5291837,38.0978105 16.5493668,38.0164672 15.68,38.36 C14.27,38.69 14.12,39.3 12.01,40.36 C10.19,41.26 9.48,41.21 9.2,41.17 C8.35626239,41.1032745 7.58798402,40.6584817 7.11,39.96 C6.61497657,39.1460199 6.61497657,38.1239801 7.11,37.31 C7.74,36.31 8.88,36.14 9.92,35.75 C10.57,35.51 11.2,35.22 11.84,34.94 L13.3,34.27 C14.6804665,33.6061577 15.437206,32.0926786 15.14,30.59 L15.14,30.5 C14.8499633,29.0153213 13.5902858,27.916191 12.08,27.83 L11.96,27.83 C10.23,27.73 8.5,27.69 6.76,27.71 C5.02,27.73 3.32,28.21 2.01,27.01 C1.1578703,26.2378102 0.783905122,25.0687851 1.02964744,23.9453916 C1.27538975,22.8219982 2.10329219,21.9158816 3.2,21.57 C3.83,21.36 4.32,21.48 7.2,22.38 L9.74,23.18" id="_Path_454"></path>
                    <path d="M27.89,39.65 C27.4324329,39.7098379 26.9714631,39.7399012 26.51,39.74 C26.08,39.74 25.65,39.74 25.23,39.68 C24.4232106,39.60652 23.6888131,40.147655 23.52,40.94 C23.29,41.94 23.1,43.01 22.94,44.06 C22.78,45.11 22.94,46.18 22.07,46.85 C21.5466246,47.2608996 20.8531667,47.3845975 20.22,47.18 C19.5166933,46.9510795 19.0047443,46.3421704 18.9,45.61" id="_Path_455"></path>
                    <path d="M43.21,34.3 C44.42,34.68 45.91,34.77 46.59,35.99 C47.03783,36.7778974 47.0300215,37.7451498 46.5695296,38.5257146 C46.1090377,39.3062793 45.2662091,39.780914 44.36,39.77 C43.16,39.77 42.45,38.86 41.58,38.18 C41.03,37.75 40.45,37.35 39.88,36.95 L38.69,36.14 C37.3728563,35.2786975 35.6355564,35.4404032 34.5,36.53 L34.44,36.53 C33.3337616,37.5576228 33.066067,39.2049743 33.79,40.53 L33.79,40.6 C34.61,42.1733333 35.4933333,43.71 36.44,45.21 C37.31,46.61 38.71,47.96 38.36,49.75 C38.1366731,50.9075178 37.311099,51.8570789 36.195866,52.2391495 C35.0806331,52.62122 33.8462144,52.3773972 32.96,51.6 C31.78,50.6 31.83,49.09 31.55,47.68" id="_Path_456"></path>
                    <path d="M46.06,20.88 C47.79,20.15 49.57,18.83 51.51,19.54 C52.6971625,19.9855824 53.5878163,20.9885036 53.89,22.22 C54.2017978,23.6032305 53.7110945,25.0444298 52.62,25.95 C51.27,27.1 49.62,26.77 47.95,26.84 C46.95,26.89 45.88,26.99 44.85,27.09 C43.1,27.26 41.35,27.48 39.61,27.76 C38.7005236,27.9076382 37.9965565,28.6360203 37.88,29.55 L37.79,30.2" id="_Path_457"></path>
                    <path d="M30.91,13.78 C31.4662302,13.9065141 32.0437698,13.9065141 32.6,13.78 C33.887625,13.4226151 34.9940298,12.594596 35.7,11.46 C36.22,10.71 36.57,9.73 37.49,9.38 C38.293823,9.09064159 39.1887616,9.21795502 39.88,9.72 C40.6550496,10.2868547 41.0424003,11.2436109 40.88,12.19 C40.68,13.37 39.69,13.93 38.88,14.68 C38.37,15.16 37.88,15.68 37.4,16.16 C36.92,16.64 36.55,17.06 36.13,17.52 C35.2099725,18.5403702 35.1387979,20.0685314 35.96,21.17 C36.5137497,21.941978 37.3909083,22.4174127 38.34,22.46 C38.7115137,22.4564299 39.0810949,22.4060325 39.44,22.31 C39.9445352,22.1985201 40.4368993,22.0377481 40.91,21.83" id="_Path_458"></path>
                </g>
            </g>
        </g>
    </g>
</svg>