<?xml version="1.0" encoding="UTF-8"?>
<svg width="115px" height="136px" viewBox="0 0 115 136" version="1.1" xmlns="http://www.w3.org/2000/svg" xmlns:xlink="http://www.w3.org/1999/xlink">
    <!-- Generator: Sketch 52.5 (67469) - http://www.bohemiancoding.com/sketch -->
    <title>_Group_127</title>
    <desc>Created with Sketch.</desc>
    <g id="Page-1" stroke="none" stroke-width="1" fill="none" fill-rule="evenodd">
        <g id="_Group_127" transform="translate(1.000000, 1.000000)">
            <rect id="_Path_580" fill="#CECE7A" x="77.66" y="106.75" width="25.68" height="15.49"></rect>
            <g id="_Group_128" stroke="#847B42" stroke-linecap="round" stroke-linejoin="round" stroke-width="3">
                <path d="M61.71,78.5 C61.880458,77.4754062 61.4342838,76.4460745 60.57,75.87 L58.08,74.21 C56.371554,73.0265265 54.0452347,73.3243299 52.69,74.9 C52.2266978,75.4552327 51.922579,76.1256764 51.81,76.84 C51.692915,77.5487887 51.7618291,78.2758327 52.01,78.95 C52.7803074,80.8738734 54.8705006,81.9146692 56.87,81.37" id="_Path_581"></path>
                <path d="M63.32,72.88 C69.6463527,67.6348378 73.9955652,60.3896777 75.65,52.34 C76.13,49.94 78.28,31.18 77.49,29.05 C75.5491275,30.7103058 73.3230607,32.0046095 70.92,32.87 C64.92,35.05 55.44,35.22 48.92,30.43 C47.73,29.55 43.76,26.43 40.13,25.65 C38.9314506,25.3863418 37.6874935,25.41033 36.5,25.72 C35.4957551,25.8966003 34.5761791,26.3949965 33.88,27.14 C33.3188892,27.8934142 32.9732227,28.7852338 32.88,29.72 C32.7063207,30.6755052 32.7063207,31.6544948 32.88,32.61 C33.22,36.39 33.5533333,40.16 33.88,43.92 L34.54,48.3 C34.54,48.3 34.73,49.94 35.21,52.3 C36.868595,60.3504544 41.2211631,67.5953287 47.55,72.84" id="_Path_582"></path>
                <path d="M40.45,81.63 L40.45,64.94" id="_Path_583"></path>
                <path d="M70.15,72.39 L70.15,65.54" id="_Path_584"></path>
                <polygon id="_Path_585" points="55.58 90.7 38.9 80.69 38.9 80.69 43.53 103.39"></polygon>
                <polyline id="_Path_586" points="72.25 80.69 68.46 103.39 55.58 90.7 72.25 80.69"></polyline>
                <path d="M38.9,80.77 L11.32,83.62 L10.45,83.74 C4.90207436,84.814449 0.921126855,89.70954 1,95.36 L1,122.5 C1.00551918,128.366881 5.76311614,133.120003 11.63,133.12 L101.09,133.12 C103.975427,133.124565 106.738501,131.954856 108.743614,129.879952 C110.748727,127.805047 111.823249,125.003582 111.72,122.12 C111.3,110.56 110.53,93.69 109.52,91.12 C107.840538,86.8322026 103.909998,83.8389745 99.33,83.36 L72.25,80.56" id="_Path_587"></path>
                <polyline id="_Path_588" points="49.11 97.77 51.12 102.02 60.05 102.02 62.38 97.77"></polyline>
                <polyline id="_Path_589" points="47.24 121.49 51.12 102.02 60.05 102.02 63.91 121.49"></polyline>
                <path d="M81.83,58.41 L80.99,63.48 C79.4587946,72.7430015 71.0651264,79.273345 61.71,78.48" id="_Path_590"></path>
                <g id="_Group_129" transform="translate(22.000000, 0.000000)">
                    <path d="M65.98,42.04 L64.58,54.46 C64.31,56.87 62.4,58.63 60.32,58.39 C58.25,58.16 56.78,56.02 57.05,53.61 L57.96,45.55 C58.23,43.14 60.13,41.38 62.21,41.62 L65.98,42.04 Z" id="_Path_591"></path>
                    <path d="M1.06,42.04 L2.46,54.46 C2.73,56.87 4.63,58.63 6.71,58.39 C8.79,58.16 10.26,56.02 9.99,53.61 L9.08,45.55 C8.81,43.14 6.9,41.38 4.83,41.62 L1.06,42.04 Z" id="_Path_592"></path>
                    <path d="M1.84,41.96 L1.36,38.34 C-0.520132586,25.7868866 5.05005964,13.2826342 15.6396426,6.28432814 C26.2292255,-0.713977963 39.9162266,-0.936169539 50.7273874,5.71472189 C61.5385483,12.3656133 67.5116806,24.682474 66.04,37.29 L65.53,42" id="_Path_593"></path>
                </g>
            </g>
        </g>
    </g>
</svg>