<?xml version="1.0" encoding="UTF-8"?>
<svg width="176px" height="146px" viewBox="0 0 176 146" version="1.1" xmlns="http://www.w3.org/2000/svg" xmlns:xlink="http://www.w3.org/1999/xlink">
    <!-- Generator: Sketch 52.5 (67469) - http://www.bohemiancoding.com/sketch -->
    <title>_Group_260</title>
    <desc>Created with Sketch.</desc>
    <g id="Page-1" stroke="none" stroke-width="1" fill="none" fill-rule="evenodd">
        <g id="_Group_260" transform="translate(2.000000, 2.000000)">
            <path d="M172.12,59.35 C166.56,34.52 146.72,12.58 121.41,8.85 C107.16,6.75 92.54,11.27 80.97,19.78 C61.97,33.78 56.8,53.84 55.57,59.35 L172.12,59.35 Z" id="_Path_1115" fill="#FFEB99"></path>
            <g id="_Group_261" stroke="#847B42" stroke-linecap="round" stroke-linejoin="round" stroke-width="3">
                <g id="_Group_262" transform="translate(0.000000, 76.000000)">
                    <g id="_Group_263" transform="translate(17.000000, 0.000000)">
                        <polyline id="_Path_1116" points="0.05 5.27 4.64 0.52 4.64 16.15"></polyline>
                        <path d="M1.15,16.15 L7.83,16.15" id="_Path_1117"></path>
                    </g>
                    <g id="_Group_264" transform="translate(48.000000, 0.000000)">
                        <polyline id="_Path_1118" points="0.41 5.27 4.99 0.52 4.99 16.15"></polyline>
                        <path d="M1.51,16.15 L8.19,16.15" id="_Path_1119"></path>
                    </g>
                    <rect id="_Rectangle_79" x="31.46" y="0.52" width="9.68" height="15.63" rx="0.79"></rect>
                    <rect id="_Rectangle_80" x="0.02" y="0.52" width="9.68" height="15.63" rx="0.79"></rect>
                    <g id="_Group_265" transform="translate(79.000000, 0.000000)">
                        <polyline id="_Path_1120" points="0.39 5.27 4.97 0.52 4.97 16.15"></polyline>
                        <path d="M1.48,16.15 L8.16,16.15" id="_Path_1121"></path>
                    </g>
                    <rect id="_Rectangle_81" x="93.79" y="0.52" width="9.68" height="15.63" rx="0.79"></rect>
                    <rect id="_Rectangle_82" x="62.87" y="0.52" width="9.68" height="15.63" rx="0.79"></rect>
                </g>
                <g id="_Group_266" transform="translate(1.000000, 49.000000)">
                    <polyline id="_Path_1122" points="0.61 4.95 5.19 0.2 5.19 15.83"></polyline>
                    <path d="M1.71,15.83 L8.39,15.83" id="_Path_1123"></path>
                </g>
                <g id="_Group_267" transform="translate(1.000000, 103.000000)">
                    <polyline id="_Path_1124" points="0.61 5.55 5.19 0.8 5.19 16.43"></polyline>
                    <path d="M1.71,16.43 L8.39,16.43" id="_Path_1125"></path>
                </g>
                <g id="_Group_268" transform="translate(112.000000, 126.000000)">
                    <polyline id="_Path_1126" points="0.87 5.48 5.45 0.72 5.45 16.35"></polyline>
                    <path d="M1.97,16.35 L8.65,16.35" id="_Path_1127"></path>
                </g>
                <g id="_Group_269" transform="translate(32.000000, 49.000000)">
                    <polyline id="_Path_1128" points="0.97 4.95 5.55 0.2 5.55 15.83"></polyline>
                    <path d="M2.07,15.83 L8.74,15.83" id="_Path_1129"></path>
                </g>
                <rect id="_Rectangle_83" x="16.02" y="49.2" width="9.68" height="15.63" rx="0.79"></rect>
                <path d="M56.31,64.8200634 L48.22,64.82 C48.0087517,64.8226742 47.8052335,64.7406244 47.6549099,64.5921798 C47.5045863,64.4437353 47.4199831,64.2412652 47.42,64.03 L47.42,50.03 C47.4254744,49.5920824 47.7820482,49.2399658 48.22,49.24 L53.36,49.24" id="_Path_1130"></path>
                <g id="_Group_270" transform="translate(18.000000, 103.000000)">
                    <g id="_Group_271" transform="translate(17.000000, 0.000000)">
                        <polyline id="_Path_1131" points="0.19 5.55 4.77 0.8 4.77 16.43"></polyline>
                        <path d="M1.28,16.43 L7.96,16.43" id="_Path_1132"></path>
                    </g>
                    <g id="_Group_272" transform="translate(48.000000, 0.000000)">
                        <polyline id="_Path_1133" points="0.55 5.55 5.13 0.8 5.13 16.43"></polyline>
                        <path d="M1.64,16.43 L8.32,16.43" id="_Path_1134"></path>
                    </g>
                    <rect id="_Rectangle_84" x="31.59" y="0.8" width="9.68" height="15.63" rx="0.79"></rect>
                    <rect id="_Rectangle_85" x="0.15" y="0.8" width="9.68" height="15.63" rx="0.79"></rect>
                    <g id="_Group_273" transform="translate(79.000000, 1.000000)">
                        <path d="M5.1,5.09 L5.1,15.43" id="_Path_1135"></path>
                        <path d="M0.52,4.55 L4.22,0.53" id="_Path_1136"></path>
                        <path d="M1.61,15.43 L8.29,15.43" id="_Path_1137"></path>
                    </g>
                    <path d="M99.22,0.8 L102.81,0.8 C103.246305,0.8 103.6,1.15369505 103.6,1.59 L103.6,15.64 C103.6,16.076305 103.246305,16.43 102.81,16.43 L94.71,16.43 C94.2759483,16.4246074 93.9253926,16.0740517 93.92,15.64 L93.92,7.59" id="_Path_1138"></path>
                    <rect id="_Rectangle_86" x="63" y="0.8" width="9.68" height="15.63" rx="0.79"></rect>
                </g>
                <g id="_Group_274" transform="translate(1.000000, 126.000000)">
                    <g id="_Group_275" transform="translate(17.000000, 0.000000)">
                        <polyline id="_Path_1139" points="0.3 5.48 4.89 0.72 4.89 16.35"></polyline>
                        <path d="M1.4,16.35 L8.08,16.35" id="_Path_1140"></path>
                    </g>
                    <g id="_Group_276" transform="translate(48.000000, 0.000000)">
                        <polyline id="_Path_1141" points="0.66 5.48 5.25 0.72 5.25 16.35"></polyline>
                        <path d="M1.76,16.35 L8.44,16.35" id="_Path_1142"></path>
                    </g>
                    <rect id="_Rectangle_87" x="31.71" y="0.72" width="9.68" height="15.63" rx="0.79"></rect>
                    <rect id="_Rectangle_88" x="0.27" y="0.72" width="9.68" height="15.63" rx="0.79"></rect>
                    <g id="_Group_277" transform="translate(79.000000, 0.000000)">
                        <polyline id="_Path_1143" points="0.64 5.48 5.22 0.72 5.22 16.35"></polyline>
                        <path d="M1.73,16.35 L8.41,16.35" id="_Path_1144"></path>
                    </g>
                    <rect id="_Rectangle_89" x="94.04" y="0.72" width="9.68" height="15.63" rx="0.79"></rect>
                    <rect id="_Rectangle_90" x="63.12" y="0.72" width="9.68" height="15.63" rx="0.79"></rect>
                </g>
                <g id="_Group_278" transform="translate(55.000000, 0.000000)">
                    <path d="M117.06,59.35 C111.5,34.52 91.66,12.58 66.35,8.85 C52.09,6.75 37.48,11.27 25.91,19.78 C6.91,33.78 1.74,53.84 0.51,59.35 L117.06,59.35 Z" id="_Path_1145"></path>
                    <path d="M58.78,8.34 L58.78,0.33" id="_Path_1146"></path>
                    <path d="M26.66,59.35 C27.08,52.71 29.14,34.55 43.28,19.63 C47.7865354,14.8965583 53.0439597,10.9399749 58.84,7.92" id="_Path_1147"></path>
                    <path d="M91.06,59.35 C90.64,52.71 88.58,34.55 74.44,19.63 C69.932045,14.8938834 64.6708672,10.9370181 58.87,7.92" id="_Path_1148"></path>
                    <path d="M58.78,8.34 L58.78,101.34 C58.78,104.101424 56.5414237,106.34 53.78,106.34 C51.0185763,106.34 48.78,104.101424 48.78,101.34 L48.78,99.19" id="_Path_1149"></path>
                </g>
            </g>
        </g>
    </g>
</svg>