<?xml version="1.0" encoding="UTF-8"?>
<svg width="152px" height="156px" viewBox="0 0 152 156" version="1.1" xmlns="http://www.w3.org/2000/svg" xmlns:xlink="http://www.w3.org/1999/xlink">
    <!-- Generator: Sketch 52.5 (67469) - http://www.bohemiancoding.com/sketch -->
    <title>_Group_186</title>
    <desc>Created with Sketch.</desc>
    <g id="Page-1" stroke="none" stroke-width="1" fill="none" fill-rule="evenodd">
        <g id="_Group_186" transform="translate(1.000000, 1.000000)">
            <rect id="_Rectangle_43" fill="#CECE7A" x="109.83" y="12.04" width="27.96" height="27.46"></rect>
            <rect id="_Rectangle_44" fill="#FFEB99" x="12.63" y="12.04" width="27.96" height="27.46"></rect>
            <rect id="_Rectangle_45" stroke="#847B42" stroke-width="3" stroke-linecap="round" stroke-linejoin="round" x="98.52" y="0.92" width="50.6" height="49.69"></rect>
            <rect id="_Rectangle_46" stroke="#847B42" stroke-width="3" stroke-linecap="round" stroke-linejoin="round" x="109.83" y="12.04" width="27.96" height="27.46"></rect>
            <rect id="_Rectangle_47" stroke="#847B42" stroke-width="3" stroke-linecap="round" stroke-linejoin="round" x="1.32" y="0.92" width="50.6" height="49.69"></rect>
            <rect id="_Rectangle_48" stroke="#847B42" stroke-width="3" stroke-linecap="round" stroke-linejoin="round" x="12.63" y="12.04" width="27.96" height="27.46"></rect>
            <g id="_Group_187" transform="translate(111.000000, 116.000000)">
                <rect id="_Rectangle_49" fill="#FFEB99" x="7.94" y="7.2" width="9.75" height="9.57"></rect>
                <rect id="_Rectangle_50" stroke="#847B42" stroke-width="3" stroke-linecap="round" stroke-linejoin="round" x="0.78" y="0.16" width="24.08" height="23.65"></rect>
                <rect id="_Rectangle_51" stroke="#847B42" stroke-width="3" stroke-linecap="round" stroke-linejoin="round" x="7.94" y="7.2" width="9.75" height="9.57"></rect>
            </g>
            <polyline id="_Path_853" stroke="#847B42" stroke-width="3" stroke-linecap="round" stroke-linejoin="round" points="67.3 79.6 47.11 79.6 47.11 62.38 1.32 62.38 1.32 110.76 16.26 110.76"></polyline>
            <polyline id="_Path_854" stroke="#847B42" stroke-width="3" stroke-linecap="round" stroke-linejoin="round" points="38.45 85.27 38.45 72.19 32.13 72.19 32.13 104.23 49 104.23 49 96.49 42.67 96.49"></polyline>
            <polyline id="_Path_855" stroke="#847B42" stroke-width="3" stroke-linecap="round" stroke-linejoin="round" points="44.45 86.57 79.51 86.57 79.51 69.79 57.1 69.79 57.1 60.2"></polyline>
            <polyline id="_Path_856" stroke="#847B42" stroke-width="3" stroke-linecap="round" stroke-linejoin="round" points="58.09 50.61 67.3 50.61 67.3 62.38 79.51 62.38"></polyline>
            <polyline id="_Path_857" stroke="#847B42" stroke-width="3" stroke-linecap="round" stroke-linejoin="round" points="59.09 0.92 74.4 0.92 74.4 16.18 61.98 16.18 61.98 24.68"></polyline>
            <path d="M58.21,8.77 L66.75,8.77" id="_Path_858" stroke="#847B42" stroke-width="3" stroke-linecap="round" stroke-linejoin="round"></path>
            <polyline id="_Path_859" stroke="#847B42" stroke-width="3" stroke-linecap="round" stroke-linejoin="round" points="70.19 24.68 89.94 24.68 89.94 0.92 83.06 0.92 83.06 14.11"></polyline>
            <polyline id="_Path_860" stroke="#847B42" stroke-width="3" stroke-linecap="round" stroke-linejoin="round" points="89.94 31.98 60.42 31.98 60.42 44.08 76.07 44.08 76.07 53.56 87.72 53.56"></polyline>
            <polyline id="_Path_861" stroke="#847B42" stroke-width="3" stroke-linecap="round" stroke-linejoin="round" points="85.39 44.24 89.94 44.24 89.94 38.19 80.06 38.19"></polyline>
            <polyline id="_Path_862" stroke="#847B42" stroke-width="3" stroke-linecap="round" stroke-linejoin="round" points="9.38 78.73 9.38 102.76 25.36 102.76 25.36 69.9 16.93 69.9 16.93 88.32"></polyline>
            <polyline id="_Path_863" stroke="#847B42" stroke-width="3" stroke-linecap="round" stroke-linejoin="round" points="149.11 56.5 149.11 75.35 130.55 75.35 130.55 60.2 116.57 60.2 116.57 62.38"></polyline>
            <path d="M139.65,56.5 L139.65,65.93" id="_Path_864" stroke="#847B42" stroke-width="3" stroke-linecap="round" stroke-linejoin="round"></path>
            <path d="M108.47,60.2 L98.52,60.2" id="_Path_865" stroke="#847B42" stroke-width="3" stroke-linecap="round" stroke-linejoin="round"></path>
            <polyline id="_Path_866" stroke="#847B42" stroke-width="3" stroke-linecap="round" stroke-linejoin="round" points="87.39 62.38 87.39 88.21 98.52 88.21 98.52 78.73 94.71 78.73 94.71 68.92 109.84 68.92"></polyline>
            <polyline id="_Path_867" stroke="#847B42" stroke-width="3" stroke-linecap="round" stroke-linejoin="round" points="103.49 73.99 122.67 73.99 122.67 68.27"></polyline>
            <polyline id="_Path_868" stroke="#847B42" stroke-width="3" stroke-linecap="round" stroke-linejoin="round" points="149.11 82.65 129.47 82.65 129.47 92.02 118.16 92.02 118.16 82.65 108.47 82.65 108.47 98.56"></polyline>
            <polyline id="_Path_869" stroke="#847B42" stroke-width="3" stroke-linecap="round" stroke-linejoin="round" points="149.11 88.97 149.11 109.46 141.2 109.46 141.2 98.56 137.8 98.56"></polyline>
            <path d="M135.93,90.06 L140.32,90.06" id="_Path_870" stroke="#847B42" stroke-width="3" stroke-linecap="round" stroke-linejoin="round"></path>
            <polyline id="_Path_871" stroke="#847B42" stroke-width="3" stroke-linecap="round" stroke-linejoin="round" points="122.2 99.21 127.83 99.21 127.83 107.98 116.57 107.98 114.35 107.98 114.35 98.56"></polyline>
            <polyline id="_Path_872" stroke="#847B42" stroke-width="3" stroke-linecap="round" stroke-linejoin="round" points="149.11 116.87 149.11 151.74 94.54 151.74 94.54 139.53 101.2 139.53 101.2 129.89"></polyline>
            <polyline id="_Path_873" stroke="#847B42" stroke-width="3" stroke-linecap="round" stroke-linejoin="round" points="95.71 133.54 89.94 133.54 89.94 118.45 101.2 118.45"></polyline>
            <polyline id="_Path_874" stroke="#847B42" stroke-width="3" stroke-linecap="round" stroke-linejoin="round" points="108.47 107.98 100.2 107.98 100.2 97.52 82.73 97.52 82.73 105.86 77.57 105.86"></polyline>
            <polyline id="_Path_875" stroke="#847B42" stroke-width="3" stroke-linecap="round" stroke-linejoin="round" points="91.05 103.6 91.05 110.76 84.89 110.76"></polyline>
            <path d="M149.11,139.86 L143.46,139.86" id="_Path_876" stroke="#847B42" stroke-width="3" stroke-linecap="round" stroke-linejoin="round"></path>
            <path d="M123.82,151.74 L123.82,146.4" id="_Path_877" stroke="#847B42" stroke-width="3" stroke-linecap="round" stroke-linejoin="round"></path>
            <polyline id="_Path_878" stroke="#847B42" stroke-width="3" stroke-linecap="round" stroke-linejoin="round" points="87.97 139.86 87.97 151.74 75.18 151.74 75.18 130.16 81.58 130.16 81.58 119.7 68.8 119.7"></polyline>
            <polyline id="_Path_879" stroke="#847B42" stroke-width="3" stroke-linecap="round" stroke-linejoin="round" points="56.98 93 62.98 93 62.98 106.4 69.52 106.4"></polyline>
            <path d="M72.29,93 L72.29,100.41" id="_Path_880" stroke="#847B42" stroke-width="3" stroke-linecap="round" stroke-linejoin="round"></path>
            <polyline id="_Path_881" stroke="#847B42" stroke-width="3" stroke-linecap="round" stroke-linejoin="round" points="1.32 116.87 24.03 116.87 24.03 110.76 37.57 110.76 37.57 123.19 53.32 123.19"></polyline>
            <polyline id="_Path_882" stroke="#847B42" stroke-width="3" stroke-linecap="round" stroke-linejoin="round" points="46.22 116.87 46.22 111.63 60.42 111.63 60.42 127.98"></polyline>
            <polyline id="_Path_883" stroke="#847B42" stroke-width="3" stroke-linecap="round" stroke-linejoin="round" points="67.75 128.58 67.75 136.51 52.1 136.51 51.83 131.28 41.42 131.28 41.42 135.72 34.31 135.72 34.31 130.49"></polyline>
            <path d="M1.32,62.38 L1.32,57.97" id="_Path_884" stroke="#847B42" stroke-width="3" stroke-linecap="round" stroke-linejoin="round"></path>
            <polyline id="_Path_885" stroke="#847B42" stroke-width="3" stroke-linecap="round" stroke-linejoin="round" points="19.65 62.38 19.65 56.5 33.13 56.5"></polyline>
            <polyline id="_Path_886" stroke="#847B42" stroke-width="3" stroke-linecap="round" stroke-linejoin="round" points="1.32 121.71 1.32 136.51 13.99 136.51 13.99 125.99 19.65 125.99"></polyline>
            <path d="M7.83,116.98 L7.83,123.2" id="_Path_887" stroke="#847B42" stroke-width="3" stroke-linecap="round" stroke-linejoin="round"></path>
            <polyline id="_Path_888" stroke="#847B42" stroke-width="3" stroke-linecap="round" stroke-linejoin="round" points="27.32 127.98 27.32 143.02 44.45 143.02"></polyline>
            <path d="M75.18,151.74 L47.33,151.74" id="_Path_889" stroke="#847B42" stroke-width="3" stroke-linecap="round" stroke-linejoin="round"></path>
            <polyline id="_Path_890" stroke="#847B42" stroke-width="3" stroke-linecap="round" stroke-linejoin="round" points="55.54 151.74 55.54 144.76 67.75 144.76"></polyline>
            <polyline id="_Path_891" stroke="#847B42" stroke-width="3" stroke-linecap="round" stroke-linejoin="round" points="1.32 136.51 1.32 152.77 9.38 152.77 9.38 147.38 21.81 147.38 21.81 137.57"></polyline>
            <path d="M10.99,136.51 L10.99,139.86" id="_Path_892" stroke="#847B42" stroke-width="3" stroke-linecap="round" stroke-linejoin="round"></path>
            <path d="M9.38,152.77 L22.81,152.77" id="_Path_893" stroke="#847B42" stroke-width="3" stroke-linecap="round" stroke-linejoin="round"></path>
            <path d="M30.22,152.77 L37.71,152.77" id="_Path_894" stroke="#847B42" stroke-width="3" stroke-linecap="round" stroke-linejoin="round"></path>
            <path d="M30.8,110.76 L30.8,116.24" id="_Path_895" stroke="#847B42" stroke-width="3" stroke-linecap="round" stroke-linejoin="round"></path>
        </g>
    </g>
</svg>