<?xml version="1.0" encoding="UTF-8"?>
<svg width="189px" height="127px" viewBox="0 0 189 127" version="1.1" xmlns="http://www.w3.org/2000/svg" xmlns:xlink="http://www.w3.org/1999/xlink">
    <!-- Generator: Sketch 52.5 (67469) - http://www.bohemiancoding.com/sketch -->
    <title>_Group_279</title>
    <desc>Created with Sketch.</desc>
    <g id="Page-1" stroke="none" stroke-width="1" fill="none" fill-rule="evenodd">
        <g id="_Group_279" transform="translate(2.000000, 1.000000)">
            <g id="_Group_280" transform="translate(29.000000, 60.000000)" stroke="#847B42" stroke-linecap="round" stroke-linejoin="round" stroke-width="3">
                <path d="M35.66,23.99 C32.8307991,32.334061 24.3774407,37.4037976 15.684213,35.970088 C6.99098525,34.5363785 0.61325251,27.0206601 0.61325251,18.21 C0.61325251,9.3993399 6.99098525,1.8836215 15.684213,0.449911954 C24.3774407,-0.983797588 32.8307991,4.085939 35.66,12.43 L35.66,17.98 L56.92,17.98" id="_Path_1150"></path>
                <path d="M35.76,12.35 L66.91,12.35 L66.91,15.35 L70.91,15.35 L70.91,12.35 L77.16,12.35 L77.16,15.35 L81.02,15.35 L81.02,12.35 L84.92,12.35 C86.4443059,12.35 87.68,13.5856941 87.68,15.11 L87.68,21.26 C87.6826697,21.9928127 87.3927421,22.6963817 86.8745619,23.2145619 C86.3563817,23.7327421 85.6528127,24.0226697 84.92,24.02 L35.76,24.0200183 L35.76,23.02" id="_Path_1151"></path>
                <path d="M16.94,12.67 C14.6246703,11.4487114 11.7791881,11.9203617 9.9817222,13.8233629 C8.18425625,15.7263642 7.8755439,18.5941018 9.22680397,20.8360639 C10.578064,23.0780259 13.2579685,24.1444848 15.7801819,23.4439584 C18.3023953,22.743432 20.0484726,20.4476889 20.05,17.83" id="_Path_1152"></path>
            </g>
            <path d="M0.29,11.16 L0.29,36.73 L84.29,36.73 C87.1998753,29.3032138 91.6903393,22.5982276 97.45,17.08 C99.7507286,14.8901718 102.244149,12.9121698 104.9,11.17 L0.29,11.16 Z M12.13,29 C10.0830375,29.0202679 8.22633432,27.8028086 7.42891184,25.9174483 C6.63148936,24.032088 7.05111684,21.8518433 8.49138956,20.3971679 C9.93166227,18.9424924 12.1076237,18.5011923 14.0008251,19.279816 C15.8940264,20.0584396 17.1298997,21.9029372 17.13,23.95 C17.1433479,25.2847244 16.6224622,26.5693768 15.6833297,27.5179007 C14.7441971,28.4664245 13.4647911,29.0000667 12.13,29 Z M29.13,29 C27.0830375,29.0202679 25.2263343,27.8028086 24.4289118,25.9174483 C23.6314894,24.032088 24.0511168,21.8518433 25.4913896,20.3971679 C26.9316623,18.9424924 29.1076237,18.5011923 31.0008251,19.279816 C32.8940264,20.0584396 34.1298997,21.9029372 34.13,23.95 C34.1433331,25.2829927 33.6238146,26.5661204 32.6868492,27.514352 C31.7498837,28.4625835 30.4730569,28.9974006 29.14,29 L29.13,29 Z M46.13,29 C43.3422704,28.9944797 41.086326,26.7310791 41.0900044,23.9433465 C41.0936828,21.1556139 43.3555923,18.8981746 46.1433267,18.900011 C48.9310612,18.9018474 51.1899945,21.162265 51.19,23.95 C51.184522,26.7328661 48.9328498,28.9890059 46.15,29 L46.13,29 Z" id="_Compound_Path_33" fill="#FFEB99" fill-rule="nonzero"></path>
            <polyline id="_Path_1153" stroke="#847B42" stroke-width="3" stroke-linecap="round" stroke-linejoin="round" points="83.2 36.73 0.29 36.73 0.29 11.16 104.26 11.16"></polyline>
            <polyline id="_Path_1154" stroke="#847B42" stroke-width="3" stroke-linecap="round" stroke-linejoin="round" points="156.23 60.44 156.23 124.17 0.29 124.17 0.29 36.73"></polyline>
            <path d="M17.18,23.95 C17.2002132,26.0014938 15.9772915,27.8613309 14.085757,28.6557696 C12.1942225,29.4502083 10.0100515,29.0213398 8.55935586,27.5706441 C7.10866024,26.1199485 6.67979169,23.9357775 7.47423039,22.044243 C8.26866908,20.1527085 10.1285062,18.9297868 12.18,18.95 C14.9414237,18.95 17.18,21.1885763 17.18,23.95 Z" id="_Path_1155" stroke="#847B42" stroke-width="3" stroke-linecap="round" stroke-linejoin="round"></path>
            <path d="M34.19,23.95 C34.2102132,26.0014938 32.9872915,27.8613309 31.095757,28.6557696 C29.2042225,29.4502083 27.0200515,29.0213398 25.5693559,27.5706441 C24.1186602,26.1199485 23.6897917,23.9357775 24.4842304,22.044243 C25.2786691,20.1527085 27.1385062,18.9297868 29.19,18.95 C31.9514237,18.95 34.19,21.1885763 34.19,23.95 Z" id="_Path_1156" stroke="#847B42" stroke-width="3" stroke-linecap="round" stroke-linejoin="round"></path>
            <path d="M51.21,23.95 C51.2343321,26.0018638 50.0170496,27.8652581 48.1283142,28.6673899 C46.2395787,29.4695216 44.0534152,29.0515451 42.5937984,27.609236 C41.1341816,26.1669269 40.6901583,23.9859045 41.4697041,22.0877356 C42.2492499,20.1895667 44.097992,18.9501443 46.15,18.95 C48.9212961,18.9498052 51.1771388,21.1788987 51.21,23.95 Z" id="_Path_1157" stroke="#847B42" stroke-width="3" stroke-linecap="round" stroke-linejoin="round"></path>
            <path d="M58.33,23.95 L87.78,23.95" id="_Path_1158" stroke="#847B42" stroke-width="3" stroke-linecap="round" stroke-linejoin="round"></path>
            <g id="_Group_281" transform="translate(87.000000, 0.000000)">
                <path d="M97.79,49.74 C93.16,29.07 76.66,10.81 55.59,7.74 C43.72,5.99 31.59,9.74 21.92,16.83 C6.12,28.45 1.81,45.19 0.78,49.77 L97.79,49.74 Z" id="_Path_1159" fill="#CECE7A"></path>
                <path d="M97.79,49.74 C93.16,29.07 76.66,10.81 55.59,7.74 C43.72,5.99 31.59,9.74 21.92,16.83 C6.12,28.45 1.81,45.19 0.78,49.77 L97.79,49.74 Z" id="_Path_1160" stroke="#847B42" stroke-width="3" stroke-linecap="round" stroke-linejoin="round"></path>
                <path d="M49.29,7.28 L49.29,0.62" id="_Path_1161" stroke="#847B42" stroke-width="3" stroke-linecap="round" stroke-linejoin="round"></path>
                <path d="M22.55,49.74 C22.9,44.22 24.61,29.1 36.38,16.68 C40.1443522,12.736161 44.5374265,9.44473457 49.38,6.94" id="_Path_1162" stroke="#847B42" stroke-width="3" stroke-linecap="round" stroke-linejoin="round"></path>
                <path d="M76.13,49.74 C75.78,44.22 74.06,29.1 62.29,16.68 C58.5279999,12.7335115 54.1344555,9.44173285 49.29,6.94" id="_Path_1163" stroke="#847B42" stroke-width="3" stroke-linecap="round" stroke-linejoin="round"></path>
                <path d="M49.29,7.28 L49.29,84.72 C49.29,85.8339093 48.8475013,86.9021957 48.0598485,87.6898485 C47.2721957,88.4775013 46.2039093,88.92 45.09,88.92 C42.7704041,88.92 40.89,87.0395959 40.89,84.72 L40.89,82.94" id="_Path_1164" stroke="#847B42" stroke-width="3" stroke-linecap="round" stroke-linejoin="round"></path>
            </g>
        </g>
    </g>
</svg>