<?xml version="1.0" encoding="UTF-8"?>
<svg width="123px" height="154px" viewBox="0 0 123 154" version="1.1" xmlns="http://www.w3.org/2000/svg" xmlns:xlink="http://www.w3.org/1999/xlink">
    <!-- Generator: Sketch 52.5 (67469) - http://www.bohemiancoding.com/sketch -->
    <title>_Group_238</title>
    <desc>Created with Sketch.</desc>
    <g id="Page-1" stroke="none" stroke-width="1" fill="none" fill-rule="evenodd">
        <g id="_Group_238" transform="translate(2.000000, 1.000000)">
            <path d="M109.06,120.21 L83.38,120.21 C79.0003819,120.21 75.45,123.760382 75.45,128.14 L75.45,136.64 C75.4444953,139.852014 72.8420143,142.454495 69.63,142.46 L0.13,142.46 L0.13,151.07 L84.62,151.07 L84.62,129 L109.06,129 L109.06,120.21 Z" id="_Path_1073" fill="#FFEB99"></path>
            <g id="_Group_239" transform="translate(76.000000, 0.000000)" fill="#CECE7A">
                <polyline id="_Path_1074" points="33.23 53.26 43.24 53.26 21.87 80.8 0.49 53.26 10.5 53.26"></polyline>
                <g id="_Group_240" transform="translate(10.000000, 0.000000)">
                    <polyline id="_Path_1075" points="10.52 53.26 0.5 53.26 0.5 0.95 23.23 0.95 23.23 53.26"></polyline>
                </g>
            </g>
            <g id="_Group_241" transform="translate(33.000000, 54.000000)">
                <g id="_Group_242">
                    <rect id="_Rectangle_66" fill="#FFEB99" x="0.36" y="20.45" width="40.92" height="30.03" rx="3.21"></rect>
                    <rect id="_Rectangle_67" stroke="#847B42" stroke-width="3" stroke-linecap="round" stroke-linejoin="round" x="0.36" y="20.45" width="40.92" height="30.03" rx="3.21"></rect>
                    <path d="M4.43,20.42 L4.43,16.34 C4.43,7.75 11.78,0.77 20.82,0.77 C29.86,0.77 37.2,7.77 37.2,16.34 L37.2,20.42" id="_Path_1076" stroke="#847B42" stroke-width="3" stroke-linecap="round" stroke-linejoin="round"></path>
                </g>
                <path d="M15.55,36.97 L15.55,34.97 C15.6423971,32.1511614 18.0010781,29.9401776 20.82,30.03 C22.1727872,29.9868932 23.4872294,30.4832906 24.4738196,31.4098601 C25.4604098,32.3364296 26.0382247,33.617171 26.08,34.97 L26.08,36.97" id="_Path_1077" stroke="#847B42" stroke-width="3" stroke-linecap="round" stroke-linejoin="round"></path>
            </g>
            <g id="_Group_243" transform="translate(0.000000, 8.000000)" stroke="#847B42" stroke-linecap="round" stroke-linejoin="round" stroke-width="3">
                <path d="M79.28,0.78 L0.12,0.78 L0.12,143.070002 L85.98,143.07 C92.1002769,143.072653 97.970791,140.643242 102.299418,136.31649 C106.628046,131.989738 109.060001,126.120277 109.06,120 L109.06,69.34" id="_Path_1078"></path>
                <polyline id="_Path_1079" points="84.61 143.1 84.61 121 109.05 121"></polyline>
            </g>
            <g id="_Group_244" transform="translate(76.000000, 0.000000)" stroke="#847B42" stroke-linecap="round" stroke-linejoin="round" stroke-width="3">
                <polyline id="_Path_1080" points="33.23 53.26 43.24 53.26 21.87 80.8 0.49 53.26 10.5 53.26"></polyline>
                <g id="_Group_245" transform="translate(10.000000, 0.000000)">
                    <polyline id="_Path_1081" points="10.52 53.26 0.5 53.26 0.5 0.95 23.23 0.95 23.23 53.26"></polyline>
                </g>
            </g>
        </g>
    </g>
</svg>