<?xml version="1.0" encoding="UTF-8"?>
<svg width="184px" height="135px" viewBox="0 0 184 135" version="1.1" xmlns="http://www.w3.org/2000/svg" xmlns:xlink="http://www.w3.org/1999/xlink">
    <!-- Generator: Sketch 52.5 (67469) - http://www.bohemiancoding.com/sketch -->
    <title>Group 13</title>
    <desc>Created with Sketch.</desc>
    <g id="Page-1" stroke="none" stroke-width="1" fill="none" fill-rule="evenodd">
        <g id="Group-13" transform="translate(1.000000, 1.000000)">
            <path d="M30.39,76.89 L30.39,43.43 C30.3955214,28.4283287 42.5583277,16.269999 57.56,16.27 L135.56,16.27 L135.56,9.67 L23.37,9.67 L23.37,76.89 L30.39,76.89 Z" id="_Path_223" fill="#CECE7A"></path>
            <g id="_Group_33" transform="translate(13.000000, 0.000000)" stroke="#847B42" stroke-linecap="round" stroke-linejoin="round" stroke-width="3">
                <polyline id="_Path_224" points="132.71 37.38 132.71 0.5 0.26 0.5 0.26 86.07 58.24 86.07"></polyline>
                <polyline id="_Path_225" points="50.33 76.89 10.37 76.89 10.37 9.67 122.59 9.67 122.59 22.7"></polyline>
            </g>
            <polyline id="_Path_226" stroke="#847B42" stroke-width="3" stroke-linecap="round" stroke-linejoin="round" points="13.25 86.06 0.54 124.11 0.54 131.97 74.31 131.97"></polyline>
            <path d="M0.54,124.11 L85.2,124.11" id="_Path_227" stroke="#847B42" stroke-width="3" stroke-linecap="round" stroke-linejoin="round"></path>
            <polyline id="_Path_228" stroke="#847B42" stroke-width="3" stroke-linecap="round" stroke-linejoin="round" points="74.31 131.97 151.16 131.97 151.16 124.11 137.33 124.11 85.2 124.11"></polyline>
            <g id="_Group_34" transform="translate(50.000000, 97.000000)" stroke="#847B42" stroke-linecap="round" stroke-linejoin="round" stroke-width="3">
                <path d="M0.8,0.93 L5.64,0.93" id="_Path_230"></path>
                <path d="M18.31,0.93 L23.15,0.93" id="_Path_231"></path>
                <path d="M35.81,0.93 L38.91,0.93" id="_Path_232"></path>
                <path d="M9.67,11.33 L14.51,11.33" id="_Path_233"></path>
                <path d="M26.56,11.33 L31.4,11.33" id="_Path_234"></path>
                <path d="M46.07,11.33 L50.91,11.33" id="_Path_235"></path>
            </g>
            <g id="_Group_35" transform="translate(70.000000, 21.000000)">
                <path d="M36.95,0.86 C16.8591827,0.860000759 0.571841851,17.1458504 0.570001527,37.2366676 C0.568161203,57.3274848 16.8525182,73.616318 36.9433352,73.6199994 C57.0341521,73.6236808 73.3244775,57.3408165 73.33,37.25 C73.3134661,17.1631141 57.0368806,0.882054582 36.95,0.86 Z M36.95,64.73 C25.830423,64.7299993 15.8059394,58.0311933 11.5515963,47.7576566 C7.29725325,37.4841198 9.65101439,25.6593965 17.5151729,17.7980987 C25.3793314,9.93680095 37.2049103,7.58734222 47.4768985,11.8454229 C57.7488867,16.1035036 64.444045,26.1304238 64.44,37.25 C64.4400005,44.5398821 61.5434218,51.5310435 56.3877591,56.6848307 C51.2320964,61.838618 44.2398816,64.7326528 36.95,64.73 Z" id="_Compound_Path_8" fill="#FFEB99" fill-rule="nonzero"></path>
                <path d="M50.52,3.62 C36.7770865,-1.94851204 21.0284483,1.41184122 10.7553049,12.1047604 C0.482161504,22.7976797 -2.24512298,38.6682026 3.86901833,52.1772097 C9.98315964,65.6862169 23.7065334,74.1112149 38.52,73.45 C55.5777709,72.7320948 69.8210733,60.2060128 72.7125923,43.3797817 C75.6041113,26.5535506 66.3595416,9.99117389 50.52,3.62 Z" id="_Path_236" stroke="#847B42" stroke-width="3" stroke-linecap="round" stroke-linejoin="round"></path>
                <path d="M26.53,62.65 C18.3217238,59.2731459 12.249864,52.1396538 10.2276987,43.4973284 C8.20553347,34.8550029 10.4820855,25.7681166 16.34,19.1 C16.69,18.7 17.05,18.32 17.42,17.94 C17.79,17.56 17.92,17.44 18.18,17.21 C25.1642601,10.6339032 35.076515,8.1842794 44.32,10.75" id="_Path_237" stroke="#847B42" stroke-width="3" stroke-linecap="round" stroke-linejoin="round"></path>
                <path d="M61.69,25.2 C66.7716334,35.6749645 64.7090672,48.2145663 56.54,56.51" id="_Path_238" stroke="#847B42" stroke-width="3" stroke-linecap="round" stroke-linejoin="round"></path>
                <path d="M71.52,63.93 L66.22,58.71" id="_Path_239" stroke="#847B42" stroke-width="3" stroke-linecap="round" stroke-linejoin="round"></path>
                <path d="M64.36,71.66 L58.82,66.2" id="_Path_240" stroke="#847B42" stroke-width="3" stroke-linecap="round" stroke-linejoin="round"></path>
                <path d="M95.36,105.71 L61.73,74.5 L74.06,61.25 L107.65,92.5 C109.408318,94.1253921 110.446438,96.384462 110.534645,98.7773268 C110.622853,101.170192 109.753876,103.499562 108.12,105.25 C106.492908,107.00997 104.230998,108.048211 101.835697,108.134562 C99.4403966,108.220913 97.1095976,107.34824 95.36,105.71 Z" id="_Path_241" stroke="#847B42" stroke-width="3" stroke-linecap="round" stroke-linejoin="round"></path>
                <path d="M106.26,103.3 L69.78,69.73 L74.16,65.02 L105.83,94.44 C108.349069,96.7895487 108.539706,100.717554 106.26,103.3 Z" id="_Path_242" fill="#CECE7A"></path>
                <g id="_Group_36" transform="translate(21.000000, 19.000000)" stroke="#847B42" stroke-linecap="round" stroke-linejoin="round" stroke-width="3">
                    <path d="M16.44,33.31 C14.0103441,33.3128501 11.6925804,32.2890201 10.0584054,30.4910468 C8.42423049,28.6930734 7.62578047,26.2883418 7.86,23.87 L8.57,16.42 C8.97528972,12.335718 12.4056725,9.22072305 16.51,9.21 C20.6707361,9.22267048 24.1271589,12.4225789 24.46,16.57 L25.04,24.03 C25.220826,26.4239864 24.3962321,28.7850968 22.7643487,30.5460128 C21.1324653,32.3069289 18.8408054,33.3084737 16.44,33.31 Z" id="_Path_243"></path>
                    <path d="M20.06,10.04 C21.0801654,8.28003568 20.6815516,6.04081455 19.1167048,4.74101983 C17.551858,3.44122511 15.2775135,3.46023077 13.7346073,4.78599558 C12.1917011,6.11176038 11.8305647,8.35733039 12.88,10.1" id="_Path_244"></path>
                    <path d="M16.44,33.31 L16.44,18.24" id="_Path_245"></path>
                    <polyline id="_Path_246" points="12.8 10.1 7.18 10.1 4.41 7.41"></polyline>
                    <polyline id="_Path_247" points="8.49 16.54 4.93 16.54 0.94 13.49"></polyline>
                    <polyline id="_Path_248" points="7.82 24.78 4.26 24.78 1.94 28.48"></polyline>
                    <polyline id="_Path_249" points="10.01 30.44 7.81 32.49 5.97 35.2"></polyline>
                    <polyline id="_Path_250" points="20.23 10.1 25.85 10.1 28.63 7.41"></polyline>
                    <polyline id="_Path_251" points="24.55 16.54 28.11 16.54 32.09 13.49"></polyline>
                    <polyline id="_Path_252" points="25.22 24.78 28.77 24.78 31.09 28.48"></polyline>
                    <polyline id="_Path_253" points="23.03 30.44 25.22 32.49 27.07 35.2"></polyline>
                    <path d="M13.93,4.57 C12.9902403,3.25925042 13.107481,1.46714256 14.21,0.29" id="_Path_254"></path>
                    <path d="M18.95,4.57 C19.8870629,3.25692397 19.7656251,1.4646696 18.66,0.29" id="_Path_255"></path>
                </g>
            </g>
        </g>
    </g>
</svg>