<?xml version="1.0" encoding="UTF-8"?>
<svg width="197px" height="151px" viewBox="0 0 197 151" version="1.1" xmlns="http://www.w3.org/2000/svg" xmlns:xlink="http://www.w3.org/1999/xlink">
    <!-- Generator: Sketch 52.5 (67469) - http://www.bohemiancoding.com/sketch -->
    <title>Group 12</title>
    <desc>Created with Sketch.</desc>
    <g id="Page-1" stroke="none" stroke-width="1" fill="none" fill-rule="evenodd">
        <g id="Group-12">
            <g id="_Group_174" transform="translate(95.000000, 32.000000)" stroke="#847B42" stroke-linecap="round" stroke-linejoin="round" stroke-width="3">
                <path d="M0.93,33.85 C4.66484812,18.093636 16.3470003,5.42596807 31.75,0.43" id="_Path_792"></path>
                <path d="M33.87,89.67 C32.67,89.34 31.49,88.96 30.33,88.54 C15.886853,83.2550685 4.96793632,71.2031272 1.13,56.31" id="_Path_793"></path>
                <path d="M90.65,33.85 C86.9151519,18.093636 75.2329997,5.42596807 59.83,0.43" id="_Path_794"></path>
                <path d="M57.71,89.67 C58.91,89.34 60.09,88.96 61.25,88.54 C75.693147,83.2550685 86.6120637,71.2031272 90.45,56.31" id="_Path_795"></path>
            </g>
            <path d="M141.33,100.98 C138.498797,101.000345 135.686036,100.523089 133.02,99.57 C121.068066,95.3245757 114.347036,82.6446352 117.542606,70.3702434 C120.738176,58.0958516 132.789158,50.3031006 145.293977,52.424857 C157.798797,54.5466134 166.604841,65.8782822 165.572807,78.5197721 C164.540772,91.161262 154.013378,100.914575 141.33,100.98 Z" id="_Path_796" stroke="#847B42" stroke-width="3" stroke-linecap="round" stroke-linejoin="round"></path>
            <path d="M141.33,95.5 C133.704068,95.5040445 126.826973,90.9128725 123.906787,83.8682033 C120.986601,76.8235341 122.598691,68.7133887 127.99104,63.3210398 C133.383389,57.928691 141.493534,56.3166006 148.538203,59.236787 C155.582872,62.1569734 160.174045,69.0340682 160.17,76.66 C160.18065,81.6599358 158.199147,86.4581536 154.66365,89.9936501 C151.128154,93.5291467 146.329936,95.5106495 141.33,95.5 Z" id="_Path_797" fill="#CECE7A"></path>
            <path d="M140.56,52.35 L140.56,20.29" id="_Path_799" stroke="#847B42" stroke-width="3" stroke-linecap="round" stroke-linejoin="round"></path>
            <path d="M140.75,134.65 L140.75,101.01" id="_Path_800" stroke="#847B42" stroke-width="3" stroke-linecap="round" stroke-linejoin="round"></path>
            <polyline id="_Path_801" stroke="#847B42" stroke-width="3" stroke-linecap="round" stroke-linejoin="round" points="165.64 76.65 190.38 76.65 195.39 76.65"></polyline>
            <path d="M117,76.65 L96.13,76.65" id="_Path_802" stroke="#847B42" stroke-width="3" stroke-linecap="round" stroke-linejoin="round"></path>
            <path d="M130.01,66.73 L151.83,88.55" id="_Path_803" stroke="#847B42" stroke-width="3" stroke-linecap="round" stroke-linejoin="round"></path>
            <path d="M151.83,66.73 L130.01,88.55" id="_Path_804" stroke="#847B42" stroke-width="3" stroke-linecap="round" stroke-linejoin="round"></path>
            <g id="_Group_175">
                <g id="_Group_176" fill="#FFEB99">
                    <path d="M51.74,0.5 C54.7456244,0.47878945 57.6923342,1.3336133 60.22,2.96 C65.8,6.56 66.9,12.34 67.63,16.17 L67.63,16.36 C67.75,17.01 67.87,17.64 68.03,18.25 C69.03,22.25 70.2,26.25 71.45,29.99 L71.55,30.28 C71.6299897,30.543711 71.8744406,30.722975 72.15,30.72 L72.42,30.72 C72.7601901,30.7210228 73.0572522,30.4899745 73.14,30.16 C73.37,28.94 73.57,27.72 73.76,26.5 L73.96,25.25 C74.14,24.11 74.32,22.96 74.43,21.82 C74.43,21.41 74.49,21 74.51,20.59 C74.64,17.87 74.86,13.49 78.35,9.79 C81.9263403,6.08209236 87.2500921,4.63784222 92.21,6.03 C96.6377973,7.34618764 100.1042,10.8050713 101.43,15.23 C103.16,20.85 100.55,25.44 99,28.17 C98.7,28.69 98.45,29.17 98.24,29.57 C97.05,31.96 95.92,34.43 94.87,36.95 C95.7986984,37.6133329 96.3998264,38.6417757 96.5220836,39.7764758 C96.6443409,40.911176 96.2760836,42.0440644 95.51,42.89 L93.35,45.28 C92.1870934,44.2291183 90.9395354,43.2758903 89.62,42.43 C87.2869175,40.8857811 86.376813,37.9038258 87.45,35.32 C88.7,32.24 90.07,29.18 91.53,26.25 C91.8,25.69 92.12,25.12 92.45,24.55 C93.99,21.83 95,19.78 94.27,17.41 C93.670086,15.3878627 92.0907049,13.8047212 90.07,13.2 C87.8129311,12.5960258 85.4057836,13.261914 83.78,14.94 C82.2,16.61 82.09,18.76 81.99,20.85 C81.99,21.49 81.93,22.02 81.88,22.54 C81.75,23.84 81.55,25.13 81.35,26.41 L81.16,27.65 C80.96,28.93 80.74,30.22 80.5,31.52 C79.7951134,35.210698 76.6800765,37.9553871 72.93,38.19 L72.7,38.19 C72.46,38.19 72.28,38.19 72.07,38.19 C68.5935493,38.1576835 65.5244121,35.9131507 64.44,32.61 L64.34,32.33 C63.04,28.33 61.84,24.26 60.77,20.08 C60.58,19.33 60.43,18.55 60.28,17.77 L60.28,17.57 C59.68,14.38 59.05,11.1 56.17,9.24 C53.8028796,7.72196707 50.8056523,7.58229084 48.3076116,8.87359845 C45.8095708,10.1649061 44.1903355,12.6909618 44.06,15.5 C43.91,18.41 45.49,20.5 47.18,22.66 C47.69,23.33 48.1,23.87 48.49,24.43 C49.74,26.24 50.91,28.16 52,29.96 C53.6,32.56 55.13,35.21 56.55,37.81 C57.8363813,40.1843354 57.313956,43.1323066 55.29,44.92 C54.4244546,45.6756348 53.6062408,46.4838296 52.84,47.34 C50.9797182,49.3962832 47.9227167,49.8449789 45.55,48.41 C42.65,46.65 39.83,44.8 37.16,42.9 C36.64,42.53 36.16,42.11 35.61,41.7 C33.61,40.13 31.53,38.41 28.88,38.78 C26.7952839,39.0334526 24.9847113,40.3348016 24.08,42.23 C23.0695607,44.3608375 23.3359327,46.8778602 24.77,48.75 C26.15,50.56 28.25,51.01 30.28,51.44 C30.94,51.58 31.46,51.7 31.99,51.84 C33.77,52.31 36.78,53.32 40.91,54.84 C44.3557047,56.0851535 46.4468724,59.5857682 45.91,63.21 L45.91,63.4 C45.4833545,66.7908384 42.8885777,69.5033752 39.52,70.08 L37.81,70.36 C33.11,71.13 28.32,71.73 23.56,72.15 C22.65,72.23 21.7,72.26 20.75,72.29 C17.03,72.39 13.27,72.5 10.67,75.38 C8.54353473,77.7373315 7.84087023,81.0522402 8.82806176,84.0695766 C9.8152533,87.0869131 12.3413971,89.3454423 15.45,89.99 C18.59,90.68 21.38,89.25 24.02,87.82 C24.81,87.4 25.5,87.03 26.23,86.68 C28.33,85.68 30.56,84.75 32.72,83.88 L32.94,83.78 C36.38,82.37 39.87,81.05 43.3,79.86 C45.8566358,78.9581703 48.6973403,79.9410126 50.15,82.23 C50.32,82.48 50.49,82.74 50.67,82.99 C52.3154317,85.2690176 52.0610951,88.405836 50.07,90.39 C47.81,92.71 45.47,94.96 43.07,97.06 C42.62,97.47 41.86,98.06 41.39,98.46 C38.87,100.46 37.14,101.95 36.9,104.46 C36.7183091,106.542356 37.5796222,108.579548 39.2,109.9 C41.05882,111.334432 43.5545774,111.633923 45.7,110.68 C47.8,109.68 48.7,107.76 49.59,105.87 L49.67,105.69 C49.88,105.24 50.09,104.79 50.3,104.39 C51.09,102.92 51.93,101.54 52.75,100.17 L52.92,99.89 C53.7,98.6 54.5,97.3 55.33,96.02 C57.2092945,93.2402722 60.7559201,92.1215936 63.89,93.32 C66.9860688,94.5068798 68.9592406,97.5596354 68.77,100.87 C68.71,102.12 68.64,103.38 68.56,104.64 C68.17,110.43 67.56,116.27 66.77,122 C66.61,123.09 66.39,124.2 66.17,125.31 C65.07,130.81 63.96,136.31 69.5,140.63 C71.3807227,142.065523 73.6947072,142.816862 76.06,142.76 L76.25,142.76 C80.3225968,142.61177 83.9686785,140.193923 85.69,136.5 C87.42,132.85 86.46,129.4 85.45,125.74 C85.18,124.74 84.92,123.82 84.71,122.88 C84.08,119.97 83.59,116.99 83.12,114.1 C82.26,108.9 81.58,103.84 81.12,99.03 C80.8561078,96.3870073 82.3613545,93.8850432 84.82,92.88 C85.4,92.64 85.98,92.39 87.48,91.7 C88.4108905,92.9172816 89.246693,94.2044174 89.98,95.55 C90.3178377,96.2283577 90.3705456,97.0136027 90.1263967,97.731025 C89.8822477,98.4484474 89.3614945,99.0385355 88.68,99.37 C89.13,103.7 89.75,108.22 90.51,112.84 C90.98,115.69 91.45,118.57 92.04,121.27 C92.21,122.06 92.45,122.9 92.68,123.72 C93.82,127.88 95.39,133.53 92.49,139.72 C89.554681,145.958221 83.3799037,150.033574 76.49,150.28 L76.15,150.28 C70.1257866,150.290202 64.4692842,147.383699 60.97,142.48 C56.42,136.02 57.81,129.07 58.83,124 C59.05,122.9 59.24,121.93 59.38,121 C60.15,115.45 60.74,109.79 61.11,104.19 C61.19,103.01 61.26,101.82 61.32,100.62 C60.64,101.62 59.99,102.73 59.32,103.79 L59.22,103.96 C58.39,105.34 57.61,106.63 56.9,107.96 C56.76,108.23 56.6,108.57 56.44,108.91 L56.36,109.09 C55.26,111.46 53.36,115.43 48.79,117.55 C44.3401874,119.597367 39.1355878,119.111323 35.1418099,116.275432 C31.1480319,113.43954 28.9737043,108.685973 29.44,103.81 C30.01,97.91 34.14,94.67 36.61,92.73 C37.09,92.35 37.48,92.05 37.83,91.73 C38.9833333,90.71 40.1266667,89.6533333 41.26,88.56 C39.42,89.25 37.57,89.98 35.73,90.74 L35.49,90.83 C33.43,91.67 31.32,92.53 29.4,93.46 C28.77,93.76 28.19,94.07 27.61,94.39 C24.99,95.8 21.54,97.66 17.22,97.7 C16.0733974,97.7089186 14.9294633,97.5881513 13.81,97.34 C8.09426942,96.1301764 3.45843313,91.9624312 1.64932753,86.4072186 C-0.159778074,80.8520061 1.13279868,74.7536191 5.04,70.41 C9.8,65.14 16.18,64.96 20.39,64.84 C21.29,64.84 22.08,64.84 22.85,64.72 C27.42,64.32 32.03,63.72 36.55,63.01 L38.24,62.73 C38.32,62.73 38.41,62.59 38.43,62.43 L38.43,62.23 C38.4639506,62.0955004 38.3904564,61.9571584 38.26,61.91 C34.44,60.53 31.49,59.54 29.95,59.13 C29.54,59.02 29.14,58.93 28.73,58.84 C26.06,58.27 21.8,57.36 18.73,53.35 C15.5993181,49.2321416 15.028342,43.7114198 17.25,39.04 C19.2442722,34.8730636 23.2174066,32.0033684 27.8,31.42 C28.346387,31.3402669 28.897826,31.3001622 29.45,31.3 C34.45,31.3 37.87,34.04 40.17,35.89 C40.62,36.26 41.01,36.58 41.41,36.89 C43.57,38.43 45.83,39.89 48.16,41.38 L49.27,40.38 C48.09,38.26 46.83,36.11 45.52,33.98 C44.52,32.25 43.37,30.44 42.23,28.79 C41.92,28.34 41.59,27.91 41.23,27.47 C39.16,24.77 36.23,20.89 36.48,15.21 C36.8523442,7.07145445 43.533095,0.650022312 51.68,0.6 L51.74,0.5 Z" id="_Path_805"></path>
                </g>
                <path d="M93.39,45.25 C92.2353672,44.204989 90.9979882,43.255217 89.69,42.41 C87.3475177,40.9267139 86.3971322,37.9830419 87.43,35.41 C88.69,32.2966667 90.06,29.24 91.54,26.24 C92.91,23.47 95.29,20.65 94.28,17.38 C93.6522957,15.2459921 91.9278309,13.6128744 89.7628501,13.1021292 C87.5978694,12.5913839 85.3253124,13.2815558 83.81,14.91 C81.81,17.05 82.17,19.83 81.9,22.54 C81.73,24.24 81.44,25.94 81.18,27.62 C80.98,28.92 80.76,30.22 80.52,31.51 C79.8183713,35.2025563 76.7015098,37.948853 72.95,38.18 L72.71,38.18 C69.0127022,38.4291492 65.6167802,36.1405036 64.46,32.62 L64.37,32.34 C63.0366667,28.3 61.8433333,24.2133333 60.79,20.08 C59.79,16.28 59.79,11.61 56.15,9.25 C53.7852728,7.74301833 50.7973333,7.60808498 48.3064001,8.89578827 C45.8154668,10.1834916 44.1978439,12.6992988 44.06,15.5 C43.86,19.21 46.52,21.61 48.49,24.5 C49.72,26.29 50.86,28.16 51.99,30.01 C53.57,32.58 55.09,35.21 56.54,37.87 C57.8387263,40.2507972 57.310908,43.2140605 55.27,45 C54.4200767,45.748271 53.6153276,46.5463417 52.86,47.39 C51.0249525,49.4619734 47.9741582,49.9326193 45.6,48.51 C42.75,46.78 39.94,44.94 37.21,42.99 C34.7,41.2 32.3,38.41 28.91,38.88 C26.6904787,39.1613604 24.793875,40.6148622 23.9451541,42.6849132 C23.0964332,44.7549642 23.42681,47.121528 24.81,48.88 C26.59,51.19 29.4,51.27 32.03,51.98 C34.18,52.55 37.8,53.81 40.96,54.98 C44.4040063,56.2503008 46.4891609,59.7575309 45.96,63.39 C45.9550827,63.4498992 45.9550827,63.5101008 45.96,63.57 C45.5119451,66.9448228 42.9242804,69.6377759 39.57,70.22 L37.86,70.5 C33.14,71.27 28.37,71.87 23.61,72.29 C19.2,72.67 14.02,71.87 10.74,75.5 C8.74985662,77.7459549 8.00091117,80.8316101 8.74,83.74 C9.63272906,86.9689248 12.2450041,89.4347891 15.52,90.14 C19.61,91.03 22.75,88.51 26.26,86.83 C28.47,85.77 30.75,84.83 33,83.92 C36.43,82.52 39.87,81.21 43.35,80 C45.9072952,79.1142174 48.7389298,80.0883658 50.21,82.36 C50.38,82.62 50.55,82.88 50.73,83.13 C52.3569344,85.382992 52.129136,88.4793619 50.19,90.47 C47.86,92.86 45.44,95.19 42.93,97.47 C40.61,99.47 37.37,101.22 37.04,104.63 C36.8205153,106.846847 37.8072092,109.011037 39.6246895,110.299194 C41.4421697,111.587351 43.8110199,111.801437 45.83,110.86 C48.49,109.64 49.2,106.93 50.47,104.52 C51.28,103.01 52.17,101.52 53.05,100.08 C53.84,98.78 54.64,97.48 55.47,96.21 C57.2927773,93.4058912 60.8310595,92.2626256 63.95,93.47 L64.03,93.47 C67.1179943,94.6626808 69.0904636,97.7040752 68.92,101.01 C68.85,102.27 68.78,103.53 68.7,104.79 C68.3066667,110.61 67.7066667,116.4 66.9,122.16 C66.15,127.49 63.79,133.43 67.21,138.29 C69.3132112,141.263864 72.758574,142.995918 76.4,142.91 C80.477067,142.76676 84.1269794,140.342506 85.84,136.64 C88.01,132.04 85.84,127.64 84.84,123.01 C84.21,120.1 83.73,117.15 83.25,114.21 C82.42,109.21 81.74,104.21 81.25,99.21 C80.9922515,96.5679785 82.5012443,94.0706159 84.96,93.07 L86.7,92.33" id="_Path_806" stroke="#847B42" stroke-width="3" stroke-linecap="round" stroke-linejoin="round"></path>
                <path d="M81.55,81.58 C83.5559149,83.1900652 86.4870075,82.870404 88.0987118,80.8658057 C89.7104161,78.8612075 89.3931508,75.9298546 87.3898706,74.3165123 C85.3865904,72.70317 82.4549792,73.0180392 80.84,75.02" id="_Path_807" stroke="#847B42" stroke-width="3" stroke-linecap="round" stroke-linejoin="round"></path>
                <path d="M71.95,51.83 C70.2861302,53.897258 70.031621,56.7633359 71.3051806,59.0914391 C72.5787402,61.4195423 75.129482,62.751043 77.7676902,62.4649033 C80.4058984,62.1787635 82.6118557,60.3313519 83.3566606,57.7843372 C84.1014656,55.2373224 83.2383943,52.4924571 81.17,50.83" id="_Path_808" stroke="#847B42" stroke-width="3" stroke-linecap="round" stroke-linejoin="round"></path>
                <path d="M63.06,74.82 C64.7764513,72.6640975 64.4249313,69.5258272 62.2740328,67.8031094 C60.1231343,66.0803916 56.9838544,66.4227776 55.2548847,68.5686539 C53.525915,70.7145301 53.8591642,73.8547931 56,75.59" id="_Path_809" stroke="#847B42" stroke-width="3" stroke-linecap="round" stroke-linejoin="round"></path>
            </g>
        </g>
    </g>
</svg>