<?xml version="1.0" encoding="UTF-8"?>
<svg width="156px" height="157px" viewBox="0 0 156 157" version="1.1" xmlns="http://www.w3.org/2000/svg" xmlns:xlink="http://www.w3.org/1999/xlink">
    <!-- Generator: Sketch 52.5 (67469) - http://www.bohemiancoding.com/sketch -->
    <title>Group 7</title>
    <desc>Created with Sketch.</desc>
    <g id="Page-1" stroke="none" stroke-width="1" fill="none" fill-rule="evenodd">
        <g id="Group-7" transform="translate(1.000000, 2.000000)">
            <path d="M29.38,28.64 L29.38,124.37 L125.11,124.37 L125.11,28.64 L29.38,28.64 Z M105.15,69 L104,84.15 C103.852708,86.2491018 102.104257,87.8751613 100,87.87 L99.94,91.48 C99.9404226,94.333664 97.6532415,96.660893 94.8,96.71 C93.554343,96.6805001 92.348147,97.147895 91.4476085,98.009035 C90.5470699,98.870175 90.026218,100.05427 90,101.3 L90,106.88 C89.9945054,108.932219 88.332219,110.594505 86.28,110.6 L70.94,110.6 C68.887781,110.594505 67.2254946,108.932219 67.22,106.88 L67.22,101.42 C67.2259274,98.8551177 65.174419,96.7591081 62.61,96.71 C59.7416333,96.7770884 57.3609443,94.5082739 57.29,91.64 L57.29,87.87 C55.1857432,87.8751613 53.4372921,86.2491018 53.29,84.15 L52.14,69 C51.5069905,60.1527835 55.6091869,51.6325444 62.92,46.61 C67.1588817,43.9505278 72.0559841,42.5271127 77.06,42.5 C82.16,42.31 87.52,42.88 92.06,45.3 C99.9079401,49.5184785 104.917627,57.5949316 105.21,66.5 C105.23,67.35 105.21,68.18 105.15,69 Z" id="_Compound_Path_5" fill="#FFEB99" fill-rule="nonzero"></path>
            <rect id="_Rectangle_3" stroke="#847B42" stroke-width="3" stroke-linecap="round" stroke-linejoin="round" x="18.99" y="18.25" width="116.51" height="116.51"></rect>
            <polyline id="_Path_163" stroke="#847B42" stroke-width="3" stroke-linecap="round" stroke-linejoin="round" points="46.99 124.38 29.38 124.38 29.38 28.64 106.07 28.64"></polyline>
            <polyline id="_Path_164" stroke="#847B42" stroke-width="3" stroke-linecap="round" stroke-linejoin="round" points="125.11 51.12 125.11 124.38 78.12 124.38"></polyline>
            <g id="_Group_21" transform="translate(34.000000, 0.000000)" stroke="#847B42" stroke-linecap="round" stroke-linejoin="round" stroke-width="3">
                <path d="M0.93,18.25 L0.93,0.26" id="_Path_165"></path>
                <path d="M17.86,18.25 L17.86,0.26" id="_Path_166"></path>
                <path d="M34.78,18.25 L34.78,0.26" id="_Path_167"></path>
                <path d="M51.71,18.25 L51.71,0.26" id="_Path_168"></path>
                <path d="M68.63,18.25 L68.63,0.26" id="_Path_169"></path>
                <path d="M85.56,18.25 L85.56,0.26" id="_Path_170"></path>
            </g>
            <g id="_Group_22" transform="translate(34.000000, 134.000000)" stroke="#847B42" stroke-linecap="round" stroke-linejoin="round" stroke-width="3">
                <path d="M0.93,18.76 L0.93,0.76" id="_Path_171"></path>
                <path d="M17.86,18.76 L17.86,0.76" id="_Path_172"></path>
                <path d="M34.78,18.76 L34.78,0.76" id="_Path_173"></path>
                <path d="M51.71,18.76 L51.71,0.76" id="_Path_174"></path>
                <path d="M68.63,18.76 L68.63,0.76" id="_Path_175"></path>
                <path d="M85.56,18.76 L85.56,0.76" id="_Path_176"></path>
            </g>
            <g id="_Group_23" transform="translate(135.000000, 33.000000)" stroke="#847B42" stroke-linecap="round" stroke-linejoin="round" stroke-width="3">
                <path d="M18.5,85.82 L0.5,85.82" id="_Path_177"></path>
                <path d="M18.5,68.9 L0.5,68.9" id="_Path_178"></path>
                <path d="M18.5,51.97 L0.5,51.97" id="_Path_179"></path>
                <path d="M18.5,35.05 L0.5,35.05" id="_Path_180"></path>
                <path d="M18.5,18.12 L0.5,18.12" id="_Path_181"></path>
                <path d="M18.5,1.19 L0.5,1.19" id="_Path_182"></path>
            </g>
            <g id="_Group_24" transform="translate(0.000000, 33.000000)" stroke="#847B42" stroke-linecap="round" stroke-linejoin="round" stroke-width="3">
                <path d="M18.99,85.82 L0.99,85.82" id="_Path_183"></path>
                <path d="M18.99,68.9 L0.99,68.9" id="_Path_184"></path>
                <path d="M18.99,51.97 L0.99,51.97" id="_Path_185"></path>
                <path d="M18.99,35.05 L0.99,35.05" id="_Path_186"></path>
                <path d="M18.99,18.12 L0.99,18.12" id="_Path_187"></path>
                <path d="M18.99,1.19 L0.99,1.19" id="_Path_188"></path>
            </g>
            <path d="M100,87.87 C102.104257,87.8751613 103.852708,86.2491018 104,84.15 L105.15,69 C105.21,68.18 105.23,67.35 105.21,66.52 C104.954393,57.6022479 99.9659467,49.4964994 92.12,45.25 C87.55,42.83 82.19,42.25 77.12,42.45 C72.0975066,42.4846448 67.1851842,43.9257775 62.94,46.61 C55.6291869,51.6325444 51.5269905,60.1527835 52.16,69 L53.31,84.15 C53.4572921,86.2491018 55.2057432,87.8751613 57.31,87.87 L57.31,91.64 C57.3809443,94.5082739 59.7616333,96.7770884 62.63,96.71 C65.194419,96.7591081 67.2459274,98.8551177 67.24,101.42 L67.24,106.88 C67.2454946,108.932219 68.907781,110.594505 70.96,110.6 L86.3,110.6 C88.352219,110.594505 90.0145054,108.932219 90.02,106.88 L90.02,101.3 C90.046218,100.05427 90.5670699,98.870175 91.4676085,98.009035 C92.368147,97.147895 93.574343,96.6805001 94.82,96.71 C97.6732415,96.660893 99.9604226,94.333664 99.96,91.48 L100,87.87 Z" id="_Path_189" stroke="#847B42" stroke-width="3" stroke-linecap="round" stroke-linejoin="round"></path>
            <path d="M73.46,77.56 L73.46,77.93 C73.46,78.6513889 73.1734294,79.3432315 72.6633304,79.8533304 C72.1532315,80.3634294 71.4613889,80.65 70.74,80.65 L65.74,80.65 C64.2377855,80.65 63.02,79.4322145 63.02,77.93 L63.02,74.5 C63.02,72.9977855 64.2377855,71.78 65.74,71.78 L69.48,71.78" id="_Path_191" stroke="#847B42" stroke-width="3" stroke-linecap="round" stroke-linejoin="round"></path>
            <path d="M83.83,77.56 L83.83,77.93 C83.83,79.4322145 85.0477855,80.65 86.55,80.65 L91.55,80.65 C93.0522145,80.65 94.27,79.4322145 94.27,77.93 L94.27,74.5 C94.27,72.9977855 93.0522145,71.78 91.55,71.78 L87.8,71.78" id="_Path_192" stroke="#847B42" stroke-width="3" stroke-linecap="round" stroke-linejoin="round"></path>
            <path d="M75.89,84.94 L75.33,86.12 C74.8637,87.0503907 74.7917727,88.1293773 75.1304522,89.1134294 C75.4691317,90.0974816 76.1898721,90.9036572 77.13,91.35 C77.6353803,91.5675419 78.1797876,91.6798259 78.73,91.68 C78.9165347,91.6899248 79.1034653,91.6899248 79.29,91.68 C80.5043679,91.4544854 81.5401302,90.6670607 82.0822228,89.5572492 C82.6243155,88.4474376 82.6086532,87.1464396 82.04,86.05 L81.51,84.98" id="_Path_193" stroke="#847B42" stroke-width="3" stroke-linecap="round" stroke-linejoin="round"></path>
            <g id="_Group_26" transform="translate(72.000000, 106.000000)" stroke="#847B42" stroke-linecap="round" stroke-linejoin="round" stroke-width="3">
                <path d="M0.83,4.6 L0.83,0" id="_Path_194"></path>
                <path d="M6.93,4.6 L6.93,0" id="_Path_195"></path>
                <path d="M13.04,4.6 L13.04,0" id="_Path_196"></path>
            </g>
        </g>
    </g>
</svg>