<?xml version="1.0" encoding="UTF-8"?>
<svg width="142px" height="146px" viewBox="0 0 142 146" version="1.1" xmlns="http://www.w3.org/2000/svg" xmlns:xlink="http://www.w3.org/1999/xlink">
    <!-- Generator: Sketch 52.5 (67469) - http://www.bohemiancoding.com/sketch -->
    <title>Group 9</title>
    <desc>Created with Sketch.</desc>
    <g id="Page-1" stroke="none" stroke-width="1" fill="none" fill-rule="evenodd">
        <g id="Group-9" transform="translate(2.000000, 2.000000)">
            <g id="_Group_166" stroke="#847B42" stroke-linecap="round" stroke-linejoin="round" stroke-width="3">
                <polyline id="_Path_779" points="102.39 142.21 0.18 142.21 0.18 0.28 66.34 0.28 105.55 0.28 105.55 59.03"></polyline>
            </g>
            <path d="M22,15.5 L82.43,15.5" id="_Path_780" stroke="#847B42" stroke-width="3" stroke-linecap="round" stroke-linejoin="round"></path>
            <path d="M22,26.5 L82.43,26.5" id="_Path_781" stroke="#847B42" stroke-width="3" stroke-linecap="round" stroke-linejoin="round"></path>
            <g id="_Group_167" transform="translate(63.000000, 68.000000)">
                <g id="_Group_168" transform="translate(21.000000, 20.000000)" fill="#FFEB99">
                    <polygon id="_Path_782" points="34.16 11.42 34.16 22.92 23 22.92 23 34.08 11.53 34.08 11.53 22.92 0.36 22.92 0.36 11.42 11.53 11.42 11.53 0.26 23 0.26 23 11.42"></polygon>
                </g>
                <path d="M39.49,74.2 C56.9901689,73.4012616 71.5316867,60.4391326 74.3284527,43.1454346 C77.1252188,25.8517365 67.4106082,8.96686553 51.0542659,2.69279499 C34.6979237,-3.58127555 16.1833062,2.4752473 6.69709277,17.2029643 C-2.7891207,31.9306812 -0.646652931,51.2925602 11.83,63.59" id="_Path_783" stroke="#847B42" stroke-width="3" stroke-linecap="round" stroke-linejoin="round"></path>
                <path d="M19.06,15.18 C29.3466855,6.38473738 44.3492809,5.87427562 55.21,13.95" id="_Path_784" stroke="#847B42" stroke-width="3" stroke-linecap="round" stroke-linejoin="round"></path>
                <path d="M65.13,46.96 C60.8957448,58.6524946 49.6780547,66.343869 37.2453069,66.0790535 C24.812559,65.814238 13.9325444,57.6521861 10.2,45.79" id="_Path_785" stroke="#847B42" stroke-width="3" stroke-linecap="round" stroke-linejoin="round"></path>
                <g id="_Group_169" transform="translate(21.000000, 20.000000)" stroke="#847B42" stroke-linecap="round" stroke-linejoin="round" stroke-width="3">
                    <polygon id="_Path_786" points="34.16 11.42 34.16 22.92 23 22.92 23 34.08 11.53 34.08 11.53 22.92 0.36 22.92 0.36 11.42 11.53 11.42 11.53 0.26 23 0.26 23 11.42"></polygon>
                </g>
            </g>
            <g id="_Group_170" transform="translate(14.000000, 39.000000)">
                <g id="_Group_171" fill="#CECE7A">
                    <path d="M47.48,1.58 C49.0781775,2.27909942 50.4347412,3.43391776 51.38,4.9 C53.48,8.13 52.69,11.46 52.16,13.66 L52.16,13.77 C52.08,14.14 51.99,14.51 51.92,14.87 C51.51,17.23 51.18,19.59 50.92,21.87 L50.92,22.04 C50.9053255,22.2005047 50.9935004,22.3528066 51.14,22.42 L51.28,22.42 C51.4601899,22.5054108 51.6754587,22.4557334 51.8,22.3 C52.21,21.71 52.61,21.11 53,20.51 L53.4,19.89 C53.77,19.33 54.14,18.77 54.47,18.19 C54.59,17.9766667 54.7,17.7666667 54.8,17.56 C55.6776,15.4343077 57.3234718,13.7170315 59.41,12.75 C62.1891517,11.6432922 65.3510857,12.1459783 67.65,14.06 C69.6708931,15.819188 70.6769552,18.4732401 70.33,21.13 C69.91,24.52 67.44,26.32 65.96,27.4 C65.68,27.61 65.45,27.78 65.23,27.96 C64.03,28.96 62.84,29.96 61.69,31.07 C62.025141,31.6429804 62.0987951,32.3320734 61.8923284,32.9629438 C61.6858617,33.5938143 61.2190526,34.1060284 60.61,34.37 L58.9,35.12 C58.5283459,34.2880968 58.0937509,33.4857675 57.6,32.72 C56.7359984,31.3471762 56.962089,29.5551993 58.14,28.44 C59.54,27.1 61,25.81 62.47,24.6 C62.75,24.37 63.05,24.15 63.36,23.92 C64.82,22.86 65.84,22.01 66.02,20.58 C66.1879529,19.3660472 65.7285615,18.1497895 64.8,17.35 C63.7512765,16.4915813 62.3194595,16.2695349 61.06,16.77 C59.9665492,17.3472362 59.1257617,18.3091541 58.7,19.47 C58.53,19.81 58.39,20.08 58.24,20.35 C57.87,21 57.45,21.64 57.04,22.27 L56.64,22.87 C56.23,23.51 55.81,24.14 55.37,24.77 C54.1207651,26.5560905 51.8197439,27.2682133 49.78,26.5 L49.65,26.5 L49.31,26.36 C47.4805104,25.5120978 46.391704,23.5956379 46.6,21.59 L46.6,21.42 C46.85,19.02 47.19,16.55 47.6,14.08 C47.68,13.64 47.78,13.19 47.89,12.74 L47.89,12.63 C48.33,10.79 48.78,8.91 47.7,7.23 C46.811085,5.84929572 45.249741,5.05165179 43.6100432,5.14056353 C41.9703454,5.22947526 40.504406,6.19127201 39.77,7.66 C38.99,9.16 39.34,10.66 39.71,12.19 C39.82,12.67 39.92,13.05 39.98,13.44 C40.21,14.7 40.38,15.99 40.53,17.2 C40.75,18.96 40.94,20.73 41.07,22.44 C41.1823482,24.0068721 40.2003751,25.4446133 38.7,25.91 C38.0628989,26.1047565 37.4383854,26.3385316 36.83,26.61 C35.3565288,27.2536542 33.6335703,26.763177 32.72,25.44 C31.6,23.82 30.55,22.16 29.59,20.52 C29.4,20.2 29.23,19.86 29.05,19.52 C28.4,18.22 27.67,16.8 26.19,16.37 C25.0241083,16.0090892 23.7547153,16.2652278 22.82,17.05 C21.7825347,17.9381802 21.3240706,19.3289833 21.63,20.66 C22.0254449,21.826146 22.8373014,22.8053589 23.91,23.41 C24.22,23.64 24.48,23.82 24.72,24.02 C25.55,24.7 26.9,25.95 28.72,27.72 C30.2609233,29.1949824 30.5417278,31.5545778 29.39,33.35 L29.33,33.45 C28.2901701,35.1503996 26.2556697,35.9641998 24.33,35.45 L23.33,35.2 C20.66,34.48 17.98,33.66 15.33,32.75 C14.83,32.57 14.33,32.36 13.82,32.15 C11.82,31.32 9.82,30.48 7.74,31.38 C6.15761416,32.0999796 5.03425434,33.5566028 4.74,35.27 C4.43788713,37.1907237 5.23255672,39.1195334 6.8,40.27 C8.3,41.38 10.11,41.27 11.85,41.16 C12.37,41.16 12.85,41.09 13.29,41.08 C14.65,41.08 16.05,41.08 17.4,41.14 L17.54,41.14 C19.7,41.21 21.86,41.34 23.96,41.53 C24.3258621,41.5605906 24.6840858,41.6518363 25.02,41.8 C26.0925079,42.2717383 26.8477194,43.2610653 27.02,44.42 L27.11,44.94 C27.4414418,46.540191 26.559133,48.1436174 25.03,48.72 C23.29,49.41 21.51,50.04 19.76,50.59 C19.43,50.7 18.88,50.85 18.54,50.93 C16.74,51.38 15.46,51.77 14.73,53.05 C14.1393837,54.1101969 14.1094542,55.3934203 14.65,56.48 C15.2845151,57.6970046 16.5375908,58.4657628 17.91,58.48 C19.1403067,58.3543295 20.2803868,57.7771639 21.11,56.86 L21.2,56.79 C21.42,56.6 21.64,56.41 21.85,56.25 C22.61,55.66 23.38,55.13 24.15,54.6 L24.3,54.49 C25.02,53.99 25.76,53.49 26.5,53.02 C28.1567759,51.9940884 30.3016087,52.2425247 31.68,53.62 C33.0330121,54.9880847 33.3481932,57.0731284 32.46,58.78 C32.13,59.43 31.79,60.08 31.46,60.78 C29.88,63.78 28.17,66.7 26.38,69.54 C26.03,70.08 25.65,70.62 25.27,71.15 C23.38,73.8 21.48,76.47 23.39,80.06 C24.0500136,81.2756809 25.1098104,82.2259653 26.39,82.75 L26.5,82.75 C28.6876708,83.6415667 31.1904394,83.2321632 32.98,81.69 C34.76,80.17 35.08,78.11 35.42,75.93 C35.51,75.36 35.59,74.79 35.71,74.24 C36.07,72.55 36.52,70.86 36.95,69.24 C37.74,66.24 38.58,63.44 39.48,60.78 C39.9609919,59.312242 41.3565649,58.3410538 42.9,58.4 C43.26,58.4 43.63,58.4 44.59,58.4 C44.7936042,59.2645295 44.9273685,60.1440298 44.99,61.03 C45.0089338,61.4693788 44.8516773,61.8981353 44.553145,62.2210759 C44.2546127,62.5440165 43.8395103,62.7344155 43.4,62.75 C42.61,65.15 41.86,67.69 41.16,70.31 C40.73,71.93 40.29,73.57 39.96,75.14 C39.86,75.6 39.79,76.14 39.71,76.59 C39.33,79.06 38.81,82.43 35.81,85 C32.768962,87.6138397 28.5174881,88.2979405 24.81,86.77 L24.62,86.7 C21.4320906,85.2651279 19.133883,82.3784003 18.45,78.95 C17.58,74.45 19.97,71.1 21.71,68.66 C22.09,68.13 22.42,67.66 22.71,67.19 C24.44,64.44 26.1,61.59 27.63,58.71 C27.96,58.1 28.28,57.49 28.63,56.87 C28.03,57.27 27.43,57.67 26.84,58.08 L26.74,58.15 C25.97,58.68 25.26,59.15 24.57,59.7 C24.43,59.81 24.26,59.95 24.1,60.1 L24.01,60.17 C22.4147398,61.7810995 20.2744533,62.7370941 18.01,62.85 C15.160002,62.8841792 12.5097823,61.3900557 11.0637694,58.9338994 C9.61775648,56.4777432 9.59724165,53.4354334 11.01,50.96 C12.71,47.96 15.67,47.24 17.44,46.8 C17.79,46.72 18.06,46.65 18.32,46.57 C19.17,46.3 20.03,46.01 20.9,45.71 C19.75,45.64 18.6,45.58 17.45,45.54 L17.3,45.54 C16.01,45.54 14.69,45.44 13.45,45.48 C13.04,45.48 12.66,45.48 12.28,45.54 C10.1562036,45.8374731 7.99163977,45.5897011 5.99,44.82 C5.38248775,44.5492669 4.80584122,44.2140073 4.27,43.82 C1.52911255,41.8192543 0.0651225922,38.5072545 0.430352091,35.1335244 C0.795581589,31.7597942 2.9344413,28.8378277 6.04,27.47 C9.82,25.82 13.23,27.24 15.5,28.18 C15.98,28.38 16.4,28.56 16.83,28.7 C19.34,29.58 21.92,30.37 24.49,31.06 L25.49,31.31 C25.49,31.31 25.61,31.31 25.66,31.2 L25.72,31.1 C25.7501351,31.0734234 25.7673987,31.0351801 25.7673987,30.995 C25.7673987,30.9548199 25.7501351,30.9165766 25.72,30.89 C24.03,29.25 22.72,28.02 21.98,27.44 C21.79,27.28 21.6,27.14 21.41,27 C19.4620513,25.7989231 18.0348886,23.9115004 17.41,21.71 C16.7230856,18.7793154 17.73938,15.7111109 20.04,13.77 C22.0905343,12.0437674 24.8750445,11.471814 27.44,12.25 C27.745811,12.343453 28.0462628,12.4536186 28.34,12.58 C30.4234674,13.6348263 32.0515544,15.4122138 32.92,17.58 C33.07,17.89 33.21,18.15 33.35,18.4 C34.13,19.72 34.97,21.06 35.86,22.4 L36.69,22.12 C36.57,20.72 36.41,19.28 36.23,17.84 C36.08,16.67 35.93,15.45 35.72,14.31 C35.66,14 35.59,13.69 35.52,13.38 C35.06,11.45 34.41,8.69 35.92,5.75 C37.4654487,2.75772522 40.5521939,0.878669089 43.92,0.88 C45.1421694,0.866127813 46.3540706,1.10442301 47.48,1.58 Z" id="_Path_787"></path>
                </g>
                <path d="M58.87,35.2 C58.5039502,34.3736365 58.0725829,33.5777804 57.58,32.82 C56.7002309,31.4766832 56.897393,29.6980298 58.05,28.58 C59.46,27.23 60.92,25.94 62.41,24.71 C63.9,23.48 65.73,22.64 65.97,20.71 C66.1612811,19.4167007 65.6343743,18.1216625 64.5945,17.3292783 C63.5546256,16.536894 62.1662044,16.3724523 60.97,16.9 C59.39,17.56 58.97,19.12 58.14,20.49 C57.65,21.35 57.09,22.18 56.55,23.01 C56.13,23.65 55.71,24.28 55.27,24.91 C54.0207651,26.6960905 51.7197439,27.4082133 49.68,26.64 L49.54,26.64 C47.5426802,25.8725158 46.3114872,23.8574634 46.54,21.73 L46.54,21.56 C46.8,19.1 47.1333333,16.65 47.54,14.21 C47.93,11.97 49.03,9.49 47.66,7.37 C46.7727629,5.98844662 45.2125811,5.18903755 43.5729658,5.2758772 C41.9333504,5.36271685 40.4663392,6.32245645 39.73,7.79 C38.73,9.71 39.58,11.61 39.95,13.58 C40.17,14.82 40.33,16.08 40.49,17.33 C40.71,19.07 40.89,20.82 41.03,22.58 C41.1487764,24.1517284 40.1590357,25.5947537 38.65,26.05 C38.0223171,26.2397502 37.4076791,26.4702395 36.81,26.74 C35.3444615,27.4023422 33.614963,26.9226273 32.7,25.6 C31.6,24 30.55,22.36 29.57,20.68 C28.59,19 28.06,17.08 26.15,16.52 C24.9136338,16.1523186 23.575029,16.4722434 22.6385286,17.3592372 C21.7020282,18.246231 21.3099438,19.5655052 21.61,20.82 C22,22.47 23.47,23.18 24.7,24.18 C25.7,24.99 27.32,26.52 28.7,27.88 C30.2301529,29.3703744 30.5017396,31.7310892 29.35,33.53 L29.35,33.62 C28.3057063,35.3151043 26.2752501,36.1272868 24.35,35.62 L23.35,35.36 C20.67,34.65 18,33.82 15.35,32.91 C12.92,32.07 10.35,30.41 7.77,31.55 C6.19244008,32.2708542 5.07058148,33.7217913 4.77,35.43 C4.46788713,37.3507237 5.26255672,39.2795334 6.83,40.43 C8.83,41.87 11.05,41.28 13.31,41.23 C14.73,41.23 16.16,41.23 17.57,41.3 C19.72,41.37 21.85,41.5 23.99,41.69 C25.5521649,41.8293323 26.8163336,43.0191381 27.05,44.57 L27.14,45.1 C27.4751956,46.6727603 26.631509,48.2588911 25.14,48.86 C23.33,49.57 21.5,50.23 19.64,50.86 C17.78,51.49 15.8,51.52 14.81,53.25 C14.2193837,54.3101969 14.1894542,55.5934203 14.73,56.68 C15.3472587,57.9082575 16.605366,58.6824774 17.98,58.68 C19.68,58.68 20.7,57.4 21.98,56.43 C22.77,55.82 23.59,55.26 24.41,54.69 C25.23,54.12 25.87,53.69 26.61,53.22 C28.2412891,52.16525 30.3894367,52.4034687 31.75,53.79 C33.1038212,55.1563446 33.4265373,57.2378634 32.55,58.95 L31.55,60.95 C29.9633333,63.9433333 28.2666667,66.8666667 26.46,69.72 C24.8,72.36 22.13,74.94 22.78,78.33 C23.1937061,80.5354404 24.7561966,82.3507589 26.8754763,83.0881691 C28.9947559,83.8255793 31.3466215,83.3722735 33.04,81.9 C35.29,79.97 35.21,77.13 35.76,74.44 C36.12,72.75 36.57,71.07 37.01,69.44 C37.7633333,66.6 38.6033333,63.7833333 39.53,60.99 C40.0302709,59.5348923 41.4222032,58.577178 42.96,58.63 L44.05,58.63" id="_Path_788" stroke="#847B42" stroke-width="3" stroke-linecap="round" stroke-linejoin="round"></path>
                <path d="M43.94,51.62 C44.435268,52.5982419 45.4712099,53.1816478 46.5644864,53.0980181 C47.6577629,53.0143884 48.5929164,52.2802045 48.9336324,51.2380144 C49.2743484,50.1958244 48.9534802,49.051018 48.1207353,48.3377274 C47.2879904,47.6244369 46.107482,47.4832341 45.13,47.98" id="_Path_789" stroke="#847B42" stroke-width="3" stroke-linecap="round" stroke-linejoin="round"></path>
                <path d="M45.95,33.58 C44.5755117,34.2775172 43.7566937,35.7344725 43.8755041,37.2712329 C43.9943145,38.8079933 45.0273446,40.1217781 46.4927119,40.5997396 C47.9580791,41.0777012 49.567069,40.6256691 50.5691283,39.4545048 C51.5711875,38.2833406 51.7688851,36.6237933 51.07,35.25" id="_Path_790" stroke="#847B42" stroke-width="3" stroke-linecap="round" stroke-linejoin="round"></path>
                <path d="M35.76,43.63 C36.809693,43.0963948 37.4343428,41.9827755 37.3424459,40.8088313 C37.2505491,39.6348871 36.460221,38.6320329 35.3402814,38.2682674 C34.2203419,37.9045018 32.9915601,38.2515326 32.2273676,39.147412 C31.4631752,40.0432914 31.3142143,41.3114183 31.85,42.36" id="_Path_791" stroke="#847B42" stroke-width="3" stroke-linecap="round" stroke-linejoin="round"></path>
            </g>
        </g>
    </g>
</svg>